<svg width="122" height="50" viewBox="0 0 122 50" fill="none" xmlns="http://www.w3.org/2000/svg">
<path d="M22.9961 23.5039C24.5081 23.5039 25.8803 23.7558 27.1123 24.2598C28.3442 24.7451 29.3991 25.4361 30.2764 26.332C31.1536 27.2093 31.8254 28.2266 32.292 29.3838C32.7587 30.5225 32.9922 31.7547 32.9922 33.0801V44.2236C32.9922 45.1942 32.8146 46.0812 32.46 46.8838C32.1053 47.7051 31.5639 48.3497 30.8359 48.8164C30.1081 49.3016 29.1841 49.5439 28.0645 49.5439C26.9818 49.5439 26.0477 49.3481 25.2637 48.9561C24.4985 48.5827 23.9106 48.0316 23.5 47.3037C23.1081 46.5758 22.9121 45.7168 22.9121 44.7275C22.9121 44.485 22.9218 44.2328 22.9404 43.9717C22.9591 43.7291 22.9871 43.477 23.0244 43.2158C21.4937 43.2158 20.1119 42.964 18.8799 42.46C17.6479 41.9373 16.5931 41.228 15.7158 40.332C14.8385 39.4174 14.1668 38.3626 13.7002 37.168C13.2336 35.9734 13 34.7042 13 33.3604C13 31.9977 13.2335 30.7278 13.7002 29.5518C14.1668 28.3572 14.8386 27.3119 15.7158 26.416C16.5931 25.5014 17.6479 24.7921 18.8799 24.2881C20.1119 23.7654 21.4841 23.5039 22.9961 23.5039ZM28.9883 39.3516C28.5776 39.7062 28.2225 40.071 27.9238 40.4443C27.6254 40.7988 27.3829 41.1814 27.1963 41.5918C27.0097 41.9837 26.8697 42.4037 26.7764 42.8516C26.683 43.2996 26.6367 43.7763 26.6367 44.2803C26.6367 44.6347 26.6831 44.9332 26.7764 45.1758C26.8884 45.4371 27.0379 45.633 27.2246 45.7637C27.4112 45.8943 27.6072 45.96 27.8125 45.96C28.2043 45.9599 28.494 45.8016 28.6807 45.4844C28.886 45.1858 28.9882 44.7841 28.9883 44.2803V39.3516ZM42.4268 26.8242C44.0319 26.8242 45.3851 27.1601 46.4863 27.832C47.5877 28.504 48.4282 29.4092 49.0068 30.5479C49.5855 31.6865 49.875 32.9468 49.875 34.3281V41.4404H46.0381V39.0596H45.9824C45.7025 39.5634 45.3481 40.0211 44.9189 40.4316C44.5083 40.8423 44.0036 41.1694 43.4062 41.4121C42.809 41.6547 42.0995 41.7764 41.2783 41.7764C39.9717 41.7763 38.8329 41.4395 37.8623 40.7676C36.8919 40.0956 36.136 39.1999 35.5947 38.0801C35.0721 36.9414 34.8106 35.6907 34.8105 34.3281C34.8105 32.9281 35.1097 31.6582 35.707 30.5195C36.323 29.3811 37.2004 28.4853 38.3389 27.832C39.4775 27.1601 40.8402 26.8242 42.4268 26.8242ZM80.6172 6.18848C81.8304 6.1885 82.9036 6.38439 83.8369 6.77637C84.7702 7.1497 85.5538 7.69109 86.1885 8.40039C86.8231 9.09106 87.3085 9.91226 87.6445 10.8643C87.9805 11.7976 88.1494 12.8244 88.1494 13.9443C88.1494 15.3441 87.8598 16.5854 87.2812 17.668C86.7213 18.7505 85.9279 19.5998 84.9014 20.2158C83.8747 20.8318 82.6607 21.1396 81.2607 21.1396C80.6636 21.1396 80.0852 21.0556 79.5254 20.8877C78.9841 20.7197 78.489 20.4775 78.041 20.1602C77.6117 19.8429 77.2479 19.4693 76.9492 19.04H76.9209V32.9561C76.9209 34.524 76.282 36.9597 75.666 38.1357C75.05 39.2931 74.1825 40.1896 73.0625 40.8242C71.9426 41.4589 70.6078 41.7763 69.0586 41.7764C67.8639 41.7764 66.7899 41.5892 65.8379 41.2158C64.9048 40.8238 64.1209 40.2823 63.4863 39.5918C62.8517 38.8825 62.3663 38.0612 62.0303 37.1279C61.6943 36.176 61.5264 35.1395 61.5264 34.0195C61.5264 32.6011 61.8063 31.3598 62.3662 30.2959C62.9449 29.2132 63.7478 28.364 64.7744 27.748C65.8197 27.1321 67.0329 26.8243 68.4141 26.8242C69.0113 26.8242 69.5808 26.9082 70.1221 27.0762C70.6821 27.2442 71.1868 27.4864 71.6348 27.8037C72.0827 28.121 72.4466 28.4945 72.7266 28.9238L73 29.5L73.085 20.8877V13.9443C73.085 12.3577 73.3928 10.9854 74.0088 9.82812C74.6248 8.67079 75.4933 7.77432 76.6133 7.13965C77.7519 6.50513 79.0867 6.18848 80.6172 6.18848ZM60.8145 30.4355H57.5381C57.2955 30.4356 57.0812 30.5205 56.8945 30.6885C56.7266 30.8565 56.6426 31.0707 56.6426 31.332V41.4404H52.8066V31.2197C52.8067 29.9505 53.1608 28.9612 53.8701 28.252C54.5981 27.524 55.5969 27.1602 56.8662 27.1602H60.8145V30.4355ZM85.7412 26.8242C87.3464 26.8242 88.6435 27.1601 89.6328 27.832C90.6407 28.504 91.3781 29.4093 91.8447 30.5479C92.3114 31.6678 92.5449 32.9185 92.5449 34.2998C92.5449 34.4864 92.5353 34.7105 92.5166 34.9717C92.4979 35.2143 92.47 35.4016 92.4326 35.5322H82.7734C82.9228 36.1108 83.1747 36.5963 83.5293 36.9883C83.9026 37.3802 84.3602 37.6785 84.9014 37.8838C85.4613 38.0704 86.0868 38.1641 86.7773 38.1641H90.7529V41.4404H86.7207C85.0969 41.4404 83.6781 41.1316 82.4648 40.5156C81.2704 39.881 80.337 39.0229 79.665 37.9404C79.0117 36.8578 78.6855 35.6438 78.6855 34.2998C78.6856 32.7879 78.9934 31.4715 79.6094 30.3516C80.2253 29.2318 81.0651 28.364 82.1289 27.748C83.1929 27.132 84.3972 26.8242 85.7412 26.8242ZM101.66 26.8242C103.135 26.8242 104.385 27.1137 105.412 27.6924C106.457 28.271 107.251 29.0452 107.792 30.0156C108.352 30.9863 108.632 32.0603 108.632 33.2363V41.4404H104.796V33.2363C104.796 32.6577 104.656 32.1346 104.376 31.668C104.096 31.1827 103.713 30.7995 103.228 30.5195C102.761 30.2398 102.239 30.0996 101.66 30.0996C101.082 30.0996 100.55 30.2397 100.064 30.5195C99.5978 30.7995 99.2243 31.1827 98.9443 31.668C98.6643 32.1346 98.5244 32.6577 98.5244 33.2363V41.4404H94.6885V33.2363C94.6885 32.0603 94.9587 30.9863 95.5 30.0156C96.06 29.0451 96.863 28.271 97.9082 27.6924C98.9535 27.1137 100.204 26.8242 101.66 26.8242ZM22.9961 27.0322C22.1376 27.0322 21.3441 27.1906 20.6162 27.5078C19.8883 27.8251 19.2532 28.273 18.7119 28.8516C18.1706 29.4116 17.7508 30.0842 17.4521 30.8682C17.1535 31.6335 17.0039 32.4644 17.0039 33.3604C17.0039 34.2562 17.1535 35.096 17.4521 35.8799C17.7508 36.6452 18.1706 37.3178 18.7119 37.8965C19.2532 38.4564 19.8883 38.8946 20.6162 39.2119C21.3441 39.5292 22.1375 39.6885 22.9961 39.6885C23.2574 39.6885 23.5093 39.6788 23.752 39.6602C23.9945 39.6228 24.2369 39.5755 24.4795 39.5195C24.7967 39.0344 25.1705 38.5496 25.5996 38.0645C26.0289 37.5791 26.524 37.1024 27.084 36.6357C27.6439 36.1691 28.279 35.7213 28.9883 35.292V33.0801C28.9883 32.2215 28.8386 31.4281 28.54 30.7002C28.2414 29.9535 27.8216 29.3089 27.2803 28.7676C26.7389 28.2263 26.104 27.8065 25.376 27.5078C24.648 27.1905 23.8547 27.0322 22.9961 27.0322ZM69.0586 30.0996C68.3119 30.0996 67.6586 30.2868 67.0986 30.6602C66.5574 31.0334 66.1375 31.5373 65.8389 32.1719C65.5589 32.8065 65.419 33.5159 65.4189 34.2998C65.4189 35.0838 65.5589 35.7931 65.8389 36.4277C66.1375 37.0624 66.5573 37.5671 67.0986 37.9404C67.6586 38.3136 68.3121 38.5 69.0586 38.5C69.8238 38.5 70.4773 38.3137 71.0186 37.9404C71.5599 37.5671 71.97 37.0624 72.25 36.4277C72.5487 35.7931 72.6982 35.0838 72.6982 34.2998C72.6982 33.5159 72.5486 32.8065 72.25 32.1719C71.97 31.5374 71.5597 31.0334 71.0186 30.6602C70.4773 30.2868 69.8239 30.0996 69.0586 30.0996ZM42.668 30C41.9026 30 41.2397 30.1862 40.6797 30.5596C40.1384 30.9329 39.7186 31.4376 39.4199 32.0723C39.14 32.6882 39 33.388 39 34.1719C39 34.9559 39.1399 35.6748 39.4199 36.3281C39.7185 36.9626 40.1385 37.4665 40.6797 37.8398C41.2397 38.2132 41.9026 38.4004 42.668 38.4004C43.4145 38.4004 44.0583 38.2131 44.5996 37.8398C45.1409 37.4665 45.552 36.9627 45.832 36.3281C46.1307 35.6748 46.2803 34.9559 46.2803 34.1719C46.2803 33.388 46.1306 32.6882 45.832 32.0723C45.552 31.4376 45.1409 30.9329 44.5996 30.5596C44.0584 30.1865 43.4144 30 42.668 30ZM85.7695 29.9883C85.3029 29.9883 84.8821 30.0722 84.5088 30.2402C84.1543 30.4082 83.8559 30.6322 83.6133 30.9121C83.3706 31.1921 83.1747 31.5096 83.0254 31.8643C82.8947 32.2189 82.8011 32.5828 82.7451 32.9561H88.709C88.6717 32.6014 88.606 32.2743 88.5127 31.9756C88.4194 31.6585 88.289 31.3783 88.1211 31.1357C87.9531 30.8932 87.7571 30.6875 87.5332 30.5195C87.3092 30.3516 87.0476 30.2212 86.749 30.1279C86.4505 30.0347 86.124 29.9883 85.7695 29.9883ZM21.0586 7.53223C21.6558 7.04699 22.2997 6.70144 22.9902 6.49609C23.6807 6.29081 24.3623 6.18853 25.0342 6.18848C26.4153 6.18848 27.5543 6.47721 28.4502 7.05566C29.3649 7.63433 30.0471 8.40922 30.4951 9.37988C30.943 10.3504 31.1669 11.4238 31.167 12.5996V20.8037H27.3311V12.5996C27.331 12.0213 27.1909 11.4987 26.9111 11.0322C26.6311 10.5469 26.248 10.1638 25.7627 9.88379C25.296 9.60382 24.773 9.46387 24.1943 9.46387C23.6346 9.46392 23.1121 9.60397 22.627 9.88379C22.1604 10.1451 21.7772 10.509 21.4785 10.9756C21.1985 11.4236 21.0586 11.9283 21.0586 12.4883V20.8037H17.2227V1H21.0586V7.53223ZM40.4609 6.18848C42.0662 6.1885 43.3632 6.52433 44.3525 7.19629C45.3605 7.86828 46.0978 8.77345 46.5645 9.91211C47.0311 11.0321 47.2646 12.2827 47.2646 13.6641C47.2646 13.8507 47.255 14.0746 47.2363 14.3359C47.2177 14.5786 47.1897 14.7658 47.1523 14.8965H37.4932C37.6425 15.4749 37.8945 15.9597 38.249 16.3516C38.6224 16.7436 39.0798 17.0427 39.6211 17.248C40.181 17.4346 40.8065 17.5283 41.4971 17.5283H45.4727V20.8037H41.4404C39.8166 20.8037 38.3978 20.4958 37.1846 19.8799C35.99 19.2452 35.0567 18.3863 34.3848 17.3037C33.7315 16.2211 33.4053 15.0079 33.4053 13.6641C33.4053 12.1521 33.7131 10.8358 34.3291 9.71582C34.945 8.59604 35.7848 7.72825 36.8486 7.1123C37.9126 6.4963 39.1169 6.18848 40.4609 6.18848ZM69.7256 4.73242H61.6055C61.2322 4.73245 60.8866 4.83473 60.5693 5.04004C60.2521 5.22669 60.0001 5.47865 59.8135 5.7959C59.6455 6.11323 59.5615 6.46835 59.5615 6.86035C59.5616 7.25213 59.6456 7.60664 59.8135 7.92383C60.0001 8.24104 60.2522 8.49304 60.5693 8.67969C60.8866 8.86633 61.2322 8.95994 61.6055 8.95996H64.9932C66.2064 8.95996 67.2613 9.19358 68.1572 9.66016C69.0532 10.1268 69.7442 10.7801 70.2295 11.6201C70.7334 12.46 70.9853 13.4398 70.9854 14.5596C70.9854 15.8849 70.7238 17.0149 70.2012 17.9482C69.6972 18.8813 69.007 19.5909 68.1299 20.0762C67.2712 20.5615 66.3188 20.8037 65.2734 20.8037H56.3691V17.2764H64.7695C65.1802 17.2764 65.5536 17.1731 65.8896 16.9678C66.2255 16.7625 66.4959 16.492 66.7012 16.1562C66.9065 15.8016 67.0098 15.4185 67.0098 15.0078C67.0097 14.5786 66.9065 14.1963 66.7012 13.8604C66.4958 13.5057 66.2256 13.2249 65.8896 13.0195C65.5537 12.8143 65.1801 12.7119 64.7695 12.7119H61.4932C60.3922 12.7119 59.3938 12.4879 58.498 12.04C57.6022 11.5921 56.8831 10.9482 56.3418 10.1084C55.8192 9.24981 55.5577 8.22285 55.5576 7.02832C55.5576 5.85232 55.8095 4.83425 56.3135 3.97559C56.8175 3.09838 57.4988 2.41693 58.3574 1.93164C59.2161 1.44631 60.1685 1.2041 61.2139 1.2041H69.7256V4.73242ZM94.248 20.8037H90.3838V6.52441H94.248V20.8037ZM105.94 9.7998H104.148C103.365 9.79985 102.683 9.96775 102.104 10.3037C101.545 10.6397 101.106 11.1068 100.789 11.7041C100.49 12.2828 100.341 12.9361 100.341 13.6641C100.341 14.392 100.49 15.055 100.789 15.6523C101.106 16.2308 101.545 16.6885 102.104 17.0244C102.683 17.3604 103.365 17.5283 104.148 17.5283H105.94V20.8037H104.148C102.674 20.8037 101.358 20.4861 100.201 19.8516C99.0438 19.2169 98.129 18.3677 97.457 17.3037C96.7851 16.2211 96.4492 15.008 96.4492 13.6641C96.4492 12.3201 96.785 11.1158 97.457 10.0518C98.129 8.96924 99.0439 8.11019 100.201 7.47559C101.358 6.84115 102.674 6.52446 104.148 6.52441H105.94V9.7998ZM114.265 6.18848C115.87 6.18848 117.168 6.52429 118.157 7.19629C119.165 7.86827 119.903 8.77355 120.369 9.91211C120.836 11.0321 121.069 12.2828 121.069 13.6641C121.069 13.8507 121.06 14.0747 121.041 14.3359C121.022 14.5786 120.994 14.7658 120.957 14.8965H111.297C111.446 15.4748 111.698 15.9597 112.053 16.3516C112.426 16.7435 112.884 17.0427 113.425 17.248C113.985 17.4347 114.61 17.5283 115.301 17.5283H119.277V20.8037H115.245C113.621 20.8037 112.203 20.4958 110.989 19.8799C109.795 19.2452 108.861 18.3864 108.189 17.3037C107.536 16.2211 107.209 15.008 107.209 13.6641C107.209 12.1521 107.517 10.8358 108.133 9.71582C108.749 8.59585 109.589 7.72829 110.653 7.1123C111.717 6.4964 112.921 6.18853 114.265 6.18848ZM14.9238 4.52832H9.46387V15.2236C9.46387 15.7276 9.64143 16.1667 9.99609 16.54C10.3507 16.8947 10.7802 17.0723 11.2842 17.0723H12.6836V20.5996H11.2842C10.1271 20.5996 9.10964 20.3389 8.23242 19.8164C7.35528 19.2752 6.67379 18.5655 6.18848 17.6885C5.70315 16.7925 5.45997 15.812 5.45996 14.748V4.52832H0V1H14.9238V4.52832ZM80.6172 9.46387C79.8705 9.46387 79.2172 9.65108 78.6572 10.0244C78.1159 10.3977 77.6961 10.9015 77.3975 11.5361C77.1175 12.1708 76.9775 12.8801 76.9775 13.6641C76.9775 14.448 77.1175 15.1573 77.3975 15.792C77.6961 16.4266 78.1159 16.9304 78.6572 17.3037C79.2172 17.677 79.8705 17.8643 80.6172 17.8643C81.3825 17.8642 82.0358 17.677 82.5771 17.3037C83.1183 16.9304 83.5286 16.4265 83.8086 15.792C84.1073 15.1573 84.2568 14.448 84.2568 13.6641C84.2568 12.8801 84.1073 12.1708 83.8086 11.5361C83.5286 10.9016 83.1183 10.3977 82.5771 10.0244C82.0358 9.6511 81.3825 9.46389 80.6172 9.46387ZM40.4893 9.35156C40.0226 9.35156 39.6018 9.43649 39.2285 9.60449C38.874 9.77247 38.5756 9.99649 38.333 10.2764C38.0905 10.5562 37.8944 10.8731 37.7451 11.2275C37.6145 11.5822 37.5208 11.947 37.4648 12.3203H43.4287C43.3914 11.9656 43.3258 11.6385 43.2324 11.3398C43.1391 11.0226 43.0088 10.7426 42.8408 10.5C42.6728 10.2573 42.4769 10.0518 42.2529 9.88379C42.0289 9.71581 41.7674 9.58551 41.4688 9.49219C41.1702 9.3989 40.8438 9.3516 40.4893 9.35156ZM114.293 9.35156C113.826 9.35157 113.407 9.4365 113.033 9.60449C112.679 9.77249 112.379 9.99638 112.137 10.2764C111.894 10.5562 111.698 10.8732 111.549 11.2275C111.418 11.5822 111.326 11.947 111.27 12.3203H117.233C117.196 11.9656 117.13 11.6385 117.037 11.3398C116.944 11.0227 116.813 10.7426 116.646 10.5C116.478 10.2573 116.281 10.0518 116.057 9.88379C115.833 9.716 115.572 9.58546 115.273 9.49219C114.975 9.39885 114.648 9.35156 114.293 9.35156ZM92.3154 0C92.9687 0 93.5294 0.242238 93.9961 0.727539C94.4814 1.19421 94.7236 1.75487 94.7236 2.4082C94.7236 3.06141 94.4813 3.63095 93.9961 4.11621C93.5294 4.58288 92.9688 4.81641 92.3154 4.81641C91.6622 4.81634 91.0927 4.58281 90.6074 4.11621C90.1408 3.63093 89.9083 3.06144 89.9082 2.4082C89.9082 1.75487 90.1408 1.19421 90.6074 0.727539C91.0927 0.242332 91.6623 6.9887e-05 92.3154 0Z" fill="white"/>
</svg>
