<svg width="107" height="31" viewBox="0 0 107 31" fill="none" xmlns="http://www.w3.org/2000/svg">
<path d="M43.639 20.3509C43.639 23.5953 41.0089 26.2254 37.7645 26.2254H26.4351C23.1907 26.2254 20.5605 23.5953 20.5605 20.3509V7.1333H25.1762V20.3509C25.1762 21.0462 25.7398 21.6098 26.4351 21.6098H37.7645C38.4597 21.6098 39.0233 21.0462 39.0233 20.3509V7.1333H43.639V20.3509Z" fill="#0A0A0A"/>
<path d="M15.5255 20.351C15.5255 23.5954 12.8954 26.2255 9.65098 26.2255H0V21.6098H9.65098C10.3462 21.6098 10.9098 21.0462 10.9098 20.351V0H15.5255V20.351Z" fill="#0A0A0A"/>
<ellipse cx="59.4788" cy="15.5259" rx="11.6441" ry="8.39215" fill="#155DFC"/>
<circle cx="63.9897" cy="17.8337" r="3.35686" fill="white"/>
<ellipse cx="95.3558" cy="15.5259" rx="11.6441" ry="8.39215" fill="#155DFC"/>
<circle cx="99.8665" cy="17.8337" r="3.35686" fill="white"/>
<path d="M86.4392 4.61568H79.5157V26.2255H83.7118V26.2181L86.4392 26.2255V30.6162H78.4667C75.7393 30.6162 74.9 29.7921 74.9 26.75V4.61568H68.3961V0H86.4392V4.61568Z" fill="#0A0A0A"/>
</svg>
