<?xml version="1.0" standalone="no"?>
<!DOCTYPE svg PUBLIC "-//W3C//DTD SVG 1.1//EN" "http://www.w3.org/Graphics/SVG/1.1/DTD/svg11.dtd" >
<svg xmlns="http://www.w3.org/2000/svg" xmlns:xlink="http://www.w3.org/1999/xlink" version="1.1">
<metadata>
Created by FontForge 20201107 at Wed Sep 11 12:37:47 2024
 By 
Copyright 2022 The Mona Sans Project Authors (https://github.com/github/mona-sans), with Reserved Font Name "Mona"
</metadata>
<defs>
<font id="MonaSans-Regular" horiz-adv-x="0" >
  <font-face 
    font-family="Mona Sans"
    font-weight="400"
    font-stretch="normal"
    units-per-em="1000"
    panose-1="0 0 0 0 0 0 0 0 0 0"
    ascent="800"
    descent="-200"
    x-height="525"
    cap-height="729"
    bbox="-218 -241.038 1123 1047"
    underline-thickness="320"
    underline-position="-300"
    unicode-range="U+0020-FB02"
  />
<missing-glyph horiz-adv-x="866" 
d="M310 -8q-78 25 -136.5 76.5t-91 125t-32.5 162.5q0 115 48 200.5t134 133.5t201 48t201 -48t134 -133.5t48 -200.5q0 -89 -32.5 -162.5t-91 -125t-136.5 -76.5q-10 -3 -18.5 1.5t-8.5 16.5v105q0 54 -36 71q86 9 135.5 56.5t49.5 123.5q0 38 -10.5 65t-29.5 46q8 24 7 52
t-11 50q-28 2 -57 -9t-47 -31q-24 8 -48 11t-49 3t-49 -3t-48 -11q-18 20 -46.5 31t-57.5 9q-10 -22 -10.5 -50t6.5 -52q-19 -19 -29.5 -46t-10.5 -65q0 -76 49.5 -123.5t135.5 -56.5q-29 -13 -35 -52q-18 -10 -44 -10q-24 0 -39 13t-26.5 29.5t-25.5 29.5t-36 13
q-14 0 -14 -10t15 -17.5t26 -25.5q11 -17 21 -35.5t28.5 -31.5t54.5 -13q19 0 39 4v-70q0 -12 -8.5 -16.5t-18.5 -1.5zM222 150q-7 0 -7 5t6 5q7 0 7 -5t-6 -5zM191 185q-6 0 -6 4t5 4q6 0 6 -4t-5 -4zM206 171q-6 0 -6 4t5 4q6 0 6 -4t-5 -4zM266 109q-8 0 -8 6t7 6
q8 0 8 -6t-7 -6zM297 104q-8 0 -8 6t7 6q8 0 8 -6t-7 -6zM328 110q-8 0 -8 6t7 6q8 0 8 -6t-7 -6zM240 127q-8 0 -8 6t7 6q8 0 8 -6t-7 -6z" />
    <glyph glyph-name="fi" unicode="fi" horiz-adv-x="542" 
d="M101 0v460h-88v65h88v87q0 59 33 88t92 29h72v-65h-55q-36 0 -49 -16.5t-13 -45.5v-77h285v-525h-80v460h-205v-460h-80zM426 615q-22 0 -36 12.5t-14 32.5q0 21 14 33.5t36 12.5t36 -12.5t14 -33.5q0 -20 -14 -32.5t-36 -12.5z" />
    <glyph glyph-name="fl" unicode="fl" horiz-adv-x="547" 
d="M101 0v460h-88v65h88v87q0 59 33 88t92 29h72v-65h-55q-36 0 -49 -16.5t-13 -45.5v-77h210v204h80v-729h-80v460h-210v-460h-80z" />
    <glyph glyph-name="f_f.liga" unicode="ff" horiz-adv-x="579" 
d="M101 0v460h-88v65h88v87q0 59 33 88t92 29h72v-65h-55q-36 0 -49 -16.5t-13 -45.5v-77h196v87q0 59 33 88t92 29h72v-65h-55q-36 0 -49 -16.5t-13 -45.5v-77h108v-65h-108v-460h-80v460h-196v-460h-80z" />
    <glyph glyph-name="f_f_i.liga" unicode="ffi" horiz-adv-x="818" 
d="M101 0v460h-88v65h88v87q0 59 33 88t92 29h72v-65h-55q-36 0 -49 -16.5t-13 -45.5v-77h196v87q0 59 33 88t92 29h72v-65h-55q-36 0 -49 -16.5t-13 -45.5v-77h284v-525h-80v460h-204v-460h-80v460h-196v-460h-80zM702 615q-23 0 -37 12.5t-14 32.5q0 21 14 33.5t36 12.5
q23 0 37 -12.5t14 -33.5q0 -20 -14 -32.5t-36 -12.5z" />
    <glyph glyph-name="f_y.liga" unicode="fy" horiz-adv-x="778" 
d="M312 -167v67h53q25 0 42 7t29 21t20 36l33 83v-23l-185 436h-123v-460h-80v460h-88v65h88v87q0 59 33 88t92 29h72v-65h-55q-36 0 -49 -16.5t-13 -45.5v-77h184l109 -286l47 -126h5l44 126l103 286h85l-226 -582q-16 -41 -37.5 -65.5t-50.5 -34.5t-67 -10h-65z" />
    <glyph glyph-name="t_i.liga" unicode="ti" horiz-adv-x="590" 
d="M225 0q-38 0 -60.5 11t-32 33.5t-9.5 55.5v358h-102v67h102v157l80 11v-168h311v-525h-81v458h-230v-344q0 -28 10.5 -37t37.5 -9h74v-68h-100zM474 615q-22 0 -36.5 12.5t-14.5 33.5t14.5 33t36.5 12t36 -12t14 -33t-14 -33.5t-36 -12.5z" />
    <glyph glyph-name="t_t.liga" unicode="tt" horiz-adv-x="657" 
d="M235 0q-55 0 -83.5 26.5t-28.5 86.5v345h-102v67h102v157l80 11v-168h218v157l80 11v-168h122v-67h-121v-332q0 -30 14 -43.5t41 -13.5h68v-69h-92q-55 0 -83.5 26.5t-28.5 86.5v345h-217v-332q0 -30 14 -43.5t41 -13.5h68v-69h-92z" />
    <glyph glyph-name=".notdef" horiz-adv-x="866" 
d="M310 -8q-78 25 -136.5 76.5t-91 125t-32.5 162.5q0 115 48 200.5t134 133.5t201 48t201 -48t134 -133.5t48 -200.5q0 -89 -32.5 -162.5t-91 -125t-136.5 -76.5q-10 -3 -18.5 1.5t-8.5 16.5v105q0 54 -36 71q86 9 135.5 56.5t49.5 123.5q0 38 -10.5 65t-29.5 46q8 24 7 52
t-11 50q-28 2 -57 -9t-47 -31q-24 8 -48 11t-49 3t-49 -3t-48 -11q-18 20 -46.5 31t-57.5 9q-10 -22 -10.5 -50t6.5 -52q-19 -19 -29.5 -46t-10.5 -65q0 -76 49.5 -123.5t135.5 -56.5q-29 -13 -35 -52q-18 -10 -44 -10q-24 0 -39 13t-26.5 29.5t-25.5 29.5t-36 13
q-14 0 -14 -10t15 -17.5t26 -25.5q11 -17 21 -35.5t28.5 -31.5t54.5 -13q19 0 39 4v-70q0 -12 -8.5 -16.5t-18.5 -1.5zM222 150q-7 0 -7 5t6 5q7 0 7 -5t-6 -5zM191 185q-6 0 -6 4t5 4q6 0 6 -4t-5 -4zM206 171q-6 0 -6 4t5 4q6 0 6 -4t-5 -4zM266 109q-8 0 -8 6t7 6
q8 0 8 -6t-7 -6zM297 104q-8 0 -8 6t7 6q8 0 8 -6t-7 -6zM328 110q-8 0 -8 6t7 6q8 0 8 -6t-7 -6zM240 127q-8 0 -8 6t7 6q8 0 8 -6t-7 -6z" />
    <glyph glyph-name=".null" 
 />
    <glyph glyph-name="nonmarkingreturn" horiz-adv-x="333" 
 />
    <glyph glyph-name="space" unicode=" " horiz-adv-x="229" 
 />
    <glyph glyph-name="exclam" unicode="!" horiz-adv-x="244" 
d="M101 199l-20 292v238h83v-238l-21 -292h-42zM122 -7q-21 0 -34.5 12.5t-13.5 33.5q0 20 13.5 32.5t34.5 12.5t34.5 -12.5t13.5 -32.5q0 -21 -13.5 -33.5t-34.5 -12.5z" />
    <glyph glyph-name="quotedbl" unicode="&#x22;" horiz-adv-x="370" 
d="M73 469l-17 150v110h72v-110l-17 -150h-38zM259 469l-17 150v110h72v-110l-17 -150h-38z" />
    <glyph glyph-name="numbersign" unicode="#" horiz-adv-x="651" 
d="M182 0v227h-152v56h152v181h-152v56h152v209h64v-209h164v209h63v-209h147v-56h-147v-181h147v-56h-147v-227h-63v227h-164v-227h-64zM246 283h164v181h-164v-181z" />
    <glyph glyph-name="dollar" unicode="$" horiz-adv-x="656" 
d="M331 9q-91 0 -151.5 28.5t-90.5 79t-31 117.5h87q2 -48 22 -83t61 -54.5t104 -19.5q53 0 93 13t62.5 40t22.5 68q0 42 -17 68t-58.5 42t-115.5 29q-58 10 -103.5 24t-77 35t-48 53t-16.5 78q0 59 30 102t86 67t135 24t134.5 -25t85.5 -70.5t31 -106.5h-87q-1 44 -22 74
t-58 45.5t-88 15.5q-50 0 -85 -14.5t-54 -40t-19 -60.5q0 -41 18.5 -63t61.5 -35t117 -27q48 -8 91 -20t76 -34t52 -59.5t19 -94.5q0 -58 -30.5 -102t-90 -69t-146.5 -25zM298 -85v125h61v-125h-61zM298 680v134h61v-134h-61z" />
    <glyph glyph-name="percent" unicode="%" horiz-adv-x="846" 
d="M159 0l462 729h66l-463 -729h-65zM204 327q-43 0 -76 23t-51 68t-18 111t18.5 110.5t51.5 67t75 22.5q43 0 75.5 -22.5t50.5 -67t18 -110.5q0 -67 -18.5 -111.5t-50.5 -67.5t-75 -23zM204 380q27 0 45.5 17t28 50.5t9.5 81.5t-9.5 81t-28 49.5t-45.5 16.5t-46 -17
t-28.5 -49.5t-9.5 -80.5q0 -36 5.5 -64t16.5 -47t26.5 -28.5t35.5 -9.5zM643 -6q-43 0 -76 22t-51 67.5t-18 111.5t18 110.5t51 67t76 22.5t75.5 -22.5t50.5 -67.5t18 -111q0 -65 -18.5 -110.5t-50.5 -67.5t-75 -22zM643 46q27 0 45 17t27.5 50t9.5 81q0 49 -9.5 82
t-27.5 50t-45 17t-46 -17t-28.5 -50t-9.5 -82q0 -48 9.5 -81t28.5 -50t46 -17z" />
    <glyph glyph-name="ampersand" unicode="&#x26;" horiz-adv-x="781" 
d="M688 -6q-45 0 -83.5 18.5t-73 48t-67.5 65.5l-197 217q-37 40 -59.5 73t-35 60t-17 50t-4.5 43q0 52 24.5 90t66.5 59t95 21q50 0 87.5 -19.5t59 -55t21.5 -82.5q0 -42 -20.5 -79t-60 -68t-97.5 -58l-38 40q50 23 81 47.5t46 52t15 58.5q0 46 -26 71t-69 25
q-48 0 -77 -27t-29 -72q0 -20 5 -40t16.5 -42.5t33 -50.5t54.5 -65l177 -194q39 -44 70 -68.5t59 -35t57 -10.5q10 0 18.5 1.5t16.5 5.5l-2 -73q-10 -3 -22 -4.5t-25 -1.5zM246 -10q-57 0 -101 23.5t-69.5 65.5t-25.5 97q0 50 23.5 92t66.5 74.5t100 56.5l40 -48
q-49 -20 -82 -45.5t-49.5 -55.5t-16.5 -66q0 -57 36 -91.5t93 -34.5q67 0 115 29t77 80l50 -40q-27 -45 -66 -76t-87.5 -46t-103.5 -15zM529 152l-54 44q20 34 32 70t17 71v30h163l8 -68l-108 2q-5 -22 -13.5 -48t-20 -52t-24.5 -49z" />
    <glyph glyph-name="quotesingle" unicode="'" horiz-adv-x="184" 
d="M73 469l-17 150v110h72v-110l-17 -150h-38z" />
    <glyph glyph-name="parenleft" unicode="(" horiz-adv-x="339" 
d="M236 -167q-57 55 -98 132t-62.5 166.5t-21.5 181.5q0 69 12.5 137t36 131t57.5 117t76 95h73q-41 -41 -73.5 -95.5t-55 -117.5t-35 -131t-12.5 -136q0 -95 22.5 -185t62 -166t91.5 -129h-73z" />
    <glyph glyph-name="parenright" unicode=")" horiz-adv-x="339" 
d="M102 793q58 -55 98.5 -132t62.5 -166.5t22 -181.5q0 -69 -12.5 -137t-36 -131t-57.5 -117t-77 -95h-72q41 41 73.5 95.5t55 117.5t34.5 131t12 136q0 95 -22 185t-61.5 166t-91.5 129h72z" />
    <glyph glyph-name="asterisk" unicode="*" horiz-adv-x="310" 
d="M134 450v55l11 66l-53 -41l-47 -28l-21 36l47 28l60 24l-60 25l-46 26l20 36l47 -26l53 -41l-11 66v53h42v-53l-11 -66l54 41l47 26l20 -36l-47 -26l-59 -25l59 -24l47 -28l-20 -36l-47 28l-54 41l11 -66v-55h-42z" />
    <glyph glyph-name="plus" unicode="+" horiz-adv-x="600" 
d="M266 123v205h-204v66h204v205h68v-205h204v-66h-204v-205h-68z" />
    <glyph glyph-name="comma" unicode="," horiz-adv-x="197" 
d="M31 -136q33 37 54 76.5t24 69.5l8 -5q-3 -3 -9 -6t-14 -3q-20 0 -32 12.5t-12 30.5q0 21 13.5 33t34.5 12q22 0 36.5 -14.5t14.5 -43.5q0 -22 -6.5 -45t-17.5 -45.5t-23.5 -41.5t-25.5 -30h-45z" />
    <glyph glyph-name="hyphen" unicode="-" horiz-adv-x="394" 
d="M54 228v69h287v-69h-287z" />
    <glyph glyph-name="period" unicode="." horiz-adv-x="188" 
d="M94 -7q-21 0 -34.5 12.5t-13.5 33.5q0 20 13.5 32.5t34.5 12.5t34.5 -12.5t13.5 -32.5q0 -21 -13.5 -33.5t-34.5 -12.5z" />
    <glyph glyph-name="slash" unicode="/" horiz-adv-x="392" 
d="M-13 -81l316 810h78l-314 -810h-80z" />
    <glyph glyph-name="zero" unicode="0" horiz-adv-x="614" 
d="M307 -9q-59 0 -106 23.5t-80 70t-50.5 115.5t-17.5 160q0 126 32 207.5t89 121.5t133 40q60 0 106.5 -23.5t79.5 -70t50.5 -115.5t17.5 -160q0 -126 -31.5 -207.5t-89 -121.5t-133.5 -40zM307 60q44 0 76.5 19.5t53 57t31 94t10.5 129.5t-10.5 129t-31 94t-53 57
t-76.5 19t-76.5 -19t-53 -57t-30.5 -94t-10 -129t10 -129.5t30.5 -94t53 -57t76.5 -19.5z" />
    <glyph glyph-name="one" unicode="1" horiz-adv-x="363" 
d="M198 0v541h-170v62h27q72 0 106 32.5t39 85.5h79v-721h-81z" />
    <glyph glyph-name="two" unicode="2" horiz-adv-x="550" 
d="M46 0v24q0 55 20.5 98.5t53.5 79.5t73 66.5t80.5 59t73.5 58t53.5 63.5t20.5 75q0 42 -17.5 72.5t-50 46.5t-76.5 16q-48 0 -83 -19.5t-53.5 -54t-16.5 -79.5l-82 -1q0 67 29.5 117t83.5 78.5t125 28.5q69 0 119 -25t77 -71t27 -107q0 -48 -18.5 -86.5t-50 -70.5t-69 -60
t-76 -55t-71.5 -55t-56 -59t-29 -69h373v-71h-460z" />
    <glyph glyph-name="three" unicode="3" horiz-adv-x="574" 
d="M275 -9q-70 0 -122.5 26t-82 72.5t-32.5 108.5h80q2 -41 22 -72t55 -48t80 -17q75 0 119.5 39t44.5 105q0 45 -18.5 75.5t-51.5 45.5t-78 15h-71v63h58q50 0 85 16.5t53 46t18 68.5q0 40 -18 68t-51.5 43t-77.5 15q-45 0 -79 -17t-53.5 -47.5t-22.5 -71.5h-80
q3 61 33 107.5t82.5 72t121.5 25.5t120 -23.5t79 -65.5t28 -99q0 -41 -16 -74t-44 -56t-64 -34v-5q41 -9 70.5 -33.5t44.5 -60t15 -80.5q0 -63 -31 -110t-86.5 -72.5t-129.5 -25.5z" />
    <glyph glyph-name="four" unicode="4" horiz-adv-x="620" 
d="M379 0v658h21l-287 -407h479v-68h-563v65l335 473h96v-721h-81z" />
    <glyph glyph-name="five" unicode="5" horiz-adv-x="587" 
d="M289 -9q-68 0 -119.5 25.5t-81 71t-33.5 105.5h81q4 -39 24 -68.5t53.5 -46t77.5 -16.5q54 0 91 21.5t56.5 59.5t19.5 87q0 53 -20.5 90t-57 57t-85.5 20q-53 0 -92.5 -23.5t-55.5 -61.5h-82l30 409h429v-72h-359l-21 -260l4 -2q23 34 67.5 55.5t98.5 21.5q51 0 93 -16.5
t72 -47t46.5 -73t16.5 -94.5q0 -72 -31.5 -126.5t-88.5 -85t-133 -30.5z" />
    <glyph glyph-name="six" unicode="6" horiz-adv-x="609" 
d="M311 -8q-64 0 -112.5 21t-80.5 63t-47.5 103t-15.5 140q0 108 16.5 185.5t50 127.5t84 74t118.5 24q48 0 88.5 -13t71 -37t49.5 -58t23 -76h-81q-5 30 -18 51t-33 35t-46 21t-55 7q-58 0 -94.5 -23.5t-57 -66.5t-29 -103t-9.5 -134h4q12 37 39 64.5t67 43t90 15.5
q68 0 119 -28t79.5 -79t28.5 -119q0 -72 -31.5 -126t-87.5 -83t-130 -29zM314 63q49 0 85.5 20.5t57 58.5t20.5 87q0 51 -20 87t-56.5 56t-85.5 20q-52 0 -89.5 -22.5t-57.5 -60t-20 -85.5q0 -49 21 -85.5t58.5 -56t86.5 -19.5z" />
    <glyph glyph-name="seven" unicode="7" horiz-adv-x="554" 
d="M203 0q0 110 18.5 201.5t51 169t73.5 146t85 133.5h-324v-149h-67v220h487v-58q-38 -55 -73.5 -111t-65 -115t-52 -125.5t-34.5 -143.5t-12 -168h-87z" />
    <glyph glyph-name="eight" unicode="8" horiz-adv-x="594" 
d="M297 -10q-57 0 -103.5 14.5t-80 41t-51 63t-17.5 81.5t18.5 81.5t52.5 62.5t83 36v4q-37 11 -66.5 34.5t-46 57.5t-16.5 73q0 59 28 101.5t79.5 65.5t119.5 23q71 0 121.5 -23.5t78 -66t27.5 -100.5q0 -39 -16.5 -73t-45.5 -57.5t-67 -34.5v-4q49 -10 83.5 -36
t52.5 -62.5t18 -81.5q0 -60 -32 -105t-88.5 -70t-131.5 -25zM297 61q51 0 88.5 17t58 48.5t20.5 73.5q0 38 -16.5 69.5t-53 50.5t-97.5 19q-60 0 -97 -19t-53.5 -50.5t-16.5 -69.5q0 -42 20.5 -73.5t58.5 -48.5t88 -17zM297 404q54 0 86.5 18.5t47 48t14.5 62.5t-14 62
t-46.5 47.5t-87.5 18.5t-87.5 -18.5t-46.5 -47.5t-14 -62q0 -25 8 -48t25.5 -41.5t45.5 -29t69 -10.5z" />
    <glyph glyph-name="nine" unicode="9" horiz-adv-x="609" 
d="M298 730q64 0 112.5 -21t80.5 -63t48 -103t16 -140q0 -108 -17 -185.5t-50.5 -127.5t-84 -74t-118.5 -24q-48 0 -88.5 13t-71 37t-49.5 58t-23 76h81q5 -30 18 -51t33.5 -35t46 -21t54.5 -7q58 0 94.5 23.5t57 66.5t29 103t9.5 134h-4q-12 -36 -39 -64t-66.5 -43.5
t-90.5 -15.5q-68 0 -119 28t-79.5 79t-28.5 119q0 73 31.5 126.5t88 82.5t129.5 29zM295 659q-48 0 -85 -20.5t-57.5 -58t-20.5 -87.5t20 -86.5t57 -56.5t85 -20q52 0 89.5 22.5t57.5 60.5t20 85q0 50 -21 86t-58 55.5t-87 19.5z" />
    <glyph glyph-name="colon" unicode=":" horiz-adv-x="188" 
d="M94 -7q-21 0 -34.5 12.5t-13.5 33.5q0 20 13.5 32.5t34.5 12.5t34.5 -12.5t13.5 -32.5q0 -21 -13.5 -33.5t-34.5 -12.5zM94 441q-21 0 -34.5 12.5t-13.5 33.5q0 20 13.5 32.5t34.5 12.5t34.5 -12.5t13.5 -32.5q0 -21 -13.5 -33.5t-34.5 -12.5z" />
    <glyph glyph-name="semicolon" unicode=";" horiz-adv-x="197" 
d="M31 -136q33 37 54 76.5t24 69.5l8 -5q-3 -3 -9 -6t-14 -3q-20 0 -32 12.5t-12 30.5q0 21 13.5 33t34.5 12q22 0 36.5 -14.5t14.5 -43.5q0 -22 -6.5 -45t-17.5 -45.5t-23.5 -41.5t-25.5 -30h-45zM98 441q-21 0 -34.5 12.5t-13.5 33.5q0 20 13.5 32.5t34.5 12.5t34.5 -12.5
t13.5 -32.5q0 -21 -13.5 -33.5t-34.5 -12.5z" />
    <glyph glyph-name="less" unicode="&#x3c;" horiz-adv-x="600" 
d="M540 605v-81l-410 -159v-7l410 -161v-80l-488 198v93z" />
    <glyph glyph-name="equal" unicode="=" horiz-adv-x="600" 
d="M62 441v65h476v-65h-476zM62 215v66h476v-66h-476z" />
    <glyph glyph-name="greater" unicode="&#x3e;" horiz-adv-x="600" 
d="M60 117v80l410 160v7l-410 160v81l488 -198v-93z" />
    <glyph glyph-name="question" unicode="?" horiz-adv-x="529" 
d="M234 186v17q0 38 11.5 68t31 55.5t40.5 49.5t40.5 49t31.5 53.5t12 62.5q0 43 -17.5 71.5t-48 42.5t-71.5 14q-70 0 -108.5 -41t-38.5 -105h-79q0 65 28 113t80 75t122 27q53 0 93.5 -13.5t67.5 -38.5t41 -60.5t14 -78.5q0 -41 -12.5 -73.5t-32.5 -60.5t-42.5 -53
t-42.5 -49t-32.5 -50.5t-12.5 -57.5v-17h-75zM269 -7q-21 0 -34.5 12.5t-13.5 33.5q0 20 13.5 32.5t34.5 12.5t34.5 -12.5t13.5 -32.5q0 -21 -13.5 -33.5t-34.5 -12.5z" />
    <glyph glyph-name="at" unicode="@" horiz-adv-x="921" 
d="M473 -101q-94 0 -170 29.5t-130.5 84.5t-83.5 131.5t-29 169.5q0 95 29.5 172.5t85 134t132 87t168.5 30.5q86 0 157 -26.5t123.5 -75.5t81 -117.5t28.5 -151.5q0 -77 -22.5 -136.5t-64 -93t-95.5 -33.5q-32 0 -55.5 12.5t-36.5 36t-16 55.5h-4q-16 -51 -51.5 -76
t-76.5 -25t-74.5 21t-53 62.5t-19.5 104.5q0 50 11.5 90.5t33 69.5t52 44.5t66.5 15.5q41 0 72.5 -23.5t42.5 -66.5h5l9 79h45l-16 -236q-3 -38 4 -62.5t22.5 -36.5t38.5 -12q28 0 50.5 15t39 42.5t25 65t8.5 83.5q0 99 -42 170.5t-116.5 111t-171.5 39.5q-82 0 -147.5 -27
t-111 -76t-69.5 -116.5t-24 -147.5t23.5 -147t68.5 -115.5t110.5 -75t148.5 -26.5q69 0 125.5 18t95.5 48l22 -46q-28 -24 -68.5 -40.5t-86 -25t-89.5 -8.5zM452 159q35 0 60 20.5t39.5 57t16.5 83.5q-1 48 -14 80t-35 48t-52 16q-37 0 -61.5 -21t-37.5 -58.5t-13 -86.5
q0 -46 12 -77t34 -46.5t51 -15.5z" />
    <glyph glyph-name="A" unicode="A" horiz-adv-x="703" 
d="M25 0l267 729h120l266 -729h-89l-202 570l-32 92h-6l-31 -92l-203 -570h-90zM169 179l13 70h339l13 -70h-365z" />
    <glyph glyph-name="B" unicode="B" horiz-adv-x="695" 
d="M84 0v729h326q105 0 161.5 -51.5t56.5 -135.5q0 -40 -14 -73.5t-42 -56.5t-71 -33v-4q50 -9 82 -33.5t48 -60t16 -78.5q0 -64 -29.5 -109.5t-84 -69.5t-131.5 -24h-318zM167 69h228q83 0 124 39t41 100q0 63 -40 97.5t-111 34.5h-253v67h249q46 0 76 15.5t45.5 43.5
t15.5 65q0 62 -40.5 95.5t-108.5 33.5h-226v-591z" />
    <glyph glyph-name="C" unicode="C" horiz-adv-x="771" 
d="M404 -9q-81 0 -146.5 26t-113 75t-72.5 118t-25 154q0 86 25.5 155t72.5 117.5t112.5 74.5t146.5 26q88 0 157.5 -30.5t113.5 -86.5t56 -132h-87q-10 51 -42.5 90t-82.5 61.5t-115 22.5q-83 0 -143 -36t-92.5 -102.5t-32.5 -159.5q0 -69 19 -124.5t53.5 -94t84 -59
t111.5 -20.5q65 0 115.5 22t83 62t41.5 94h87q-10 -77 -54 -134t-114 -88t-159 -31z" />
    <glyph glyph-name="D" unicode="D" horiz-adv-x="745" 
d="M84 0v729h286q104 0 177 -45.5t111.5 -127.5t38.5 -192q0 -82 -22 -149t-64 -115t-102.5 -74t-138.5 -26h-286zM169 75h191q57 0 103 18.5t79 55.5t50.5 91.5t17.5 125.5q0 96 -31.5 160t-87.5 96t-131 32h-191v-579z" />
    <glyph glyph-name="E" unicode="E" horiz-adv-x="622" 
d="M84 0v729h501v-75h-436l20 20v-618l-20 20h437v-76h-502zM149 338v70h387v-70h-387z" />
    <glyph glyph-name="F" unicode="F" horiz-adv-x="612" 
d="M84 0v729h499v-75h-431l17 17v-671h-85zM141 324v71h402v-71h-402z" />
    <glyph glyph-name="G" unicode="G" horiz-adv-x="810" 
d="M394 -9q-78 0 -142 26t-110 75t-70.5 117t-24.5 152q0 86 25.5 155.5t73 118.5t114 75.5t147.5 26.5q89 0 158.5 -27.5t114.5 -79.5t58 -126h-88q-12 49 -45 84t-83 54.5t-115 19.5q-86 0 -146.5 -37.5t-92.5 -105t-32 -157.5q0 -68 18.5 -123t53.5 -94t85 -59.5
t112 -20.5q73 0 130 28t89 79t32 121v48l24 -23h-300v67h366v-385h-69l-5 151h-7q-16 -48 -56 -84t-95.5 -56t-119.5 -20z" />
    <glyph glyph-name="H" unicode="H" horiz-adv-x="779" 
d="M84 0v729h85v-729h-85zM610 0v729h85v-729h-85zM144 339v75h491v-75h-491z" />
    <glyph glyph-name="I" unicode="I" horiz-adv-x="253" 
d="M84 0v729h85v-729h-85z" />
    <glyph glyph-name="J" unicode="J" horiz-adv-x="395" 
d="M26 0v70h94q63 0 87 30t24 92v537h85v-544q0 -61 -19 -102.5t-58.5 -62t-100.5 -20.5h-112z" />
    <glyph glyph-name="K" unicode="K" horiz-adv-x="677" 
d="M551 0l-249 364l-142 -149v103l381 411h105l-285 -303l292 -426h-102zM84 0v729h85v-729h-85z" />
    <glyph glyph-name="L" unicode="L" horiz-adv-x="555" 
d="M84 0v729h85v-675l-20 24h379v-78h-444z" />
    <glyph glyph-name="M" unicode="M" horiz-adv-x="894" 
d="M84 0v729h138l161 -431l61 -189h6l61 189l161 431h138v-729h-83v380l3 271h-7l-88 -250l-149 -401h-78l-147 397l-89 254h-8l4 -271v-380h-84z" />
    <glyph glyph-name="N" unicode="N" horiz-adv-x="771" 
d="M84 0v729h109l411 -616h5l-4 247v369h82v-729h-105l-411 613h-5l4 -234v-379h-86z" />
    <glyph glyph-name="O" unicode="O" horiz-adv-x="807" 
d="M404 -9q-81 0 -146.5 26t-113 75t-72.5 118t-25 154q0 86 25.5 155t72.5 117.5t112.5 74.5t146.5 26t146 -26t112.5 -75t72.5 -117.5t25 -154.5t-25.5 -155t-72.5 -117.5t-112.5 -74.5t-145.5 -26zM404 66q82 0 142.5 36.5t93 103t32.5 158.5q0 70 -18.5 125t-54 93.5
t-84.5 59t-111 20.5q-83 0 -143 -36t-92.5 -102.5t-32.5 -159.5q0 -69 19 -124.5t53.5 -94t84 -59t111.5 -20.5z" />
    <glyph glyph-name="P" unicode="P" horiz-adv-x="659" 
d="M84 0v729h280q81 0 138.5 -27.5t88 -78.5t30.5 -122q0 -70 -32.5 -121.5t-90 -79t-135.5 -27.5h-205v70h199q87 0 131.5 43t44.5 113q0 75 -46.5 115t-129.5 40h-204l16 15v-669h-85z" />
    <glyph glyph-name="Q" unicode="Q" horiz-adv-x="830" 
d="M403 39l284 30h104v-69h-387zM404 -9q-81 0 -146.5 26t-113 75t-72.5 118t-25 154q0 86 25.5 155t72.5 117.5t112.5 74.5t146.5 26t146 -26t112.5 -75t72.5 -117.5t25 -154.5t-25.5 -155t-72.5 -117.5t-112.5 -74.5t-145.5 -26zM404 66q82 0 142.5 36.5t93 103
t32.5 158.5q0 70 -18.5 125t-54 93.5t-84.5 59t-111 20.5q-83 0 -143 -36t-92.5 -102.5t-32.5 -159.5q0 -69 19 -124.5t53.5 -94t84 -59t111.5 -20.5z" />
    <glyph glyph-name="R" unicode="R" horiz-adv-x="706" 
d="M84 0v729h335q43 0 78.5 -8t63.5 -24t47 -39.5t29 -54t10 -68.5q0 -67 -33.5 -113.5t-98.5 -64.5v-6q43 -7 68.5 -25.5t37 -48.5t11.5 -72v-128q0 -18 1.5 -37t10.5 -40h-86q-7 16 -9.5 35t-2.5 45v110q0 40 -11.5 66.5t-41.5 40t-85 13.5h-250v71h243q86 0 122.5 39.5
t36.5 101.5q0 35 -11 60.5t-32.5 42t-50.5 24t-65 7.5h-232v-656h-85z" />
    <glyph glyph-name="S" unicode="S" horiz-adv-x="647" 
d="M326 -9q-95 0 -157.5 30t-93.5 83.5t-32 122.5h88q1 -51 22.5 -89t64 -58t109.5 -20q57 0 99 14t65.5 43t23.5 74q0 35 -11 58.5t-35 39.5t-62.5 27.5t-94.5 20.5q-62 12 -109.5 27t-79 37.5t-47.5 55.5t-16 79q0 61 31 106.5t89 70t140 24.5q83 0 140.5 -26.5t88 -73.5
t31.5 -111h-87q-2 48 -24 80t-61 48t-92 16t-90.5 -15t-57.5 -42t-20 -66q0 -42 19.5 -66t64.5 -39t122 -28q49 -8 94 -21t80 -36t55.5 -61.5t20.5 -99.5t-32 -107t-94 -72t-152 -26z" />
    <glyph glyph-name="T" unicode="T" horiz-adv-x="610" 
d="M262 0v665h85v-665h-85zM26 654v75h559v-75h-559z" />
    <glyph glyph-name="U" unicode="U" horiz-adv-x="728" 
d="M364 -9q-91 0 -156.5 33.5t-100.5 95t-35 147.5v462h85v-460q0 -67 25 -111.5t72 -66.5t111 -22q70 0 116 24.5t68.5 69.5t22.5 106v460h84v-462q0 -84 -34.5 -146t-99.5 -96t-158 -34z" />
    <glyph glyph-name="V" unicode="V" horiz-adv-x="710" 
d="M298 0l-273 729h95l145 -415l87 -243h6l88 243l145 415h94l-273 -729h-114z" />
    <glyph glyph-name="W" unicode="W" horiz-adv-x="979" 
d="M212 0l-183 729h93l106 -442l43 -209h7l46 209l111 442h110l110 -436l48 -215h7l43 215l104 436h93l-183 -729h-120l-103 409l-51 228h-6l-52 -228l-103 -409h-120z" />
    <glyph glyph-name="X" unicode="X" horiz-adv-x="705" 
d="M22 0l273 394l-235 335h99l126 -187l63 -97h6l63 97l126 187h99l-233 -334l273 -395h-101l-154 225l-73 112h-6l-74 -112l-153 -225h-99z" />
    <glyph glyph-name="Y" unicode="Y" horiz-adv-x="670" 
d="M292 0v291l-270 438h98l122 -205l89 -156h6l91 156l123 205h97l-271 -438v-291h-85z" />
    <glyph glyph-name="Z" unicode="Z" horiz-adv-x="625" 
d="M33 0v70l439 584h-423v75h531v-70l-440 -583h451v-76h-558z" />
    <glyph glyph-name="bracketleft" unicode="[" horiz-adv-x="358" 
d="M91 -167v960h230v-64h-153v-832h153v-64h-230z" />
    <glyph glyph-name="backslash" unicode="\" horiz-adv-x="382" 
d="M308 -81l-314 810h78l316 -810h-80z" />
    <glyph glyph-name="bracketright" unicode="]" horiz-adv-x="358" 
d="M267 793v-960h-230v64h153v832h-153v64h230z" />
    <glyph glyph-name="asciicircum" unicode="^" horiz-adv-x="600" 
d="M123 473l135 256h84l136 -256h-79l-98 188l-101 -188h-77z" />
    <glyph glyph-name="underscore" unicode="_" horiz-adv-x="459" 
d="M54 -69v69h351v-69h-351z" />
    <glyph glyph-name="grave" unicode="`" horiz-adv-x="227" 
d="M123 743l-83 140h83l64 -140h-64z" />
    <glyph glyph-name="a" unicode="a" horiz-adv-x="610" 
d="M265 -9q-48 0 -88.5 19t-69.5 54t-44.5 85t-15.5 114q0 85 27.5 145.5t76.5 93t114 32.5q45 0 82.5 -14.5t63.5 -40.5t38 -62h5l3 108h77v-525h-77l-3 109h-5q-19 -53 -67.5 -85.5t-116.5 -32.5zM291 59q52 0 88 24.5t55 63.5t19 84v64q0 46 -19.5 85.5t-55 63
t-86.5 23.5q-50 0 -86.5 -24.5t-56 -70t-19.5 -109.5q0 -63 19.5 -109t55.5 -70.5t86 -24.5z" />
    <glyph glyph-name="b" unicode="b" horiz-adv-x="610" 
d="M345 -9q-45 0 -82.5 14.5t-63 41t-38.5 61.5h-5l-4 -108h-76v729h81v-313h4q18 53 67 85t117 32q48 0 88 -18.5t69 -53.5t44.5 -85.5t15.5 -113.5q0 -85 -27 -146t-76 -93t-114 -32zM317 58q51 0 87 24t56 70t20 110q0 48 -11.5 85.5t-32 64t-50.5 40t-67 13.5
q-52 0 -88 -23.5t-55 -63t-19 -84.5v-64q0 -46 19 -85t55 -63t86 -24z" />
    <glyph glyph-name="c" unicode="c" horiz-adv-x="562" 
d="M296 -9q-57 0 -103.5 19.5t-79.5 55t-51 85t-18 111.5q0 61 18 110.5t52 85.5t81 55.5t104 19.5q61 0 109 -22t78 -62t36 -93h-79q-8 36 -29 60t-51 36t-66 12q-41 0 -72.5 -14.5t-53.5 -41.5t-33.5 -64t-11.5 -83q0 -63 21.5 -108t59.5 -69t89 -24q41 0 72 15t51.5 40.5
t26.5 61.5h79q-6 -56 -37 -98t-80.5 -65t-111.5 -23z" />
    <glyph glyph-name="d" unicode="d" horiz-adv-x="610" 
d="M265 -9q-48 0 -88.5 19t-69.5 54t-44.5 85t-15.5 114q0 85 27.5 145.5t76.5 93t114 32.5q45 0 82.5 -14.5t63.5 -40.5t38 -62h4v312h81v-729h-77l-3 109h-5q-19 -53 -67.5 -85.5t-116.5 -32.5zM291 59q52 0 88 24.5t55 63.5t19 84v64q0 46 -19.5 85.5t-55 63t-86.5 23.5
q-50 0 -86.5 -24.5t-56 -70t-19.5 -109.5q0 -63 19.5 -109t55.5 -70.5t86 -24.5z" />
    <glyph glyph-name="e" unicode="e" horiz-adv-x="538" 
d="M277 -9q-75 0 -128.5 33t-81.5 94t-28 142q0 83 28 144.5t80 95t127 33.5q80 0 132 -36t75.5 -100t17.5 -148h-381q1 -65 20.5 -108.5t55 -65t83.5 -21.5q56 0 92 26t48 69h78q-9 -50 -39.5 -85.5t-76.5 -54t-102 -18.5zM119 295l-9 12h319l-9 -14q1 63 -17 101.5
t-51.5 57t-77.5 18.5q-46 0 -80 -20t-53.5 -58.5t-21.5 -96.5z" />
    <glyph glyph-name="f" unicode="f" horiz-adv-x="303" 
d="M101 0v460h-88v65h88v87q0 59 33 88t92 29h72v-65h-55q-36 0 -49 -16.5t-13 -45.5v-77h108v-65h-108v-460h-80z" />
    <glyph glyph-name="g" unicode="g" horiz-adv-x="592" 
d="M276 -177q-59 0 -104 17.5t-72.5 50.5t-33.5 78h79q4 -26 22 -45t46 -29t65 -10q53 0 88.5 15.5t52 47t16.5 81.5v100h-4q-17 -50 -63.5 -80.5t-112.5 -30.5q-46 0 -84.5 17.5t-66.5 51t-43 81.5t-15 108q0 81 26.5 139t73.5 89t109 31q64 0 111 -30t65 -81h5l3 101h77
v-484q0 -76 -29 -124.5t-82.5 -71t-128.5 -22.5zM282 86q49 0 83.5 22t52 59t17.5 80v60q0 43 -18 79.5t-52 58.5t-81 22q-48 0 -83 -22.5t-53.5 -65.5t-18.5 -103q0 -59 18.5 -102t53 -65.5t81.5 -22.5z" />
    <glyph glyph-name="h" unicode="h" horiz-adv-x="600" 
d="M76 0v729h80v-313h6q24 58 74 87.5t109 29.5q41 0 75.5 -12t60 -39t39.5 -69.5t14 -103.5v-309h-81v293q0 59 -14.5 97t-44 56.5t-75.5 18.5q-49 0 -86 -24t-57 -64.5t-20 -92.5v-284h-80z" />
    <glyph glyph-name="i" unicode="i" horiz-adv-x="233" 
d="M76 0v525h81v-525h-81zM118 615q-23 0 -37 12.5t-14 33.5t14 33t37 12q22 0 36 -12t14 -33t-14 -33.5t-36 -12.5z" />
    <glyph glyph-name="j" unicode="j" horiz-adv-x="233" 
d="M-28 -167v62h44q33 0 46.5 15.5t13.5 52.5v562h81v-568q0 -38 -12 -66t-37.5 -43t-67.5 -15h-68zM117 615q-23 0 -37 12.5t-14 33.5t14 33t37 12q22 0 36 -12t14 -33t-14 -33.5t-36 -12.5z" />
    <glyph glyph-name="k" unicode="k" horiz-adv-x="552" 
d="M76 0v729h82v-472l47 50l216 218h102l-205 -203l214 -322h-95l-143 215l-32 52l-104 -101v-166h-82z" />
    <glyph glyph-name="l" unicode="l" horiz-adv-x="233" 
d="M76 0v729h81v-729h-81z" />
    <glyph glyph-name="m" unicode="m" horiz-adv-x="962" 
d="M76 0v525h77l3 -109h6q23 58 72 87.5t108 29.5q60 0 106 -29t66 -97h8q23 63 74.5 94.5t115.5 31.5q53 0 94.5 -22t65.5 -71.5t24 -130.5v-309h-80v293q0 59 -14.5 97t-43 56.5t-74.5 18.5q-47 0 -82.5 -24t-55 -64.5t-19.5 -92.5v-284h-82v293q0 59 -14 97t-42.5 56.5
t-73.5 18.5q-48 0 -83.5 -24t-55.5 -64.5t-20 -92.5v-284h-80z" />
    <glyph glyph-name="n" unicode="n" horiz-adv-x="600" 
d="M76 0v525h77l3 -109h6q24 58 74 87.5t109 29.5q41 0 75.5 -12t60 -39t39.5 -69.5t14 -103.5v-309h-81v293q0 59 -14.5 97t-44 56.5t-75.5 18.5q-49 0 -86 -24t-57 -64.5t-20 -92.5v-284h-80z" />
    <glyph glyph-name="o" unicode="o" horiz-adv-x="594" 
d="M298 -9q-57 0 -103.5 19t-80 55t-52 85.5t-18.5 110.5q0 81 31 142t88.5 95.5t134.5 34.5q57 0 103.5 -18.5t79.5 -54.5t51 -86t18 -112q0 -80 -30.5 -141t-87.5 -95.5t-134 -34.5zM298 61q51 0 89 23.5t59.5 69t21.5 108.5q0 47 -12 84.5t-34 64t-53 40.5t-71 14
q-51 0 -89.5 -24.5t-60 -69.5t-21.5 -110q0 -46 11.5 -83.5t34 -63.5t54.5 -39.5t71 -13.5z" />
    <glyph glyph-name="p" unicode="p" horiz-adv-x="610" 
d="M76 -167v692h76l4 -109h5q18 53 67 85t117 32q48 0 88 -18.5t69 -53.5t44.5 -85.5t15.5 -113.5q0 -85 -27 -146t-76 -93t-114 -32q-45 0 -82.5 14.5t-63 41t-38.5 61.5h-4v-275h-81zM317 58q51 0 87 24t56 70t20 110t-19.5 109.5t-55.5 69.5t-86 24q-52 0 -88 -23.5
t-55 -63t-19 -84.5v-64q0 -46 19 -85t55 -63t86 -24z" />
    <glyph glyph-name="q" unicode="q" horiz-adv-x="610" 
d="M453 -167v276h-4q-19 -53 -67.5 -85.5t-116.5 -32.5q-48 0 -88.5 19t-69.5 54t-44.5 85t-15.5 114q0 85 27.5 145.5t76.5 93t114 32.5q45 0 82.5 -14.5t63.5 -40.5t38 -62h5l3 108h77v-692h-81zM291 59q52 0 88 24.5t55 63.5t19 84v64q0 46 -19.5 85.5t-55 63t-86.5 23.5
q-50 0 -86.5 -24.5t-56 -70t-19.5 -109.5q0 -63 19.5 -109t55.5 -70.5t86 -24.5z" />
    <glyph glyph-name="r" unicode="r" horiz-adv-x="366" 
d="M76 0v525h72l5 -97h4q17 50 60 77t96 27q9 0 17 -0.5t15 -1.5v-77q-7 1 -15 1.5t-17 0.5q-46 0 -80 -17t-53.5 -48.5t-23.5 -76.5v-313h-80z" />
    <glyph glyph-name="s" unicode="s" horiz-adv-x="509" 
d="M255 -10q-49 0 -88 12t-67 33.5t-43 52t-16 67.5h80q2 -35 19.5 -58.5t48 -34.5t68.5 -11q61 0 93.5 23t32.5 65q0 32 -14 49.5t-43 27.5t-76 17q-65 9 -108 25t-65 45.5t-22 77.5q0 46 25 80.5t70 54t105 19.5q61 0 105 -19.5t69 -55t26 -84.5h-79q-2 35 -17.5 56.5
t-42 31t-62.5 9.5q-56 0 -87 -23t-31 -61q0 -29 15 -46.5t46.5 -27t79.5 -16.5q59 -8 101.5 -24t64.5 -46.5t22 -82.5q0 -50 -26 -84.5t-73.5 -53t-110.5 -18.5z" />
    <glyph glyph-name="t" unicode="t" horiz-adv-x="359" 
d="M235 0q-55 0 -83.5 26.5t-28.5 86.5v345h-102v67h102v157l80 11v-168h122v-67h-121v-332q0 -30 14 -43.5t41 -13.5h68v-69h-92z" />
    <glyph glyph-name="u" unicode="u" horiz-adv-x="601" 
d="M257 -9q-59 0 -102 23.5t-65.5 71t-22.5 117.5v322h81v-302q0 -52 14 -88.5t44.5 -55.5t78.5 -19q47 0 83 23t56 65t20 97v280h81v-525h-77l-4 112h-6q-20 -56 -69 -88.5t-112 -32.5z" />
    <glyph glyph-name="v" unicode="v" horiz-adv-x="524" 
d="M211 0l-190 525h87l102 -308l50 -153h4l50 153l102 308h87l-190 -525h-102z" />
    <glyph glyph-name="w" unicode="w" horiz-adv-x="711" 
d="M145 0l-136 525h81l78 -311l32 -142h6l29 142l71 311h98l75 -311l31 -143h5l31 143l77 311h78l-135 -525h-107l-73 295l-30 139h-5l-28 -139l-68 -295h-110z" />
    <glyph glyph-name="x" unicode="x" horiz-adv-x="554" 
d="M17 0l207 273l-186 252h95l132 -184l12 -18h5l11 18l130 184h92l-183 -251l203 -274h-95l-147 205l-14 20h-5l-14 -20l-152 -205h-91z" />
    <glyph glyph-name="y" unicode="y" horiz-adv-x="523" 
d="M56 -167v67h53q24 0 41 7t29.5 21t20.5 36l35 89v-34l-215 506h89l109 -286l47 -125h5l43 125l103 286h87l-227 -581q-15 -40 -36 -64.5t-50 -35.5t-69 -11h-65z" />
    <glyph glyph-name="z" unicode="z" horiz-adv-x="501" 
d="M29 0v60l330 398h-317v67h418v-60l-329 -398h340v-67h-442z" />
    <glyph glyph-name="braceleft" unicode="{" horiz-adv-x="392" 
d="M191 -167q-34 0 -50 19t-16 48v295q0 39 -19 60.5t-44 21.5h-29v66h29q25 0 44 22t19 62v299q0 29 16 48t50 19h164v-64h-154v-304q0 -51 -22.5 -79.5t-52.5 -31.5v-4q35 -6 55 -37t20 -76v-300h154v-64h-164z" />
    <glyph glyph-name="bar" unicode="|" horiz-adv-x="273" 
d="M99 -67v796h75v-796h-75z" />
    <glyph glyph-name="braceright" unicode="}" horiz-adv-x="392" 
d="M201 793q34 0 50 -19t16 -48v-295q0 -39 19.5 -60.5t43.5 -21.5h29v-66h-29q-25 0 -44 -22t-19 -62v-299q0 -29 -16 -48t-50 -19h-164v64h153v304q0 51 23 79.5t53 31.5v4q-35 6 -55.5 37t-20.5 76v300h-153v64h164z" />
    <glyph glyph-name="asciitilde" unicode="~" horiz-adv-x="600" 
d="M96 292q-3 51 10.5 79.5t36 40t45.5 11.5t44.5 -7.5t42.5 -18t41.5 -18.5t41.5 -8q27 0 41 16.5t14 46.5h47q3 -38 -4.5 -64t-22.5 -41.5t-33.5 -22t-38.5 -6.5q-26 0 -50 8t-45.5 18.5t-40.5 18.5t-36 8q-23 0 -35.5 -18t-9.5 -43h-48z" />
    <glyph glyph-name="uni00A0" unicode="&#xa0;" horiz-adv-x="229" 
 />
    <glyph glyph-name="exclamdown" unicode="&#xa1;" horiz-adv-x="244" 
d="M143 326l20 -293v-237h-83v237l20 293h43zM122 532q21 0 34.5 -12.5t13.5 -33.5t-13.5 -33.5t-34.5 -12.5t-34.5 12.5t-13.5 33.5t13.5 33.5t34.5 12.5z" />
    <glyph glyph-name="cent" unicode="&#xa2;" horiz-adv-x="592" 
d="M308 94q-56 0 -102.5 19t-80 55t-51 85.5t-17.5 110.5q0 82 31 142.5t88.5 95t135.5 34.5q62 0 110.5 -23.5t78.5 -65t35 -96.5h-79q-6 38 -27 63.5t-52 39t-69 13.5q-40 0 -71.5 -15t-53.5 -42t-33.5 -64t-11.5 -82q0 -64 21 -109t59 -68.5t89 -23.5q43 0 75.5 15t52 43
t23.5 65h79q-4 -58 -34.5 -101.5t-81 -67t-114.5 -23.5zM270 0v128h59v-128h-59zM270 599v130h59v-130h-59z" />
    <glyph glyph-name="sterling" unicode="&#xa3;" horiz-adv-x="634" 
d="M105 64q24 33 38 62.5t20.5 61t6.5 69.5q0 40 -8.5 73.5t-19 64t-19 62.5t-8.5 70q0 65 28.5 112t79.5 73t121 26q71 0 121.5 -26.5t77.5 -75.5t26 -117h-80q0 70 -38 107.5t-105 37.5q-46 0 -79.5 -17t-51 -48t-17.5 -75q0 -33 8.5 -63.5t19.5 -61t20 -64.5t9 -75
q0 -39 -7.5 -74.5t-26 -68.5t-51.5 -66zM49 0v68h443v124h71v-192h-514zM66 329v64h377v-64h-377z" />
    <glyph glyph-name="currency" unicode="&#xa4;" horiz-adv-x="616" 
d="M93 86l-48 47l103 105q-17 23 -26 51.5t-9 58.5q0 33 10 62t26 51l-103 103l48 49l106 -109q21 15 49 23.5t59 8.5q29 0 57.5 -8t50.5 -24l107 109l48 -49l-105 -103q18 -23 27 -52t9 -61q0 -29 -9 -58t-27 -52l105 -105l-48 -47l-106 108q-22 -16 -50.5 -24.5
t-58.5 -8.5q-31 0 -58.5 8.5t-50.5 23.5zM308 228q36 0 64 15.5t44 43t16 62.5q0 36 -16.5 63t-44 43t-63.5 16q-35 0 -63 -16t-44.5 -43t-16.5 -63q0 -35 16 -62.5t44.5 -43t63.5 -15.5z" />
    <glyph glyph-name="yen" unicode="&#xa5;" horiz-adv-x="658" 
d="M289 0v137h-186v61h186v103h-186v61h149l-214 367h89l200 -358h4l200 358h89l-212 -367h146v-61h-183v-103h183v-61h-183v-137h-82z" />
    <glyph glyph-name="brokenbar" unicode="&#xa6;" horiz-adv-x="273" 
d="M99 406v323h75v-323h-75zM99 -67v323h75v-323h-75z" />
    <glyph glyph-name="section" unicode="&#xa7;" horiz-adv-x="560" 
d="M271 -10q-49 0 -88.5 12t-67 33.5t-42.5 52t-17 67.5h80q3 -35 20.5 -58.5t47.5 -34.5t69 -11q61 0 93 22.5t32 64.5q0 31 -13.5 48.5t-44 28t-81.5 18.5q-56 10 -96.5 25t-61.5 42.5t-21 73.5q0 33 17 62t46 49q-27 18 -40 43t-13 60q0 46 25 79.5t70 52.5t106 19
q46 0 82 -11t61.5 -32t39.5 -50t16 -66h-79q-2 35 -17.5 56.5t-42 31.5t-61.5 10q-56 0 -87.5 -23t-31.5 -61q0 -43 35 -61.5t106 -29.5q55 -8 95 -24t62 -45t22 -80q0 -34 -15.5 -61t-41.5 -45q23 -18 35 -43.5t12 -60.5q0 -49 -26 -83.5t-73.5 -52.5t-110.5 -18zM374 275
q18 15 26.5 32t8.5 39q0 45 -28 64t-91 29q-26 5 -48.5 10t-40.5 12q-20 -15 -31.5 -33.5t-11.5 -39.5q0 -41 28.5 -59.5t89.5 -28.5q28 -4 53 -10t45 -15z" />
    <glyph glyph-name="dieresis" unicode="&#xa8;" horiz-adv-x="370" 
d="M282 766q-21 0 -34.5 12t-13.5 32t13.5 31.5t34.5 11.5t34.5 -11.5t13.5 -31.5t-13.5 -32t-34.5 -12zM88 766q-21 0 -34.5 12t-13.5 32t13.5 31.5t34.5 11.5t34.5 -11.5t13.5 -31.5t-13.5 -32t-34.5 -12z" />
    <glyph glyph-name="copyright" unicode="&#xa9;" horiz-adv-x="866" 
d="M441 161q-58 0 -101 25.5t-67.5 71t-24.5 105.5q0 61 24.5 107t68.5 71.5t103 25.5q49 0 86.5 -17.5t60.5 -49t26 -72.5h-63q-8 43 -40 63.5t-72 20.5t-69 -19t-44.5 -52.5t-15.5 -77.5q0 -46 16 -79.5t45 -51t67 -17.5q46 0 77.5 24t36.5 66h63q-3 -42 -26 -75t-62 -51
t-89 -18zM433 -10q-84 0 -153.5 26.5t-120 76.5t-78 118.5t-27.5 152.5t27.5 152.5t78 118t120 76t153.5 26.5t154 -26.5t120 -76t77.5 -118t27.5 -152.5t-27.5 -152.5t-77.5 -118.5t-120 -76.5t-154 -26.5zM433 34q99 0 173.5 41.5t116 115.5t41.5 173q0 98 -41.5 172.5
t-116 116t-173.5 41.5q-98 0 -172.5 -41.5t-116 -116t-41.5 -172.5q0 -99 41.5 -173t116 -115.5t172.5 -41.5z" />
    <glyph glyph-name="ordfeminine" unicode="&#xaa;" horiz-adv-x="453" 
d="M193 381q-42 0 -73.5 21t-49 60t-17.5 96q0 58 17.5 97t49 60t73.5 21q45 0 75.5 -20.5t43.5 -54.5h3l3 69h59v-343h-62v69h-3q-13 -35 -44.5 -55t-74.5 -20zM215 432q32 0 54.5 15.5t33.5 40t11 51.5v40q0 27 -11 51.5t-33.5 39.5t-54.5 15q-30 0 -52 -14.5t-34.5 -42.5
t-12.5 -70q0 -61 27 -93.5t72 -32.5z" />
    <glyph glyph-name="guillemotleft" unicode="&#xab;" horiz-adv-x="458" 
d="M166 75l-123 226l123 224h70l-111 -224l111 -226h-70zM344 75l-123 226l123 224h70l-111 -224l111 -226h-70z" />
    <glyph glyph-name="logicalnot" unicode="&#xac;" horiz-adv-x="600" 
d="M452 149v192h-411v65h475v-257h-64z" />
    <glyph glyph-name="registered" unicode="&#xae;" horiz-adv-x="646" 
d="M322 224q-73 0 -131 33t-92 91t-34 134q0 57 19.5 103.5t54.5 81t81.5 53t101.5 18.5q74 0 132.5 -32.5t93 -90.5t34.5 -133q0 -57 -19.5 -104t-55 -82t-83 -53.5t-102.5 -18.5zM323 259q63 0 113 28.5t80 78.5t30 115t-30 115.5t-80 79t-112 28.5t-112.5 -28.5t-80 -79
t-29.5 -116.5q0 -64 30 -114.5t80 -78.5t111 -28zM223 347v270h125q46 0 69.5 -20t23.5 -53q0 -25 -13.5 -42t-33.5 -23v-1q22 -5 31.5 -18.5t9.5 -36.5v-48q0 -5 0.5 -13t2.5 -15h-43q-4 5 -4.5 10.5t-0.5 19.5v46q0 16 -7.5 25.5t-30.5 9.5h-94v35h83q26 0 39.5 12
t13.5 32q0 22 -14.5 32t-38.5 10h-74v-232h-44z" />
    <glyph glyph-name="macron" unicode="&#xaf;" horiz-adv-x="423" 
d="M40 767v63h343v-63h-343z" />
    <glyph glyph-name="degree" unicode="&#xb0;" horiz-adv-x="472" 
d="M236 427q-46 0 -83 19.5t-59 54.5t-22 81q0 47 22 82t59 54.5t83 19.5t83 -19.5t59 -54.5t22 -82q0 -46 -22 -81t-59 -54.5t-83 -19.5zM236 486q42 0 70.5 27t28.5 69q0 44 -28.5 70t-70.5 26t-70.5 -26t-28.5 -70q0 -42 28.5 -69t70.5 -27z" />
    <glyph glyph-name="plusminus" unicode="&#xb1;" horiz-adv-x="600" 
d="M266 171v183h-210v65h210v183h68v-183h210v-65h-210v-183h-68zM56 0v61h488v-61h-488z" />
    <glyph glyph-name="uni00B2" unicode="&#xb2;" horiz-adv-x="375" 
d="M46 336v16q0 39 15.5 69t40.5 53.5t53.5 43.5t53.5 39.5t41 41.5t16 49q0 34 -21.5 53.5t-56.5 19.5q-37 0 -60.5 -23t-23.5 -61h-61q1 62 41 99t107 37q63 0 100 -34t37 -89q0 -32 -14 -58t-37.5 -47t-49.5 -39.5t-50.5 -36t-42 -37t-22.5 -42.5h217v-54h-283z" />
    <glyph glyph-name="uni00B3" unicode="&#xb3;" horiz-adv-x="393" 
d="M187 331q-44 0 -76.5 15.5t-50.5 44.5t-20 67h60q2 -37 26.5 -56.5t60.5 -19.5q41 0 65.5 22t24.5 57q0 38 -22 56t-60 18h-44v47h37q41 0 63 20t22 51q0 34 -22 51.5t-58 17.5q-37 0 -60 -20t-25 -54h-60q2 39 21 67t51.5 43.5t73.5 15.5q33 0 58.5 -8t44 -23t28 -36
t9.5 -47q0 -36 -20.5 -61.5t-51.5 -35.5v-4q37 -8 57 -36t20 -66q0 -39 -19 -67t-53.5 -43.5t-79.5 -15.5z" />
    <glyph glyph-name="acute" unicode="&#xb4;" horiz-adv-x="227" 
d="M40 743l64 140h83l-84 -140h-63z" />
    <glyph glyph-name="paragraph" unicode="&#xb6;" horiz-adv-x="638" 
d="M243 0v386q-92 -2 -142.5 46t-50.5 127q0 55 23.5 92.5t67 57.5t102.5 20h355v-71h-100v-658h-78v658h-113v-658h-64z" />
    <glyph glyph-name="periodcentered" unicode="&#xb7;" horiz-adv-x="206" 
d="M103 217q-26 0 -43 17.5t-17 42.5q0 17 8 30.5t21.5 21.5t30.5 8q28 0 44 -17t16 -43q0 -17 -7 -30.5t-20.5 -21.5t-32.5 -8z" />
    <glyph glyph-name="cedilla" unicode="&#xb8;" horiz-adv-x="311" 
d="M157 -241q-43 0 -75 19.5t-42 57.5l56 15q6 -19 20.5 -30t37.5 -12q27 0 41.5 14t14.5 36q0 25 -21 39t-68 23l-11 22l39 71h45l-25 -61q48 -12 75 -37.5t27 -64.5q0 -42 -31.5 -67.5t-82.5 -24.5z" />
    <glyph glyph-name="uni00B9" unicode="&#xb9;" horiz-adv-x="266" 
d="M130 336v314h-105v46h17q43 0 65 20.5t25 52.5h58v-433h-60z" />
    <glyph glyph-name="ordmasculine" unicode="&#xba;" horiz-adv-x="432" 
d="M217 381q-50 0 -87.5 21.5t-58.5 61.5t-21 94q0 52 20 92t58 62.5t89 22.5q74 0 119.5 -47.5t45.5 -129.5q0 -53 -20 -92.5t-57 -62t-88 -22.5zM217 433q31 0 54.5 14.5t36 42.5t12.5 68t-12.5 68t-36 43t-54.5 15t-55 -15t-37 -43t-13 -68q0 -39 12.5 -67.5t36.5 -43
t56 -14.5z" />
    <glyph glyph-name="guillemotright" unicode="&#xbb;" horiz-adv-x="458" 
d="M292 525l122 -226l-122 -224h-71l112 224l-112 226h71zM114 525l123 -226l-123 -224h-70l111 224l-111 226h70z" />
    <glyph glyph-name="onequarter" unicode="&#xbc;" horiz-adv-x="706" 
d="M123 338v284h-96v41h15q40 0 59.5 18t22.5 48h53v-391h-54zM35 0l496 721h67l-497 -721h-66zM553 0v364l21 -7l-154 -215h258v-46h-313v43l178 252h65v-391h-55z" />
    <glyph glyph-name="onehalf" unicode="&#xbd;" horiz-adv-x="732" 
d="M123 338v284h-96v41h15q40 0 59.5 18t22.5 48h53v-391h-54zM35 0l496 721h67l-497 -721h-66zM425 0v14q0 35 14.5 62.5t37.5 48.5t49 39.5t49 36t37.5 37t14.5 44.5q0 30 -19.5 48t-51.5 18q-37 0 -57.5 -21.5t-20.5 -54.5h-55q1 53 37 88t97 35q58 0 91.5 -31t33.5 -81
q0 -29 -13 -52.5t-34 -42t-45 -35t-46.5 -32.5t-38 -34t-20.5 -39h198v-48h-258z" />
    <glyph glyph-name="threequarters" unicode="&#xbe;" horiz-adv-x="810" 
d="M176 333q-59 0 -95.5 32t-38.5 83h54q1 -31 23.5 -49.5t56.5 -18.5q37 0 59.5 19t22.5 52t-20 50t-55 17h-40v41h33q38 0 59 18.5t21 46.5q0 31 -20.5 47t-54.5 16q-33 0 -54.5 -18t-23.5 -49h-53q2 53 39 83.5t94 30.5q29 0 52 -7.5t40 -21t26 -32.5t9 -43
q0 -31 -18.5 -54t-47.5 -33v-3q32 -8 51 -32.5t19 -60.5q0 -53 -38.5 -83.5t-99.5 -30.5zM140 0l496 721h67l-497 -721h-66zM658 0v364l21 -7l-154 -215h258v-46h-313v43l178 252h65v-391h-55z" />
    <glyph glyph-name="questiondown" unicode="&#xbf;" horiz-adv-x="529" 
d="M295 339v-18q0 -36 -12 -66.5t-31 -56t-40.5 -49.5t-40.5 -49t-31 -53.5t-12 -63.5q0 -42 17.5 -70.5t48 -42.5t71.5 -14q69 0 108 41.5t38 104.5h80q1 -64 -28 -113t-81 -75.5t-121 -26.5q-53 0 -93.5 13.5t-68 38.5t-41.5 60t-14 78q0 42 13 75t33 60.5t42.5 52t42 49
t32.5 51t13 57.5v17h75zM260 532q21 0 34.5 -12.5t13.5 -33.5t-13.5 -33.5t-34.5 -12.5t-34.5 12.5t-13.5 33.5t13.5 33.5t34.5 12.5z" />
    <glyph glyph-name="Agrave" unicode="&#xc0;" horiz-adv-x="703" 
d="M25 0l267 729h120l266 -729h-89l-202 570l-32 92h-6l-31 -92l-203 -570h-90zM169 179l13 70h339l13 -70h-365zM319 798l-83 140h83l64 -140h-64z" />
    <glyph glyph-name="Aacute" unicode="&#xc1;" horiz-adv-x="703" 
d="M25 0l267 729h120l266 -729h-89l-202 570l-32 92h-6l-31 -92l-203 -570h-90zM169 179l13 70h339l13 -70h-365zM320 798l64 140h83l-84 -140h-63z" />
    <glyph glyph-name="Acircumflex" unicode="&#xc2;" horiz-adv-x="703" 
d="M25 0l267 729h120l266 -729h-89l-202 570l-32 92h-6l-31 -92l-203 -570h-90zM169 179l13 70h339l13 -70h-365zM204 798l106 140h83l107 -140h-73l-75 99l-75 -99h-73z" />
    <glyph glyph-name="Atilde" unicode="&#xc3;" horiz-adv-x="703" 
d="M25 0l267 729h120l266 -729h-89l-202 570l-32 92h-6l-31 -92l-203 -570h-90zM169 179l13 70h339l13 -70h-365zM420 820q-31 0 -54 7.5t-42.5 14.5t-41.5 7q-20 0 -34.5 -7.5t-26.5 -23.5l-38 22q15 25 30 39.5t32.5 21t37.5 6.5q24 0 47 -7.5t46.5 -15t46.5 -7.5
q17 0 33 7.5t28 24.5l39 -23q-13 -24 -29 -39t-34.5 -21t-39.5 -6z" />
    <glyph glyph-name="Adieresis" unicode="&#xc4;" horiz-adv-x="703" 
d="M25 0l267 729h120l266 -729h-89l-202 570l-32 92h-6l-31 -92l-203 -570h-90zM169 179l13 70h339l13 -70h-365zM448 821q-21 0 -34.5 12t-13.5 32t13.5 31.5t34.5 11.5t34.5 -11.5t13.5 -31.5t-13.5 -32t-34.5 -12zM254 821q-21 0 -34.5 12t-13.5 32t13.5 31.5t34.5 11.5
t34.5 -11.5t13.5 -31.5t-13.5 -32t-34.5 -12z" />
    <glyph glyph-name="Aring" unicode="&#xc5;" horiz-adv-x="703" 
d="M25 0l267 729h120l266 -729h-89l-202 570l-32 92h-6l-31 -92l-203 -570h-90zM169 179l13 70h339l13 -70h-365zM351 777q-46 0 -74.5 26.5t-28.5 70.5t28.5 70.5t74.5 26.5t75 -26.5t29 -70.5t-29 -70.5t-75 -26.5zM351 820q25 0 39.5 15t14.5 39t-14.5 38.5t-39.5 14.5
q-24 0 -39 -14.5t-15 -38.5t15 -39t39 -15z" />
    <glyph glyph-name="AE" unicode="&#xc6;" horiz-adv-x="932" 
d="M25 0l267 729h603v-75h-458l93 -246h316v-70h-293l99 -262h244v-76h-307l-65 179h-345l-64 -179h-90zM201 249h302l-116 321l-32 92h-6l-31 -92z" />
    <glyph glyph-name="Ccedilla" unicode="&#xc7;" horiz-adv-x="771" 
d="M404 -9q-81 0 -146.5 26t-113 75t-72.5 118t-25 154q0 86 25.5 155t72.5 117.5t112.5 74.5t146.5 26q88 0 157.5 -30.5t113.5 -86.5t56 -132h-87q-10 51 -42.5 90t-82.5 61.5t-115 22.5q-83 0 -143 -36t-92.5 -102.5t-32.5 -159.5q0 -69 19 -124.5t53.5 -94t84 -59
t111.5 -20.5q65 0 115.5 22t83 62t41.5 94h87q-10 -77 -54 -134t-114 -88t-159 -31zM397 -241q-43 0 -75 19.5t-42 57.5l56 15q6 -19 20.5 -30t37.5 -12q27 0 41.5 14t14.5 36q0 25 -21 39t-68 23l-11 22l39 71h45l-25 -61q48 -12 75 -37.5t27 -64.5q0 -42 -31.5 -67.5
t-82.5 -24.5z" />
    <glyph glyph-name="Egrave" unicode="&#xc8;" horiz-adv-x="622" 
d="M84 0v729h501v-75h-436l20 20v-618l-20 20h437v-76h-502zM149 338v70h387v-70h-387zM282 798l-83 140h83l64 -140h-64z" />
    <glyph glyph-name="Eacute" unicode="&#xc9;" horiz-adv-x="622" 
d="M84 0v729h501v-75h-436l20 20v-618l-20 20h437v-76h-502zM149 338v70h387v-70h-387zM283 798l64 140h83l-84 -140h-63z" />
    <glyph glyph-name="Ecircumflex" unicode="&#xca;" horiz-adv-x="622" 
d="M84 0v729h501v-75h-436l20 20v-618l-20 20h437v-76h-502zM149 338v70h387v-70h-387zM166 798l106 140h83l107 -140h-73l-75 99l-75 -99h-73z" />
    <glyph glyph-name="Edieresis" unicode="&#xcb;" horiz-adv-x="622" 
d="M84 0v729h501v-75h-436l20 20v-618l-20 20h437v-76h-502zM149 338v70h387v-70h-387zM411 821q-21 0 -34.5 12t-13.5 32t13.5 31.5t34.5 11.5t34.5 -11.5t13.5 -31.5t-13.5 -32t-34.5 -12zM217 821q-21 0 -34.5 12t-13.5 32t13.5 31.5t34.5 11.5t34.5 -11.5t13.5 -31.5
t-13.5 -32t-34.5 -12z" />
    <glyph glyph-name="Igrave" unicode="&#xcc;" horiz-adv-x="253" 
d="M84 0v729h85v-729h-85zM94 798l-83 140h83l64 -140h-64z" />
    <glyph glyph-name="Iacute" unicode="&#xcd;" horiz-adv-x="253" 
d="M84 0v729h85v-729h-85zM95 798l64 140h83l-84 -140h-63z" />
    <glyph glyph-name="Icircumflex" unicode="&#xce;" horiz-adv-x="253" 
d="M84 0v729h85v-729h-85zM-21 798l106 140h83l107 -140h-73l-75 99l-75 -99h-73z" />
    <glyph glyph-name="Idieresis" unicode="&#xcf;" horiz-adv-x="253" 
d="M84 0v729h85v-729h-85zM224 821q-21 0 -34.5 12t-13.5 32t13.5 31.5t34.5 11.5t34.5 -11.5t13.5 -31.5t-13.5 -32t-34.5 -12zM30 821q-21 0 -34.5 12t-13.5 32t13.5 31.5t34.5 11.5t34.5 -11.5t13.5 -31.5t-13.5 -32t-34.5 -12z" />
    <glyph glyph-name="Eth" unicode="&#xd0;" horiz-adv-x="788" 
d="M127 0v729h286q104 0 177 -45.5t111.5 -127.5t38.5 -192q0 -82 -22 -149t-64 -115t-102.5 -74t-138.5 -26h-286zM212 75h191q57 0 103 18.5t79 55.5t50.5 91.5t17.5 125.5q0 96 -31.5 160t-87.5 96t-131 32h-191v-579zM28 334v65h370v-65h-370z" />
    <glyph glyph-name="Ntilde" unicode="&#xd1;" horiz-adv-x="771" 
d="M84 0v729h109l411 -616h5l-4 247v369h82v-729h-105l-411 613h-5l4 -234v-379h-86zM454 820q-31 0 -54 7.5t-42.5 14.5t-41.5 7q-20 0 -34.5 -7.5t-26.5 -23.5l-38 22q15 25 30 39.5t32.5 21t37.5 6.5q24 0 47 -7.5t46.5 -15t46.5 -7.5q17 0 33 7.5t28 24.5l39 -23
q-13 -24 -29 -39t-34.5 -21t-39.5 -6z" />
    <glyph glyph-name="Ograve" unicode="&#xd2;" horiz-adv-x="807" 
d="M404 -9q-81 0 -146.5 26t-113 75t-72.5 118t-25 154q0 86 25.5 155t72.5 117.5t112.5 74.5t146.5 26t146 -26t112.5 -75t72.5 -117.5t25 -154.5t-25.5 -155t-72.5 -117.5t-112.5 -74.5t-145.5 -26zM404 66q82 0 142.5 36.5t93 103t32.5 158.5q0 70 -18.5 125t-54 93.5
t-84.5 59t-111 20.5q-83 0 -143 -36t-92.5 -102.5t-32.5 -159.5q0 -69 19 -124.5t53.5 -94t84 -59t111.5 -20.5zM371 798l-83 140h83l64 -140h-64z" />
    <glyph glyph-name="Oacute" unicode="&#xd3;" horiz-adv-x="807" 
d="M404 -9q-81 0 -146.5 26t-113 75t-72.5 118t-25 154q0 86 25.5 155t72.5 117.5t112.5 74.5t146.5 26t146 -26t112.5 -75t72.5 -117.5t25 -154.5t-25.5 -155t-72.5 -117.5t-112.5 -74.5t-145.5 -26zM404 66q82 0 142.5 36.5t93 103t32.5 158.5q0 70 -18.5 125t-54 93.5
t-84.5 59t-111 20.5q-83 0 -143 -36t-92.5 -102.5t-32.5 -159.5q0 -69 19 -124.5t53.5 -94t84 -59t111.5 -20.5zM373 798l64 140h83l-84 -140h-63z" />
    <glyph glyph-name="Ocircumflex" unicode="&#xd4;" horiz-adv-x="807" 
d="M404 -9q-81 0 -146.5 26t-113 75t-72.5 118t-25 154q0 86 25.5 155t72.5 117.5t112.5 74.5t146.5 26t146 -26t112.5 -75t72.5 -117.5t25 -154.5t-25.5 -155t-72.5 -117.5t-112.5 -74.5t-145.5 -26zM404 66q82 0 142.5 36.5t93 103t32.5 158.5q0 70 -18.5 125t-54 93.5
t-84.5 59t-111 20.5q-83 0 -143 -36t-92.5 -102.5t-32.5 -159.5q0 -69 19 -124.5t53.5 -94t84 -59t111.5 -20.5zM256 798l106 140h83l107 -140h-73l-75 99l-75 -99h-73z" />
    <glyph glyph-name="Otilde" unicode="&#xd5;" horiz-adv-x="807" 
d="M404 -9q-81 0 -146.5 26t-113 75t-72.5 118t-25 154q0 86 25.5 155t72.5 117.5t112.5 74.5t146.5 26t146 -26t112.5 -75t72.5 -117.5t25 -154.5t-25.5 -155t-72.5 -117.5t-112.5 -74.5t-145.5 -26zM404 66q82 0 142.5 36.5t93 103t32.5 158.5q0 70 -18.5 125t-54 93.5
t-84.5 59t-111 20.5q-83 0 -143 -36t-92.5 -102.5t-32.5 -159.5q0 -69 19 -124.5t53.5 -94t84 -59t111.5 -20.5zM472 820q-31 0 -54 7.5t-42.5 14.5t-41.5 7q-20 0 -34.5 -7.5t-26.5 -23.5l-38 22q15 25 30 39.5t32.5 21t37.5 6.5q24 0 47 -7.5t46.5 -15t46.5 -7.5
q17 0 33 7.5t28 24.5l39 -23q-13 -24 -29 -39t-34.5 -21t-39.5 -6z" />
    <glyph glyph-name="Odieresis" unicode="&#xd6;" horiz-adv-x="807" 
d="M404 -9q-81 0 -146.5 26t-113 75t-72.5 118t-25 154q0 86 25.5 155t72.5 117.5t112.5 74.5t146.5 26t146 -26t112.5 -75t72.5 -117.5t25 -154.5t-25.5 -155t-72.5 -117.5t-112.5 -74.5t-145.5 -26zM404 66q82 0 142.5 36.5t93 103t32.5 158.5q0 70 -18.5 125t-54 93.5
t-84.5 59t-111 20.5q-83 0 -143 -36t-92.5 -102.5t-32.5 -159.5q0 -69 19 -124.5t53.5 -94t84 -59t111.5 -20.5zM501 821q-21 0 -34.5 12t-13.5 32t13.5 31.5t34.5 11.5t34.5 -11.5t13.5 -31.5t-13.5 -32t-34.5 -12zM307 821q-21 0 -34.5 12t-13.5 32t13.5 31.5t34.5 11.5
t34.5 -11.5t13.5 -31.5t-13.5 -32t-34.5 -12z" />
    <glyph glyph-name="multiply" unicode="&#xd7;" horiz-adv-x="600" 
d="M141 155l-46 46l160 160l-160 159l46 46l160 -159l159 159l46 -46l-159 -159l159 -160l-46 -46l-159 160z" />
    <glyph glyph-name="Oslash" unicode="&#xd8;" horiz-adv-x="807" 
d="M404 -9q-81 0 -146.5 26t-113 75t-72.5 118t-25 154q0 86 25.5 155t72.5 117.5t112.5 74.5t146.5 26t146 -26t112.5 -75t72.5 -117.5t25 -154.5t-25.5 -155t-72.5 -117.5t-112.5 -74.5t-145.5 -26zM404 66q82 0 142.5 36.5t93 103t32.5 158.5q0 70 -18.5 125t-54 93.5
t-84.5 59t-111 20.5q-83 0 -143 -36t-92.5 -102.5t-32.5 -159.5q0 -69 19 -124.5t53.5 -94t84 -59t111.5 -20.5zM69 -40l597 810h72l-594 -810h-75z" />
    <glyph glyph-name="Ugrave" unicode="&#xd9;" horiz-adv-x="728" 
d="M364 -9q-91 0 -156.5 33.5t-100.5 95t-35 147.5v462h85v-460q0 -67 25 -111.5t72 -66.5t111 -22q70 0 116 24.5t68.5 69.5t22.5 106v460h84v-462q0 -84 -34.5 -146t-99.5 -96t-158 -34zM332 798l-83 140h83l64 -140h-64z" />
    <glyph glyph-name="Uacute" unicode="&#xda;" horiz-adv-x="728" 
d="M364 -9q-91 0 -156.5 33.5t-100.5 95t-35 147.5v462h85v-460q0 -67 25 -111.5t72 -66.5t111 -22q70 0 116 24.5t68.5 69.5t22.5 106v460h84v-462q0 -84 -34.5 -146t-99.5 -96t-158 -34zM333 798l64 140h83l-84 -140h-63z" />
    <glyph glyph-name="Ucircumflex" unicode="&#xdb;" horiz-adv-x="728" 
d="M364 -9q-91 0 -156.5 33.5t-100.5 95t-35 147.5v462h85v-460q0 -67 25 -111.5t72 -66.5t111 -22q70 0 116 24.5t68.5 69.5t22.5 106v460h84v-462q0 -84 -34.5 -146t-99.5 -96t-158 -34zM217 798l106 140h83l107 -140h-73l-75 99l-75 -99h-73z" />
    <glyph glyph-name="Udieresis" unicode="&#xdc;" horiz-adv-x="728" 
d="M364 -9q-91 0 -156.5 33.5t-100.5 95t-35 147.5v462h85v-460q0 -67 25 -111.5t72 -66.5t111 -22q70 0 116 24.5t68.5 69.5t22.5 106v460h84v-462q0 -84 -34.5 -146t-99.5 -96t-158 -34zM461 821q-21 0 -34.5 12t-13.5 32t13.5 31.5t34.5 11.5t34.5 -11.5t13.5 -31.5
t-13.5 -32t-34.5 -12zM267 821q-21 0 -34.5 12t-13.5 32t13.5 31.5t34.5 11.5t34.5 -11.5t13.5 -31.5t-13.5 -32t-34.5 -12z" />
    <glyph glyph-name="Yacute" unicode="&#xdd;" horiz-adv-x="670" 
d="M292 0v291l-270 438h98l122 -205l89 -156h6l91 156l123 205h97l-271 -438v-291h-85zM305 798l64 140h83l-84 -140h-63z" />
    <glyph glyph-name="Thorn" unicode="&#xde;" horiz-adv-x="641" 
d="M143 135v75h196q84 0 130 41.5t46 112.5q0 37 -12 66t-34.5 48.5t-55 29.5t-74.5 10h-196v75h205q58 0 105.5 -15t80.5 -44.5t50.5 -72t17.5 -97.5q0 -71 -31 -122.5t-88 -79t-136 -27.5h-204zM84 0v729h85v-729h-85z" />
    <glyph glyph-name="germandbls" unicode="&#xdf;" horiz-adv-x="654" 
d="M126 0v506q0 60 17.5 104t48 72.5t72 42.5t89.5 14q67 0 114.5 -23t73 -64.5t25.5 -96.5q0 -35 -11 -65.5t-34 -53t-57 -33.5v-6q43 -5 77.5 -29.5t54 -63.5t19.5 -90q0 -65 -27.5 -113t-82 -74.5t-134.5 -26.5h-83v68h75q54 0 92.5 17t58 51t19.5 85q0 65 -39 102
t-110 37h-66v58h37q66 0 101 33.5t35 89.5q0 58 -36.5 91.5t-101.5 33.5q-70 0 -108 -41t-38 -116v-509h-81zM21 458v67h150v-67h-150z" />
    <glyph glyph-name="agrave" unicode="&#xe0;" horiz-adv-x="610" 
d="M265 -9q-48 0 -88.5 19t-69.5 54t-44.5 85t-15.5 114q0 85 27.5 145.5t76.5 93t114 32.5q45 0 82.5 -14.5t63.5 -40.5t38 -62h5l3 108h77v-525h-77l-3 109h-5q-19 -53 -67.5 -85.5t-116.5 -32.5zM291 59q52 0 88 24.5t55 63.5t19 84v64q0 46 -19.5 85.5t-55 63
t-86.5 23.5q-50 0 -86.5 -24.5t-56 -70t-19.5 -109.5q0 -63 19.5 -109t55.5 -70.5t86 -24.5zM277 594l-83 140h83l64 -140h-64z" />
    <glyph glyph-name="aacute" unicode="&#xe1;" horiz-adv-x="610" 
d="M265 -9q-48 0 -88.5 19t-69.5 54t-44.5 85t-15.5 114q0 85 27.5 145.5t76.5 93t114 32.5q45 0 82.5 -14.5t63.5 -40.5t38 -62h5l3 108h77v-525h-77l-3 109h-5q-19 -53 -67.5 -85.5t-116.5 -32.5zM291 59q52 0 88 24.5t55 63.5t19 84v64q0 46 -19.5 85.5t-55 63
t-86.5 23.5q-50 0 -86.5 -24.5t-56 -70t-19.5 -109.5q0 -63 19.5 -109t55.5 -70.5t86 -24.5zM278 594l64 140h83l-84 -140h-63z" />
    <glyph glyph-name="acircumflex" unicode="&#xe2;" horiz-adv-x="610" 
d="M265 -9q-48 0 -88.5 19t-69.5 54t-44.5 85t-15.5 114q0 85 27.5 145.5t76.5 93t114 32.5q45 0 82.5 -14.5t63.5 -40.5t38 -62h5l3 108h77v-525h-77l-3 109h-5q-19 -53 -67.5 -85.5t-116.5 -32.5zM291 59q52 0 88 24.5t55 63.5t19 84v64q0 46 -19.5 85.5t-55 63
t-86.5 23.5q-50 0 -86.5 -24.5t-56 -70t-19.5 -109.5q0 -63 19.5 -109t55.5 -70.5t86 -24.5zM161 594l106 140h83l107 -140h-73l-75 99l-75 -99h-73z" />
    <glyph glyph-name="atilde" unicode="&#xe3;" horiz-adv-x="610" 
d="M265 -9q-48 0 -88.5 19t-69.5 54t-44.5 85t-15.5 114q0 85 27.5 145.5t76.5 93t114 32.5q45 0 82.5 -14.5t63.5 -40.5t38 -62h5l3 108h77v-525h-77l-3 109h-5q-19 -53 -67.5 -85.5t-116.5 -32.5zM291 59q52 0 88 24.5t55 63.5t19 84v64q0 46 -19.5 85.5t-55 63
t-86.5 23.5q-50 0 -86.5 -24.5t-56 -70t-19.5 -109.5q0 -63 19.5 -109t55.5 -70.5t86 -24.5zM377 616q-31 0 -54 7.5t-42.5 14.5t-41.5 7q-20 0 -34.5 -7.5t-26.5 -23.5l-38 22q15 25 30 39.5t32.5 21t37.5 6.5q24 0 47 -7.5t46.5 -15t46.5 -7.5q17 0 33 7.5t28 24.5l39 -23
q-13 -24 -29 -39t-34.5 -21t-39.5 -6z" />
    <glyph glyph-name="adieresis" unicode="&#xe4;" horiz-adv-x="610" 
d="M265 -9q-48 0 -88.5 19t-69.5 54t-44.5 85t-15.5 114q0 85 27.5 145.5t76.5 93t114 32.5q45 0 82.5 -14.5t63.5 -40.5t38 -62h5l3 108h77v-525h-77l-3 109h-5q-19 -53 -67.5 -85.5t-116.5 -32.5zM291 59q52 0 88 24.5t55 63.5t19 84v64q0 46 -19.5 85.5t-55 63
t-86.5 23.5q-50 0 -86.5 -24.5t-56 -70t-19.5 -109.5q0 -63 19.5 -109t55.5 -70.5t86 -24.5zM406 617q-21 0 -34.5 12t-13.5 32t13.5 31.5t34.5 11.5t34.5 -11.5t13.5 -31.5t-13.5 -32t-34.5 -12zM212 617q-21 0 -34.5 12t-13.5 32t13.5 31.5t34.5 11.5t34.5 -11.5
t13.5 -31.5t-13.5 -32t-34.5 -12z" />
    <glyph glyph-name="aring" unicode="&#xe5;" horiz-adv-x="610" 
d="M265 -9q-48 0 -88.5 19t-69.5 54t-44.5 85t-15.5 114q0 85 27.5 145.5t76.5 93t114 32.5q45 0 82.5 -14.5t63.5 -40.5t38 -62h5l3 108h77v-525h-77l-3 109h-5q-19 -53 -67.5 -85.5t-116.5 -32.5zM291 59q52 0 88 24.5t55 63.5t19 84v64q0 46 -19.5 85.5t-55 63
t-86.5 23.5q-50 0 -86.5 -24.5t-56 -70t-19.5 -109.5q0 -63 19.5 -109t55.5 -70.5t86 -24.5zM309 573q-46 0 -74.5 26.5t-28.5 70.5t28.5 70.5t74.5 26.5t75 -26.5t29 -70.5t-29 -70.5t-75 -26.5zM309 616q25 0 39.5 15t14.5 39t-14.5 38.5t-39.5 14.5q-24 0 -39 -14.5
t-15 -38.5t15 -39t39 -15z" />
    <glyph glyph-name="ae" unicode="&#xe6;" horiz-adv-x="914" 
d="M210 -9q-78 0 -123 41t-45 108q0 44 17 75t48 51t71.5 29.5t88.5 9.5h156v-55h-146q-46 0 -80.5 -11t-53.5 -33.5t-19 -59.5q0 -44 28.5 -69.5t78.5 -25.5q36 0 72 14t59 44.5t23 81.5v151q0 46 -15 74t-41.5 40.5t-62.5 12.5q-38 0 -66 -12t-44 -32.5t-18 -48.5h-80
q1 47 28 83t74.5 56t109.5 20q65 0 108 -26t60 -68h6q28 43 78 67.5t111 24.5t107.5 -21t76 -59t42 -90t7.5 -114h-413v55h334q-1 55 -21 91.5t-55 54.5t-81 18q-48 0 -85 -21t-59 -59.5t-23 -92.5v-41q0 -47 12 -84t34 -62t53.5 -38.5t70.5 -13.5q60 0 99 27t51 71h78
q-8 -50 -40.5 -86.5t-81.5 -56.5t-109 -20q-74 0 -128.5 32.5t-82.5 90.5h-4q-13 -36 -43 -63.5t-71.5 -43.5t-90.5 -16z" />
    <glyph glyph-name="ccedilla" unicode="&#xe7;" horiz-adv-x="562" 
d="M296 -9q-57 0 -103.5 19.5t-79.5 55t-51 85t-18 111.5q0 61 18 110.5t52 85.5t81 55.5t104 19.5q61 0 109 -22t78 -62t36 -93h-79q-8 36 -29 60t-51 36t-66 12q-41 0 -72.5 -14.5t-53.5 -41.5t-33.5 -64t-11.5 -83q0 -63 21.5 -108t59.5 -69t89 -24q41 0 72 15t51.5 40.5
t26.5 61.5h79q-6 -56 -37 -98t-80.5 -65t-111.5 -23zM287 -241q-43 0 -75 19.5t-42 57.5l56 15q6 -19 20.5 -30t37.5 -12q27 0 41.5 14t14.5 36q0 25 -21 39t-68 23l-11 22l39 71h45l-25 -61q48 -12 75 -37.5t27 -64.5q0 -42 -31.5 -67.5t-82.5 -24.5z" />
    <glyph glyph-name="egrave" unicode="&#xe8;" horiz-adv-x="574" 
d="M277 -9q-75 0 -128.5 33t-81.5 94t-28 142q0 83 28 144.5t80 95t127 33.5q80 0 132 -36t75.5 -100t17.5 -148h-381q1 -65 20.5 -108.5t55 -65t83.5 -21.5q56 0 92 26t48 69h78q-9 -50 -39.5 -85.5t-76.5 -54t-102 -18.5zM119 295l-9 12h319l-9 -14q1 63 -17 101.5
t-51.5 57t-77.5 18.5q-46 0 -80 -20t-53.5 -58.5t-21.5 -96.5zM258 594l-83 140h83l64 -140h-64z" />
    <glyph glyph-name="eacute" unicode="&#xe9;" horiz-adv-x="574" 
d="M277 -9q-75 0 -128.5 33t-81.5 94t-28 142q0 83 28 144.5t80 95t127 33.5q80 0 132 -36t75.5 -100t17.5 -148h-381q1 -65 20.5 -108.5t55 -65t83.5 -21.5q56 0 92 26t48 69h78q-9 -50 -39.5 -85.5t-76.5 -54t-102 -18.5zM119 295l-9 12h319l-9 -14q1 63 -17 101.5
t-51.5 57t-77.5 18.5q-46 0 -80 -20t-53.5 -58.5t-21.5 -96.5zM259 594l64 140h83l-84 -140h-63z" />
    <glyph glyph-name="ecircumflex" unicode="&#xea;" horiz-adv-x="574" 
d="M277 -9q-75 0 -128.5 33t-81.5 94t-28 142q0 83 28 144.5t80 95t127 33.5q80 0 132 -36t75.5 -100t17.5 -148h-381q1 -65 20.5 -108.5t55 -65t83.5 -21.5q56 0 92 26t48 69h78q-9 -50 -39.5 -85.5t-76.5 -54t-102 -18.5zM119 295l-9 12h319l-9 -14q1 63 -17 101.5
t-51.5 57t-77.5 18.5q-46 0 -80 -20t-53.5 -58.5t-21.5 -96.5zM142 594l106 140h83l107 -140h-73l-75 99l-75 -99h-73z" />
    <glyph glyph-name="edieresis" unicode="&#xeb;" horiz-adv-x="574" 
d="M277 -9q-75 0 -128.5 33t-81.5 94t-28 142q0 83 28 144.5t80 95t127 33.5q80 0 132 -36t75.5 -100t17.5 -148h-381q1 -65 20.5 -108.5t55 -65t83.5 -21.5q56 0 92 26t48 69h78q-9 -50 -39.5 -85.5t-76.5 -54t-102 -18.5zM119 295l-9 12h319l-9 -14q1 63 -17 101.5
t-51.5 57t-77.5 18.5q-46 0 -80 -20t-53.5 -58.5t-21.5 -96.5zM387 617q-21 0 -34.5 12t-13.5 32t13.5 31.5t34.5 11.5t34.5 -11.5t13.5 -31.5t-13.5 -32t-34.5 -12zM193 617q-21 0 -34.5 12t-13.5 32t13.5 31.5t34.5 11.5t34.5 -11.5t13.5 -31.5t-13.5 -32t-34.5 -12z" />
    <glyph glyph-name="igrave" unicode="&#xec;" horiz-adv-x="233" 
d="M76 0v525h81v-525h-81zM85 594l-83 140h83l64 -140h-64z" />
    <glyph glyph-name="iacute" unicode="&#xed;" horiz-adv-x="233" 
d="M76 0v525h81v-525h-81zM86 594l64 140h83l-84 -140h-63z" />
    <glyph glyph-name="icircumflex" unicode="&#xee;" horiz-adv-x="233" 
d="M76 0v525h81v-525h-81zM-31 594l106 140h83l107 -140h-73l-75 99l-75 -99h-73z" />
    <glyph glyph-name="idieresis" unicode="&#xef;" horiz-adv-x="233" 
d="M76 0v525h81v-525h-81zM214 617q-21 0 -34.5 12t-13.5 32t13.5 31.5t34.5 11.5t34.5 -11.5t13.5 -31.5t-13.5 -32t-34.5 -12zM20 617q-21 0 -34.5 12t-13.5 32t13.5 31.5t34.5 11.5t34.5 -11.5t13.5 -31.5t-13.5 -32t-34.5 -12z" />
    <glyph glyph-name="eth" unicode="&#xf0;" horiz-adv-x="556" 
d="M273 -9q-53 0 -95 17.5t-72 51t-46 80.5t-16 106q0 77 26.5 133t75 86.5t114.5 30.5q50 0 90 -21.5t63 -64.5l4 1q-22 57 -55.5 113t-72.5 108.5t-80 96.5h94q40 -48 78 -104.5t67.5 -117.5t46.5 -124.5t17 -128.5q0 -81 -29 -140t-82.5 -91t-127.5 -32zM277 60
q50 0 84.5 22t52.5 63t18 98q0 45 -10.5 81t-31 60.5t-49.5 37t-65 12.5q-48 0 -81.5 -22.5t-51.5 -63.5t-18 -100q0 -44 10.5 -79t30 -59.5t48 -37t63.5 -12.5zM159 544v54l324 78v-55z" />
    <glyph glyph-name="ntilde" unicode="&#xf1;" horiz-adv-x="600" 
d="M76 0v525h77l3 -109h6q24 58 74 87.5t109 29.5q41 0 75.5 -12t60 -39t39.5 -69.5t14 -103.5v-309h-81v293q0 59 -14.5 97t-44 56.5t-75.5 18.5q-49 0 -86 -24t-57 -64.5t-20 -92.5v-284h-80zM371 616q-31 0 -54 7.5t-42.5 14.5t-41.5 7q-20 0 -34.5 -7.5t-26.5 -23.5
l-38 22q15 25 30 39.5t32.5 21t37.5 6.5q24 0 47 -7.5t46.5 -15t46.5 -7.5q17 0 33 7.5t28 24.5l39 -23q-13 -24 -29 -39t-34.5 -21t-39.5 -6z" />
    <glyph glyph-name="ograve" unicode="&#xf2;" horiz-adv-x="594" 
d="M298 -9q-57 0 -103.5 19t-80 55t-52 85.5t-18.5 110.5q0 81 31 142t88.5 95.5t134.5 34.5q57 0 103.5 -18.5t79.5 -54.5t51 -86t18 -112q0 -80 -30.5 -141t-87.5 -95.5t-134 -34.5zM298 61q51 0 89 23.5t59.5 69t21.5 108.5q0 47 -12 84.5t-34 64t-53 40.5t-71 14
q-51 0 -89.5 -24.5t-60 -69.5t-21.5 -110q0 -46 11.5 -83.5t34 -63.5t54.5 -39.5t71 -13.5zM265 594l-83 140h83l64 -140h-64z" />
    <glyph glyph-name="oacute" unicode="&#xf3;" horiz-adv-x="594" 
d="M298 -9q-57 0 -103.5 19t-80 55t-52 85.5t-18.5 110.5q0 81 31 142t88.5 95.5t134.5 34.5q57 0 103.5 -18.5t79.5 -54.5t51 -86t18 -112q0 -80 -30.5 -141t-87.5 -95.5t-134 -34.5zM298 61q51 0 89 23.5t59.5 69t21.5 108.5q0 47 -12 84.5t-34 64t-53 40.5t-71 14
q-51 0 -89.5 -24.5t-60 -69.5t-21.5 -110q0 -46 11.5 -83.5t34 -63.5t54.5 -39.5t71 -13.5zM266 594l64 140h83l-84 -140h-63z" />
    <glyph glyph-name="ocircumflex" unicode="&#xf4;" horiz-adv-x="594" 
d="M298 -9q-57 0 -103.5 19t-80 55t-52 85.5t-18.5 110.5q0 81 31 142t88.5 95.5t134.5 34.5q57 0 103.5 -18.5t79.5 -54.5t51 -86t18 -112q0 -80 -30.5 -141t-87.5 -95.5t-134 -34.5zM298 61q51 0 89 23.5t59.5 69t21.5 108.5q0 47 -12 84.5t-34 64t-53 40.5t-71 14
q-51 0 -89.5 -24.5t-60 -69.5t-21.5 -110q0 -46 11.5 -83.5t34 -63.5t54.5 -39.5t71 -13.5zM150 594l106 140h83l107 -140h-73l-75 99l-75 -99h-73z" />
    <glyph glyph-name="otilde" unicode="&#xf5;" horiz-adv-x="594" 
d="M298 -9q-57 0 -103.5 19t-80 55t-52 85.5t-18.5 110.5q0 81 31 142t88.5 95.5t134.5 34.5q57 0 103.5 -18.5t79.5 -54.5t51 -86t18 -112q0 -80 -30.5 -141t-87.5 -95.5t-134 -34.5zM298 61q51 0 89 23.5t59.5 69t21.5 108.5q0 47 -12 84.5t-34 64t-53 40.5t-71 14
q-51 0 -89.5 -24.5t-60 -69.5t-21.5 -110q0 -46 11.5 -83.5t34 -63.5t54.5 -39.5t71 -13.5zM366 616q-31 0 -54 7.5t-42.5 14.5t-41.5 7q-20 0 -34.5 -7.5t-26.5 -23.5l-38 22q15 25 30 39.5t32.5 21t37.5 6.5q24 0 47 -7.5t46.5 -15t46.5 -7.5q17 0 33 7.5t28 24.5l39 -23
q-13 -24 -29 -39t-34.5 -21t-39.5 -6z" />
    <glyph glyph-name="odieresis" unicode="&#xf6;" horiz-adv-x="594" 
d="M298 -9q-57 0 -103.5 19t-80 55t-52 85.5t-18.5 110.5q0 81 31 142t88.5 95.5t134.5 34.5q57 0 103.5 -18.5t79.5 -54.5t51 -86t18 -112q0 -80 -30.5 -141t-87.5 -95.5t-134 -34.5zM298 61q51 0 89 23.5t59.5 69t21.5 108.5q0 47 -12 84.5t-34 64t-53 40.5t-71 14
q-51 0 -89.5 -24.5t-60 -69.5t-21.5 -110q0 -46 11.5 -83.5t34 -63.5t54.5 -39.5t71 -13.5zM394 617q-21 0 -34.5 12t-13.5 32t13.5 31.5t34.5 11.5t34.5 -11.5t13.5 -31.5t-13.5 -32t-34.5 -12zM200 617q-21 0 -34.5 12t-13.5 32t13.5 31.5t34.5 11.5t34.5 -11.5
t13.5 -31.5t-13.5 -32t-34.5 -12z" />
    <glyph glyph-name="divide" unicode="&#xf7;" horiz-adv-x="600" 
d="M56 328v66h488v-66h-488zM261 160v81h79v-81h-79zM261 481v81h79v-81h-79z" />
    <glyph glyph-name="oslash" unicode="&#xf8;" horiz-adv-x="594" 
d="M298 -9q-57 0 -103.5 19t-80 55t-52 85.5t-18.5 110.5q0 81 31 142t88.5 95.5t134.5 34.5q57 0 103.5 -18.5t79.5 -54.5t51 -86t18 -112q0 -80 -30.5 -141t-87.5 -95.5t-134 -34.5zM298 61q51 0 89 23.5t59.5 69t21.5 108.5q0 47 -12 84.5t-34 64t-53 40.5t-71 14
q-51 0 -89.5 -24.5t-60 -69.5t-21.5 -110q0 -46 11.5 -83.5t34 -63.5t54.5 -39.5t71 -13.5zM30 -60l475 645h60l-474 -645h-61z" />
    <glyph glyph-name="ugrave" unicode="&#xf9;" horiz-adv-x="601" 
d="M257 -9q-59 0 -102 23.5t-65.5 71t-22.5 117.5v322h81v-302q0 -52 14 -88.5t44.5 -55.5t78.5 -19q47 0 83 23t56 65t20 97v280h81v-525h-77l-4 112h-6q-20 -56 -69 -88.5t-112 -32.5zM264 594l-83 140h83l64 -140h-64z" />
    <glyph glyph-name="uacute" unicode="&#xfa;" horiz-adv-x="601" 
d="M257 -9q-59 0 -102 23.5t-65.5 71t-22.5 117.5v322h81v-302q0 -52 14 -88.5t44.5 -55.5t78.5 -19q47 0 83 23t56 65t20 97v280h81v-525h-77l-4 112h-6q-20 -56 -69 -88.5t-112 -32.5zM265 594l64 140h83l-84 -140h-63z" />
    <glyph glyph-name="ucircumflex" unicode="&#xfb;" horiz-adv-x="601" 
d="M257 -9q-59 0 -102 23.5t-65.5 71t-22.5 117.5v322h81v-302q0 -52 14 -88.5t44.5 -55.5t78.5 -19q47 0 83 23t56 65t20 97v280h81v-525h-77l-4 112h-6q-20 -56 -69 -88.5t-112 -32.5zM148 594l106 140h83l107 -140h-73l-75 99l-75 -99h-73z" />
    <glyph glyph-name="udieresis" unicode="&#xfc;" horiz-adv-x="601" 
d="M257 -9q-59 0 -102 23.5t-65.5 71t-22.5 117.5v322h81v-302q0 -52 14 -88.5t44.5 -55.5t78.5 -19q47 0 83 23t56 65t20 97v280h81v-525h-77l-4 112h-6q-20 -56 -69 -88.5t-112 -32.5zM393 617q-21 0 -34.5 12t-13.5 32t13.5 31.5t34.5 11.5t34.5 -11.5t13.5 -31.5
t-13.5 -32t-34.5 -12zM199 617q-21 0 -34.5 12t-13.5 32t13.5 31.5t34.5 11.5t34.5 -11.5t13.5 -31.5t-13.5 -32t-34.5 -12z" />
    <glyph glyph-name="yacute" unicode="&#xfd;" horiz-adv-x="523" 
d="M56 -167v67h53q24 0 41 7t29.5 21t20.5 36l35 89v-34l-215 506h89l109 -286l47 -125h5l43 125l103 286h87l-227 -581q-15 -40 -36 -64.5t-50 -35.5t-69 -11h-65zM230 594l64 140h83l-84 -140h-63z" />
    <glyph glyph-name="thorn" unicode="&#xfe;" horiz-adv-x="610" 
d="M76 -167v896h81v-313h4q18 53 67 85t117 32q48 0 88 -18.5t69 -53.5t44.5 -85.5t15.5 -113.5q0 -85 -27 -146t-76 -93t-114 -32q-45 0 -82.5 14.5t-63 41t-38.5 61.5h-5v-275h-80zM317 58q51 0 87 24t56 70t20 110t-19.5 109.5t-55.5 69.5t-86 24q-52 0 -88 -23.5
t-55 -63t-19 -84.5v-64q0 -46 19 -85t55 -63t86 -24z" />
    <glyph glyph-name="ydieresis" unicode="&#xff;" horiz-adv-x="523" 
d="M56 -167v67h53q24 0 41 7t29.5 21t20.5 36l35 89v-34l-215 506h89l109 -286l47 -125h5l43 125l103 286h87l-227 -581q-15 -40 -36 -64.5t-50 -35.5t-69 -11h-65zM358 617q-21 0 -34.5 12t-13.5 32t13.5 31.5t34.5 11.5t34.5 -11.5t13.5 -31.5t-13.5 -32t-34.5 -12z
M164 617q-21 0 -34.5 12t-13.5 32t13.5 31.5t34.5 11.5t34.5 -11.5t13.5 -31.5t-13.5 -32t-34.5 -12z" />
    <glyph glyph-name="Amacron" unicode="&#x100;" horiz-adv-x="703" 
d="M25 0l267 729h120l266 -729h-89l-202 570l-32 92h-6l-31 -92l-203 -570h-90zM169 179l13 70h339l13 -70h-365zM180 822v63h343v-63h-343z" />
    <glyph glyph-name="amacron" unicode="&#x101;" horiz-adv-x="610" 
d="M265 -9q-48 0 -88.5 19t-69.5 54t-44.5 85t-15.5 114q0 85 27.5 145.5t76.5 93t114 32.5q45 0 82.5 -14.5t63.5 -40.5t38 -62h5l3 108h77v-525h-77l-3 109h-5q-19 -53 -67.5 -85.5t-116.5 -32.5zM291 59q52 0 88 24.5t55 63.5t19 84v64q0 46 -19.5 85.5t-55 63
t-86.5 23.5q-50 0 -86.5 -24.5t-56 -70t-19.5 -109.5q0 -63 19.5 -109t55.5 -70.5t86 -24.5zM137 618v63h343v-63h-343z" />
    <glyph glyph-name="Abreve" unicode="&#x102;" horiz-adv-x="703" 
d="M25 0l267 729h120l266 -729h-89l-202 570l-32 92h-6l-31 -92l-203 -570h-90zM169 179l13 70h339l13 -70h-365zM352 789q-45 0 -77 17t-48.5 49.5t-17.5 78.5h60q0 -47 21.5 -70.5t61.5 -23.5q39 0 60.5 23.5t21.5 70.5h60q-1 -70 -38 -107.5t-104 -37.5z" />
    <glyph glyph-name="abreve" unicode="&#x103;" horiz-adv-x="610" 
d="M265 -9q-48 0 -88.5 19t-69.5 54t-44.5 85t-15.5 114q0 85 27.5 145.5t76.5 93t114 32.5q45 0 82.5 -14.5t63.5 -40.5t38 -62h5l3 108h77v-525h-77l-3 109h-5q-19 -53 -67.5 -85.5t-116.5 -32.5zM291 59q52 0 88 24.5t55 63.5t19 84v64q0 46 -19.5 85.5t-55 63
t-86.5 23.5q-50 0 -86.5 -24.5t-56 -70t-19.5 -109.5q0 -63 19.5 -109t55.5 -70.5t86 -24.5zM309 585q-45 0 -77 17t-48.5 49.5t-17.5 78.5h60q0 -47 21.5 -70.5t61.5 -23.5q39 0 60.5 23.5t21.5 70.5h60q-1 -70 -38 -107.5t-104 -37.5z" />
    <glyph glyph-name="Aogonek" unicode="&#x104;" horiz-adv-x="703" 
d="M25 0l267 729h120l266 -729h-89l-202 570l-32 92h-6l-31 -92l-203 -570h-90zM169 179l13 70h339l13 -70h-365zM621 -212q-46 0 -72.5 22.5t-26.5 61.5q0 26 12.5 51.5t37.5 49.5t59 44h37l9 -17q-37 -27 -60.5 -55.5t-23.5 -60.5q0 -24 14.5 -37t40.5 -13q11 0 22.5 2.5
t20.5 6.5v-42q-12 -6 -31.5 -9.5t-38.5 -3.5z" />
    <glyph glyph-name="aogonek" unicode="&#x105;" horiz-adv-x="610" 
d="M265 -9q-48 0 -88.5 19t-69.5 54t-44.5 85t-15.5 114q0 85 27.5 145.5t76.5 93t114 32.5q45 0 82.5 -14.5t63.5 -40.5t38 -62h5l3 108h77v-525h-77l-3 109h-5q-19 -53 -67.5 -85.5t-116.5 -32.5zM291 59q52 0 88 24.5t55 63.5t19 84v64q0 46 -19.5 85.5t-55 63
t-86.5 23.5q-50 0 -86.5 -24.5t-56 -70t-19.5 -109.5q0 -63 19.5 -109t55.5 -70.5t86 -24.5zM477 -212q-46 0 -72.5 22.5t-26.5 61.5q0 26 12.5 51.5t37.5 49.5t59 44h37l9 -17q-37 -27 -60.5 -55.5t-23.5 -60.5q0 -24 14.5 -37t40.5 -13q11 0 22.5 2.5t20.5 6.5v-42
q-12 -6 -31.5 -9.5t-38.5 -3.5z" />
    <glyph glyph-name="Cacute" unicode="&#x106;" horiz-adv-x="771" 
d="M404 -9q-81 0 -146.5 26t-113 75t-72.5 118t-25 154q0 86 25.5 155t72.5 117.5t112.5 74.5t146.5 26q88 0 157.5 -30.5t113.5 -86.5t56 -132h-87q-10 51 -42.5 90t-82.5 61.5t-115 22.5q-83 0 -143 -36t-92.5 -102.5t-32.5 -159.5q0 -69 19 -124.5t53.5 -94t84 -59
t111.5 -20.5q65 0 115.5 22t83 62t41.5 94h87q-10 -77 -54 -134t-114 -88t-159 -31zM374 798l64 140h83l-84 -140h-63z" />
    <glyph glyph-name="cacute" unicode="&#x107;" horiz-adv-x="562" 
d="M296 -9q-57 0 -103.5 19.5t-79.5 55t-51 85t-18 111.5q0 61 18 110.5t52 85.5t81 55.5t104 19.5q61 0 109 -22t78 -62t36 -93h-79q-8 36 -29 60t-51 36t-66 12q-41 0 -72.5 -14.5t-53.5 -41.5t-33.5 -64t-11.5 -83q0 -63 21.5 -108t59.5 -69t89 -24q41 0 72 15t51.5 40.5
t26.5 61.5h79q-6 -56 -37 -98t-80.5 -65t-111.5 -23zM265 594l64 140h83l-84 -140h-63z" />
    <glyph glyph-name="Ccircumflex" unicode="&#x108;" horiz-adv-x="771" 
d="M404 -9q-81 0 -146.5 26t-113 75t-72.5 118t-25 154q0 86 25.5 155t72.5 117.5t112.5 74.5t146.5 26q88 0 157.5 -30.5t113.5 -86.5t56 -132h-87q-10 51 -42.5 90t-82.5 61.5t-115 22.5q-83 0 -143 -36t-92.5 -102.5t-32.5 -159.5q0 -69 19 -124.5t53.5 -94t84 -59
t111.5 -20.5q65 0 115.5 22t83 62t41.5 94h87q-10 -77 -54 -134t-114 -88t-159 -31zM257 798l106 140h83l107 -140h-73l-75 99l-75 -99h-73z" />
    <glyph glyph-name="ccircumflex" unicode="&#x109;" horiz-adv-x="562" 
d="M296 -9q-57 0 -103.5 19.5t-79.5 55t-51 85t-18 111.5q0 61 18 110.5t52 85.5t81 55.5t104 19.5q61 0 109 -22t78 -62t36 -93h-79q-8 36 -29 60t-51 36t-66 12q-41 0 -72.5 -14.5t-53.5 -41.5t-33.5 -64t-11.5 -83q0 -63 21.5 -108t59.5 -69t89 -24q41 0 72 15t51.5 40.5
t26.5 61.5h79q-6 -56 -37 -98t-80.5 -65t-111.5 -23zM149 594l106 140h83l107 -140h-73l-75 99l-75 -99h-73z" />
    <glyph glyph-name="Cdotaccent" unicode="&#x10a;" horiz-adv-x="771" 
d="M404 -9q-81 0 -146.5 26t-113 75t-72.5 118t-25 154q0 86 25.5 155t72.5 117.5t112.5 74.5t146.5 26q88 0 157.5 -30.5t113.5 -86.5t56 -132h-87q-10 51 -42.5 90t-82.5 61.5t-115 22.5q-83 0 -143 -36t-92.5 -102.5t-32.5 -159.5q0 -69 19 -124.5t53.5 -94t84 -59
t111.5 -20.5q65 0 115.5 22t83 62t41.5 94h87q-10 -77 -54 -134t-114 -88t-159 -31zM405 819q-23 0 -37 12.5t-14 33.5t14 33t37 12q22 0 36 -12t14 -33t-14 -33.5t-36 -12.5z" />
    <glyph glyph-name="cdotaccent" unicode="&#x10b;" horiz-adv-x="562" 
d="M296 -9q-57 0 -103.5 19.5t-79.5 55t-51 85t-18 111.5q0 61 18 110.5t52 85.5t81 55.5t104 19.5q61 0 109 -22t78 -62t36 -93h-79q-8 36 -29 60t-51 36t-66 12q-41 0 -72.5 -14.5t-53.5 -41.5t-33.5 -64t-11.5 -83q0 -63 21.5 -108t59.5 -69t89 -24q41 0 72 15t51.5 40.5
t26.5 61.5h79q-6 -56 -37 -98t-80.5 -65t-111.5 -23zM297 615q-23 0 -37 12.5t-14 33.5t14 33t37 12q22 0 36 -12t14 -33t-14 -33.5t-36 -12.5z" />
    <glyph glyph-name="Ccaron" unicode="&#x10c;" horiz-adv-x="771" 
d="M404 -9q-81 0 -146.5 26t-113 75t-72.5 118t-25 154q0 86 25.5 155t72.5 117.5t112.5 74.5t146.5 26q88 0 157.5 -30.5t113.5 -86.5t56 -132h-87q-10 51 -42.5 90t-82.5 61.5t-115 22.5q-83 0 -143 -36t-92.5 -102.5t-32.5 -159.5q0 -69 19 -124.5t53.5 -94t84 -59
t111.5 -20.5q65 0 115.5 22t83 62t41.5 94h87q-10 -77 -54 -134t-114 -88t-159 -31zM363 798l-106 140h73l75 -99l74 99h74l-107 -140h-83z" />
    <glyph glyph-name="ccaron" unicode="&#x10d;" horiz-adv-x="562" 
d="M296 -9q-57 0 -103.5 19.5t-79.5 55t-51 85t-18 111.5q0 61 18 110.5t52 85.5t81 55.5t104 19.5q61 0 109 -22t78 -62t36 -93h-79q-8 36 -29 60t-51 36t-66 12q-41 0 -72.5 -14.5t-53.5 -41.5t-33.5 -64t-11.5 -83q0 -63 21.5 -108t59.5 -69t89 -24q41 0 72 15t51.5 40.5
t26.5 61.5h79q-6 -56 -37 -98t-80.5 -65t-111.5 -23zM255 594l-106 140h73l75 -99l74 99h74l-107 -140h-83z" />
    <glyph glyph-name="Dcaron" unicode="&#x10e;" horiz-adv-x="745" 
d="M84 0v729h286q104 0 177 -45.5t111.5 -127.5t38.5 -192q0 -82 -22 -149t-64 -115t-102.5 -74t-138.5 -26h-286zM169 75h191q57 0 103 18.5t79 55.5t50.5 91.5t17.5 125.5q0 96 -31.5 160t-87.5 96t-131 32h-191v-579zM323 798l-106 140h73l75 -99l74 99h74l-107 -140h-83
z" />
    <glyph glyph-name="dcaron" unicode="&#x10f;" horiz-adv-x="610" 
d="M580 545l60 184h72l-72 -184h-60zM265 -9q-48 0 -88.5 19t-69.5 54t-44.5 85t-15.5 114q0 85 27.5 145.5t76.5 93t114 32.5q45 0 82.5 -14.5t63.5 -40.5t38 -62h4v312h81v-729h-77l-3 109h-5q-19 -53 -67.5 -85.5t-116.5 -32.5zM291 59q52 0 88 24.5t55 63.5t19 84v64
q0 46 -19.5 85.5t-55 63t-86.5 23.5q-50 0 -86.5 -24.5t-56 -70t-19.5 -109.5q0 -63 19.5 -109t55.5 -70.5t86 -24.5z" />
    <glyph glyph-name="Dcroat" unicode="&#x110;" horiz-adv-x="788" 
d="M127 0v729h286q104 0 177 -45.5t111.5 -127.5t38.5 -192q0 -82 -22 -149t-64 -115t-102.5 -74t-138.5 -26h-286zM212 75h191q57 0 103 18.5t79 55.5t50.5 91.5t17.5 125.5q0 96 -31.5 160t-87.5 96t-131 32h-191v-579zM28 334v65h370v-65h-370z" />
    <glyph glyph-name="dcroat" unicode="&#x111;" horiz-adv-x="610" 
d="M265 -9q-48 0 -88.5 19t-69.5 54t-44.5 85t-15.5 114q0 85 27.5 145.5t76.5 93t114 32.5q45 0 82.5 -14.5t63.5 -40.5t38 -62h4v312h81v-729h-77l-3 109h-5q-19 -53 -67.5 -85.5t-116.5 -32.5zM291 59q52 0 88 24.5t55 63.5t19 84v64q0 46 -19.5 85.5t-55 63t-86.5 23.5
q-50 0 -86.5 -24.5t-56 -70t-19.5 -109.5q0 -63 19.5 -109t55.5 -70.5t86 -24.5zM298 603v56h317v-56h-317z" />
    <glyph glyph-name="Emacron" unicode="&#x112;" horiz-adv-x="622" 
d="M84 0v729h501v-75h-436l20 20v-618l-20 20h437v-76h-502zM149 338v70h387v-70h-387zM142 822v63h343v-63h-343z" />
    <glyph glyph-name="emacron" unicode="&#x113;" horiz-adv-x="574" 
d="M277 -9q-75 0 -128.5 33t-81.5 94t-28 142q0 83 28 144.5t80 95t127 33.5q80 0 132 -36t75.5 -100t17.5 -148h-381q1 -65 20.5 -108.5t55 -65t83.5 -21.5q56 0 92 26t48 69h78q-9 -50 -39.5 -85.5t-76.5 -54t-102 -18.5zM119 295l-9 12h319l-9 -14q1 63 -17 101.5
t-51.5 57t-77.5 18.5q-46 0 -80 -20t-53.5 -58.5t-21.5 -96.5zM118 618v63h343v-63h-343z" />
    <glyph glyph-name="Ebreve" unicode="&#x114;" horiz-adv-x="622" 
d="M84 0v729h501v-75h-436l20 20v-618l-20 20h437v-76h-502zM149 338v70h387v-70h-387zM314 789q-45 0 -77 17t-48.5 49.5t-17.5 78.5h60q0 -47 21.5 -70.5t61.5 -23.5q39 0 60.5 23.5t21.5 70.5h60q-1 -70 -38 -107.5t-104 -37.5z" />
    <glyph glyph-name="ebreve" unicode="&#x115;" horiz-adv-x="574" 
d="M277 -9q-75 0 -128.5 33t-81.5 94t-28 142q0 83 28 144.5t80 95t127 33.5q80 0 132 -36t75.5 -100t17.5 -148h-381q1 -65 20.5 -108.5t55 -65t83.5 -21.5q56 0 92 26t48 69h78q-9 -50 -39.5 -85.5t-76.5 -54t-102 -18.5zM119 295l-9 12h319l-9 -14q1 63 -17 101.5
t-51.5 57t-77.5 18.5q-46 0 -80 -20t-53.5 -58.5t-21.5 -96.5zM291 585q-45 0 -77 17t-48.5 49.5t-17.5 78.5h60q0 -47 21.5 -70.5t61.5 -23.5q39 0 60.5 23.5t21.5 70.5h60q-1 -70 -38 -107.5t-104 -37.5z" />
    <glyph glyph-name="Edotaccent" unicode="&#x116;" horiz-adv-x="622" 
d="M84 0v729h501v-75h-436l20 20v-618l-20 20h437v-76h-502zM149 338v70h387v-70h-387zM314 819q-23 0 -37 12.5t-14 33.5t14 33t37 12q22 0 36 -12t14 -33t-14 -33.5t-36 -12.5z" />
    <glyph glyph-name="edotaccent" unicode="&#x117;" horiz-adv-x="574" 
d="M277 -9q-75 0 -128.5 33t-81.5 94t-28 142q0 83 28 144.5t80 95t127 33.5q80 0 132 -36t75.5 -100t17.5 -148h-381q1 -65 20.5 -108.5t55 -65t83.5 -21.5q56 0 92 26t48 69h78q-9 -50 -39.5 -85.5t-76.5 -54t-102 -18.5zM119 295l-9 12h319l-9 -14q1 63 -17 101.5
t-51.5 57t-77.5 18.5q-46 0 -80 -20t-53.5 -58.5t-21.5 -96.5zM291 615q-23 0 -37 12.5t-14 33.5t14 33t37 12q22 0 36 -12t14 -33t-14 -33.5t-36 -12.5z" />
    <glyph glyph-name="Eogonek" unicode="&#x118;" horiz-adv-x="622" 
d="M84 0v729h501v-75h-436l20 20v-618l-20 20h437v-76h-502zM149 338v70h387v-70h-387zM529 -212q-46 0 -72.5 22.5t-26.5 61.5q0 26 12.5 51.5t37.5 49.5t59 44h37l9 -17q-37 -27 -60.5 -55.5t-23.5 -60.5q0 -24 14.5 -37t40.5 -13q11 0 22.5 2.5t20.5 6.5v-42
q-12 -6 -31.5 -9.5t-38.5 -3.5z" />
    <glyph glyph-name="eogonek" unicode="&#x119;" horiz-adv-x="574" 
d="M364 -199q-47 0 -74 21.5t-27 60.5q0 34 19 61.5t49 51.5q-11 -2 -23.5 -3t-24.5 -1q-74 2 -127 36t-82 94t-29 139q0 82 29.5 143.5t85 95t131.5 33.5q85 0 139.5 -37t79 -101.5t16.5 -146.5h-401q1 -61 22.5 -104t59 -65.5t87.5 -22.5q60 0 99 27t51 71h79
q-6 -40 -29.5 -72.5t-58.5 -53.5q-30 -23 -55.5 -44.5t-40.5 -42t-15 -45.5q0 -51 61 -51q9 0 21.5 2t23.5 6v-42q-11 -5 -28.5 -7.5t-37.5 -2.5zM126 305h321q0 55 -20.5 91t-55 54.5t-81.5 18.5t-82.5 -20t-56.5 -56.5t-25 -87.5z" />
    <glyph glyph-name="Ecaron" unicode="&#x11a;" horiz-adv-x="622" 
d="M84 0v729h501v-75h-436l20 20v-618l-20 20h437v-76h-502zM149 338v70h387v-70h-387zM272 798l-106 140h73l75 -99l74 99h74l-107 -140h-83z" />
    <glyph glyph-name="ecaron" unicode="&#x11b;" horiz-adv-x="574" 
d="M277 -9q-75 0 -128.5 33t-81.5 94t-28 142q0 83 28 144.5t80 95t127 33.5q80 0 132 -36t75.5 -100t17.5 -148h-381q1 -65 20.5 -108.5t55 -65t83.5 -21.5q56 0 92 26t48 69h78q-9 -50 -39.5 -85.5t-76.5 -54t-102 -18.5zM119 295l-9 12h319l-9 -14q1 63 -17 101.5
t-51.5 57t-77.5 18.5q-46 0 -80 -20t-53.5 -58.5t-21.5 -96.5zM248 594l-106 140h73l75 -99l74 99h74l-107 -140h-83z" />
    <glyph glyph-name="Gcircumflex" unicode="&#x11c;" horiz-adv-x="810" 
d="M394 -9q-78 0 -142 26t-110 75t-70.5 117t-24.5 152q0 86 25.5 155.5t73 118.5t114 75.5t147.5 26.5q89 0 158.5 -27.5t114.5 -79.5t58 -126h-88q-12 49 -45 84t-83 54.5t-115 19.5q-86 0 -146.5 -37.5t-92.5 -105t-32 -157.5q0 -68 18.5 -123t53.5 -94t85 -59.5
t112 -20.5q73 0 130 28t89 79t32 121v48l24 -23h-300v67h366v-385h-69l-5 151h-7q-16 -48 -56 -84t-95.5 -56t-119.5 -20zM259 798l106 140h83l107 -140h-73l-75 99l-75 -99h-73z" />
    <glyph glyph-name="gcircumflex" unicode="&#x11d;" horiz-adv-x="592" 
d="M276 -177q-59 0 -104 17.5t-72.5 50.5t-33.5 78h79q4 -26 22 -45t46 -29t65 -10q53 0 88.5 15.5t52 47t16.5 81.5v100h-4q-17 -50 -63.5 -80.5t-112.5 -30.5q-46 0 -84.5 17.5t-66.5 51t-43 81.5t-15 108q0 81 26.5 139t73.5 89t109 31q64 0 111 -30t65 -81h5l3 101h77
v-484q0 -76 -29 -124.5t-82.5 -71t-128.5 -22.5zM282 86q49 0 83.5 22t52 59t17.5 80v60q0 43 -18 79.5t-52 58.5t-81 22q-48 0 -83 -22.5t-53.5 -65.5t-18.5 -103q0 -59 18.5 -102t53 -65.5t81.5 -22.5zM150 594l106 140h83l107 -140h-73l-75 99l-75 -99h-73z" />
    <glyph glyph-name="Gbreve" unicode="&#x11e;" horiz-adv-x="810" 
d="M394 -9q-78 0 -142 26t-110 75t-70.5 117t-24.5 152q0 86 25.5 155.5t73 118.5t114 75.5t147.5 26.5q89 0 158.5 -27.5t114.5 -79.5t58 -126h-88q-12 49 -45 84t-83 54.5t-115 19.5q-86 0 -146.5 -37.5t-92.5 -105t-32 -157.5q0 -68 18.5 -123t53.5 -94t85 -59.5
t112 -20.5q73 0 130 28t89 79t32 121v48l24 -23h-300v67h366v-385h-69l-5 151h-7q-16 -48 -56 -84t-95.5 -56t-119.5 -20zM407 789q-45 0 -77 17t-48.5 49.5t-17.5 78.5h60q0 -47 21.5 -70.5t61.5 -23.5q39 0 60.5 23.5t21.5 70.5h60q-1 -70 -38 -107.5t-104 -37.5z" />
    <glyph glyph-name="gbreve" unicode="&#x11f;" horiz-adv-x="592" 
d="M276 -177q-59 0 -104 17.5t-72.5 50.5t-33.5 78h79q4 -26 22 -45t46 -29t65 -10q53 0 88.5 15.5t52 47t16.5 81.5v100h-4q-17 -50 -63.5 -80.5t-112.5 -30.5q-46 0 -84.5 17.5t-66.5 51t-43 81.5t-15 108q0 81 26.5 139t73.5 89t109 31q64 0 111 -30t65 -81h5l3 101h77
v-484q0 -76 -29 -124.5t-82.5 -71t-128.5 -22.5zM282 86q49 0 83.5 22t52 59t17.5 80v60q0 43 -18 79.5t-52 58.5t-81 22q-48 0 -83 -22.5t-53.5 -65.5t-18.5 -103q0 -59 18.5 -102t53 -65.5t81.5 -22.5zM298 585q-45 0 -77 17t-48.5 49.5t-17.5 78.5h60q0 -47 21.5 -70.5
t61.5 -23.5q39 0 60.5 23.5t21.5 70.5h60q-1 -70 -38 -107.5t-104 -37.5z" />
    <glyph glyph-name="Gdotaccent" unicode="&#x120;" horiz-adv-x="810" 
d="M394 -9q-78 0 -142 26t-110 75t-70.5 117t-24.5 152q0 86 25.5 155.5t73 118.5t114 75.5t147.5 26.5q89 0 158.5 -27.5t114.5 -79.5t58 -126h-88q-12 49 -45 84t-83 54.5t-115 19.5q-86 0 -146.5 -37.5t-92.5 -105t-32 -157.5q0 -68 18.5 -123t53.5 -94t85 -59.5
t112 -20.5q73 0 130 28t89 79t32 121v48l24 -23h-300v67h366v-385h-69l-5 151h-7q-16 -48 -56 -84t-95.5 -56t-119.5 -20zM407 819q-23 0 -37 12.5t-14 33.5t14 33t37 12q22 0 36 -12t14 -33t-14 -33.5t-36 -12.5z" />
    <glyph glyph-name="gdotaccent" unicode="&#x121;" horiz-adv-x="592" 
d="M276 -177q-59 0 -104 17.5t-72.5 50.5t-33.5 78h79q4 -26 22 -45t46 -29t65 -10q53 0 88.5 15.5t52 47t16.5 81.5v100h-4q-17 -50 -63.5 -80.5t-112.5 -30.5q-46 0 -84.5 17.5t-66.5 51t-43 81.5t-15 108q0 81 26.5 139t73.5 89t109 31q64 0 111 -30t65 -81h5l3 101h77
v-484q0 -76 -29 -124.5t-82.5 -71t-128.5 -22.5zM282 86q49 0 83.5 22t52 59t17.5 80v60q0 43 -18 79.5t-52 58.5t-81 22q-48 0 -83 -22.5t-53.5 -65.5t-18.5 -103q0 -59 18.5 -102t53 -65.5t81.5 -22.5zM298 615q-23 0 -37 12.5t-14 33.5t14 33t37 12q22 0 36 -12t14 -33
t-14 -33.5t-36 -12.5z" />
    <glyph glyph-name="uni0122" unicode="&#x122;" horiz-adv-x="810" 
d="M394 -9q-78 0 -142 26t-110 75t-70.5 117t-24.5 152q0 86 25.5 155.5t73 118.5t114 75.5t147.5 26.5q89 0 158.5 -27.5t114.5 -79.5t58 -126h-88q-12 49 -45 84t-83 54.5t-115 19.5q-86 0 -146.5 -37.5t-92.5 -105t-32 -157.5q0 -68 18.5 -123t53.5 -94t85 -59.5
t112 -20.5q73 0 130 28t89 79t32 121v48l24 -23h-300v67h366v-385h-69l-5 151h-7q-16 -48 -56 -84t-95.5 -56t-119.5 -20zM320 -200l45 143h78l-61 -143h-62z" />
    <glyph glyph-name="uni0123" unicode="&#x123;" horiz-adv-x="592" 
d="M276 -177q-59 0 -104 17.5t-72.5 50.5t-33.5 78h79q4 -26 22 -45t46 -29t65 -10q53 0 88.5 15.5t52 47t16.5 81.5v100h-4q-17 -50 -63.5 -80.5t-112.5 -30.5q-46 0 -84.5 17.5t-66.5 51t-43 81.5t-15 108q0 81 26.5 139t73.5 89t109 31q64 0 111 -30t65 -81h5l3 101h77
v-484q0 -76 -29 -124.5t-82.5 -71t-128.5 -22.5zM282 86q49 0 83.5 22t52 59t17.5 80v60q0 43 -18 79.5t-52 58.5t-81 22q-48 0 -83 -22.5t-53.5 -65.5t-18.5 -103q0 -59 18.5 -102t53 -65.5t81.5 -22.5zM265 594v34q0 50 24 85t62 60l32 -36q-25 -23 -39.5 -49t-14.5 -65
v-29h-64z" />
    <glyph glyph-name="Hcircumflex" unicode="&#x124;" horiz-adv-x="779" 
d="M84 0v729h85v-729h-85zM610 0v729h85v-729h-85zM144 339v75h491v-75h-491zM242 798l106 140h83l107 -140h-73l-75 99l-75 -99h-73z" />
    <glyph glyph-name="hcircumflex" unicode="&#x125;" horiz-adv-x="600" 
d="M76 0v729h80v-313h6q24 58 74 87.5t109 29.5q41 0 75.5 -12t60 -39t39.5 -69.5t14 -103.5v-309h-81v293q0 59 -14.5 97t-44 56.5t-75.5 18.5q-49 0 -86 -24t-57 -64.5t-20 -92.5v-284h-80zM-31 798l106 140h83l107 -140h-73l-75 99l-75 -99h-73z" />
    <glyph glyph-name="Hbar" unicode="&#x126;" horiz-adv-x="779" 
d="M84 0v729h85v-729h-85zM610 0v729h85v-729h-85zM144 339v75h491v-75h-491zM-5 561v64h790v-64h-790z" />
    <glyph glyph-name="hbar" unicode="&#x127;" horiz-adv-x="600" 
d="M76 0v729h80v-313h6q24 58 74 87.5t109 29.5q41 0 75.5 -12t60 -39t39.5 -69.5t14 -103.5v-309h-81v293q0 59 -14.5 97t-44 56.5t-75.5 18.5q-49 0 -86 -24t-57 -64.5t-20 -92.5v-284h-80zM-5 603v56h317v-56h-317z" />
    <glyph glyph-name="Itilde" unicode="&#x128;" horiz-adv-x="253" 
d="M84 0v729h85v-729h-85zM195 820q-31 0 -54 7.5t-42.5 14.5t-41.5 7q-20 0 -34.5 -7.5t-26.5 -23.5l-38 22q15 25 30 39.5t32.5 21t37.5 6.5q24 0 47 -7.5t46.5 -15t46.5 -7.5q17 0 33 7.5t28 24.5l39 -23q-13 -24 -29 -39t-34.5 -21t-39.5 -6z" />
    <glyph glyph-name="itilde" unicode="&#x129;" horiz-adv-x="233" 
d="M76 0v525h81v-525h-81zM185 616q-31 0 -54 7.5t-42.5 14.5t-41.5 7q-20 0 -34.5 -7.5t-26.5 -23.5l-38 22q15 25 30 39.5t32.5 21t37.5 6.5q24 0 47 -7.5t46.5 -15t46.5 -7.5q17 0 33 7.5t28 24.5l39 -23q-13 -24 -29 -39t-34.5 -21t-39.5 -6z" />
    <glyph glyph-name="Imacron" unicode="&#x12a;" horiz-adv-x="253" 
d="M84 0v729h85v-729h-85zM-45 822v63h343v-63h-343z" />
    <glyph glyph-name="imacron" unicode="&#x12b;" horiz-adv-x="233" 
d="M76 0v525h81v-525h-81zM-55 618v63h343v-63h-343z" />
    <glyph glyph-name="Ibreve" unicode="&#x12c;" horiz-adv-x="253" 
d="M84 0v729h85v-729h-85zM127 789q-45 0 -77 17t-48.5 49.5t-17.5 78.5h60q0 -47 21.5 -70.5t61.5 -23.5q39 0 60.5 23.5t21.5 70.5h60q-1 -70 -38 -107.5t-104 -37.5z" />
    <glyph glyph-name="ibreve" unicode="&#x12d;" horiz-adv-x="233" 
d="M76 0v525h81v-525h-81zM118 585q-45 0 -77 17t-48.5 49.5t-17.5 78.5h60q0 -47 21.5 -70.5t61.5 -23.5q39 0 60.5 23.5t21.5 70.5h60q-1 -70 -38 -107.5t-104 -37.5z" />
    <glyph glyph-name="Iogonek" unicode="&#x12e;" horiz-adv-x="253" 
d="M84 0v729h85v-729h-85zM113 -212q-46 0 -72.5 22.5t-26.5 61.5q0 26 12.5 51.5t37.5 49.5t59 44h37l9 -17q-37 -27 -60.5 -55.5t-23.5 -60.5q0 -24 14.5 -37t40.5 -13q11 0 22.5 2.5t20.5 6.5v-42q-12 -6 -31.5 -9.5t-38.5 -3.5z" />
    <glyph glyph-name="iogonek" unicode="&#x12f;" horiz-adv-x="233" 
d="M76 0v525h81v-525h-81zM118 615q-23 0 -37 12.5t-14 33.5t14 33t37 12q22 0 36 -12t14 -33t-14 -33.5t-36 -12.5zM101 -212q-46 0 -72.5 22.5t-26.5 61.5q0 26 12.5 51.5t37.5 49.5t59 44h37l9 -17q-37 -27 -60.5 -55.5t-23.5 -60.5q0 -24 14.5 -37t40.5 -13
q11 0 22.5 2.5t20.5 6.5v-42q-12 -6 -31.5 -9.5t-38.5 -3.5z" />
    <glyph glyph-name="Idotaccent" unicode="&#x130;" horiz-adv-x="253" 
d="M84 0v729h85v-729h-85zM127 819q-23 0 -37 12.5t-14 33.5t14 33t37 12q22 0 36 -12t14 -33t-14 -33.5t-36 -12.5z" />
    <glyph glyph-name="dotlessi" unicode="&#x131;" horiz-adv-x="233" 
d="M76 0v525h81v-525h-81z" />
    <glyph glyph-name="IJ" unicode="&#x132;" horiz-adv-x="649" 
d="M84 0v729h85v-729h-85zM279 0v70h94q63 0 87 30t24 92v537h85v-544q0 -61 -19 -102.5t-58.5 -62t-100.5 -20.5h-112z" />
    <glyph glyph-name="ij" unicode="&#x133;" horiz-adv-x="469" 
d="M76 0v525h81v-525h-81zM118 615q-23 0 -37 12.5t-14 33.5t14 33t37 12q22 0 36 -12t14 -33t-14 -33.5t-36 -12.5zM208 -167v62h44q33 0 46.5 15.5t13.5 52.5v562h81v-568q0 -38 -12 -66t-37.5 -43t-67.5 -15h-68zM353 615q-23 0 -37 12.5t-14 33.5t14 33t37 12
q22 0 36 -12t14 -33t-14 -33.5t-36 -12.5z" />
    <glyph glyph-name="Jcircumflex" unicode="&#x134;" horiz-adv-x="395" 
d="M26 0v70h94q63 0 87 30t24 92v537h85v-544q0 -61 -19 -102.5t-58.5 -62t-100.5 -20.5h-112zM126 798l106 140h83l107 -140h-73l-75 99l-75 -99h-73z" />
    <glyph glyph-name="jcircumflex" unicode="&#x135;" horiz-adv-x="233" 
d="M-28 -167v62h44q33 0 46.5 15.5t13.5 52.5v562h81v-568q0 -38 -12 -66t-37.5 -43t-67.5 -15h-68zM-31 594l106 140h83l107 -140h-73l-75 99l-75 -99h-73z" />
    <glyph glyph-name="uni0136" unicode="&#x136;" horiz-adv-x="677" 
d="M551 0l-249 364l-142 -149v103l381 411h105l-285 -303l292 -426h-102zM84 0v729h85v-729h-85zM249 -200l45 143h78l-61 -143h-62z" />
    <glyph glyph-name="uni0137" unicode="&#x137;" horiz-adv-x="552" 
d="M76 0v729h82v-472l47 50l216 218h102l-205 -203l214 -322h-95l-143 215l-32 52l-104 -101v-166h-82zM198 -200l45 143h78l-61 -143h-62z" />
    <glyph glyph-name="Lacute" unicode="&#x139;" horiz-adv-x="555" 
d="M84 0v729h85v-675l-20 24h379v-78h-444zM95 798l64 140h83l-84 -140h-63z" />
    <glyph glyph-name="lacute" unicode="&#x13a;" horiz-adv-x="233" 
d="M76 0v729h81v-729h-81zM86 798l64 140h83l-84 -140h-63z" />
    <glyph glyph-name="uni013B" unicode="&#x13b;" horiz-adv-x="555" 
d="M84 0v729h85v-675l-20 24h379v-78h-444zM180 -200l45 143h78l-61 -143h-62z" />
    <glyph glyph-name="uni013C" unicode="&#x13c;" horiz-adv-x="233" 
d="M76 0v729h81v-729h-81zM33 -200l45 143h78l-61 -143h-62z" />
    <glyph glyph-name="Lcaron" unicode="&#x13d;" horiz-adv-x="555" 
d="M290 545l59 184h73l-73 -184h-59zM84 0v729h85v-675l-20 24h379v-78h-444z" />
    <glyph glyph-name="lcaron" unicode="&#x13e;" horiz-adv-x="233" 
d="M204 545l59 184h73l-72 -184h-60zM76 0v729h81v-729h-81z" />
    <glyph glyph-name="Ldot" unicode="&#x13f;" horiz-adv-x="555" 
d="M84 0v729h85v-675l-20 24h379v-78h-444zM411 323q-25 0 -41.5 16.5t-16.5 40.5q0 25 16.5 41t41.5 16q27 0 42 -16t15 -41q0 -24 -15 -40.5t-42 -16.5z" />
    <glyph glyph-name="ldot" unicode="&#x140;" horiz-adv-x="340" 
d="M76 0v729h81v-729h-81zM287 291q-26 0 -42 16t-16 40q0 25 16 41t42 16q27 0 42 -16t15 -41q0 -24 -15 -40t-42 -16z" />
    <glyph glyph-name="Lslash" unicode="&#x141;" horiz-adv-x="586" 
d="M116 0v729h85v-675l-20 24h379v-78h-444zM29 217v75l336 148v-75z" />
    <glyph glyph-name="lslash" unicode="&#x142;" horiz-adv-x="269" 
d="M93 0v729h81v-729h-81zM27 268v71l214 121v-70z" />
    <glyph glyph-name="Nacute" unicode="&#x143;" horiz-adv-x="771" 
d="M84 0v729h109l411 -616h5l-4 247v369h82v-729h-105l-411 613h-5l4 -234v-379h-86zM354 798l64 140h83l-84 -140h-63z" />
    <glyph glyph-name="nacute" unicode="&#x144;" horiz-adv-x="600" 
d="M76 0v525h77l3 -109h6q24 58 74 87.5t109 29.5q41 0 75.5 -12t60 -39t39.5 -69.5t14 -103.5v-309h-81v293q0 59 -14.5 97t-44 56.5t-75.5 18.5q-49 0 -86 -24t-57 -64.5t-20 -92.5v-284h-80zM271 594l64 140h83l-84 -140h-63z" />
    <glyph glyph-name="uni0145" unicode="&#x145;" horiz-adv-x="771" 
d="M84 0v729h109l411 -616h5l-4 247v369h82v-729h-105l-411 613h-5l4 -234v-379h-86zM301 -200l45 143h78l-61 -143h-62z" />
    <glyph glyph-name="uni0146" unicode="&#x146;" horiz-adv-x="600" 
d="M76 0v525h77l3 -109h6q24 58 74 87.5t109 29.5q41 0 75.5 -12t60 -39t39.5 -69.5t14 -103.5v-309h-81v293q0 59 -14.5 97t-44 56.5t-75.5 18.5q-49 0 -86 -24t-57 -64.5t-20 -92.5v-284h-80zM218 -200l45 143h78l-61 -143h-62z" />
    <glyph glyph-name="Ncaron" unicode="&#x147;" horiz-adv-x="771" 
d="M84 0v729h109l411 -616h5l-4 247v369h82v-729h-105l-411 613h-5l4 -234v-379h-86zM344 798l-106 140h73l75 -99l74 99h74l-107 -140h-83z" />
    <glyph glyph-name="ncaron" unicode="&#x148;" horiz-adv-x="600" 
d="M76 0v525h77l3 -109h6q24 58 74 87.5t109 29.5q41 0 75.5 -12t60 -39t39.5 -69.5t14 -103.5v-309h-81v293q0 59 -14.5 97t-44 56.5t-75.5 18.5q-49 0 -86 -24t-57 -64.5t-20 -92.5v-284h-80zM261 594l-106 140h73l75 -99l74 99h74l-107 -140h-83z" />
    <glyph glyph-name="Eng" unicode="&#x14a;" horiz-adv-x="771" 
d="M84 0v729h109l411 -616h5l-4 247v369h82v-729h-105l-411 613h-5l4 -234v-379h-86zM502 -167v57h44q33 0 46.5 14.5t13.5 50.5v50h81v-56q0 -35 -12 -61.5t-37.5 -40.5t-67.5 -14h-68z" />
    <glyph glyph-name="eng" unicode="&#x14b;" horiz-adv-x="600" 
d="M349 -167v62h44q32 0 46 15.5t14 52.5v330q0 59 -14.5 97t-44 56.5t-75.5 18.5q-49 0 -86 -24t-57 -64.5t-20 -92.5v-284h-80v525h77l3 -109h6q24 58 74 87.5t109 29.5q41 0 75.5 -12t60 -39t39.5 -69.5t14 -103.5v-352q0 -38 -12.5 -66t-38 -43t-66.5 -15h-68z" />
    <glyph glyph-name="Omacron" unicode="&#x14c;" horiz-adv-x="807" 
d="M404 -9q-81 0 -146.5 26t-113 75t-72.5 118t-25 154q0 86 25.5 155t72.5 117.5t112.5 74.5t146.5 26t146 -26t112.5 -75t72.5 -117.5t25 -154.5t-25.5 -155t-72.5 -117.5t-112.5 -74.5t-145.5 -26zM404 66q82 0 142.5 36.5t93 103t32.5 158.5q0 70 -18.5 125t-54 93.5
t-84.5 59t-111 20.5q-83 0 -143 -36t-92.5 -102.5t-32.5 -159.5q0 -69 19 -124.5t53.5 -94t84 -59t111.5 -20.5zM232 822v63h343v-63h-343z" />
    <glyph glyph-name="omacron" unicode="&#x14d;" horiz-adv-x="594" 
d="M298 -9q-57 0 -103.5 19t-80 55t-52 85.5t-18.5 110.5q0 81 31 142t88.5 95.5t134.5 34.5q57 0 103.5 -18.5t79.5 -54.5t51 -86t18 -112q0 -80 -30.5 -141t-87.5 -95.5t-134 -34.5zM298 61q51 0 89 23.5t59.5 69t21.5 108.5q0 47 -12 84.5t-34 64t-53 40.5t-71 14
q-51 0 -89.5 -24.5t-60 -69.5t-21.5 -110q0 -46 11.5 -83.5t34 -63.5t54.5 -39.5t71 -13.5zM126 618v63h343v-63h-343z" />
    <glyph glyph-name="Ohungarumlaut" unicode="&#x150;" horiz-adv-x="807" 
d="M404 -9q-81 0 -146.5 26t-113 75t-72.5 118t-25 154q0 86 25.5 155t72.5 117.5t112.5 74.5t146.5 26t146 -26t112.5 -75t72.5 -117.5t25 -154.5t-25.5 -155t-72.5 -117.5t-112.5 -74.5t-145.5 -26zM404 66q82 0 142.5 36.5t93 103t32.5 158.5q0 70 -18.5 125t-54 93.5
t-84.5 59t-111 20.5q-83 0 -143 -36t-92.5 -102.5t-32.5 -159.5q0 -69 19 -124.5t53.5 -94t84 -59t111.5 -20.5zM297 798l63 140h80l-83 -140h-60zM452 798l75 140h84l-94 -140h-65z" />
    <glyph glyph-name="ohungarumlaut" unicode="&#x151;" horiz-adv-x="594" 
d="M298 -9q-57 0 -103.5 19t-80 55t-52 85.5t-18.5 110.5q0 81 31 142t88.5 95.5t134.5 34.5q57 0 103.5 -18.5t79.5 -54.5t51 -86t18 -112q0 -80 -30.5 -141t-87.5 -95.5t-134 -34.5zM298 61q51 0 89 23.5t59.5 69t21.5 108.5q0 47 -12 84.5t-34 64t-53 40.5t-71 14
q-51 0 -89.5 -24.5t-60 -69.5t-21.5 -110q0 -46 11.5 -83.5t34 -63.5t54.5 -39.5t71 -13.5zM190 594l63 140h80l-83 -140h-60zM345 594l75 140h84l-94 -140h-65z" />
    <glyph glyph-name="OE" unicode="&#x152;" horiz-adv-x="1060" 
d="M413 -10q-87 0 -155 26.5t-115 76t-71.5 118.5t-24.5 154q0 84 25 153t72 118.5t115 76t154 26.5q24 0 53 -2.5t56 -7.5h502v-75h-416v-246h367v-70h-367v-262h416v-76h-502q-27 -4 -56 -7t-53 -3zM419 65q28 0 55 3.5t49 8.5v575q-22 5 -49 8.5t-55 3.5
q-89 0 -152.5 -37t-97 -104t-33.5 -158t33.5 -158.5t97 -104.5t152.5 -37z" />
    <glyph glyph-name="oe" unicode="&#x153;" horiz-adv-x="999" 
d="M298 -9q-57 0 -103.5 19t-80 55t-52 85.5t-18.5 110.5q0 81 31 142t88.5 95.5t134.5 34.5q83 0 142 -40.5t86 -111.5l-32 -1q25 71 82.5 112t139.5 41q63 0 110 -21t76.5 -60t42 -91t6.5 -113h-411l1 56h361l-31 -22q4 63 -15 104.5t-55.5 62t-85.5 20.5t-86 -21.5
t-58 -62t-21 -97.5v-34q0 -62 21 -106.5t59 -68t89 -23.5q61 0 101 28.5t51 74.5h78q-7 -50 -39 -88t-81 -59t-110 -21q-83 0 -141 41t-83 111h31q-27 -70 -86 -111t-142 -41zM298 61q51 0 89 23.5t59.5 69t21.5 108.5q0 47 -12 84.5t-34 64t-53 40.5t-71 14
q-51 0 -89.5 -24.5t-60 -69.5t-21.5 -110q0 -46 11.5 -83.5t34 -63.5t54.5 -39.5t71 -13.5z" />
    <glyph glyph-name="Racute" unicode="&#x154;" horiz-adv-x="706" 
d="M84 0v729h335q43 0 78.5 -8t63.5 -24t47 -39.5t29 -54t10 -68.5q0 -67 -33.5 -113.5t-98.5 -64.5v-6q43 -7 68.5 -25.5t37 -48.5t11.5 -72v-128q0 -18 1.5 -37t10.5 -40h-86q-7 16 -9.5 35t-2.5 45v110q0 40 -11.5 66.5t-41.5 40t-85 13.5h-250v71h243q86 0 122.5 39.5
t36.5 101.5q0 35 -11 60.5t-32.5 42t-50.5 24t-65 7.5h-232v-656h-85zM304 798l64 140h83l-84 -140h-63z" />
    <glyph glyph-name="racute" unicode="&#x155;" horiz-adv-x="366" 
d="M76 0v525h72l5 -97h4q17 50 60 77t96 27q9 0 17 -0.5t15 -1.5v-77q-7 1 -15 1.5t-17 0.5q-46 0 -80 -17t-53.5 -48.5t-23.5 -76.5v-313h-80zM151 594l64 140h83l-84 -140h-63z" />
    <glyph glyph-name="uni0156" unicode="&#x156;" horiz-adv-x="706" 
d="M84 0v729h335q43 0 78.5 -8t63.5 -24t47 -39.5t29 -54t10 -68.5q0 -67 -33.5 -113.5t-98.5 -64.5v-6q43 -7 68.5 -25.5t37 -48.5t11.5 -72v-128q0 -18 1.5 -37t10.5 -40h-86q-7 16 -9.5 35t-2.5 45v110q0 40 -11.5 66.5t-41.5 40t-85 13.5h-250v71h243q86 0 122.5 39.5
t36.5 101.5q0 35 -11 60.5t-32.5 42t-50.5 24t-65 7.5h-232v-656h-85zM263 -200l45 143h78l-61 -143h-62z" />
    <glyph glyph-name="uni0157" unicode="&#x157;" horiz-adv-x="366" 
d="M76 0v525h72l5 -97h4q17 50 60 77t96 27q9 0 17 -0.5t15 -1.5v-77q-7 1 -15 1.5t-17 0.5q-46 0 -80 -17t-53.5 -48.5t-23.5 -76.5v-313h-80zM50 -200l45 143h78l-61 -143h-62z" />
    <glyph glyph-name="Rcaron" unicode="&#x158;" horiz-adv-x="706" 
d="M84 0v729h335q43 0 78.5 -8t63.5 -24t47 -39.5t29 -54t10 -68.5q0 -67 -33.5 -113.5t-98.5 -64.5v-6q43 -7 68.5 -25.5t37 -48.5t11.5 -72v-128q0 -18 1.5 -37t10.5 -40h-86q-7 16 -9.5 35t-2.5 45v110q0 40 -11.5 66.5t-41.5 40t-85 13.5h-250v71h243q86 0 122.5 39.5
t36.5 101.5q0 35 -11 60.5t-32.5 42t-50.5 24t-65 7.5h-232v-656h-85zM294 798l-106 140h73l75 -99l74 99h74l-107 -140h-83z" />
    <glyph glyph-name="rcaron" unicode="&#x159;" horiz-adv-x="366" 
d="M76 0v525h72l5 -97h4q17 50 60 77t96 27q9 0 17 -0.5t15 -1.5v-77q-7 1 -15 1.5t-17 0.5q-46 0 -80 -17t-53.5 -48.5t-23.5 -76.5v-313h-80zM141 594l-106 140h73l75 -99l74 99h74l-107 -140h-83z" />
    <glyph glyph-name="Sacute" unicode="&#x15a;" horiz-adv-x="647" 
d="M326 -9q-95 0 -157.5 30t-93.5 83.5t-32 122.5h88q1 -51 22.5 -89t64 -58t109.5 -20q57 0 99 14t65.5 43t23.5 74q0 35 -11 58.5t-35 39.5t-62.5 27.5t-94.5 20.5q-62 12 -109.5 27t-79 37.5t-47.5 55.5t-16 79q0 61 31 106.5t89 70t140 24.5q83 0 140.5 -26.5t88 -73.5
t31.5 -111h-87q-2 48 -24 80t-61 48t-92 16t-90.5 -15t-57.5 -42t-20 -66q0 -42 19.5 -66t64.5 -39t122 -28q49 -8 94 -21t80 -36t55.5 -61.5t20.5 -99.5t-32 -107t-94 -72t-152 -26zM286 798l64 140h83l-84 -140h-63z" />
    <glyph glyph-name="sacute" unicode="&#x15b;" horiz-adv-x="509" 
d="M255 -10q-49 0 -88 12t-67 33.5t-43 52t-16 67.5h80q2 -35 19.5 -58.5t48 -34.5t68.5 -11q61 0 93.5 23t32.5 65q0 32 -14 49.5t-43 27.5t-76 17q-65 9 -108 25t-65 45.5t-22 77.5q0 46 25 80.5t70 54t105 19.5q61 0 105 -19.5t69 -55t26 -84.5h-79q-2 35 -17.5 56.5
t-42 31t-62.5 9.5q-56 0 -87 -23t-31 -61q0 -29 15 -46.5t46.5 -27t79.5 -16.5q59 -8 101.5 -24t64.5 -46.5t22 -82.5q0 -50 -26 -84.5t-73.5 -53t-110.5 -18.5zM223 594l64 140h83l-84 -140h-63z" />
    <glyph glyph-name="Scircumflex" unicode="&#x15c;" horiz-adv-x="647" 
d="M326 -9q-95 0 -157.5 30t-93.5 83.5t-32 122.5h88q1 -51 22.5 -89t64 -58t109.5 -20q57 0 99 14t65.5 43t23.5 74q0 35 -11 58.5t-35 39.5t-62.5 27.5t-94.5 20.5q-62 12 -109.5 27t-79 37.5t-47.5 55.5t-16 79q0 61 31 106.5t89 70t140 24.5q83 0 140.5 -26.5t88 -73.5
t31.5 -111h-87q-2 48 -24 80t-61 48t-92 16t-90.5 -15t-57.5 -42t-20 -66q0 -42 19.5 -66t64.5 -39t122 -28q49 -8 94 -21t80 -36t55.5 -61.5t20.5 -99.5t-32 -107t-94 -72t-152 -26zM170 798l106 140h83l107 -140h-73l-75 99l-75 -99h-73z" />
    <glyph glyph-name="scircumflex" unicode="&#x15d;" horiz-adv-x="509" 
d="M255 -10q-49 0 -88 12t-67 33.5t-43 52t-16 67.5h80q2 -35 19.5 -58.5t48 -34.5t68.5 -11q61 0 93.5 23t32.5 65q0 32 -14 49.5t-43 27.5t-76 17q-65 9 -108 25t-65 45.5t-22 77.5q0 46 25 80.5t70 54t105 19.5q61 0 105 -19.5t69 -55t26 -84.5h-79q-2 35 -17.5 56.5
t-42 31t-62.5 9.5q-56 0 -87 -23t-31 -61q0 -29 15 -46.5t46.5 -27t79.5 -16.5q59 -8 101.5 -24t64.5 -46.5t22 -82.5q0 -50 -26 -84.5t-73.5 -53t-110.5 -18.5zM106 594l106 140h83l107 -140h-73l-75 99l-75 -99h-73z" />
    <glyph glyph-name="Scedilla" unicode="&#x15e;" horiz-adv-x="647" 
d="M326 -9q-95 0 -157.5 30t-93.5 83.5t-32 122.5h88q1 -51 22.5 -89t64 -58t109.5 -20q57 0 99 14t65.5 43t23.5 74q0 35 -11 58.5t-35 39.5t-62.5 27.5t-94.5 20.5q-62 12 -109.5 27t-79 37.5t-47.5 55.5t-16 79q0 61 31 106.5t89 70t140 24.5q83 0 140.5 -26.5t88 -73.5
t31.5 -111h-87q-2 48 -24 80t-61 48t-92 16t-90.5 -15t-57.5 -42t-20 -66q0 -42 19.5 -66t64.5 -39t122 -28q49 -8 94 -21t80 -36t55.5 -61.5t20.5 -99.5t-32 -107t-94 -72t-152 -26zM319 -241q-43 0 -75 19.5t-42 57.5l56 15q6 -19 20.5 -30t37.5 -12q27 0 41.5 14t14.5 36
q0 25 -21 39t-68 23l-11 22l39 71h45l-25 -61q48 -12 75 -37.5t27 -64.5q0 -42 -31.5 -67.5t-82.5 -24.5z" />
    <glyph glyph-name="scedilla" unicode="&#x15f;" horiz-adv-x="509" 
d="M255 -10q-49 0 -88 12t-67 33.5t-43 52t-16 67.5h80q2 -35 19.5 -58.5t48 -34.5t68.5 -11q61 0 93.5 23t32.5 65q0 32 -14 49.5t-43 27.5t-76 17q-65 9 -108 25t-65 45.5t-22 77.5q0 46 25 80.5t70 54t105 19.5q61 0 105 -19.5t69 -55t26 -84.5h-79q-2 35 -17.5 56.5
t-42 31t-62.5 9.5q-56 0 -87 -23t-31 -61q0 -29 15 -46.5t46.5 -27t79.5 -16.5q59 -8 101.5 -24t64.5 -46.5t22 -82.5q0 -50 -26 -84.5t-73.5 -53t-110.5 -18.5zM246 -241q-43 0 -75 19.5t-42 57.5l56 15q6 -19 20.5 -30t37.5 -12q27 0 41.5 14t14.5 36q0 25 -21 39t-68 23
l-11 22l39 71h45l-25 -61q48 -12 75 -37.5t27 -64.5q0 -42 -31.5 -67.5t-82.5 -24.5z" />
    <glyph glyph-name="Scaron" unicode="&#x160;" horiz-adv-x="647" 
d="M326 -9q-95 0 -157.5 30t-93.5 83.5t-32 122.5h88q1 -51 22.5 -89t64 -58t109.5 -20q57 0 99 14t65.5 43t23.5 74q0 35 -11 58.5t-35 39.5t-62.5 27.5t-94.5 20.5q-62 12 -109.5 27t-79 37.5t-47.5 55.5t-16 79q0 61 31 106.5t89 70t140 24.5q83 0 140.5 -26.5t88 -73.5
t31.5 -111h-87q-2 48 -24 80t-61 48t-92 16t-90.5 -15t-57.5 -42t-20 -66q0 -42 19.5 -66t64.5 -39t122 -28q49 -8 94 -21t80 -36t55.5 -61.5t20.5 -99.5t-32 -107t-94 -72t-152 -26zM276 798l-106 140h73l75 -99l74 99h74l-107 -140h-83z" />
    <glyph glyph-name="scaron" unicode="&#x161;" horiz-adv-x="509" 
d="M255 -10q-49 0 -88 12t-67 33.5t-43 52t-16 67.5h80q2 -35 19.5 -58.5t48 -34.5t68.5 -11q61 0 93.5 23t32.5 65q0 32 -14 49.5t-43 27.5t-76 17q-65 9 -108 25t-65 45.5t-22 77.5q0 46 25 80.5t70 54t105 19.5q61 0 105 -19.5t69 -55t26 -84.5h-79q-2 35 -17.5 56.5
t-42 31t-62.5 9.5q-56 0 -87 -23t-31 -61q0 -29 15 -46.5t46.5 -27t79.5 -16.5q59 -8 101.5 -24t64.5 -46.5t22 -82.5q0 -50 -26 -84.5t-73.5 -53t-110.5 -18.5zM212 594l-106 140h73l75 -99l74 99h74l-107 -140h-83z" />
    <glyph glyph-name="uni0162" unicode="&#x162;" horiz-adv-x="610" 
d="M299 -241q-43 0 -76 19t-43 58l56 15q6 -20 21 -31t39 -11q26 0 40 14t14 36q0 25 -21 39t-70 23l-13 25l44 70l43 -9l-26 -53q50 -12 77 -38t27 -65q0 -42 -31 -67t-81 -25zM262 0v665h85v-665h-85zM26 654v75h559v-75h-559z" />
    <glyph glyph-name="uni0163" unicode="&#x163;" horiz-adv-x="359" 
d="M235 0q-55 0 -83.5 26.5t-28.5 86.5v345h-102v67h102v157l80 11v-168h122v-67h-121v-332q0 -30 14 -43.5t41 -13.5h68v-69h-92zM227 -241q-43 0 -75 19.5t-42 57.5l56 15q6 -19 20.5 -30t37.5 -12q27 0 41.5 14t14.5 36q0 25 -21 39t-68 23l-11 22l39 71h45l-25 -61
q48 -12 75 -37.5t27 -64.5q0 -42 -31.5 -67.5t-82.5 -24.5z" />
    <glyph glyph-name="Tcaron" unicode="&#x164;" horiz-adv-x="610" 
d="M262 0v665h85v-665h-85zM26 654v75h559v-75h-559zM264 798l-106 140h73l75 -99l74 99h74l-107 -140h-83z" />
    <glyph glyph-name="tcaron" unicode="&#x165;" horiz-adv-x="359" 
d="M263 588l59 184h73l-72 -184h-60zM235 0q-55 0 -83.5 26.5t-28.5 86.5v345h-102v67h102v157l80 11v-168h122v-67h-121v-332q0 -30 14 -43.5t41 -13.5h68v-69h-92z" />
    <glyph glyph-name="Tbar" unicode="&#x166;" horiz-adv-x="610" 
d="M106 317v72h397v-72h-397zM262 0v665h85v-665h-85zM26 654v75h559v-75h-559z" />
    <glyph glyph-name="tbar" unicode="&#x167;" horiz-adv-x="389" 
d="M36 230v65h304v-65h-304zM250 0q-55 0 -83.5 26.5t-28.5 86.5v345h-102v67h102v157l80 11v-168h122v-67h-121v-332q0 -30 14 -43.5t42 -13.5h67v-69h-92z" />
    <glyph glyph-name="Utilde" unicode="&#x168;" horiz-adv-x="728" 
d="M364 -9q-91 0 -156.5 33.5t-100.5 95t-35 147.5v462h85v-460q0 -67 25 -111.5t72 -66.5t111 -22q70 0 116 24.5t68.5 69.5t22.5 106v460h84v-462q0 -84 -34.5 -146t-99.5 -96t-158 -34zM433 820q-31 0 -54 7.5t-42.5 14.5t-41.5 7q-20 0 -34.5 -7.5t-26.5 -23.5l-38 22
q15 25 30 39.5t32.5 21t37.5 6.5q24 0 47 -7.5t46.5 -15t46.5 -7.5q17 0 33 7.5t28 24.5l39 -23q-13 -24 -29 -39t-34.5 -21t-39.5 -6z" />
    <glyph glyph-name="utilde" unicode="&#x169;" horiz-adv-x="601" 
d="M257 -9q-59 0 -102 23.5t-65.5 71t-22.5 117.5v322h81v-302q0 -52 14 -88.5t44.5 -55.5t78.5 -19q47 0 83 23t56 65t20 97v280h81v-525h-77l-4 112h-6q-20 -56 -69 -88.5t-112 -32.5zM364 616q-31 0 -54 7.5t-42.5 14.5t-41.5 7q-20 0 -34.5 -7.5t-26.5 -23.5l-38 22
q15 25 30 39.5t32.5 21t37.5 6.5q24 0 47 -7.5t46.5 -15t46.5 -7.5q17 0 33 7.5t28 24.5l39 -23q-13 -24 -29 -39t-34.5 -21t-39.5 -6z" />
    <glyph glyph-name="Umacron" unicode="&#x16a;" horiz-adv-x="728" 
d="M364 -9q-91 0 -156.5 33.5t-100.5 95t-35 147.5v462h85v-460q0 -67 25 -111.5t72 -66.5t111 -22q70 0 116 24.5t68.5 69.5t22.5 106v460h84v-462q0 -84 -34.5 -146t-99.5 -96t-158 -34zM193 822v63h343v-63h-343z" />
    <glyph glyph-name="umacron" unicode="&#x16b;" horiz-adv-x="601" 
d="M257 -9q-59 0 -102 23.5t-65.5 71t-22.5 117.5v322h81v-302q0 -52 14 -88.5t44.5 -55.5t78.5 -19q47 0 83 23t56 65t20 97v280h81v-525h-77l-4 112h-6q-20 -56 -69 -88.5t-112 -32.5zM124 618v63h343v-63h-343z" />
    <glyph glyph-name="Ubreve" unicode="&#x16c;" horiz-adv-x="728" 
d="M364 -9q-91 0 -156.5 33.5t-100.5 95t-35 147.5v462h85v-460q0 -67 25 -111.5t72 -66.5t111 -22q70 0 116 24.5t68.5 69.5t22.5 106v460h84v-462q0 -84 -34.5 -146t-99.5 -96t-158 -34zM365 789q-45 0 -77 17t-48.5 49.5t-17.5 78.5h60q0 -47 21.5 -70.5t61.5 -23.5
q39 0 60.5 23.5t21.5 70.5h60q-1 -70 -38 -107.5t-104 -37.5z" />
    <glyph glyph-name="ubreve" unicode="&#x16d;" horiz-adv-x="601" 
d="M257 -9q-59 0 -102 23.5t-65.5 71t-22.5 117.5v322h81v-302q0 -52 14 -88.5t44.5 -55.5t78.5 -19q47 0 83 23t56 65t20 97v280h81v-525h-77l-4 112h-6q-20 -56 -69 -88.5t-112 -32.5zM296 585q-45 0 -77 17t-48.5 49.5t-17.5 78.5h60q0 -47 21.5 -70.5t61.5 -23.5
q39 0 60.5 23.5t21.5 70.5h60q-1 -70 -38 -107.5t-104 -37.5z" />
    <glyph glyph-name="Uring" unicode="&#x16e;" horiz-adv-x="728" 
d="M364 -9q-91 0 -156.5 33.5t-100.5 95t-35 147.5v462h85v-460q0 -67 25 -111.5t72 -66.5t111 -22q70 0 116 24.5t68.5 69.5t22.5 106v460h84v-462q0 -84 -34.5 -146t-99.5 -96t-158 -34zM364 777q-46 0 -74.5 26.5t-28.5 70.5t28.5 70.5t74.5 26.5t75 -26.5t29 -70.5
t-29 -70.5t-75 -26.5zM364 820q25 0 39.5 15t14.5 39t-14.5 38.5t-39.5 14.5q-24 0 -39 -14.5t-15 -38.5t15 -39t39 -15z" />
    <glyph glyph-name="uring" unicode="&#x16f;" horiz-adv-x="601" 
d="M257 -9q-59 0 -102 23.5t-65.5 71t-22.5 117.5v322h81v-302q0 -52 14 -88.5t44.5 -55.5t78.5 -19q47 0 83 23t56 65t20 97v280h81v-525h-77l-4 112h-6q-20 -56 -69 -88.5t-112 -32.5zM296 573q-46 0 -74.5 26.5t-28.5 70.5t28.5 70.5t74.5 26.5t75 -26.5t29 -70.5
t-29 -70.5t-75 -26.5zM296 616q25 0 39.5 15t14.5 39t-14.5 38.5t-39.5 14.5q-24 0 -39 -14.5t-15 -38.5t15 -39t39 -15z" />
    <glyph glyph-name="Uhungarumlaut" unicode="&#x170;" horiz-adv-x="728" 
d="M364 -9q-91 0 -156.5 33.5t-100.5 95t-35 147.5v462h85v-460q0 -67 25 -111.5t72 -66.5t111 -22q70 0 116 24.5t68.5 69.5t22.5 106v460h84v-462q0 -84 -34.5 -146t-99.5 -96t-158 -34zM257 798l63 140h80l-83 -140h-60zM412 798l75 140h84l-94 -140h-65z" />
    <glyph glyph-name="uhungarumlaut" unicode="&#x171;" horiz-adv-x="601" 
d="M257 -9q-59 0 -102 23.5t-65.5 71t-22.5 117.5v322h81v-302q0 -52 14 -88.5t44.5 -55.5t78.5 -19q47 0 83 23t56 65t20 97v280h81v-525h-77l-4 112h-6q-20 -56 -69 -88.5t-112 -32.5zM189 594l63 140h80l-83 -140h-60zM344 594l75 140h84l-94 -140h-65z" />
    <glyph glyph-name="Uogonek" unicode="&#x172;" horiz-adv-x="728" 
d="M434 -199q-47 0 -74 21.5t-27 60.5q0 38 23.5 68t61 54.5t78.5 47.5l19 -17q-32 -25 -59.5 -47.5t-44 -44.5t-16.5 -48q0 -51 60 -51q9 0 21.5 2t23.5 6v-42q-10 -5 -28 -7.5t-38 -2.5zM364 -9q-91 0 -156.5 33.5t-100.5 95t-35 147.5v462h85v-460q0 -67 25 -111.5
t72 -66.5t111 -22q70 0 116 24.5t68.5 69.5t22.5 106v460h84v-462q0 -84 -34.5 -146t-99.5 -96t-158 -34z" />
    <glyph glyph-name="uogonek" unicode="&#x173;" horiz-adv-x="601" 
d="M257 -9q-59 0 -102 23.5t-65.5 71t-22.5 117.5v322h81v-302q0 -52 14 -88.5t44.5 -55.5t78.5 -19q47 0 83 23t56 65t20 97v280h81v-525h-77l-4 112h-6q-20 -56 -69 -88.5t-112 -32.5zM468 -212q-46 0 -72.5 22.5t-26.5 61.5q0 26 12.5 51.5t37.5 49.5t59 44h37l9 -17
q-37 -27 -60.5 -55.5t-23.5 -60.5q0 -24 14.5 -37t40.5 -13q11 0 22.5 2.5t20.5 6.5v-42q-12 -6 -31.5 -9.5t-38.5 -3.5z" />
    <glyph glyph-name="Wcircumflex" unicode="&#x174;" horiz-adv-x="979" 
d="M212 0l-183 729h93l106 -442l43 -209h7l46 209l111 442h110l110 -436l48 -215h7l43 215l104 436h93l-183 -729h-120l-103 409l-51 228h-6l-52 -228l-103 -409h-120zM342 798l106 140h83l107 -140h-73l-75 99l-75 -99h-73z" />
    <glyph glyph-name="wcircumflex" unicode="&#x175;" horiz-adv-x="763" 
d="M145 0l-136 525h81l78 -311l32 -142h6l29 142l71 311h98l75 -311l31 -143h5l31 143l77 311h78l-135 -525h-107l-73 295l-30 139h-5l-28 -139l-68 -295h-110zM234 594l106 140h83l107 -140h-73l-75 99l-75 -99h-73z" />
    <glyph glyph-name="Ycircumflex" unicode="&#x176;" horiz-adv-x="670" 
d="M292 0v291l-270 438h98l122 -205l89 -156h6l91 156l123 205h97l-271 -438v-291h-85zM188 798l106 140h83l107 -140h-73l-75 99l-75 -99h-73z" />
    <glyph glyph-name="ycircumflex" unicode="&#x177;" horiz-adv-x="523" 
d="M56 -167v67h53q24 0 41 7t29.5 21t20.5 36l35 89v-34l-215 506h89l109 -286l47 -125h5l43 125l103 286h87l-227 -581q-15 -40 -36 -64.5t-50 -35.5t-69 -11h-65zM114 594l106 140h83l107 -140h-73l-75 99l-75 -99h-73z" />
    <glyph glyph-name="Ydieresis" unicode="&#x178;" horiz-adv-x="670" 
d="M292 0v291l-270 438h98l122 -205l89 -156h6l91 156l123 205h97l-271 -438v-291h-85zM433 821q-21 0 -34.5 12t-13.5 32t13.5 31.5t34.5 11.5t34.5 -11.5t13.5 -31.5t-13.5 -32t-34.5 -12zM239 821q-21 0 -34.5 12t-13.5 32t13.5 31.5t34.5 11.5t34.5 -11.5t13.5 -31.5
t-13.5 -32t-34.5 -12z" />
    <glyph glyph-name="Zacute" unicode="&#x179;" horiz-adv-x="625" 
d="M33 0v70l439 584h-423v75h531v-70l-440 -583h451v-76h-558zM280 798l64 140h83l-84 -140h-63z" />
    <glyph glyph-name="zacute" unicode="&#x17a;" horiz-adv-x="501" 
d="M29 0v60l330 398h-317v67h418v-60l-329 -398h340v-67h-442zM219 594l64 140h83l-84 -140h-63z" />
    <glyph glyph-name="Zdotaccent" unicode="&#x17b;" horiz-adv-x="625" 
d="M33 0v70l439 584h-423v75h531v-70l-440 -583h451v-76h-558zM312 819q-23 0 -37 12.5t-14 33.5t14 33t37 12q22 0 36 -12t14 -33t-14 -33.5t-36 -12.5z" />
    <glyph glyph-name="zdotaccent" unicode="&#x17c;" horiz-adv-x="501" 
d="M29 0v60l330 398h-317v67h418v-60l-329 -398h340v-67h-442zM251 615q-23 0 -37 12.5t-14 33.5t14 33t37 12q22 0 36 -12t14 -33t-14 -33.5t-36 -12.5z" />
    <glyph glyph-name="Zcaron" unicode="&#x17d;" horiz-adv-x="625" 
d="M33 0v70l439 584h-423v75h531v-70l-440 -583h451v-76h-558zM270 798l-106 140h73l75 -99l74 99h74l-107 -140h-83z" />
    <glyph glyph-name="zcaron" unicode="&#x17e;" horiz-adv-x="501" 
d="M29 0v60l330 398h-317v67h418v-60l-329 -398h340v-67h-442zM208 594l-106 140h73l75 -99l74 99h74l-107 -140h-83z" />
    <glyph glyph-name="florin" unicode="&#x192;" horiz-adv-x="425" 
d="M41 -167v65h34q51 0 74 22.5t23 75.5v573q0 81 43 120.5t119 39.5h51v-65h-34q-51 0 -74.5 -22t-23.5 -76v-573q0 -81 -42.5 -120.5t-118.5 -39.5h-51zM77 366v64h275v-64h-275z" />
    <glyph glyph-name="Ohorn" unicode="&#x1a0;" horiz-adv-x="807" 
d="M404 -9q-81 0 -146.5 26t-113 75t-72.5 118t-25 154q0 86 25.5 155t72.5 117.5t112.5 74.5t146.5 26t146 -26t112.5 -75t72.5 -117.5t25 -154.5t-25.5 -155t-72.5 -117.5t-112.5 -74.5t-145.5 -26zM404 66q82 0 142.5 36.5t93 103t32.5 158.5q0 70 -18.5 125t-54 93.5
t-84.5 59t-111 20.5q-83 0 -143 -36t-92.5 -102.5t-32.5 -159.5q0 -69 19 -124.5t53.5 -94t84 -59t111.5 -20.5zM568 652v50q38 -1 61 11t32 38t4 67h66q7 -56 -9.5 -94t-55 -56t-98.5 -16z" />
    <glyph glyph-name="ohorn" unicode="&#x1a1;" horiz-adv-x="596" 
d="M298 -9q-57 0 -103.5 19t-80 55t-52 85.5t-18.5 110.5q0 81 31 142t88.5 95.5t134.5 34.5q57 0 103.5 -18.5t79.5 -54.5t51 -86t18 -112q0 -80 -30.5 -141t-87.5 -95.5t-134 -34.5zM298 61q51 0 89 23.5t59.5 69t21.5 108.5q0 47 -12 84.5t-34 64t-53 40.5t-71 14
q-51 0 -89.5 -24.5t-60 -69.5t-21.5 -110q0 -46 11.5 -83.5t34 -63.5t54.5 -39.5t71 -13.5zM381 462v50q38 -1 61 11t32 38t4 67h66q7 -56 -9.5 -94t-55 -56t-98.5 -16z" />
    <glyph glyph-name="Uhorn" unicode="&#x1af;" horiz-adv-x="728" 
d="M364 -9q-91 0 -156.5 33.5t-100.5 95t-35 147.5v462h85v-460q0 -67 25 -111.5t72 -66.5t111 -22q70 0 116 24.5t68.5 69.5t22.5 106v460h84v-462q0 -84 -34.5 -146t-99.5 -96t-158 -34zM582 679v50q38 -1 61 11t32 38t4 67h66q7 -56 -9.5 -94t-55 -56t-98.5 -16z" />
    <glyph glyph-name="uhorn" unicode="&#x1b0;" horiz-adv-x="630" 
d="M257 -9q-59 0 -102 23.5t-65.5 71t-22.5 117.5v322h81v-302q0 -52 14 -88.5t44.5 -55.5t78.5 -19q47 0 83 23t56 65t20 97v280h81v-525h-77l-4 112h-6q-20 -56 -69 -88.5t-112 -32.5zM452 475v50q38 -1 61 11t32 38t4 67h66q7 -56 -9.5 -94t-55 -56t-98.5 -16z" />
    <glyph glyph-name="Gcaron" unicode="&#x1e6;" horiz-adv-x="810" 
d="M394 -9q-78 0 -142 26t-110 75t-70.5 117t-24.5 152q0 86 25.5 155.5t73 118.5t114 75.5t147.5 26.5q89 0 158.5 -27.5t114.5 -79.5t58 -126h-88q-12 49 -45 84t-83 54.5t-115 19.5q-86 0 -146.5 -37.5t-92.5 -105t-32 -157.5q0 -68 18.5 -123t53.5 -94t85 -59.5
t112 -20.5q73 0 130 28t89 79t32 121v48l24 -23h-300v67h366v-385h-69l-5 151h-7q-16 -48 -56 -84t-95.5 -56t-119.5 -20zM365 798l-106 140h73l75 -99l74 99h74l-107 -140h-83z" />
    <glyph glyph-name="gcaron" unicode="&#x1e7;" horiz-adv-x="592" 
d="M276 -177q-59 0 -104 17.5t-72.5 50.5t-33.5 78h79q4 -26 22 -45t46 -29t65 -10q53 0 88.5 15.5t52 47t16.5 81.5v100h-4q-17 -50 -63.5 -80.5t-112.5 -30.5q-46 0 -84.5 17.5t-66.5 51t-43 81.5t-15 108q0 81 26.5 139t73.5 89t109 31q64 0 111 -30t65 -81h5l3 101h77
v-484q0 -76 -29 -124.5t-82.5 -71t-128.5 -22.5zM282 86q49 0 83.5 22t52 59t17.5 80v60q0 43 -18 79.5t-52 58.5t-81 22q-48 0 -83 -22.5t-53.5 -65.5t-18.5 -103q0 -59 18.5 -102t53 -65.5t81.5 -22.5zM256 594l-106 140h73l75 -99l74 99h74l-107 -140h-83z" />
    <glyph glyph-name="uni0218" unicode="&#x218;" horiz-adv-x="647" 
d="M326 -9q-95 0 -157.5 30t-93.5 83.5t-32 122.5h88q1 -51 22.5 -89t64 -58t109.5 -20q57 0 99 14t65.5 43t23.5 74q0 35 -11 58.5t-35 39.5t-62.5 27.5t-94.5 20.5q-62 12 -109.5 27t-79 37.5t-47.5 55.5t-16 79q0 61 31 106.5t89 70t140 24.5q83 0 140.5 -26.5t88 -73.5
t31.5 -111h-87q-2 48 -24 80t-61 48t-92 16t-90.5 -15t-57.5 -42t-20 -66q0 -42 19.5 -66t64.5 -39t122 -28q49 -8 94 -21t80 -36t55.5 -61.5t20.5 -99.5t-32 -107t-94 -72t-152 -26zM242 -200l45 143h78l-61 -143h-62z" />
    <glyph glyph-name="uni0219" unicode="&#x219;" horiz-adv-x="509" 
d="M255 -10q-49 0 -88 12t-67 33.5t-43 52t-16 67.5h80q2 -35 19.5 -58.5t48 -34.5t68.5 -11q61 0 93.5 23t32.5 65q0 32 -14 49.5t-43 27.5t-76 17q-65 9 -108 25t-65 45.5t-22 77.5q0 46 25 80.5t70 54t105 19.5q61 0 105 -19.5t69 -55t26 -84.5h-79q-2 35 -17.5 56.5
t-42 31t-62.5 9.5q-56 0 -87 -23t-31 -61q0 -29 15 -46.5t46.5 -27t79.5 -16.5q59 -8 101.5 -24t64.5 -46.5t22 -82.5q0 -50 -26 -84.5t-73.5 -53t-110.5 -18.5zM170 -200l45 143h78l-61 -143h-62z" />
    <glyph glyph-name="uni021A" unicode="&#x21a;" horiz-adv-x="610" 
d="M262 0v665h85v-665h-85zM26 654v75h559v-75h-559zM221 -200l45 143h78l-61 -143h-62z" />
    <glyph glyph-name="uni021B" unicode="&#x21b;" horiz-adv-x="359" 
d="M235 0q-55 0 -83.5 26.5t-28.5 86.5v345h-102v67h102v157l80 11v-168h122v-67h-121v-332q0 -30 14 -43.5t41 -13.5h68v-69h-92zM151 -200l45 143h78l-61 -143h-62z" />
    <glyph glyph-name="uni0237" unicode="&#x237;" horiz-adv-x="233" 
d="M-28 -167v62h44q33 0 46.5 15.5t13.5 52.5v562h81v-568q0 -38 -12 -66t-37.5 -43t-67.5 -15h-68z" />
    <glyph glyph-name="circumflex" unicode="&#x2c6;" horiz-adv-x="376" 
d="M40 743l106 140h83l107 -140h-73l-75 99l-75 -99h-73z" />
    <glyph glyph-name="caron" unicode="&#x2c7;" horiz-adv-x="376" 
d="M146 743l-106 140h73l75 -99l74 99h74l-107 -140h-83z" />
    <glyph glyph-name="breve" unicode="&#x2d8;" horiz-adv-x="365" 
d="M183 738q-45 0 -77 17t-48.5 49.5t-17.5 78.5h60q0 -47 21.5 -70.5t61.5 -23.5q39 0 60.5 23.5t21.5 70.5h60q-1 -70 -38 -107.5t-104 -37.5z" />
    <glyph glyph-name="dotaccent" unicode="&#x2d9;" horiz-adv-x="181" 
d="M91 764q-23 0 -37 12.5t-14 33.5t14 33t37 12q22 0 36 -12t14 -33t-14 -33.5t-36 -12.5z" />
    <glyph glyph-name="ring" unicode="&#x2da;" horiz-adv-x="287" 
d="M143 722q-46 0 -74.5 26.5t-28.5 70.5t28.5 70.5t74.5 26.5t75 -26.5t29 -70.5t-29 -70.5t-75 -26.5zM143 765q25 0 39.5 15t14.5 39t-14.5 38.5t-39.5 14.5q-24 0 -39 -14.5t-15 -38.5t15 -39t39 -15z" />
    <glyph glyph-name="ogonek" unicode="&#x2db;" horiz-adv-x="249" 
d="M139 -212q-46 0 -72.5 22.5t-26.5 61.5q0 26 12.5 51.5t37.5 49.5t59 44h37l9 -17q-37 -27 -60.5 -55.5t-23.5 -60.5q0 -24 14.5 -37t40.5 -13q11 0 22.5 2.5t20.5 6.5v-42q-12 -6 -31.5 -9.5t-38.5 -3.5z" />
    <glyph glyph-name="tilde" unicode="&#x2dc;" horiz-adv-x="420" 
d="M277 765q-31 0 -54 7.5t-42.5 14.5t-41.5 7q-20 0 -34.5 -7.5t-26.5 -23.5l-38 22q15 25 30 39.5t32.5 21t37.5 6.5q24 0 47 -7.5t46.5 -15t46.5 -7.5q17 0 33 7.5t28 24.5l39 -23q-13 -24 -29 -39t-34.5 -21t-39.5 -6z" />
    <glyph glyph-name="hungarumlaut" unicode="&#x2dd;" horiz-adv-x="394" 
d="M40 743l63 140h80l-83 -140h-60zM195 743l75 140h84l-94 -140h-65z" />
    <glyph glyph-name="gravecomb" unicode="&#x300;" 
d="M123 743l-83 140h83l64 -140h-64z" />
    <glyph glyph-name="acutecomb" unicode="&#x301;" 
d="M40 743l64 140h83l-84 -140h-63z" />
    <glyph glyph-name="uni0302" unicode="&#x302;" 
d="M40 743l106 140h83l107 -140h-73l-75 99l-75 -99h-73z" />
    <glyph glyph-name="tildecomb" unicode="&#x303;" 
d="M277 765q-31 0 -54 7.5t-42.5 14.5t-41.5 7q-20 0 -34.5 -7.5t-26.5 -23.5l-38 22q15 25 30 39.5t32.5 21t37.5 6.5q24 0 47 -7.5t46.5 -15t46.5 -7.5q17 0 33 7.5t28 24.5l39 -23q-13 -24 -29 -39t-34.5 -21t-39.5 -6z" />
    <glyph glyph-name="uni0304" unicode="&#x304;" 
d="M40 767v63h343v-63h-343z" />
    <glyph glyph-name="uni0306" unicode="&#x306;" 
d="M183 738q-45 0 -77 17t-48.5 49.5t-17.5 78.5h60q0 -47 21.5 -70.5t61.5 -23.5q39 0 60.5 23.5t21.5 70.5h60q-1 -70 -38 -107.5t-104 -37.5z" />
    <glyph glyph-name="uni0307" unicode="&#x307;" 
d="M91 764q-23 0 -37 12.5t-14 33.5t14 33t37 12q22 0 36 -12t14 -33t-14 -33.5t-36 -12.5z" />
    <glyph glyph-name="uni0308" unicode="&#x308;" 
d="M282 766q-21 0 -34.5 12t-13.5 32t13.5 31.5t34.5 11.5t34.5 -11.5t13.5 -31.5t-13.5 -32t-34.5 -12zM88 766q-21 0 -34.5 12t-13.5 32t13.5 31.5t34.5 11.5t34.5 -11.5t13.5 -31.5t-13.5 -32t-34.5 -12z" />
    <glyph glyph-name="hookabovecomb" unicode="&#x309;" 
d="M90 727l-25 42q40 18 57.5 35.5t17.5 39.5q0 19 -14 29.5t-39 10.5q-12 0 -23.5 -1.5t-22.5 -5.5l-1 46q16 5 32 7.5t33 2.5q34 0 57.5 -10.5t36.5 -29t13 -42.5q0 -39 -29 -69t-93 -55z" />
    <glyph glyph-name="uni030A" unicode="&#x30a;" 
d="M143 722q-46 0 -74.5 26.5t-28.5 70.5t28.5 70.5t74.5 26.5t75 -26.5t29 -70.5t-29 -70.5t-75 -26.5zM143 765q25 0 39.5 15t14.5 39t-14.5 38.5t-39.5 14.5q-24 0 -39 -14.5t-15 -38.5t15 -39t39 -15z" />
    <glyph glyph-name="uni030B" unicode="&#x30b;" 
d="M40 743l63 140h80l-83 -140h-60zM195 743l75 140h84l-94 -140h-65z" />
    <glyph glyph-name="uni030C" unicode="&#x30c;" 
d="M146 743l-106 140h73l75 -99l74 99h74l-107 -140h-83z" />
    <glyph glyph-name="uni0312" unicode="&#x312;" 
d="M40 743v34q0 50 24 85t62 60l32 -36q-25 -23 -39.5 -49t-14.5 -65v-29h-64z" />
    <glyph glyph-name="uni031B" unicode="&#x31b;" 
d="M40 482v50q38 -1 61 11t32 38t4 67h66q7 -56 -9.5 -94t-55 -56t-98.5 -16z" />
    <glyph glyph-name="dotbelowcomb" unicode="&#x323;" 
d="M87 -157q-20 0 -33.5 12.5t-13.5 32.5q0 21 13.5 32.5t33.5 11.5t33.5 -11.5t13.5 -32.5q0 -20 -13.5 -32.5t-33.5 -12.5z" />
    <glyph glyph-name="uni0326" unicode="&#x326;" 
d="M40 -200l45 143h78l-61 -143h-62z" />
    <glyph glyph-name="uni0327" unicode="&#x327;" 
d="M157 -241q-43 0 -75 19.5t-42 57.5l56 15q6 -19 20.5 -30t37.5 -12q27 0 41.5 14t14.5 36q0 25 -21 39t-68 23l-11 22l39 71h45l-25 -61q48 -12 75 -37.5t27 -64.5q0 -42 -31.5 -67.5t-82.5 -24.5z" />
    <glyph glyph-name="uni0328" unicode="&#x328;" 
d="M139 -212q-46 0 -72.5 22.5t-26.5 61.5q0 26 12.5 51.5t37.5 49.5t59 44h37l9 -17q-37 -27 -60.5 -55.5t-23.5 -60.5q0 -24 14.5 -37t40.5 -13q11 0 22.5 2.5t20.5 6.5v-42q-12 -6 -31.5 -9.5t-38.5 -3.5z" />
    <glyph glyph-name="uni0335" unicode="&#x335;" 
d="M40 279v56h317v-56h-317z" />
    <glyph glyph-name="uni0336" unicode="&#x336;" 
d="M40 337v64h790v-64h-790z" />
    <glyph glyph-name="uni0337" unicode="&#x337;" 
d="M40 234v71l214 121v-70z" />
    <glyph glyph-name="uni0338" unicode="&#x338;" 
d="M40 -60l475 645h60l-474 -645h-61z" />
    <glyph glyph-name="uni03BC" unicode="&#x3bc;" horiz-adv-x="609" 
d="M76 -132v657h81v-329q0 -44 16.5 -74t48 -46t76.5 -16q81 0 117.5 51t36.5 134v280h81v-525h-77l-4 112h-5q-22 -61 -69.5 -91t-110.5 -30q-49 0 -87 19.5t-53 53.5l30 29v-225h-81z" />
    <glyph glyph-name="pi" unicode="&#x3c0;" horiz-adv-x="598" 
d="M509 -7q-41 0 -65.5 16t-34 44t-9.5 64v341h-212v-458h-79v458h-88v67h545v-67h-86v-324q0 -24 4.5 -41t16 -26t30.5 -9q10 0 18.5 1.5t15.5 5.5v-62q-9 -4 -24.5 -7t-31.5 -3z" />
    <glyph glyph-name="uni0E3F" unicode="&#xe3f;" horiz-adv-x="707" 
d="M99 0v729h308q71 0 119 -23.5t73.5 -65t25.5 -98.5q0 -39 -13.5 -72t-40 -57t-66.5 -34v-4q46 -9 76.5 -33.5t46.5 -60t16 -78.5q0 -61 -29 -107t-84 -71t-133 -25h-299zM183 69h208q81 0 122 39t41 101q0 61 -39 96t-111 35h-221v-271zM183 407h217q45 0 75.5 15.5
t46 43t15.5 64.5q0 62 -40.5 96t-108.5 34h-205v-253zM304 -85v126h54v-126h-54zM304 707v107h54v-107h-54z" />
    <glyph glyph-name="Wgrave" unicode="&#x1e80;" horiz-adv-x="979" 
d="M212 0l-183 729h93l106 -442l43 -209h7l46 209l111 442h110l110 -436l48 -215h7l43 215l104 436h93l-183 -729h-120l-103 409l-51 228h-6l-52 -228l-103 -409h-120zM457 798l-83 140h83l64 -140h-64z" />
    <glyph glyph-name="wgrave" unicode="&#x1e81;" horiz-adv-x="763" 
d="M145 0l-136 525h81l78 -311l32 -142h6l29 142l71 311h98l75 -311l31 -143h5l31 143l77 311h78l-135 -525h-107l-73 295l-30 139h-5l-28 -139l-68 -295h-110zM350 594l-83 140h83l64 -140h-64z" />
    <glyph glyph-name="Wacute" unicode="&#x1e82;" horiz-adv-x="979" 
d="M212 0l-183 729h93l106 -442l43 -209h7l46 209l111 442h110l110 -436l48 -215h7l43 215l104 436h93l-183 -729h-120l-103 409l-51 228h-6l-52 -228l-103 -409h-120zM458 798l64 140h83l-84 -140h-63z" />
    <glyph glyph-name="wacute" unicode="&#x1e83;" horiz-adv-x="763" 
d="M145 0l-136 525h81l78 -311l32 -142h6l29 142l71 311h98l75 -311l31 -143h5l31 143l77 311h78l-135 -525h-107l-73 295l-30 139h-5l-28 -139l-68 -295h-110zM351 594l64 140h83l-84 -140h-63z" />
    <glyph glyph-name="Wdieresis" unicode="&#x1e84;" horiz-adv-x="979" 
d="M212 0l-183 729h93l106 -442l43 -209h7l46 209l111 442h110l110 -436l48 -215h7l43 215l104 436h93l-183 -729h-120l-103 409l-51 228h-6l-52 -228l-103 -409h-120zM586 821q-21 0 -34.5 12t-13.5 32t13.5 31.5t34.5 11.5t34.5 -11.5t13.5 -31.5t-13.5 -32t-34.5 -12z
M392 821q-21 0 -34.5 12t-13.5 32t13.5 31.5t34.5 11.5t34.5 -11.5t13.5 -31.5t-13.5 -32t-34.5 -12z" />
    <glyph glyph-name="wdieresis" unicode="&#x1e85;" horiz-adv-x="763" 
d="M145 0l-136 525h81l78 -311l32 -142h6l29 142l71 311h98l75 -311l31 -143h5l31 143l77 311h78l-135 -525h-107l-73 295l-30 139h-5l-28 -139l-68 -295h-110zM479 617q-21 0 -34.5 12t-13.5 32t13.5 31.5t34.5 11.5t34.5 -11.5t13.5 -31.5t-13.5 -32t-34.5 -12zM285 617
q-21 0 -34.5 12t-13.5 32t13.5 31.5t34.5 11.5t34.5 -11.5t13.5 -31.5t-13.5 -32t-34.5 -12z" />
    <glyph glyph-name="uni1E9E" unicode="&#x1e9e;" horiz-adv-x="657" 
d="M84 0v729h487v-89l-172 -218v-33l-24 26h22q73 0 122 -25t73.5 -70.5t24.5 -106.5q0 -66 -29 -114t-83.5 -73.5t-130.5 -25.5h-137v71h126q87 0 126 42.5t39 106.5q0 70 -41 109t-130 39h-50v47l186 240h-323v-655h-86z" />
    <glyph glyph-name="uni1EA0" unicode="&#x1ea0;" horiz-adv-x="703" 
d="M25 0l267 729h120l266 -729h-89l-202 570l-32 92h-6l-31 -92l-203 -570h-90zM169 179l13 70h339l13 -70h-365zM351 -157q-20 0 -33.5 12.5t-13.5 32.5q0 21 13.5 32.5t33.5 11.5t33.5 -11.5t13.5 -32.5q0 -20 -13.5 -32.5t-33.5 -12.5z" />
    <glyph glyph-name="uni1EA1" unicode="&#x1ea1;" horiz-adv-x="610" 
d="M265 -9q-48 0 -88.5 19t-69.5 54t-44.5 85t-15.5 114q0 85 27.5 145.5t76.5 93t114 32.5q45 0 82.5 -14.5t63.5 -40.5t38 -62h5l3 108h77v-525h-77l-3 109h-5q-19 -53 -67.5 -85.5t-116.5 -32.5zM291 59q52 0 88 24.5t55 63.5t19 84v64q0 46 -19.5 85.5t-55 63
t-86.5 23.5q-50 0 -86.5 -24.5t-56 -70t-19.5 -109.5q0 -63 19.5 -109t55.5 -70.5t86 -24.5zM309 -157q-20 0 -33.5 12.5t-13.5 32.5q0 21 13.5 32.5t33.5 11.5t33.5 -11.5t13.5 -32.5q0 -20 -13.5 -32.5t-33.5 -12.5z" />
    <glyph glyph-name="uni1EA2" unicode="&#x1ea2;" horiz-adv-x="703" 
d="M25 0l267 729h120l266 -729h-89l-202 570l-32 92h-6l-31 -92l-203 -570h-90zM169 179l13 70h339l13 -70h-365zM318 782l-25 42q40 18 57.5 35.5t17.5 39.5q0 19 -14 29.5t-39 10.5q-12 0 -23.5 -1.5t-22.5 -5.5l-1 46q16 5 32 7.5t33 2.5q34 0 57.5 -10.5t36.5 -29
t13 -42.5q0 -39 -29 -69t-93 -55z" />
    <glyph glyph-name="uni1EA3" unicode="&#x1ea3;" horiz-adv-x="610" 
d="M265 -9q-48 0 -88.5 19t-69.5 54t-44.5 85t-15.5 114q0 85 27.5 145.5t76.5 93t114 32.5q45 0 82.5 -14.5t63.5 -40.5t38 -62h5l3 108h77v-525h-77l-3 109h-5q-19 -53 -67.5 -85.5t-116.5 -32.5zM291 59q52 0 88 24.5t55 63.5t19 84v64q0 46 -19.5 85.5t-55 63
t-86.5 23.5q-50 0 -86.5 -24.5t-56 -70t-19.5 -109.5q0 -63 19.5 -109t55.5 -70.5t86 -24.5zM275 578l-25 42q40 18 57.5 35.5t17.5 39.5q0 19 -14 29.5t-39 10.5q-12 0 -23.5 -1.5t-22.5 -5.5l-1 46q16 5 32 7.5t33 2.5q34 0 57.5 -10.5t36.5 -29t13 -42.5q0 -39 -29 -69
t-93 -55z" />
    <glyph glyph-name="uni1EA4" unicode="&#x1ea4;" horiz-adv-x="703" 
d="M25 0l267 729h120l266 -729h-89l-202 570l-32 92h-6l-31 -92l-203 -570h-90zM169 179l13 70h339l13 -70h-365zM204 798l106 140h83l107 -140h-73l-75 99l-75 -99h-73zM461 890l81 137h72l-97 -137h-56z" />
    <glyph glyph-name="uni1EA5" unicode="&#x1ea5;" horiz-adv-x="610" 
d="M265 -9q-48 0 -88.5 19t-69.5 54t-44.5 85t-15.5 114q0 85 27.5 145.5t76.5 93t114 32.5q45 0 82.5 -14.5t63.5 -40.5t38 -62h5l3 108h77v-525h-77l-3 109h-5q-19 -53 -67.5 -85.5t-116.5 -32.5zM291 59q52 0 88 24.5t55 63.5t19 84v64q0 46 -19.5 85.5t-55 63
t-86.5 23.5q-50 0 -86.5 -24.5t-56 -70t-19.5 -109.5q0 -63 19.5 -109t55.5 -70.5t86 -24.5zM161 594l106 140h83l107 -140h-73l-75 99l-75 -99h-73zM418 686l81 137h72l-97 -137h-56z" />
    <glyph glyph-name="uni1EA6" unicode="&#x1ea6;" horiz-adv-x="703" 
d="M25 0l267 729h120l266 -729h-89l-202 570l-32 92h-6l-31 -92l-203 -570h-90zM169 179l13 70h339l13 -70h-365zM204 798l106 140h83l107 -140h-73l-75 99l-75 -99h-73zM503 890l-95 137h72l80 -137h-57z" />
    <glyph glyph-name="uni1EA7" unicode="&#x1ea7;" horiz-adv-x="610" 
d="M265 -9q-48 0 -88.5 19t-69.5 54t-44.5 85t-15.5 114q0 85 27.5 145.5t76.5 93t114 32.5q45 0 82.5 -14.5t63.5 -40.5t38 -62h5l3 108h77v-525h-77l-3 109h-5q-19 -53 -67.5 -85.5t-116.5 -32.5zM291 59q52 0 88 24.5t55 63.5t19 84v64q0 46 -19.5 85.5t-55 63
t-86.5 23.5q-50 0 -86.5 -24.5t-56 -70t-19.5 -109.5q0 -63 19.5 -109t55.5 -70.5t86 -24.5zM161 594l106 140h83l107 -140h-73l-75 99l-75 -99h-73zM460 686l-95 137h72l80 -137h-57z" />
    <glyph glyph-name="uni1EA8" unicode="&#x1ea8;" horiz-adv-x="703" 
d="M25 0l267 729h120l266 -729h-89l-202 570l-32 92h-6l-31 -92l-203 -570h-90zM169 179l13 70h339l13 -70h-365zM204 798l106 140h83l107 -140h-73l-75 99l-75 -99h-73zM507 845l-27 36q23 16 35.5 32.5t12.5 36.5q0 19 -11 30t-36 11q-8 0 -17.5 -1t-17.5 -5v41
q13 5 27.5 6.5t26.5 1.5q41 0 65 -21t24 -55q0 -31 -19 -59.5t-63 -53.5z" />
    <glyph glyph-name="uni1EA9" unicode="&#x1ea9;" horiz-adv-x="610" 
d="M265 -9q-48 0 -88.5 19t-69.5 54t-44.5 85t-15.5 114q0 85 27.5 145.5t76.5 93t114 32.5q45 0 82.5 -14.5t63.5 -40.5t38 -62h5l3 108h77v-525h-77l-3 109h-5q-19 -53 -67.5 -85.5t-116.5 -32.5zM291 59q52 0 88 24.5t55 63.5t19 84v64q0 46 -19.5 85.5t-55 63
t-86.5 23.5q-50 0 -86.5 -24.5t-56 -70t-19.5 -109.5q0 -63 19.5 -109t55.5 -70.5t86 -24.5zM161 594l106 140h83l107 -140h-73l-75 99l-75 -99h-73zM464 641l-27 36q23 16 35.5 32.5t12.5 36.5q0 19 -11 30t-36 11q-8 0 -17.5 -1t-17.5 -5v41q13 5 27.5 6.5t26.5 1.5
q41 0 65 -21t24 -55q0 -31 -19 -59.5t-63 -53.5z" />
    <glyph glyph-name="uni1EAA" unicode="&#x1eaa;" horiz-adv-x="703" 
d="M25 0l267 729h120l266 -729h-89l-202 570l-32 92h-6l-31 -92l-203 -570h-90zM169 179l13 70h339l13 -70h-365zM204 798l105 131h86l105 -131h-73l-75 97l-75 -97h-73zM239 959l-30 19q18 31 37.5 45t49.5 14q21 0 42.5 -7l43 -14t41.5 -7q16 0 30 7t24 23l30 -20
q-17 -30 -38 -44.5t-51 -14.5q-28 0 -49 7t-40 13.5t-39 6.5q-16 0 -28 -6t-23 -22z" />
    <glyph glyph-name="uni1EAB" unicode="&#x1eab;" horiz-adv-x="610" 
d="M265 -9q-48 0 -88.5 19t-69.5 54t-44.5 85t-15.5 114q0 85 27.5 145.5t76.5 93t114 32.5q45 0 82.5 -14.5t63.5 -40.5t38 -62h5l3 108h77v-525h-77l-3 109h-5q-19 -53 -67.5 -85.5t-116.5 -32.5zM291 59q52 0 88 24.5t55 63.5t19 84v64q0 46 -19.5 85.5t-55 63
t-86.5 23.5q-50 0 -86.5 -24.5t-56 -70t-19.5 -109.5q0 -63 19.5 -109t55.5 -70.5t86 -24.5zM161 594l105 131h86l105 -131h-73l-75 97l-75 -97h-73zM196 755l-30 19q18 31 37.5 45t49.5 14q21 0 42.5 -7l43 -14t41.5 -7q16 0 30 7t24 23l30 -20q-17 -30 -38 -44.5
t-51 -14.5q-28 0 -49 7t-40 13.5t-39 6.5q-16 0 -28 -6t-23 -22z" />
    <glyph glyph-name="uni1EAC" unicode="&#x1eac;" horiz-adv-x="703" 
d="M25 0l267 729h120l266 -729h-89l-202 570l-32 92h-6l-31 -92l-203 -570h-90zM169 179l13 70h339l13 -70h-365zM351 -157q-20 0 -33.5 12.5t-13.5 32.5q0 21 13.5 32.5t33.5 11.5t33.5 -11.5t13.5 -32.5q0 -20 -13.5 -32.5t-33.5 -12.5zM204 798l106 140h83l107 -140h-73
l-75 99l-75 -99h-73z" />
    <glyph glyph-name="uni1EAD" unicode="&#x1ead;" horiz-adv-x="610" 
d="M265 -9q-48 0 -88.5 19t-69.5 54t-44.5 85t-15.5 114q0 85 27.5 145.5t76.5 93t114 32.5q45 0 82.5 -14.5t63.5 -40.5t38 -62h5l3 108h77v-525h-77l-3 109h-5q-19 -53 -67.5 -85.5t-116.5 -32.5zM291 59q52 0 88 24.5t55 63.5t19 84v64q0 46 -19.5 85.5t-55 63
t-86.5 23.5q-50 0 -86.5 -24.5t-56 -70t-19.5 -109.5q0 -63 19.5 -109t55.5 -70.5t86 -24.5zM309 -157q-20 0 -33.5 12.5t-13.5 32.5q0 21 13.5 32.5t33.5 11.5t33.5 -11.5t13.5 -32.5q0 -20 -13.5 -32.5t-33.5 -12.5zM161 594l106 140h83l107 -140h-73l-75 99l-75 -99h-73z
" />
    <glyph glyph-name="uni1EAE" unicode="&#x1eae;" horiz-adv-x="703" 
d="M25 0l267 729h120l266 -729h-89l-202 570l-32 92h-6l-31 -92l-203 -570h-90zM169 179l13 70h339l13 -70h-365zM352 783q-64 0 -103 35.5t-40 93.5h63q0 -36 21 -58t59 -22q35 0 57 20.5t22 59.5h63q-1 -58 -40 -93.5t-102 -35.5zM321 920l58 114h74l-76 -114h-56z" />
    <glyph glyph-name="uni1EAF" unicode="&#x1eaf;" horiz-adv-x="610" 
d="M265 -9q-48 0 -88.5 19t-69.5 54t-44.5 85t-15.5 114q0 85 27.5 145.5t76.5 93t114 32.5q45 0 82.5 -14.5t63.5 -40.5t38 -62h5l3 108h77v-525h-77l-3 109h-5q-19 -53 -67.5 -85.5t-116.5 -32.5zM291 59q52 0 88 24.5t55 63.5t19 84v64q0 46 -19.5 85.5t-55 63
t-86.5 23.5q-50 0 -86.5 -24.5t-56 -70t-19.5 -109.5q0 -63 19.5 -109t55.5 -70.5t86 -24.5zM309 579q-64 0 -103 35.5t-40 93.5h63q0 -36 21 -58t59 -22q35 0 57 20.5t22 59.5h63q-1 -58 -40 -93.5t-102 -35.5zM278 716l58 114h74l-76 -114h-56z" />
    <glyph glyph-name="uni1EB0" unicode="&#x1eb0;" horiz-adv-x="703" 
d="M25 0l267 729h120l266 -729h-89l-202 570l-32 92h-6l-31 -92l-203 -570h-90zM169 179l13 70h339l13 -70h-365zM352 783q-64 0 -103 35.5t-40 93.5h63q0 -39 22 -59.5t58 -20.5q38 0 58.5 22t20.5 58h63q-1 -58 -40 -93.5t-102 -35.5zM326 920l-76 114h74l58 -114h-56z
" />
    <glyph glyph-name="uni1EB1" unicode="&#x1eb1;" horiz-adv-x="610" 
d="M265 -9q-48 0 -88.5 19t-69.5 54t-44.5 85t-15.5 114q0 85 27.5 145.5t76.5 93t114 32.5q45 0 82.5 -14.5t63.5 -40.5t38 -62h5l3 108h77v-525h-77l-3 109h-5q-19 -53 -67.5 -85.5t-116.5 -32.5zM291 59q52 0 88 24.5t55 63.5t19 84v64q0 46 -19.5 85.5t-55 63
t-86.5 23.5q-50 0 -86.5 -24.5t-56 -70t-19.5 -109.5q0 -63 19.5 -109t55.5 -70.5t86 -24.5zM309 579q-64 0 -103 35.5t-40 93.5h63q0 -39 22 -59.5t58 -20.5q38 0 58.5 22t20.5 58h63q-1 -58 -40 -93.5t-102 -35.5zM283 716l-76 114h74l58 -114h-56z" />
    <glyph glyph-name="uni1EB2" unicode="&#x1eb2;" horiz-adv-x="703" 
d="M25 0l267 729h120l266 -729h-89l-202 570l-32 92h-6l-31 -92l-203 -570h-90zM169 179l13 70h339l13 -70h-365zM353 783q-64 0 -103 35.5t-40 93.5h63q0 -39 22 -59.5t58 -20.5q38 0 58.5 22t20.5 58h63q-1 -58 -40 -93.5t-102 -35.5zM346 895l-22 32q21 12 30.5 22.5
t9.5 25.5t-10 22.5t-27 7.5q-9 0 -18.5 -1.5t-19.5 -5.5v40q13 5 28.5 7t27.5 2q25 0 43 -7.5t28 -22t10 -33.5q0 -18 -9 -34t-26.5 -29t-44.5 -26z" />
    <glyph glyph-name="uni1EB3" unicode="&#x1eb3;" horiz-adv-x="610" 
d="M265 -9q-48 0 -88.5 19t-69.5 54t-44.5 85t-15.5 114q0 85 27.5 145.5t76.5 93t114 32.5q45 0 82.5 -14.5t63.5 -40.5t38 -62h5l3 108h77v-525h-77l-3 109h-5q-19 -53 -67.5 -85.5t-116.5 -32.5zM291 59q52 0 88 24.5t55 63.5t19 84v64q0 46 -19.5 85.5t-55 63
t-86.5 23.5q-50 0 -86.5 -24.5t-56 -70t-19.5 -109.5q0 -63 19.5 -109t55.5 -70.5t86 -24.5zM310 579q-64 0 -103 35.5t-40 93.5h63q0 -39 22 -59.5t58 -20.5q38 0 58.5 22t20.5 58h63q-1 -58 -40 -93.5t-102 -35.5zM303 691l-22 32q21 12 30.5 22.5t9.5 25.5t-10 22.5
t-27 7.5q-9 0 -18.5 -1.5t-19.5 -5.5v40q13 5 28.5 7t27.5 2q25 0 43 -7.5t28 -22t10 -33.5q0 -18 -9 -34t-26.5 -29t-44.5 -26z" />
    <glyph glyph-name="uni1EB4" unicode="&#x1eb4;" horiz-adv-x="703" 
d="M25 0l267 729h120l266 -729h-89l-202 570l-32 92h-6l-31 -92l-203 -570h-90zM169 179l13 70h339l13 -70h-365zM352 787q-64 0 -103 35.5t-40 93.5h63q0 -39 22 -59.5t58 -20.5q38 0 58.5 22t20.5 58h63q0 -58 -39.5 -93.5t-102.5 -35.5zM407 957q-26 0 -45 7t-35.5 14
t-36.5 7q-18 0 -30.5 -7t-23.5 -22l-33 19q19 33 41 46.5t49 13.5q21 0 40 -7l38 -14t40 -7q17 0 31 7t25 23l33 -19q-18 -33 -41 -47t-52 -14z" />
    <glyph glyph-name="uni1EB5" unicode="&#x1eb5;" horiz-adv-x="610" 
d="M265 -9q-48 0 -88.5 19t-69.5 54t-44.5 85t-15.5 114q0 85 27.5 145.5t76.5 93t114 32.5q45 0 82.5 -14.5t63.5 -40.5t38 -62h5l3 108h77v-525h-77l-3 109h-5q-19 -53 -67.5 -85.5t-116.5 -32.5zM291 59q52 0 88 24.5t55 63.5t19 84v64q0 46 -19.5 85.5t-55 63
t-86.5 23.5q-50 0 -86.5 -24.5t-56 -70t-19.5 -109.5q0 -63 19.5 -109t55.5 -70.5t86 -24.5zM309 583q-64 0 -103 35.5t-40 93.5h63q0 -39 22 -59.5t58 -20.5q38 0 58.5 22t20.5 58h63q0 -58 -39.5 -93.5t-102.5 -35.5zM364 753q-26 0 -45 7t-35.5 14t-36.5 7
q-18 0 -30.5 -7t-23.5 -22l-33 19q19 33 41 46.5t49 13.5q21 0 40 -7l38 -14t40 -7q17 0 31 7t25 23l33 -19q-18 -33 -41 -47t-52 -14z" />
    <glyph glyph-name="uni1EB6" unicode="&#x1eb6;" horiz-adv-x="703" 
d="M25 0l267 729h120l266 -729h-89l-202 570l-32 92h-6l-31 -92l-203 -570h-90zM169 179l13 70h339l13 -70h-365zM351 -157q-20 0 -33.5 12.5t-13.5 32.5q0 21 13.5 32.5t33.5 11.5t33.5 -11.5t13.5 -32.5q0 -20 -13.5 -32.5t-33.5 -12.5zM352 789q-45 0 -77 17t-48.5 49.5
t-17.5 78.5h60q0 -47 21.5 -70.5t61.5 -23.5q39 0 60.5 23.5t21.5 70.5h60q-1 -70 -38 -107.5t-104 -37.5z" />
    <glyph glyph-name="uni1EB7" unicode="&#x1eb7;" horiz-adv-x="610" 
d="M265 -9q-48 0 -88.5 19t-69.5 54t-44.5 85t-15.5 114q0 85 27.5 145.5t76.5 93t114 32.5q45 0 82.5 -14.5t63.5 -40.5t38 -62h5l3 108h77v-525h-77l-3 109h-5q-19 -53 -67.5 -85.5t-116.5 -32.5zM291 59q52 0 88 24.5t55 63.5t19 84v64q0 46 -19.5 85.5t-55 63
t-86.5 23.5q-50 0 -86.5 -24.5t-56 -70t-19.5 -109.5q0 -63 19.5 -109t55.5 -70.5t86 -24.5zM309 -157q-20 0 -33.5 12.5t-13.5 32.5q0 21 13.5 32.5t33.5 11.5t33.5 -11.5t13.5 -32.5q0 -20 -13.5 -32.5t-33.5 -12.5zM309 585q-45 0 -77 17t-48.5 49.5t-17.5 78.5h60
q0 -47 21.5 -70.5t61.5 -23.5q39 0 60.5 23.5t21.5 70.5h60q-1 -70 -38 -107.5t-104 -37.5z" />
    <glyph glyph-name="uni1EB8" unicode="&#x1eb8;" horiz-adv-x="622" 
d="M84 0v729h501v-75h-436l20 20v-618l-20 20h437v-76h-502zM149 338v70h387v-70h-387zM314 -157q-20 0 -33.5 12.5t-13.5 32.5q0 21 13.5 32.5t33.5 11.5t33.5 -11.5t13.5 -32.5q0 -20 -13.5 -32.5t-33.5 -12.5z" />
    <glyph glyph-name="uni1EB9" unicode="&#x1eb9;" horiz-adv-x="574" 
d="M277 -9q-75 0 -128.5 33t-81.5 94t-28 142q0 83 28 144.5t80 95t127 33.5q80 0 132 -36t75.5 -100t17.5 -148h-381q1 -65 20.5 -108.5t55 -65t83.5 -21.5q56 0 92 26t48 69h78q-9 -50 -39.5 -85.5t-76.5 -54t-102 -18.5zM119 295l-9 12h319l-9 -14q1 63 -17 101.5
t-51.5 57t-77.5 18.5q-46 0 -80 -20t-53.5 -58.5t-21.5 -96.5zM294 -157q-20 0 -33.5 12.5t-13.5 32.5q0 21 13.5 32.5t33.5 11.5t33.5 -11.5t13.5 -32.5q0 -20 -13.5 -32.5t-33.5 -12.5z" />
    <glyph glyph-name="uni1EBA" unicode="&#x1eba;" horiz-adv-x="622" 
d="M84 0v729h501v-75h-436l20 20v-618l-20 20h437v-76h-502zM149 338v70h387v-70h-387zM280 782l-25 42q40 18 57.5 35.5t17.5 39.5q0 19 -14 29.5t-39 10.5q-12 0 -23.5 -1.5t-22.5 -5.5l-1 46q16 5 32 7.5t33 2.5q34 0 57.5 -10.5t36.5 -29t13 -42.5q0 -39 -29 -69
t-93 -55z" />
    <glyph glyph-name="uni1EBB" unicode="&#x1ebb;" horiz-adv-x="574" 
d="M277 -9q-75 0 -128.5 33t-81.5 94t-28 142q0 83 28 144.5t80 95t127 33.5q80 0 132 -36t75.5 -100t17.5 -148h-381q1 -65 20.5 -108.5t55 -65t83.5 -21.5q56 0 92 26t48 69h78q-9 -50 -39.5 -85.5t-76.5 -54t-102 -18.5zM119 295l-9 12h319l-9 -14q1 63 -17 101.5
t-51.5 57t-77.5 18.5q-46 0 -80 -20t-53.5 -58.5t-21.5 -96.5zM256 578l-25 42q40 18 57.5 35.5t17.5 39.5q0 19 -14 29.5t-39 10.5q-12 0 -23.5 -1.5t-22.5 -5.5l-1 46q16 5 32 7.5t33 2.5q34 0 57.5 -10.5t36.5 -29t13 -42.5q0 -39 -29 -69t-93 -55z" />
    <glyph glyph-name="uni1EBC" unicode="&#x1ebc;" horiz-adv-x="622" 
d="M84 0v729h501v-75h-436l20 20v-618l-20 20h437v-76h-502zM149 338v70h387v-70h-387zM382 820q-31 0 -54 7.5t-42.5 14.5t-41.5 7q-20 0 -34.5 -7.5t-26.5 -23.5l-38 22q15 25 30 39.5t32.5 21t37.5 6.5q24 0 47 -7.5t46.5 -15t46.5 -7.5q17 0 33 7.5t28 24.5l39 -23
q-13 -24 -29 -39t-34.5 -21t-39.5 -6z" />
    <glyph glyph-name="uni1EBD" unicode="&#x1ebd;" horiz-adv-x="574" 
d="M277 -9q-75 0 -128.5 33t-81.5 94t-28 142q0 83 28 144.5t80 95t127 33.5q80 0 132 -36t75.5 -100t17.5 -148h-381q1 -65 20.5 -108.5t55 -65t83.5 -21.5q56 0 92 26t48 69h78q-9 -50 -39.5 -85.5t-76.5 -54t-102 -18.5zM119 295l-9 12h319l-9 -14q1 63 -17 101.5
t-51.5 57t-77.5 18.5q-46 0 -80 -20t-53.5 -58.5t-21.5 -96.5zM358 616q-31 0 -54 7.5t-42.5 14.5t-41.5 7q-20 0 -34.5 -7.5t-26.5 -23.5l-38 22q15 25 30 39.5t32.5 21t37.5 6.5q24 0 47 -7.5t46.5 -15t46.5 -7.5q17 0 33 7.5t28 24.5l39 -23q-13 -24 -29 -39t-34.5 -21
t-39.5 -6z" />
    <glyph glyph-name="uni1EBE" unicode="&#x1ebe;" horiz-adv-x="622" 
d="M84 0v729h501v-75h-436l20 20v-618l-20 20h437v-76h-502zM149 338v70h387v-70h-387zM166 798l106 140h83l107 -140h-73l-75 99l-75 -99h-73zM423 890l81 137h72l-97 -137h-56z" />
    <glyph glyph-name="uni1EBF" unicode="&#x1ebf;" horiz-adv-x="574" 
d="M277 -9q-75 0 -128.5 33t-81.5 94t-28 142q0 83 28 144.5t80 95t127 33.5q80 0 132 -36t75.5 -100t17.5 -148h-381q1 -65 20.5 -108.5t55 -65t83.5 -21.5q56 0 92 26t48 69h78q-9 -50 -39.5 -85.5t-76.5 -54t-102 -18.5zM119 295l-9 12h319l-9 -14q1 63 -17 101.5
t-51.5 57t-77.5 18.5q-46 0 -80 -20t-53.5 -58.5t-21.5 -96.5zM142 594l106 140h83l107 -140h-73l-75 99l-75 -99h-73zM399 686l81 137h72l-97 -137h-56z" />
    <glyph glyph-name="uni1EC0" unicode="&#x1ec0;" horiz-adv-x="622" 
d="M84 0v729h501v-75h-436l20 20v-618l-20 20h437v-76h-502zM149 338v70h387v-70h-387zM166 798l106 140h83l107 -140h-73l-75 99l-75 -99h-73zM465 890l-95 137h72l80 -137h-57z" />
    <glyph glyph-name="uni1EC1" unicode="&#x1ec1;" horiz-adv-x="574" 
d="M277 -9q-75 0 -128.5 33t-81.5 94t-28 142q0 83 28 144.5t80 95t127 33.5q80 0 132 -36t75.5 -100t17.5 -148h-381q1 -65 20.5 -108.5t55 -65t83.5 -21.5q56 0 92 26t48 69h78q-9 -50 -39.5 -85.5t-76.5 -54t-102 -18.5zM119 295l-9 12h319l-9 -14q1 63 -17 101.5
t-51.5 57t-77.5 18.5q-46 0 -80 -20t-53.5 -58.5t-21.5 -96.5zM142 594l106 140h83l107 -140h-73l-75 99l-75 -99h-73zM441 686l-95 137h72l80 -137h-57z" />
    <glyph glyph-name="uni1EC2" unicode="&#x1ec2;" horiz-adv-x="622" 
d="M84 0v729h501v-75h-436l20 20v-618l-20 20h437v-76h-502zM149 338v70h387v-70h-387zM166 798l106 140h83l107 -140h-73l-75 99l-75 -99h-73zM469 845l-27 36q23 16 35.5 32.5t12.5 36.5q0 19 -11 30t-36 11q-8 0 -17.5 -1t-17.5 -5v41q13 5 27.5 6.5t26.5 1.5
q41 0 65 -21t24 -55q0 -31 -19 -59.5t-63 -53.5z" />
    <glyph glyph-name="uni1EC3" unicode="&#x1ec3;" horiz-adv-x="574" 
d="M277 -9q-75 0 -128.5 33t-81.5 94t-28 142q0 83 28 144.5t80 95t127 33.5q80 0 132 -36t75.5 -100t17.5 -148h-381q1 -65 20.5 -108.5t55 -65t83.5 -21.5q56 0 92 26t48 69h78q-9 -50 -39.5 -85.5t-76.5 -54t-102 -18.5zM119 295l-9 12h319l-9 -14q1 63 -17 101.5
t-51.5 57t-77.5 18.5q-46 0 -80 -20t-53.5 -58.5t-21.5 -96.5zM142 594l106 140h83l107 -140h-73l-75 99l-75 -99h-73zM445 641l-27 36q23 16 35.5 32.5t12.5 36.5q0 19 -11 30t-36 11q-8 0 -17.5 -1t-17.5 -5v41q13 5 27.5 6.5t26.5 1.5q41 0 65 -21t24 -55
q0 -31 -19 -59.5t-63 -53.5z" />
    <glyph glyph-name="uni1EC4" unicode="&#x1ec4;" horiz-adv-x="622" 
d="M84 0v729h501v-75h-436l20 20v-618l-20 20h437v-76h-502zM149 338v70h387v-70h-387zM166 798l105 131h86l105 -131h-73l-75 97l-75 -97h-73zM201 959l-30 19q18 31 37.5 45t49.5 14q21 0 42.5 -7l43 -14t41.5 -7q16 0 30 7t24 23l30 -20q-17 -30 -38 -44.5t-51 -14.5
q-28 0 -49 7t-40 13.5t-39 6.5q-16 0 -28 -6t-23 -22z" />
    <glyph glyph-name="uni1EC5" unicode="&#x1ec5;" horiz-adv-x="574" 
d="M277 -9q-75 0 -128.5 33t-81.5 94t-28 142q0 83 28 144.5t80 95t127 33.5q80 0 132 -36t75.5 -100t17.5 -148h-381q1 -65 20.5 -108.5t55 -65t83.5 -21.5q56 0 92 26t48 69h78q-9 -50 -39.5 -85.5t-76.5 -54t-102 -18.5zM119 295l-9 12h319l-9 -14q1 63 -17 101.5
t-51.5 57t-77.5 18.5q-46 0 -80 -20t-53.5 -58.5t-21.5 -96.5zM142 594l105 131h86l105 -131h-73l-75 97l-75 -97h-73zM177 755l-30 19q18 31 37.5 45t49.5 14q21 0 42.5 -7l43 -14t41.5 -7q16 0 30 7t24 23l30 -20q-17 -30 -38 -44.5t-51 -14.5q-28 0 -49 7t-40 13.5
t-39 6.5q-16 0 -28 -6t-23 -22z" />
    <glyph glyph-name="uni1EC6" unicode="&#x1ec6;" horiz-adv-x="622" 
d="M84 0v729h501v-75h-436l20 20v-618l-20 20h437v-76h-502zM149 338v70h387v-70h-387zM314 -157q-20 0 -33.5 12.5t-13.5 32.5q0 21 13.5 32.5t33.5 11.5t33.5 -11.5t13.5 -32.5q0 -20 -13.5 -32.5t-33.5 -12.5zM166 798l106 140h83l107 -140h-73l-75 99l-75 -99h-73z" />
    <glyph glyph-name="uni1EC7" unicode="&#x1ec7;" horiz-adv-x="574" 
d="M277 -9q-75 0 -128.5 33t-81.5 94t-28 142q0 83 28 144.5t80 95t127 33.5q80 0 132 -36t75.5 -100t17.5 -148h-381q1 -65 20.5 -108.5t55 -65t83.5 -21.5q56 0 92 26t48 69h78q-9 -50 -39.5 -85.5t-76.5 -54t-102 -18.5zM119 295l-9 12h319l-9 -14q1 63 -17 101.5
t-51.5 57t-77.5 18.5q-46 0 -80 -20t-53.5 -58.5t-21.5 -96.5zM294 -157q-20 0 -33.5 12.5t-13.5 32.5q0 21 13.5 32.5t33.5 11.5t33.5 -11.5t13.5 -32.5q0 -20 -13.5 -32.5t-33.5 -12.5zM142 594l106 140h83l107 -140h-73l-75 99l-75 -99h-73z" />
    <glyph glyph-name="uni1EC8" unicode="&#x1ec8;" horiz-adv-x="253" 
d="M84 0v729h85v-729h-85zM93 782l-25 42q40 18 57.5 35.5t17.5 39.5q0 19 -14 29.5t-39 10.5q-12 0 -23.5 -1.5t-22.5 -5.5l-1 46q16 5 32 7.5t33 2.5q34 0 57.5 -10.5t36.5 -29t13 -42.5q0 -39 -29 -69t-93 -55z" />
    <glyph glyph-name="uni1EC9" unicode="&#x1ec9;" horiz-adv-x="233" 
d="M76 0v525h81v-525h-81zM83 578l-25 42q40 18 57.5 35.5t17.5 39.5q0 19 -14 29.5t-39 10.5q-12 0 -23.5 -1.5t-22.5 -5.5l-1 46q16 5 32 7.5t33 2.5q34 0 57.5 -10.5t36.5 -29t13 -42.5q0 -39 -29 -69t-93 -55z" />
    <glyph glyph-name="uni1ECA" unicode="&#x1eca;" horiz-adv-x="253" 
d="M84 0v729h85v-729h-85zM127 -157q-20 0 -33.5 12.5t-13.5 32.5q0 21 13.5 32.5t33.5 11.5t33.5 -11.5t13.5 -32.5q0 -20 -13.5 -32.5t-33.5 -12.5z" />
    <glyph glyph-name="uni1ECB" unicode="&#x1ecb;" horiz-adv-x="233" 
d="M76 0v525h81v-525h-81zM118 615q-23 0 -37 12.5t-14 33.5t14 33t37 12q22 0 36 -12t14 -33t-14 -33.5t-36 -12.5zM117 -157q-20 0 -33.5 12.5t-13.5 32.5q0 21 13.5 32.5t33.5 11.5t33.5 -11.5t13.5 -32.5q0 -20 -13.5 -32.5t-33.5 -12.5z" />
    <glyph glyph-name="uni1ECC" unicode="&#x1ecc;" horiz-adv-x="807" 
d="M404 -9q-81 0 -146.5 26t-113 75t-72.5 118t-25 154q0 86 25.5 155t72.5 117.5t112.5 74.5t146.5 26t146 -26t112.5 -75t72.5 -117.5t25 -154.5t-25.5 -155t-72.5 -117.5t-112.5 -74.5t-145.5 -26zM404 66q82 0 142.5 36.5t93 103t32.5 158.5q0 70 -18.5 125t-54 93.5
t-84.5 59t-111 20.5q-83 0 -143 -36t-92.5 -102.5t-32.5 -159.5q0 -69 19 -124.5t53.5 -94t84 -59t111.5 -20.5zM404 -157q-20 0 -33.5 12.5t-13.5 32.5q0 21 13.5 32.5t33.5 11.5t33.5 -11.5t13.5 -32.5q0 -20 -13.5 -32.5t-33.5 -12.5z" />
    <glyph glyph-name="uni1ECD" unicode="&#x1ecd;" horiz-adv-x="594" 
d="M298 -9q-57 0 -103.5 19t-80 55t-52 85.5t-18.5 110.5q0 81 31 142t88.5 95.5t134.5 34.5q57 0 103.5 -18.5t79.5 -54.5t51 -86t18 -112q0 -80 -30.5 -141t-87.5 -95.5t-134 -34.5zM298 61q51 0 89 23.5t59.5 69t21.5 108.5q0 47 -12 84.5t-34 64t-53 40.5t-71 14
q-51 0 -89.5 -24.5t-60 -69.5t-21.5 -110q0 -46 11.5 -83.5t34 -63.5t54.5 -39.5t71 -13.5zM297 -157q-20 0 -33.5 12.5t-13.5 32.5q0 21 13.5 32.5t33.5 11.5t33.5 -11.5t13.5 -32.5q0 -20 -13.5 -32.5t-33.5 -12.5z" />
    <glyph glyph-name="uni1ECE" unicode="&#x1ece;" horiz-adv-x="807" 
d="M404 -9q-81 0 -146.5 26t-113 75t-72.5 118t-25 154q0 86 25.5 155t72.5 117.5t112.5 74.5t146.5 26t146 -26t112.5 -75t72.5 -117.5t25 -154.5t-25.5 -155t-72.5 -117.5t-112.5 -74.5t-145.5 -26zM404 66q82 0 142.5 36.5t93 103t32.5 158.5q0 70 -18.5 125t-54 93.5
t-84.5 59t-111 20.5q-83 0 -143 -36t-92.5 -102.5t-32.5 -159.5q0 -69 19 -124.5t53.5 -94t84 -59t111.5 -20.5zM370 782l-25 42q40 18 57.5 35.5t17.5 39.5q0 19 -14 29.5t-39 10.5q-12 0 -23.5 -1.5t-22.5 -5.5l-1 46q16 5 32 7.5t33 2.5q34 0 57.5 -10.5t36.5 -29
t13 -42.5q0 -39 -29 -69t-93 -55z" />
    <glyph glyph-name="uni1ECF" unicode="&#x1ecf;" horiz-adv-x="594" 
d="M298 -9q-57 0 -103.5 19t-80 55t-52 85.5t-18.5 110.5q0 81 31 142t88.5 95.5t134.5 34.5q57 0 103.5 -18.5t79.5 -54.5t51 -86t18 -112q0 -80 -30.5 -141t-87.5 -95.5t-134 -34.5zM298 61q51 0 89 23.5t59.5 69t21.5 108.5q0 47 -12 84.5t-34 64t-53 40.5t-71 14
q-51 0 -89.5 -24.5t-60 -69.5t-21.5 -110q0 -46 11.5 -83.5t34 -63.5t54.5 -39.5t71 -13.5zM264 578l-25 42q40 18 57.5 35.5t17.5 39.5q0 19 -14 29.5t-39 10.5q-12 0 -23.5 -1.5t-22.5 -5.5l-1 46q16 5 32 7.5t33 2.5q34 0 57.5 -10.5t36.5 -29t13 -42.5q0 -39 -29 -69
t-93 -55z" />
    <glyph glyph-name="uni1ED0" unicode="&#x1ed0;" horiz-adv-x="807" 
d="M404 -9q-81 0 -146.5 26t-113 75t-72.5 118t-25 154q0 86 25.5 155t72.5 117.5t112.5 74.5t146.5 26t146 -26t112.5 -75t72.5 -117.5t25 -154.5t-25.5 -155t-72.5 -117.5t-112.5 -74.5t-145.5 -26zM404 66q82 0 142.5 36.5t93 103t32.5 158.5q0 70 -18.5 125t-54 93.5
t-84.5 59t-111 20.5q-83 0 -143 -36t-92.5 -102.5t-32.5 -159.5q0 -69 19 -124.5t53.5 -94t84 -59t111.5 -20.5zM256 798l106 140h83l107 -140h-73l-75 99l-75 -99h-73zM513 890l81 137h72l-97 -137h-56z" />
    <glyph glyph-name="uni1ED1" unicode="&#x1ed1;" horiz-adv-x="594" 
d="M298 -9q-57 0 -103.5 19t-80 55t-52 85.5t-18.5 110.5q0 81 31 142t88.5 95.5t134.5 34.5q57 0 103.5 -18.5t79.5 -54.5t51 -86t18 -112q0 -80 -30.5 -141t-87.5 -95.5t-134 -34.5zM298 61q51 0 89 23.5t59.5 69t21.5 108.5q0 47 -12 84.5t-34 64t-53 40.5t-71 14
q-51 0 -89.5 -24.5t-60 -69.5t-21.5 -110q0 -46 11.5 -83.5t34 -63.5t54.5 -39.5t71 -13.5zM150 594l106 140h83l107 -140h-73l-75 99l-75 -99h-73zM407 686l81 137h72l-97 -137h-56z" />
    <glyph glyph-name="uni1ED2" unicode="&#x1ed2;" horiz-adv-x="807" 
d="M404 -9q-81 0 -146.5 26t-113 75t-72.5 118t-25 154q0 86 25.5 155t72.5 117.5t112.5 74.5t146.5 26t146 -26t112.5 -75t72.5 -117.5t25 -154.5t-25.5 -155t-72.5 -117.5t-112.5 -74.5t-145.5 -26zM404 66q82 0 142.5 36.5t93 103t32.5 158.5q0 70 -18.5 125t-54 93.5
t-84.5 59t-111 20.5q-83 0 -143 -36t-92.5 -102.5t-32.5 -159.5q0 -69 19 -124.5t53.5 -94t84 -59t111.5 -20.5zM256 798l106 140h83l107 -140h-73l-75 99l-75 -99h-73zM555 890l-95 137h72l80 -137h-57z" />
    <glyph glyph-name="uni1ED3" unicode="&#x1ed3;" horiz-adv-x="594" 
d="M298 -9q-57 0 -103.5 19t-80 55t-52 85.5t-18.5 110.5q0 81 31 142t88.5 95.5t134.5 34.5q57 0 103.5 -18.5t79.5 -54.5t51 -86t18 -112q0 -80 -30.5 -141t-87.5 -95.5t-134 -34.5zM298 61q51 0 89 23.5t59.5 69t21.5 108.5q0 47 -12 84.5t-34 64t-53 40.5t-71 14
q-51 0 -89.5 -24.5t-60 -69.5t-21.5 -110q0 -46 11.5 -83.5t34 -63.5t54.5 -39.5t71 -13.5zM150 594l106 140h83l107 -140h-73l-75 99l-75 -99h-73zM449 686l-95 137h72l80 -137h-57z" />
    <glyph glyph-name="uni1ED4" unicode="&#x1ed4;" horiz-adv-x="807" 
d="M404 -9q-81 0 -146.5 26t-113 75t-72.5 118t-25 154q0 86 25.5 155t72.5 117.5t112.5 74.5t146.5 26t146 -26t112.5 -75t72.5 -117.5t25 -154.5t-25.5 -155t-72.5 -117.5t-112.5 -74.5t-145.5 -26zM404 66q82 0 142.5 36.5t93 103t32.5 158.5q0 70 -18.5 125t-54 93.5
t-84.5 59t-111 20.5q-83 0 -143 -36t-92.5 -102.5t-32.5 -159.5q0 -69 19 -124.5t53.5 -94t84 -59t111.5 -20.5zM256 798l106 140h83l107 -140h-73l-75 99l-75 -99h-73zM559 845l-27 36q23 16 35.5 32.5t12.5 36.5q0 19 -11 30t-36 11q-8 0 -17.5 -1t-17.5 -5v41
q13 5 27.5 6.5t26.5 1.5q41 0 65 -21t24 -55q0 -31 -19 -59.5t-63 -53.5z" />
    <glyph glyph-name="uni1ED5" unicode="&#x1ed5;" horiz-adv-x="594" 
d="M298 -9q-57 0 -103.5 19t-80 55t-52 85.5t-18.5 110.5q0 81 31 142t88.5 95.5t134.5 34.5q57 0 103.5 -18.5t79.5 -54.5t51 -86t18 -112q0 -80 -30.5 -141t-87.5 -95.5t-134 -34.5zM298 61q51 0 89 23.5t59.5 69t21.5 108.5q0 47 -12 84.5t-34 64t-53 40.5t-71 14
q-51 0 -89.5 -24.5t-60 -69.5t-21.5 -110q0 -46 11.5 -83.5t34 -63.5t54.5 -39.5t71 -13.5zM150 594l106 140h83l107 -140h-73l-75 99l-75 -99h-73zM453 641l-27 36q23 16 35.5 32.5t12.5 36.5q0 19 -11 30t-36 11q-8 0 -17.5 -1t-17.5 -5v41q13 5 27.5 6.5t26.5 1.5
q41 0 65 -21t24 -55q0 -31 -19 -59.5t-63 -53.5z" />
    <glyph glyph-name="uni1ED6" unicode="&#x1ed6;" horiz-adv-x="807" 
d="M404 -9q-81 0 -146.5 26t-113 75t-72.5 118t-25 154q0 86 25.5 155t72.5 117.5t112.5 74.5t146.5 26t146 -26t112.5 -75t72.5 -117.5t25 -154.5t-25.5 -155t-72.5 -117.5t-112.5 -74.5t-145.5 -26zM404 66q82 0 142.5 36.5t93 103t32.5 158.5q0 70 -18.5 125t-54 93.5
t-84.5 59t-111 20.5q-83 0 -143 -36t-92.5 -102.5t-32.5 -159.5q0 -69 19 -124.5t53.5 -94t84 -59t111.5 -20.5zM256 798l105 131h86l105 -131h-73l-75 97l-75 -97h-73zM291 959l-30 19q18 31 37.5 45t49.5 14q21 0 42.5 -7l43 -14t41.5 -7q16 0 30 7t24 23l30 -20
q-17 -30 -38 -44.5t-51 -14.5q-28 0 -49 7t-40 13.5t-39 6.5q-16 0 -28 -6t-23 -22z" />
    <glyph glyph-name="uni1ED7" unicode="&#x1ed7;" horiz-adv-x="594" 
d="M298 -9q-57 0 -103.5 19t-80 55t-52 85.5t-18.5 110.5q0 81 31 142t88.5 95.5t134.5 34.5q57 0 103.5 -18.5t79.5 -54.5t51 -86t18 -112q0 -80 -30.5 -141t-87.5 -95.5t-134 -34.5zM298 61q51 0 89 23.5t59.5 69t21.5 108.5q0 47 -12 84.5t-34 64t-53 40.5t-71 14
q-51 0 -89.5 -24.5t-60 -69.5t-21.5 -110q0 -46 11.5 -83.5t34 -63.5t54.5 -39.5t71 -13.5zM150 594l105 131h86l105 -131h-73l-75 97l-75 -97h-73zM185 755l-30 19q18 31 37.5 45t49.5 14q21 0 42.5 -7l43 -14t41.5 -7q16 0 30 7t24 23l30 -20q-17 -30 -38 -44.5t-51 -14.5
q-28 0 -49 7t-40 13.5t-39 6.5q-16 0 -28 -6t-23 -22z" />
    <glyph glyph-name="uni1ED8" unicode="&#x1ed8;" horiz-adv-x="807" 
d="M404 -9q-81 0 -146.5 26t-113 75t-72.5 118t-25 154q0 86 25.5 155t72.5 117.5t112.5 74.5t146.5 26t146 -26t112.5 -75t72.5 -117.5t25 -154.5t-25.5 -155t-72.5 -117.5t-112.5 -74.5t-145.5 -26zM404 66q82 0 142.5 36.5t93 103t32.5 158.5q0 70 -18.5 125t-54 93.5
t-84.5 59t-111 20.5q-83 0 -143 -36t-92.5 -102.5t-32.5 -159.5q0 -69 19 -124.5t53.5 -94t84 -59t111.5 -20.5zM404 -157q-20 0 -33.5 12.5t-13.5 32.5q0 21 13.5 32.5t33.5 11.5t33.5 -11.5t13.5 -32.5q0 -20 -13.5 -32.5t-33.5 -12.5zM256 798l106 140h83l107 -140h-73
l-75 99l-75 -99h-73z" />
    <glyph glyph-name="uni1ED9" unicode="&#x1ed9;" horiz-adv-x="594" 
d="M298 -9q-57 0 -103.5 19t-80 55t-52 85.5t-18.5 110.5q0 81 31 142t88.5 95.5t134.5 34.5q57 0 103.5 -18.5t79.5 -54.5t51 -86t18 -112q0 -80 -30.5 -141t-87.5 -95.5t-134 -34.5zM298 61q51 0 89 23.5t59.5 69t21.5 108.5q0 47 -12 84.5t-34 64t-53 40.5t-71 14
q-51 0 -89.5 -24.5t-60 -69.5t-21.5 -110q0 -46 11.5 -83.5t34 -63.5t54.5 -39.5t71 -13.5zM297 -157q-20 0 -33.5 12.5t-13.5 32.5q0 21 13.5 32.5t33.5 11.5t33.5 -11.5t13.5 -32.5q0 -20 -13.5 -32.5t-33.5 -12.5zM150 594l106 140h83l107 -140h-73l-75 99l-75 -99h-73z
" />
    <glyph glyph-name="uni1EDA" unicode="&#x1eda;" horiz-adv-x="807" 
d="M404 -9q-81 0 -146.5 26t-113 75t-72.5 118t-25 154q0 86 25.5 155t72.5 117.5t112.5 74.5t146.5 26t146 -26t112.5 -75t72.5 -117.5t25 -154.5t-25.5 -155t-72.5 -117.5t-112.5 -74.5t-145.5 -26zM404 66q82 0 142.5 36.5t93 103t32.5 158.5q0 70 -18.5 125t-54 93.5
t-84.5 59t-111 20.5q-83 0 -143 -36t-92.5 -102.5t-32.5 -159.5q0 -69 19 -124.5t53.5 -94t84 -59t111.5 -20.5zM568 652v50q38 -1 61 11t32 38t4 67h66q7 -56 -9.5 -94t-55 -56t-98.5 -16zM373 798l64 140h83l-84 -140h-63z" />
    <glyph glyph-name="uni1EDB" unicode="&#x1edb;" horiz-adv-x="596" 
d="M298 -9q-57 0 -103.5 19t-80 55t-52 85.5t-18.5 110.5q0 81 31 142t88.5 95.5t134.5 34.5q57 0 103.5 -18.5t79.5 -54.5t51 -86t18 -112q0 -80 -30.5 -141t-87.5 -95.5t-134 -34.5zM298 61q51 0 89 23.5t59.5 69t21.5 108.5q0 47 -12 84.5t-34 64t-53 40.5t-71 14
q-51 0 -89.5 -24.5t-60 -69.5t-21.5 -110q0 -46 11.5 -83.5t34 -63.5t54.5 -39.5t71 -13.5zM381 462v50q38 -1 61 11t32 38t4 67h66q7 -56 -9.5 -94t-55 -56t-98.5 -16zM266 594l64 140h83l-84 -140h-63z" />
    <glyph glyph-name="uni1EDC" unicode="&#x1edc;" horiz-adv-x="807" 
d="M404 -9q-81 0 -146.5 26t-113 75t-72.5 118t-25 154q0 86 25.5 155t72.5 117.5t112.5 74.5t146.5 26t146 -26t112.5 -75t72.5 -117.5t25 -154.5t-25.5 -155t-72.5 -117.5t-112.5 -74.5t-145.5 -26zM404 66q82 0 142.5 36.5t93 103t32.5 158.5q0 70 -18.5 125t-54 93.5
t-84.5 59t-111 20.5q-83 0 -143 -36t-92.5 -102.5t-32.5 -159.5q0 -69 19 -124.5t53.5 -94t84 -59t111.5 -20.5zM568 652v50q38 -1 61 11t32 38t4 67h66q7 -56 -9.5 -94t-55 -56t-98.5 -16zM371 798l-83 140h83l64 -140h-64z" />
    <glyph glyph-name="uni1EDD" unicode="&#x1edd;" horiz-adv-x="596" 
d="M298 -9q-57 0 -103.5 19t-80 55t-52 85.5t-18.5 110.5q0 81 31 142t88.5 95.5t134.5 34.5q57 0 103.5 -18.5t79.5 -54.5t51 -86t18 -112q0 -80 -30.5 -141t-87.5 -95.5t-134 -34.5zM298 61q51 0 89 23.5t59.5 69t21.5 108.5q0 47 -12 84.5t-34 64t-53 40.5t-71 14
q-51 0 -89.5 -24.5t-60 -69.5t-21.5 -110q0 -46 11.5 -83.5t34 -63.5t54.5 -39.5t71 -13.5zM381 462v50q38 -1 61 11t32 38t4 67h66q7 -56 -9.5 -94t-55 -56t-98.5 -16zM265 594l-83 140h83l64 -140h-64z" />
    <glyph glyph-name="uni1EDE" unicode="&#x1ede;" horiz-adv-x="807" 
d="M404 -9q-81 0 -146.5 26t-113 75t-72.5 118t-25 154q0 86 25.5 155t72.5 117.5t112.5 74.5t146.5 26t146 -26t112.5 -75t72.5 -117.5t25 -154.5t-25.5 -155t-72.5 -117.5t-112.5 -74.5t-145.5 -26zM404 66q82 0 142.5 36.5t93 103t32.5 158.5q0 70 -18.5 125t-54 93.5
t-84.5 59t-111 20.5q-83 0 -143 -36t-92.5 -102.5t-32.5 -159.5q0 -69 19 -124.5t53.5 -94t84 -59t111.5 -20.5zM568 652v50q38 -1 61 11t32 38t4 67h66q7 -56 -9.5 -94t-55 -56t-98.5 -16zM370 782l-25 42q40 18 57.5 35.5t17.5 39.5q0 19 -14 29.5t-39 10.5
q-12 0 -23.5 -1.5t-22.5 -5.5l-1 46q16 5 32 7.5t33 2.5q34 0 57.5 -10.5t36.5 -29t13 -42.5q0 -39 -29 -69t-93 -55z" />
    <glyph glyph-name="uni1EDF" unicode="&#x1edf;" horiz-adv-x="596" 
d="M298 -9q-57 0 -103.5 19t-80 55t-52 85.5t-18.5 110.5q0 81 31 142t88.5 95.5t134.5 34.5q57 0 103.5 -18.5t79.5 -54.5t51 -86t18 -112q0 -80 -30.5 -141t-87.5 -95.5t-134 -34.5zM298 61q51 0 89 23.5t59.5 69t21.5 108.5q0 47 -12 84.5t-34 64t-53 40.5t-71 14
q-51 0 -89.5 -24.5t-60 -69.5t-21.5 -110q0 -46 11.5 -83.5t34 -63.5t54.5 -39.5t71 -13.5zM381 462v50q38 -1 61 11t32 38t4 67h66q7 -56 -9.5 -94t-55 -56t-98.5 -16zM264 578l-25 42q40 18 57.5 35.5t17.5 39.5q0 19 -14 29.5t-39 10.5q-12 0 -23.5 -1.5t-22.5 -5.5
l-1 46q16 5 32 7.5t33 2.5q34 0 57.5 -10.5t36.5 -29t13 -42.5q0 -39 -29 -69t-93 -55z" />
    <glyph glyph-name="uni1EE0" unicode="&#x1ee0;" horiz-adv-x="807" 
d="M404 -9q-81 0 -146.5 26t-113 75t-72.5 118t-25 154q0 86 25.5 155t72.5 117.5t112.5 74.5t146.5 26t146 -26t112.5 -75t72.5 -117.5t25 -154.5t-25.5 -155t-72.5 -117.5t-112.5 -74.5t-145.5 -26zM404 66q82 0 142.5 36.5t93 103t32.5 158.5q0 70 -18.5 125t-54 93.5
t-84.5 59t-111 20.5q-83 0 -143 -36t-92.5 -102.5t-32.5 -159.5q0 -69 19 -124.5t53.5 -94t84 -59t111.5 -20.5zM568 652v50q38 -1 61 11t32 38t4 67h66q7 -56 -9.5 -94t-55 -56t-98.5 -16zM472 820q-31 0 -54 7.5t-42.5 14.5t-41.5 7q-20 0 -34.5 -7.5t-26.5 -23.5l-38 22
q15 25 30 39.5t32.5 21t37.5 6.5q24 0 47 -7.5t46.5 -15t46.5 -7.5q17 0 33 7.5t28 24.5l39 -23q-13 -24 -29 -39t-34.5 -21t-39.5 -6z" />
    <glyph glyph-name="uni1EE1" unicode="&#x1ee1;" horiz-adv-x="596" 
d="M298 -9q-57 0 -103.5 19t-80 55t-52 85.5t-18.5 110.5q0 81 31 142t88.5 95.5t134.5 34.5q57 0 103.5 -18.5t79.5 -54.5t51 -86t18 -112q0 -80 -30.5 -141t-87.5 -95.5t-134 -34.5zM298 61q51 0 89 23.5t59.5 69t21.5 108.5q0 47 -12 84.5t-34 64t-53 40.5t-71 14
q-51 0 -89.5 -24.5t-60 -69.5t-21.5 -110q0 -46 11.5 -83.5t34 -63.5t54.5 -39.5t71 -13.5zM381 462v50q38 -1 61 11t32 38t4 67h66q7 -56 -9.5 -94t-55 -56t-98.5 -16zM366 616q-31 0 -54 7.5t-42.5 14.5t-41.5 7q-20 0 -34.5 -7.5t-26.5 -23.5l-38 22q15 25 30 39.5
t32.5 21t37.5 6.5q24 0 47 -7.5t46.5 -15t46.5 -7.5q17 0 33 7.5t28 24.5l39 -23q-13 -24 -29 -39t-34.5 -21t-39.5 -6z" />
    <glyph glyph-name="uni1EE2" unicode="&#x1ee2;" horiz-adv-x="807" 
d="M404 -9q-81 0 -146.5 26t-113 75t-72.5 118t-25 154q0 86 25.5 155t72.5 117.5t112.5 74.5t146.5 26t146 -26t112.5 -75t72.5 -117.5t25 -154.5t-25.5 -155t-72.5 -117.5t-112.5 -74.5t-145.5 -26zM404 66q82 0 142.5 36.5t93 103t32.5 158.5q0 70 -18.5 125t-54 93.5
t-84.5 59t-111 20.5q-83 0 -143 -36t-92.5 -102.5t-32.5 -159.5q0 -69 19 -124.5t53.5 -94t84 -59t111.5 -20.5zM568 652v50q38 -1 61 11t32 38t4 67h66q7 -56 -9.5 -94t-55 -56t-98.5 -16zM404 -157q-20 0 -33.5 12.5t-13.5 32.5q0 21 13.5 32.5t33.5 11.5t33.5 -11.5
t13.5 -32.5q0 -20 -13.5 -32.5t-33.5 -12.5z" />
    <glyph glyph-name="uni1EE3" unicode="&#x1ee3;" horiz-adv-x="596" 
d="M298 -9q-57 0 -103.5 19t-80 55t-52 85.5t-18.5 110.5q0 81 31 142t88.5 95.5t134.5 34.5q57 0 103.5 -18.5t79.5 -54.5t51 -86t18 -112q0 -80 -30.5 -141t-87.5 -95.5t-134 -34.5zM298 61q51 0 89 23.5t59.5 69t21.5 108.5q0 47 -12 84.5t-34 64t-53 40.5t-71 14
q-51 0 -89.5 -24.5t-60 -69.5t-21.5 -110q0 -46 11.5 -83.5t34 -63.5t54.5 -39.5t71 -13.5zM381 462v50q38 -1 61 11t32 38t4 67h66q7 -56 -9.5 -94t-55 -56t-98.5 -16zM297 -157q-20 0 -33.5 12.5t-13.5 32.5q0 21 13.5 32.5t33.5 11.5t33.5 -11.5t13.5 -32.5
q0 -20 -13.5 -32.5t-33.5 -12.5z" />
    <glyph glyph-name="uni1EE4" unicode="&#x1ee4;" horiz-adv-x="728" 
d="M364 -9q-91 0 -156.5 33.5t-100.5 95t-35 147.5v462h85v-460q0 -67 25 -111.5t72 -66.5t111 -22q70 0 116 24.5t68.5 69.5t22.5 106v460h84v-462q0 -84 -34.5 -146t-99.5 -96t-158 -34zM364 -157q-20 0 -33.5 12.5t-13.5 32.5q0 21 13.5 32.5t33.5 11.5t33.5 -11.5
t13.5 -32.5q0 -20 -13.5 -32.5t-33.5 -12.5z" />
    <glyph glyph-name="uni1EE5" unicode="&#x1ee5;" horiz-adv-x="601" 
d="M257 -9q-59 0 -102 23.5t-65.5 71t-22.5 117.5v322h81v-302q0 -52 14 -88.5t44.5 -55.5t78.5 -19q47 0 83 23t56 65t20 97v280h81v-525h-77l-4 112h-6q-20 -56 -69 -88.5t-112 -32.5zM296 -157q-20 0 -33.5 12.5t-13.5 32.5q0 21 13.5 32.5t33.5 11.5t33.5 -11.5
t13.5 -32.5q0 -20 -13.5 -32.5t-33.5 -12.5z" />
    <glyph glyph-name="uni1EE6" unicode="&#x1ee6;" horiz-adv-x="728" 
d="M364 -9q-91 0 -156.5 33.5t-100.5 95t-35 147.5v462h85v-460q0 -67 25 -111.5t72 -66.5t111 -22q70 0 116 24.5t68.5 69.5t22.5 106v460h84v-462q0 -84 -34.5 -146t-99.5 -96t-158 -34zM331 782l-25 42q40 18 57.5 35.5t17.5 39.5q0 19 -14 29.5t-39 10.5
q-12 0 -23.5 -1.5t-22.5 -5.5l-1 46q16 5 32 7.5t33 2.5q34 0 57.5 -10.5t36.5 -29t13 -42.5q0 -39 -29 -69t-93 -55z" />
    <glyph glyph-name="uni1EE7" unicode="&#x1ee7;" horiz-adv-x="601" 
d="M257 -9q-59 0 -102 23.5t-65.5 71t-22.5 117.5v322h81v-302q0 -52 14 -88.5t44.5 -55.5t78.5 -19q47 0 83 23t56 65t20 97v280h81v-525h-77l-4 112h-6q-20 -56 -69 -88.5t-112 -32.5zM262 578l-25 42q40 18 57.5 35.5t17.5 39.5q0 19 -14 29.5t-39 10.5q-12 0 -23.5 -1.5
t-22.5 -5.5l-1 46q16 5 32 7.5t33 2.5q34 0 57.5 -10.5t36.5 -29t13 -42.5q0 -39 -29 -69t-93 -55z" />
    <glyph glyph-name="uni1EE8" unicode="&#x1ee8;" horiz-adv-x="728" 
d="M364 -9q-91 0 -156.5 33.5t-100.5 95t-35 147.5v462h85v-460q0 -67 25 -111.5t72 -66.5t111 -22q70 0 116 24.5t68.5 69.5t22.5 106v460h84v-462q0 -84 -34.5 -146t-99.5 -96t-158 -34zM582 679v50q38 -1 61 11t32 38t4 67h66q7 -56 -9.5 -94t-55 -56t-98.5 -16zM333 798
l64 140h83l-84 -140h-63z" />
    <glyph glyph-name="uni1EE9" unicode="&#x1ee9;" horiz-adv-x="630" 
d="M257 -9q-59 0 -102 23.5t-65.5 71t-22.5 117.5v322h81v-302q0 -52 14 -88.5t44.5 -55.5t78.5 -19q47 0 83 23t56 65t20 97v280h81v-525h-77l-4 112h-6q-20 -56 -69 -88.5t-112 -32.5zM452 475v50q38 -1 61 11t32 38t4 67h66q7 -56 -9.5 -94t-55 -56t-98.5 -16zM265 594
l64 140h83l-84 -140h-63z" />
    <glyph glyph-name="uni1EEA" unicode="&#x1eea;" horiz-adv-x="728" 
d="M364 -9q-91 0 -156.5 33.5t-100.5 95t-35 147.5v462h85v-460q0 -67 25 -111.5t72 -66.5t111 -22q70 0 116 24.5t68.5 69.5t22.5 106v460h84v-462q0 -84 -34.5 -146t-99.5 -96t-158 -34zM582 679v50q38 -1 61 11t32 38t4 67h66q7 -56 -9.5 -94t-55 -56t-98.5 -16zM332 798
l-83 140h83l64 -140h-64z" />
    <glyph glyph-name="uni1EEB" unicode="&#x1eeb;" horiz-adv-x="630" 
d="M257 -9q-59 0 -102 23.5t-65.5 71t-22.5 117.5v322h81v-302q0 -52 14 -88.5t44.5 -55.5t78.5 -19q47 0 83 23t56 65t20 97v280h81v-525h-77l-4 112h-6q-20 -56 -69 -88.5t-112 -32.5zM452 475v50q38 -1 61 11t32 38t4 67h66q7 -56 -9.5 -94t-55 -56t-98.5 -16zM264 594
l-83 140h83l64 -140h-64z" />
    <glyph glyph-name="uni1EEC" unicode="&#x1eec;" horiz-adv-x="728" 
d="M364 -9q-91 0 -156.5 33.5t-100.5 95t-35 147.5v462h85v-460q0 -67 25 -111.5t72 -66.5t111 -22q70 0 116 24.5t68.5 69.5t22.5 106v460h84v-462q0 -84 -34.5 -146t-99.5 -96t-158 -34zM582 679v50q38 -1 61 11t32 38t4 67h66q7 -56 -9.5 -94t-55 -56t-98.5 -16zM331 782
l-25 42q40 18 57.5 35.5t17.5 39.5q0 19 -14 29.5t-39 10.5q-12 0 -23.5 -1.5t-22.5 -5.5l-1 46q16 5 32 7.5t33 2.5q34 0 57.5 -10.5t36.5 -29t13 -42.5q0 -39 -29 -69t-93 -55z" />
    <glyph glyph-name="uni1EED" unicode="&#x1eed;" horiz-adv-x="630" 
d="M257 -9q-59 0 -102 23.5t-65.5 71t-22.5 117.5v322h81v-302q0 -52 14 -88.5t44.5 -55.5t78.5 -19q47 0 83 23t56 65t20 97v280h81v-525h-77l-4 112h-6q-20 -56 -69 -88.5t-112 -32.5zM452 475v50q38 -1 61 11t32 38t4 67h66q7 -56 -9.5 -94t-55 -56t-98.5 -16zM262 578
l-25 42q40 18 57.5 35.5t17.5 39.5q0 19 -14 29.5t-39 10.5q-12 0 -23.5 -1.5t-22.5 -5.5l-1 46q16 5 32 7.5t33 2.5q34 0 57.5 -10.5t36.5 -29t13 -42.5q0 -39 -29 -69t-93 -55z" />
    <glyph glyph-name="uni1EEE" unicode="&#x1eee;" horiz-adv-x="728" 
d="M364 -9q-91 0 -156.5 33.5t-100.5 95t-35 147.5v462h85v-460q0 -67 25 -111.5t72 -66.5t111 -22q70 0 116 24.5t68.5 69.5t22.5 106v460h84v-462q0 -84 -34.5 -146t-99.5 -96t-158 -34zM582 679v50q38 -1 61 11t32 38t4 67h66q7 -56 -9.5 -94t-55 -56t-98.5 -16zM433 820
q-31 0 -54 7.5t-42.5 14.5t-41.5 7q-20 0 -34.5 -7.5t-26.5 -23.5l-38 22q15 25 30 39.5t32.5 21t37.5 6.5q24 0 47 -7.5t46.5 -15t46.5 -7.5q17 0 33 7.5t28 24.5l39 -23q-13 -24 -29 -39t-34.5 -21t-39.5 -6z" />
    <glyph glyph-name="uni1EEF" unicode="&#x1eef;" horiz-adv-x="630" 
d="M257 -9q-59 0 -102 23.5t-65.5 71t-22.5 117.5v322h81v-302q0 -52 14 -88.5t44.5 -55.5t78.5 -19q47 0 83 23t56 65t20 97v280h81v-525h-77l-4 112h-6q-20 -56 -69 -88.5t-112 -32.5zM452 475v50q38 -1 61 11t32 38t4 67h66q7 -56 -9.5 -94t-55 -56t-98.5 -16zM364 616
q-31 0 -54 7.5t-42.5 14.5t-41.5 7q-20 0 -34.5 -7.5t-26.5 -23.5l-38 22q15 25 30 39.5t32.5 21t37.5 6.5q24 0 47 -7.5t46.5 -15t46.5 -7.5q17 0 33 7.5t28 24.5l39 -23q-13 -24 -29 -39t-34.5 -21t-39.5 -6z" />
    <glyph glyph-name="uni1EF0" unicode="&#x1ef0;" horiz-adv-x="728" 
d="M364 -9q-91 0 -156.5 33.5t-100.5 95t-35 147.5v462h85v-460q0 -67 25 -111.5t72 -66.5t111 -22q70 0 116 24.5t68.5 69.5t22.5 106v460h84v-462q0 -84 -34.5 -146t-99.5 -96t-158 -34zM582 679v50q38 -1 61 11t32 38t4 67h66q7 -56 -9.5 -94t-55 -56t-98.5 -16z
M364 -157q-20 0 -33.5 12.5t-13.5 32.5q0 21 13.5 32.5t33.5 11.5t33.5 -11.5t13.5 -32.5q0 -20 -13.5 -32.5t-33.5 -12.5z" />
    <glyph glyph-name="uni1EF1" unicode="&#x1ef1;" horiz-adv-x="630" 
d="M257 -9q-59 0 -102 23.5t-65.5 71t-22.5 117.5v322h81v-302q0 -52 14 -88.5t44.5 -55.5t78.5 -19q47 0 83 23t56 65t20 97v280h81v-525h-77l-4 112h-6q-20 -56 -69 -88.5t-112 -32.5zM452 475v50q38 -1 61 11t32 38t4 67h66q7 -56 -9.5 -94t-55 -56t-98.5 -16zM296 -157
q-20 0 -33.5 12.5t-13.5 32.5q0 21 13.5 32.5t33.5 11.5t33.5 -11.5t13.5 -32.5q0 -20 -13.5 -32.5t-33.5 -12.5z" />
    <glyph glyph-name="Ygrave" unicode="&#x1ef2;" horiz-adv-x="670" 
d="M292 0v291l-270 438h98l122 -205l89 -156h6l91 156l123 205h97l-271 -438v-291h-85zM304 798l-83 140h83l64 -140h-64z" />
    <glyph glyph-name="ygrave" unicode="&#x1ef3;" horiz-adv-x="523" 
d="M56 -167v67h53q24 0 41 7t29.5 21t20.5 36l35 89v-34l-215 506h89l109 -286l47 -125h5l43 125l103 286h87l-227 -581q-15 -40 -36 -64.5t-50 -35.5t-69 -11h-65zM229 594l-83 140h83l64 -140h-64z" />
    <glyph glyph-name="uni1EF4" unicode="&#x1ef4;" horiz-adv-x="670" 
d="M292 0v291l-270 438h98l122 -205l89 -156h6l91 156l123 205h97l-271 -438v-291h-85zM336 -157q-20 0 -33.5 12.5t-13.5 32.5q0 21 13.5 32.5t33.5 11.5t33.5 -11.5t13.5 -32.5q0 -20 -13.5 -32.5t-33.5 -12.5z" />
    <glyph glyph-name="uni1EF5" unicode="&#x1ef5;" horiz-adv-x="523" 
d="M56 -167v67h53q24 0 41 7t29.5 21t20.5 36l35 89v-34l-215 506h89l109 -286l47 -125h5l43 125l103 286h87l-227 -581q-15 -40 -36 -64.5t-50 -35.5t-69 -11h-65zM388 -157q-20 0 -33.5 12.5t-13.5 32.5q0 21 13.5 32.5t33.5 11.5t33.5 -11.5t13.5 -32.5
q0 -20 -13.5 -32.5t-33.5 -12.5z" />
    <glyph glyph-name="uni1EF6" unicode="&#x1ef6;" horiz-adv-x="670" 
d="M292 0v291l-270 438h98l122 -205l89 -156h6l91 156l123 205h97l-271 -438v-291h-85zM302 782l-25 42q40 18 57.5 35.5t17.5 39.5q0 19 -14 29.5t-39 10.5q-12 0 -23.5 -1.5t-22.5 -5.5l-1 46q16 5 32 7.5t33 2.5q34 0 57.5 -10.5t36.5 -29t13 -42.5q0 -39 -29 -69
t-93 -55z" />
    <glyph glyph-name="uni1EF7" unicode="&#x1ef7;" horiz-adv-x="523" 
d="M56 -167v67h53q24 0 41 7t29.5 21t20.5 36l35 89v-34l-215 506h89l109 -286l47 -125h5l43 125l103 286h87l-227 -581q-15 -40 -36 -64.5t-50 -35.5t-69 -11h-65zM228 578l-25 42q40 18 57.5 35.5t17.5 39.5q0 19 -14 29.5t-39 10.5q-12 0 -23.5 -1.5t-22.5 -5.5l-1 46
q16 5 32 7.5t33 2.5q34 0 57.5 -10.5t36.5 -29t13 -42.5q0 -39 -29 -69t-93 -55z" />
    <glyph glyph-name="uni1EF8" unicode="&#x1ef8;" horiz-adv-x="670" 
d="M292 0v291l-270 438h98l122 -205l89 -156h6l91 156l123 205h97l-271 -438v-291h-85zM404 820q-31 0 -54 7.5t-42.5 14.5t-41.5 7q-20 0 -34.5 -7.5t-26.5 -23.5l-38 22q15 25 30 39.5t32.5 21t37.5 6.5q24 0 47 -7.5t46.5 -15t46.5 -7.5q17 0 33 7.5t28 24.5l39 -23
q-13 -24 -29 -39t-34.5 -21t-39.5 -6z" />
    <glyph glyph-name="uni1EF9" unicode="&#x1ef9;" horiz-adv-x="523" 
d="M56 -167v67h53q24 0 41 7t29.5 21t20.5 36l35 89v-34l-215 506h89l109 -286l47 -125h5l43 125l103 286h87l-227 -581q-15 -40 -36 -64.5t-50 -35.5t-69 -11h-65zM330 616q-31 0 -54 7.5t-42.5 14.5t-41.5 7q-20 0 -34.5 -7.5t-26.5 -23.5l-38 22q15 25 30 39.5t32.5 21
t37.5 6.5q24 0 47 -7.5t46.5 -15t46.5 -7.5q17 0 33 7.5t28 24.5l39 -23q-13 -24 -29 -39t-34.5 -21t-39.5 -6z" />
    <glyph glyph-name="endash" unicode="&#x2013;" horiz-adv-x="504" 
d="M54 228v69h396v-69h-396z" />
    <glyph glyph-name="emdash" unicode="&#x2014;" horiz-adv-x="668" 
d="M54 228v69h561v-69h-561z" />
    <glyph glyph-name="quoteleft" unicode="&#x2018;" horiz-adv-x="197" 
d="M166 729q-33 -37 -53.5 -76.5t-24.5 -69.5l-8 4q3 4 9 6.5t13 2.5q22 0 33.5 -12t11.5 -30q0 -21 -13 -33.5t-36 -12.5q-21 0 -36 15t-15 44q0 22 7 45t18 45.5t23.5 41t24.5 30.5h46z" />
    <glyph glyph-name="quoteright" unicode="&#x2019;" horiz-adv-x="197" 
d="M31 516q33 37 54 76.5t24 69.5l8 -5q-3 -3 -9 -6t-14 -3q-20 0 -32 12.5t-12 30.5q0 21 13.5 33t34.5 12q22 0 36.5 -14.5t14.5 -43.5q0 -22 -6.5 -45t-17.5 -45.5t-23.5 -41.5t-25.5 -30h-45z" />
    <glyph glyph-name="quotesinglbase" unicode="&#x201a;" horiz-adv-x="197" 
d="M31 -136q33 37 54 76.5t24 69.5l8 -5q-3 -3 -9 -6t-14 -3q-20 0 -32 12.5t-12 30.5q0 21 13.5 33t34.5 12q22 0 36.5 -14.5t14.5 -43.5q0 -22 -6.5 -45t-17.5 -45.5t-23.5 -41.5t-25.5 -30h-45z" />
    <glyph glyph-name="quotedblleft" unicode="&#x201c;" horiz-adv-x="361" 
d="M331 713q-34 -37 -54.5 -76.5t-24.5 -69.5l-7 5q3 3 8.5 6t13.5 3q22 0 33.5 -12.5t11.5 -30.5q0 -21 -13.5 -33t-35.5 -12q-21 0 -36 14.5t-15 43.5q0 22 6.5 45t17.5 45.5t24 41.5t25 30h46zM166 713q-33 -37 -53.5 -76.5t-24.5 -69.5l-8 5q3 3 9 6t13 3
q22 0 33.5 -12.5t11.5 -30.5q0 -21 -13 -33t-36 -12q-21 0 -36 14.5t-15 43.5q0 22 7 45t18 45.5t23.5 41.5t24.5 30h46z" />
    <glyph glyph-name="quotedblright" unicode="&#x201d;" horiz-adv-x="361" 
d="M31 504q33 37 54 76.5t24 69.5l8 -5q-3 -3 -9 -6t-14 -3q-20 0 -32 12.5t-12 30.5q0 21 13.5 33t34.5 12q22 0 36.5 -14.5t14.5 -43.5q0 -22 -6.5 -45t-17.5 -45.5t-23.5 -41.5t-25.5 -30h-45zM196 504q33 37 54 76.5t24 69.5l8 -5q-3 -3 -9 -6t-14 -3q-20 0 -32 12.5
t-12 30.5q0 21 13.5 33t34.5 12q22 0 36.5 -14.5t14.5 -43.5q0 -22 -6.5 -45t-17.5 -45.5t-23.5 -41.5t-25.5 -30h-45z" />
    <glyph glyph-name="quotedblbase" unicode="&#x201e;" horiz-adv-x="361" 
d="M31 -136q33 37 54 76.5t24 69.5l8 -5q-3 -3 -9 -6t-14 -3q-20 0 -32 12.5t-12 30.5q0 21 13.5 33t34.5 12q22 0 36.5 -14.5t14.5 -43.5q0 -22 -6.5 -45t-17.5 -45.5t-23.5 -41.5t-25.5 -30h-45zM196 -136q33 37 54 76.5t24 69.5l8 -5q-3 -3 -9 -6t-14 -3q-20 0 -32 12.5
t-12 30.5q0 21 13.5 33t34.5 12q22 0 36.5 -14.5t14.5 -43.5q0 -22 -6.5 -45t-17.5 -45.5t-23.5 -41.5t-25.5 -30h-45z" />
    <glyph glyph-name="bullet" unicode="&#x2022;" horiz-adv-x="299" 
d="M149 163q-33 0 -59.5 15t-41.5 41t-15 58q0 33 15 59t41.5 41t60.5 15q52 0 84 -32.5t32 -82.5q0 -32 -14.5 -58t-40.5 -41t-62 -15z" />
    <glyph glyph-name="ellipsis" unicode="&#x2026;" horiz-adv-x="612" 
d="M94 -7q-21 0 -34.5 12.5t-13.5 33.5q0 20 13.5 32.5t34.5 12.5t34.5 -12.5t13.5 -32.5q0 -21 -13.5 -33.5t-34.5 -12.5zM306 -7q-21 0 -34.5 12.5t-13.5 33.5q0 20 13.5 32.5t34.5 12.5t34.5 -12.5t13.5 -32.5q0 -21 -13.5 -33.5t-34.5 -12.5zM519 -7q-21 0 -34.5 12.5
t-13.5 33.5q0 20 13.5 32.5t34.5 12.5t34.5 -12.5t13.5 -32.5q0 -21 -13.5 -33.5t-34.5 -12.5z" />
    <glyph glyph-name="perthousand" unicode="&#x2030;" horiz-adv-x="1182" 
d="M159 0l462 729h66l-463 -729h-65zM204 327q-43 0 -76 23t-51 68t-18 111t18.5 110.5t51.5 67t75 22.5q43 0 75.5 -22.5t50.5 -67t18 -110.5q0 -67 -18.5 -111.5t-50.5 -67.5t-75 -23zM204 380q27 0 45.5 17t28 50.5t9.5 81.5t-9.5 81t-28 49.5t-45.5 16.5t-46 -17
t-28.5 -49.5t-9.5 -80.5q0 -36 5.5 -64t16.5 -47t26.5 -28.5t35.5 -9.5zM643 -6q-43 0 -76 22t-51 67.5t-18 111.5t18 110.5t51 67t76 22.5t75.5 -22.5t50.5 -67.5t18 -111q0 -65 -18.5 -110.5t-50.5 -67.5t-75 -22zM643 46q27 0 45 17t27.5 50t9.5 81q0 49 -9.5 82
t-27.5 50t-45 17t-46 -17t-28.5 -50t-9.5 -82q0 -48 9.5 -81t28.5 -50t46 -17zM979 -6q-43 0 -76 22t-51 67.5t-18 111.5t18 110.5t51 67t76 22.5t75.5 -22.5t50.5 -67.5t18 -111q0 -65 -18.5 -110.5t-50.5 -67.5t-75 -22zM979 46q26 0 44.5 17t28 50t9.5 81q0 49 -9.5 82
t-28 50t-44.5 17q-27 0 -46 -17t-28.5 -50t-9.5 -82q0 -48 9.5 -81t28.5 -50t46 -17z" />
    <glyph glyph-name="guilsinglleft" unicode="&#x2039;" horiz-adv-x="280" 
d="M166 75l-123 226l123 224h70l-111 -224l111 -226h-70z" />
    <glyph glyph-name="guilsinglright" unicode="&#x203a;" horiz-adv-x="280" 
d="M114 525l123 -226l-123 -224h-70l111 224l-111 226h70z" />
    <glyph glyph-name="fraction" unicode="&#x2044;" horiz-adv-x="127" 
d="M-218 0l496 721h67l-497 -721h-66z" />
    <glyph glyph-name="uni2070" unicode="&#x2070;" horiz-adv-x="419" 
d="M209 331q-29 0 -53.5 9.5t-43.5 27.5t-32 44.5t-19.5 61.5t-6.5 78q0 75 19.5 124t54.5 73t81 24q29 0 54 -9.5t43.5 -27.5t31.5 -45t19.5 -62t6.5 -77q0 -75 -19 -124t-54 -73t-82 -24zM209 382q32 0 52.5 18.5t30.5 56t10 95.5q0 35 -3.5 62t-11 47.5t-18.5 33.5
t-26 19.5t-34 6.5q-31 0 -51.5 -18t-31 -55.5t-10.5 -95.5q0 -35 4 -62t11 -47.5t18.5 -33.5t26.5 -20t33 -7z" />
    <glyph glyph-name="uni2074" unicode="&#x2074;" horiz-adv-x="400" 
d="M235 336v401l22 -6l-166 -238h282v-51h-344v48l194 279h73v-433h-61z" />
    <glyph glyph-name="uni2075" unicode="&#x2075;" horiz-adv-x="404" 
d="M202 331q-43 0 -75 16t-49.5 44t-19.5 62h61q2 -20 13 -36t29.5 -24.5t42.5 -8.5q44 0 68 25.5t24 65.5q0 43 -25 67t-65 24q-29 0 -50.5 -13.5t-30.5 -34.5h-61l18 251h265v-54h-211l-13 -141l4 -1q13 20 39 31t55 11q41 0 71.5 -17.5t47.5 -48t17 -71.5q0 -44 -19 -77
t-53.5 -51.5t-82.5 -18.5z" />
    <glyph glyph-name="uni2076" unicode="&#x2076;" horiz-adv-x="418" 
d="M212 331q-38 0 -67.5 12.5t-49.5 38t-30 63t-10 86.5q0 84 18.5 137.5t55.5 79.5t92 26q61 0 99.5 -31t44.5 -82h-61q-6 32 -30 46.5t-55 14.5q-41 0 -63.5 -22t-31.5 -62t-10 -94h3q11 30 40.5 48.5t72.5 18.5q41 0 71.5 -17t47.5 -47.5t17 -70.5q0 -44 -19.5 -76.5
t-54 -50.5t-80.5 -18zM215 385q40 0 64.5 25t24.5 65q0 41 -24.5 65t-64.5 24q-42 0 -66.5 -26t-24.5 -65q0 -27 11.5 -47t32 -30.5t47.5 -10.5z" />
    <glyph glyph-name="uni2077" unicode="&#x2077;" horiz-adv-x="358" 
d="M132 336q0 86 19 153t49 122.5t63 103.5h-178v-85h-49v139h299v-44q-28 -40 -52.5 -81t-43.5 -86.5t-30 -100t-11 -121.5h-66z" />
    <glyph glyph-name="uni2078" unicode="&#x2078;" horiz-adv-x="407" 
d="M204 330q-48 0 -82.5 15t-53.5 42.5t-19 63.5q0 40 24.5 69t65.5 38v3q-32 9 -53.5 36t-21.5 62t17.5 60.5t49 39.5t73.5 14q44 0 75 -14t47.5 -40t16.5 -60q0 -35 -21 -62t-55 -36v-3q44 -9 67.5 -38.5t23.5 -68.5q0 -55 -42.5 -88t-111.5 -33zM204 382q41 0 66 21
t25 56q0 31 -21 53.5t-70 22.5t-70.5 -22t-21.5 -54q0 -35 25.5 -56t66.5 -21zM204 582q43 0 61.5 21.5t18.5 49.5q0 18 -7.5 34t-25.5 26t-47 10q-44 0 -62.5 -21.5t-18.5 -48.5q0 -18 8.5 -34.5t26 -26.5t46.5 -10z" />
    <glyph glyph-name="uni2079" unicode="&#x2079;" horiz-adv-x="418" 
d="M206 774q38 0 67.5 -12.5t49.5 -38t30 -63t10 -86.5q0 -84 -18.5 -137.5t-55.5 -79.5t-92 -26q-60 0 -99 31t-45 83h61q6 -33 30 -47.5t54 -14.5q42 0 64.5 22t31.5 62t10 94h-3q-10 -30 -40 -48.5t-73 -18.5q-40 0 -71 17t-48 48t-17 71q0 43 19.5 75.5t54.5 50.5t80 18
zM203 721q-40 0 -64.5 -25t-24.5 -66q0 -40 25 -64.5t63 -24.5q43 0 67.5 26.5t24.5 65.5q0 27 -11.5 46.5t-31.5 30.5t-48 11z" />
    <glyph glyph-name="uni2080" unicode="&#x2080;" horiz-adv-x="419" 
d="M209 -45q-29 0 -53.5 9.5t-43.5 27.5t-32 44.5t-19.5 61.5t-6.5 78q0 75 19.5 124t54.5 73t81 24q29 0 54 -9.5t43.5 -27.5t31.5 -45t19.5 -62t6.5 -77q0 -75 -19 -124t-54 -73t-82 -24zM209 6q32 0 52.5 18.5t30.5 56t10 95.5q0 35 -3.5 62t-11 47.5t-18.5 33.5
t-26 19.5t-34 6.5q-31 0 -51.5 -18t-31 -55.5t-10.5 -95.5q0 -35 4 -62t11 -47.5t18.5 -33.5t26.5 -20t33 -7z" />
    <glyph glyph-name="uni2081" unicode="&#x2081;" horiz-adv-x="266" 
d="M130 -40v314h-105v46h17q43 0 65 20.5t25 52.5h58v-433h-60z" />
    <glyph glyph-name="uni2082" unicode="&#x2082;" horiz-adv-x="375" 
d="M46 -40v16q0 39 15.5 69t40.5 53.5t53.5 43.5t53.5 39.5t41 41.5t16 49q0 34 -21.5 53.5t-56.5 19.5q-37 0 -60.5 -23t-23.5 -61h-61q1 62 41 99t107 37q63 0 100 -34t37 -89q0 -32 -14 -58t-37.5 -47t-49.5 -39.5t-50.5 -36t-42 -37t-22.5 -42.5h217v-54h-283z" />
    <glyph glyph-name="uni2083" unicode="&#x2083;" horiz-adv-x="393" 
d="M187 -45q-44 0 -76.5 15.5t-50.5 44.5t-20 67h60q2 -37 26.5 -56.5t60.5 -19.5q41 0 65.5 22t24.5 57q0 38 -22 56t-60 18h-44v47h37q41 0 63 20t22 51q0 34 -22 51.5t-58 17.5q-37 0 -60 -20t-25 -54h-60q2 39 21 67t51.5 43.5t73.5 15.5q33 0 58.5 -8t44 -23t28 -36
t9.5 -47q0 -36 -20.5 -61.5t-51.5 -35.5v-4q37 -8 57 -36t20 -66q0 -39 -19 -67t-53.5 -43.5t-79.5 -15.5z" />
    <glyph glyph-name="uni2084" unicode="&#x2084;" horiz-adv-x="400" 
d="M235 -40v401l22 -6l-166 -238h282v-51h-344v48l194 279h73v-433h-61z" />
    <glyph glyph-name="uni2085" unicode="&#x2085;" horiz-adv-x="404" 
d="M202 -45q-43 0 -75 16t-49.5 44t-19.5 62h61q2 -20 13 -36t29.5 -24.5t42.5 -8.5q44 0 68 25.5t24 65.5q0 43 -25 67t-65 24q-29 0 -50.5 -13.5t-30.5 -34.5h-61l18 251h265v-54h-211l-13 -141l4 -1q13 20 39 31t55 11q41 0 71.5 -17.5t47.5 -48t17 -71.5q0 -44 -19 -77
t-53.5 -51.5t-82.5 -18.5z" />
    <glyph glyph-name="uni2086" unicode="&#x2086;" horiz-adv-x="418" 
d="M212 -45q-38 0 -67.5 12.5t-49.5 38t-30 63t-10 86.5q0 84 18.5 137.5t55.5 79.5t92 26q61 0 99.5 -31t44.5 -82h-61q-6 32 -30 46.5t-55 14.5q-41 0 -63.5 -22t-31.5 -62t-10 -94h3q11 30 40.5 48.5t72.5 18.5q41 0 71.5 -17t47.5 -47.5t17 -70.5q0 -44 -19.5 -76.5
t-54 -50.5t-80.5 -18zM215 9q40 0 64.5 25t24.5 65q0 41 -24.5 65t-64.5 24q-42 0 -66.5 -26t-24.5 -65q0 -27 11.5 -47t32 -30.5t47.5 -10.5z" />
    <glyph glyph-name="uni2087" unicode="&#x2087;" horiz-adv-x="358" 
d="M132 -40q0 86 19 153t49 122.5t63 103.5h-178v-85h-49v139h299v-44q-28 -40 -52.5 -81t-43.5 -86.5t-30 -100t-11 -121.5h-66z" />
    <glyph glyph-name="uni2088" unicode="&#x2088;" horiz-adv-x="407" 
d="M204 -46q-48 0 -82.5 15t-53.5 42.5t-19 63.5q0 40 24.5 69t65.5 38v3q-32 9 -53.5 36t-21.5 62t17.5 60.5t49 39.5t73.5 14q44 0 75 -14t47.5 -40t16.5 -60q0 -35 -21 -62t-55 -36v-3q44 -9 67.5 -38.5t23.5 -68.5q0 -55 -42.5 -88t-111.5 -33zM204 6q41 0 66 21t25 56
q0 31 -21 53.5t-70 22.5t-70.5 -22t-21.5 -54q0 -35 25.5 -56t66.5 -21zM204 206q43 0 61.5 21.5t18.5 49.5q0 18 -7.5 34t-25.5 26t-47 10q-44 0 -62.5 -21.5t-18.5 -48.5q0 -18 8.5 -34.5t26 -26.5t46.5 -10z" />
    <glyph glyph-name="uni2089" unicode="&#x2089;" horiz-adv-x="418" 
d="M206 398q38 0 67.5 -12.5t49.5 -38t30 -63t10 -86.5q0 -84 -18.5 -137.5t-55.5 -79.5t-92 -26q-60 0 -99 31t-45 83h61q6 -33 30 -47.5t54 -14.5q42 0 64.5 22t31.5 62t10 94h-3q-10 -30 -40 -48.5t-73 -18.5q-40 0 -71 17t-48 48t-17 71q0 43 19.5 75.5t54.5 50.5t80 18
zM203 345q-40 0 -64.5 -25t-24.5 -66q0 -40 25 -64.5t63 -24.5q43 0 67.5 26.5t24.5 65.5q0 27 -11.5 46.5t-31.5 30.5t-48 11z" />
    <glyph glyph-name="uni20A9" unicode="&#x20a9;" horiz-adv-x="975" 
d="M230 0l-161 729h89l95 -473l36 -192h8l36 190l99 475h113l98 -474l38 -192h8l36 193l93 473h89l-161 -729h-123l-91 435l-40 225h-7l-41 -225l-92 -435h-122zM51 326v63h874v-63h-874z" />
    <glyph glyph-name="uni20AA" unicode="&#x20aa;" horiz-adv-x="808" 
d="M283 0v562h65v-492h287v659h76v-637q0 -48 -24 -70t-67 -22h-337zM99 0v729h338q47 0 68.5 -22.5t21.5 -68.5v-470h-66v492h-288v-660h-74z" />
    <glyph glyph-name="Euro" unicode="&#x20ac;" horiz-adv-x="857" 
d="M474 -9q-80 0 -145 26.5t-111.5 75.5t-72 117.5t-25.5 153.5q0 86 25.5 154.5t72.5 117.5t111.5 75t144.5 26q88 0 157.5 -30.5t114 -86.5t56.5 -133h-89q-10 52 -42 90.5t-82 61t-115 22.5q-81 0 -140.5 -36t-91 -102t-31.5 -159q0 -69 18 -124t52.5 -93.5t83 -59
t109.5 -20.5q65 0 115.5 22t82.5 62t41 93h89q-10 -76 -54 -133.5t-114.5 -88.5t-159.5 -31zM52 256v51h458l-8 -51h-450zM52 422v51h485l-8 -51h-477z" />
    <glyph glyph-name="uni20B8" unicode="&#x20b8;" horiz-adv-x="610" 
d="M264 485h82v-485h-82v485zM558 473h-506v70h506v-70zM558 658h-506v71h506v-71z" />
    <glyph glyph-name="uni20B9" unicode="&#x20b9;" horiz-adv-x="658" 
d="M435 0l-35 185q-9 49 -29 73.5t-49.5 33t-67.5 8.5h-192v66h211q83 0 123.5 32t46.5 89h-381v52h381q-6 43 -27 70.5t-56 40.5t-83 13h-215v66h546v-58h-162v-4q34 -14 58.5 -49t26.5 -78h77v-57h-77q-5 -39 -24.5 -70t-52 -52t-74.5 -29v-6q45 -10 71.5 -42t36.5 -87
l37 -197h-90z" />
    <glyph glyph-name="uni20BA" unicode="&#x20ba;" horiz-adv-x="657" 
d="M148 0v729h82v-651q96 1 158 31.5t96 87t44 131.5h83q-9 -81 -40 -142.5t-81 -103t-118 -62t-152 -20.5h-72zM54 263v65l383 154v-66zM54 433v66l383 153v-65z" />
    <glyph glyph-name="uni20BF" unicode="&#x20bf;" horiz-adv-x="707" 
d="M99 0v729h308q71 0 119 -23.5t73.5 -65t25.5 -98.5q0 -39 -13.5 -72t-40 -57t-66.5 -34v-4q46 -9 76.5 -33.5t46.5 -60t16 -78.5q0 -61 -29 -107t-84 -71t-133 -25h-299zM183 69h208q81 0 122 39t41 101q0 61 -39 96t-111 35h-221v-271zM183 407h217q45 0 75.5 15.5
t46 43t15.5 64.5q0 62 -40.5 96t-108.5 34h-205v-253zM223 -85v126h54v-126h-54zM381 -85v126h54v-126h-54zM223 707v107h54v-107h-54zM381 707v107h54v-107h-54z" />
    <glyph glyph-name="uni2113" unicode="&#x2113;" horiz-adv-x="495" 
d="M278 -8q-40 0 -69.5 18.5t-50 52.5t-33.5 82.5t-18.5 110t-5.5 132.5q0 64 8 118t23 97t38 73.5t53.5 46.5t68.5 16q63 0 95 -49.5t32 -131.5q0 -60 -16 -117.5t-47.5 -109.5t-77 -95t-103.5 -74.5t-128 -48.5v58q74 20 131 59t95 91t57.5 111t19.5 118q0 39 -8 65
t-22 39t-35 13t-38 -11.5t-31 -34.5t-23 -57t-14 -79t-5 -101q0 -75 5 -130.5t14.5 -93t23 -60t31 -32.5t37.5 -10q35 0 58.5 20t37.5 58l59 -25q-15 -40 -40 -66.5t-56 -39.5t-66 -13z" />
    <glyph glyph-name="uni2116" unicode="&#x2116;" horiz-adv-x="1151" 
d="M99 0v729h110l410 -616h6l-5 247v369h83v-729h-106l-410 613h-6l5 -234v-379h-87zM818 205v56h238v-56h-238zM938 322q-46 0 -81 23.5t-54.5 70.5t-19.5 115q0 69 19.5 115t54.5 69.5t81 23.5t80.5 -23.5t53.5 -69.5t19 -115t-19.5 -115.5t-53.5 -70t-80 -23.5zM938 379
q28 0 46.5 17.5t28.5 51.5t10 83t-10 83t-28.5 51t-46.5 17t-47.5 -17.5t-29 -51t-9.5 -82.5t9.5 -83t29 -51.5t47.5 -17.5z" />
    <glyph glyph-name="uni2117" unicode="&#x2117;" horiz-adv-x="866" 
d="M313 166v397h166q68 0 106 -33t38 -92q0 -57 -37.5 -91.5t-106.5 -34.5h-113v44h100q43 0 68 20t25 60t-25.5 59.5t-67.5 19.5h-90v-349h-63zM433 -10q-84 0 -153.5 26.5t-120 76.5t-78 118.5t-27.5 152.5t27.5 152.5t78 118t120 76t153.5 26.5t154 -26.5t120 -76
t77.5 -118t27.5 -152.5t-27.5 -152.5t-77.5 -118.5t-120 -76.5t-154 -26.5zM433 34q99 0 173.5 41.5t116 115.5t41.5 173q0 98 -41.5 172.5t-116 116t-173.5 41.5q-98 0 -172.5 -41.5t-116 -116t-41.5 -172.5q0 -99 41.5 -173t116 -115.5t172.5 -41.5z" />
    <glyph glyph-name="trademark" unicode="&#x2122;" horiz-adv-x="829" 
d="M363 418v311h77l104 -241h3l103 241h79v-311h-57v133l3 108h-3l-104 -241h-45l-104 241h-2l1 -108v-133h-55zM151 418v260h-102v51h266v-51h-106v-260h-58z" />
    <glyph glyph-name="estimated" unicode="&#x212e;" horiz-adv-x="853" 
d="M457 -9q-110 0 -192.5 46.5t-128.5 130.5t-46 196t43 196t121 130.5t182 46.5q98 0 171.5 -40t114.5 -112t41 -169v-57h-531v-246q43 -40 98 -60.5t127 -20.5q74 0 142.5 25.5t114.5 66.5l22 -34q-52 -47 -126.5 -73t-152.5 -26zM232 398h406v222q-33 41 -89.5 59.5
t-112.5 18.5q-53 0 -109.5 -20t-94.5 -64v-216z" />
    <glyph glyph-name="oneeighth" unicode="&#x215b;" horiz-adv-x="754" 
d="M123 338v284h-96v41h15q40 0 59.5 18t22.5 48h53v-391h-54zM35 0l496 721h67l-497 -721h-66zM562 -6q-43 0 -75 14t-49 39t-17 57q0 37 22.5 63t59.5 34v2q-30 8 -49.5 32.5t-19.5 55.5q0 32 16 55t44.5 36t67.5 13t67.5 -13t44 -36t15.5 -55t-19.5 -56t-49.5 -32v-2
q37 -8 59.5 -34.5t22.5 -62.5q0 -50 -39 -80t-101 -30zM562 41q37 0 60 19.5t23 50.5q0 29 -19 49t-64 20t-65 -20t-20 -49q0 -31 23.5 -50.5t61.5 -19.5zM562 223q40 0 56.5 19t16.5 44t-16.5 44t-56.5 19q-41 0 -58 -19t-17 -44q0 -16 7.5 -30.5t24 -23.5t43.5 -9z" />
    <glyph glyph-name="threeeighths" unicode="&#x215c;" horiz-adv-x="859" 
d="M176 333q-59 0 -95.5 32t-38.5 83h54q1 -31 23.5 -49.5t56.5 -18.5q37 0 59.5 19t22.5 52t-20 50t-55 17h-40v41h33q38 0 59 18.5t21 46.5q0 31 -20.5 47t-54.5 16q-33 0 -54.5 -18t-23.5 -49h-53q2 53 39 83.5t94 30.5q29 0 52 -7.5t40 -21t26 -32.5t9 -43
q0 -31 -18.5 -54t-47.5 -33v-3q32 -8 51 -32.5t19 -60.5q0 -53 -38.5 -83.5t-99.5 -30.5zM140 0l496 721h67l-497 -721h-66zM667 -6q-43 0 -75 14t-49 39t-17 57q0 37 22.5 63t59.5 34v2q-30 8 -49.5 32.5t-19.5 55.5q0 32 16 55t44.5 36t67.5 13t67.5 -13t44 -36t15.5 -55
t-19.5 -56t-49.5 -32v-2q37 -8 59.5 -34.5t22.5 -62.5q0 -50 -39 -80t-101 -30zM667 41q37 0 60 19.5t23 50.5q0 29 -19 49t-64 20t-65 -20t-20 -49q0 -31 23.5 -50.5t61.5 -19.5zM667 223q40 0 56.5 19t16.5 44t-16.5 44t-56.5 19q-41 0 -58 -19t-17 -44q0 -16 7.5 -30.5
t24 -23.5t43.5 -9z" />
    <glyph glyph-name="fiveeighths" unicode="&#x215d;" horiz-adv-x="871" 
d="M191 333q-57 0 -93 30.5t-39 79.5h55q3 -28 24 -45.5t54 -17.5q40 0 62 24t22 59q0 39 -22.5 60.5t-59.5 21.5q-28 0 -47 -12t-27 -30h-55l17 226h240v-49h-193l-10 -127h2q11 15 34.5 26t52.5 11q55 0 89.5 -34.5t34.5 -90.5q0 -39 -17.5 -69t-49.5 -46.5t-74 -16.5z
M152 0l496 721h67l-497 -721h-66zM679 -6q-43 0 -75 14t-49 39t-17 57q0 37 22.5 63t59.5 34v2q-30 8 -49.5 32.5t-19.5 55.5q0 32 16 55t44.5 36t67.5 13t67.5 -13t44 -36t15.5 -55t-19.5 -56t-49.5 -32v-2q37 -8 59.5 -34.5t22.5 -62.5q0 -50 -39 -80t-101 -30zM679 41
q37 0 60 19.5t23 50.5q0 29 -19 49t-64 20t-65 -20t-20 -49q0 -31 23.5 -50.5t61.5 -19.5zM679 223q40 0 56.5 19t16.5 44t-16.5 44t-56.5 19q-41 0 -58 -19t-17 -44q0 -16 7.5 -30.5t24 -23.5t43.5 -9z" />
    <glyph glyph-name="seveneighths" unicode="&#x215e;" horiz-adv-x="795" 
d="M124 338q0 76 16.5 136t44 110.5t58.5 96.5h-163v-77h-44v125h273v-39q-26 -37 -49 -74t-40 -78.5t-27 -90.5t-10 -109h-59zM76 0l496 721h67l-497 -721h-66zM604 -6q-43 0 -75 14t-49 39t-17 57q0 37 22.5 63t59.5 34v2q-30 8 -49.5 32.5t-19.5 55.5q0 32 16 55t44.5 36
t67.5 13t67.5 -13t44 -36t15.5 -55t-19.5 -56t-49.5 -32v-2q37 -8 59.5 -34.5t22.5 -62.5q0 -50 -39 -80t-101 -30zM604 41q37 0 60 19.5t23 50.5q0 29 -19 49t-64 20t-65 -20t-20 -49q0 -31 23.5 -50.5t61.5 -19.5zM604 223q40 0 56.5 19t16.5 44t-16.5 44t-56.5 19
q-41 0 -58 -19t-17 -44q0 -16 7.5 -30.5t24 -23.5t43.5 -9z" />
    <glyph glyph-name="arrowleft" unicode="&#x2190;" horiz-adv-x="746" 
d="M646 401v-72h-449l115 -160h-78l-139 196l139 196h78l-115 -160h449z" />
    <glyph glyph-name="arrowup" unicode="&#x2191;" horiz-adv-x="526" 
d="M227 89v448l-160 -114v77l196 140l197 -140v-77l-160 114v-448h-73z" />
    <glyph glyph-name="arrowright" unicode="&#x2192;" horiz-adv-x="746" 
d="M100 401h449l-115 160h78l139 -196l-139 -196h-78l115 160h-449v72z" />
    <glyph glyph-name="arrowdown" unicode="&#x2193;" horiz-adv-x="513" 
d="M227 640h73v-448l160 114v-77l-196 -140l-197 140v77l160 -114v448z" />
    <glyph glyph-name="arrowboth" unicode="&#x2194;" horiz-adv-x="830" 
d="M203 169l-140 196l140 196h77l-115 -160h499l-114 160h77l140 -196l-140 -196h-77l114 160h-499l115 -160h-77z" />
    <glyph glyph-name="emptyset" unicode="&#x2205;" horiz-adv-x="804" 
d="M402 -7q-76 0 -142.5 27t-116.5 76.5t-78.5 118.5t-28.5 151q0 81 28.5 149t78.5 117.5t116.5 76.5t142.5 27t142.5 -27t116.5 -76.5t78 -117.5t28 -149q0 -82 -28 -151t-78 -118.5t-116.5 -76.5t-142.5 -27zM402 34q66 0 124 24.5t102 69t69 105.5t25 133q0 42 -8.5 80
t-24.5 71l-555 -337q44 -67 114.5 -106.5t153.5 -39.5zM115 215l553 339q-44 65 -113.5 103t-152.5 38q-65 0 -123.5 -24.5t-102.5 -68.5t-69.5 -104t-25.5 -132q0 -41 9 -79t25 -72z" />
    <glyph glyph-name="product" unicode="&#x220f;" horiz-adv-x="743" 
d="M76 -151v880h591v-880h-85v802h-421v-802h-85z" />
    <glyph glyph-name="summation" unicode="&#x2211;" horiz-adv-x="541" 
d="M28 -151v89l261 347v9l-261 346v89h488v-81h-220h-163v-5l269 -354l-269 -354v-5h163h220v-81h-488z" />
    <glyph glyph-name="minus" unicode="&#x2212;" horiz-adv-x="600" 
d="M62 328v66h476v-66h-476z" />
    <glyph glyph-name="radical" unicode="&#x221a;" horiz-adv-x="659" 
d="M253 -151l-153 479h-81v76h148l137 -455h4l243 780h91l-283 -880h-106z" />
    <glyph glyph-name="infinity" unicode="&#x221e;" horiz-adv-x="901" 
d="M241 154q-58 0 -102 27t-68.5 74.5t-24.5 107.5q0 59 24.5 107t68 77t102.5 29q50 0 88.5 -22t68 -57t53.5 -76q25 41 54.5 76t68 57t88.5 22q59 0 102.5 -29t67 -77t23.5 -107q0 -57 -23.5 -104.5t-67 -76t-102.5 -28.5q-49 0 -87 20t-68 55t-56 79q-24 -42 -54 -77
t-68.5 -56t-87.5 -21zM244 229q49 0 87.5 34.5t79.5 101.5q-41 65 -78.5 100t-88.5 35q-36 0 -63.5 -17.5t-42.5 -48.5t-15 -69q0 -61 33 -98.5t88 -37.5zM658 229q36 0 63.5 18t42.5 49t15 69t-15 68.5t-42.5 48.5t-63.5 18q-34 0 -62 -16t-53 -46t-52 -73q28 -43 53 -73.5
t52.5 -46.5t61.5 -16z" />
    <glyph glyph-name="integral" unicode="&#x222b;" horiz-adv-x="402" 
d="M16 -151v68h144v727q0 40 21 62.5t58 22.5h147v-69h-145v-729q0 -36 -19 -59t-60 -23h-146z" />
    <glyph glyph-name="approxequal" unicode="&#x2248;" horiz-adv-x="600" 
d="M383 194q-25 0 -49 8.5t-45.5 19t-40.5 18.5t-37 8q-23 0 -35 -18t-10 -43h-47q-3 52 11 80.5t36.5 39.5t43.5 11q24 0 45.5 -8t42.5 -18.5t41.5 -18.5t40.5 -8q28 0 42 16.5t14 46.5h47q2 -36 -5 -61.5t-21 -41.5t-33 -23.5t-41 -7.5zM383 407q-26 0 -49.5 7.5t-45 18
t-40.5 18t-37 7.5q-16 0 -27 -8t-15 -21t-3 -31h-47q-3 49 9.5 77t34 40.5t46.5 12.5q24 0 46 -7.5t43 -18t41.5 -19t40.5 -8.5q28 0 42 17t14 46h47q2 -33 -4.5 -58t-19.5 -40.5t-32 -24t-44 -8.5z" />
    <glyph glyph-name="notequal" unicode="&#x2260;" horiz-adv-x="600" 
d="M148 101l245 529h59l-243 -529h-61zM62 215v66h476v-66h-476zM62 441v65h476v-65h-476z" />
    <glyph glyph-name="lessequal" unicode="&#x2264;" horiz-adv-x="600" 
d="M540 140l-488 190v91l488 188v-74l-410 -157v-5l410 -159v-74zM52 0v61h488v-61h-488z" />
    <glyph glyph-name="greaterequal" unicode="&#x2265;" horiz-adv-x="600" 
d="M60 140v74l410 159v5l-410 157v74l488 -188v-91zM60 0v61h488v-61h-488z" />
    <glyph glyph-name="uni2460" unicode="&#x2460;" horiz-adv-x="866" 
d="M433 -10q-84 0 -153.5 26.5t-120 76.5t-78 118.5t-27.5 152.5t27.5 152.5t78 118t120 76t153.5 26.5t154 -26.5t120 -76t77.5 -118t27.5 -152.5t-27.5 -152.5t-77.5 -118.5t-120 -76.5t-154 -26.5zM433 34q99 0 173.5 41.5t116 115.5t41.5 173q0 98 -41.5 172.5t-116 116
t-173.5 41.5q-98 0 -172.5 -41.5t-116 -116t-41.5 -172.5q0 -99 41.5 -173t116 -115.5t172.5 -41.5zM427 150v314h-105v46h17q43 0 65 20.5t25 52.5h58v-433h-60z" />
    <glyph glyph-name="uni2461" unicode="&#x2461;" horiz-adv-x="866" 
d="M433 -10q-84 0 -153.5 26.5t-120 76.5t-78 118.5t-27.5 152.5t27.5 152.5t78 118t120 76t153.5 26.5t154 -26.5t120 -76t77.5 -118t27.5 -152.5t-27.5 -152.5t-77.5 -118.5t-120 -76.5t-154 -26.5zM433 34q99 0 173.5 41.5t116 115.5t41.5 173q0 98 -41.5 172.5t-116 116
t-173.5 41.5q-98 0 -172.5 -41.5t-116 -116t-41.5 -172.5q0 -99 41.5 -173t116 -115.5t172.5 -41.5zM292 150v16q0 39 15.5 69t40.5 53.5t53.5 43.5t53.5 39.5t41 41.5t16 49q0 34 -21.5 53.5t-56.5 19.5q-37 0 -60.5 -23t-23.5 -61h-61q1 62 41 99t107 37q63 0 100 -34
t37 -89q0 -32 -14 -58t-37.5 -47t-49.5 -39.5t-50.5 -36t-42 -37t-22.5 -42.5h217v-54h-283z" />
    <glyph glyph-name="uni2462" unicode="&#x2462;" horiz-adv-x="866" 
d="M433 -10q-84 0 -153.5 26.5t-120 76.5t-78 118.5t-27.5 152.5t27.5 152.5t78 118t120 76t153.5 26.5t154 -26.5t120 -76t77.5 -118t27.5 -152.5t-27.5 -152.5t-77.5 -118.5t-120 -76.5t-154 -26.5zM433 34q99 0 173.5 41.5t116 115.5t41.5 173q0 98 -41.5 172.5t-116 116
t-173.5 41.5q-98 0 -172.5 -41.5t-116 -116t-41.5 -172.5q0 -99 41.5 -173t116 -115.5t172.5 -41.5zM430 145q-44 0 -76.5 15.5t-50.5 44.5t-20 67h60q2 -37 26.5 -56.5t60.5 -19.5q41 0 65.5 22t24.5 57q0 38 -22 56t-60 18h-44v47h37q41 0 63 20t22 51q0 34 -22 51.5
t-58 17.5q-37 0 -60 -20t-25 -54h-60q2 39 21 67t51.5 43.5t73.5 15.5q33 0 58.5 -8t44 -23t28 -36t9.5 -47q0 -36 -20.5 -61.5t-51.5 -35.5v-4q37 -8 57 -36t20 -66q0 -39 -19 -67t-53.5 -43.5t-79.5 -15.5z" />
    <glyph glyph-name="uni2463" unicode="&#x2463;" horiz-adv-x="866" 
d="M433 -10q-84 0 -153.5 26.5t-120 76.5t-78 118.5t-27.5 152.5t27.5 152.5t78 118t120 76t153.5 26.5t154 -26.5t120 -76t77.5 -118t27.5 -152.5t-27.5 -152.5t-77.5 -118.5t-120 -76.5t-154 -26.5zM433 34q99 0 173.5 41.5t116 115.5t41.5 173q0 98 -41.5 172.5t-116 116
t-173.5 41.5q-98 0 -172.5 -41.5t-116 -116t-41.5 -172.5q0 -99 41.5 -173t116 -115.5t172.5 -41.5zM467 150v401l22 -6l-166 -238h282v-51h-344v48l194 279h73v-433h-61z" />
    <glyph glyph-name="uni2464" unicode="&#x2464;" horiz-adv-x="866" 
d="M433 -10q-84 0 -153.5 26.5t-120 76.5t-78 118.5t-27.5 152.5t27.5 152.5t78 118t120 76t153.5 26.5t154 -26.5t120 -76t77.5 -118t27.5 -152.5t-27.5 -152.5t-77.5 -118.5t-120 -76.5t-154 -26.5zM433 34q99 0 173.5 41.5t116 115.5t41.5 173q0 98 -41.5 172.5t-116 116
t-173.5 41.5q-98 0 -172.5 -41.5t-116 -116t-41.5 -172.5q0 -99 41.5 -173t116 -115.5t172.5 -41.5zM427 145q-43 0 -75 16t-49.5 44t-19.5 62h61q2 -20 13 -36t29.5 -24.5t42.5 -8.5q44 0 68 25.5t24 65.5q0 43 -25 67t-65 24q-29 0 -50.5 -13.5t-30.5 -34.5h-61l18 251
h265v-54h-211l-13 -141l4 -1q13 20 39 31t55 11q41 0 71.5 -17.5t47.5 -48t17 -71.5q0 -44 -19 -77t-53.5 -51.5t-82.5 -18.5z" />
    <glyph glyph-name="uni2465" unicode="&#x2465;" horiz-adv-x="866" 
d="M433 -10q-84 0 -153.5 26.5t-120 76.5t-78 118.5t-27.5 152.5t27.5 152.5t78 118t120 76t153.5 26.5t154 -26.5t120 -76t77.5 -118t27.5 -152.5t-27.5 -152.5t-77.5 -118.5t-120 -76.5t-154 -26.5zM433 34q99 0 173.5 41.5t116 115.5t41.5 173q0 98 -41.5 172.5t-116 116
t-173.5 41.5q-98 0 -172.5 -41.5t-116 -116t-41.5 -172.5q0 -99 41.5 -173t116 -115.5t172.5 -41.5zM434 145q-38 0 -67.5 12.5t-49.5 38t-30 63t-10 86.5q0 84 18.5 137.5t55.5 79.5t92 26q61 0 99.5 -31t44.5 -82h-61q-6 32 -30 46.5t-55 14.5q-41 0 -63.5 -22t-31.5 -62
t-10 -94h3q11 30 40.5 48.5t72.5 18.5q41 0 71.5 -17t47.5 -47.5t17 -70.5q0 -44 -19.5 -76.5t-54 -50.5t-80.5 -18zM437 199q40 0 64.5 25t24.5 65q0 41 -24.5 65t-64.5 24q-42 0 -66.5 -26t-24.5 -65q0 -27 11.5 -47t32 -30.5t47.5 -10.5z" />
    <glyph glyph-name="uni2466" unicode="&#x2466;" horiz-adv-x="866" 
d="M433 -10q-84 0 -153.5 26.5t-120 76.5t-78 118.5t-27.5 152.5t27.5 152.5t78 118t120 76t153.5 26.5t154 -26.5t120 -76t77.5 -118t27.5 -152.5t-27.5 -152.5t-77.5 -118.5t-120 -76.5t-154 -26.5zM433 34q99 0 173.5 41.5t116 115.5t41.5 173q0 98 -41.5 172.5t-116 116
t-173.5 41.5q-98 0 -172.5 -41.5t-116 -116t-41.5 -172.5q0 -99 41.5 -173t116 -115.5t172.5 -41.5zM379 150q0 86 19 153t49 122.5t63 103.5h-178v-85h-49v139h299v-44q-28 -40 -52.5 -81t-43.5 -86.5t-30 -100t-11 -121.5h-66z" />
    <glyph glyph-name="uni2467" unicode="&#x2467;" horiz-adv-x="866" 
d="M433 -10q-84 0 -153.5 26.5t-120 76.5t-78 118.5t-27.5 152.5t27.5 152.5t78 118t120 76t153.5 26.5t154 -26.5t120 -76t77.5 -118t27.5 -152.5t-27.5 -152.5t-77.5 -118.5t-120 -76.5t-154 -26.5zM433 34q99 0 173.5 41.5t116 115.5t41.5 173q0 98 -41.5 172.5t-116 116
t-173.5 41.5q-98 0 -172.5 -41.5t-116 -116t-41.5 -172.5q0 -99 41.5 -173t116 -115.5t172.5 -41.5zM433 144q-48 0 -82.5 15t-53.5 42.5t-19 63.5q0 40 24.5 69t65.5 38v3q-32 9 -53.5 36t-21.5 62t17.5 60.5t49 39.5t73.5 14q44 0 75 -14t47.5 -40t16.5 -60q0 -35 -21 -62
t-55 -36v-3q44 -9 67.5 -38.5t23.5 -68.5q0 -55 -42.5 -88t-111.5 -33zM433 196q41 0 66 21t25 56q0 31 -21 53.5t-70 22.5t-70.5 -22t-21.5 -54q0 -35 25.5 -56t66.5 -21zM433 396q43 0 61.5 21.5t18.5 49.5q0 18 -7.5 34t-25.5 26t-47 10q-44 0 -62.5 -21.5t-18.5 -48.5
q0 -18 8.5 -34.5t26 -26.5t46.5 -10z" />
    <glyph glyph-name="uni2468" unicode="&#x2468;" horiz-adv-x="866" 
d="M433 -10q-84 0 -153.5 26.5t-120 76.5t-78 118.5t-27.5 152.5t27.5 152.5t78 118t120 76t153.5 26.5t154 -26.5t120 -76t77.5 -118t27.5 -152.5t-27.5 -152.5t-77.5 -118.5t-120 -76.5t-154 -26.5zM433 34q99 0 173.5 41.5t116 115.5t41.5 173q0 98 -41.5 172.5t-116 116
t-173.5 41.5q-98 0 -172.5 -41.5t-116 -116t-41.5 -172.5q0 -99 41.5 -173t116 -115.5t172.5 -41.5zM432 583q38 0 67.5 -13t49.5 -38.5t30 -63t10 -86.5q0 -83 -18 -137t-55.5 -80t-92.5 -26q-60 0 -99 31.5t-45 82.5h61q6 -32 30 -46.5t55 -14.5q41 0 63.5 22t31.5 62
t10 94h-3q-10 -31 -40 -49.5t-73 -18.5q-40 0 -71 17t-48 48t-17 71q0 44 19.5 76t54.5 50.5t80 18.5zM429 529q-40 0 -64.5 -24.5t-24.5 -66.5q0 -40 25 -64t64 -24q42 0 66.5 26.5t24.5 64.5q0 27 -11.5 47t-31.5 30.5t-48 10.5z" />
    <glyph glyph-name="uni24EA" unicode="&#x24ea;" horiz-adv-x="866" 
d="M433 -10q-84 0 -153.5 26.5t-120 76.5t-78 118.5t-27.5 152.5t27.5 152.5t78 118t120 76t153.5 26.5t154 -26.5t120 -76t77.5 -118t27.5 -152.5t-27.5 -152.5t-77.5 -118.5t-120 -76.5t-154 -26.5zM433 34q99 0 173.5 41.5t116 115.5t41.5 173q0 98 -41.5 172.5t-116 116
t-173.5 41.5q-98 0 -172.5 -41.5t-116 -116t-41.5 -172.5q0 -99 41.5 -173t116 -115.5t172.5 -41.5zM433 145q-29 0 -53.5 9.5t-43.5 27.5t-32 44.5t-19.5 61.5t-6.5 78q0 75 19.5 124t54.5 73t81 24q29 0 54 -9.5t43.5 -27.5t31.5 -45t19.5 -62t6.5 -77q0 -75 -19 -124
t-54 -73t-82 -24zM433 196q32 0 52.5 18.5t30.5 56t10 95.5q0 35 -3.5 62t-11 47.5t-18.5 33.5t-26 19.5t-34 6.5q-31 0 -51.5 -18t-31 -55.5t-10.5 -95.5q0 -35 4 -62t11 -47.5t18.5 -33.5t26.5 -20t33 -7z" />
    <glyph glyph-name="uni24FF" unicode="&#x24ff;" horiz-adv-x="866" 
d="M433 -10q-84 0 -153.5 26.5t-120 76.5t-78 118.5t-27.5 152.5t27.5 152.5t78 118t120 76t153.5 26.5t154 -26.5t120 -76t77.5 -118t27.5 -152.5t-27.5 -152.5t-77.5 -118.5t-120 -76.5t-154 -26.5zM433 144q47 0 82 24t54.5 73t19.5 124q0 72 -18.5 121.5t-53 75
t-84.5 25.5q-46 0 -81 -24t-54.5 -73t-19.5 -125q0 -71 18.5 -120.5t53.5 -75t83 -25.5zM433 196q-31 0 -51.5 18.5t-30.5 56t-10 94.5q0 59 10 96t30.5 55.5t51.5 18.5q32 0 52.5 -18.5t30.5 -55.5t10 -96q0 -57 -10 -94.5t-30.5 -56t-52.5 -18.5z" />
    <glyph glyph-name="circle" unicode="&#x25cb;" horiz-adv-x="866" 
d="M433 -10q-84 0 -153.5 26.5t-120 76.5t-78 118.5t-27.5 152.5t27.5 152.5t78 118t120 76t153.5 26.5t154 -26.5t120 -76t77.5 -118t27.5 -152.5t-27.5 -152.5t-77.5 -118.5t-120 -76.5t-154 -26.5zM433 34q99 0 173.5 41.5t116 115.5t41.5 173q0 98 -41.5 172.5t-116 116
t-173.5 41.5q-98 0 -172.5 -41.5t-116 -116t-41.5 -172.5q0 -99 41.5 -173t116 -115.5t172.5 -41.5z" />
    <glyph glyph-name="uni25CC" unicode="&#x25cc;" horiz-adv-x="730" 
d="M365 589q-19 0 -32 13t-13 32q0 20 13 32.5t32 12.5q20 0 32.5 -12.5t12.5 -32.5q0 -19 -12.5 -32t-32.5 -13zM500 553q-19 0 -32 13t-13 32q0 20 13 32.5t32 12.5q20 0 32.5 -12.5t12.5 -32.5q0 -19 -12.5 -32t-32.5 -13zM599 454q-19 0 -32 13t-13 32q0 20 13 32.5
t32 12.5q20 0 32.5 -12.5t12.5 -32.5q0 -19 -12.5 -32t-32.5 -13zM635 320q-19 0 -32 12.5t-13 32.5t13 32t32 12q20 0 32.5 -12t12.5 -32t-12.5 -32.5t-32.5 -12.5zM599 185q-19 0 -32 13t-13 32q0 20 13 32.5t32 12.5q20 0 32.5 -12.5t12.5 -32.5q0 -19 -12.5 -32
t-32.5 -13zM500 86q-19 0 -32 13t-13 32q0 20 13 32.5t32 12.5q20 0 32.5 -12.5t12.5 -32.5q0 -19 -12.5 -32t-32.5 -13zM365 50q-19 0 -32 13t-13 32q0 20 13 32.5t32 12.5q20 0 32.5 -12.5t12.5 -32.5q0 -19 -12.5 -32t-32.5 -13zM230 86q-19 0 -32 13t-13 32
q0 20 13 32.5t32 12.5q20 0 32.5 -12.5t12.5 -32.5q0 -19 -12.5 -32t-32.5 -13zM131 185q-19 0 -32 13t-13 32q0 20 13 32.5t32 12.5q20 0 32.5 -12.5t12.5 -32.5q0 -19 -12.5 -32t-32.5 -13zM95 320q-19 0 -32 12.5t-13 32.5t13 32t32 12q20 0 32.5 -12t12.5 -32
t-12.5 -32.5t-32.5 -12.5zM131 454q-19 0 -32 13t-13 32q0 20 13 32.5t32 12.5q20 0 32.5 -12.5t12.5 -32.5q0 -19 -12.5 -32t-32.5 -13zM230 553q-19 0 -32 13t-13 32q0 20 13 32.5t32 12.5q20 0 32.5 -12.5t12.5 -32.5q0 -19 -12.5 -32t-32.5 -13z" />
    <glyph glyph-name="uni25CF" unicode="&#x25cf;" horiz-adv-x="866" 
d="M433 -10q-84 0 -153.5 26.5t-120 76.5t-78 118.5t-27.5 152.5t27.5 152.5t78 118t120 76t153.5 26.5t154 -26.5t120 -76t77.5 -118t27.5 -152.5t-27.5 -152.5t-77.5 -118.5t-120 -76.5t-154 -26.5z" />
    <glyph glyph-name="uni2639" unicode="&#x2639;" horiz-adv-x="860" 
d="M430 -10q-81 0 -149.5 27t-119 77t-79 119t-28.5 153t28.5 152t79 118t119 76.5t149.5 26.5q82 0 150.5 -26.5t119 -76.5t78.5 -118t28 -152t-28 -153t-78.5 -119t-119 -77t-150.5 -27zM195 166q24 71 86.5 111.5t147.5 40.5q87 0 149 -40.5t86 -111.5h-42
q-22 52 -74 82.5t-119 30.5q-66 0 -118 -30.5t-74 -82.5h-42zM431 32q96 0 170.5 41.5t116.5 117t42 175.5t-42 174.5t-116.5 115.5t-170.5 41q-97 0 -172 -41t-117 -115.5t-42 -174.5t42 -175.5t117 -117t172 -41.5zM352 409q-21 0 -35.5 13.5t-14.5 34.5t14.5 34t35.5 13
t35 -13t14 -34t-14 -34.5t-35 -13.5zM510 409q-21 0 -35.5 13.5t-14.5 34.5t14.5 34t35.5 13q20 0 34.5 -13t14.5 -34t-14.5 -34.5t-34.5 -13.5z" />
    <glyph glyph-name="smileface" unicode="&#x263a;" horiz-adv-x="860" 
d="M430 -10q-81 0 -149.5 27t-119 77t-79 119t-28.5 153t28.5 152t79 118t119 76.5t149.5 26.5q82 0 150.5 -26.5t119 -76.5t78.5 -118t28 -152t-28 -153t-78.5 -119t-119 -77t-150.5 -27zM429 110q-65 0 -117 24.5t-85 69t-42 103.5h-32v21h114v-21h-39q8 -46 35.5 -81
t70.5 -54.5t95 -19.5q54 0 97 19.5t70.5 54.5t33.5 81h-37v21h114v-21h-33q-9 -59 -42 -103.5t-84.5 -69t-118.5 -24.5zM431 32q96 0 170.5 41.5t116.5 117t42 175.5t-42 174.5t-116.5 115.5t-170.5 41q-97 0 -172 -41t-117 -115.5t-42 -174.5t42 -175.5t117 -117t172 -41.5
zM352 409q-21 0 -35.5 13.5t-14.5 34.5t14.5 34t35.5 13t35 -13t14 -34t-14 -34.5t-35 -13.5zM510 409q-21 0 -35.5 13.5t-14.5 34.5t14.5 34t35.5 13q20 0 34.5 -13t14.5 -34t-14.5 -34.5t-34.5 -13.5z" />
    <glyph glyph-name="uni2713" unicode="&#x2713;" horiz-adv-x="929" 
d="M315 117l-203 263l52 47l157 -208l450 388l47 -55z" />
    <glyph glyph-name="uni2776" unicode="&#x2776;" horiz-adv-x="866" 
d="M433 -10q-84 0 -153.5 26.5t-120 76.5t-78 118.5t-27.5 152.5t27.5 152.5t78 118t120 76t153.5 26.5t154 -26.5t120 -76t77.5 -118t27.5 -152.5t-27.5 -152.5t-77.5 -118.5t-120 -76.5t-154 -26.5zM427 150h61v433h-58q-4 -33 -25.5 -53t-64.5 -20h-17v-47h104v-313z" />
    <glyph glyph-name="uni2777" unicode="&#x2777;" horiz-adv-x="866" 
d="M433 -10q-84 0 -153.5 26.5t-120 76.5t-78 118.5t-27.5 152.5t27.5 152.5t78 118t120 76t153.5 26.5t154 -26.5t120 -76t77.5 -118t27.5 -152.5t-27.5 -152.5t-77.5 -118.5t-120 -76.5t-154 -26.5zM293 150h283v53h-217q5 23 22.5 42.5t42 37.5t50.5 36.5t49.5 39
t37.5 46.5t14 59q0 55 -37 89t-100 34q-67 0 -107 -37.5t-41 -98.5h61q0 38 23.5 61t60.5 23q35 0 56.5 -19.5t21.5 -54.5q0 -26 -16 -48t-41 -41.5t-53.5 -39.5t-53.5 -44t-40.5 -53.5t-15.5 -69.5v-15z" />
    <glyph glyph-name="uni2778" unicode="&#x2778;" horiz-adv-x="866" 
d="M433 -10q-84 0 -153.5 26.5t-120 76.5t-78 118.5t-27.5 152.5t27.5 152.5t78 118t120 76t153.5 26.5t154 -26.5t120 -76t77.5 -118t27.5 -152.5t-27.5 -152.5t-77.5 -118.5t-120 -76.5t-154 -26.5zM431 144q67 0 109.5 34.5t42.5 91.5q0 39 -20 66.5t-57 36.5v4
q31 10 51.5 35t20.5 61q0 53 -38 84t-102 31q-42 0 -74 -15.5t-51.5 -43.5t-21.5 -68h61q2 34 25 54.5t60 20.5q36 0 58 -17.5t22 -51.5q0 -32 -22 -52t-63 -20h-37v-46h44q38 0 59.5 -18.5t21.5 -55.5q0 -36 -24 -57.5t-65 -21.5q-36 0 -60.5 19.5t-26.5 55.5h-60
q2 -37 20 -66t50.5 -45t76.5 -16z" />
    <glyph glyph-name="uni2779" unicode="&#x2779;" horiz-adv-x="866" 
d="M433 -10q-84 0 -153.5 26.5t-120 76.5t-78 118.5t-27.5 152.5t27.5 152.5t78 118t120 76t153.5 26.5t154 -26.5t120 -76t77.5 -118t27.5 -152.5t-27.5 -152.5t-77.5 -118.5t-120 -76.5t-154 -26.5zM468 150h61v106h77v51h-77v276h-73l-194 -280v-47h206v-106zM324 307
l144 205v-205h-144z" />
    <glyph glyph-name="uni277A" unicode="&#x277a;" horiz-adv-x="866" 
d="M433 -10q-84 0 -153.5 26.5t-120 76.5t-78 118.5t-27.5 152.5t27.5 152.5t78 118t120 76t153.5 26.5t154 -26.5t120 -76t77.5 -118t27.5 -152.5t-27.5 -152.5t-77.5 -118.5t-120 -76.5t-154 -26.5zM428 144q48 0 82.5 18.5t53.5 51.5t19 77q0 41 -17 72t-47.5 48.5
t-71.5 17.5q-29 0 -55 -11t-40 -31l-3 1l13 141h211v54h-265l-18 -251h61q9 21 30.5 34t50.5 13q40 0 64.5 -24t24.5 -67q0 -39 -24 -65t-67 -26q-36 0 -59 19t-26 51h-62q4 -53 42 -88t103 -35z" />
    <glyph glyph-name="uni277B" unicode="&#x277b;" horiz-adv-x="866" 
d="M433 -10q-84 0 -153.5 26.5t-120 76.5t-78 118.5t-27.5 152.5t27.5 152.5t78 118t120 76t153.5 26.5t154 -26.5t120 -76t77.5 -118t27.5 -152.5t-27.5 -152.5t-77.5 -118.5t-120 -76.5t-154 -26.5zM435 145q68 0 111 39.5t43 104.5q0 61 -37.5 98.5t-98.5 37.5
q-43 0 -72.5 -18.5t-41.5 -48.5h-2q0 54 9.5 93.5t32 62t63.5 22.5q31 0 54.5 -14.5t29.5 -47.5h61q-5 51 -43.5 82.5t-100.5 31.5q-55 0 -92 -26t-55.5 -80t-18.5 -137q0 -49 10.5 -86.5t30.5 -63t49 -38t68 -12.5zM437 198q-40 0 -65.5 24t-25.5 64q0 39 25 65t67 26
q39 0 64 -23.5t25 -64.5t-25 -66t-65 -25z" />
    <glyph glyph-name="uni277C" unicode="&#x277c;" horiz-adv-x="866" 
d="M433 -10q-84 0 -153.5 26.5t-120 76.5t-78 118.5t-27.5 152.5t27.5 152.5t78 118t120 76t153.5 26.5t154 -26.5t120 -76t77.5 -118t27.5 -152.5t-27.5 -152.5t-77.5 -118.5t-120 -76.5t-154 -26.5zM380 150h66q0 67 10.5 121.5t30 100t44 86t52.5 81.5v44h-300v-139h50
v85h178q-33 -49 -63 -104t-49 -122.5t-19 -152.5z" />
    <glyph glyph-name="uni277D" unicode="&#x277d;" horiz-adv-x="866" 
d="M433 -10q-84 0 -153.5 26.5t-120 76.5t-78 118.5t-27.5 152.5t27.5 152.5t78 118t120 76t153.5 26.5t154 -26.5t120 -76t77.5 -118t27.5 -152.5t-27.5 -152.5t-77.5 -118.5t-120 -76.5t-154 -26.5zM434 144q68 0 111 32.5t43 88.5q0 39 -24 68.5t-67 38.5v2
q33 10 54.5 36.5t21.5 61.5t-16.5 60.5t-47.5 40t-75 14.5q-42 0 -73.5 -14t-49 -39.5t-17.5 -61.5q0 -35 21.5 -61.5t53.5 -36.5v-2q-41 -9 -65.5 -38t-24.5 -69q0 -55 42 -88t113 -33zM434 196q-41 0 -66.5 21t-25.5 55q0 32 21 54t71 22q49 0 70 -22t21 -54
q0 -34 -25 -55t-66 -21zM434 396q-44 0 -62.5 21.5t-18.5 49.5q0 27 18.5 48t62.5 21t62 -21.5t18 -47.5q0 -28 -18.5 -49.5t-61.5 -21.5z" />
    <glyph glyph-name="uni277E" unicode="&#x277e;" horiz-adv-x="866" 
d="M433 -10q-84 0 -153.5 26.5t-120 76.5t-78 118.5t-27.5 152.5t27.5 152.5t78 118t120 76t153.5 26.5t154 -26.5t120 -76t77.5 -118t27.5 -152.5t-27.5 -152.5t-77.5 -118.5t-120 -76.5t-154 -26.5zM424 139q55 0 92 26t55.5 80t18.5 137q0 49 -10 86.5t-30 63t-49.5 38.5
t-67.5 13q-69 0 -111.5 -39.5t-42.5 -105.5q0 -61 37.5 -98.5t98.5 -37.5q43 0 72.5 18.5t40.5 49.5h3q-1 -54 -10 -94t-31.5 -62t-64.5 -22q-30 0 -54 14.5t-30 46.5h-61q6 -51 45 -82.5t99 -31.5zM429 350q-38 0 -63 24t-25 64q0 42 24.5 66.5t64.5 24.5q41 0 66 -23.5
t25 -64.5q0 -38 -24.5 -64.5t-67.5 -26.5z" />
    <glyph glyph-name="uniF8FF" unicode="&#xf8ff;" horiz-adv-x="866" 
d="M310 -8q-78 25 -136.5 76.5t-91 125t-32.5 162.5q0 115 48 200.5t134 133.5t201 48t201 -48t134 -133.5t48 -200.5q0 -89 -32.5 -162.5t-91 -125t-136.5 -76.5q-10 -3 -18.5 1.5t-8.5 16.5v105q0 54 -36 71q86 9 135.5 56.5t49.5 123.5q0 38 -10.5 65t-29.5 46q8 24 7 52
t-11 50q-28 2 -57 -9t-47 -31q-24 8 -48 11t-49 3t-49 -3t-48 -11q-18 20 -46.5 31t-57.5 9q-10 -22 -10.5 -50t6.5 -52q-19 -19 -29.5 -46t-10.5 -65q0 -76 49.5 -123.5t135.5 -56.5q-29 -13 -35 -52q-18 -10 -44 -10q-24 0 -39 13t-26.5 29.5t-25.5 29.5t-36 13
q-14 0 -14 -10t15 -17.5t26 -25.5q11 -17 21 -35.5t28.5 -31.5t54.5 -13q19 0 39 4v-70q0 -12 -8.5 -16.5t-18.5 -1.5zM222 150q-7 0 -7 5t6 5q7 0 7 -5t-6 -5zM191 185q-6 0 -6 4t5 4q6 0 6 -4t-5 -4zM206 171q-6 0 -6 4t5 4q6 0 6 -4t-5 -4zM266 109q-8 0 -8 6t7 6
q8 0 8 -6t-7 -6zM297 104q-8 0 -8 6t7 6q8 0 8 -6t-7 -6zM328 110q-8 0 -8 6t7 6q8 0 8 -6t-7 -6zM240 127q-8 0 -8 6t7 6q8 0 8 -6t-7 -6z" />
    <glyph glyph-name="uni004A0301" horiz-adv-x="395" 
d="M26 0v70h94q63 0 87 30t24 92v537h85v-544q0 -61 -19 -102.5t-58.5 -62t-100.5 -20.5h-112zM242 798l64 140h83l-84 -140h-63z" />
    <glyph glyph-name="uni1EB6.ss01" horiz-adv-x="703" 
d="M25 0l267 729h120l266 -729h-89l-202 570l-32 92h-6l-31 -92l-203 -570h-90zM169 179l13 70h339l13 -70h-365zM311 -151v77h81v-77h-81zM352 789q-45 0 -77 17t-48.5 49.5t-17.5 78.5h60q0 -47 21.5 -70.5t61.5 -23.5q39 0 60.5 23.5t21.5 70.5h60q-1 -70 -38 -107.5
t-104 -37.5z" />
    <glyph glyph-name="uni1EAC.ss01" horiz-adv-x="703" 
d="M25 0l267 729h120l266 -729h-89l-202 570l-32 92h-6l-31 -92l-203 -570h-90zM169 179l13 70h339l13 -70h-365zM311 -151v77h81v-77h-81zM204 798l106 140h83l107 -140h-73l-75 99l-75 -99h-73z" />
    <glyph glyph-name="Adieresis.ss01" horiz-adv-x="703" 
d="M25 0l267 729h120l266 -729h-89l-202 570l-32 92h-6l-31 -92l-203 -570h-90zM169 179l13 70h339l13 -70h-365zM401 815v117h72v-117h-72zM229 815v117h72v-117h-72z" />
    <glyph glyph-name="uni1EA0.ss01" horiz-adv-x="703" 
d="M25 0l267 729h120l266 -729h-89l-202 570l-32 92h-6l-31 -92l-203 -570h-90zM169 179l13 70h339l13 -70h-365zM311 -151v77h81v-77h-81z" />
    <glyph glyph-name="Cdotaccent.ss01" horiz-adv-x="771" 
d="M404 -9q-81 0 -146.5 26t-113 75t-72.5 118t-25 154q0 86 25.5 155t72.5 117.5t112.5 74.5t146.5 26q88 0 157.5 -30.5t113.5 -86.5t56 -132h-87q-10 51 -42.5 90t-82.5 61.5t-115 22.5q-83 0 -143 -36t-92.5 -102.5t-32.5 -159.5q0 -69 19 -124.5t53.5 -94t84 -59
t111.5 -20.5q65 0 115.5 22t83 62t41.5 94h87q-10 -77 -54 -134t-114 -88t-159 -31zM364 814v119h81v-119h-81z" />
    <glyph glyph-name="uni1EC6.ss01" horiz-adv-x="622" 
d="M84 0v729h501v-75h-436l20 20v-618l-20 20h437v-76h-502zM149 338v70h387v-70h-387zM273 -151v77h81v-77h-81zM166 798l106 140h83l107 -140h-73l-75 99l-75 -99h-73z" />
    <glyph glyph-name="Edieresis.ss01" horiz-adv-x="622" 
d="M84 0v729h501v-75h-436l20 20v-618l-20 20h437v-76h-502zM149 338v70h387v-70h-387zM364 815v117h72v-117h-72zM192 815v117h72v-117h-72z" />
    <glyph glyph-name="Edotaccent.ss01" horiz-adv-x="622" 
d="M84 0v729h501v-75h-436l20 20v-618l-20 20h437v-76h-502zM149 338v70h387v-70h-387zM273 814v119h81v-119h-81z" />
    <glyph glyph-name="uni1EB8.ss01" horiz-adv-x="622" 
d="M84 0v729h501v-75h-436l20 20v-618l-20 20h437v-76h-502zM149 338v70h387v-70h-387zM273 -151v77h81v-77h-81z" />
    <glyph glyph-name="Gdotaccent.ss01" horiz-adv-x="810" 
d="M394 -9q-78 0 -142 26t-110 75t-70.5 117t-24.5 152q0 86 25.5 155.5t73 118.5t114 75.5t147.5 26.5q89 0 158.5 -27.5t114.5 -79.5t58 -126h-88q-12 49 -45 84t-83 54.5t-115 19.5q-86 0 -146.5 -37.5t-92.5 -105t-32 -157.5q0 -68 18.5 -123t53.5 -94t85 -59.5
t112 -20.5q73 0 130 28t89 79t32 121v48l24 -23h-300v67h366v-385h-69l-5 151h-7q-16 -48 -56 -84t-95.5 -56t-119.5 -20zM366 814v119h81v-119h-81z" />
    <glyph glyph-name="Idieresis.ss01" horiz-adv-x="253" 
d="M84 0v729h85v-729h-85zM176 815v117h72v-117h-72zM4 815v117h72v-117h-72z" />
    <glyph glyph-name="Idotaccent.ss01" horiz-adv-x="253" 
d="M84 0v729h85v-729h-85zM86 814v119h81v-119h-81z" />
    <glyph glyph-name="uni1ECA.ss01" horiz-adv-x="253" 
d="M84 0v729h85v-729h-85zM86 -151v77h81v-77h-81z" />
    <glyph glyph-name="Ldot.ss01" horiz-adv-x="555" 
d="M84 0v729h85v-675l-20 24h379v-78h-444zM354 328v104h106v-104h-106z" />
    <glyph glyph-name="uni1ED8.ss01" horiz-adv-x="807" 
d="M404 -9q-81 0 -146.5 26t-113 75t-72.5 118t-25 154q0 86 25.5 155t72.5 117.5t112.5 74.5t146.5 26t146 -26t112.5 -75t72.5 -117.5t25 -154.5t-25.5 -155t-72.5 -117.5t-112.5 -74.5t-145.5 -26zM404 66q82 0 142.5 36.5t93 103t32.5 158.5q0 70 -18.5 125t-54 93.5
t-84.5 59t-111 20.5q-83 0 -143 -36t-92.5 -102.5t-32.5 -159.5q0 -69 19 -124.5t53.5 -94t84 -59t111.5 -20.5zM363 -151v77h81v-77h-81zM256 798l106 140h83l107 -140h-73l-75 99l-75 -99h-73z" />
    </font>
</defs>
</svg>
