<?xml version="1.0" standalone="no"?>
<!DOCTYPE svg PUBLIC "-//W3C//DTD SVG 1.1//EN" "http://www.w3.org/Graphics/SVG/1.1/DTD/svg11.dtd" >
<svg xmlns="http://www.w3.org/2000/svg" xmlns:xlink="http://www.w3.org/1999/xlink" version="1.1">
<metadata>
Created by FontForge 20201107 at Wed Sep 11 12:37:47 2024
 By 
Copyright 2022 The Mona Sans Project Authors (https://github.com/github/mona-sans), with Reserved Font Name "Mona"
</metadata>
<defs>
<font id="MonaSans-Medium" horiz-adv-x="0" >
  <font-face 
    font-family="Mona Sans Medium"
    font-weight="500"
    font-stretch="normal"
    units-per-em="1000"
    panose-1="0 0 0 0 0 0 0 0 0 0"
    ascent="800"
    descent="-200"
    x-height="529"
    cap-height="729"
    bbox="-222 -245.036 1133 1052"
    underline-thickness="320"
    underline-position="-300"
    unicode-range="U+0020-FB02"
  />
<missing-glyph horiz-adv-x="866" 
d="M310 -8q-78 25 -136.5 76.5t-91 125t-32.5 162.5q0 115 48 200.5t134 133.5t201 48t201 -48t134 -133.5t48 -200.5q0 -89 -32.5 -162.5t-91 -125t-136.5 -76.5q-10 -3 -18.5 1.5t-8.5 16.5v105q0 54 -36 71q86 9 135.5 56.5t49.5 123.5q0 38 -10.5 65t-29.5 46q8 24 7 52
t-11 50q-28 2 -57 -9t-47 -31q-24 8 -48 11t-49 3t-49 -3t-48 -11q-18 20 -46.5 31t-57.5 9q-10 -22 -10.5 -50t6.5 -52q-19 -19 -29.5 -46t-10.5 -65q0 -76 49.5 -123.5t135.5 -56.5q-29 -13 -35 -52q-18 -10 -44 -10q-24 0 -39 13t-26.5 29.5t-25.5 29.5t-36 13
q-14 0 -14 -10t15 -17.5t26 -25.5q11 -17 21 -35.5t28.5 -31.5t54.5 -13q19 0 39 4v-70q0 -12 -8.5 -16.5t-18.5 -1.5zM222 150q-7 0 -7 5t6 5q7 0 7 -5t-6 -5zM191 185q-6 0 -6 4t5 4q6 0 6 -4t-5 -4zM206 171q-6 0 -6 4t5 4q6 0 6 -4t-5 -4zM266 109q-8 0 -8 6t7 6
q8 0 8 -6t-7 -6zM297 104q-8 0 -8 6t7 6q8 0 8 -6t-7 -6zM328 110q-8 0 -8 6t7 6q8 0 8 -6t-7 -6zM240 127q-8 0 -8 6t7 6q8 0 8 -6t-7 -6z" />
    <glyph glyph-name="fi" unicode="fi" horiz-adv-x="571" 
d="M100 0v446h-86v83h86v77q0 61 36 92t100 31h82v-77h-58q-32 0 -45 -14.5t-13 -41.5v-67h298v-529h-102v446h-196v-446h-102zM449 610q-26 0 -43 14t-17 38q0 25 17 39.5t43 14.5t42.5 -14.5t16.5 -39.5q0 -24 -16.5 -38t-42.5 -14z" />
    <glyph glyph-name="fl" unicode="fl" horiz-adv-x="577" 
d="M100 0v446h-86v83h86v77q0 61 36 92t100 31h82v-77h-58q-32 0 -45 -14.5t-13 -41.5v-67h201v200h102v-729h-102v446h-201v-446h-102z" />
    <glyph glyph-name="f_f.liga" unicode="ff" horiz-adv-x="612" 
d="M100 0v446h-86v83h86v77q0 61 36 92t100 31h82v-77h-58q-32 0 -45 -14.5t-13 -41.5v-67h187v77q0 61 35.5 92t99.5 31h83v-77h-59q-32 0 -44.5 -14.5t-12.5 -41.5v-67h107v-83h-107v-446h-102v446h-187v-446h-102z" />
    <glyph glyph-name="f_f_i.liga" unicode="ffi" horiz-adv-x="860" 
d="M100 0v446h-86v83h86v77q0 61 36 92t100 31h82v-77h-58q-32 0 -45 -14.5t-13 -41.5v-67h187v77q0 61 35.5 92t100.5 31h82v-77h-59q-32 0 -44.5 -14.5t-12.5 -41.5v-67h297v-529h-103v446h-194v-446h-102v446h-187v-446h-102zM737 610q-26 0 -43 14t-17 38q0 25 17 39.5
t43 14.5t43 -14.5t17 -39.5q0 -24 -17 -38t-43 -14z" />
    <glyph glyph-name="f_y.liga" unicode="fy" horiz-adv-x="804" 
d="M323 -167v85h56q24 0 40.5 6.5t28.5 20t19 34.5l29 72v-26l-178 421h-116v-446h-102v446h-86v83h86v77q0 61 36 92t100 31h82v-77h-58q-32 0 -45 -14.5t-13 -41.5v-67h194l102 -282l40 -113h6l37 113l96 282h109l-220 -575q-18 -46 -42 -73t-55.5 -37.5t-72.5 -10.5h-73z
" />
    <glyph glyph-name="t_i.liga" unicode="ti" horiz-adv-x="616" 
d="M234 0q-44 0 -69 12.5t-35 37.5t-10 60v335h-100v84h100v153l102 12v-165h323v-529h-103v445h-220v-316q0 -27 10.5 -35.5t35.5 -8.5h72v-85h-106zM494 610q-27 0 -43.5 14t-16.5 39t16.5 39t43.5 14q26 0 42.5 -14t16.5 -39t-16.5 -39t-42.5 -14z" />
    <glyph glyph-name="t_t.liga" unicode="tt" horiz-adv-x="684" 
d="M240 0q-60 0 -90 28.5t-30 92.5v324h-100v84h100v153l102 12v-165h208v153l102 12v-165h118v-84h-117v-307q0 -28 13.5 -40t38.5 -12h66v-86h-101q-60 0 -90 28.5t-30 92.5v324h-207v-307q0 -28 13.5 -40t38.5 -12h66v-86h-101z" />
    <glyph glyph-name=".notdef" horiz-adv-x="866" 
d="M310 -8q-78 25 -136.5 76.5t-91 125t-32.5 162.5q0 115 48 200.5t134 133.5t201 48t201 -48t134 -133.5t48 -200.5q0 -89 -32.5 -162.5t-91 -125t-136.5 -76.5q-10 -3 -18.5 1.5t-8.5 16.5v105q0 54 -36 71q86 9 135.5 56.5t49.5 123.5q0 38 -10.5 65t-29.5 46q8 24 7 52
t-11 50q-28 2 -57 -9t-47 -31q-24 8 -48 11t-49 3t-49 -3t-48 -11q-18 20 -46.5 31t-57.5 9q-10 -22 -10.5 -50t6.5 -52q-19 -19 -29.5 -46t-10.5 -65q0 -76 49.5 -123.5t135.5 -56.5q-29 -13 -35 -52q-18 -10 -44 -10q-24 0 -39 13t-26.5 29.5t-25.5 29.5t-36 13
q-14 0 -14 -10t15 -17.5t26 -25.5q11 -17 21 -35.5t28.5 -31.5t54.5 -13q19 0 39 4v-70q0 -12 -8.5 -16.5t-18.5 -1.5zM222 150q-7 0 -7 5t6 5q7 0 7 -5t-6 -5zM191 185q-6 0 -6 4t5 4q6 0 6 -4t-5 -4zM206 171q-6 0 -6 4t5 4q6 0 6 -4t-5 -4zM266 109q-8 0 -8 6t7 6
q8 0 8 -6t-7 -6zM297 104q-8 0 -8 6t7 6q8 0 8 -6t-7 -6zM328 110q-8 0 -8 6t7 6q8 0 8 -6t-7 -6zM240 127q-8 0 -8 6t7 6q8 0 8 -6t-7 -6z" />
    <glyph glyph-name=".null" 
 />
    <glyph glyph-name="nonmarkingreturn" horiz-adv-x="333" 
 />
    <glyph glyph-name="space" unicode=" " horiz-adv-x="224" 
 />
    <glyph glyph-name="exclam" unicode="!" horiz-adv-x="253" 
d="M100 205l-26 285v239h105v-239l-26 -285h-53zM126 -7q-25 0 -41 14.5t-16 39.5q0 24 16 39t41 15q26 0 42 -15t16 -39q0 -25 -16 -39.5t-42 -14.5z" />
    <glyph glyph-name="quotedbl" unicode="&#x22;" horiz-adv-x="391" 
d="M73 457l-22 160v112h91v-112l-22 -160h-47zM271 457l-22 160v112h91v-112l-22 -160h-47z" />
    <glyph glyph-name="numbersign" unicode="#" horiz-adv-x="660" 
d="M176 0v218h-147v70h147v168h-147v70h147v203h79v-203h154v203h79v-203h142v-70h-142v-168h142v-70h-142v-218h-79v218h-154v-218h-79zM255 288h154v168h-154v-168z" />
    <glyph glyph-name="dollar" unicode="$" horiz-adv-x="660" 
d="M332 9q-92 0 -154 28.5t-93 79.5t-32 118h111q1 -43 19.5 -74.5t56 -49t95.5 -17.5q48 0 83.5 11.5t56 35.5t20.5 60q0 38 -15.5 61t-54 37.5t-111.5 26.5q-57 10 -102.5 24t-77.5 36t-48.5 55t-16.5 80q0 61 31 105.5t89 69t139 24.5q80 0 137 -25t88 -71t32 -107h-110
q-1 40 -20.5 66.5t-52.5 40t-78 13.5t-76.5 -13t-48.5 -35.5t-17 -53.5q0 -37 16.5 -57t57.5 -31.5t112 -24.5q47 -8 90 -20t76.5 -34t53 -60.5t19.5 -97.5t-31 -104.5t-92.5 -71t-151.5 -25.5zM293 -85v133h75v-133h-75zM293 670v144h75v-144h-75z" />
    <glyph glyph-name="percent" unicode="%" horiz-adv-x="851" 
d="M155 0l463 729h77l-463 -729h-77zM204 329q-44 0 -77.5 22.5t-52 67.5t-18.5 111t19 110.5t52.5 66.5t76.5 22q44 0 77.5 -22t51.5 -66.5t18 -110.5q0 -67 -18.5 -111.5t-51.5 -67t-77 -22.5zM204 392q25 0 41.5 16t24.5 47t8 75t-8 74.5t-24.5 46t-41.5 15.5
q-24 0 -41 -16t-25.5 -46t-8.5 -74q0 -33 5 -59t14.5 -43.5t23.5 -26.5t32 -9zM647 -7q-44 0 -77.5 22t-52 67t-18.5 111q0 67 18.5 111t52 66.5t77.5 22.5t77.5 -22.5t51.5 -67t18 -110.5t-18.5 -111t-51.5 -67t-77 -22zM647 56q25 0 41 15.5t24.5 46.5t8.5 75t-8.5 74.5
t-24.5 46.5t-41 16q-24 0 -41 -16t-25.5 -46.5t-8.5 -74.5t8.5 -75t25.5 -46.5t41 -15.5z" />
    <glyph glyph-name="ampersand" unicode="&#x26;" horiz-adv-x="777" 
d="M681 -6q-43 0 -80.5 16t-71.5 43.5t-67 62.5l-208 227q-35 38 -57 69.5t-34 58t-16.5 49t-4.5 42.5q0 54 25.5 93.5t70 61.5t100.5 22q52 0 91.5 -20t62 -56.5t22.5 -85.5q0 -42 -20.5 -79.5t-59 -68t-94.5 -55.5l-45 49q44 20 71.5 42.5t41.5 48t14 54.5
q0 41 -23.5 63.5t-62.5 22.5q-42 0 -68.5 -24t-26.5 -65q0 -18 4.5 -36t15.5 -38.5t31.5 -47t52.5 -62.5l180 -196q36 -40 65.5 -62t56 -31.5t52.5 -9.5q10 0 19 1.5t17 5.5l-3 -89q-11 -3 -24 -4.5t-27 -1.5zM245 -10q-58 0 -102.5 23.5t-70.5 66t-26 98.5q0 50 23 91.5
t64.5 73.5t95.5 54l50 -59q-43 -17 -71.5 -39.5t-43 -49.5t-14.5 -60q0 -51 32.5 -82.5t84.5 -31.5q60 0 103.5 26t69.5 71l60 -51q-26 -43 -64.5 -72.5t-87 -44t-103.5 -14.5zM537 155l-66 55q21 35 33 68.5t17 64.5l1 30h166l9 -83l-101 2q-5 -20 -14 -44t-20.5 -48
t-24.5 -45z" />
    <glyph glyph-name="quotesingle" unicode="'" horiz-adv-x="193" 
d="M73 457l-22 160v112h91v-112l-22 -160h-47z" />
    <glyph glyph-name="parenleft" unicode="(" horiz-adv-x="348" 
d="M230 -167q-56 55 -96.5 132.5t-62 167t-21.5 180.5q0 68 12.5 136t35.5 131t57 117.5t75 95.5h91q-40 -42 -71.5 -97t-53.5 -118t-34 -130.5t-12 -134.5q0 -93 21.5 -182.5t60 -166.5t89.5 -131h-91z" />
    <glyph glyph-name="parenright" unicode=")" horiz-adv-x="348" 
d="M117 793q57 -55 97 -132.5t62 -167t22 -180.5q0 -68 -12.5 -136t-36 -131t-57 -117.5t-75.5 -95.5h-90q39 42 71 97t54 118t33.5 130.5t11.5 134.5q0 93 -21.5 182.5t-59.5 166.5t-89 131h90z" />
    <glyph glyph-name="asterisk" unicode="*" horiz-adv-x="309" 
d="M130 449v52l12 65l-51 -41l-46 -27l-24 42l45 26l61 23l-61 24l-44 25l23 41l46 -25l51 -41l-12 65v51h49v-51l-12 -65l52 41l46 25l23 -41l-45 -25l-60 -24l60 -23l45 -26l-23 -42l-46 27l-52 41l12 -65v-52h-49z" />
    <glyph glyph-name="plus" unicode="+" horiz-adv-x="600" 
d="M258 123v197h-196v82h196v197h85v-197h195v-82h-195v-197h-85z" />
    <glyph glyph-name="comma" unicode="," horiz-adv-x="206" 
d="M25 -142q35 38 58.5 79.5t27.5 72.5l9 -6q-3 -3 -9 -5.5t-14 -2.5q-24 0 -38.5 14.5t-14.5 36.5q0 25 16 39.5t42 14.5t43 -17.5t17 -50.5q0 -23 -7 -48t-19 -49.5t-26 -45t-28 -32.5h-57z" />
    <glyph glyph-name="hyphen" unicode="-" horiz-adv-x="401" 
d="M51 221v87h300v-87h-300z" />
    <glyph glyph-name="period" unicode="." horiz-adv-x="197" 
d="M98 -7q-25 0 -41 14.5t-16 39.5q0 24 16 39t41 15q26 0 42 -15t16 -39q0 -25 -16 -39.5t-42 -14.5z" />
    <glyph glyph-name="slash" unicode="/" horiz-adv-x="409" 
d="M-12 -81l310 810h99l-309 -810h-100z" />
    <glyph glyph-name="zero" unicode="0" horiz-adv-x="615" 
d="M308 -9q-62 0 -110 24t-81.5 71t-50.5 115.5t-17 158.5q0 126 32.5 207.5t90.5 121.5t136 40q62 0 109.5 -24t81 -71t51 -116t17.5 -158q0 -126 -32.5 -207.5t-91 -121.5t-135.5 -40zM308 78q38 0 67 17t48 51.5t29 88t10 125.5t-10 125t-29 88t-48 51.5t-67 16.5
q-39 0 -68 -16.5t-48 -51.5t-28.5 -88t-9.5 -125t9.5 -125.5t28.5 -88t48 -51.5t68 -17z" />
    <glyph glyph-name="one" unicode="1" horiz-adv-x="382" 
d="M200 0v522h-174v79h28q72 0 108.5 33t41.5 87h99v-721h-103z" />
    <glyph glyph-name="two" unicode="2" horiz-adv-x="558" 
d="M42 0v26q0 57 20 101t52.5 80.5t72 67t79 58t72 56t52.5 60.5t20 71q0 38 -15.5 65t-45 41.5t-68.5 14.5q-44 0 -75.5 -18t-48 -49t-15.5 -72l-103 -1q1 69 31.5 120t86 79.5t128.5 28.5q71 0 122 -25.5t79 -72t28 -108.5q0 -47 -17.5 -85t-47.5 -69t-66 -58.5t-73 -53
t-69.5 -51.5t-55.5 -54t-30 -62h361v-90h-474z" />
    <glyph glyph-name="three" unicode="3" horiz-adv-x="580" 
d="M280 -9q-73 0 -127.5 26.5t-84.5 74.5t-33 111h101q2 -37 20 -65.5t50 -44t73 -15.5q69 0 109 36t40 95q0 41 -16.5 68.5t-47 41t-71.5 13.5h-74v78h62q45 0 76.5 15t48 42t16.5 62q0 37 -16.5 62t-46.5 38.5t-70 13.5q-41 0 -71.5 -15t-48.5 -43t-21 -65h-101
q3 63 34 110.5t85 73.5t126 26q71 0 123 -23.5t81 -66t29 -101.5q0 -39 -15.5 -71.5t-42.5 -55.5t-62 -34v-5q40 -10 69 -34t44 -59t15 -79q0 -64 -32 -111.5t-89 -73t-132 -25.5z" />
    <glyph glyph-name="four" unicode="4" horiz-adv-x="628" 
d="M372 0v644h27l-267 -382h470v-85h-575v80l325 464h123v-721h-103z" />
    <glyph glyph-name="five" unicode="5" horiz-adv-x="592" 
d="M291 -9q-70 0 -123 25.5t-83.5 72t-34.5 107.5h103q4 -35 22 -61t48.5 -40.5t70.5 -14.5q48 0 81.5 19.5t51.5 54t18 77.5q0 48 -18.5 81.5t-51.5 51.5t-78 18q-48 0 -84 -21.5t-50 -56.5h-102l30 417h441v-91h-351l-20 -232l5 -2q21 31 63.5 50.5t93.5 19.5t93 -16.5
t72 -47t46 -73t16 -94.5q0 -73 -32 -128t-90.5 -85.5t-136.5 -30.5z" />
    <glyph glyph-name="six" unicode="6" horiz-adv-x="616" 
d="M313 -8q-64 0 -113.5 21t-83 63t-50 104.5t-16.5 144.5q0 105 17.5 181.5t52 126t86.5 73.5t121 24q50 0 92 -13.5t73.5 -38t51 -59.5t24.5 -78h-103q-5 26 -17 44.5t-30.5 31t-42 19t-49.5 6.5q-52 0 -85.5 -21t-53 -59.5t-28 -92.5t-9.5 -121h5q12 33 38 58t64 39
t86 14q68 0 119 -28t79.5 -79t28.5 -119q0 -73 -32.5 -127.5t-90 -84t-134.5 -29.5zM317 82q45 0 78 18.5t51.5 52.5t18.5 79q0 46 -18 78.5t-51.5 50.5t-77.5 18q-47 0 -81 -20t-52.5 -54t-18.5 -77q0 -45 19 -78t53 -50.5t79 -17.5z" />
    <glyph glyph-name="seven" unicode="7" horiz-adv-x="564" 
d="M199 0q0 108 18 197.5t49 165.5t70 141.5t80 126.5h-295v-141h-83v231h500v-74q-37 -54 -71.5 -108t-62.5 -111.5t-49.5 -122t-33 -140t-11.5 -165.5h-111z" />
    <glyph glyph-name="eight" unicode="8" horiz-adv-x="598" 
d="M299 -10q-59 0 -107 14.5t-82 41.5t-51.5 63.5t-17.5 82.5q0 44 18.5 80.5t52 62t80.5 35.5v5q-37 11 -65.5 34t-44.5 56.5t-16 72.5q0 60 29 102.5t81.5 65.5t122.5 23q73 0 125 -23.5t80 -66.5t28 -101q0 -39 -16 -72.5t-44 -56.5t-66 -34v-5q47 -10 81 -35.5t52 -62
t18 -80.5q0 -62 -32.5 -107t-90.5 -70t-135 -25zM299 79q46 0 80 15.5t52.5 44t18.5 66.5q0 35 -15 63.5t-48 45.5t-88 17q-54 0 -87.5 -17t-48.5 -45.5t-15 -63.5q0 -38 18.5 -66.5t53 -44t79.5 -15.5zM299 411q48 0 77.5 16.5t43 43t13.5 57.5q0 30 -13 56.5t-42.5 43
t-78.5 16.5t-78.5 -16.5t-42.5 -43t-13 -56.5q0 -23 7.5 -44t23.5 -37.5t41.5 -26t61.5 -9.5z" />
    <glyph glyph-name="nine" unicode="9" horiz-adv-x="616" 
d="M302 730q65 0 114.5 -21t82.5 -63t50 -104.5t17 -144.5q0 -105 -17.5 -181.5t-52 -126t-86.5 -73.5t-121 -24q-51 0 -93 13.5t-73.5 38t-51 59.5t-23.5 78h103q5 -26 17 -44.5t30.5 -31t42 -19t49.5 -6.5q52 0 85.5 21t53 59.5t28 92.5t9.5 121h-5q-12 -32 -38 -57.5
t-64 -39.5t-86 -14q-68 0 -119 28t-79.5 79t-28.5 119q0 74 32 128t90.5 83.5t133.5 29.5zM299 640q-44 0 -77.5 -18.5t-52.5 -52.5t-19 -79t18.5 -78t52 -51t77.5 -18q47 0 81 20t52 54t18 77q0 45 -19 78t-52.5 50.5t-78.5 17.5z" />
    <glyph glyph-name="colon" unicode=":" horiz-adv-x="197" 
d="M98 -7q-25 0 -41 14.5t-16 39.5q0 24 16 39t41 15q26 0 42 -15t16 -39q0 -25 -16 -39.5t-42 -14.5zM98 428q-25 0 -41 14.5t-16 39.5q0 24 16 39t41 15q26 0 42 -15t16 -39q0 -25 -16 -39.5t-42 -14.5z" />
    <glyph glyph-name="semicolon" unicode=";" horiz-adv-x="206" 
d="M25 -142q35 38 58.5 79.5t27.5 72.5l9 -6q-3 -3 -9 -5.5t-14 -2.5q-24 0 -38.5 14.5t-14.5 36.5q0 25 16 39.5t42 14.5t43 -17.5t17 -50.5q0 -23 -7 -48t-19 -49.5t-26 -45t-28 -32.5h-57zM101 428q-25 0 -41 14.5t-16 39.5q0 24 16 39t41 15q26 0 42 -15t16 -39
q0 -25 -16 -39.5t-42 -14.5z" />
    <glyph glyph-name="less" unicode="&#x3c;" horiz-adv-x="600" 
d="M541 613v-103l-391 -144v-9l391 -146v-102l-492 194v117z" />
    <glyph glyph-name="equal" unicode="=" horiz-adv-x="600" 
d="M62 434v82h476v-82h-476zM62 205v83h476v-83h-476z" />
    <glyph glyph-name="greater" unicode="&#x3e;" horiz-adv-x="600" 
d="M59 109v102l391 145v8l-391 146v103l492 -194v-117z" />
    <glyph glyph-name="question" unicode="?" horiz-adv-x="539" 
d="M229 194v18q0 36 11.5 65.5t30.5 54t39.5 48t39.5 47t30.5 50.5t11.5 58q0 39 -15.5 64.5t-43 38.5t-65.5 13q-63 0 -98 -36.5t-35 -94.5h-101q0 66 29.5 114.5t83.5 76t126 27.5q56 0 98 -13.5t70 -39t42.5 -61.5t14.5 -80q0 -40 -12.5 -72.5t-32.5 -60t-42.5 -52
t-42.5 -47.5t-32.5 -48.5t-12.5 -54.5v-15h-94zM273 -7q-25 0 -41 14.5t-16 39.5q0 24 16 39t41 15q26 0 42 -15t16 -39q0 -25 -16 -39.5t-42 -14.5z" />
    <glyph glyph-name="at" unicode="@" horiz-adv-x="914" 
d="M470 -101q-95 0 -171.5 29.5t-131 84.5t-83.5 132t-29 170q0 94 30 171.5t85.5 134t132 87t168.5 30.5q86 0 157.5 -26.5t124 -75.5t81.5 -117.5t29 -151.5q0 -78 -23.5 -137.5t-65.5 -92.5t-96 -33q-32 0 -55.5 11.5t-37.5 33.5t-19 51h-5q-15 -45 -48.5 -69t-75.5 -24
q-43 0 -76.5 21.5t-53 63.5t-19.5 104q0 50 12 90.5t33.5 69t52.5 44t68 15.5q39 0 69 -22t41 -60h6l10 71h52l-16 -226q-3 -38 3.5 -62t21 -35.5t36.5 -11.5q26 0 46.5 14t35.5 39.5t23 61t8 78.5q0 97 -41 166t-113 106t-164 37q-81 0 -144 -26t-106.5 -73.5t-66.5 -112
t-23 -140.5q0 -80 23 -145.5t67 -111.5t107.5 -71t143.5 -25q68 0 123 17.5t93 47.5l27 -56q-27 -24 -67 -41t-86.5 -26t-92.5 -9zM449 171q32 0 55 18.5t36 52t15 77.5q-1 44 -13 74t-32 44.5t-48 14.5q-34 0 -56.5 -19.5t-34 -54t-11.5 -79.5q0 -42 11 -70.5t31 -43
t47 -14.5z" />
    <glyph glyph-name="A" unicode="A" horiz-adv-x="716" 
d="M22 0l259 729h154l258 -729h-113l-188 552l-31 93h-6l-30 -93l-189 -552h-114zM184 169l19 87h309l19 -87h-347z" />
    <glyph glyph-name="B" unicode="B" horiz-adv-x="698" 
d="M79 0v729h337q107 0 163 -51.5t56 -135.5q0 -40 -14 -73.5t-42 -56t-70 -32.5v-5q50 -9 82 -33t48 -59.5t16 -77.5q0 -66 -30 -111.5t-86 -69.5t-135 -24h-325zM185 86h209q76 0 113 35t37 90q0 59 -37 90t-102 31h-232v83h227q43 0 70.5 14t41.5 39.5t14 58.5
q0 57 -37 86.5t-99 29.5h-205v-557z" />
    <glyph glyph-name="C" unicode="C" horiz-adv-x="771" 
d="M403 -9q-81 0 -147 25.5t-114 74.5t-73.5 118t-25.5 155q0 87 26 156t73.5 117.5t113.5 74t147 25.5q90 0 160.5 -31t115 -87.5t55.5 -133.5h-110q-10 46 -40 81.5t-75.5 56t-105.5 20.5q-76 0 -131.5 -33t-85.5 -95t-30 -151q0 -66 17.5 -118t49.5 -87.5t77.5 -54.5
t102.5 -19q59 0 105.5 20t76.5 56.5t39 85.5h110q-9 -78 -53.5 -135.5t-116 -89t-161.5 -31.5z" />
    <glyph glyph-name="D" unicode="D" horiz-adv-x="747" 
d="M79 0v729h294q106 0 179.5 -45.5t112 -127.5t38.5 -192q0 -82 -22 -149t-64 -115t-103.5 -74t-140.5 -26h-294zM188 94h170q53 0 96 16.5t74 50t47.5 85t16.5 120.5q0 93 -29.5 152.5t-82 88t-122.5 28.5h-170v-541z" />
    <glyph glyph-name="E" unicode="E" horiz-adv-x="627" 
d="M79 0v729h511v-94h-427l25 24v-588l-25 24h428v-95h-512zM163 328v88h378v-88h-378z" />
    <glyph glyph-name="F" unicode="F" horiz-adv-x="616" 
d="M79 0v729h509v-94h-420l20 20v-655h-109zM156 311v90h392v-90h-392z" />
    <glyph glyph-name="G" unicode="G" horiz-adv-x="812" 
d="M389 -9q-78 0 -141.5 25.5t-109.5 74t-70.5 116.5t-24.5 152q0 88 26 158t74 119t115.5 75t149.5 26q91 0 162 -28.5t116.5 -81.5t57.5 -128h-111q-12 44 -42.5 76t-77 50t-105.5 18q-81 0 -137 -35t-85.5 -98.5t-29.5 -148.5q0 -64 17 -116t49.5 -88t79 -55t103.5 -19
q68 0 120.5 25.5t82 72t29.5 109.5v42l27 -25h-280v83h368v-390h-87l-6 139h-7q-16 -44 -55 -77.5t-92.5 -52t-115.5 -18.5z" />
    <glyph glyph-name="H" unicode="H" horiz-adv-x="784" 
d="M79 0v729h109v-729h-109zM596 0v729h109v-729h-109zM160 328v94h464v-94h-464z" />
    <glyph glyph-name="I" unicode="I" horiz-adv-x="267" 
d="M79 0v729h109v-729h-109z" />
    <glyph glyph-name="J" unicode="J" horiz-adv-x="404" 
d="M25 0v87h91q58 0 81 27.5t23 85.5v529h109v-537q0 -63 -20 -106t-61.5 -64.5t-105.5 -21.5h-117z" />
    <glyph glyph-name="K" unicode="K" horiz-adv-x="692" 
d="M541 0l-231 347l-132 -140v129l355 393h132l-280 -303l286 -426h-130zM79 0v729h109v-729h-109z" />
    <glyph glyph-name="L" unicode="L" horiz-adv-x="561" 
d="M79 0v729h109v-656l-21 25h368v-98h-456z" />
    <glyph glyph-name="M" unicode="M" horiz-adv-x="901" 
d="M79 0v729h174l140 -396l54 -187h7l55 187l140 396h173v-729h-106v367l4 262h-8l-79 -243l-135 -386h-95l-133 384l-80 245h-8l4 -263v-366h-107z" />
    <glyph glyph-name="N" unicode="N" horiz-adv-x="775" 
d="M79 0v729h136l376 -581h5l-5 241v340h105v-729h-130l-376 577h-5l4 -227v-350h-110z" />
    <glyph glyph-name="O" unicode="O" horiz-adv-x="806" 
d="M403 -9q-81 0 -147 25.5t-114 74.5t-73.5 118t-25.5 155q0 87 26 156t73.5 117.5t113.5 74t147 25.5q82 0 147.5 -25.5t113.5 -74t73.5 -117.5t25.5 -156t-26 -156t-73.5 -117.5t-113.5 -74t-147 -25.5zM403 85q76 0 131.5 33.5t86 95.5t30.5 150q0 67 -17.5 118.5
t-50 87.5t-78 54.5t-102.5 18.5q-76 0 -131.5 -33t-85.5 -95t-30 -151q0 -66 17.5 -118t49.5 -87.5t77.5 -54.5t102.5 -19z" />
    <glyph glyph-name="P" unicode="P" horiz-adv-x="663" 
d="M79 0v729h286q85 0 143.5 -28t89 -80t30.5 -124t-33 -124.5t-92 -80t-139 -27.5h-188v87h180q80 0 120.5 39.5t40.5 102.5q0 70 -43 105.5t-118 35.5h-186l18 16v-651h-109z" />
    <glyph glyph-name="Q" unicode="Q" horiz-adv-x="833" 
d="M402 47l303 39h93v-86h-395zM403 -9q-81 0 -147 25.5t-114 74.5t-73.5 118t-25.5 155q0 87 26 156t73.5 117.5t113.5 74t147 25.5q82 0 147.5 -25.5t113.5 -74t73.5 -117.5t25.5 -156t-26 -156t-73.5 -117.5t-113.5 -74t-147 -25.5zM403 85q76 0 131.5 33.5t86 95.5
t30.5 150q0 67 -17.5 118.5t-50 87.5t-78 54.5t-102.5 18.5q-76 0 -131.5 -33t-85.5 -95t-30 -151q0 -66 17.5 -118t49.5 -87.5t77.5 -54.5t102.5 -19z" />
    <glyph glyph-name="R" unicode="R" horiz-adv-x="712" 
d="M79 0v729h347q44 0 80 -8t64.5 -24t48 -39.5t29.5 -54.5t10 -70q0 -67 -34 -113.5t-98 -64.5v-6q42 -7 68 -25.5t37.5 -48t11.5 -71.5v-125q0 -19 1.5 -38.5t10.5 -40.5h-109q-7 15 -9.5 35t-2.5 46v104q0 37 -11 62t-39 37.5t-79 12.5h-229v89h226q78 0 111.5 36
t33.5 93q0 32 -10 55.5t-30 38.5t-46 21.5t-59 6.5h-214v-637h-109z" />
    <glyph glyph-name="S" unicode="S" horiz-adv-x="653" 
d="M328 -9q-96 0 -160 30t-96 83.5t-33 123.5h112q1 -46 20.5 -80.5t58.5 -52.5t101 -18q51 0 89 12.5t59 38.5t21 67q0 31 -10 52t-32.5 35.5t-59 24.5t-90.5 19q-62 11 -109.5 26.5t-79 39t-47.5 57.5t-16 80q0 64 32 111t92 72t144 25t143 -26.5t91 -74t32 -112.5h-110
q-2 44 -22.5 72.5t-55.5 42.5t-82 14q-48 0 -82 -13t-52 -37t-18 -60q0 -37 18 -59t61 -35.5t117 -26.5q48 -7 93 -20t80 -36t56 -62.5t21 -102.5q0 -62 -32.5 -109.5t-96 -74t-157.5 -26.5z" />
    <glyph glyph-name="T" unicode="T" horiz-adv-x="618" 
d="M254 0v646h108v-646h-108zM25 634v95h569v-95h-569z" />
    <glyph glyph-name="U" unicode="U" horiz-adv-x="731" 
d="M365 -9q-93 0 -160 34t-102.5 96.5t-35.5 148.5v459h108v-457q0 -61 23 -102t66 -61t102 -20q64 0 106 22t63 63.5t21 97.5v457h108v-459q0 -86 -36 -148.5t-102.5 -96.5t-160.5 -34z" />
    <glyph glyph-name="V" unicode="V" horiz-adv-x="724" 
d="M289 0l-267 729h122l140 -424l75 -216h6l76 216l140 424h121l-267 -729h-146z" />
    <glyph glyph-name="W" unicode="W" horiz-adv-x="991" 
d="M204 0l-178 729h119l95 -422l39 -206h8l42 206l99 422h137l98 -414l45 -215h7l39 215l92 414h119l-178 -729h-151l-90 384l-46 226h-7l-47 -226l-91 -384h-151z" />
    <glyph glyph-name="X" unicode="X" horiz-adv-x="725" 
d="M19 0l271 393l-236 336h127l119 -181l58 -91h6l58 91l119 181h127l-234 -335l271 -394h-129l-147 219l-65 102h-6l-66 -102l-146 -219h-127z" />
    <glyph glyph-name="Y" unicode="Y" horiz-adv-x="688" 
d="M289 0v287l-270 442h125l115 -200l81 -146h6l83 146l116 200h124l-271 -442v-287h-109z" />
    <glyph glyph-name="Z" unicode="Z" horiz-adv-x="628" 
d="M32 0v91l416 543h-399v95h535v-91l-417 -543h428v-95h-563z" />
    <glyph glyph-name="bracketleft" unicode="[" horiz-adv-x="365" 
d="M86 -167v960h243v-80h-146v-800h146v-80h-243z" />
    <glyph glyph-name="backslash" unicode="\" horiz-adv-x="395" 
d="M302 -81l-309 810h99l310 -810h-100z" />
    <glyph glyph-name="bracketright" unicode="]" horiz-adv-x="365" 
d="M279 793v-960h-244v80h147v800h-147v80h244z" />
    <glyph glyph-name="asciicircum" unicode="^" horiz-adv-x="600" 
d="M109 472l138 257h107l138 -257h-98l-93 174l-95 -174h-97z" />
    <glyph glyph-name="underscore" unicode="_" horiz-adv-x="463" 
d="M51 -87v87h361v-87h-361z" />
    <glyph glyph-name="grave" unicode="`" horiz-adv-x="246" 
d="M126 741l-86 142h104l62 -142h-80z" />
    <glyph glyph-name="a" unicode="a" horiz-adv-x="619" 
d="M261 -9q-48 0 -88.5 19t-69.5 54t-44.5 85.5t-15.5 115.5q0 86 27.5 147t76.5 93.5t114 32.5q44 0 80 -14t61.5 -38.5t36.5 -58.5h6l4 102h98v-529h-98l-4 103h-6q-18 -50 -65 -81t-113 -31zM296 76q48 0 81 22t50 58t17 79v60q0 44 -17.5 80t-50 57.5t-78.5 21.5
q-47 0 -80.5 -23t-51 -65t-17.5 -101q0 -58 17 -101t50 -65.5t80 -22.5z" />
    <glyph glyph-name="b" unicode="b" horiz-adv-x="619" 
d="M357 -9q-43 0 -79 13.5t-61 39t-38 58.5h-6l-4 -102h-97v729h103v-303h4q18 50 65.5 80.5t112.5 30.5q49 0 89 -18.5t69 -53.5t44.5 -86t15.5 -115q0 -86 -27 -147.5t-76 -93.5t-115 -32zM320 75q48 0 81 22.5t51 65t18 101.5q0 44 -10 79t-28.5 59.5t-46.5 37t-63 12.5
q-47 0 -80 -21.5t-50 -57.5t-17 -79v-60q0 -44 17 -80t50 -57.5t78 -21.5z" />
    <glyph glyph-name="c" unicode="c" horiz-adv-x="567" 
d="M297 -9q-58 0 -105.5 19.5t-81 55.5t-52 86t-18.5 112t18.5 112t53 86t82.5 55.5t107 19.5q63 0 113 -23t80.5 -65t35.5 -97h-100q-7 33 -26 55t-46 33t-60 11q-37 0 -65.5 -13.5t-48 -38t-29.5 -59t-10 -77.5q0 -59 19 -100.5t53 -63.5t80 -22q38 0 66 13.5t46 37
t23 55.5h101q-6 -58 -37.5 -101.5t-82.5 -67t-116 -23.5z" />
    <glyph glyph-name="d" unicode="d" horiz-adv-x="619" 
d="M261 -9q-48 0 -88.5 19t-69.5 54t-44.5 85.5t-15.5 115.5q0 86 27.5 147t76.5 93.5t114 32.5q44 0 80 -14t61.5 -38.5t36.5 -58.5h5v302h103v-729h-98l-4 103h-6q-18 -50 -65 -81t-113 -31zM296 76q48 0 81 22t50 58t17 79v60q0 44 -17.5 80t-50 57.5t-78.5 21.5
q-47 0 -80.5 -23t-51 -65t-17.5 -101q0 -58 17 -101t50 -65.5t80 -22.5z" />
    <glyph glyph-name="e" unicode="e" horiz-adv-x="550" 
d="M282 -9q-77 0 -132.5 33.5t-84.5 94.5t-29 143q0 84 29 146t83.5 95.5t130.5 33.5q83 0 137.5 -37.5t78.5 -103.5t18 -152h-376q1 -58 19 -96.5t50.5 -58t75.5 -19.5q52 0 84.5 23t43.5 61h98q-8 -51 -39 -87.5t-79 -56t-108 -19.5zM138 301l-10 13h294l-10 -14
q1 55 -15.5 90t-47 51.5t-70.5 16.5q-42 0 -73 -18t-49 -53t-19 -86z" />
    <glyph glyph-name="f" unicode="f" horiz-adv-x="324" 
d="M100 0v446h-86v83h86v77q0 61 36 92t100 31h82v-77h-58q-32 0 -45 -14.5t-13 -41.5v-67h107v-83h-107v-446h-102z" />
    <glyph glyph-name="g" unicode="g" horiz-adv-x="600" 
d="M279 -177q-63 0 -110 18.5t-75 52.5t-34 81h100q4 -23 20 -40.5t41.5 -26.5t59.5 -9q50 0 82.5 14.5t47.5 43.5t15 74v94h-5q-17 -47 -62 -76t-108 -29q-46 0 -84.5 17.5t-66.5 51t-43 81.5t-15 109q0 81 26.5 139.5t73.5 89.5t109 31q61 0 106.5 -28t63.5 -77h6l3 95h99
v-480q0 -80 -30.5 -130t-86.5 -73t-133 -23zM287 105q45 0 76 20t47 53.5t16 73.5v56q0 40 -16.5 73.5t-47 53t-72.5 19.5q-45 0 -77 -21t-48.5 -60.5t-16.5 -93.5t16 -93t47.5 -60t75.5 -21z" />
    <glyph glyph-name="h" unicode="h" horiz-adv-x="610" 
d="M72 0v729h102v-305h6q23 56 72 84.5t107 28.5q41 0 75.5 -12t60 -38.5t39.5 -69t14 -103.5v-314h-103v293q0 54 -13 89.5t-40 52.5t-70 17q-45 0 -78.5 -22t-51.5 -58.5t-18 -82.5v-289h-102z" />
    <glyph glyph-name="i" unicode="i" horiz-adv-x="246" 
d="M72 0v529h103v-529h-103zM124 610q-26 0 -43 14t-17 39t17 39t43 14t43 -14t17 -39t-17 -39t-43 -14z" />
    <glyph glyph-name="j" unicode="j" horiz-adv-x="246" 
d="M-30 -167v76h43q32 0 45.5 15t13.5 51v554h103v-558q0 -43 -13.5 -74t-42 -47.5t-75.5 -16.5h-74zM123 610q-26 0 -43 14t-17 39t17 39t43 14t43 -14t17 -39t-17 -39t-43 -14z" />
    <glyph glyph-name="k" unicode="k" horiz-adv-x="572" 
d="M72 0v729h104v-453l46 50l197 203h128l-205 -206l213 -323h-121l-132 200l-32 53l-94 -91v-162h-104z" />
    <glyph glyph-name="l" unicode="l" horiz-adv-x="246" 
d="M72 0v729h103v-729h-103z" />
    <glyph glyph-name="m" unicode="m" horiz-adv-x="965" 
d="M72 0v529h98l4 -105h6q22 56 69.5 84.5t105.5 28.5t104.5 -28t66.5 -96h8q22 62 72.5 93t113.5 31q52 0 93.5 -22t65.5 -71t24 -130v-314h-102v293q0 54 -13 89.5t-39 52.5t-68 17q-43 0 -75 -22t-49.5 -58.5t-17.5 -82.5v-289h-103v293q0 54 -13 89.5t-39 52.5t-67 17
q-44 0 -76 -22t-49.5 -58.5t-17.5 -82.5v-289h-102z" />
    <glyph glyph-name="n" unicode="n" horiz-adv-x="610" 
d="M72 0v529h98l4 -105h6q23 56 72 84.5t107 28.5q41 0 75.5 -12t60 -38.5t39.5 -69t14 -103.5v-314h-103v293q0 54 -13 89.5t-40 52.5t-70 17q-45 0 -78.5 -22t-51.5 -58.5t-18 -82.5v-289h-102z" />
    <glyph glyph-name="o" unicode="o" horiz-adv-x="597" 
d="M299 -9q-58 0 -105.5 19t-81.5 55t-53 86t-19 112q0 82 31.5 143.5t90 96t137.5 34.5q58 0 105.5 -18.5t81.5 -54.5t52.5 -86.5t18.5 -113.5q0 -81 -31 -142.5t-89 -96t-138 -34.5zM299 77q46 0 80.5 21.5t53.5 63.5t19 102q0 45 -10.5 79.5t-30.5 59t-48 37t-64 12.5
q-46 0 -80.5 -22t-54 -63.5t-19.5 -103.5q0 -44 10.5 -78.5t31 -58.5t49 -36.5t63.5 -12.5z" />
    <glyph glyph-name="p" unicode="p" horiz-adv-x="619" 
d="M72 -167v696h97l4 -103h6q18 50 65.5 80.5t112.5 30.5q49 0 89 -18.5t69 -53.5t44.5 -86t15.5 -115q0 -86 -27 -147.5t-76 -93.5t-115 -32q-43 0 -79 13.5t-61 39t-38 58.5h-4v-269h-103zM320 75q48 0 81 22.5t51 65t18 101.5t-17.5 101t-50.5 64.5t-80 22.5t-80 -21.5
t-50 -57.5t-17 -79v-60q0 -44 17 -80t50 -57.5t78 -21.5z" />
    <glyph glyph-name="q" unicode="q" horiz-adv-x="619" 
d="M444 -167v270h-5q-18 -50 -65 -81t-113 -31q-48 0 -88.5 19t-69.5 54t-44.5 85.5t-15.5 115.5q0 86 27.5 147t76.5 93.5t114 32.5q44 0 80 -14t61.5 -38.5t36.5 -58.5h6l4 102h98v-696h-103zM296 76q48 0 81 22t50 58t17 79v60q0 44 -17.5 80t-50 57.5t-78.5 21.5
q-47 0 -80.5 -23t-51 -65t-17.5 -101q0 -58 17 -101t50 -65.5t80 -22.5z" />
    <glyph glyph-name="r" unicode="r" horiz-adv-x="379" 
d="M72 0v529h92l5 -94h5q17 51 59 76t94 25q9 0 16.5 -0.5t14.5 -1.5v-97q-6 1 -14.5 1h-17.5q-47 0 -80 -16t-51 -46.5t-21 -73.5v-302h-102z" />
    <glyph glyph-name="s" unicode="s" horiz-adv-x="517" 
d="M258 -10q-50 0 -90.5 12t-69.5 34t-44.5 53.5t-16.5 68.5h102q2 -31 17.5 -52t43 -31t61.5 -10q54 0 82.5 20.5t28.5 57.5q0 28 -12.5 43.5t-39.5 24.5t-71 15q-66 10 -110 26.5t-66 47t-22 79.5q0 48 26 83.5t73 56t110 20.5q62 0 107.5 -20t71.5 -56t28 -86h-101
q-2 31 -15.5 50t-37 27.5t-55.5 8.5q-49 0 -76.5 -20t-27.5 -54q0 -26 14 -41.5t43.5 -24t75.5 -15.5q61 -8 104 -25t64.5 -48t21.5 -83t-27 -88t-76.5 -55t-115.5 -19z" />
    <glyph glyph-name="t" unicode="t" horiz-adv-x="374" 
d="M240 0q-60 0 -90 28.5t-30 92.5v324h-100v84h100v153l102 12v-165h118v-84h-117v-307q0 -28 13.5 -40t38.5 -12h66v-86h-101z" />
    <glyph glyph-name="u" unicode="u" horiz-adv-x="611" 
d="M253 -9q-60 0 -103 23.5t-65 71t-22 117.5v326h103v-300q0 -49 12.5 -83t40.5 -51.5t72 -17.5t76.5 21t50.5 59t18 86v286h103v-529h-98l-5 107h-6q-20 -54 -68 -85t-109 -31z" />
    <glyph glyph-name="v" unicode="v" horiz-adv-x="541" 
d="M206 0l-188 529h111l96 -308l43 -141h5l43 141l96 308h111l-188 -529h-129z" />
    <glyph glyph-name="w" unicode="w" horiz-adv-x="741" 
d="M142 0l-132 529h104l71 -298l30 -139h6l26 139l65 298h119l67 -298l28 -140h5l29 140l71 298h100l-133 -529h-135l-65 272l-27 139h-5l-26 -139l-61 -272h-137z" />
    <glyph glyph-name="x" unicode="x" horiz-adv-x="576" 
d="M15 0l205 274l-185 255h121l120 -173l12 -19h5l11 19l119 173h117l-182 -253l201 -276h-121l-135 193l-14 21h-5l-14 -21l-140 -193h-115z" />
    <glyph glyph-name="y" unicode="y" horiz-adv-x="539" 
d="M57 -167v85h56q24 0 40.5 6.5t28.5 20t19 34.5l32 81v-43l-216 512h113l102 -282l40 -112h6l37 112l96 282h110l-221 -575q-17 -45 -40.5 -71.5t-55 -38t-73.5 -11.5h-74z" />
    <glyph glyph-name="z" unicode="z" horiz-adv-x="511" 
d="M29 0v75l311 370h-297v84h427v-75l-311 -370h322v-84h-452z" />
    <glyph glyph-name="braceleft" unicode="{" horiz-adv-x="400" 
d="M200 -167q-40 0 -59.5 22.5t-19.5 56.5v276q0 38 -18.5 59.5t-44.5 21.5h-27v80h27q26 0 44.5 22t18.5 61v282q0 34 19.5 56.5t59.5 22.5h165v-80h-147v-284q0 -54 -23 -82.5t-55 -32.5v-4q38 -9 58 -41t20 -77v-279h147v-80h-165z" />
    <glyph glyph-name="bar" unicode="|" horiz-adv-x="281" 
d="M93 -67v796h94v-796h-94z" />
    <glyph glyph-name="braceright" unicode="}" horiz-adv-x="400" 
d="M201 793q40 0 59 -22.5t19 -56.5v-276q0 -38 19 -59.5t44 -21.5h28v-80h-28q-26 0 -44.5 -22t-18.5 -61v-282q0 -34 -19 -56.5t-59 -22.5h-166v80h147v284q0 54 23 82.5t55 32.5v4q-38 9 -58 41t-20 77v279h-147v80h166z" />
    <glyph glyph-name="asciitilde" unicode="~" horiz-adv-x="600" 
d="M96 287q-4 55 10.5 86.5t39 45t50.5 13.5q25 0 47 -8t43 -18.5t41.5 -19t42.5 -8.5q28 0 42 16.5t14 45.5h56q3 -42 -5.5 -70.5t-24.5 -45.5t-36 -24.5t-41 -7.5q-28 0 -53 8.5t-46.5 19.5t-40.5 19.5t-37 8.5q-24 0 -36 -18.5t-10 -42.5h-56z" />
    <glyph glyph-name="uni00A0" unicode="&#xa0;" horiz-adv-x="224" 
 />
    <glyph glyph-name="exclamdown" unicode="&#xa1;" horiz-adv-x="253" 
d="M153 323l26 -285v-238h-106v238l26 285h54zM126 536q26 0 42 -15t16 -39q0 -25 -16 -40t-42 -15q-25 0 -41 15t-16 40q0 24 16 39t41 15z" />
    <glyph glyph-name="cent" unicode="&#xa2;" horiz-adv-x="595" 
d="M309 92q-58 0 -105.5 19t-81.5 55.5t-52 86.5t-18 111q0 83 32 144t90.5 95.5t138.5 34.5q64 0 114.5 -24t81 -67t34.5 -100h-100q-6 34 -25 57.5t-46.5 35.5t-61.5 12q-37 0 -65.5 -13.5t-48 -38.5t-29.5 -59.5t-10 -76.5q0 -60 19 -101.5t53 -63t80 -21.5q39 0 68 13.5
t46.5 39t21.5 58.5h100q-4 -60 -35 -104.5t-83 -68.5t-118 -24zM264 0v136h72v-136h-72zM264 590v139h72v-139h-72z" />
    <glyph glyph-name="sterling" unicode="&#xa3;" horiz-adv-x="639" 
d="M103 80q23 33 36 61.5t19 58t6 65.5q0 37 -7.5 69t-17.5 62t-17.5 61t-7.5 66q0 66 29 114t81.5 74.5t123.5 26.5q74 0 125.5 -27t79 -77t26.5 -119h-100q0 64 -34.5 97.5t-93.5 33.5q-42 0 -72 -15.5t-45.5 -43.5t-15.5 -68q0 -30 8 -58.5t18 -58t18.5 -62.5t8.5 -70
q0 -38 -7.5 -72t-26 -65.5t-52.5 -62.5zM47 0v84h437v115h89v-199h-526zM63 321v78h385v-78h-385z" />
    <glyph glyph-name="currency" unicode="&#xa4;" horiz-adv-x="619" 
d="M100 81l-59 59l101 102q-16 23 -24 50.5t-8 55.5q0 32 9 60t24 49l-101 101l59 60l105 -107q21 13 48 20.5t56 7.5q26 0 53.5 -7t49.5 -21l106 107l59 -60l-102 -101q16 -23 24.5 -50.5t8.5 -58.5q0 -28 -8 -55.5t-25 -50.5l102 -102l-59 -59l-105 106
q-21 -14 -48.5 -21.5t-55.5 -7.5q-31 0 -57 7.5t-48 20.5zM310 240q32 0 57 14t39.5 38.5t14.5 56.5t-14.5 56.5t-39.5 38.5t-57 14t-57 -14t-40 -38.5t-15 -56.5t14.5 -56.5t40 -38.5t57.5 -14z" />
    <glyph glyph-name="yen" unicode="&#xa5;" horiz-adv-x="672" 
d="M285 0v126h-184v75h184v95h-184v75h138l-205 358h113l186 -345h5l187 345h113l-203 -358h135v-75h-181v-95h181v-75h-181v-126h-104z" />
    <glyph glyph-name="brokenbar" unicode="&#xa6;" horiz-adv-x="281" 
d="M93 401v328h94v-328h-94zM93 -67v328h94v-328h-94z" />
    <glyph glyph-name="section" unicode="&#xa7;" horiz-adv-x="565" 
d="M273 -10q-51 0 -91.5 12t-69 34t-44 53.5t-17.5 68.5h102q2 -31 18 -52t43 -31t61 -10q55 0 83 19.5t28 56.5q0 27 -12.5 42.5t-41 25.5t-78.5 18q-55 10 -95.5 25t-62 43t-21.5 74q0 33 16.5 61.5t45.5 48.5q-27 19 -39.5 44.5t-12.5 59.5q0 48 26 82.5t73 54t110 19.5
q47 0 84 -11.5t63.5 -32.5t41.5 -50.5t17 -66.5h-101q-1 30 -15 49t-37.5 28t-54.5 9q-49 0 -76.5 -20t-27.5 -54q0 -38 33 -54.5t100 -27.5q57 -9 97 -25.5t61.5 -45.5t21.5 -79q0 -33 -15.5 -60t-41.5 -44q23 -20 35 -45.5t12 -60.5q0 -50 -27 -85.5t-76.5 -54
t-114.5 -18.5zM368 286q15 13 22 27.5t7 33.5q0 39 -25 56t-81 26q-24 5 -44.5 10t-38.5 11q-16 -13 -25.5 -29t-9.5 -34q0 -35 25 -51.5t79 -25.5q25 -4 48.5 -10t42.5 -14z" />
    <glyph glyph-name="dieresis" unicode="&#xa8;" horiz-adv-x="393" 
d="M298 759q-25 0 -41 13.5t-16 36.5t16 36.5t41 13.5q24 0 39.5 -13.5t15.5 -36.5t-15.5 -36.5t-39.5 -13.5zM96 759q-24 0 -40 13.5t-16 36.5t16 36.5t40 13.5q25 0 40.5 -13.5t15.5 -36.5t-15.5 -36.5t-40.5 -13.5z" />
    <glyph glyph-name="copyright" unicode="&#xa9;" horiz-adv-x="864" 
d="M440 161q-59 0 -103 25.5t-68.5 71t-24.5 105.5q0 62 24.5 107.5t69.5 71t105 25.5q50 0 88.5 -18t62 -50.5t25.5 -74.5h-77q-7 39 -36 58t-65 19q-37 0 -63.5 -17.5t-40 -48.5t-13.5 -72q0 -43 14.5 -73.5t40.5 -46.5t61 -16q42 0 70.5 21.5t32.5 59.5h77
q-2 -43 -25.5 -76.5t-63.5 -52t-91 -18.5zM432 -10q-84 0 -154 26.5t-120.5 76.5t-78.5 118.5t-28 152.5t28 152.5t78.5 118t120.5 76t154 26.5t154 -26.5t120.5 -76t78.5 -118t28 -152.5t-28 -152.5t-78.5 -118.5t-120.5 -76.5t-154 -26.5zM432 41q97 0 170.5 40.5t114 113
t40.5 169.5t-40.5 170t-114 113.5t-170.5 40.5q-96 0 -169.5 -40.5t-114.5 -113.5t-41 -170t41 -169.5t114 -113t170 -40.5z" />
    <glyph glyph-name="ordfeminine" unicode="&#xaa;" horiz-adv-x="455" 
d="M189 379q-42 0 -73.5 20.5t-49 60t-17.5 97.5q0 59 17.5 98.5t49 60t73.5 20.5q43 0 73 -19.5t43 -52.5h3l4 66h71v-345h-75v66h-3q-13 -33 -43.5 -52.5t-72.5 -19.5zM216 440q30 0 50.5 14.5t30.5 37t10 47.5v38q0 25 -10 47.5t-30.5 36.5t-50.5 14q-27 0 -47.5 -13
t-32 -39t-11.5 -66q0 -57 25 -87t66 -30z" />
    <glyph glyph-name="guillemotleft" unicode="&#xab;" horiz-adv-x="486" 
d="M163 73l-124 229l124 227h89l-110 -227l110 -229h-89zM357 73l-124 229l124 227h89l-110 -227l110 -229h-89z" />
    <glyph glyph-name="logicalnot" unicode="&#xac;" horiz-adv-x="600" 
d="M438 147v182h-395v81h475v-263h-80z" />
    <glyph glyph-name="registered" unicode="&#xae;" horiz-adv-x="640" 
d="M319 221q-73 0 -131.5 33t-93 91.5t-34.5 134.5q0 58 19.5 105t55 81.5t82.5 53t102 18.5q74 0 133 -32.5t94 -91t35 -134.5q0 -57 -20 -104.5t-55.5 -82.5t-83.5 -53.5t-103 -18.5zM320 259q62 0 112 28t79.5 77.5t29.5 114.5t-29.5 115t-79.5 78.5t-111 28.5
q-62 0 -112 -28.5t-79.5 -78.5t-29.5 -116q0 -64 30 -114t79.5 -77.5t110.5 -27.5zM217 346v269h130q47 0 70.5 -20t23.5 -53q0 -25 -13 -42t-33 -23v-1q22 -5 31 -18t9 -36v-47q0 -6 0.5 -14t3.5 -15h-53q-3 5 -3.5 11t-0.5 19v44q0 15 -7.5 24.5t-29.5 9.5h-85v39h77
q24 0 36 11t12 29q0 20 -13 29t-35 9h-67v-225h-53z" />
    <glyph glyph-name="macron" unicode="&#xaf;" horiz-adv-x="435" 
d="M40 761v78h355v-78h-355z" />
    <glyph glyph-name="degree" unicode="&#xb0;" horiz-adv-x="472" 
d="M236 419q-48 0 -86.5 20t-61 56t-22.5 83q0 48 22.5 84t61 56t86.5 20t86 -20t60.5 -56t22.5 -84q0 -47 -22.5 -83t-60.5 -56t-86 -20zM236 490q38 0 64.5 24.5t26.5 63.5q0 41 -26.5 64.5t-64.5 23.5q-39 0 -65 -23.5t-26 -64.5q0 -39 26 -63.5t65 -24.5z" />
    <glyph glyph-name="plusminus" unicode="&#xb1;" horiz-adv-x="600" 
d="M257 176v172h-204v82h204v173h85v-173h204v-82h-204v-172h-85zM53 0v75h493v-75h-493z" />
    <glyph glyph-name="uni00B2" unicode="&#xb2;" horiz-adv-x="378" 
d="M42 336v17q0 40 15.5 70.5t40 54.5t52.5 43.5t52.5 38.5t40 39.5t15.5 45.5q0 31 -19 48t-50 17q-34 0 -54.5 -21t-20.5 -54h-74q2 63 43 100.5t110 37.5q64 0 102 -34.5t38 -90.5q0 -31 -13 -56.5t-35.5 -46t-47.5 -38.5t-48.5 -34.5t-41 -34t-23.5 -37.5h210v-65h-292z
" />
    <glyph glyph-name="uni00B3" unicode="&#xb3;" horiz-adv-x="393" 
d="M188 331q-45 0 -78.5 16t-52 45.5t-20.5 68.5h73q1 -33 23.5 -50.5t54.5 -17.5q37 0 59 19.5t22 51.5q0 33 -20 49.5t-54 16.5h-46v56h39q37 0 56.5 18t19.5 46q0 30 -19.5 45.5t-51.5 15.5q-33 0 -54 -18t-22 -48h-73q2 40 21.5 68.5t53 44.5t76.5 16q33 0 59 -8t45 -23
t29 -36.5t10 -48.5q0 -35 -20 -60t-49 -35v-4q36 -9 55.5 -36.5t19.5 -64.5q0 -40 -19.5 -68t-55 -43.5t-81.5 -15.5z" />
    <glyph glyph-name="acute" unicode="&#xb4;" horiz-adv-x="246" 
d="M40 741l62 142h104l-87 -142h-79z" />
    <glyph glyph-name="paragraph" unicode="&#xb6;" horiz-adv-x="660" 
d="M245 0v376q-95 -2 -147 47t-52 130q0 57 24 96t69 59.5t106 20.5h377v-89h-95v-640h-98v640h-107v-640h-77z" />
    <glyph glyph-name="periodcentered" unicode="&#xb7;" horiz-adv-x="212" 
d="M106 210q-29 0 -48.5 19.5t-19.5 47.5q0 19 9 34t24.5 24t34.5 9q31 0 49 -19t18 -48q0 -19 -8 -34t-23 -24t-36 -9z" />
    <glyph glyph-name="cedilla" unicode="&#xb8;" horiz-adv-x="327" 
d="M166 -245q-46 0 -81 20.5t-45 62.5l67 18q5 -18 19 -29t35 -11q25 0 38.5 12.5t13.5 33.5q0 24 -20.5 36.5t-65.5 20.5l-12 23l42 74h52l-24 -60q48 -13 75 -38.5t27 -66.5q0 -44 -33.5 -70.5t-87.5 -25.5z" />
    <glyph glyph-name="uni00B9" unicode="&#xb9;" horiz-adv-x="276" 
d="M131 336v302h-107v57h17q43 0 66.5 20.5t26.5 53.5h70v-433h-73z" />
    <glyph glyph-name="ordmasculine" unicode="&#xba;" horiz-adv-x="430" 
d="M216 379q-51 0 -89 21.5t-59.5 61.5t-21.5 95q0 53 20 93t58.5 63t91.5 23q75 0 121.5 -48t46.5 -131q0 -53 -20 -93t-58 -62.5t-90 -22.5zM216 441q28 0 49 13t32.5 39t11.5 64t-11.5 64t-32.5 39.5t-49 13.5t-49.5 -13.5t-33.5 -39.5t-12 -64q0 -37 11.5 -63.5
t33 -39.5t50.5 -13z" />
    <glyph glyph-name="guillemotright" unicode="&#xbb;" horiz-adv-x="486" 
d="M323 529l123 -229l-123 -227h-90l111 227l-111 229h90zM129 529l124 -229l-124 -227h-89l110 227l-110 229h89z" />
    <glyph glyph-name="onequarter" unicode="&#xbc;" horiz-adv-x="723" 
d="M123 341v271h-97v50h15q39 0 60 18t24 49h64v-388h-66zM39 0l496 721h81l-497 -721h-80zM563 0v359l27 -9l-146 -203h253v-55h-319v51l172 245h80v-388h-67z" />
    <glyph glyph-name="onehalf" unicode="&#xbd;" horiz-adv-x="745" 
d="M123 341v271h-97v50h15q39 0 60 18t24 49h64v-388h-66zM39 0l496 721h81l-497 -721h-80zM433 0v15q0 36 14.5 63.5t37 48.5t48 39t48 35t36.5 35t14 41q0 27 -17.5 42.5t-45.5 15.5q-33 0 -51.5 -19t-18.5 -48h-66q2 54 39 89t99 35q59 0 93.5 -31.5t34.5 -81.5
q0 -28 -12.5 -51t-32.5 -41t-43 -33.5t-44.5 -30.5t-37 -31t-21.5 -34h191v-58h-265z" />
    <glyph glyph-name="threequarters" unicode="&#xbe;" horiz-adv-x="819" 
d="M176 336q-61 0 -98 32.5t-39 84.5h65q1 -28 21.5 -44.5t50.5 -16.5q34 0 54 17t20 46q0 30 -18 45t-50 15h-41v49h35q34 0 52.5 16.5t18.5 41.5q0 27 -18 41t-49 14q-29 0 -48.5 -15.5t-21.5 -43.5h-64q2 54 39.5 85t97.5 31q29 0 52.5 -7.5t41 -21t26.5 -33t9 -43.5
q0 -30 -17.5 -52.5t-45.5 -32.5v-3q32 -8 50 -32t18 -59q0 -53 -39 -83.5t-102 -30.5zM135 0l496 721h81l-497 -721h-80zM660 0v359l27 -9l-146 -203h253v-55h-319v51l172 245h80v-388h-67z" />
    <glyph glyph-name="questiondown" unicode="&#xbf;" horiz-adv-x="539" 
d="M310 334v-18q0 -35 -12 -64.5t-30.5 -54.5t-39.5 -48t-39.5 -47t-30 -50.5t-11.5 -58.5q0 -38 15.5 -63.5t43 -38.5t64.5 -13q63 0 98.5 37t34.5 94h101q1 -65 -29 -114.5t-84 -76.5t-126 -27q-55 0 -97 13.5t-70.5 39t-43 61t-14.5 79.5q0 41 13 73.5t33 60t42.5 51.5
t42 47.5t32.5 48.5t13 55v14h94zM265 536q26 0 42 -15t16 -39q0 -25 -16 -40t-42 -15q-25 0 -41 15t-16 40q0 24 16 39t41 15z" />
    <glyph glyph-name="Agrave" unicode="&#xc0;" horiz-adv-x="716" 
d="M22 0l259 729h154l258 -729h-113l-188 552l-31 93h-6l-30 -93l-189 -552h-114zM184 169l19 87h309l19 -87h-347zM318 795l-86 142h104l62 -142h-80z" />
    <glyph glyph-name="Aacute" unicode="&#xc1;" horiz-adv-x="716" 
d="M22 0l259 729h154l258 -729h-113l-188 552l-31 93h-6l-30 -93l-189 -552h-114zM184 169l19 87h309l19 -87h-347zM318 795l62 142h104l-87 -142h-79z" />
    <glyph glyph-name="Acircumflex" unicode="&#xc2;" horiz-adv-x="716" 
d="M22 0l259 729h154l258 -729h-113l-188 552l-31 93h-6l-30 -93l-189 -552h-114zM184 169l19 87h309l19 -87h-347zM198 795l108 142h103l109 -142h-90l-70 93l-70 -93h-90z" />
    <glyph glyph-name="Atilde" unicode="&#xc3;" horiz-adv-x="716" 
d="M22 0l259 729h154l258 -729h-113l-188 552l-31 93h-6l-30 -93l-189 -552h-114zM184 169l19 87h309l19 -87h-347zM428 813q-32 0 -55 8t-43 15t-42 7q-21 0 -35.5 -8t-26.5 -24l-47 27q16 29 32.5 45.5t35 23.5t39.5 7q25 0 48.5 -7.5t47 -15.5t46.5 -8q17 0 33.5 8
t28.5 25l48 -28q-14 -28 -31.5 -44.5t-37 -23.5t-41.5 -7z" />
    <glyph glyph-name="Adieresis" unicode="&#xc4;" horiz-adv-x="716" 
d="M22 0l259 729h154l258 -729h-113l-188 552l-31 93h-6l-30 -93l-189 -552h-114zM184 169l19 87h309l19 -87h-347zM459 813q-25 0 -41 13.5t-16 36.5t16 36.5t41 13.5q24 0 39.5 -13.5t15.5 -36.5t-15.5 -36.5t-39.5 -13.5zM257 813q-24 0 -40 13.5t-16 36.5t16 36.5
t40 13.5q25 0 40.5 -13.5t15.5 -36.5t-15.5 -36.5t-40.5 -13.5z" />
    <glyph glyph-name="Aring" unicode="&#xc5;" horiz-adv-x="716" 
d="M22 0l259 729h154l258 -729h-113l-188 552l-31 93h-6l-30 -93l-189 -552h-114zM184 169l19 87h309l19 -87h-347zM358 776q-49 0 -79 28t-30 73q0 46 30 74t79 28q48 0 78 -28t30 -74q0 -45 -30 -73t-78 -28zM358 827q23 0 36.5 14t13.5 36q0 23 -13.5 36.5t-37.5 13.5
q-22 0 -36 -13.5t-14 -36.5q0 -22 14 -36t37 -14z" />
    <glyph glyph-name="AE" unicode="&#xc6;" horiz-adv-x="942" 
d="M22 0l259 729h624v-94h-439l81 -219h309v-88h-281l87 -233h244v-95h-326l-59 169h-326l-59 -169h-114zM221 256h274l-103 296l-31 93h-6l-30 -93z" />
    <glyph glyph-name="Ccedilla" unicode="&#xc7;" horiz-adv-x="771" 
d="M403 -9q-81 0 -147 25.5t-114 74.5t-73.5 118t-25.5 155q0 87 26 156t73.5 117.5t113.5 74t147 25.5q90 0 160.5 -31t115 -87.5t55.5 -133.5h-110q-10 46 -40 81.5t-75.5 56t-105.5 20.5q-76 0 -131.5 -33t-85.5 -95t-30 -151q0 -66 17.5 -118t49.5 -87.5t77.5 -54.5
t102.5 -19q59 0 105.5 20t76.5 56.5t39 85.5h110q-9 -78 -53.5 -135.5t-116 -89t-161.5 -31.5zM392 -245q-46 0 -81 20.5t-45 62.5l67 18q5 -18 19 -29t35 -11q25 0 38.5 12.5t13.5 33.5q0 24 -20.5 36.5t-65.5 20.5l-12 23l42 74h52l-24 -60q48 -13 75 -38.5t27 -66.5
q0 -44 -33.5 -70.5t-87.5 -25.5z" />
    <glyph glyph-name="Egrave" unicode="&#xc8;" horiz-adv-x="627" 
d="M79 0v729h511v-94h-427l25 24v-588l-25 24h428v-95h-512zM163 328v88h378v-88h-378zM276 795l-86 142h104l62 -142h-80z" />
    <glyph glyph-name="Eacute" unicode="&#xc9;" horiz-adv-x="627" 
d="M79 0v729h511v-94h-427l25 24v-588l-25 24h428v-95h-512zM163 328v88h378v-88h-378zM277 795l62 142h104l-87 -142h-79z" />
    <glyph glyph-name="Ecircumflex" unicode="&#xca;" horiz-adv-x="627" 
d="M79 0v729h511v-94h-427l25 24v-588l-25 24h428v-95h-512zM163 328v88h378v-88h-378zM156 795l108 142h103l109 -142h-90l-70 93l-70 -93h-90z" />
    <glyph glyph-name="Edieresis" unicode="&#xcb;" horiz-adv-x="627" 
d="M79 0v729h511v-94h-427l25 24v-588l-25 24h428v-95h-512zM163 328v88h378v-88h-378zM417 813q-25 0 -41 13.5t-16 36.5t16 36.5t41 13.5q24 0 39.5 -13.5t15.5 -36.5t-15.5 -36.5t-39.5 -13.5zM215 813q-24 0 -40 13.5t-16 36.5t16 36.5t40 13.5q25 0 40.5 -13.5
t15.5 -36.5t-15.5 -36.5t-40.5 -13.5z" />
    <glyph glyph-name="Igrave" unicode="&#xcc;" horiz-adv-x="267" 
d="M79 0v729h109v-729h-109zM93 795l-86 142h104l62 -142h-80z" />
    <glyph glyph-name="Iacute" unicode="&#xcd;" horiz-adv-x="267" 
d="M79 0v729h109v-729h-109zM94 795l62 142h104l-87 -142h-79z" />
    <glyph glyph-name="Icircumflex" unicode="&#xce;" horiz-adv-x="267" 
d="M79 0v729h109v-729h-109zM-26 795l108 142h103l109 -142h-90l-70 93l-70 -93h-90z" />
    <glyph glyph-name="Idieresis" unicode="&#xcf;" horiz-adv-x="267" 
d="M79 0v729h109v-729h-109zM235 813q-25 0 -41 13.5t-16 36.5t16 36.5t41 13.5q24 0 39.5 -13.5t15.5 -36.5t-15.5 -36.5t-39.5 -13.5zM33 813q-24 0 -40 13.5t-16 36.5t16 36.5t40 13.5q25 0 40.5 -13.5t15.5 -36.5t-15.5 -36.5t-40.5 -13.5z" />
    <glyph glyph-name="Eth" unicode="&#xd0;" horiz-adv-x="790" 
d="M121 0v729h294q106 0 179.5 -45.5t112 -127.5t38.5 -192q0 -82 -22 -149t-64 -115t-103.5 -74t-140.5 -26h-294zM230 94h170q53 0 96 16.5t74 50t47.5 85t16.5 120.5q0 93 -29.5 152.5t-82 88t-122.5 28.5h-170v-541zM26 326v81h378v-81h-378z" />
    <glyph glyph-name="Ntilde" unicode="&#xd1;" horiz-adv-x="775" 
d="M79 0v729h136l376 -581h5l-5 241v340h105v-729h-130l-376 577h-5l4 -227v-350h-110zM458 813q-32 0 -55 8t-43 15t-42 7q-21 0 -35.5 -8t-26.5 -24l-47 27q16 29 32.5 45.5t35 23.5t39.5 7q25 0 48.5 -7.5t47 -15.5t46.5 -8q17 0 33.5 8t28.5 25l48 -28
q-14 -28 -31.5 -44.5t-37 -23.5t-41.5 -7z" />
    <glyph glyph-name="Ograve" unicode="&#xd2;" horiz-adv-x="806" 
d="M403 -9q-81 0 -147 25.5t-114 74.5t-73.5 118t-25.5 155q0 87 26 156t73.5 117.5t113.5 74t147 25.5q82 0 147.5 -25.5t113.5 -74t73.5 -117.5t25.5 -156t-26 -156t-73.5 -117.5t-113.5 -74t-147 -25.5zM403 85q76 0 131.5 33.5t86 95.5t30.5 150q0 67 -17.5 118.5
t-50 87.5t-78 54.5t-102.5 18.5q-76 0 -131.5 -33t-85.5 -95t-30 -151q0 -66 17.5 -118t49.5 -87.5t77.5 -54.5t102.5 -19zM363 795l-86 142h104l62 -142h-80z" />
    <glyph glyph-name="Oacute" unicode="&#xd3;" horiz-adv-x="806" 
d="M403 -9q-81 0 -147 25.5t-114 74.5t-73.5 118t-25.5 155q0 87 26 156t73.5 117.5t113.5 74t147 25.5q82 0 147.5 -25.5t113.5 -74t73.5 -117.5t25.5 -156t-26 -156t-73.5 -117.5t-113.5 -74t-147 -25.5zM403 85q76 0 131.5 33.5t86 95.5t30.5 150q0 67 -17.5 118.5
t-50 87.5t-78 54.5t-102.5 18.5q-76 0 -131.5 -33t-85.5 -95t-30 -151q0 -66 17.5 -118t49.5 -87.5t77.5 -54.5t102.5 -19zM364 795l62 142h104l-87 -142h-79z" />
    <glyph glyph-name="Ocircumflex" unicode="&#xd4;" horiz-adv-x="806" 
d="M403 -9q-81 0 -147 25.5t-114 74.5t-73.5 118t-25.5 155q0 87 26 156t73.5 117.5t113.5 74t147 25.5q82 0 147.5 -25.5t113.5 -74t73.5 -117.5t25.5 -156t-26 -156t-73.5 -117.5t-113.5 -74t-147 -25.5zM403 85q76 0 131.5 33.5t86 95.5t30.5 150q0 67 -17.5 118.5
t-50 87.5t-78 54.5t-102.5 18.5q-76 0 -131.5 -33t-85.5 -95t-30 -151q0 -66 17.5 -118t49.5 -87.5t77.5 -54.5t102.5 -19zM244 795l108 142h103l109 -142h-90l-70 93l-70 -93h-90z" />
    <glyph glyph-name="Otilde" unicode="&#xd5;" horiz-adv-x="806" 
d="M403 -9q-81 0 -147 25.5t-114 74.5t-73.5 118t-25.5 155q0 87 26 156t73.5 117.5t113.5 74t147 25.5q82 0 147.5 -25.5t113.5 -74t73.5 -117.5t25.5 -156t-26 -156t-73.5 -117.5t-113.5 -74t-147 -25.5zM403 85q76 0 131.5 33.5t86 95.5t30.5 150q0 67 -17.5 118.5
t-50 87.5t-78 54.5t-102.5 18.5q-76 0 -131.5 -33t-85.5 -95t-30 -151q0 -66 17.5 -118t49.5 -87.5t77.5 -54.5t102.5 -19zM474 813q-32 0 -55 8t-43 15t-42 7q-21 0 -35.5 -8t-26.5 -24l-47 27q16 29 32.5 45.5t35 23.5t39.5 7q25 0 48.5 -7.5t47 -15.5t46.5 -8
q17 0 33.5 8t28.5 25l48 -28q-14 -28 -31.5 -44.5t-37 -23.5t-41.5 -7z" />
    <glyph glyph-name="Odieresis" unicode="&#xd6;" horiz-adv-x="806" 
d="M403 -9q-81 0 -147 25.5t-114 74.5t-73.5 118t-25.5 155q0 87 26 156t73.5 117.5t113.5 74t147 25.5q82 0 147.5 -25.5t113.5 -74t73.5 -117.5t25.5 -156t-26 -156t-73.5 -117.5t-113.5 -74t-147 -25.5zM403 85q76 0 131.5 33.5t86 95.5t30.5 150q0 67 -17.5 118.5
t-50 87.5t-78 54.5t-102.5 18.5q-76 0 -131.5 -33t-85.5 -95t-30 -151q0 -66 17.5 -118t49.5 -87.5t77.5 -54.5t102.5 -19zM505 813q-25 0 -41 13.5t-16 36.5t16 36.5t41 13.5q24 0 39.5 -13.5t15.5 -36.5t-15.5 -36.5t-39.5 -13.5zM303 813q-24 0 -40 13.5t-16 36.5
t16 36.5t40 13.5q25 0 40.5 -13.5t15.5 -36.5t-15.5 -36.5t-40.5 -13.5z" />
    <glyph glyph-name="multiply" unicode="&#xd7;" horiz-adv-x="600" 
d="M147 150l-57 57l154 154l-154 153l57 57l154 -153l153 153l57 -57l-153 -153l153 -154l-57 -57l-153 154z" />
    <glyph glyph-name="Oslash" unicode="&#xd8;" horiz-adv-x="806" 
d="M403 -9q-81 0 -147 25.5t-114 74.5t-73.5 118t-25.5 155q0 87 26 156t73.5 117.5t113.5 74t147 25.5q82 0 147.5 -25.5t113.5 -74t73.5 -117.5t25.5 -156t-26 -156t-73.5 -117.5t-113.5 -74t-147 -25.5zM403 85q76 0 131.5 33.5t86 95.5t30.5 150q0 67 -17.5 118.5
t-50 87.5t-78 54.5t-102.5 18.5q-76 0 -131.5 -33t-85.5 -95t-30 -151q0 -66 17.5 -118t49.5 -87.5t77.5 -54.5t102.5 -19zM61 -40l597 810h87l-594 -810h-90z" />
    <glyph glyph-name="Ugrave" unicode="&#xd9;" horiz-adv-x="731" 
d="M365 -9q-93 0 -160 34t-102.5 96.5t-35.5 148.5v459h108v-457q0 -61 23 -102t66 -61t102 -20q64 0 106 22t63 63.5t21 97.5v457h108v-459q0 -86 -36 -148.5t-102.5 -96.5t-160.5 -34zM326 795l-86 142h104l62 -142h-80z" />
    <glyph glyph-name="Uacute" unicode="&#xda;" horiz-adv-x="731" 
d="M365 -9q-93 0 -160 34t-102.5 96.5t-35.5 148.5v459h108v-457q0 -61 23 -102t66 -61t102 -20q64 0 106 22t63 63.5t21 97.5v457h108v-459q0 -86 -36 -148.5t-102.5 -96.5t-160.5 -34zM326 795l62 142h104l-87 -142h-79z" />
    <glyph glyph-name="Ucircumflex" unicode="&#xdb;" horiz-adv-x="731" 
d="M365 -9q-93 0 -160 34t-102.5 96.5t-35.5 148.5v459h108v-457q0 -61 23 -102t66 -61t102 -20q64 0 106 22t63 63.5t21 97.5v457h108v-459q0 -86 -36 -148.5t-102.5 -96.5t-160.5 -34zM206 795l108 142h103l109 -142h-90l-70 93l-70 -93h-90z" />
    <glyph glyph-name="Udieresis" unicode="&#xdc;" horiz-adv-x="731" 
d="M365 -9q-93 0 -160 34t-102.5 96.5t-35.5 148.5v459h108v-457q0 -61 23 -102t66 -61t102 -20q64 0 106 22t63 63.5t21 97.5v457h108v-459q0 -86 -36 -148.5t-102.5 -96.5t-160.5 -34zM467 813q-25 0 -41 13.5t-16 36.5t16 36.5t41 13.5q24 0 39.5 -13.5t15.5 -36.5
t-15.5 -36.5t-39.5 -13.5zM265 813q-24 0 -40 13.5t-16 36.5t16 36.5t40 13.5q25 0 40.5 -13.5t15.5 -36.5t-15.5 -36.5t-40.5 -13.5z" />
    <glyph glyph-name="Yacute" unicode="&#xdd;" horiz-adv-x="688" 
d="M289 0v287l-270 442h125l115 -200l81 -146h6l83 146l116 200h124l-271 -442v-287h-109zM306 795l62 142h104l-87 -142h-79z" />
    <glyph glyph-name="Thorn" unicode="&#xde;" horiz-adv-x="647" 
d="M158 130v94h182q76 0 118 37t42 103q0 34 -11 60t-31.5 43.5t-50 26.5t-67.5 9h-182v94h195q59 0 107 -15.5t82 -45.5t51.5 -73t17.5 -99q0 -73 -31.5 -125.5t-89.5 -80.5t-138 -28h-194zM79 0v729h109v-729h-109z" />
    <glyph glyph-name="germandbls" unicode="&#xdf;" horiz-adv-x="663" 
d="M124 0v498q0 63 18 108.5t50 75t75 43.5t93 14q68 0 117 -23.5t75.5 -65.5t26.5 -98q0 -35 -11 -65t-33.5 -52t-55.5 -33v-6q43 -5 76.5 -29.5t53 -63t19.5 -89.5q0 -64 -28 -112.5t-83 -75t-137 -26.5h-78v85h67q49 0 84 15.5t52.5 46.5t17.5 77q0 61 -35.5 94
t-101.5 33h-60v70h33q60 0 92.5 31t32.5 82q0 52 -33 82.5t-92 30.5q-63 0 -97.5 -36.5t-34.5 -104.5v-506h-103zM20 445v84h164v-84h-164z" />
    <glyph glyph-name="agrave" unicode="&#xe0;" horiz-adv-x="619" 
d="M261 -9q-48 0 -88.5 19t-69.5 54t-44.5 85.5t-15.5 115.5q0 86 27.5 147t76.5 93.5t114 32.5q44 0 80 -14t61.5 -38.5t36.5 -58.5h6l4 102h98v-529h-98l-4 103h-6q-18 -50 -65 -81t-113 -31zM296 76q48 0 81 22t50 58t17 79v60q0 44 -17.5 80t-50 57.5t-78.5 21.5
q-47 0 -80.5 -23t-51 -65t-17.5 -101q0 -58 17 -101t50 -65.5t80 -22.5zM273 595l-86 142h104l62 -142h-80z" />
    <glyph glyph-name="aacute" unicode="&#xe1;" horiz-adv-x="619" 
d="M261 -9q-48 0 -88.5 19t-69.5 54t-44.5 85.5t-15.5 115.5q0 86 27.5 147t76.5 93.5t114 32.5q44 0 80 -14t61.5 -38.5t36.5 -58.5h6l4 102h98v-529h-98l-4 103h-6q-18 -50 -65 -81t-113 -31zM296 76q48 0 81 22t50 58t17 79v60q0 44 -17.5 80t-50 57.5t-78.5 21.5
q-47 0 -80.5 -23t-51 -65t-17.5 -101q0 -58 17 -101t50 -65.5t80 -22.5zM274 595l62 142h104l-87 -142h-79z" />
    <glyph glyph-name="acircumflex" unicode="&#xe2;" horiz-adv-x="619" 
d="M261 -9q-48 0 -88.5 19t-69.5 54t-44.5 85.5t-15.5 115.5q0 86 27.5 147t76.5 93.5t114 32.5q44 0 80 -14t61.5 -38.5t36.5 -58.5h6l4 102h98v-529h-98l-4 103h-6q-18 -50 -65 -81t-113 -31zM296 76q48 0 81 22t50 58t17 79v60q0 44 -17.5 80t-50 57.5t-78.5 21.5
q-47 0 -80.5 -23t-51 -65t-17.5 -101q0 -58 17 -101t50 -65.5t80 -22.5zM153 595l108 142h103l109 -142h-90l-70 93l-70 -93h-90z" />
    <glyph glyph-name="atilde" unicode="&#xe3;" horiz-adv-x="619" 
d="M261 -9q-48 0 -88.5 19t-69.5 54t-44.5 85.5t-15.5 115.5q0 86 27.5 147t76.5 93.5t114 32.5q44 0 80 -14t61.5 -38.5t36.5 -58.5h6l4 102h98v-529h-98l-4 103h-6q-18 -50 -65 -81t-113 -31zM296 76q48 0 81 22t50 58t17 79v60q0 44 -17.5 80t-50 57.5t-78.5 21.5
q-47 0 -80.5 -23t-51 -65t-17.5 -101q0 -58 17 -101t50 -65.5t80 -22.5zM383 613q-32 0 -55 8t-43 15t-42 7q-21 0 -35.5 -8t-26.5 -24l-47 27q16 29 32.5 45.5t35 23.5t39.5 7q25 0 48.5 -7.5t47 -15.5t46.5 -8q17 0 33.5 8t28.5 25l48 -28q-14 -28 -31.5 -44.5t-37 -23.5
t-41.5 -7z" />
    <glyph glyph-name="adieresis" unicode="&#xe4;" horiz-adv-x="619" 
d="M261 -9q-48 0 -88.5 19t-69.5 54t-44.5 85.5t-15.5 115.5q0 86 27.5 147t76.5 93.5t114 32.5q44 0 80 -14t61.5 -38.5t36.5 -58.5h6l4 102h98v-529h-98l-4 103h-6q-18 -50 -65 -81t-113 -31zM296 76q48 0 81 22t50 58t17 79v60q0 44 -17.5 80t-50 57.5t-78.5 21.5
q-47 0 -80.5 -23t-51 -65t-17.5 -101q0 -58 17 -101t50 -65.5t80 -22.5zM414 613q-25 0 -41 13.5t-16 36.5t16 36.5t41 13.5q24 0 39.5 -13.5t15.5 -36.5t-15.5 -36.5t-39.5 -13.5zM212 613q-24 0 -40 13.5t-16 36.5t16 36.5t40 13.5q25 0 40.5 -13.5t15.5 -36.5
t-15.5 -36.5t-40.5 -13.5z" />
    <glyph glyph-name="aring" unicode="&#xe5;" horiz-adv-x="619" 
d="M261 -9q-48 0 -88.5 19t-69.5 54t-44.5 85.5t-15.5 115.5q0 86 27.5 147t76.5 93.5t114 32.5q44 0 80 -14t61.5 -38.5t36.5 -58.5h6l4 102h98v-529h-98l-4 103h-6q-18 -50 -65 -81t-113 -31zM296 76q48 0 81 22t50 58t17 79v60q0 44 -17.5 80t-50 57.5t-78.5 21.5
q-47 0 -80.5 -23t-51 -65t-17.5 -101q0 -58 17 -101t50 -65.5t80 -22.5zM314 576q-49 0 -79 28t-30 73q0 46 30 74t79 28q48 0 78 -28t30 -74q0 -45 -30 -73t-78 -28zM314 627q23 0 36.5 14t13.5 36q0 23 -13.5 36.5t-37.5 13.5q-22 0 -36 -13.5t-14 -36.5q0 -22 14 -36
t37 -14z" />
    <glyph glyph-name="ae" unicode="&#xe6;" horiz-adv-x="914" 
d="M209 -9q-79 0 -125 41.5t-46 108.5q0 44 17 76t48 52.5t72 30.5t90 10h162v-66h-144q-43 0 -74.5 -10t-48.5 -30.5t-17 -53.5q0 -40 25.5 -62.5t70.5 -22.5q33 0 65.5 12.5t53 40t20.5 71.5v154q0 42 -14 67t-38 36t-56 11q-34 0 -59.5 -11t-39.5 -29.5t-16 -44.5h-101
q1 50 29 87.5t77.5 58.5t115.5 21q62 0 105.5 -23.5t61.5 -61.5h7q27 39 76 61t106 22q63 0 110.5 -21.5t78 -60.5t43 -93t6.5 -119h-404v66h304q-1 50 -19 82.5t-49.5 48.5t-73.5 16q-43 0 -76.5 -18.5t-53.5 -53t-21 -82.5v-54q0 -42 11 -75t31 -55.5t48.5 -34.5t63.5 -12
q55 0 90 24t46 63h98q-7 -52 -40.5 -89.5t-84 -57.5t-113.5 -20q-74 0 -128 30.5t-82 84.5h-4q-14 -33 -44 -59t-71 -41t-89 -15z" />
    <glyph glyph-name="ccedilla" unicode="&#xe7;" horiz-adv-x="567" 
d="M297 -9q-58 0 -105.5 19.5t-81 55.5t-52 86t-18.5 112t18.5 112t53 86t82.5 55.5t107 19.5q63 0 113 -23t80.5 -65t35.5 -97h-100q-7 33 -26 55t-46 33t-60 11q-37 0 -65.5 -13.5t-48 -38t-29.5 -59t-10 -77.5q0 -59 19 -100.5t53 -63.5t80 -22q38 0 66 13.5t46 37
t23 55.5h101q-6 -58 -37.5 -101.5t-82.5 -67t-116 -23.5zM287 -245q-46 0 -81 20.5t-45 62.5l67 18q5 -18 19 -29t35 -11q25 0 38.5 12.5t13.5 33.5q0 24 -20.5 36.5t-65.5 20.5l-12 23l42 74h52l-24 -60q48 -13 75 -38.5t27 -66.5q0 -44 -33.5 -70.5t-87.5 -25.5z" />
    <glyph glyph-name="egrave" unicode="&#xe8;" horiz-adv-x="579" 
d="M282 -9q-77 0 -132.5 33.5t-84.5 94.5t-29 143q0 84 29 146t83.5 95.5t130.5 33.5q83 0 137.5 -37.5t78.5 -103.5t18 -152h-376q1 -58 19 -96.5t50.5 -58t75.5 -19.5q52 0 84.5 23t43.5 61h98q-8 -51 -39 -87.5t-79 -56t-108 -19.5zM138 301l-10 13h294l-10 -14
q1 55 -15.5 90t-47 51.5t-70.5 16.5q-42 0 -73 -18t-49 -53t-19 -86zM252 595l-86 142h104l62 -142h-80z" />
    <glyph glyph-name="eacute" unicode="&#xe9;" horiz-adv-x="579" 
d="M282 -9q-77 0 -132.5 33.5t-84.5 94.5t-29 143q0 84 29 146t83.5 95.5t130.5 33.5q83 0 137.5 -37.5t78.5 -103.5t18 -152h-376q1 -58 19 -96.5t50.5 -58t75.5 -19.5q52 0 84.5 23t43.5 61h98q-8 -51 -39 -87.5t-79 -56t-108 -19.5zM138 301l-10 13h294l-10 -14
q1 55 -15.5 90t-47 51.5t-70.5 16.5q-42 0 -73 -18t-49 -53t-19 -86zM252 595l62 142h104l-87 -142h-79z" />
    <glyph glyph-name="ecircumflex" unicode="&#xea;" horiz-adv-x="579" 
d="M282 -9q-77 0 -132.5 33.5t-84.5 94.5t-29 143q0 84 29 146t83.5 95.5t130.5 33.5q83 0 137.5 -37.5t78.5 -103.5t18 -152h-376q1 -58 19 -96.5t50.5 -58t75.5 -19.5q52 0 84.5 23t43.5 61h98q-8 -51 -39 -87.5t-79 -56t-108 -19.5zM138 301l-10 13h294l-10 -14
q1 55 -15.5 90t-47 51.5t-70.5 16.5q-42 0 -73 -18t-49 -53t-19 -86zM132 595l108 142h103l109 -142h-90l-70 93l-70 -93h-90z" />
    <glyph glyph-name="edieresis" unicode="&#xeb;" horiz-adv-x="579" 
d="M282 -9q-77 0 -132.5 33.5t-84.5 94.5t-29 143q0 84 29 146t83.5 95.5t130.5 33.5q83 0 137.5 -37.5t78.5 -103.5t18 -152h-376q1 -58 19 -96.5t50.5 -58t75.5 -19.5q52 0 84.5 23t43.5 61h98q-8 -51 -39 -87.5t-79 -56t-108 -19.5zM138 301l-10 13h294l-10 -14
q1 55 -15.5 90t-47 51.5t-70.5 16.5q-42 0 -73 -18t-49 -53t-19 -86zM393 613q-25 0 -41 13.5t-16 36.5t16 36.5t41 13.5q24 0 39.5 -13.5t15.5 -36.5t-15.5 -36.5t-39.5 -13.5zM191 613q-24 0 -40 13.5t-16 36.5t16 36.5t40 13.5q25 0 40.5 -13.5t15.5 -36.5t-15.5 -36.5
t-40.5 -13.5z" />
    <glyph glyph-name="igrave" unicode="&#xec;" horiz-adv-x="246" 
d="M72 0v529h103v-529h-103zM84 595l-86 142h104l62 -142h-80z" />
    <glyph glyph-name="iacute" unicode="&#xed;" horiz-adv-x="246" 
d="M72 0v529h103v-529h-103zM84 595l62 142h104l-87 -142h-79z" />
    <glyph glyph-name="icircumflex" unicode="&#xee;" horiz-adv-x="246" 
d="M72 0v529h103v-529h-103zM-36 595l108 142h103l109 -142h-90l-70 93l-70 -93h-90z" />
    <glyph glyph-name="idieresis" unicode="&#xef;" horiz-adv-x="246" 
d="M72 0v529h103v-529h-103zM225 613q-25 0 -41 13.5t-16 36.5t16 36.5t41 13.5q24 0 39.5 -13.5t15.5 -36.5t-15.5 -36.5t-39.5 -13.5zM23 613q-24 0 -40 13.5t-16 36.5t16 36.5t40 13.5q25 0 40.5 -13.5t15.5 -36.5t-15.5 -36.5t-40.5 -13.5z" />
    <glyph glyph-name="eth" unicode="&#xf0;" horiz-adv-x="560" 
d="M273 -9q-54 0 -96.5 17.5t-73 50.5t-47 79.5t-16.5 104.5q0 76 26.5 131.5t75 86t114.5 30.5q47 0 85 -19.5t59 -57.5l6 1q-22 56 -55.5 111t-72.5 107t-81 96h119q41 -48 78 -104t65 -116.5t44.5 -123t16.5 -125.5q0 -83 -30 -143.5t-85 -93t-132 -32.5zM279 78
q45 0 76 20t47 57t16 88q0 41 -9.5 73t-28 54t-44 33.5t-58.5 11.5q-43 0 -73 -20.5t-46 -57.5t-16 -90q0 -40 9.5 -71.5t27 -53.5t43 -33t56.5 -11zM153 534v68l340 80v-68z" />
    <glyph glyph-name="ntilde" unicode="&#xf1;" horiz-adv-x="610" 
d="M72 0v529h98l4 -105h6q23 56 72 84.5t107 28.5q41 0 75.5 -12t60 -38.5t39.5 -69t14 -103.5v-314h-103v293q0 54 -13 89.5t-40 52.5t-70 17q-45 0 -78.5 -22t-51.5 -58.5t-18 -82.5v-289h-102zM378 613q-32 0 -55 8t-43 15t-42 7q-21 0 -35.5 -8t-26.5 -24l-47 27
q16 29 32.5 45.5t35 23.5t39.5 7q25 0 48.5 -7.5t47 -15.5t46.5 -8q17 0 33.5 8t28.5 25l48 -28q-14 -28 -31.5 -44.5t-37 -23.5t-41.5 -7z" />
    <glyph glyph-name="ograve" unicode="&#xf2;" horiz-adv-x="597" 
d="M299 -9q-58 0 -105.5 19t-81.5 55t-53 86t-19 112q0 82 31.5 143.5t90 96t137.5 34.5q58 0 105.5 -18.5t81.5 -54.5t52.5 -86.5t18.5 -113.5q0 -81 -31 -142.5t-89 -96t-138 -34.5zM299 77q46 0 80.5 21.5t53.5 63.5t19 102q0 45 -10.5 79.5t-30.5 59t-48 37t-64 12.5
q-46 0 -80.5 -22t-54 -63.5t-19.5 -103.5q0 -44 10.5 -78.5t31 -58.5t49 -36.5t63.5 -12.5zM259 595l-86 142h104l62 -142h-80z" />
    <glyph glyph-name="oacute" unicode="&#xf3;" horiz-adv-x="597" 
d="M299 -9q-58 0 -105.5 19t-81.5 55t-53 86t-19 112q0 82 31.5 143.5t90 96t137.5 34.5q58 0 105.5 -18.5t81.5 -54.5t52.5 -86.5t18.5 -113.5q0 -81 -31 -142.5t-89 -96t-138 -34.5zM299 77q46 0 80.5 21.5t53.5 63.5t19 102q0 45 -10.5 79.5t-30.5 59t-48 37t-64 12.5
q-46 0 -80.5 -22t-54 -63.5t-19.5 -103.5q0 -44 10.5 -78.5t31 -58.5t49 -36.5t63.5 -12.5zM259 595l62 142h104l-87 -142h-79z" />
    <glyph glyph-name="ocircumflex" unicode="&#xf4;" horiz-adv-x="597" 
d="M299 -9q-58 0 -105.5 19t-81.5 55t-53 86t-19 112q0 82 31.5 143.5t90 96t137.5 34.5q58 0 105.5 -18.5t81.5 -54.5t52.5 -86.5t18.5 -113.5q0 -81 -31 -142.5t-89 -96t-138 -34.5zM299 77q46 0 80.5 21.5t53.5 63.5t19 102q0 45 -10.5 79.5t-30.5 59t-48 37t-64 12.5
q-46 0 -80.5 -22t-54 -63.5t-19.5 -103.5q0 -44 10.5 -78.5t31 -58.5t49 -36.5t63.5 -12.5zM139 595l108 142h103l109 -142h-90l-70 93l-70 -93h-90z" />
    <glyph glyph-name="otilde" unicode="&#xf5;" horiz-adv-x="597" 
d="M299 -9q-58 0 -105.5 19t-81.5 55t-53 86t-19 112q0 82 31.5 143.5t90 96t137.5 34.5q58 0 105.5 -18.5t81.5 -54.5t52.5 -86.5t18.5 -113.5q0 -81 -31 -142.5t-89 -96t-138 -34.5zM299 77q46 0 80.5 21.5t53.5 63.5t19 102q0 45 -10.5 79.5t-30.5 59t-48 37t-64 12.5
q-46 0 -80.5 -22t-54 -63.5t-19.5 -103.5q0 -44 10.5 -78.5t31 -58.5t49 -36.5t63.5 -12.5zM369 613q-32 0 -55 8t-43 15t-42 7q-21 0 -35.5 -8t-26.5 -24l-47 27q16 29 32.5 45.5t35 23.5t39.5 7q25 0 48.5 -7.5t47 -15.5t46.5 -8q17 0 33.5 8t28.5 25l48 -28
q-14 -28 -31.5 -44.5t-37 -23.5t-41.5 -7z" />
    <glyph glyph-name="odieresis" unicode="&#xf6;" horiz-adv-x="597" 
d="M299 -9q-58 0 -105.5 19t-81.5 55t-53 86t-19 112q0 82 31.5 143.5t90 96t137.5 34.5q58 0 105.5 -18.5t81.5 -54.5t52.5 -86.5t18.5 -113.5q0 -81 -31 -142.5t-89 -96t-138 -34.5zM299 77q46 0 80.5 21.5t53.5 63.5t19 102q0 45 -10.5 79.5t-30.5 59t-48 37t-64 12.5
q-46 0 -80.5 -22t-54 -63.5t-19.5 -103.5q0 -44 10.5 -78.5t31 -58.5t49 -36.5t63.5 -12.5zM400 613q-25 0 -41 13.5t-16 36.5t16 36.5t41 13.5q24 0 39.5 -13.5t15.5 -36.5t-15.5 -36.5t-39.5 -13.5zM198 613q-24 0 -40 13.5t-16 36.5t16 36.5t40 13.5q25 0 40.5 -13.5
t15.5 -36.5t-15.5 -36.5t-40.5 -13.5z" />
    <glyph glyph-name="divide" unicode="&#xf7;" horiz-adv-x="600" 
d="M54 320v82h493v-82h-493zM252 148v91h97v-91h-97zM252 483v91h97v-91h-97z" />
    <glyph glyph-name="oslash" unicode="&#xf8;" horiz-adv-x="597" 
d="M299 -9q-58 0 -105.5 19t-81.5 55t-53 86t-19 112q0 82 31.5 143.5t90 96t137.5 34.5q58 0 105.5 -18.5t81.5 -54.5t52.5 -86.5t18.5 -113.5q0 -81 -31 -142.5t-89 -96t-138 -34.5zM299 77q46 0 80.5 21.5t53.5 63.5t19 102q0 45 -10.5 79.5t-30.5 59t-48 37t-64 12.5
q-46 0 -80.5 -22t-54 -63.5t-19.5 -103.5q0 -44 10.5 -78.5t31 -58.5t49 -36.5t63.5 -12.5zM25 -60l478 649h70l-477 -649h-71z" />
    <glyph glyph-name="ugrave" unicode="&#xf9;" horiz-adv-x="611" 
d="M253 -9q-60 0 -103 23.5t-65 71t-22 117.5v326h103v-300q0 -49 12.5 -83t40.5 -51.5t72 -17.5t76.5 21t50.5 59t18 86v286h103v-529h-98l-5 107h-6q-20 -54 -68 -85t-109 -31zM261 595l-86 142h104l62 -142h-80z" />
    <glyph glyph-name="uacute" unicode="&#xfa;" horiz-adv-x="611" 
d="M253 -9q-60 0 -103 23.5t-65 71t-22 117.5v326h103v-300q0 -49 12.5 -83t40.5 -51.5t72 -17.5t76.5 21t50.5 59t18 86v286h103v-529h-98l-5 107h-6q-20 -54 -68 -85t-109 -31zM262 595l62 142h104l-87 -142h-79z" />
    <glyph glyph-name="ucircumflex" unicode="&#xfb;" horiz-adv-x="611" 
d="M253 -9q-60 0 -103 23.5t-65 71t-22 117.5v326h103v-300q0 -49 12.5 -83t40.5 -51.5t72 -17.5t76.5 21t50.5 59t18 86v286h103v-529h-98l-5 107h-6q-20 -54 -68 -85t-109 -31zM141 595l108 142h103l109 -142h-90l-70 93l-70 -93h-90z" />
    <glyph glyph-name="udieresis" unicode="&#xfc;" horiz-adv-x="611" 
d="M253 -9q-60 0 -103 23.5t-65 71t-22 117.5v326h103v-300q0 -49 12.5 -83t40.5 -51.5t72 -17.5t76.5 21t50.5 59t18 86v286h103v-529h-98l-5 107h-6q-20 -54 -68 -85t-109 -31zM402 613q-25 0 -41 13.5t-16 36.5t16 36.5t41 13.5q24 0 39.5 -13.5t15.5 -36.5t-15.5 -36.5
t-39.5 -13.5zM200 613q-24 0 -40 13.5t-16 36.5t16 36.5t40 13.5q25 0 40.5 -13.5t15.5 -36.5t-15.5 -36.5t-40.5 -13.5z" />
    <glyph glyph-name="yacute" unicode="&#xfd;" horiz-adv-x="539" 
d="M57 -167v85h56q24 0 40.5 6.5t28.5 20t19 34.5l32 81v-43l-216 512h113l102 -282l40 -112h6l37 112l96 282h110l-221 -575q-17 -45 -40.5 -71.5t-55 -38t-73.5 -11.5h-74zM230 595l62 142h104l-87 -142h-79z" />
    <glyph glyph-name="thorn" unicode="&#xfe;" horiz-adv-x="619" 
d="M72 -167v896h103v-303h4q18 50 65.5 80.5t112.5 30.5q49 0 89 -18.5t69 -53.5t44.5 -86t15.5 -115q0 -86 -27 -147.5t-76 -93.5t-115 -32q-43 0 -79 13.5t-61 39t-38 58.5h-5v-269h-102zM320 75q48 0 81 22.5t51 65t18 101.5t-17.5 101t-50.5 64.5t-80 22.5t-80 -21.5
t-50 -57.5t-17 -79v-60q0 -44 17 -80t50 -57.5t78 -21.5z" />
    <glyph glyph-name="ydieresis" unicode="&#xff;" horiz-adv-x="539" 
d="M57 -167v85h56q24 0 40.5 6.5t28.5 20t19 34.5l32 81v-43l-216 512h113l102 -282l40 -112h6l37 112l96 282h110l-221 -575q-17 -45 -40.5 -71.5t-55 -38t-73.5 -11.5h-74zM370 613q-25 0 -41 13.5t-16 36.5t16 36.5t41 13.5q24 0 39.5 -13.5t15.5 -36.5t-15.5 -36.5
t-39.5 -13.5zM168 613q-24 0 -40 13.5t-16 36.5t16 36.5t40 13.5q25 0 40.5 -13.5t15.5 -36.5t-15.5 -36.5t-40.5 -13.5z" />
    <glyph glyph-name="Amacron" unicode="&#x100;" horiz-adv-x="716" 
d="M22 0l259 729h154l258 -729h-113l-188 552l-31 93h-6l-30 -93l-189 -552h-114zM184 169l19 87h309l19 -87h-347zM180 815v78h355v-78h-355z" />
    <glyph glyph-name="amacron" unicode="&#x101;" horiz-adv-x="619" 
d="M261 -9q-48 0 -88.5 19t-69.5 54t-44.5 85.5t-15.5 115.5q0 86 27.5 147t76.5 93.5t114 32.5q44 0 80 -14t61.5 -38.5t36.5 -58.5h6l4 102h98v-529h-98l-4 103h-6q-18 -50 -65 -81t-113 -31zM296 76q48 0 81 22t50 58t17 79v60q0 44 -17.5 80t-50 57.5t-78.5 21.5
q-47 0 -80.5 -23t-51 -65t-17.5 -101q0 -58 17 -101t50 -65.5t80 -22.5zM135 615v78h355v-78h-355z" />
    <glyph glyph-name="Abreve" unicode="&#x102;" horiz-adv-x="716" 
d="M22 0l259 729h154l258 -729h-113l-188 552l-31 93h-6l-30 -93l-189 -552h-114zM184 169l19 87h309l19 -87h-347zM358 787q-46 0 -80 17.5t-51.5 50.5t-18.5 79h72q0 -43 20.5 -64.5t57.5 -21.5t57.5 21.5t20.5 64.5h72q-1 -70 -40.5 -108.5t-109.5 -38.5z" />
    <glyph glyph-name="abreve" unicode="&#x103;" horiz-adv-x="619" 
d="M261 -9q-48 0 -88.5 19t-69.5 54t-44.5 85.5t-15.5 115.5q0 86 27.5 147t76.5 93.5t114 32.5q44 0 80 -14t61.5 -38.5t36.5 -58.5h6l4 102h98v-529h-98l-4 103h-6q-18 -50 -65 -81t-113 -31zM296 76q48 0 81 22t50 58t17 79v60q0 44 -17.5 80t-50 57.5t-78.5 21.5
q-47 0 -80.5 -23t-51 -65t-17.5 -101q0 -58 17 -101t50 -65.5t80 -22.5zM313 587q-46 0 -80 17.5t-51.5 50.5t-18.5 79h72q0 -43 20.5 -64.5t57.5 -21.5t57.5 21.5t20.5 64.5h72q-1 -70 -40.5 -108.5t-109.5 -38.5z" />
    <glyph glyph-name="Aogonek" unicode="&#x104;" horiz-adv-x="716" 
d="M22 0l259 729h154l258 -729h-113l-188 552l-31 93h-6l-30 -93l-189 -552h-114zM184 169l19 87h309l19 -87h-347zM627 -214q-50 0 -78.5 23t-28.5 64q0 26 13 51t38.5 48.5t60.5 43.5h51l9 -16q-36 -26 -59 -53t-23 -58q0 -23 14 -35.5t39 -12.5q11 0 22 2.5t20 6.5v-49
q-14 -7 -35.5 -11t-42.5 -4z" />
    <glyph glyph-name="aogonek" unicode="&#x105;" horiz-adv-x="619" 
d="M261 -9q-48 0 -88.5 19t-69.5 54t-44.5 85.5t-15.5 115.5q0 86 27.5 147t76.5 93.5t114 32.5q44 0 80 -14t61.5 -38.5t36.5 -58.5h6l4 102h98v-529h-98l-4 103h-6q-18 -50 -65 -81t-113 -31zM296 76q48 0 81 22t50 58t17 79v60q0 44 -17.5 80t-50 57.5t-78.5 21.5
q-47 0 -80.5 -23t-51 -65t-17.5 -101q0 -58 17 -101t50 -65.5t80 -22.5zM481 -214q-50 0 -78.5 23t-28.5 64q0 26 13 51t38.5 48.5t60.5 43.5h51l9 -16q-36 -26 -59 -53t-23 -58q0 -23 14 -35.5t39 -12.5q11 0 22 2.5t20 6.5v-49q-14 -7 -35.5 -11t-42.5 -4z" />
    <glyph glyph-name="Cacute" unicode="&#x106;" horiz-adv-x="771" 
d="M403 -9q-81 0 -147 25.5t-114 74.5t-73.5 118t-25.5 155q0 87 26 156t73.5 117.5t113.5 74t147 25.5q90 0 160.5 -31t115 -87.5t55.5 -133.5h-110q-10 46 -40 81.5t-75.5 56t-105.5 20.5q-76 0 -131.5 -33t-85.5 -95t-30 -151q0 -66 17.5 -118t49.5 -87.5t77.5 -54.5
t102.5 -19q59 0 105.5 20t76.5 56.5t39 85.5h110q-9 -78 -53.5 -135.5t-116 -89t-161.5 -31.5zM362 795l62 142h104l-87 -142h-79z" />
    <glyph glyph-name="cacute" unicode="&#x107;" horiz-adv-x="567" 
d="M297 -9q-58 0 -105.5 19.5t-81 55.5t-52 86t-18.5 112t18.5 112t53 86t82.5 55.5t107 19.5q63 0 113 -23t80.5 -65t35.5 -97h-100q-7 33 -26 55t-46 33t-60 11q-37 0 -65.5 -13.5t-48 -38t-29.5 -59t-10 -77.5q0 -59 19 -100.5t53 -63.5t80 -22q38 0 66 13.5t46 37
t23 55.5h101q-6 -58 -37.5 -101.5t-82.5 -67t-116 -23.5zM258 595l62 142h104l-87 -142h-79z" />
    <glyph glyph-name="Ccircumflex" unicode="&#x108;" horiz-adv-x="771" 
d="M403 -9q-81 0 -147 25.5t-114 74.5t-73.5 118t-25.5 155q0 87 26 156t73.5 117.5t113.5 74t147 25.5q90 0 160.5 -31t115 -87.5t55.5 -133.5h-110q-10 46 -40 81.5t-75.5 56t-105.5 20.5q-76 0 -131.5 -33t-85.5 -95t-30 -151q0 -66 17.5 -118t49.5 -87.5t77.5 -54.5
t102.5 -19q59 0 105.5 20t76.5 56.5t39 85.5h110q-9 -78 -53.5 -135.5t-116 -89t-161.5 -31.5zM242 795l108 142h103l109 -142h-90l-70 93l-70 -93h-90z" />
    <glyph glyph-name="ccircumflex" unicode="&#x109;" horiz-adv-x="567" 
d="M297 -9q-58 0 -105.5 19.5t-81 55.5t-52 86t-18.5 112t18.5 112t53 86t82.5 55.5t107 19.5q63 0 113 -23t80.5 -65t35.5 -97h-100q-7 33 -26 55t-46 33t-60 11q-37 0 -65.5 -13.5t-48 -38t-29.5 -59t-10 -77.5q0 -59 19 -100.5t53 -63.5t80 -22q38 0 66 13.5t46 37
t23 55.5h101q-6 -58 -37.5 -101.5t-82.5 -67t-116 -23.5zM138 595l108 142h103l109 -142h-90l-70 93l-70 -93h-90z" />
    <glyph glyph-name="Cdotaccent" unicode="&#x10a;" horiz-adv-x="771" 
d="M403 -9q-81 0 -147 25.5t-114 74.5t-73.5 118t-25.5 155q0 87 26 156t73.5 117.5t113.5 74t147 25.5q90 0 160.5 -31t115 -87.5t55.5 -133.5h-110q-10 46 -40 81.5t-75.5 56t-105.5 20.5q-76 0 -131.5 -33t-85.5 -95t-30 -151q0 -66 17.5 -118t49.5 -87.5t77.5 -54.5
t102.5 -19q59 0 105.5 20t76.5 56.5t39 85.5h110q-9 -78 -53.5 -135.5t-116 -89t-161.5 -31.5zM401 810q-26 0 -43 14t-17 39t17 39t43 14t43 -14t17 -39t-17 -39t-43 -14z" />
    <glyph glyph-name="cdotaccent" unicode="&#x10b;" horiz-adv-x="567" 
d="M297 -9q-58 0 -105.5 19.5t-81 55.5t-52 86t-18.5 112t18.5 112t53 86t82.5 55.5t107 19.5q63 0 113 -23t80.5 -65t35.5 -97h-100q-7 33 -26 55t-46 33t-60 11q-37 0 -65.5 -13.5t-48 -38t-29.5 -59t-10 -77.5q0 -59 19 -100.5t53 -63.5t80 -22q38 0 66 13.5t46 37
t23 55.5h101q-6 -58 -37.5 -101.5t-82.5 -67t-116 -23.5zM298 610q-26 0 -43 14t-17 39t17 39t43 14t43 -14t17 -39t-17 -39t-43 -14z" />
    <glyph glyph-name="Ccaron" unicode="&#x10c;" horiz-adv-x="771" 
d="M403 -9q-81 0 -147 25.5t-114 74.5t-73.5 118t-25.5 155q0 87 26 156t73.5 117.5t113.5 74t147 25.5q90 0 160.5 -31t115 -87.5t55.5 -133.5h-110q-10 46 -40 81.5t-75.5 56t-105.5 20.5q-76 0 -131.5 -33t-85.5 -95t-30 -151q0 -66 17.5 -118t49.5 -87.5t77.5 -54.5
t102.5 -19q59 0 105.5 20t76.5 56.5t39 85.5h110q-9 -78 -53.5 -135.5t-116 -89t-161.5 -31.5zM350 795l-108 142h90l70 -92l69 92h91l-109 -142h-103z" />
    <glyph glyph-name="ccaron" unicode="&#x10d;" horiz-adv-x="567" 
d="M297 -9q-58 0 -105.5 19.5t-81 55.5t-52 86t-18.5 112t18.5 112t53 86t82.5 55.5t107 19.5q63 0 113 -23t80.5 -65t35.5 -97h-100q-7 33 -26 55t-46 33t-60 11q-37 0 -65.5 -13.5t-48 -38t-29.5 -59t-10 -77.5q0 -59 19 -100.5t53 -63.5t80 -22q38 0 66 13.5t46 37
t23 55.5h101q-6 -58 -37.5 -101.5t-82.5 -67t-116 -23.5zM246 595l-108 142h90l70 -92l69 92h91l-109 -142h-103z" />
    <glyph glyph-name="Dcaron" unicode="&#x10e;" horiz-adv-x="747" 
d="M79 0v729h294q106 0 179.5 -45.5t112 -127.5t38.5 -192q0 -82 -22 -149t-64 -115t-103.5 -74t-140.5 -26h-294zM188 94h170q53 0 96 16.5t74 50t47.5 85t16.5 120.5q0 93 -29.5 152.5t-82 88t-122.5 28.5h-170v-541zM315 795l-108 142h90l70 -92l69 92h91l-109 -142h-103
z" />
    <glyph glyph-name="dcaron" unicode="&#x10f;" horiz-adv-x="619" 
d="M588 550l55 179h91l-73 -179h-73zM261 -9q-48 0 -88.5 19t-69.5 54t-44.5 85.5t-15.5 115.5q0 86 27.5 147t76.5 93.5t114 32.5q44 0 80 -14t61.5 -38.5t36.5 -58.5h5v302h103v-729h-98l-4 103h-6q-18 -50 -65 -81t-113 -31zM296 76q48 0 81 22t50 58t17 79v60
q0 44 -17.5 80t-50 57.5t-78.5 21.5q-47 0 -80.5 -23t-51 -65t-17.5 -101q0 -58 17 -101t50 -65.5t80 -22.5z" />
    <glyph glyph-name="Dcroat" unicode="&#x110;" horiz-adv-x="790" 
d="M121 0v729h294q106 0 179.5 -45.5t112 -127.5t38.5 -192q0 -82 -22 -149t-64 -115t-103.5 -74t-140.5 -26h-294zM230 94h170q53 0 96 16.5t74 50t47.5 85t16.5 120.5q0 93 -29.5 152.5t-82 88t-122.5 28.5h-170v-541zM26 326v81h378v-81h-378z" />
    <glyph glyph-name="dcroat" unicode="&#x111;" horiz-adv-x="619" 
d="M261 -9q-48 0 -88.5 19t-69.5 54t-44.5 85.5t-15.5 115.5q0 86 27.5 147t76.5 93.5t114 32.5q44 0 80 -14t61.5 -38.5t36.5 -58.5h5v302h103v-729h-98l-4 103h-6q-18 -50 -65 -81t-113 -31zM296 76q48 0 81 22t50 58t17 79v60q0 44 -17.5 80t-50 57.5t-78.5 21.5
q-47 0 -80.5 -23t-51 -65t-17.5 -101q0 -58 17 -101t50 -65.5t80 -22.5zM298 597v68h323v-68h-323z" />
    <glyph glyph-name="Emacron" unicode="&#x112;" horiz-adv-x="627" 
d="M79 0v729h511v-94h-427l25 24v-588l-25 24h428v-95h-512zM163 328v88h378v-88h-378zM138 815v78h355v-78h-355z" />
    <glyph glyph-name="emacron" unicode="&#x113;" horiz-adv-x="579" 
d="M282 -9q-77 0 -132.5 33.5t-84.5 94.5t-29 143q0 84 29 146t83.5 95.5t130.5 33.5q83 0 137.5 -37.5t78.5 -103.5t18 -152h-376q1 -58 19 -96.5t50.5 -58t75.5 -19.5q52 0 84.5 23t43.5 61h98q-8 -51 -39 -87.5t-79 -56t-108 -19.5zM138 301l-10 13h294l-10 -14
q1 55 -15.5 90t-47 51.5t-70.5 16.5q-42 0 -73 -18t-49 -53t-19 -86zM114 615v78h355v-78h-355z" />
    <glyph glyph-name="Ebreve" unicode="&#x114;" horiz-adv-x="627" 
d="M79 0v729h511v-94h-427l25 24v-588l-25 24h428v-95h-512zM163 328v88h378v-88h-378zM316 787q-46 0 -80 17.5t-51.5 50.5t-18.5 79h72q0 -43 20.5 -64.5t57.5 -21.5t57.5 21.5t20.5 64.5h72q-1 -70 -40.5 -108.5t-109.5 -38.5z" />
    <glyph glyph-name="ebreve" unicode="&#x115;" horiz-adv-x="579" 
d="M282 -9q-77 0 -132.5 33.5t-84.5 94.5t-29 143q0 84 29 146t83.5 95.5t130.5 33.5q83 0 137.5 -37.5t78.5 -103.5t18 -152h-376q1 -58 19 -96.5t50.5 -58t75.5 -19.5q52 0 84.5 23t43.5 61h98q-8 -51 -39 -87.5t-79 -56t-108 -19.5zM138 301l-10 13h294l-10 -14
q1 55 -15.5 90t-47 51.5t-70.5 16.5q-42 0 -73 -18t-49 -53t-19 -86zM292 587q-46 0 -80 17.5t-51.5 50.5t-18.5 79h72q0 -43 20.5 -64.5t57.5 -21.5t57.5 21.5t20.5 64.5h72q-1 -70 -40.5 -108.5t-109.5 -38.5z" />
    <glyph glyph-name="Edotaccent" unicode="&#x116;" horiz-adv-x="627" 
d="M79 0v729h511v-94h-427l25 24v-588l-25 24h428v-95h-512zM163 328v88h378v-88h-378zM316 810q-26 0 -43 14t-17 39t17 39t43 14t43 -14t17 -39t-17 -39t-43 -14z" />
    <glyph glyph-name="edotaccent" unicode="&#x117;" horiz-adv-x="579" 
d="M282 -9q-77 0 -132.5 33.5t-84.5 94.5t-29 143q0 84 29 146t83.5 95.5t130.5 33.5q83 0 137.5 -37.5t78.5 -103.5t18 -152h-376q1 -58 19 -96.5t50.5 -58t75.5 -19.5q52 0 84.5 23t43.5 61h98q-8 -51 -39 -87.5t-79 -56t-108 -19.5zM138 301l-10 13h294l-10 -14
q1 55 -15.5 90t-47 51.5t-70.5 16.5q-42 0 -73 -18t-49 -53t-19 -86zM292 610q-26 0 -43 14t-17 39t17 39t43 14t43 -14t17 -39t-17 -39t-43 -14z" />
    <glyph glyph-name="Eogonek" unicode="&#x118;" horiz-adv-x="627" 
d="M79 0v729h511v-94h-427l25 24v-588l-25 24h428v-95h-512zM163 328v88h378v-88h-378zM525 -214q-50 0 -78.5 23t-28.5 64q0 26 13 51t38.5 48.5t60.5 43.5h51l9 -16q-36 -26 -59 -53t-23 -58q0 -23 14 -35.5t39 -12.5q11 0 22 2.5t20 6.5v-49q-14 -7 -35.5 -11t-42.5 -4z
" />
    <glyph glyph-name="eogonek" unicode="&#x119;" horiz-adv-x="579" 
d="M363 -201q-50 0 -78.5 22.5t-28.5 62.5q0 33 19 60.5t49 50.5q-11 -2 -22.5 -2.5t-22.5 -0.5q-74 3 -127 37.5t-82 94.5t-29 138q0 84 30.5 146t87 95.5t133.5 33.5q88 0 144.5 -38t81.5 -104.5t16 -150.5h-391q0 -55 19.5 -93.5t54 -59t79.5 -20.5q55 0 90 24t46 63h99
q-6 -41 -29.5 -74t-59.5 -55q-30 -23 -55 -44t-39.5 -41t-14.5 -44q0 -48 58 -48q10 0 22 2t22 6v-50q-11 -5 -31 -8t-41 -3zM144 312h290q-1 49 -19.5 81t-49.5 48.5t-73 16.5q-43 0 -75 -18t-51 -50.5t-22 -77.5z" />
    <glyph glyph-name="Ecaron" unicode="&#x11a;" horiz-adv-x="627" 
d="M79 0v729h511v-94h-427l25 24v-588l-25 24h428v-95h-512zM163 328v88h378v-88h-378zM264 795l-108 142h90l70 -92l69 92h91l-109 -142h-103z" />
    <glyph glyph-name="ecaron" unicode="&#x11b;" horiz-adv-x="579" 
d="M282 -9q-77 0 -132.5 33.5t-84.5 94.5t-29 143q0 84 29 146t83.5 95.5t130.5 33.5q83 0 137.5 -37.5t78.5 -103.5t18 -152h-376q1 -58 19 -96.5t50.5 -58t75.5 -19.5q52 0 84.5 23t43.5 61h98q-8 -51 -39 -87.5t-79 -56t-108 -19.5zM138 301l-10 13h294l-10 -14
q1 55 -15.5 90t-47 51.5t-70.5 16.5q-42 0 -73 -18t-49 -53t-19 -86zM240 595l-108 142h90l70 -92l69 92h91l-109 -142h-103z" />
    <glyph glyph-name="Gcircumflex" unicode="&#x11c;" horiz-adv-x="812" 
d="M389 -9q-78 0 -141.5 25.5t-109.5 74t-70.5 116.5t-24.5 152q0 88 26 158t74 119t115.5 75t149.5 26q91 0 162 -28.5t116.5 -81.5t57.5 -128h-111q-12 44 -42.5 76t-77 50t-105.5 18q-81 0 -137 -35t-85.5 -98.5t-29.5 -148.5q0 -64 17 -116t49.5 -88t79 -55t103.5 -19
q68 0 120.5 25.5t82 72t29.5 109.5v42l27 -25h-280v83h368v-390h-87l-6 139h-7q-16 -44 -55 -77.5t-92.5 -52t-115.5 -18.5zM248 795l108 142h103l109 -142h-90l-70 93l-70 -93h-90z" />
    <glyph glyph-name="gcircumflex" unicode="&#x11d;" horiz-adv-x="600" 
d="M279 -177q-63 0 -110 18.5t-75 52.5t-34 81h100q4 -23 20 -40.5t41.5 -26.5t59.5 -9q50 0 82.5 14.5t47.5 43.5t15 74v94h-5q-17 -47 -62 -76t-108 -29q-46 0 -84.5 17.5t-66.5 51t-43 81.5t-15 109q0 81 26.5 139.5t73.5 89.5t109 31q61 0 106.5 -28t63.5 -77h6l3 95h99
v-480q0 -80 -30.5 -130t-86.5 -73t-133 -23zM287 105q45 0 76 20t47 53.5t16 73.5v56q0 40 -16.5 73.5t-47 53t-72.5 19.5q-45 0 -77 -21t-48.5 -60.5t-16.5 -93.5t16 -93t47.5 -60t75.5 -21zM142 595l108 142h103l109 -142h-90l-70 93l-70 -93h-90z" />
    <glyph glyph-name="Gbreve" unicode="&#x11e;" horiz-adv-x="812" 
d="M389 -9q-78 0 -141.5 25.5t-109.5 74t-70.5 116.5t-24.5 152q0 88 26 158t74 119t115.5 75t149.5 26q91 0 162 -28.5t116.5 -81.5t57.5 -128h-111q-12 44 -42.5 76t-77 50t-105.5 18q-81 0 -137 -35t-85.5 -98.5t-29.5 -148.5q0 -64 17 -116t49.5 -88t79 -55t103.5 -19
q68 0 120.5 25.5t82 72t29.5 109.5v42l27 -25h-280v83h368v-390h-87l-6 139h-7q-16 -44 -55 -77.5t-92.5 -52t-115.5 -18.5zM408 787q-46 0 -80 17.5t-51.5 50.5t-18.5 79h72q0 -43 20.5 -64.5t57.5 -21.5t57.5 21.5t20.5 64.5h72q-1 -70 -40.5 -108.5t-109.5 -38.5z" />
    <glyph glyph-name="gbreve" unicode="&#x11f;" horiz-adv-x="600" 
d="M279 -177q-63 0 -110 18.5t-75 52.5t-34 81h100q4 -23 20 -40.5t41.5 -26.5t59.5 -9q50 0 82.5 14.5t47.5 43.5t15 74v94h-5q-17 -47 -62 -76t-108 -29q-46 0 -84.5 17.5t-66.5 51t-43 81.5t-15 109q0 81 26.5 139.5t73.5 89.5t109 31q61 0 106.5 -28t63.5 -77h6l3 95h99
v-480q0 -80 -30.5 -130t-86.5 -73t-133 -23zM287 105q45 0 76 20t47 53.5t16 73.5v56q0 40 -16.5 73.5t-47 53t-72.5 19.5q-45 0 -77 -21t-48.5 -60.5t-16.5 -93.5t16 -93t47.5 -60t75.5 -21zM302 587q-46 0 -80 17.5t-51.5 50.5t-18.5 79h72q0 -43 20.5 -64.5t57.5 -21.5
t57.5 21.5t20.5 64.5h72q-1 -70 -40.5 -108.5t-109.5 -38.5z" />
    <glyph glyph-name="Gdotaccent" unicode="&#x120;" horiz-adv-x="812" 
d="M389 -9q-78 0 -141.5 25.5t-109.5 74t-70.5 116.5t-24.5 152q0 88 26 158t74 119t115.5 75t149.5 26q91 0 162 -28.5t116.5 -81.5t57.5 -128h-111q-12 44 -42.5 76t-77 50t-105.5 18q-81 0 -137 -35t-85.5 -98.5t-29.5 -148.5q0 -64 17 -116t49.5 -88t79 -55t103.5 -19
q68 0 120.5 25.5t82 72t29.5 109.5v42l27 -25h-280v83h368v-390h-87l-6 139h-7q-16 -44 -55 -77.5t-92.5 -52t-115.5 -18.5zM408 810q-26 0 -43 14t-17 39t17 39t43 14t43 -14t17 -39t-17 -39t-43 -14z" />
    <glyph glyph-name="gdotaccent" unicode="&#x121;" horiz-adv-x="600" 
d="M279 -177q-63 0 -110 18.5t-75 52.5t-34 81h100q4 -23 20 -40.5t41.5 -26.5t59.5 -9q50 0 82.5 14.5t47.5 43.5t15 74v94h-5q-17 -47 -62 -76t-108 -29q-46 0 -84.5 17.5t-66.5 51t-43 81.5t-15 109q0 81 26.5 139.5t73.5 89.5t109 31q61 0 106.5 -28t63.5 -77h6l3 95h99
v-480q0 -80 -30.5 -130t-86.5 -73t-133 -23zM287 105q45 0 76 20t47 53.5t16 73.5v56q0 40 -16.5 73.5t-47 53t-72.5 19.5q-45 0 -77 -21t-48.5 -60.5t-16.5 -93.5t16 -93t47.5 -60t75.5 -21zM302 610q-26 0 -43 14t-17 39t17 39t43 14t43 -14t17 -39t-17 -39t-43 -14z" />
    <glyph glyph-name="uni0122" unicode="&#x122;" horiz-adv-x="812" 
d="M389 -9q-78 0 -141.5 25.5t-109.5 74t-70.5 116.5t-24.5 152q0 88 26 158t74 119t115.5 75t149.5 26q91 0 162 -28.5t116.5 -81.5t57.5 -128h-111q-12 44 -42.5 76t-77 50t-105.5 18q-81 0 -137 -35t-85.5 -98.5t-29.5 -148.5q0 -64 17 -116t49.5 -88t79 -55t103.5 -19
q68 0 120.5 25.5t82 72t29.5 109.5v42l27 -25h-280v83h368v-390h-87l-6 139h-7q-16 -44 -55 -77.5t-92.5 -52t-115.5 -18.5zM312 -203l44 146h99l-65 -146h-78z" />
    <glyph glyph-name="uni0123" unicode="&#x123;" horiz-adv-x="600" 
d="M279 -177q-63 0 -110 18.5t-75 52.5t-34 81h100q4 -23 20 -40.5t41.5 -26.5t59.5 -9q50 0 82.5 14.5t47.5 43.5t15 74v94h-5q-17 -47 -62 -76t-108 -29q-46 0 -84.5 17.5t-66.5 51t-43 81.5t-15 109q0 81 26.5 139.5t73.5 89.5t109 31q61 0 106.5 -28t63.5 -77h6l3 95h99
v-480q0 -80 -30.5 -130t-86.5 -73t-133 -23zM287 105q45 0 76 20t47 53.5t16 73.5v56q0 40 -16.5 73.5t-47 53t-72.5 19.5q-45 0 -77 -21t-48.5 -60.5t-16.5 -93.5t16 -93t47.5 -60t75.5 -21zM261 595v36q0 53 25 90t68 65l40 -44q-25 -25 -38.5 -51.5t-13.5 -66.5v-29h-81z
" />
    <glyph glyph-name="Hcircumflex" unicode="&#x124;" horiz-adv-x="784" 
d="M79 0v729h109v-729h-109zM596 0v729h109v-729h-109zM160 328v94h464v-94h-464zM232 795l108 142h103l109 -142h-90l-70 93l-70 -93h-90z" />
    <glyph glyph-name="hcircumflex" unicode="&#x125;" horiz-adv-x="610" 
d="M72 0v729h102v-305h6q23 56 72 84.5t107 28.5q41 0 75.5 -12t60 -38.5t39.5 -69t14 -103.5v-314h-103v293q0 54 -13 89.5t-40 52.5t-70 17q-45 0 -78.5 -22t-51.5 -58.5t-18 -82.5v-289h-102zM-36 795l108 142h103l109 -142h-90l-70 93l-70 -93h-90z" />
    <glyph glyph-name="Hbar" unicode="&#x126;" horiz-adv-x="784" 
d="M79 0v729h109v-729h-109zM596 0v729h109v-729h-109zM160 328v94h464v-94h-464zM-7 554v78h798v-78h-798z" />
    <glyph glyph-name="hbar" unicode="&#x127;" horiz-adv-x="610" 
d="M72 0v729h102v-305h6q23 56 72 84.5t107 28.5q41 0 75.5 -12t60 -38.5t39.5 -69t14 -103.5v-314h-103v293q0 54 -13 89.5t-40 52.5t-70 17q-45 0 -78.5 -22t-51.5 -58.5t-18 -82.5v-289h-102zM-3 597v68h323v-68h-323z" />
    <glyph glyph-name="Itilde" unicode="&#x128;" horiz-adv-x="267" 
d="M79 0v729h109v-729h-109zM204 813q-32 0 -55 8t-43 15t-42 7q-21 0 -35.5 -8t-26.5 -24l-47 27q16 29 32.5 45.5t35 23.5t39.5 7q25 0 48.5 -7.5t47 -15.5t46.5 -8q17 0 33.5 8t28.5 25l48 -28q-14 -28 -31.5 -44.5t-37 -23.5t-41.5 -7z" />
    <glyph glyph-name="itilde" unicode="&#x129;" horiz-adv-x="246" 
d="M72 0v529h103v-529h-103zM194 613q-32 0 -55 8t-43 15t-42 7q-21 0 -35.5 -8t-26.5 -24l-47 27q16 29 32.5 45.5t35 23.5t39.5 7q25 0 48.5 -7.5t47 -15.5t46.5 -8q17 0 33.5 8t28.5 25l48 -28q-14 -28 -31.5 -44.5t-37 -23.5t-41.5 -7z" />
    <glyph glyph-name="Imacron" unicode="&#x12a;" horiz-adv-x="267" 
d="M79 0v729h109v-729h-109zM-44 815v78h355v-78h-355z" />
    <glyph glyph-name="imacron" unicode="&#x12b;" horiz-adv-x="246" 
d="M72 0v529h103v-529h-103zM-54 615v78h355v-78h-355z" />
    <glyph glyph-name="Ibreve" unicode="&#x12c;" horiz-adv-x="267" 
d="M79 0v729h109v-729h-109zM134 787q-46 0 -80 17.5t-51.5 50.5t-18.5 79h72q0 -43 20.5 -64.5t57.5 -21.5t57.5 21.5t20.5 64.5h72q-1 -70 -40.5 -108.5t-109.5 -38.5z" />
    <glyph glyph-name="ibreve" unicode="&#x12d;" horiz-adv-x="246" 
d="M72 0v529h103v-529h-103zM124 587q-46 0 -80 17.5t-51.5 50.5t-18.5 79h72q0 -43 20.5 -64.5t57.5 -21.5t57.5 21.5t20.5 64.5h72q-1 -70 -40.5 -108.5t-109.5 -38.5z" />
    <glyph glyph-name="Iogonek" unicode="&#x12e;" horiz-adv-x="267" 
d="M79 0v729h109v-729h-109zM122 -214q-50 0 -78.5 23t-28.5 64q0 26 13 51t38.5 48.5t60.5 43.5h51l9 -16q-36 -26 -59 -53t-23 -58q0 -23 14 -35.5t39 -12.5q11 0 22 2.5t20 6.5v-49q-14 -7 -35.5 -11t-42.5 -4z" />
    <glyph glyph-name="iogonek" unicode="&#x12f;" horiz-adv-x="246" 
d="M72 0v529h103v-529h-103zM124 610q-26 0 -43 14t-17 39t17 39t43 14t43 -14t17 -39t-17 -39t-43 -14zM109 -214q-50 0 -78.5 23t-28.5 64q0 26 13 51t38.5 48.5t60.5 43.5h51l9 -16q-36 -26 -59 -53t-23 -58q0 -23 14 -35.5t39 -12.5q11 0 22 2.5t20 6.5v-49
q-14 -7 -35.5 -11t-42.5 -4z" />
    <glyph glyph-name="Idotaccent" unicode="&#x130;" horiz-adv-x="267" 
d="M79 0v729h109v-729h-109zM134 810q-26 0 -43 14t-17 39t17 39t43 14t43 -14t17 -39t-17 -39t-43 -14z" />
    <glyph glyph-name="dotlessi" unicode="&#x131;" horiz-adv-x="246" 
d="M72 0v529h103v-529h-103z" />
    <glyph glyph-name="IJ" unicode="&#x132;" horiz-adv-x="671" 
d="M79 0v729h109v-729h-109zM292 0v87h91q58 0 81 27.5t23 85.5v529h109v-537q0 -63 -20 -106t-61.5 -64.5t-105.5 -21.5h-117z" />
    <glyph glyph-name="ij" unicode="&#x133;" horiz-adv-x="497" 
d="M72 0v529h103v-529h-103zM124 610q-26 0 -43 14t-17 39t17 39t43 14t43 -14t17 -39t-17 -39t-43 -14zM221 -167v76h43q32 0 45.5 15t13.5 51v554h103v-558q0 -43 -13.5 -74t-42 -47.5t-75.5 -16.5h-74zM374 610q-26 0 -43 14t-17 39t17 39t43 14t43 -14t17 -39t-17 -39
t-43 -14z" />
    <glyph glyph-name="Jcircumflex" unicode="&#x134;" horiz-adv-x="404" 
d="M25 0v87h91q58 0 81 27.5t23 85.5v529h109v-537q0 -63 -20 -106t-61.5 -64.5t-105.5 -21.5h-117zM115 795l108 142h103l109 -142h-90l-70 93l-70 -93h-90z" />
    <glyph glyph-name="jcircumflex" unicode="&#x135;" horiz-adv-x="246" 
d="M-30 -167v76h43q32 0 45.5 15t13.5 51v554h103v-558q0 -43 -13.5 -74t-42 -47.5t-75.5 -16.5h-74zM-36 595l108 142h103l109 -142h-90l-70 93l-70 -93h-90z" />
    <glyph glyph-name="uni0136" unicode="&#x136;" horiz-adv-x="692" 
d="M541 0l-231 347l-132 -140v129l355 393h132l-280 -303l286 -426h-130zM79 0v729h109v-729h-109zM247 -203l44 146h99l-65 -146h-78z" />
    <glyph glyph-name="uni0137" unicode="&#x137;" horiz-adv-x="572" 
d="M72 0v729h104v-453l46 50l197 203h128l-205 -206l213 -323h-121l-132 200l-32 53l-94 -91v-162h-104zM199 -203l44 146h99l-65 -146h-78z" />
    <glyph glyph-name="Lacute" unicode="&#x139;" horiz-adv-x="561" 
d="M79 0v729h109v-656l-21 25h368v-98h-456zM94 795l62 142h104l-87 -142h-79z" />
    <glyph glyph-name="lacute" unicode="&#x13a;" horiz-adv-x="246" 
d="M72 0v729h103v-729h-103zM84 795l62 142h104l-87 -142h-79z" />
    <glyph glyph-name="uni013B" unicode="&#x13b;" horiz-adv-x="561" 
d="M79 0v729h109v-656l-21 25h368v-98h-456zM174 -203l44 146h99l-65 -146h-78z" />
    <glyph glyph-name="uni013C" unicode="&#x13c;" horiz-adv-x="246" 
d="M72 0v729h103v-729h-103zM30 -203l44 146h99l-65 -146h-78z" />
    <glyph glyph-name="Lcaron" unicode="&#x13d;" horiz-adv-x="561" 
d="M298 550l55 179h91l-74 -179h-72zM79 0v729h109v-656l-21 25h368v-98h-456z" />
    <glyph glyph-name="lcaron" unicode="&#x13e;" horiz-adv-x="246" 
d="M216 550l55 179h91l-73 -179h-73zM72 0v729h103v-729h-103z" />
    <glyph glyph-name="Ldot" unicode="&#x13f;" horiz-adv-x="561" 
d="M79 0v729h109v-656l-21 25h368v-98h-456zM422 317q-29 0 -47.5 18.5t-18.5 46.5t18.5 46t47.5 18q30 0 47.5 -18t17.5 -46t-17.5 -46.5t-47.5 -18.5z" />
    <glyph glyph-name="ldot" unicode="&#x140;" horiz-adv-x="369" 
d="M72 0v729h103v-729h-103zM308 283q-29 0 -47.5 18.5t-18.5 45.5q0 28 18.5 46.5t47.5 18.5q30 0 47.5 -18.5t17.5 -46.5q0 -27 -17.5 -45.5t-47.5 -18.5z" />
    <glyph glyph-name="Lslash" unicode="&#x141;" horiz-adv-x="591" 
d="M110 0v729h109v-656l-21 25h368v-98h-456zM28 212v95l346 153v-95z" />
    <glyph glyph-name="lslash" unicode="&#x142;" horiz-adv-x="281" 
d="M89 0v729h103v-729h-103zM27 256v88l227 129v-87z" />
    <glyph glyph-name="Nacute" unicode="&#x143;" horiz-adv-x="775" 
d="M79 0v729h136l376 -581h5l-5 241v340h105v-729h-130l-376 577h-5l4 -227v-350h-110zM348 795l62 142h104l-87 -142h-79z" />
    <glyph glyph-name="nacute" unicode="&#x144;" horiz-adv-x="610" 
d="M72 0v529h98l4 -105h6q23 56 72 84.5t107 28.5q41 0 75.5 -12t60 -38.5t39.5 -69t14 -103.5v-314h-103v293q0 54 -13 89.5t-40 52.5t-70 17q-45 0 -78.5 -22t-51.5 -58.5t-18 -82.5v-289h-102zM268 595l62 142h104l-87 -142h-79z" />
    <glyph glyph-name="uni0145" unicode="&#x145;" horiz-adv-x="775" 
d="M79 0v729h136l376 -581h5l-5 241v340h105v-729h-130l-376 577h-5l4 -227v-350h-110zM294 -203l44 146h99l-65 -146h-78z" />
    <glyph glyph-name="uni0146" unicode="&#x146;" horiz-adv-x="610" 
d="M72 0v529h98l4 -105h6q23 56 72 84.5t107 28.5q41 0 75.5 -12t60 -38.5t39.5 -69t14 -103.5v-314h-103v293q0 54 -13 89.5t-40 52.5t-70 17q-45 0 -78.5 -22t-51.5 -58.5t-18 -82.5v-289h-102zM214 -203l44 146h99l-65 -146h-78z" />
    <glyph glyph-name="Ncaron" unicode="&#x147;" horiz-adv-x="775" 
d="M79 0v729h136l376 -581h5l-5 241v340h105v-729h-130l-376 577h-5l4 -227v-350h-110zM336 795l-108 142h90l70 -92l69 92h91l-109 -142h-103z" />
    <glyph glyph-name="ncaron" unicode="&#x148;" horiz-adv-x="610" 
d="M72 0v529h98l4 -105h6q23 56 72 84.5t107 28.5q41 0 75.5 -12t60 -38.5t39.5 -69t14 -103.5v-314h-103v293q0 54 -13 89.5t-40 52.5t-70 17q-45 0 -78.5 -22t-51.5 -58.5t-18 -82.5v-289h-102zM256 595l-108 142h90l70 -92l69 92h91l-109 -142h-103z" />
    <glyph glyph-name="Eng" unicode="&#x14a;" horiz-adv-x="775" 
d="M79 0v729h136l376 -581h5l-5 241v340h105v-729h-130l-376 577h-5l4 -227v-350h-110zM492 -167v68h43q31 0 44.5 14t13.5 48v45h103v-50q0 -38 -13.5 -66.5t-42 -43.5t-75.5 -15h-73z" />
    <glyph glyph-name="eng" unicode="&#x14b;" horiz-adv-x="610" 
d="M344 -167v76h43q31 0 44.5 15t13.5 51v318q0 54 -13 89.5t-40 52.5t-70 17q-45 0 -78.5 -22t-51.5 -58.5t-18 -82.5v-289h-102v529h98l4 -105h6q23 56 72 84.5t107 28.5q41 0 75.5 -12t60 -38.5t39.5 -69t14 -103.5v-343q0 -43 -13.5 -74t-42 -47.5t-75.5 -16.5h-73z" />
    <glyph glyph-name="Omacron" unicode="&#x14c;" horiz-adv-x="806" 
d="M403 -9q-81 0 -147 25.5t-114 74.5t-73.5 118t-25.5 155q0 87 26 156t73.5 117.5t113.5 74t147 25.5q82 0 147.5 -25.5t113.5 -74t73.5 -117.5t25.5 -156t-26 -156t-73.5 -117.5t-113.5 -74t-147 -25.5zM403 85q76 0 131.5 33.5t86 95.5t30.5 150q0 67 -17.5 118.5
t-50 87.5t-78 54.5t-102.5 18.5q-76 0 -131.5 -33t-85.5 -95t-30 -151q0 -66 17.5 -118t49.5 -87.5t77.5 -54.5t102.5 -19zM225 815v78h355v-78h-355z" />
    <glyph glyph-name="omacron" unicode="&#x14d;" horiz-adv-x="597" 
d="M299 -9q-58 0 -105.5 19t-81.5 55t-53 86t-19 112q0 82 31.5 143.5t90 96t137.5 34.5q58 0 105.5 -18.5t81.5 -54.5t52.5 -86.5t18.5 -113.5q0 -81 -31 -142.5t-89 -96t-138 -34.5zM299 77q46 0 80.5 21.5t53.5 63.5t19 102q0 45 -10.5 79.5t-30.5 59t-48 37t-64 12.5
q-46 0 -80.5 -22t-54 -63.5t-19.5 -103.5q0 -44 10.5 -78.5t31 -58.5t49 -36.5t63.5 -12.5zM121 615v78h355v-78h-355z" />
    <glyph glyph-name="Ohungarumlaut" unicode="&#x150;" horiz-adv-x="806" 
d="M403 -9q-81 0 -147 25.5t-114 74.5t-73.5 118t-25.5 155q0 87 26 156t73.5 117.5t113.5 74t147 25.5q82 0 147.5 -25.5t113.5 -74t73.5 -117.5t25.5 -156t-26 -156t-73.5 -117.5t-113.5 -74t-147 -25.5zM403 85q76 0 131.5 33.5t86 95.5t30.5 150q0 67 -17.5 118.5
t-50 87.5t-78 54.5t-102.5 18.5q-76 0 -131.5 -33t-85.5 -95t-30 -151q0 -66 17.5 -118t49.5 -87.5t77.5 -54.5t102.5 -19zM283 795l61 142h100l-86 -142h-75zM449 795l79 142h105l-102 -142h-82z" />
    <glyph glyph-name="ohungarumlaut" unicode="&#x151;" horiz-adv-x="597" 
d="M299 -9q-58 0 -105.5 19t-81.5 55t-53 86t-19 112q0 82 31.5 143.5t90 96t137.5 34.5q58 0 105.5 -18.5t81.5 -54.5t52.5 -86.5t18.5 -113.5q0 -81 -31 -142.5t-89 -96t-138 -34.5zM299 77q46 0 80.5 21.5t53.5 63.5t19 102q0 45 -10.5 79.5t-30.5 59t-48 37t-64 12.5
q-46 0 -80.5 -22t-54 -63.5t-19.5 -103.5q0 -44 10.5 -78.5t31 -58.5t49 -36.5t63.5 -12.5zM178 595l61 142h100l-86 -142h-75zM344 595l79 142h105l-102 -142h-82z" />
    <glyph glyph-name="OE" unicode="&#x152;" horiz-adv-x="1069" 
d="M412 -10q-88 0 -156.5 26.5t-115.5 75.5t-72 118t-25 155q0 84 25.5 153t73 118.5t116 76t154.5 26.5q25 0 54.5 -2.5t56.5 -7.5h511v-94h-403v-219h353v-88h-353v-233h403v-95h-511q-27 -4 -56.5 -7t-54.5 -3zM421 84q28 0 54 3.5t47 9.5v535q-21 6 -47 9.5t-54 3.5
q-83 0 -142.5 -34.5t-91 -97t-31.5 -148.5t31.5 -149t91 -97.5t142.5 -34.5z" />
    <glyph glyph-name="oe" unicode="&#x153;" horiz-adv-x="993" 
d="M299 -9q-58 0 -105.5 19t-81.5 55t-53 86t-19 112q0 82 31.5 143.5t90 96t137.5 34.5q81 0 140 -37.5t88 -104.5h-42q27 66 84.5 104t136.5 38q66 0 114 -21.5t78.5 -61.5t43.5 -93.5t6 -116.5h-402v67h331l-30 -19q3 56 -14.5 92.5t-50 55t-76.5 18.5q-45 0 -78.5 -19.5
t-52 -55.5t-18.5 -86v-49q0 -56 19 -95.5t53.5 -60.5t80.5 -21q55 0 91.5 25.5t46.5 66.5h98q-7 -52 -39.5 -90.5t-83 -60t-113.5 -21.5q-81 0 -139 38t-85 103h40q-28 -65 -86.5 -103t-140.5 -38zM299 77q46 0 80.5 21.5t53.5 63.5t19 102q0 45 -10.5 79.5t-30.5 59t-48 37
t-64 12.5q-46 0 -80.5 -22t-54 -63.5t-19.5 -103.5q0 -44 10.5 -78.5t31 -58.5t49 -36.5t63.5 -12.5z" />
    <glyph glyph-name="Racute" unicode="&#x154;" horiz-adv-x="712" 
d="M79 0v729h347q44 0 80 -8t64.5 -24t48 -39.5t29.5 -54.5t10 -70q0 -67 -34 -113.5t-98 -64.5v-6q42 -7 68 -25.5t37.5 -48t11.5 -71.5v-125q0 -19 1.5 -38.5t10.5 -40.5h-109q-7 15 -9.5 35t-2.5 46v104q0 37 -11 62t-39 37.5t-79 12.5h-229v89h226q78 0 111.5 36
t33.5 93q0 32 -10 55.5t-30 38.5t-46 21.5t-59 6.5h-214v-637h-109zM299 795l62 142h104l-87 -142h-79z" />
    <glyph glyph-name="racute" unicode="&#x155;" horiz-adv-x="379" 
d="M72 0v529h92l5 -94h5q17 51 59 76t94 25q9 0 16.5 -0.5t14.5 -1.5v-97q-6 1 -14.5 1h-17.5q-47 0 -80 -16t-51 -46.5t-21 -73.5v-302h-102zM149 595l62 142h104l-87 -142h-79z" />
    <glyph glyph-name="uni0156" unicode="&#x156;" horiz-adv-x="712" 
d="M79 0v729h347q44 0 80 -8t64.5 -24t48 -39.5t29.5 -54.5t10 -70q0 -67 -34 -113.5t-98 -64.5v-6q42 -7 68 -25.5t37.5 -48t11.5 -71.5v-125q0 -19 1.5 -38.5t10.5 -40.5h-109q-7 15 -9.5 35t-2.5 46v104q0 37 -11 62t-39 37.5t-79 12.5h-229v89h226q78 0 111.5 36
t33.5 93q0 32 -10 55.5t-30 38.5t-46 21.5t-59 6.5h-214v-637h-109zM257 -203l44 146h99l-65 -146h-78z" />
    <glyph glyph-name="uni0157" unicode="&#x157;" horiz-adv-x="379" 
d="M72 0v529h92l5 -94h5q17 51 59 76t94 25q9 0 16.5 -0.5t14.5 -1.5v-97q-6 1 -14.5 1h-17.5q-47 0 -80 -16t-51 -46.5t-21 -73.5v-302h-102zM56 -203l44 146h99l-65 -146h-78z" />
    <glyph glyph-name="Rcaron" unicode="&#x158;" horiz-adv-x="712" 
d="M79 0v729h347q44 0 80 -8t64.5 -24t48 -39.5t29.5 -54.5t10 -70q0 -67 -34 -113.5t-98 -64.5v-6q42 -7 68 -25.5t37.5 -48t11.5 -71.5v-125q0 -19 1.5 -38.5t10.5 -40.5h-109q-7 15 -9.5 35t-2.5 46v104q0 37 -11 62t-39 37.5t-79 12.5h-229v89h226q78 0 111.5 36
t33.5 93q0 32 -10 55.5t-30 38.5t-46 21.5t-59 6.5h-214v-637h-109zM287 795l-108 142h90l70 -92l69 92h91l-109 -142h-103z" />
    <glyph glyph-name="rcaron" unicode="&#x159;" horiz-adv-x="379" 
d="M72 0v529h92l5 -94h5q17 51 59 76t94 25q9 0 16.5 -0.5t14.5 -1.5v-97q-6 1 -14.5 1h-17.5q-47 0 -80 -16t-51 -46.5t-21 -73.5v-302h-102zM137 595l-108 142h90l70 -92l69 92h91l-109 -142h-103z" />
    <glyph glyph-name="Sacute" unicode="&#x15a;" horiz-adv-x="653" 
d="M328 -9q-96 0 -160 30t-96 83.5t-33 123.5h112q1 -46 20.5 -80.5t58.5 -52.5t101 -18q51 0 89 12.5t59 38.5t21 67q0 31 -10 52t-32.5 35.5t-59 24.5t-90.5 19q-62 11 -109.5 26.5t-79 39t-47.5 57.5t-16 80q0 64 32 111t92 72t144 25t143 -26.5t91 -74t32 -112.5h-110
q-2 44 -22.5 72.5t-55.5 42.5t-82 14q-48 0 -82 -13t-52 -37t-18 -60q0 -37 18 -59t61 -35.5t117 -26.5q48 -7 93 -20t80 -36t56 -62.5t21 -102.5q0 -62 -32.5 -109.5t-96 -74t-157.5 -26.5zM283 795l62 142h104l-87 -142h-79z" />
    <glyph glyph-name="sacute" unicode="&#x15b;" horiz-adv-x="517" 
d="M258 -10q-50 0 -90.5 12t-69.5 34t-44.5 53.5t-16.5 68.5h102q2 -31 17.5 -52t43 -31t61.5 -10q54 0 82.5 20.5t28.5 57.5q0 28 -12.5 43.5t-39.5 24.5t-71 15q-66 10 -110 26.5t-66 47t-22 79.5q0 48 26 83.5t73 56t110 20.5q62 0 107.5 -20t71.5 -56t28 -86h-101
q-2 31 -15.5 50t-37 27.5t-55.5 8.5q-49 0 -76.5 -20t-27.5 -54q0 -26 14 -41.5t43.5 -24t75.5 -15.5q61 -8 104 -25t64.5 -48t21.5 -83t-27 -88t-76.5 -55t-115.5 -19zM219 595l62 142h104l-87 -142h-79z" />
    <glyph glyph-name="Scircumflex" unicode="&#x15c;" horiz-adv-x="653" 
d="M328 -9q-96 0 -160 30t-96 83.5t-33 123.5h112q1 -46 20.5 -80.5t58.5 -52.5t101 -18q51 0 89 12.5t59 38.5t21 67q0 31 -10 52t-32.5 35.5t-59 24.5t-90.5 19q-62 11 -109.5 26.5t-79 39t-47.5 57.5t-16 80q0 64 32 111t92 72t144 25t143 -26.5t91 -74t32 -112.5h-110
q-2 44 -22.5 72.5t-55.5 42.5t-82 14q-48 0 -82 -13t-52 -37t-18 -60q0 -37 18 -59t61 -35.5t117 -26.5q48 -7 93 -20t80 -36t56 -62.5t21 -102.5q0 -62 -32.5 -109.5t-96 -74t-157.5 -26.5zM163 795l108 142h103l109 -142h-90l-70 93l-70 -93h-90z" />
    <glyph glyph-name="scircumflex" unicode="&#x15d;" horiz-adv-x="517" 
d="M258 -10q-50 0 -90.5 12t-69.5 34t-44.5 53.5t-16.5 68.5h102q2 -31 17.5 -52t43 -31t61.5 -10q54 0 82.5 20.5t28.5 57.5q0 28 -12.5 43.5t-39.5 24.5t-71 15q-66 10 -110 26.5t-66 47t-22 79.5q0 48 26 83.5t73 56t110 20.5q62 0 107.5 -20t71.5 -56t28 -86h-101
q-2 31 -15.5 50t-37 27.5t-55.5 8.5q-49 0 -76.5 -20t-27.5 -54q0 -26 14 -41.5t43.5 -24t75.5 -15.5q61 -8 104 -25t64.5 -48t21.5 -83t-27 -88t-76.5 -55t-115.5 -19zM98 595l108 142h103l109 -142h-90l-70 93l-70 -93h-90z" />
    <glyph glyph-name="Scedilla" unicode="&#x15e;" horiz-adv-x="653" 
d="M328 -9q-96 0 -160 30t-96 83.5t-33 123.5h112q1 -46 20.5 -80.5t58.5 -52.5t101 -18q51 0 89 12.5t59 38.5t21 67q0 31 -10 52t-32.5 35.5t-59 24.5t-90.5 19q-62 11 -109.5 26.5t-79 39t-47.5 57.5t-16 80q0 64 32 111t92 72t144 25t143 -26.5t91 -74t32 -112.5h-110
q-2 44 -22.5 72.5t-55.5 42.5t-82 14q-48 0 -82 -13t-52 -37t-18 -60q0 -37 18 -59t61 -35.5t117 -26.5q48 -7 93 -20t80 -36t56 -62.5t21 -102.5q0 -62 -32.5 -109.5t-96 -74t-157.5 -26.5zM320 -245q-46 0 -81 20.5t-45 62.5l67 18q5 -18 19 -29t35 -11q25 0 38.5 12.5
t13.5 33.5q0 24 -20.5 36.5t-65.5 20.5l-12 23l42 74h52l-24 -60q48 -13 75 -38.5t27 -66.5q0 -44 -33.5 -70.5t-87.5 -25.5z" />
    <glyph glyph-name="scedilla" unicode="&#x15f;" horiz-adv-x="517" 
d="M258 -10q-50 0 -90.5 12t-69.5 34t-44.5 53.5t-16.5 68.5h102q2 -31 17.5 -52t43 -31t61.5 -10q54 0 82.5 20.5t28.5 57.5q0 28 -12.5 43.5t-39.5 24.5t-71 15q-66 10 -110 26.5t-66 47t-22 79.5q0 48 26 83.5t73 56t110 20.5q62 0 107.5 -20t71.5 -56t28 -86h-101
q-2 31 -15.5 50t-37 27.5t-55.5 8.5q-49 0 -76.5 -20t-27.5 -54q0 -26 14 -41.5t43.5 -24t75.5 -15.5q61 -8 104 -25t64.5 -48t21.5 -83t-27 -88t-76.5 -55t-115.5 -19zM248 -245q-46 0 -81 20.5t-45 62.5l67 18q5 -18 19 -29t35 -11q25 0 38.5 12.5t13.5 33.5
q0 24 -20.5 36.5t-65.5 20.5l-12 23l42 74h52l-24 -60q48 -13 75 -38.5t27 -66.5q0 -44 -33.5 -70.5t-87.5 -25.5z" />
    <glyph glyph-name="Scaron" unicode="&#x160;" horiz-adv-x="653" 
d="M328 -9q-96 0 -160 30t-96 83.5t-33 123.5h112q1 -46 20.5 -80.5t58.5 -52.5t101 -18q51 0 89 12.5t59 38.5t21 67q0 31 -10 52t-32.5 35.5t-59 24.5t-90.5 19q-62 11 -109.5 26.5t-79 39t-47.5 57.5t-16 80q0 64 32 111t92 72t144 25t143 -26.5t91 -74t32 -112.5h-110
q-2 44 -22.5 72.5t-55.5 42.5t-82 14q-48 0 -82 -13t-52 -37t-18 -60q0 -37 18 -59t61 -35.5t117 -26.5q48 -7 93 -20t80 -36t56 -62.5t21 -102.5q0 -62 -32.5 -109.5t-96 -74t-157.5 -26.5zM271 795l-108 142h90l70 -92l69 92h91l-109 -142h-103z" />
    <glyph glyph-name="scaron" unicode="&#x161;" horiz-adv-x="517" 
d="M258 -10q-50 0 -90.5 12t-69.5 34t-44.5 53.5t-16.5 68.5h102q2 -31 17.5 -52t43 -31t61.5 -10q54 0 82.5 20.5t28.5 57.5q0 28 -12.5 43.5t-39.5 24.5t-71 15q-66 10 -110 26.5t-66 47t-22 79.5q0 48 26 83.5t73 56t110 20.5q62 0 107.5 -20t71.5 -56t28 -86h-101
q-2 31 -15.5 50t-37 27.5t-55.5 8.5q-49 0 -76.5 -20t-27.5 -54q0 -26 14 -41.5t43.5 -24t75.5 -15.5q61 -8 104 -25t64.5 -48t21.5 -83t-27 -88t-76.5 -55t-115.5 -19zM206 595l-108 142h90l70 -92l69 92h91l-109 -142h-103z" />
    <glyph glyph-name="uni0162" unicode="&#x162;" horiz-adv-x="618" 
d="M301 -245q-46 0 -81.5 20.5t-45.5 62.5l67 18q5 -19 19 -29.5t37 -10.5q24 0 37 12.5t13 33.5q0 24 -21 36.5t-67 20.5l-13 26l46 72l50 -7l-25 -54q49 -12 76 -38t27 -67q0 -44 -32.5 -70t-86.5 -26zM254 0v646h108v-646h-108zM25 634v95h569v-95h-569z" />
    <glyph glyph-name="uni0163" unicode="&#x163;" horiz-adv-x="374" 
d="M240 0q-60 0 -90 28.5t-30 92.5v324h-100v84h100v153l102 12v-165h118v-84h-117v-307q0 -28 13.5 -40t38.5 -12h66v-86h-101zM234 -245q-46 0 -81 20.5t-45 62.5l67 18q5 -18 19 -29t35 -11q25 0 38.5 12.5t13.5 33.5q0 24 -20.5 36.5t-65.5 20.5l-12 23l42 74h52
l-24 -60q48 -13 75 -38.5t27 -66.5q0 -44 -33.5 -70.5t-87.5 -25.5z" />
    <glyph glyph-name="Tcaron" unicode="&#x164;" horiz-adv-x="618" 
d="M254 0v646h108v-646h-108zM25 634v95h569v-95h-569zM258 795l-108 142h90l70 -92l69 92h91l-109 -142h-103z" />
    <glyph glyph-name="tcaron" unicode="&#x165;" horiz-adv-x="374" 
d="M276 586l55 179h91l-73 -179h-73zM240 0q-60 0 -90 28.5t-30 92.5v324h-100v84h100v153l102 12v-165h118v-84h-117v-307q0 -28 13.5 -40t38.5 -12h66v-86h-101z" />
    <glyph glyph-name="Tbar" unicode="&#x166;" horiz-adv-x="618" 
d="M105 302v91h406v-91h-406zM254 0v646h108v-646h-108zM25 634v95h569v-95h-569z" />
    <glyph glyph-name="tbar" unicode="&#x167;" horiz-adv-x="405" 
d="M36 224v81h319v-81h-319zM255 0q-59 0 -89 28.5t-30 92.5v324h-100v84h100v153l102 12v-165h117v-84h-116v-307q0 -28 13 -40t39 -12h66v-86h-102z" />
    <glyph glyph-name="Utilde" unicode="&#x168;" horiz-adv-x="731" 
d="M365 -9q-93 0 -160 34t-102.5 96.5t-35.5 148.5v459h108v-457q0 -61 23 -102t66 -61t102 -20q64 0 106 22t63 63.5t21 97.5v457h108v-459q0 -86 -36 -148.5t-102.5 -96.5t-160.5 -34zM436 813q-32 0 -55 8t-43 15t-42 7q-21 0 -35.5 -8t-26.5 -24l-47 27q16 29 32.5 45.5
t35 23.5t39.5 7q25 0 48.5 -7.5t47 -15.5t46.5 -8q17 0 33.5 8t28.5 25l48 -28q-14 -28 -31.5 -44.5t-37 -23.5t-41.5 -7z" />
    <glyph glyph-name="utilde" unicode="&#x169;" horiz-adv-x="611" 
d="M253 -9q-60 0 -103 23.5t-65 71t-22 117.5v326h103v-300q0 -49 12.5 -83t40.5 -51.5t72 -17.5t76.5 21t50.5 59t18 86v286h103v-529h-98l-5 107h-6q-20 -54 -68 -85t-109 -31zM371 613q-32 0 -55 8t-43 15t-42 7q-21 0 -35.5 -8t-26.5 -24l-47 27q16 29 32.5 45.5
t35 23.5t39.5 7q25 0 48.5 -7.5t47 -15.5t46.5 -8q17 0 33.5 8t28.5 25l48 -28q-14 -28 -31.5 -44.5t-37 -23.5t-41.5 -7z" />
    <glyph glyph-name="Umacron" unicode="&#x16a;" horiz-adv-x="731" 
d="M365 -9q-93 0 -160 34t-102.5 96.5t-35.5 148.5v459h108v-457q0 -61 23 -102t66 -61t102 -20q64 0 106 22t63 63.5t21 97.5v457h108v-459q0 -86 -36 -148.5t-102.5 -96.5t-160.5 -34zM188 815v78h355v-78h-355z" />
    <glyph glyph-name="umacron" unicode="&#x16b;" horiz-adv-x="611" 
d="M253 -9q-60 0 -103 23.5t-65 71t-22 117.5v326h103v-300q0 -49 12.5 -83t40.5 -51.5t72 -17.5t76.5 21t50.5 59t18 86v286h103v-529h-98l-5 107h-6q-20 -54 -68 -85t-109 -31zM123 615v78h355v-78h-355z" />
    <glyph glyph-name="Ubreve" unicode="&#x16c;" horiz-adv-x="731" 
d="M365 -9q-93 0 -160 34t-102.5 96.5t-35.5 148.5v459h108v-457q0 -61 23 -102t66 -61t102 -20q64 0 106 22t63 63.5t21 97.5v457h108v-459q0 -86 -36 -148.5t-102.5 -96.5t-160.5 -34zM366 787q-46 0 -80 17.5t-51.5 50.5t-18.5 79h72q0 -43 20.5 -64.5t57.5 -21.5
t57.5 21.5t20.5 64.5h72q-1 -70 -40.5 -108.5t-109.5 -38.5z" />
    <glyph glyph-name="ubreve" unicode="&#x16d;" horiz-adv-x="611" 
d="M253 -9q-60 0 -103 23.5t-65 71t-22 117.5v326h103v-300q0 -49 12.5 -83t40.5 -51.5t72 -17.5t76.5 21t50.5 59t18 86v286h103v-529h-98l-5 107h-6q-20 -54 -68 -85t-109 -31zM301 587q-46 0 -80 17.5t-51.5 50.5t-18.5 79h72q0 -43 20.5 -64.5t57.5 -21.5t57.5 21.5
t20.5 64.5h72q-1 -70 -40.5 -108.5t-109.5 -38.5z" />
    <glyph glyph-name="Uring" unicode="&#x16e;" horiz-adv-x="731" 
d="M365 -9q-93 0 -160 34t-102.5 96.5t-35.5 148.5v459h108v-457q0 -61 23 -102t66 -61t102 -20q64 0 106 22t63 63.5t21 97.5v457h108v-459q0 -86 -36 -148.5t-102.5 -96.5t-160.5 -34zM366 776q-49 0 -79 28t-30 73q0 46 30 74t79 28q48 0 78 -28t30 -74q0 -45 -30 -73
t-78 -28zM366 827q23 0 36.5 14t13.5 36q0 23 -13.5 36.5t-37.5 13.5q-22 0 -36 -13.5t-14 -36.5q0 -22 14 -36t37 -14z" />
    <glyph glyph-name="uring" unicode="&#x16f;" horiz-adv-x="611" 
d="M253 -9q-60 0 -103 23.5t-65 71t-22 117.5v326h103v-300q0 -49 12.5 -83t40.5 -51.5t72 -17.5t76.5 21t50.5 59t18 86v286h103v-529h-98l-5 107h-6q-20 -54 -68 -85t-109 -31zM302 576q-49 0 -79 28t-30 73q0 46 30 74t79 28q48 0 78 -28t30 -74q0 -45 -30 -73t-78 -28z
M302 627q23 0 36.5 14t13.5 36q0 23 -13.5 36.5t-37.5 13.5q-22 0 -36 -13.5t-14 -36.5q0 -22 14 -36t37 -14z" />
    <glyph glyph-name="Uhungarumlaut" unicode="&#x170;" horiz-adv-x="731" 
d="M365 -9q-93 0 -160 34t-102.5 96.5t-35.5 148.5v459h108v-457q0 -61 23 -102t66 -61t102 -20q64 0 106 22t63 63.5t21 97.5v457h108v-459q0 -86 -36 -148.5t-102.5 -96.5t-160.5 -34zM245 795l61 142h100l-86 -142h-75zM411 795l79 142h105l-102 -142h-82z" />
    <glyph glyph-name="uhungarumlaut" unicode="&#x171;" horiz-adv-x="611" 
d="M253 -9q-60 0 -103 23.5t-65 71t-22 117.5v326h103v-300q0 -49 12.5 -83t40.5 -51.5t72 -17.5t76.5 21t50.5 59t18 86v286h103v-529h-98l-5 107h-6q-20 -54 -68 -85t-109 -31zM181 595l61 142h100l-86 -142h-75zM347 595l79 142h105l-102 -142h-82z" />
    <glyph glyph-name="Uogonek" unicode="&#x172;" horiz-adv-x="731" 
d="M431 -201q-49 0 -77.5 22.5t-28.5 62.5q0 39 24.5 69t64 54t83.5 46l23 -17q-33 -25 -59.5 -47t-42.5 -43t-16 -46q0 -48 57 -48q10 0 22 2t23 6v-50q-11 -5 -31 -8t-42 -3zM365 -9q-93 0 -160 34t-102.5 96.5t-35.5 148.5v459h108v-457q0 -61 23 -102t66 -61t102 -20
q64 0 106 22t63 63.5t21 97.5v457h108v-459q0 -86 -36 -148.5t-102.5 -96.5t-160.5 -34z" />
    <glyph glyph-name="uogonek" unicode="&#x173;" horiz-adv-x="611" 
d="M253 -9q-60 0 -103 23.5t-65 71t-22 117.5v326h103v-300q0 -49 12.5 -83t40.5 -51.5t72 -17.5t76.5 21t50.5 59t18 86v286h103v-529h-98l-5 107h-6q-20 -54 -68 -85t-109 -31zM473 -214q-50 0 -78.5 23t-28.5 64q0 26 13 51t38.5 48.5t60.5 43.5h51l9 -16
q-36 -26 -59 -53t-23 -58q0 -23 14 -35.5t39 -12.5q11 0 22 2.5t20 6.5v-49q-14 -7 -35.5 -11t-42.5 -4z" />
    <glyph glyph-name="Wcircumflex" unicode="&#x174;" horiz-adv-x="991" 
d="M204 0l-178 729h119l95 -422l39 -206h8l42 206l99 422h137l98 -414l45 -215h7l39 215l92 414h119l-178 -729h-151l-90 384l-46 226h-7l-47 -226l-91 -384h-151zM336 795l108 142h103l109 -142h-90l-70 93l-70 -93h-90z" />
    <glyph glyph-name="wcircumflex" unicode="&#x175;" horiz-adv-x="783" 
d="M142 0l-132 529h104l71 -298l30 -139h6l26 139l65 298h119l67 -298l28 -140h5l29 140l71 298h100l-133 -529h-135l-65 272l-27 139h-5l-26 -139l-61 -272h-137zM232 595l108 142h103l109 -142h-90l-70 93l-70 -93h-90z" />
    <glyph glyph-name="Ycircumflex" unicode="&#x176;" horiz-adv-x="688" 
d="M289 0v287l-270 442h125l115 -200l81 -146h6l83 146l116 200h124l-271 -442v-287h-109zM185 795l108 142h103l109 -142h-90l-70 93l-70 -93h-90z" />
    <glyph glyph-name="ycircumflex" unicode="&#x177;" horiz-adv-x="539" 
d="M57 -167v85h56q24 0 40.5 6.5t28.5 20t19 34.5l32 81v-43l-216 512h113l102 -282l40 -112h6l37 112l96 282h110l-221 -575q-17 -45 -40.5 -71.5t-55 -38t-73.5 -11.5h-74zM110 595l108 142h103l109 -142h-90l-70 93l-70 -93h-90z" />
    <glyph glyph-name="Ydieresis" unicode="&#x178;" horiz-adv-x="688" 
d="M289 0v287l-270 442h125l115 -200l81 -146h6l83 146l116 200h124l-271 -442v-287h-109zM446 813q-25 0 -41 13.5t-16 36.5t16 36.5t41 13.5q24 0 39.5 -13.5t15.5 -36.5t-15.5 -36.5t-39.5 -13.5zM244 813q-24 0 -40 13.5t-16 36.5t16 36.5t40 13.5q25 0 40.5 -13.5
t15.5 -36.5t-15.5 -36.5t-40.5 -13.5z" />
    <glyph glyph-name="Zacute" unicode="&#x179;" horiz-adv-x="628" 
d="M32 0v91l416 543h-399v95h535v-91l-417 -543h428v-95h-563zM274 795l62 142h104l-87 -142h-79z" />
    <glyph glyph-name="zacute" unicode="&#x17a;" horiz-adv-x="511" 
d="M29 0v75l311 370h-297v84h427v-75l-311 -370h322v-84h-452zM215 595l62 142h104l-87 -142h-79z" />
    <glyph glyph-name="Zdotaccent" unicode="&#x17b;" horiz-adv-x="628" 
d="M32 0v91l416 543h-399v95h535v-91l-417 -543h428v-95h-563zM314 810q-26 0 -43 14t-17 39t17 39t43 14t43 -14t17 -39t-17 -39t-43 -14z" />
    <glyph glyph-name="zdotaccent" unicode="&#x17c;" horiz-adv-x="511" 
d="M29 0v75l311 370h-297v84h427v-75l-311 -370h322v-84h-452zM255 610q-26 0 -43 14t-17 39t17 39t43 14t43 -14t17 -39t-17 -39t-43 -14z" />
    <glyph glyph-name="Zcaron" unicode="&#x17d;" horiz-adv-x="628" 
d="M32 0v91l416 543h-399v95h535v-91l-417 -543h428v-95h-563zM262 795l-108 142h90l70 -92l69 92h91l-109 -142h-103z" />
    <glyph glyph-name="zcaron" unicode="&#x17e;" horiz-adv-x="511" 
d="M29 0v75l311 370h-297v84h427v-75l-311 -370h322v-84h-452zM203 595l-108 142h90l70 -92l69 92h91l-109 -142h-103z" />
    <glyph glyph-name="florin" unicode="&#x192;" horiz-adv-x="434" 
d="M39 -167v81h36q47 0 69 20t22 69v558q0 85 45.5 126.5t126.5 41.5h58v-81h-36q-47 0 -69 -19.5t-22 -69.5v-558q0 -85 -45.5 -126.5t-126.5 -41.5h-58zM73 357v79h294v-79h-294z" />
    <glyph glyph-name="Ohorn" unicode="&#x1a0;" horiz-adv-x="806" 
d="M403 -9q-81 0 -147 25.5t-114 74.5t-73.5 118t-25.5 155q0 87 26 156t73.5 117.5t113.5 74t147 25.5q82 0 147.5 -25.5t113.5 -74t73.5 -117.5t25.5 -156t-26 -156t-73.5 -117.5t-113.5 -74t-147 -25.5zM403 85q76 0 131.5 33.5t86 95.5t30.5 150q0 67 -17.5 118.5
t-50 87.5t-78 54.5t-102.5 18.5q-76 0 -131.5 -33t-85.5 -95t-30 -151q0 -66 17.5 -118t49.5 -87.5t77.5 -54.5t102.5 -19zM566 643v61q38 -2 61 9t32 36t4 65h82q8 -59 -10 -98t-60.5 -57.5t-108.5 -15.5z" />
    <glyph glyph-name="ohorn" unicode="&#x1a1;" horiz-adv-x="599" 
d="M299 -9q-58 0 -105.5 19t-81.5 55t-53 86t-19 112q0 82 31.5 143.5t90 96t137.5 34.5q58 0 105.5 -18.5t81.5 -54.5t52.5 -86.5t18.5 -113.5q0 -81 -31 -142.5t-89 -96t-138 -34.5zM299 77q46 0 80.5 21.5t53.5 63.5t19 102q0 45 -10.5 79.5t-30.5 59t-48 37t-64 12.5
q-46 0 -80.5 -22t-54 -63.5t-19.5 -103.5q0 -44 10.5 -78.5t31 -58.5t49 -36.5t63.5 -12.5zM381 454v61q38 -2 61 9t32 36t4 65h82q8 -59 -10 -98t-60.5 -57.5t-108.5 -15.5z" />
    <glyph glyph-name="Uhorn" unicode="&#x1af;" horiz-adv-x="731" 
d="M365 -9q-93 0 -160 34t-102.5 96.5t-35.5 148.5v459h108v-457q0 -61 23 -102t66 -61t102 -20q64 0 106 22t63 63.5t21 97.5v457h108v-459q0 -86 -36 -148.5t-102.5 -96.5t-160.5 -34zM571 668v61q38 -2 61 9t32 36t4 65h82q8 -59 -10 -98t-60.5 -57.5t-108.5 -15.5z" />
    <glyph glyph-name="uhorn" unicode="&#x1b0;" horiz-adv-x="640" 
d="M253 -9q-60 0 -103 23.5t-65 71t-22 117.5v326h103v-300q0 -49 12.5 -83t40.5 -51.5t72 -17.5t76.5 21t50.5 59t18 86v286h103v-529h-98l-5 107h-6q-20 -54 -68 -85t-109 -31zM448 468v61q38 -2 61 9t32 36t4 65h82q8 -59 -10 -98t-60.5 -57.5t-108.5 -15.5z" />
    <glyph glyph-name="Gcaron" unicode="&#x1e6;" horiz-adv-x="812" 
d="M389 -9q-78 0 -141.5 25.5t-109.5 74t-70.5 116.5t-24.5 152q0 88 26 158t74 119t115.5 75t149.5 26q91 0 162 -28.5t116.5 -81.5t57.5 -128h-111q-12 44 -42.5 76t-77 50t-105.5 18q-81 0 -137 -35t-85.5 -98.5t-29.5 -148.5q0 -64 17 -116t49.5 -88t79 -55t103.5 -19
q68 0 120.5 25.5t82 72t29.5 109.5v42l27 -25h-280v83h368v-390h-87l-6 139h-7q-16 -44 -55 -77.5t-92.5 -52t-115.5 -18.5zM356 795l-108 142h90l70 -92l69 92h91l-109 -142h-103z" />
    <glyph glyph-name="gcaron" unicode="&#x1e7;" horiz-adv-x="600" 
d="M279 -177q-63 0 -110 18.5t-75 52.5t-34 81h100q4 -23 20 -40.5t41.5 -26.5t59.5 -9q50 0 82.5 14.5t47.5 43.5t15 74v94h-5q-17 -47 -62 -76t-108 -29q-46 0 -84.5 17.5t-66.5 51t-43 81.5t-15 109q0 81 26.5 139.5t73.5 89.5t109 31q61 0 106.5 -28t63.5 -77h6l3 95h99
v-480q0 -80 -30.5 -130t-86.5 -73t-133 -23zM287 105q45 0 76 20t47 53.5t16 73.5v56q0 40 -16.5 73.5t-47 53t-72.5 19.5q-45 0 -77 -21t-48.5 -60.5t-16.5 -93.5t16 -93t47.5 -60t75.5 -21zM250 595l-108 142h90l70 -92l69 92h91l-109 -142h-103z" />
    <glyph glyph-name="uni0218" unicode="&#x218;" horiz-adv-x="653" 
d="M328 -9q-96 0 -160 30t-96 83.5t-33 123.5h112q1 -46 20.5 -80.5t58.5 -52.5t101 -18q51 0 89 12.5t59 38.5t21 67q0 31 -10 52t-32.5 35.5t-59 24.5t-90.5 19q-62 11 -109.5 26.5t-79 39t-47.5 57.5t-16 80q0 64 32 111t92 72t144 25t143 -26.5t91 -74t32 -112.5h-110
q-2 44 -22.5 72.5t-55.5 42.5t-82 14q-48 0 -82 -13t-52 -37t-18 -60q0 -37 18 -59t61 -35.5t117 -26.5q48 -7 93 -20t80 -36t56 -62.5t21 -102.5q0 -62 -32.5 -109.5t-96 -74t-157.5 -26.5zM236 -203l44 146h99l-65 -146h-78z" />
    <glyph glyph-name="uni0219" unicode="&#x219;" horiz-adv-x="517" 
d="M258 -10q-50 0 -90.5 12t-69.5 34t-44.5 53.5t-16.5 68.5h102q2 -31 17.5 -52t43 -31t61.5 -10q54 0 82.5 20.5t28.5 57.5q0 28 -12.5 43.5t-39.5 24.5t-71 15q-66 10 -110 26.5t-66 47t-22 79.5q0 48 26 83.5t73 56t110 20.5q62 0 107.5 -20t71.5 -56t28 -86h-101
q-2 31 -15.5 50t-37 27.5t-55.5 8.5q-49 0 -76.5 -20t-27.5 -54q0 -26 14 -41.5t43.5 -24t75.5 -15.5q61 -8 104 -25t64.5 -48t21.5 -83t-27 -88t-76.5 -55t-115.5 -19zM165 -203l44 146h99l-65 -146h-78z" />
    <glyph glyph-name="uni021A" unicode="&#x21a;" horiz-adv-x="618" 
d="M254 0v646h108v-646h-108zM25 634v95h569v-95h-569zM216 -203l44 146h99l-65 -146h-78z" />
    <glyph glyph-name="uni021B" unicode="&#x21b;" horiz-adv-x="374" 
d="M240 0q-60 0 -90 28.5t-30 92.5v324h-100v84h100v153l102 12v-165h118v-84h-117v-307q0 -28 13.5 -40t38.5 -12h66v-86h-101zM150 -203l44 146h99l-65 -146h-78z" />
    <glyph glyph-name="uni0237" unicode="&#x237;" horiz-adv-x="246" 
d="M-30 -167v76h43q32 0 45.5 15t13.5 51v554h103v-558q0 -43 -13.5 -74t-42 -47.5t-75.5 -16.5h-74z" />
    <glyph glyph-name="circumflex" unicode="&#x2c6;" horiz-adv-x="400" 
d="M40 741l108 142h103l109 -142h-90l-70 93l-70 -93h-90z" />
    <glyph glyph-name="caron" unicode="&#x2c7;" horiz-adv-x="400" 
d="M148 741l-108 142h90l70 -92l69 92h91l-109 -142h-103z" />
    <glyph glyph-name="breve" unicode="&#x2d8;" horiz-adv-x="380" 
d="M190 736q-46 0 -80 17.5t-51.5 50.5t-18.5 79h72q0 -43 20.5 -64.5t57.5 -21.5t57.5 21.5t20.5 64.5h72q-1 -70 -40.5 -108.5t-109.5 -38.5z" />
    <glyph glyph-name="dotaccent" unicode="&#x2d9;" horiz-adv-x="200" 
d="M100 756q-26 0 -43 14t-17 39t17 39t43 14t43 -14t17 -39t-17 -39t-43 -14z" />
    <glyph glyph-name="ring" unicode="&#x2da;" horiz-adv-x="297" 
d="M149 722q-49 0 -79 28t-30 73q0 46 30 74t79 28q48 0 78 -28t30 -74q0 -45 -30 -73t-78 -28zM149 773q23 0 36.5 14t13.5 36q0 23 -13.5 36.5t-37.5 13.5q-22 0 -36 -13.5t-14 -36.5q0 -22 14 -36t37 -14z" />
    <glyph glyph-name="ogonek" unicode="&#x2db;" horiz-adv-x="265" 
d="M147 -214q-50 0 -78.5 23t-28.5 64q0 26 13 51t38.5 48.5t60.5 43.5h51l9 -16q-36 -26 -59 -53t-23 -58q0 -23 14 -35.5t39 -12.5q11 0 22 2.5t20 6.5v-49q-14 -7 -35.5 -11t-42.5 -4z" />
    <glyph glyph-name="tilde" unicode="&#x2dc;" horiz-adv-x="439" 
d="M289 759q-32 0 -55 8t-43 15t-42 7q-21 0 -35.5 -8t-26.5 -24l-47 27q16 29 32.5 45.5t35 23.5t39.5 7q25 0 48.5 -7.5t47 -15.5t46.5 -8q17 0 33.5 8t28.5 25l48 -28q-14 -28 -31.5 -44.5t-37 -23.5t-41.5 -7z" />
    <glyph glyph-name="hungarumlaut" unicode="&#x2dd;" horiz-adv-x="430" 
d="M40 741l61 142h100l-86 -142h-75zM206 741l79 142h105l-102 -142h-82z" />
    <glyph glyph-name="gravecomb" unicode="&#x300;" 
d="M126 741l-86 142h104l62 -142h-80z" />
    <glyph glyph-name="acutecomb" unicode="&#x301;" 
d="M40 741l62 142h104l-87 -142h-79z" />
    <glyph glyph-name="uni0302" unicode="&#x302;" 
d="M40 741l108 142h103l109 -142h-90l-70 93l-70 -93h-90z" />
    <glyph glyph-name="tildecomb" unicode="&#x303;" 
d="M289 759q-32 0 -55 8t-43 15t-42 7q-21 0 -35.5 -8t-26.5 -24l-47 27q16 29 32.5 45.5t35 23.5t39.5 7q25 0 48.5 -7.5t47 -15.5t46.5 -8q17 0 33.5 8t28.5 25l48 -28q-14 -28 -31.5 -44.5t-37 -23.5t-41.5 -7z" />
    <glyph glyph-name="uni0304" unicode="&#x304;" 
d="M40 761v78h355v-78h-355z" />
    <glyph glyph-name="uni0306" unicode="&#x306;" 
d="M190 736q-46 0 -80 17.5t-51.5 50.5t-18.5 79h72q0 -43 20.5 -64.5t57.5 -21.5t57.5 21.5t20.5 64.5h72q-1 -70 -40.5 -108.5t-109.5 -38.5z" />
    <glyph glyph-name="uni0307" unicode="&#x307;" 
d="M100 756q-26 0 -43 14t-17 39t17 39t43 14t43 -14t17 -39t-17 -39t-43 -14z" />
    <glyph glyph-name="uni0308" unicode="&#x308;" 
d="M298 759q-25 0 -41 13.5t-16 36.5t16 36.5t41 13.5q24 0 39.5 -13.5t15.5 -36.5t-15.5 -36.5t-39.5 -13.5zM96 759q-24 0 -40 13.5t-16 36.5t16 36.5t40 13.5q25 0 40.5 -13.5t15.5 -36.5t-15.5 -36.5t-40.5 -13.5z" />
    <glyph glyph-name="hookabovecomb" unicode="&#x309;" 
d="M93 726l-28 51q40 17 56.5 33.5t16.5 36.5q0 19 -13.5 28.5t-36.5 9.5q-12 0 -24 -1.5t-23 -5.5l-1 55q17 5 35 7.5t37 2.5q38 0 64 -11t40 -30.5t14 -45.5q0 -43 -33 -74t-104 -56z" />
    <glyph glyph-name="uni030A" unicode="&#x30a;" 
d="M149 722q-49 0 -79 28t-30 73q0 46 30 74t79 28q48 0 78 -28t30 -74q0 -45 -30 -73t-78 -28zM149 773q23 0 36.5 14t13.5 36q0 23 -13.5 36.5t-37.5 13.5q-22 0 -36 -13.5t-14 -36.5q0 -22 14 -36t37 -14z" />
    <glyph glyph-name="uni030B" unicode="&#x30b;" 
d="M40 741l61 142h100l-86 -142h-75zM206 741l79 142h105l-102 -142h-82z" />
    <glyph glyph-name="uni030C" unicode="&#x30c;" 
d="M148 741l-108 142h90l70 -92l69 92h91l-109 -142h-103z" />
    <glyph glyph-name="uni0312" unicode="&#x312;" 
d="M40 741v36q0 53 25 90t68 65l40 -44q-25 -25 -38.5 -51.5t-13.5 -66.5v-29h-81z" />
    <glyph glyph-name="uni031B" unicode="&#x31b;" 
d="M40 483v61q38 -2 61 9t32 36t4 65h82q8 -59 -10 -98t-60.5 -57.5t-108.5 -15.5z" />
    <glyph glyph-name="dotbelowcomb" unicode="&#x323;" 
d="M95 -165q-23 0 -39 14t-16 38t16 37.5t39 13.5t38.5 -13.5t15.5 -37.5t-15.5 -38t-38.5 -14z" />
    <glyph glyph-name="uni0326" unicode="&#x326;" 
d="M40 -203l44 146h99l-65 -146h-78z" />
    <glyph glyph-name="uni0327" unicode="&#x327;" 
d="M166 -245q-46 0 -81 20.5t-45 62.5l67 18q5 -18 19 -29t35 -11q25 0 38.5 12.5t13.5 33.5q0 24 -20.5 36.5t-65.5 20.5l-12 23l42 74h52l-24 -60q48 -13 75 -38.5t27 -66.5q0 -44 -33.5 -70.5t-87.5 -25.5z" />
    <glyph glyph-name="uni0328" unicode="&#x328;" 
d="M147 -214q-50 0 -78.5 23t-28.5 64q0 26 13 51t38.5 48.5t60.5 43.5h51l9 -16q-36 -26 -59 -53t-23 -58q0 -23 14 -35.5t39 -12.5q11 0 22 2.5t20 6.5v-49q-14 -7 -35.5 -11t-42.5 -4z" />
    <glyph glyph-name="uni0335" unicode="&#x335;" 
d="M40 273v68h323v-68h-323z" />
    <glyph glyph-name="uni0336" unicode="&#x336;" 
d="M40 330v78h798v-78h-798z" />
    <glyph glyph-name="uni0337" unicode="&#x337;" 
d="M40 216v88l227 129v-87z" />
    <glyph glyph-name="uni0338" unicode="&#x338;" 
d="M40 -60l478 649h70l-477 -649h-71z" />
    <glyph glyph-name="uni03BC" unicode="&#x3bc;" horiz-adv-x="619" 
d="M72 -132v661h103v-327q0 -40 15 -68t43.5 -42.5t69.5 -14.5q74 0 107.5 46t33.5 120v286h103v-529h-98l-5 107h-5q-22 -58 -68.5 -87t-107.5 -29q-45 0 -80.5 17t-50.5 47l43 29v-216h-103z" />
    <glyph glyph-name="pi" unicode="&#x3c0;" horiz-adv-x="612" 
d="M516 -7q-47 0 -74 17.5t-37 48t-10 67.5v318h-188v-444h-101v444h-86v85h560v-85h-84v-302q0 -22 4.5 -38t16 -24t29.5 -8q9 0 17.5 1.5t15.5 4.5v-74q-11 -4 -29 -7.5t-34 -3.5z" />
    <glyph glyph-name="uni0E3F" unicode="&#xe3f;" horiz-adv-x="709" 
d="M93 0v729h319q73 0 121.5 -23.5t73.5 -65t25 -98.5q0 -39 -13 -71.5t-39 -56.5t-64 -34v-5q45 -9 74.5 -33t45.5 -59.5t16 -77.5q0 -62 -29.5 -108t-85.5 -71.5t-138 -25.5h-306zM200 86h189q74 0 110.5 35t36.5 91t-35 88t-102 32h-199v-246zM200 415h194q42 0 69.5 14
t41.5 39t14 58q0 56 -36.5 86.5t-97.5 30.5h-185v-228zM301 -85v136h65v-136h-65zM301 703v111h65v-111h-65z" />
    <glyph glyph-name="Wgrave" unicode="&#x1e80;" horiz-adv-x="991" 
d="M204 0l-178 729h119l95 -422l39 -206h8l42 206l99 422h137l98 -414l45 -215h7l39 215l92 414h119l-178 -729h-151l-90 384l-46 226h-7l-47 -226l-91 -384h-151zM456 795l-86 142h104l62 -142h-80z" />
    <glyph glyph-name="wgrave" unicode="&#x1e81;" horiz-adv-x="783" 
d="M142 0l-132 529h104l71 -298l30 -139h6l26 139l65 298h119l67 -298l28 -140h5l29 140l71 298h100l-133 -529h-135l-65 272l-27 139h-5l-26 -139l-61 -272h-137zM352 595l-86 142h104l62 -142h-80z" />
    <glyph glyph-name="Wacute" unicode="&#x1e82;" horiz-adv-x="991" 
d="M204 0l-178 729h119l95 -422l39 -206h8l42 206l99 422h137l98 -414l45 -215h7l39 215l92 414h119l-178 -729h-151l-90 384l-46 226h-7l-47 -226l-91 -384h-151zM456 795l62 142h104l-87 -142h-79z" />
    <glyph glyph-name="wacute" unicode="&#x1e83;" horiz-adv-x="783" 
d="M142 0l-132 529h104l71 -298l30 -139h6l26 139l65 298h119l67 -298l28 -140h5l29 140l71 298h100l-133 -529h-135l-65 272l-27 139h-5l-26 -139l-61 -272h-137zM353 595l62 142h104l-87 -142h-79z" />
    <glyph glyph-name="Wdieresis" unicode="&#x1e84;" horiz-adv-x="991" 
d="M204 0l-178 729h119l95 -422l39 -206h8l42 206l99 422h137l98 -414l45 -215h7l39 215l92 414h119l-178 -729h-151l-90 384l-46 226h-7l-47 -226l-91 -384h-151zM597 813q-25 0 -41 13.5t-16 36.5t16 36.5t41 13.5q24 0 39.5 -13.5t15.5 -36.5t-15.5 -36.5t-39.5 -13.5z
M395 813q-24 0 -40 13.5t-16 36.5t16 36.5t40 13.5q25 0 40.5 -13.5t15.5 -36.5t-15.5 -36.5t-40.5 -13.5z" />
    <glyph glyph-name="wdieresis" unicode="&#x1e85;" horiz-adv-x="783" 
d="M142 0l-132 529h104l71 -298l30 -139h6l26 139l65 298h119l67 -298l28 -140h5l29 140l71 298h100l-133 -529h-135l-65 272l-27 139h-5l-26 -139l-61 -272h-137zM493 613q-25 0 -41 13.5t-16 36.5t16 36.5t41 13.5q24 0 39.5 -13.5t15.5 -36.5t-15.5 -36.5t-39.5 -13.5z
M291 613q-24 0 -40 13.5t-16 36.5t16 36.5t40 13.5q25 0 40.5 -13.5t15.5 -36.5t-15.5 -36.5t-40.5 -13.5z" />
    <glyph glyph-name="uni1E9E" unicode="&#x1e9e;" horiz-adv-x="673" 
d="M79 0v729h512v-108l-158 -201v-38l-29 31h21q69 0 116 -25t71 -70t24 -104q0 -67 -30 -115t-85.5 -73.5t-132.5 -25.5h-134v89h118q80 0 115.5 38.5t35.5 96.5q0 65 -38 100t-118 35h-46v55l170 222h-303v-636h-109z" />
    <glyph glyph-name="uni1EA0" unicode="&#x1ea0;" horiz-adv-x="716" 
d="M22 0l259 729h154l258 -729h-113l-188 552l-31 93h-6l-30 -93l-189 -552h-114zM184 169l19 87h309l19 -87h-347zM358 -165q-23 0 -39 14t-16 38t16 37.5t39 13.5t38.5 -13.5t15.5 -37.5t-15.5 -38t-38.5 -14z" />
    <glyph glyph-name="uni1EA1" unicode="&#x1ea1;" horiz-adv-x="619" 
d="M261 -9q-48 0 -88.5 19t-69.5 54t-44.5 85.5t-15.5 115.5q0 86 27.5 147t76.5 93.5t114 32.5q44 0 80 -14t61.5 -38.5t36.5 -58.5h6l4 102h98v-529h-98l-4 103h-6q-18 -50 -65 -81t-113 -31zM296 76q48 0 81 22t50 58t17 79v60q0 44 -17.5 80t-50 57.5t-78.5 21.5
q-47 0 -80.5 -23t-51 -65t-17.5 -101q0 -58 17 -101t50 -65.5t80 -22.5zM313 -165q-23 0 -39 14t-16 38t16 37.5t39 13.5t38.5 -13.5t15.5 -37.5t-15.5 -38t-38.5 -14z" />
    <glyph glyph-name="uni1EA2" unicode="&#x1ea2;" horiz-adv-x="716" 
d="M22 0l259 729h154l258 -729h-113l-188 552l-31 93h-6l-30 -93l-189 -552h-114zM184 169l19 87h309l19 -87h-347zM319 780l-28 51q40 17 56.5 33.5t16.5 36.5q0 19 -13.5 28.5t-36.5 9.5q-12 0 -24 -1.5t-23 -5.5l-1 55q17 5 35 7.5t37 2.5q38 0 64 -11t40 -30.5t14 -45.5
q0 -43 -33 -74t-104 -56z" />
    <glyph glyph-name="uni1EA3" unicode="&#x1ea3;" horiz-adv-x="619" 
d="M261 -9q-48 0 -88.5 19t-69.5 54t-44.5 85.5t-15.5 115.5q0 86 27.5 147t76.5 93.5t114 32.5q44 0 80 -14t61.5 -38.5t36.5 -58.5h6l4 102h98v-529h-98l-4 103h-6q-18 -50 -65 -81t-113 -31zM296 76q48 0 81 22t50 58t17 79v60q0 44 -17.5 80t-50 57.5t-78.5 21.5
q-47 0 -80.5 -23t-51 -65t-17.5 -101q0 -58 17 -101t50 -65.5t80 -22.5zM274 580l-28 51q40 17 56.5 33.5t16.5 36.5q0 19 -13.5 28.5t-36.5 9.5q-12 0 -24 -1.5t-23 -5.5l-1 55q17 5 35 7.5t37 2.5q38 0 64 -11t40 -30.5t14 -45.5q0 -43 -33 -74t-104 -56z" />
    <glyph glyph-name="uni1EA4" unicode="&#x1ea4;" horiz-adv-x="716" 
d="M22 0l259 729h154l258 -729h-113l-188 552l-31 93h-6l-30 -93l-189 -552h-114zM184 169l19 87h309l19 -87h-347zM198 795l108 142h103l109 -142h-90l-70 93l-70 -93h-90zM476 889l76 137h87l-97 -137h-66z" />
    <glyph glyph-name="uni1EA5" unicode="&#x1ea5;" horiz-adv-x="619" 
d="M261 -9q-48 0 -88.5 19t-69.5 54t-44.5 85.5t-15.5 115.5q0 86 27.5 147t76.5 93.5t114 32.5q44 0 80 -14t61.5 -38.5t36.5 -58.5h6l4 102h98v-529h-98l-4 103h-6q-18 -50 -65 -81t-113 -31zM296 76q48 0 81 22t50 58t17 79v60q0 44 -17.5 80t-50 57.5t-78.5 21.5
q-47 0 -80.5 -23t-51 -65t-17.5 -101q0 -58 17 -101t50 -65.5t80 -22.5zM153 595l108 142h103l109 -142h-90l-70 93l-70 -93h-90zM431 689l76 137h87l-97 -137h-66z" />
    <glyph glyph-name="uni1EA6" unicode="&#x1ea6;" horiz-adv-x="716" 
d="M22 0l259 729h154l258 -729h-113l-188 552l-31 93h-6l-30 -93l-189 -552h-114zM184 169l19 87h309l19 -87h-347zM198 795l108 142h103l109 -142h-90l-70 93l-70 -93h-90zM513 889l-93 137h87l73 -137h-67z" />
    <glyph glyph-name="uni1EA7" unicode="&#x1ea7;" horiz-adv-x="619" 
d="M261 -9q-48 0 -88.5 19t-69.5 54t-44.5 85.5t-15.5 115.5q0 86 27.5 147t76.5 93.5t114 32.5q44 0 80 -14t61.5 -38.5t36.5 -58.5h6l4 102h98v-529h-98l-4 103h-6q-18 -50 -65 -81t-113 -31zM296 76q48 0 81 22t50 58t17 79v60q0 44 -17.5 80t-50 57.5t-78.5 21.5
q-47 0 -80.5 -23t-51 -65t-17.5 -101q0 -58 17 -101t50 -65.5t80 -22.5zM153 595l108 142h103l109 -142h-90l-70 93l-70 -93h-90zM468 689l-93 137h87l73 -137h-67z" />
    <glyph glyph-name="uni1EA8" unicode="&#x1ea8;" horiz-adv-x="716" 
d="M22 0l259 729h154l258 -729h-113l-188 552l-31 93h-6l-30 -93l-189 -552h-114zM184 169l19 87h309l19 -87h-347zM198 795l108 142h103l109 -142h-90l-70 93l-70 -93h-90zM523 843l-32 41q20 14 31 29.5t11 33.5q0 17 -10 27.5t-33 10.5q-8 0 -16.5 -1t-16.5 -5v47
q14 5 29.5 7t28.5 2q43 0 67.5 -21.5t24.5 -56.5q0 -32 -19.5 -61t-64.5 -53z" />
    <glyph glyph-name="uni1EA9" unicode="&#x1ea9;" horiz-adv-x="619" 
d="M261 -9q-48 0 -88.5 19t-69.5 54t-44.5 85.5t-15.5 115.5q0 86 27.5 147t76.5 93.5t114 32.5q44 0 80 -14t61.5 -38.5t36.5 -58.5h6l4 102h98v-529h-98l-4 103h-6q-18 -50 -65 -81t-113 -31zM296 76q48 0 81 22t50 58t17 79v60q0 44 -17.5 80t-50 57.5t-78.5 21.5
q-47 0 -80.5 -23t-51 -65t-17.5 -101q0 -58 17 -101t50 -65.5t80 -22.5zM153 595l108 142h103l109 -142h-90l-70 93l-70 -93h-90zM478 643l-32 41q20 14 31 29.5t11 33.5q0 17 -10 27.5t-33 10.5q-8 0 -16.5 -1t-16.5 -5v47q14 5 29.5 7t28.5 2q43 0 67.5 -21.5t24.5 -56.5
q0 -32 -19.5 -61t-64.5 -53z" />
    <glyph glyph-name="uni1EAA" unicode="&#x1eaa;" horiz-adv-x="716" 
d="M22 0l259 729h154l258 -729h-113l-188 552l-31 93h-6l-30 -93l-189 -552h-114zM184 169l19 87h309l19 -87h-347zM198 795l106 129h108l106 -129h-90l-70 90l-70 -90h-90zM241 953l-36 22q19 33 40 48.5t53 15.5q23 0 45.5 -7t44.5 -14t42 -7q16 0 30 7t24 23l36 -23
q-18 -33 -40 -48.5t-55 -15.5q-28 0 -50 7t-42 13.5t-41 6.5q-16 0 -28 -6t-23 -22z" />
    <glyph glyph-name="uni1EAB" unicode="&#x1eab;" horiz-adv-x="619" 
d="M261 -9q-48 0 -88.5 19t-69.5 54t-44.5 85.5t-15.5 115.5q0 86 27.5 147t76.5 93.5t114 32.5q44 0 80 -14t61.5 -38.5t36.5 -58.5h6l4 102h98v-529h-98l-4 103h-6q-18 -50 -65 -81t-113 -31zM296 76q48 0 81 22t50 58t17 79v60q0 44 -17.5 80t-50 57.5t-78.5 21.5
q-47 0 -80.5 -23t-51 -65t-17.5 -101q0 -58 17 -101t50 -65.5t80 -22.5zM153 595l106 129h108l106 -129h-90l-70 90l-70 -90h-90zM196 753l-36 22q19 33 40 48.5t53 15.5q23 0 45.5 -7t44.5 -14t42 -7q16 0 30 7t24 23l36 -23q-18 -33 -40 -48.5t-55 -15.5q-28 0 -50 7
t-42 13.5t-41 6.5q-16 0 -28 -6t-23 -22z" />
    <glyph glyph-name="uni1EAC" unicode="&#x1eac;" horiz-adv-x="716" 
d="M22 0l259 729h154l258 -729h-113l-188 552l-31 93h-6l-30 -93l-189 -552h-114zM184 169l19 87h309l19 -87h-347zM358 -165q-23 0 -39 14t-16 38t16 37.5t39 13.5t38.5 -13.5t15.5 -37.5t-15.5 -38t-38.5 -14zM198 795l108 142h103l109 -142h-90l-70 93l-70 -93h-90z" />
    <glyph glyph-name="uni1EAD" unicode="&#x1ead;" horiz-adv-x="619" 
d="M261 -9q-48 0 -88.5 19t-69.5 54t-44.5 85.5t-15.5 115.5q0 86 27.5 147t76.5 93.5t114 32.5q44 0 80 -14t61.5 -38.5t36.5 -58.5h6l4 102h98v-529h-98l-4 103h-6q-18 -50 -65 -81t-113 -31zM296 76q48 0 81 22t50 58t17 79v60q0 44 -17.5 80t-50 57.5t-78.5 21.5
q-47 0 -80.5 -23t-51 -65t-17.5 -101q0 -58 17 -101t50 -65.5t80 -22.5zM313 -165q-23 0 -39 14t-16 38t16 37.5t39 13.5t38.5 -13.5t15.5 -37.5t-15.5 -38t-38.5 -14zM153 595l108 142h103l109 -142h-90l-70 93l-70 -93h-90z" />
    <glyph glyph-name="uni1EAE" unicode="&#x1eae;" horiz-adv-x="716" 
d="M22 0l259 729h154l258 -729h-113l-188 552l-31 93h-6l-30 -93l-189 -552h-114zM184 169l19 87h309l19 -87h-347zM358 778q-67 0 -108 36t-42 95h76q0 -33 19.5 -53t54.5 -20q33 0 53 19t20 54h77q-1 -59 -42 -95t-108 -36zM322 921l58 113h90l-80 -113h-68z" />
    <glyph glyph-name="uni1EAF" unicode="&#x1eaf;" horiz-adv-x="619" 
d="M261 -9q-48 0 -88.5 19t-69.5 54t-44.5 85.5t-15.5 115.5q0 86 27.5 147t76.5 93.5t114 32.5q44 0 80 -14t61.5 -38.5t36.5 -58.5h6l4 102h98v-529h-98l-4 103h-6q-18 -50 -65 -81t-113 -31zM296 76q48 0 81 22t50 58t17 79v60q0 44 -17.5 80t-50 57.5t-78.5 21.5
q-47 0 -80.5 -23t-51 -65t-17.5 -101q0 -58 17 -101t50 -65.5t80 -22.5zM313 578q-67 0 -108 36t-42 95h76q0 -33 19.5 -53t54.5 -20q33 0 53 19t20 54h77q-1 -59 -42 -95t-108 -36zM277 721l58 113h90l-80 -113h-68z" />
    <glyph glyph-name="uni1EB0" unicode="&#x1eb0;" horiz-adv-x="716" 
d="M22 0l259 729h154l258 -729h-113l-188 552l-31 93h-6l-30 -93l-189 -552h-114zM184 169l19 87h309l19 -87h-347zM358 778q-67 0 -108 36t-42 95h76q0 -35 20.5 -54t53.5 -19q35 0 54 20t19 53h77q-1 -59 -42 -95t-108 -36zM325 921l-80 113h91l58 -113h-69z" />
    <glyph glyph-name="uni1EB1" unicode="&#x1eb1;" horiz-adv-x="619" 
d="M261 -9q-48 0 -88.5 19t-69.5 54t-44.5 85.5t-15.5 115.5q0 86 27.5 147t76.5 93.5t114 32.5q44 0 80 -14t61.5 -38.5t36.5 -58.5h6l4 102h98v-529h-98l-4 103h-6q-18 -50 -65 -81t-113 -31zM296 76q48 0 81 22t50 58t17 79v60q0 44 -17.5 80t-50 57.5t-78.5 21.5
q-47 0 -80.5 -23t-51 -65t-17.5 -101q0 -58 17 -101t50 -65.5t80 -22.5zM313 578q-67 0 -108 36t-42 95h76q0 -35 20.5 -54t53.5 -19q35 0 54 20t19 53h77q-1 -59 -42 -95t-108 -36zM280 721l-80 113h91l58 -113h-69z" />
    <glyph glyph-name="uni1EB2" unicode="&#x1eb2;" horiz-adv-x="716" 
d="M22 0l259 729h154l258 -729h-113l-188 552l-31 93h-6l-30 -93l-189 -552h-114zM184 169l19 87h309l19 -87h-347zM359 778q-67 0 -108 36t-42 95h76q0 -35 20.5 -54t53.5 -19q35 0 54 20t19 53h77q-1 -59 -42 -95t-108 -36zM351 895l-25 36q22 11 31 20.5t9 23.5t-9.5 21
t-26.5 7q-9 0 -18 -1t-19 -5v46q14 5 30.5 7t29.5 2q28 0 47.5 -7.5t30 -22.5t10.5 -35q0 -19 -10 -35.5t-29.5 -30t-50.5 -26.5z" />
    <glyph glyph-name="uni1EB3" unicode="&#x1eb3;" horiz-adv-x="619" 
d="M261 -9q-48 0 -88.5 19t-69.5 54t-44.5 85.5t-15.5 115.5q0 86 27.5 147t76.5 93.5t114 32.5q44 0 80 -14t61.5 -38.5t36.5 -58.5h6l4 102h98v-529h-98l-4 103h-6q-18 -50 -65 -81t-113 -31zM296 76q48 0 81 22t50 58t17 79v60q0 44 -17.5 80t-50 57.5t-78.5 21.5
q-47 0 -80.5 -23t-51 -65t-17.5 -101q0 -58 17 -101t50 -65.5t80 -22.5zM314 578q-67 0 -108 36t-42 95h76q0 -35 20.5 -54t53.5 -19q35 0 54 20t19 53h77q-1 -59 -42 -95t-108 -36zM306 695l-25 36q22 11 31 20.5t9 23.5t-9.5 21t-26.5 7q-9 0 -18 -1t-19 -5v46
q14 5 30.5 7t29.5 2q28 0 47.5 -7.5t30 -22.5t10.5 -35q0 -19 -10 -35.5t-29.5 -30t-50.5 -26.5z" />
    <glyph glyph-name="uni1EB4" unicode="&#x1eb4;" horiz-adv-x="716" 
d="M22 0l259 729h154l258 -729h-113l-188 552l-31 93h-6l-30 -93l-189 -552h-114zM184 169l19 87h309l19 -87h-347zM358 781q-67 0 -108.5 36t-41.5 95h76q0 -35 20 -54t54 -19q35 0 54 20t19 53h76q0 -59 -41.5 -95t-107.5 -36zM413 951q-25 0 -44 7t-35.5 14t-36.5 7
q-19 0 -32 -7.5t-24 -21.5l-40 22q20 37 45 51t52 14q23 0 41.5 -7l37 -14t40.5 -7q17 0 31 7.5t25 22.5l41 -22q-19 -36 -44.5 -51t-56.5 -15z" />
    <glyph glyph-name="uni1EB5" unicode="&#x1eb5;" horiz-adv-x="619" 
d="M261 -9q-48 0 -88.5 19t-69.5 54t-44.5 85.5t-15.5 115.5q0 86 27.5 147t76.5 93.5t114 32.5q44 0 80 -14t61.5 -38.5t36.5 -58.5h6l4 102h98v-529h-98l-4 103h-6q-18 -50 -65 -81t-113 -31zM296 76q48 0 81 22t50 58t17 79v60q0 44 -17.5 80t-50 57.5t-78.5 21.5
q-47 0 -80.5 -23t-51 -65t-17.5 -101q0 -58 17 -101t50 -65.5t80 -22.5zM313 581q-67 0 -108.5 36t-41.5 95h76q0 -35 20 -54t54 -19q35 0 54 20t19 53h76q0 -59 -41.5 -95t-107.5 -36zM368 751q-25 0 -44 7t-35.5 14t-36.5 7q-19 0 -32 -7.5t-24 -21.5l-40 22q20 37 45 51
t52 14q23 0 41.5 -7l37 -14t40.5 -7q17 0 31 7.5t25 22.5l41 -22q-19 -36 -44.5 -51t-56.5 -15z" />
    <glyph glyph-name="uni1EB6" unicode="&#x1eb6;" horiz-adv-x="716" 
d="M22 0l259 729h154l258 -729h-113l-188 552l-31 93h-6l-30 -93l-189 -552h-114zM184 169l19 87h309l19 -87h-347zM358 -165q-23 0 -39 14t-16 38t16 37.5t39 13.5t38.5 -13.5t15.5 -37.5t-15.5 -38t-38.5 -14zM358 787q-46 0 -80 17.5t-51.5 50.5t-18.5 79h72
q0 -43 20.5 -64.5t57.5 -21.5t57.5 21.5t20.5 64.5h72q-1 -70 -40.5 -108.5t-109.5 -38.5z" />
    <glyph glyph-name="uni1EB7" unicode="&#x1eb7;" horiz-adv-x="619" 
d="M261 -9q-48 0 -88.5 19t-69.5 54t-44.5 85.5t-15.5 115.5q0 86 27.5 147t76.5 93.5t114 32.5q44 0 80 -14t61.5 -38.5t36.5 -58.5h6l4 102h98v-529h-98l-4 103h-6q-18 -50 -65 -81t-113 -31zM296 76q48 0 81 22t50 58t17 79v60q0 44 -17.5 80t-50 57.5t-78.5 21.5
q-47 0 -80.5 -23t-51 -65t-17.5 -101q0 -58 17 -101t50 -65.5t80 -22.5zM313 -165q-23 0 -39 14t-16 38t16 37.5t39 13.5t38.5 -13.5t15.5 -37.5t-15.5 -38t-38.5 -14zM313 587q-46 0 -80 17.5t-51.5 50.5t-18.5 79h72q0 -43 20.5 -64.5t57.5 -21.5t57.5 21.5t20.5 64.5h72
q-1 -70 -40.5 -108.5t-109.5 -38.5z" />
    <glyph glyph-name="uni1EB8" unicode="&#x1eb8;" horiz-adv-x="627" 
d="M79 0v729h511v-94h-427l25 24v-588l-25 24h428v-95h-512zM163 328v88h378v-88h-378zM316 -165q-23 0 -39 14t-16 38t16 37.5t39 13.5t38.5 -13.5t15.5 -37.5t-15.5 -38t-38.5 -14z" />
    <glyph glyph-name="uni1EB9" unicode="&#x1eb9;" horiz-adv-x="579" 
d="M282 -9q-77 0 -132.5 33.5t-84.5 94.5t-29 143q0 84 29 146t83.5 95.5t130.5 33.5q83 0 137.5 -37.5t78.5 -103.5t18 -152h-376q1 -58 19 -96.5t50.5 -58t75.5 -19.5q52 0 84.5 23t43.5 61h98q-8 -51 -39 -87.5t-79 -56t-108 -19.5zM138 301l-10 13h294l-10 -14
q1 55 -15.5 90t-47 51.5t-70.5 16.5q-42 0 -73 -18t-49 -53t-19 -86zM297 -165q-23 0 -39 14t-16 38t16 37.5t39 13.5t38.5 -13.5t15.5 -37.5t-15.5 -38t-38.5 -14z" />
    <glyph glyph-name="uni1EBA" unicode="&#x1eba;" horiz-adv-x="627" 
d="M79 0v729h511v-94h-427l25 24v-588l-25 24h428v-95h-512zM163 328v88h378v-88h-378zM277 780l-28 51q40 17 56.5 33.5t16.5 36.5q0 19 -13.5 28.5t-36.5 9.5q-12 0 -24 -1.5t-23 -5.5l-1 55q17 5 35 7.5t37 2.5q38 0 64 -11t40 -30.5t14 -45.5q0 -43 -33 -74t-104 -56z
" />
    <glyph glyph-name="uni1EBB" unicode="&#x1ebb;" horiz-adv-x="579" 
d="M282 -9q-77 0 -132.5 33.5t-84.5 94.5t-29 143q0 84 29 146t83.5 95.5t130.5 33.5q83 0 137.5 -37.5t78.5 -103.5t18 -152h-376q1 -58 19 -96.5t50.5 -58t75.5 -19.5q52 0 84.5 23t43.5 61h98q-8 -51 -39 -87.5t-79 -56t-108 -19.5zM138 301l-10 13h294l-10 -14
q1 55 -15.5 90t-47 51.5t-70.5 16.5q-42 0 -73 -18t-49 -53t-19 -86zM253 580l-28 51q40 17 56.5 33.5t16.5 36.5q0 19 -13.5 28.5t-36.5 9.5q-12 0 -24 -1.5t-23 -5.5l-1 55q17 5 35 7.5t37 2.5q38 0 64 -11t40 -30.5t14 -45.5q0 -43 -33 -74t-104 -56z" />
    <glyph glyph-name="uni1EBC" unicode="&#x1ebc;" horiz-adv-x="627" 
d="M79 0v729h511v-94h-427l25 24v-588l-25 24h428v-95h-512zM163 328v88h378v-88h-378zM386 813q-32 0 -55 8t-43 15t-42 7q-21 0 -35.5 -8t-26.5 -24l-47 27q16 29 32.5 45.5t35 23.5t39.5 7q25 0 48.5 -7.5t47 -15.5t46.5 -8q17 0 33.5 8t28.5 25l48 -28
q-14 -28 -31.5 -44.5t-37 -23.5t-41.5 -7z" />
    <glyph glyph-name="uni1EBD" unicode="&#x1ebd;" horiz-adv-x="579" 
d="M282 -9q-77 0 -132.5 33.5t-84.5 94.5t-29 143q0 84 29 146t83.5 95.5t130.5 33.5q83 0 137.5 -37.5t78.5 -103.5t18 -152h-376q1 -58 19 -96.5t50.5 -58t75.5 -19.5q52 0 84.5 23t43.5 61h98q-8 -51 -39 -87.5t-79 -56t-108 -19.5zM138 301l-10 13h294l-10 -14
q1 55 -15.5 90t-47 51.5t-70.5 16.5q-42 0 -73 -18t-49 -53t-19 -86zM362 613q-32 0 -55 8t-43 15t-42 7q-21 0 -35.5 -8t-26.5 -24l-47 27q16 29 32.5 45.5t35 23.5t39.5 7q25 0 48.5 -7.5t47 -15.5t46.5 -8q17 0 33.5 8t28.5 25l48 -28q-14 -28 -31.5 -44.5t-37 -23.5
t-41.5 -7z" />
    <glyph glyph-name="uni1EBE" unicode="&#x1ebe;" horiz-adv-x="627" 
d="M79 0v729h511v-94h-427l25 24v-588l-25 24h428v-95h-512zM163 328v88h378v-88h-378zM156 795l108 142h103l109 -142h-90l-70 93l-70 -93h-90zM434 889l76 137h87l-97 -137h-66z" />
    <glyph glyph-name="uni1EBF" unicode="&#x1ebf;" horiz-adv-x="579" 
d="M282 -9q-77 0 -132.5 33.5t-84.5 94.5t-29 143q0 84 29 146t83.5 95.5t130.5 33.5q83 0 137.5 -37.5t78.5 -103.5t18 -152h-376q1 -58 19 -96.5t50.5 -58t75.5 -19.5q52 0 84.5 23t43.5 61h98q-8 -51 -39 -87.5t-79 -56t-108 -19.5zM138 301l-10 13h294l-10 -14
q1 55 -15.5 90t-47 51.5t-70.5 16.5q-42 0 -73 -18t-49 -53t-19 -86zM132 595l108 142h103l109 -142h-90l-70 93l-70 -93h-90zM410 689l76 137h87l-97 -137h-66z" />
    <glyph glyph-name="uni1EC0" unicode="&#x1ec0;" horiz-adv-x="627" 
d="M79 0v729h511v-94h-427l25 24v-588l-25 24h428v-95h-512zM163 328v88h378v-88h-378zM156 795l108 142h103l109 -142h-90l-70 93l-70 -93h-90zM471 889l-93 137h87l73 -137h-67z" />
    <glyph glyph-name="uni1EC1" unicode="&#x1ec1;" horiz-adv-x="579" 
d="M282 -9q-77 0 -132.5 33.5t-84.5 94.5t-29 143q0 84 29 146t83.5 95.5t130.5 33.5q83 0 137.5 -37.5t78.5 -103.5t18 -152h-376q1 -58 19 -96.5t50.5 -58t75.5 -19.5q52 0 84.5 23t43.5 61h98q-8 -51 -39 -87.5t-79 -56t-108 -19.5zM138 301l-10 13h294l-10 -14
q1 55 -15.5 90t-47 51.5t-70.5 16.5q-42 0 -73 -18t-49 -53t-19 -86zM132 595l108 142h103l109 -142h-90l-70 93l-70 -93h-90zM447 689l-93 137h87l73 -137h-67z" />
    <glyph glyph-name="uni1EC2" unicode="&#x1ec2;" horiz-adv-x="627" 
d="M79 0v729h511v-94h-427l25 24v-588l-25 24h428v-95h-512zM163 328v88h378v-88h-378zM156 795l108 142h103l109 -142h-90l-70 93l-70 -93h-90zM481 843l-32 41q20 14 31 29.5t11 33.5q0 17 -10 27.5t-33 10.5q-8 0 -16.5 -1t-16.5 -5v47q14 5 29.5 7t28.5 2
q43 0 67.5 -21.5t24.5 -56.5q0 -32 -19.5 -61t-64.5 -53z" />
    <glyph glyph-name="uni1EC3" unicode="&#x1ec3;" horiz-adv-x="579" 
d="M282 -9q-77 0 -132.5 33.5t-84.5 94.5t-29 143q0 84 29 146t83.5 95.5t130.5 33.5q83 0 137.5 -37.5t78.5 -103.5t18 -152h-376q1 -58 19 -96.5t50.5 -58t75.5 -19.5q52 0 84.5 23t43.5 61h98q-8 -51 -39 -87.5t-79 -56t-108 -19.5zM138 301l-10 13h294l-10 -14
q1 55 -15.5 90t-47 51.5t-70.5 16.5q-42 0 -73 -18t-49 -53t-19 -86zM132 595l108 142h103l109 -142h-90l-70 93l-70 -93h-90zM457 643l-32 41q20 14 31 29.5t11 33.5q0 17 -10 27.5t-33 10.5q-8 0 -16.5 -1t-16.5 -5v47q14 5 29.5 7t28.5 2q43 0 67.5 -21.5t24.5 -56.5
q0 -32 -19.5 -61t-64.5 -53z" />
    <glyph glyph-name="uni1EC4" unicode="&#x1ec4;" horiz-adv-x="627" 
d="M79 0v729h511v-94h-427l25 24v-588l-25 24h428v-95h-512zM163 328v88h378v-88h-378zM156 795l106 129h108l106 -129h-90l-70 90l-70 -90h-90zM199 953l-36 22q19 33 40 48.5t53 15.5q23 0 45.5 -7t44.5 -14t42 -7q16 0 30 7t24 23l36 -23q-18 -33 -40 -48.5t-55 -15.5
q-28 0 -50 7t-42 13.5t-41 6.5q-16 0 -28 -6t-23 -22z" />
    <glyph glyph-name="uni1EC5" unicode="&#x1ec5;" horiz-adv-x="579" 
d="M282 -9q-77 0 -132.5 33.5t-84.5 94.5t-29 143q0 84 29 146t83.5 95.5t130.5 33.5q83 0 137.5 -37.5t78.5 -103.5t18 -152h-376q1 -58 19 -96.5t50.5 -58t75.5 -19.5q52 0 84.5 23t43.5 61h98q-8 -51 -39 -87.5t-79 -56t-108 -19.5zM138 301l-10 13h294l-10 -14
q1 55 -15.5 90t-47 51.5t-70.5 16.5q-42 0 -73 -18t-49 -53t-19 -86zM132 595l106 129h108l106 -129h-90l-70 90l-70 -90h-90zM175 753l-36 22q19 33 40 48.5t53 15.5q23 0 45.5 -7t44.5 -14t42 -7q16 0 30 7t24 23l36 -23q-18 -33 -40 -48.5t-55 -15.5q-28 0 -50 7
t-42 13.5t-41 6.5q-16 0 -28 -6t-23 -22z" />
    <glyph glyph-name="uni1EC6" unicode="&#x1ec6;" horiz-adv-x="627" 
d="M79 0v729h511v-94h-427l25 24v-588l-25 24h428v-95h-512zM163 328v88h378v-88h-378zM316 -165q-23 0 -39 14t-16 38t16 37.5t39 13.5t38.5 -13.5t15.5 -37.5t-15.5 -38t-38.5 -14zM156 795l108 142h103l109 -142h-90l-70 93l-70 -93h-90z" />
    <glyph glyph-name="uni1EC7" unicode="&#x1ec7;" horiz-adv-x="579" 
d="M282 -9q-77 0 -132.5 33.5t-84.5 94.5t-29 143q0 84 29 146t83.5 95.5t130.5 33.5q83 0 137.5 -37.5t78.5 -103.5t18 -152h-376q1 -58 19 -96.5t50.5 -58t75.5 -19.5q52 0 84.5 23t43.5 61h98q-8 -51 -39 -87.5t-79 -56t-108 -19.5zM138 301l-10 13h294l-10 -14
q1 55 -15.5 90t-47 51.5t-70.5 16.5q-42 0 -73 -18t-49 -53t-19 -86zM297 -165q-23 0 -39 14t-16 38t16 37.5t39 13.5t38.5 -13.5t15.5 -37.5t-15.5 -38t-38.5 -14zM132 595l108 142h103l109 -142h-90l-70 93l-70 -93h-90z" />
    <glyph glyph-name="uni1EC8" unicode="&#x1ec8;" horiz-adv-x="267" 
d="M79 0v729h109v-729h-109zM95 780l-28 51q40 17 56.5 33.5t16.5 36.5q0 19 -13.5 28.5t-36.5 9.5q-12 0 -24 -1.5t-23 -5.5l-1 55q17 5 35 7.5t37 2.5q38 0 64 -11t40 -30.5t14 -45.5q0 -43 -33 -74t-104 -56z" />
    <glyph glyph-name="uni1EC9" unicode="&#x1ec9;" horiz-adv-x="246" 
d="M72 0v529h103v-529h-103zM85 580l-28 51q40 17 56.5 33.5t16.5 36.5q0 19 -13.5 28.5t-36.5 9.5q-12 0 -24 -1.5t-23 -5.5l-1 55q17 5 35 7.5t37 2.5q38 0 64 -11t40 -30.5t14 -45.5q0 -43 -33 -74t-104 -56z" />
    <glyph glyph-name="uni1ECA" unicode="&#x1eca;" horiz-adv-x="267" 
d="M79 0v729h109v-729h-109zM134 -165q-23 0 -39 14t-16 38t16 37.5t39 13.5t38.5 -13.5t15.5 -37.5t-15.5 -38t-38.5 -14z" />
    <glyph glyph-name="uni1ECB" unicode="&#x1ecb;" horiz-adv-x="246" 
d="M72 0v529h103v-529h-103zM124 610q-26 0 -43 14t-17 39t17 39t43 14t43 -14t17 -39t-17 -39t-43 -14zM124 -165q-23 0 -39 14t-16 38t16 37.5t39 13.5t38.5 -13.5t15.5 -37.5t-15.5 -38t-38.5 -14z" />
    <glyph glyph-name="uni1ECC" unicode="&#x1ecc;" horiz-adv-x="806" 
d="M403 -9q-81 0 -147 25.5t-114 74.5t-73.5 118t-25.5 155q0 87 26 156t73.5 117.5t113.5 74t147 25.5q82 0 147.5 -25.5t113.5 -74t73.5 -117.5t25.5 -156t-26 -156t-73.5 -117.5t-113.5 -74t-147 -25.5zM403 85q76 0 131.5 33.5t86 95.5t30.5 150q0 67 -17.5 118.5
t-50 87.5t-78 54.5t-102.5 18.5q-76 0 -131.5 -33t-85.5 -95t-30 -151q0 -66 17.5 -118t49.5 -87.5t77.5 -54.5t102.5 -19zM404 -165q-23 0 -39 14t-16 38t16 37.5t39 13.5t38.5 -13.5t15.5 -37.5t-15.5 -38t-38.5 -14z" />
    <glyph glyph-name="uni1ECD" unicode="&#x1ecd;" horiz-adv-x="597" 
d="M299 -9q-58 0 -105.5 19t-81.5 55t-53 86t-19 112q0 82 31.5 143.5t90 96t137.5 34.5q58 0 105.5 -18.5t81.5 -54.5t52.5 -86.5t18.5 -113.5q0 -81 -31 -142.5t-89 -96t-138 -34.5zM299 77q46 0 80.5 21.5t53.5 63.5t19 102q0 45 -10.5 79.5t-30.5 59t-48 37t-64 12.5
q-46 0 -80.5 -22t-54 -63.5t-19.5 -103.5q0 -44 10.5 -78.5t31 -58.5t49 -36.5t63.5 -12.5zM299 -165q-23 0 -39 14t-16 38t16 37.5t39 13.5t38.5 -13.5t15.5 -37.5t-15.5 -38t-38.5 -14z" />
    <glyph glyph-name="uni1ECE" unicode="&#x1ece;" horiz-adv-x="806" 
d="M403 -9q-81 0 -147 25.5t-114 74.5t-73.5 118t-25.5 155q0 87 26 156t73.5 117.5t113.5 74t147 25.5q82 0 147.5 -25.5t113.5 -74t73.5 -117.5t25.5 -156t-26 -156t-73.5 -117.5t-113.5 -74t-147 -25.5zM403 85q76 0 131.5 33.5t86 95.5t30.5 150q0 67 -17.5 118.5
t-50 87.5t-78 54.5t-102.5 18.5q-76 0 -131.5 -33t-85.5 -95t-30 -151q0 -66 17.5 -118t49.5 -87.5t77.5 -54.5t102.5 -19zM365 780l-28 51q40 17 56.5 33.5t16.5 36.5q0 19 -13.5 28.5t-36.5 9.5q-12 0 -24 -1.5t-23 -5.5l-1 55q17 5 35 7.5t37 2.5q38 0 64 -11t40 -30.5
t14 -45.5q0 -43 -33 -74t-104 -56z" />
    <glyph glyph-name="uni1ECF" unicode="&#x1ecf;" horiz-adv-x="597" 
d="M299 -9q-58 0 -105.5 19t-81.5 55t-53 86t-19 112q0 82 31.5 143.5t90 96t137.5 34.5q58 0 105.5 -18.5t81.5 -54.5t52.5 -86.5t18.5 -113.5q0 -81 -31 -142.5t-89 -96t-138 -34.5zM299 77q46 0 80.5 21.5t53.5 63.5t19 102q0 45 -10.5 79.5t-30.5 59t-48 37t-64 12.5
q-46 0 -80.5 -22t-54 -63.5t-19.5 -103.5q0 -44 10.5 -78.5t31 -58.5t49 -36.5t63.5 -12.5zM260 580l-28 51q40 17 56.5 33.5t16.5 36.5q0 19 -13.5 28.5t-36.5 9.5q-12 0 -24 -1.5t-23 -5.5l-1 55q17 5 35 7.5t37 2.5q38 0 64 -11t40 -30.5t14 -45.5q0 -43 -33 -74
t-104 -56z" />
    <glyph glyph-name="uni1ED0" unicode="&#x1ed0;" horiz-adv-x="806" 
d="M403 -9q-81 0 -147 25.5t-114 74.5t-73.5 118t-25.5 155q0 87 26 156t73.5 117.5t113.5 74t147 25.5q82 0 147.5 -25.5t113.5 -74t73.5 -117.5t25.5 -156t-26 -156t-73.5 -117.5t-113.5 -74t-147 -25.5zM403 85q76 0 131.5 33.5t86 95.5t30.5 150q0 67 -17.5 118.5
t-50 87.5t-78 54.5t-102.5 18.5q-76 0 -131.5 -33t-85.5 -95t-30 -151q0 -66 17.5 -118t49.5 -87.5t77.5 -54.5t102.5 -19zM244 795l108 142h103l109 -142h-90l-70 93l-70 -93h-90zM522 889l76 137h87l-97 -137h-66z" />
    <glyph glyph-name="uni1ED1" unicode="&#x1ed1;" horiz-adv-x="597" 
d="M299 -9q-58 0 -105.5 19t-81.5 55t-53 86t-19 112q0 82 31.5 143.5t90 96t137.5 34.5q58 0 105.5 -18.5t81.5 -54.5t52.5 -86.5t18.5 -113.5q0 -81 -31 -142.5t-89 -96t-138 -34.5zM299 77q46 0 80.5 21.5t53.5 63.5t19 102q0 45 -10.5 79.5t-30.5 59t-48 37t-64 12.5
q-46 0 -80.5 -22t-54 -63.5t-19.5 -103.5q0 -44 10.5 -78.5t31 -58.5t49 -36.5t63.5 -12.5zM139 595l108 142h103l109 -142h-90l-70 93l-70 -93h-90zM417 689l76 137h87l-97 -137h-66z" />
    <glyph glyph-name="uni1ED2" unicode="&#x1ed2;" horiz-adv-x="806" 
d="M403 -9q-81 0 -147 25.5t-114 74.5t-73.5 118t-25.5 155q0 87 26 156t73.5 117.5t113.5 74t147 25.5q82 0 147.5 -25.5t113.5 -74t73.5 -117.5t25.5 -156t-26 -156t-73.5 -117.5t-113.5 -74t-147 -25.5zM403 85q76 0 131.5 33.5t86 95.5t30.5 150q0 67 -17.5 118.5
t-50 87.5t-78 54.5t-102.5 18.5q-76 0 -131.5 -33t-85.5 -95t-30 -151q0 -66 17.5 -118t49.5 -87.5t77.5 -54.5t102.5 -19zM244 795l108 142h103l109 -142h-90l-70 93l-70 -93h-90zM559 889l-93 137h87l73 -137h-67z" />
    <glyph glyph-name="uni1ED3" unicode="&#x1ed3;" horiz-adv-x="597" 
d="M299 -9q-58 0 -105.5 19t-81.5 55t-53 86t-19 112q0 82 31.5 143.5t90 96t137.5 34.5q58 0 105.5 -18.5t81.5 -54.5t52.5 -86.5t18.5 -113.5q0 -81 -31 -142.5t-89 -96t-138 -34.5zM299 77q46 0 80.5 21.5t53.5 63.5t19 102q0 45 -10.5 79.5t-30.5 59t-48 37t-64 12.5
q-46 0 -80.5 -22t-54 -63.5t-19.5 -103.5q0 -44 10.5 -78.5t31 -58.5t49 -36.5t63.5 -12.5zM139 595l108 142h103l109 -142h-90l-70 93l-70 -93h-90zM454 689l-93 137h87l73 -137h-67z" />
    <glyph glyph-name="uni1ED4" unicode="&#x1ed4;" horiz-adv-x="806" 
d="M403 -9q-81 0 -147 25.5t-114 74.5t-73.5 118t-25.5 155q0 87 26 156t73.5 117.5t113.5 74t147 25.5q82 0 147.5 -25.5t113.5 -74t73.5 -117.5t25.5 -156t-26 -156t-73.5 -117.5t-113.5 -74t-147 -25.5zM403 85q76 0 131.5 33.5t86 95.5t30.5 150q0 67 -17.5 118.5
t-50 87.5t-78 54.5t-102.5 18.5q-76 0 -131.5 -33t-85.5 -95t-30 -151q0 -66 17.5 -118t49.5 -87.5t77.5 -54.5t102.5 -19zM244 795l108 142h103l109 -142h-90l-70 93l-70 -93h-90zM569 843l-32 41q20 14 31 29.5t11 33.5q0 17 -10 27.5t-33 10.5q-8 0 -16.5 -1t-16.5 -5v47
q14 5 29.5 7t28.5 2q43 0 67.5 -21.5t24.5 -56.5q0 -32 -19.5 -61t-64.5 -53z" />
    <glyph glyph-name="uni1ED5" unicode="&#x1ed5;" horiz-adv-x="597" 
d="M299 -9q-58 0 -105.5 19t-81.5 55t-53 86t-19 112q0 82 31.5 143.5t90 96t137.5 34.5q58 0 105.5 -18.5t81.5 -54.5t52.5 -86.5t18.5 -113.5q0 -81 -31 -142.5t-89 -96t-138 -34.5zM299 77q46 0 80.5 21.5t53.5 63.5t19 102q0 45 -10.5 79.5t-30.5 59t-48 37t-64 12.5
q-46 0 -80.5 -22t-54 -63.5t-19.5 -103.5q0 -44 10.5 -78.5t31 -58.5t49 -36.5t63.5 -12.5zM139 595l108 142h103l109 -142h-90l-70 93l-70 -93h-90zM464 643l-32 41q20 14 31 29.5t11 33.5q0 17 -10 27.5t-33 10.5q-8 0 -16.5 -1t-16.5 -5v47q14 5 29.5 7t28.5 2
q43 0 67.5 -21.5t24.5 -56.5q0 -32 -19.5 -61t-64.5 -53z" />
    <glyph glyph-name="uni1ED6" unicode="&#x1ed6;" horiz-adv-x="806" 
d="M403 -9q-81 0 -147 25.5t-114 74.5t-73.5 118t-25.5 155q0 87 26 156t73.5 117.5t113.5 74t147 25.5q82 0 147.5 -25.5t113.5 -74t73.5 -117.5t25.5 -156t-26 -156t-73.5 -117.5t-113.5 -74t-147 -25.5zM403 85q76 0 131.5 33.5t86 95.5t30.5 150q0 67 -17.5 118.5
t-50 87.5t-78 54.5t-102.5 18.5q-76 0 -131.5 -33t-85.5 -95t-30 -151q0 -66 17.5 -118t49.5 -87.5t77.5 -54.5t102.5 -19zM244 795l106 129h108l106 -129h-90l-70 90l-70 -90h-90zM287 953l-36 22q19 33 40 48.5t53 15.5q23 0 45.5 -7t44.5 -14t42 -7q16 0 30 7t24 23
l36 -23q-18 -33 -40 -48.5t-55 -15.5q-28 0 -50 7t-42 13.5t-41 6.5q-16 0 -28 -6t-23 -22z" />
    <glyph glyph-name="uni1ED7" unicode="&#x1ed7;" horiz-adv-x="597" 
d="M299 -9q-58 0 -105.5 19t-81.5 55t-53 86t-19 112q0 82 31.5 143.5t90 96t137.5 34.5q58 0 105.5 -18.5t81.5 -54.5t52.5 -86.5t18.5 -113.5q0 -81 -31 -142.5t-89 -96t-138 -34.5zM299 77q46 0 80.5 21.5t53.5 63.5t19 102q0 45 -10.5 79.5t-30.5 59t-48 37t-64 12.5
q-46 0 -80.5 -22t-54 -63.5t-19.5 -103.5q0 -44 10.5 -78.5t31 -58.5t49 -36.5t63.5 -12.5zM139 595l106 129h108l106 -129h-90l-70 90l-70 -90h-90zM182 753l-36 22q19 33 40 48.5t53 15.5q23 0 45.5 -7t44.5 -14t42 -7q16 0 30 7t24 23l36 -23q-18 -33 -40 -48.5
t-55 -15.5q-28 0 -50 7t-42 13.5t-41 6.5q-16 0 -28 -6t-23 -22z" />
    <glyph glyph-name="uni1ED8" unicode="&#x1ed8;" horiz-adv-x="806" 
d="M403 -9q-81 0 -147 25.5t-114 74.5t-73.5 118t-25.5 155q0 87 26 156t73.5 117.5t113.5 74t147 25.5q82 0 147.5 -25.5t113.5 -74t73.5 -117.5t25.5 -156t-26 -156t-73.5 -117.5t-113.5 -74t-147 -25.5zM403 85q76 0 131.5 33.5t86 95.5t30.5 150q0 67 -17.5 118.5
t-50 87.5t-78 54.5t-102.5 18.5q-76 0 -131.5 -33t-85.5 -95t-30 -151q0 -66 17.5 -118t49.5 -87.5t77.5 -54.5t102.5 -19zM404 -165q-23 0 -39 14t-16 38t16 37.5t39 13.5t38.5 -13.5t15.5 -37.5t-15.5 -38t-38.5 -14zM244 795l108 142h103l109 -142h-90l-70 93l-70 -93
h-90z" />
    <glyph glyph-name="uni1ED9" unicode="&#x1ed9;" horiz-adv-x="597" 
d="M299 -9q-58 0 -105.5 19t-81.5 55t-53 86t-19 112q0 82 31.5 143.5t90 96t137.5 34.5q58 0 105.5 -18.5t81.5 -54.5t52.5 -86.5t18.5 -113.5q0 -81 -31 -142.5t-89 -96t-138 -34.5zM299 77q46 0 80.5 21.5t53.5 63.5t19 102q0 45 -10.5 79.5t-30.5 59t-48 37t-64 12.5
q-46 0 -80.5 -22t-54 -63.5t-19.5 -103.5q0 -44 10.5 -78.5t31 -58.5t49 -36.5t63.5 -12.5zM299 -165q-23 0 -39 14t-16 38t16 37.5t39 13.5t38.5 -13.5t15.5 -37.5t-15.5 -38t-38.5 -14zM139 595l108 142h103l109 -142h-90l-70 93l-70 -93h-90z" />
    <glyph glyph-name="uni1EDA" unicode="&#x1eda;" horiz-adv-x="806" 
d="M403 -9q-81 0 -147 25.5t-114 74.5t-73.5 118t-25.5 155q0 87 26 156t73.5 117.5t113.5 74t147 25.5q82 0 147.5 -25.5t113.5 -74t73.5 -117.5t25.5 -156t-26 -156t-73.5 -117.5t-113.5 -74t-147 -25.5zM403 85q76 0 131.5 33.5t86 95.5t30.5 150q0 67 -17.5 118.5
t-50 87.5t-78 54.5t-102.5 18.5q-76 0 -131.5 -33t-85.5 -95t-30 -151q0 -66 17.5 -118t49.5 -87.5t77.5 -54.5t102.5 -19zM566 643v61q38 -2 61 9t32 36t4 65h82q8 -59 -10 -98t-60.5 -57.5t-108.5 -15.5zM364 795l62 142h104l-87 -142h-79z" />
    <glyph glyph-name="uni1EDB" unicode="&#x1edb;" horiz-adv-x="599" 
d="M299 -9q-58 0 -105.5 19t-81.5 55t-53 86t-19 112q0 82 31.5 143.5t90 96t137.5 34.5q58 0 105.5 -18.5t81.5 -54.5t52.5 -86.5t18.5 -113.5q0 -81 -31 -142.5t-89 -96t-138 -34.5zM299 77q46 0 80.5 21.5t53.5 63.5t19 102q0 45 -10.5 79.5t-30.5 59t-48 37t-64 12.5
q-46 0 -80.5 -22t-54 -63.5t-19.5 -103.5q0 -44 10.5 -78.5t31 -58.5t49 -36.5t63.5 -12.5zM381 454v61q38 -2 61 9t32 36t4 65h82q8 -59 -10 -98t-60.5 -57.5t-108.5 -15.5zM259 595l62 142h104l-87 -142h-79z" />
    <glyph glyph-name="uni1EDC" unicode="&#x1edc;" horiz-adv-x="806" 
d="M403 -9q-81 0 -147 25.5t-114 74.5t-73.5 118t-25.5 155q0 87 26 156t73.5 117.5t113.5 74t147 25.5q82 0 147.5 -25.5t113.5 -74t73.5 -117.5t25.5 -156t-26 -156t-73.5 -117.5t-113.5 -74t-147 -25.5zM403 85q76 0 131.5 33.5t86 95.5t30.5 150q0 67 -17.5 118.5
t-50 87.5t-78 54.5t-102.5 18.5q-76 0 -131.5 -33t-85.5 -95t-30 -151q0 -66 17.5 -118t49.5 -87.5t77.5 -54.5t102.5 -19zM566 643v61q38 -2 61 9t32 36t4 65h82q8 -59 -10 -98t-60.5 -57.5t-108.5 -15.5zM363 795l-86 142h104l62 -142h-80z" />
    <glyph glyph-name="uni1EDD" unicode="&#x1edd;" horiz-adv-x="599" 
d="M299 -9q-58 0 -105.5 19t-81.5 55t-53 86t-19 112q0 82 31.5 143.5t90 96t137.5 34.5q58 0 105.5 -18.5t81.5 -54.5t52.5 -86.5t18.5 -113.5q0 -81 -31 -142.5t-89 -96t-138 -34.5zM299 77q46 0 80.5 21.5t53.5 63.5t19 102q0 45 -10.5 79.5t-30.5 59t-48 37t-64 12.5
q-46 0 -80.5 -22t-54 -63.5t-19.5 -103.5q0 -44 10.5 -78.5t31 -58.5t49 -36.5t63.5 -12.5zM381 454v61q38 -2 61 9t32 36t4 65h82q8 -59 -10 -98t-60.5 -57.5t-108.5 -15.5zM259 595l-86 142h104l62 -142h-80z" />
    <glyph glyph-name="uni1EDE" unicode="&#x1ede;" horiz-adv-x="806" 
d="M403 -9q-81 0 -147 25.5t-114 74.5t-73.5 118t-25.5 155q0 87 26 156t73.5 117.5t113.5 74t147 25.5q82 0 147.5 -25.5t113.5 -74t73.5 -117.5t25.5 -156t-26 -156t-73.5 -117.5t-113.5 -74t-147 -25.5zM403 85q76 0 131.5 33.5t86 95.5t30.5 150q0 67 -17.5 118.5
t-50 87.5t-78 54.5t-102.5 18.5q-76 0 -131.5 -33t-85.5 -95t-30 -151q0 -66 17.5 -118t49.5 -87.5t77.5 -54.5t102.5 -19zM566 643v61q38 -2 61 9t32 36t4 65h82q8 -59 -10 -98t-60.5 -57.5t-108.5 -15.5zM365 780l-28 51q40 17 56.5 33.5t16.5 36.5q0 19 -13.5 28.5
t-36.5 9.5q-12 0 -24 -1.5t-23 -5.5l-1 55q17 5 35 7.5t37 2.5q38 0 64 -11t40 -30.5t14 -45.5q0 -43 -33 -74t-104 -56z" />
    <glyph glyph-name="uni1EDF" unicode="&#x1edf;" horiz-adv-x="599" 
d="M299 -9q-58 0 -105.5 19t-81.5 55t-53 86t-19 112q0 82 31.5 143.5t90 96t137.5 34.5q58 0 105.5 -18.5t81.5 -54.5t52.5 -86.5t18.5 -113.5q0 -81 -31 -142.5t-89 -96t-138 -34.5zM299 77q46 0 80.5 21.5t53.5 63.5t19 102q0 45 -10.5 79.5t-30.5 59t-48 37t-64 12.5
q-46 0 -80.5 -22t-54 -63.5t-19.5 -103.5q0 -44 10.5 -78.5t31 -58.5t49 -36.5t63.5 -12.5zM381 454v61q38 -2 61 9t32 36t4 65h82q8 -59 -10 -98t-60.5 -57.5t-108.5 -15.5zM260 580l-28 51q40 17 56.5 33.5t16.5 36.5q0 19 -13.5 28.5t-36.5 9.5q-12 0 -24 -1.5t-23 -5.5
l-1 55q17 5 35 7.5t37 2.5q38 0 64 -11t40 -30.5t14 -45.5q0 -43 -33 -74t-104 -56z" />
    <glyph glyph-name="uni1EE0" unicode="&#x1ee0;" horiz-adv-x="806" 
d="M403 -9q-81 0 -147 25.5t-114 74.5t-73.5 118t-25.5 155q0 87 26 156t73.5 117.5t113.5 74t147 25.5q82 0 147.5 -25.5t113.5 -74t73.5 -117.5t25.5 -156t-26 -156t-73.5 -117.5t-113.5 -74t-147 -25.5zM403 85q76 0 131.5 33.5t86 95.5t30.5 150q0 67 -17.5 118.5
t-50 87.5t-78 54.5t-102.5 18.5q-76 0 -131.5 -33t-85.5 -95t-30 -151q0 -66 17.5 -118t49.5 -87.5t77.5 -54.5t102.5 -19zM566 643v61q38 -2 61 9t32 36t4 65h82q8 -59 -10 -98t-60.5 -57.5t-108.5 -15.5zM474 813q-32 0 -55 8t-43 15t-42 7q-21 0 -35.5 -8t-26.5 -24
l-47 27q16 29 32.5 45.5t35 23.5t39.5 7q25 0 48.5 -7.5t47 -15.5t46.5 -8q17 0 33.5 8t28.5 25l48 -28q-14 -28 -31.5 -44.5t-37 -23.5t-41.5 -7z" />
    <glyph glyph-name="uni1EE1" unicode="&#x1ee1;" horiz-adv-x="599" 
d="M299 -9q-58 0 -105.5 19t-81.5 55t-53 86t-19 112q0 82 31.5 143.5t90 96t137.5 34.5q58 0 105.5 -18.5t81.5 -54.5t52.5 -86.5t18.5 -113.5q0 -81 -31 -142.5t-89 -96t-138 -34.5zM299 77q46 0 80.5 21.5t53.5 63.5t19 102q0 45 -10.5 79.5t-30.5 59t-48 37t-64 12.5
q-46 0 -80.5 -22t-54 -63.5t-19.5 -103.5q0 -44 10.5 -78.5t31 -58.5t49 -36.5t63.5 -12.5zM381 454v61q38 -2 61 9t32 36t4 65h82q8 -59 -10 -98t-60.5 -57.5t-108.5 -15.5zM369 613q-32 0 -55 8t-43 15t-42 7q-21 0 -35.5 -8t-26.5 -24l-47 27q16 29 32.5 45.5t35 23.5
t39.5 7q25 0 48.5 -7.5t47 -15.5t46.5 -8q17 0 33.5 8t28.5 25l48 -28q-14 -28 -31.5 -44.5t-37 -23.5t-41.5 -7z" />
    <glyph glyph-name="uni1EE2" unicode="&#x1ee2;" horiz-adv-x="806" 
d="M403 -9q-81 0 -147 25.5t-114 74.5t-73.5 118t-25.5 155q0 87 26 156t73.5 117.5t113.5 74t147 25.5q82 0 147.5 -25.5t113.5 -74t73.5 -117.5t25.5 -156t-26 -156t-73.5 -117.5t-113.5 -74t-147 -25.5zM403 85q76 0 131.5 33.5t86 95.5t30.5 150q0 67 -17.5 118.5
t-50 87.5t-78 54.5t-102.5 18.5q-76 0 -131.5 -33t-85.5 -95t-30 -151q0 -66 17.5 -118t49.5 -87.5t77.5 -54.5t102.5 -19zM566 643v61q38 -2 61 9t32 36t4 65h82q8 -59 -10 -98t-60.5 -57.5t-108.5 -15.5zM404 -165q-23 0 -39 14t-16 38t16 37.5t39 13.5t38.5 -13.5
t15.5 -37.5t-15.5 -38t-38.5 -14z" />
    <glyph glyph-name="uni1EE3" unicode="&#x1ee3;" horiz-adv-x="599" 
d="M299 -9q-58 0 -105.5 19t-81.5 55t-53 86t-19 112q0 82 31.5 143.5t90 96t137.5 34.5q58 0 105.5 -18.5t81.5 -54.5t52.5 -86.5t18.5 -113.5q0 -81 -31 -142.5t-89 -96t-138 -34.5zM299 77q46 0 80.5 21.5t53.5 63.5t19 102q0 45 -10.5 79.5t-30.5 59t-48 37t-64 12.5
q-46 0 -80.5 -22t-54 -63.5t-19.5 -103.5q0 -44 10.5 -78.5t31 -58.5t49 -36.5t63.5 -12.5zM381 454v61q38 -2 61 9t32 36t4 65h82q8 -59 -10 -98t-60.5 -57.5t-108.5 -15.5zM299 -165q-23 0 -39 14t-16 38t16 37.5t39 13.5t38.5 -13.5t15.5 -37.5t-15.5 -38t-38.5 -14z" />
    <glyph glyph-name="uni1EE4" unicode="&#x1ee4;" horiz-adv-x="731" 
d="M365 -9q-93 0 -160 34t-102.5 96.5t-35.5 148.5v459h108v-457q0 -61 23 -102t66 -61t102 -20q64 0 106 22t63 63.5t21 97.5v457h108v-459q0 -86 -36 -148.5t-102.5 -96.5t-160.5 -34zM366 -165q-23 0 -39 14t-16 38t16 37.5t39 13.5t38.5 -13.5t15.5 -37.5t-15.5 -38
t-38.5 -14z" />
    <glyph glyph-name="uni1EE5" unicode="&#x1ee5;" horiz-adv-x="611" 
d="M253 -9q-60 0 -103 23.5t-65 71t-22 117.5v326h103v-300q0 -49 12.5 -83t40.5 -51.5t72 -17.5t76.5 21t50.5 59t18 86v286h103v-529h-98l-5 107h-6q-20 -54 -68 -85t-109 -31zM301 -165q-23 0 -39 14t-16 38t16 37.5t39 13.5t38.5 -13.5t15.5 -37.5t-15.5 -38t-38.5 -14z
" />
    <glyph glyph-name="uni1EE6" unicode="&#x1ee6;" horiz-adv-x="731" 
d="M365 -9q-93 0 -160 34t-102.5 96.5t-35.5 148.5v459h108v-457q0 -61 23 -102t66 -61t102 -20q64 0 106 22t63 63.5t21 97.5v457h108v-459q0 -86 -36 -148.5t-102.5 -96.5t-160.5 -34zM327 780l-28 51q40 17 56.5 33.5t16.5 36.5q0 19 -13.5 28.5t-36.5 9.5
q-12 0 -24 -1.5t-23 -5.5l-1 55q17 5 35 7.5t37 2.5q38 0 64 -11t40 -30.5t14 -45.5q0 -43 -33 -74t-104 -56z" />
    <glyph glyph-name="uni1EE7" unicode="&#x1ee7;" horiz-adv-x="611" 
d="M253 -9q-60 0 -103 23.5t-65 71t-22 117.5v326h103v-300q0 -49 12.5 -83t40.5 -51.5t72 -17.5t76.5 21t50.5 59t18 86v286h103v-529h-98l-5 107h-6q-20 -54 -68 -85t-109 -31zM262 580l-28 51q40 17 56.5 33.5t16.5 36.5q0 19 -13.5 28.5t-36.5 9.5q-12 0 -24 -1.5
t-23 -5.5l-1 55q17 5 35 7.5t37 2.5q38 0 64 -11t40 -30.5t14 -45.5q0 -43 -33 -74t-104 -56z" />
    <glyph glyph-name="uni1EE8" unicode="&#x1ee8;" horiz-adv-x="731" 
d="M365 -9q-93 0 -160 34t-102.5 96.5t-35.5 148.5v459h108v-457q0 -61 23 -102t66 -61t102 -20q64 0 106 22t63 63.5t21 97.5v457h108v-459q0 -86 -36 -148.5t-102.5 -96.5t-160.5 -34zM571 668v61q38 -2 61 9t32 36t4 65h82q8 -59 -10 -98t-60.5 -57.5t-108.5 -15.5z
M326 795l62 142h104l-87 -142h-79z" />
    <glyph glyph-name="uni1EE9" unicode="&#x1ee9;" horiz-adv-x="640" 
d="M253 -9q-60 0 -103 23.5t-65 71t-22 117.5v326h103v-300q0 -49 12.5 -83t40.5 -51.5t72 -17.5t76.5 21t50.5 59t18 86v286h103v-529h-98l-5 107h-6q-20 -54 -68 -85t-109 -31zM448 468v61q38 -2 61 9t32 36t4 65h82q8 -59 -10 -98t-60.5 -57.5t-108.5 -15.5zM262 595
l62 142h104l-87 -142h-79z" />
    <glyph glyph-name="uni1EEA" unicode="&#x1eea;" horiz-adv-x="731" 
d="M365 -9q-93 0 -160 34t-102.5 96.5t-35.5 148.5v459h108v-457q0 -61 23 -102t66 -61t102 -20q64 0 106 22t63 63.5t21 97.5v457h108v-459q0 -86 -36 -148.5t-102.5 -96.5t-160.5 -34zM571 668v61q38 -2 61 9t32 36t4 65h82q8 -59 -10 -98t-60.5 -57.5t-108.5 -15.5z
M326 795l-86 142h104l62 -142h-80z" />
    <glyph glyph-name="uni1EEB" unicode="&#x1eeb;" horiz-adv-x="640" 
d="M253 -9q-60 0 -103 23.5t-65 71t-22 117.5v326h103v-300q0 -49 12.5 -83t40.5 -51.5t72 -17.5t76.5 21t50.5 59t18 86v286h103v-529h-98l-5 107h-6q-20 -54 -68 -85t-109 -31zM448 468v61q38 -2 61 9t32 36t4 65h82q8 -59 -10 -98t-60.5 -57.5t-108.5 -15.5zM261 595
l-86 142h104l62 -142h-80z" />
    <glyph glyph-name="uni1EEC" unicode="&#x1eec;" horiz-adv-x="731" 
d="M365 -9q-93 0 -160 34t-102.5 96.5t-35.5 148.5v459h108v-457q0 -61 23 -102t66 -61t102 -20q64 0 106 22t63 63.5t21 97.5v457h108v-459q0 -86 -36 -148.5t-102.5 -96.5t-160.5 -34zM571 668v61q38 -2 61 9t32 36t4 65h82q8 -59 -10 -98t-60.5 -57.5t-108.5 -15.5z
M327 780l-28 51q40 17 56.5 33.5t16.5 36.5q0 19 -13.5 28.5t-36.5 9.5q-12 0 -24 -1.5t-23 -5.5l-1 55q17 5 35 7.5t37 2.5q38 0 64 -11t40 -30.5t14 -45.5q0 -43 -33 -74t-104 -56z" />
    <glyph glyph-name="uni1EED" unicode="&#x1eed;" horiz-adv-x="640" 
d="M253 -9q-60 0 -103 23.5t-65 71t-22 117.5v326h103v-300q0 -49 12.5 -83t40.5 -51.5t72 -17.5t76.5 21t50.5 59t18 86v286h103v-529h-98l-5 107h-6q-20 -54 -68 -85t-109 -31zM448 468v61q38 -2 61 9t32 36t4 65h82q8 -59 -10 -98t-60.5 -57.5t-108.5 -15.5zM262 580
l-28 51q40 17 56.5 33.5t16.5 36.5q0 19 -13.5 28.5t-36.5 9.5q-12 0 -24 -1.5t-23 -5.5l-1 55q17 5 35 7.5t37 2.5q38 0 64 -11t40 -30.5t14 -45.5q0 -43 -33 -74t-104 -56z" />
    <glyph glyph-name="uni1EEE" unicode="&#x1eee;" horiz-adv-x="731" 
d="M365 -9q-93 0 -160 34t-102.5 96.5t-35.5 148.5v459h108v-457q0 -61 23 -102t66 -61t102 -20q64 0 106 22t63 63.5t21 97.5v457h108v-459q0 -86 -36 -148.5t-102.5 -96.5t-160.5 -34zM571 668v61q38 -2 61 9t32 36t4 65h82q8 -59 -10 -98t-60.5 -57.5t-108.5 -15.5z
M436 813q-32 0 -55 8t-43 15t-42 7q-21 0 -35.5 -8t-26.5 -24l-47 27q16 29 32.5 45.5t35 23.5t39.5 7q25 0 48.5 -7.5t47 -15.5t46.5 -8q17 0 33.5 8t28.5 25l48 -28q-14 -28 -31.5 -44.5t-37 -23.5t-41.5 -7z" />
    <glyph glyph-name="uni1EEF" unicode="&#x1eef;" horiz-adv-x="640" 
d="M253 -9q-60 0 -103 23.5t-65 71t-22 117.5v326h103v-300q0 -49 12.5 -83t40.5 -51.5t72 -17.5t76.5 21t50.5 59t18 86v286h103v-529h-98l-5 107h-6q-20 -54 -68 -85t-109 -31zM448 468v61q38 -2 61 9t32 36t4 65h82q8 -59 -10 -98t-60.5 -57.5t-108.5 -15.5zM371 613
q-32 0 -55 8t-43 15t-42 7q-21 0 -35.5 -8t-26.5 -24l-47 27q16 29 32.5 45.5t35 23.5t39.5 7q25 0 48.5 -7.5t47 -15.5t46.5 -8q17 0 33.5 8t28.5 25l48 -28q-14 -28 -31.5 -44.5t-37 -23.5t-41.5 -7z" />
    <glyph glyph-name="uni1EF0" unicode="&#x1ef0;" horiz-adv-x="731" 
d="M365 -9q-93 0 -160 34t-102.5 96.5t-35.5 148.5v459h108v-457q0 -61 23 -102t66 -61t102 -20q64 0 106 22t63 63.5t21 97.5v457h108v-459q0 -86 -36 -148.5t-102.5 -96.5t-160.5 -34zM571 668v61q38 -2 61 9t32 36t4 65h82q8 -59 -10 -98t-60.5 -57.5t-108.5 -15.5z
M366 -165q-23 0 -39 14t-16 38t16 37.5t39 13.5t38.5 -13.5t15.5 -37.5t-15.5 -38t-38.5 -14z" />
    <glyph glyph-name="uni1EF1" unicode="&#x1ef1;" horiz-adv-x="640" 
d="M253 -9q-60 0 -103 23.5t-65 71t-22 117.5v326h103v-300q0 -49 12.5 -83t40.5 -51.5t72 -17.5t76.5 21t50.5 59t18 86v286h103v-529h-98l-5 107h-6q-20 -54 -68 -85t-109 -31zM448 468v61q38 -2 61 9t32 36t4 65h82q8 -59 -10 -98t-60.5 -57.5t-108.5 -15.5zM301 -165
q-23 0 -39 14t-16 38t16 37.5t39 13.5t38.5 -13.5t15.5 -37.5t-15.5 -38t-38.5 -14z" />
    <glyph glyph-name="Ygrave" unicode="&#x1ef2;" horiz-adv-x="688" 
d="M289 0v287l-270 442h125l115 -200l81 -146h6l83 146l116 200h124l-271 -442v-287h-109zM305 795l-86 142h104l62 -142h-80z" />
    <glyph glyph-name="ygrave" unicode="&#x1ef3;" horiz-adv-x="539" 
d="M57 -167v85h56q24 0 40.5 6.5t28.5 20t19 34.5l32 81v-43l-216 512h113l102 -282l40 -112h6l37 112l96 282h110l-221 -575q-17 -45 -40.5 -71.5t-55 -38t-73.5 -11.5h-74zM229 595l-86 142h104l62 -142h-80z" />
    <glyph glyph-name="uni1EF4" unicode="&#x1ef4;" horiz-adv-x="688" 
d="M289 0v287l-270 442h125l115 -200l81 -146h6l83 146l116 200h124l-271 -442v-287h-109zM345 -165q-23 0 -39 14t-16 38t16 37.5t39 13.5t38.5 -13.5t15.5 -37.5t-15.5 -38t-38.5 -14z" />
    <glyph glyph-name="uni1EF5" unicode="&#x1ef5;" horiz-adv-x="539" 
d="M57 -167v85h56q24 0 40.5 6.5t28.5 20t19 34.5l32 81v-43l-216 512h113l102 -282l40 -112h6l37 112l96 282h110l-221 -575q-17 -45 -40.5 -71.5t-55 -38t-73.5 -11.5h-74zM411 -165q-23 0 -39 14t-16 38t16 37.5t39 13.5t38.5 -13.5t15.5 -37.5t-15.5 -38t-38.5 -14z" />
    <glyph glyph-name="uni1EF6" unicode="&#x1ef6;" horiz-adv-x="688" 
d="M289 0v287l-270 442h125l115 -200l81 -146h6l83 146l116 200h124l-271 -442v-287h-109zM306 780l-28 51q40 17 56.5 33.5t16.5 36.5q0 19 -13.5 28.5t-36.5 9.5q-12 0 -24 -1.5t-23 -5.5l-1 55q17 5 35 7.5t37 2.5q38 0 64 -11t40 -30.5t14 -45.5q0 -43 -33 -74t-104 -56
z" />
    <glyph glyph-name="uni1EF7" unicode="&#x1ef7;" horiz-adv-x="539" 
d="M57 -167v85h56q24 0 40.5 6.5t28.5 20t19 34.5l32 81v-43l-216 512h113l102 -282l40 -112h6l37 112l96 282h110l-221 -575q-17 -45 -40.5 -71.5t-55 -38t-73.5 -11.5h-74zM231 580l-28 51q40 17 56.5 33.5t16.5 36.5q0 19 -13.5 28.5t-36.5 9.5q-12 0 -24 -1.5t-23 -5.5
l-1 55q17 5 35 7.5t37 2.5q38 0 64 -11t40 -30.5t14 -45.5q0 -43 -33 -74t-104 -56z" />
    <glyph glyph-name="uni1EF8" unicode="&#x1ef8;" horiz-adv-x="688" 
d="M289 0v287l-270 442h125l115 -200l81 -146h6l83 146l116 200h124l-271 -442v-287h-109zM415 813q-32 0 -55 8t-43 15t-42 7q-21 0 -35.5 -8t-26.5 -24l-47 27q16 29 32.5 45.5t35 23.5t39.5 7q25 0 48.5 -7.5t47 -15.5t46.5 -8q17 0 33.5 8t28.5 25l48 -28
q-14 -28 -31.5 -44.5t-37 -23.5t-41.5 -7z" />
    <glyph glyph-name="uni1EF9" unicode="&#x1ef9;" horiz-adv-x="539" 
d="M57 -167v85h56q24 0 40.5 6.5t28.5 20t19 34.5l32 81v-43l-216 512h113l102 -282l40 -112h6l37 112l96 282h110l-221 -575q-17 -45 -40.5 -71.5t-55 -38t-73.5 -11.5h-74zM340 613q-32 0 -55 8t-43 15t-42 7q-21 0 -35.5 -8t-26.5 -24l-47 27q16 29 32.5 45.5t35 23.5
t39.5 7q25 0 48.5 -7.5t47 -15.5t46.5 -8q17 0 33.5 8t28.5 25l48 -28q-14 -28 -31.5 -44.5t-37 -23.5t-41.5 -7z" />
    <glyph glyph-name="endash" unicode="&#x2013;" horiz-adv-x="518" 
d="M51 221v87h417v-87h-417z" />
    <glyph glyph-name="emdash" unicode="&#x2014;" horiz-adv-x="685" 
d="M51 221v87h584v-87h-584z" />
    <glyph glyph-name="quoteleft" unicode="&#x2018;" horiz-adv-x="206" 
d="M181 729q-35 -38 -58 -79.5t-28 -72.5l-9 5q3 4 9 6t13 2q26 0 39.5 -14.5t13.5 -35.5q0 -25 -15.5 -40t-42.5 -15q-25 0 -42.5 18t-17.5 51q0 23 7.5 48t19.5 49.5t26 44.5t27 33h58z" />
    <glyph glyph-name="quoteright" unicode="&#x2019;" horiz-adv-x="206" 
d="M25 494q35 38 58.5 79.5t27.5 72.5l9 -6q-3 -3 -9 -5.5t-14 -2.5q-24 0 -38.5 14.5t-14.5 36.5q0 25 16 39.5t42 14.5t43 -17.5t17 -50.5q0 -23 -7 -48t-19 -49.5t-26 -45t-28 -32.5h-57z" />
    <glyph glyph-name="quotesinglbase" unicode="&#x201a;" horiz-adv-x="206" 
d="M25 -142q35 38 58.5 79.5t27.5 72.5l9 -6q-3 -3 -9 -5.5t-14 -2.5q-24 0 -38.5 14.5t-14.5 36.5q0 25 16 39.5t42 14.5t43 -17.5t17 -50.5q0 -23 -7 -48t-19 -49.5t-26 -45t-28 -32.5h-57z" />
    <glyph glyph-name="quotedblleft" unicode="&#x201c;" horiz-adv-x="388" 
d="M363 716q-35 -38 -58 -79.5t-28 -72.5l-9 6q4 3 9.5 5.5t13.5 2.5q26 0 39.5 -14.5t13.5 -36.5q0 -25 -16 -39.5t-42 -14.5q-25 0 -42.5 17.5t-17.5 50.5q0 23 7 48t19 49.5t26 45t28 32.5h57zM181 716q-35 -38 -58 -79.5t-28 -72.5l-9 6q3 3 9 5.5t13 2.5
q26 0 39.5 -14.5t13.5 -36.5q0 -25 -15.5 -39.5t-42.5 -14.5q-25 0 -42.5 17.5t-17.5 50.5q0 23 7.5 48t19.5 49.5t26 45t27 32.5h58z" />
    <glyph glyph-name="quotedblright" unicode="&#x201d;" horiz-adv-x="388" 
d="M25 484q35 38 58.5 79.5t27.5 72.5l9 -6q-3 -3 -9 -5.5t-14 -2.5q-24 0 -38.5 14.5t-14.5 36.5q0 25 16 39.5t42 14.5t43 -17.5t17 -50.5q0 -23 -7 -48t-19 -49.5t-26 -45t-28 -32.5h-57zM208 484q35 38 58.5 79.5t27.5 72.5l9 -6q-3 -3 -9 -5.5t-14 -2.5
q-24 0 -38.5 14.5t-14.5 36.5q0 25 16 39.5t42 14.5t43 -17.5t17 -50.5q0 -23 -7 -48t-19 -49.5t-26 -45t-28 -32.5h-57z" />
    <glyph glyph-name="quotedblbase" unicode="&#x201e;" horiz-adv-x="388" 
d="M25 -142q35 38 58.5 79.5t27.5 72.5l9 -6q-3 -3 -9 -5.5t-14 -2.5q-24 0 -38.5 14.5t-14.5 36.5q0 25 16 39.5t42 14.5t43 -17.5t17 -50.5q0 -23 -7 -48t-19 -49.5t-26 -45t-28 -32.5h-57zM208 -142q35 38 58.5 79.5t27.5 72.5l9 -6q-3 -3 -9 -5.5t-14 -2.5
q-24 0 -38.5 14.5t-14.5 36.5q0 25 16 39.5t42 14.5t43 -17.5t17 -50.5q0 -23 -7 -48t-19 -49.5t-26 -45t-28 -32.5h-57z" />
    <glyph glyph-name="bullet" unicode="&#x2022;" horiz-adv-x="300" 
d="M150 159q-35 0 -62 15.5t-43 42t-16 60.5q0 35 16 61.5t43 42t62 15.5q54 0 87 -33.5t33 -85.5q0 -34 -15 -60.5t-42 -42t-63 -15.5z" />
    <glyph glyph-name="ellipsis" unicode="&#x2026;" horiz-adv-x="647" 
d="M98 -7q-25 0 -41 14.5t-16 39.5q0 24 16 39t41 15q26 0 42 -15t16 -39q0 -25 -16 -39.5t-42 -14.5zM323 -7q-25 0 -41 14.5t-16 39.5q0 24 16 39t41 15q26 0 42 -15t16 -39q0 -25 -16 -39.5t-42 -14.5zM549 -7q-25 0 -41 14.5t-16 39.5q0 24 16 39t41 15q26 0 42 -15
t16 -39q0 -25 -16 -39.5t-42 -14.5z" />
    <glyph glyph-name="perthousand" unicode="&#x2030;" horiz-adv-x="1189" 
d="M155 0l463 729h77l-463 -729h-77zM204 329q-44 0 -77.5 22.5t-52 67.5t-18.5 111t19 110.5t52.5 66.5t76.5 22q44 0 77.5 -22t51.5 -66.5t18 -110.5q0 -67 -18.5 -111.5t-51.5 -67t-77 -22.5zM204 392q25 0 41.5 16t24.5 47t8 75t-8 74.5t-24.5 46t-41.5 15.5
q-24 0 -41 -16t-25.5 -46t-8.5 -74q0 -33 5 -59t14.5 -43.5t23.5 -26.5t32 -9zM647 -7q-44 0 -77.5 22t-52 67t-18.5 111q0 67 18.5 111t52 66.5t77.5 22.5t77.5 -22.5t51.5 -67t18 -110.5t-18.5 -111t-51.5 -67t-77 -22zM647 56q25 0 41 15.5t24.5 46.5t8.5 75t-8.5 74.5
t-24.5 46.5t-41 16q-24 0 -41 -16t-25.5 -46.5t-8.5 -74.5t8.5 -75t25.5 -46.5t41 -15.5zM986 -7q-44 0 -77.5 22t-52 67t-18.5 111q0 67 18.5 111t52 66.5t77.5 22.5t77 -22.5t51.5 -67t18.5 -110.5t-18.5 -111t-51.5 -67t-77 -22zM986 56q24 0 40.5 15.5t24.5 46.5t8 75
t-8 74.5t-24.5 46.5t-40.5 16q-25 0 -41.5 -16t-25 -46.5t-8.5 -74.5t8.5 -75t25 -46.5t41.5 -15.5z" />
    <glyph glyph-name="guilsinglleft" unicode="&#x2039;" horiz-adv-x="292" 
d="M163 73l-124 229l124 227h89l-110 -227l110 -229h-89z" />
    <glyph glyph-name="guilsinglright" unicode="&#x203a;" horiz-adv-x="292" 
d="M129 529l124 -229l-124 -227h-89l110 227l-110 229h89z" />
    <glyph glyph-name="fraction" unicode="&#x2044;" horiz-adv-x="133" 
d="M-222 0l496 721h81l-497 -721h-80z" />
    <glyph glyph-name="uni2070" unicode="&#x2070;" horiz-adv-x="416" 
d="M208 331q-31 0 -56 9.5t-44 28t-32 45t-19.5 61.5t-6.5 77q0 75 19.5 124t55.5 73t83 24q30 0 55.5 -9.5t44.5 -28t32 -45.5t19.5 -62t6.5 -76q0 -75 -19.5 -124t-55.5 -73t-83 -24zM208 393q27 0 45.5 16t28 51t9.5 92q0 34 -3.5 60t-10.5 45t-17 30.5t-23 17t-29 5.5
q-27 0 -45.5 -15.5t-28 -50.5t-9.5 -92q0 -35 3.5 -60.5t10 -44.5t17 -30.5t23.5 -17.5t29 -6z" />
    <glyph glyph-name="uni2074" unicode="&#x2074;" horiz-adv-x="404" 
d="M230 336v398l28 -8l-156 -226h276v-62h-351v57l188 274h89v-433h-74z" />
    <glyph glyph-name="uni2075" unicode="&#x2075;" horiz-adv-x="405" 
d="M202 331q-45 0 -77.5 16t-50.5 44.5t-21 63.5h75q2 -18 12 -31.5t26.5 -21t37.5 -7.5q39 0 60.5 23t21.5 58q0 38 -22.5 59.5t-57.5 21.5q-26 0 -45.5 -12.5t-27.5 -31.5h-73l18 256h272v-65h-206l-12 -124l4 -1q12 17 37 27t52 10q41 0 71.5 -17.5t47.5 -48t17 -71.5
q0 -44 -19.5 -77.5t-55 -52t-84.5 -18.5z" />
    <glyph glyph-name="uni2076" unicode="&#x2076;" horiz-adv-x="418" 
d="M212 331q-39 0 -69 12.5t-51 38t-31.5 64t-10.5 89.5q0 81 19.5 134t57.5 79t94 26q63 0 103 -32t46 -84h-74q-6 28 -28 40.5t-49 12.5q-36 0 -57 -19.5t-30 -54.5t-10 -84h4q11 27 39 43.5t69 16.5t71.5 -17t47.5 -47.5t17 -70.5q0 -45 -20 -77.5t-55.5 -51t-82.5 -18.5
zM215 396q36 0 58 22.5t22 58.5t-22 57.5t-58 21.5q-38 0 -60 -23t-22 -58q0 -24 10.5 -42t29 -27.5t42.5 -9.5z" />
    <glyph glyph-name="uni2077" unicode="&#x2077;" horiz-adv-x="363" 
d="M129 336q0 84 18 150t46.5 119.5t59.5 98.5h-160v-81h-59v146h307v-54q-27 -39 -50.5 -78.5t-42 -83.5t-29 -97.5t-10.5 -119.5h-80z" />
    <glyph glyph-name="uni2078" unicode="&#x2078;" horiz-adv-x="406" 
d="M203 330q-49 0 -84.5 15t-54.5 43t-19 64q0 40 24.5 68.5t63.5 37.5v3q-32 10 -52.5 36.5t-20.5 60.5q0 36 18 61.5t50 39.5t75 14q46 0 77.5 -14t48.5 -40t17 -61q0 -34 -20.5 -60.5t-53.5 -36.5v-3q42 -9 65.5 -38t23.5 -68q0 -56 -43.5 -89t-114.5 -33zM203 393
q37 0 59.5 19t22.5 50q0 29 -19.5 48.5t-62.5 19.5t-62.5 -19.5t-19.5 -48.5q0 -31 22.5 -50t59.5 -19zM203 587q38 0 55 18.5t17 44.5q0 17 -7 31t-23 22.5t-42 8.5q-38 0 -55 -18.5t-17 -43.5q0 -17 8 -31.5t23.5 -23t40.5 -8.5z" />
    <glyph glyph-name="uni2079" unicode="&#x2079;" horiz-adv-x="418" 
d="M207 774q38 0 68 -12.5t51 -38t31.5 -64t10.5 -89.5q0 -81 -19 -134t-57 -79t-94 -26q-63 0 -103 32t-47 85h75q5 -28 27 -41t49 -13q37 0 57.5 19.5t29.5 55t10 83.5h-3q-11 -26 -39.5 -43t-69.5 -17q-40 0 -71 17t-48 48t-17 71q0 44 20 77t56 51t83 18zM204 710
q-36 0 -58.5 -22.5t-22.5 -58.5t22.5 -58t57.5 -22q38 0 60 23.5t22 58.5q0 24 -10 41.5t-28 27.5t-43 10z" />
    <glyph glyph-name="uni2080" unicode="&#x2080;" horiz-adv-x="416" 
d="M208 -45q-31 0 -56 9.5t-44 28t-32 45t-19.5 61.5t-6.5 77q0 75 19.5 124t55.5 73t83 24q30 0 55.5 -9.5t44.5 -28t32 -45.5t19.5 -62t6.5 -76q0 -75 -19.5 -124t-55.5 -73t-83 -24zM208 17q27 0 45.5 16t28 51t9.5 92q0 34 -3.5 60t-10.5 45t-17 30.5t-23 17t-29 5.5
q-27 0 -45.5 -15.5t-28 -50.5t-9.5 -92q0 -35 3.5 -60.5t10 -44.5t17 -30.5t23.5 -17.5t29 -6z" />
    <glyph glyph-name="uni2081" unicode="&#x2081;" horiz-adv-x="276" 
d="M131 -40v302h-107v57h17q43 0 66.5 20.5t26.5 53.5h70v-433h-73z" />
    <glyph glyph-name="uni2082" unicode="&#x2082;" horiz-adv-x="378" 
d="M42 -40v17q0 40 15.5 70.5t40 54.5t52.5 43.5t52.5 38.5t40 39.5t15.5 45.5q0 31 -19 48t-50 17q-34 0 -54.5 -21t-20.5 -54h-74q2 63 43 100.5t110 37.5q64 0 102 -34.5t38 -90.5q0 -31 -13 -56.5t-35.5 -46t-47.5 -38.5t-48.5 -34.5t-41 -34t-23.5 -37.5h210v-65h-292z
" />
    <glyph glyph-name="uni2083" unicode="&#x2083;" horiz-adv-x="393" 
d="M188 -45q-45 0 -78.5 16t-52 45.5t-20.5 68.5h73q1 -33 23.5 -50.5t54.5 -17.5q37 0 59 19.5t22 51.5q0 33 -20 49.5t-54 16.5h-46v56h39q37 0 56.5 18t19.5 46q0 30 -19.5 45.5t-51.5 15.5q-33 0 -54 -18t-22 -48h-73q2 40 21.5 68.5t53 44.5t76.5 16q33 0 59 -8t45 -23
t29 -36.5t10 -48.5q0 -35 -20 -60t-49 -35v-4q36 -9 55.5 -36.5t19.5 -64.5q0 -40 -19.5 -68t-55 -43.5t-81.5 -15.5z" />
    <glyph glyph-name="uni2084" unicode="&#x2084;" horiz-adv-x="404" 
d="M230 -40v398l28 -8l-156 -226h276v-62h-351v57l188 274h89v-433h-74z" />
    <glyph glyph-name="uni2085" unicode="&#x2085;" horiz-adv-x="405" 
d="M202 -45q-45 0 -77.5 16t-50.5 44.5t-21 63.5h75q2 -18 12 -31.5t26.5 -21t37.5 -7.5q39 0 60.5 23t21.5 58q0 38 -22.5 59.5t-57.5 21.5q-26 0 -45.5 -12.5t-27.5 -31.5h-73l18 256h272v-65h-206l-12 -124l4 -1q12 17 37 27t52 10q41 0 71.5 -17.5t47.5 -48t17 -71.5
q0 -44 -19.5 -77.5t-55 -52t-84.5 -18.5z" />
    <glyph glyph-name="uni2086" unicode="&#x2086;" horiz-adv-x="418" 
d="M212 -45q-39 0 -69 12.5t-51 38t-31.5 64t-10.5 89.5q0 81 19.5 134t57.5 79t94 26q63 0 103 -32t46 -84h-74q-6 28 -28 40.5t-49 12.5q-36 0 -57 -19.5t-30 -54.5t-10 -84h4q11 27 39 43.5t69 16.5t71.5 -17t47.5 -47.5t17 -70.5q0 -45 -20 -77.5t-55.5 -51t-82.5 -18.5
zM215 20q36 0 58 22.5t22 58.5t-22 57.5t-58 21.5q-38 0 -60 -23t-22 -58q0 -24 10.5 -42t29 -27.5t42.5 -9.5z" />
    <glyph glyph-name="uni2087" unicode="&#x2087;" horiz-adv-x="363" 
d="M129 -40q0 84 18 150t46.5 119.5t59.5 98.5h-160v-81h-59v146h307v-54q-27 -39 -50.5 -78.5t-42 -83.5t-29 -97.5t-10.5 -119.5h-80z" />
    <glyph glyph-name="uni2088" unicode="&#x2088;" horiz-adv-x="406" 
d="M203 -46q-49 0 -84.5 15t-54.5 43t-19 64q0 40 24.5 68.5t63.5 37.5v3q-32 10 -52.5 36.5t-20.5 60.5q0 36 18 61.5t50 39.5t75 14q46 0 77.5 -14t48.5 -40t17 -61q0 -34 -20.5 -60.5t-53.5 -36.5v-3q42 -9 65.5 -38t23.5 -68q0 -56 -43.5 -89t-114.5 -33zM203 17
q37 0 59.5 19t22.5 50q0 29 -19.5 48.5t-62.5 19.5t-62.5 -19.5t-19.5 -48.5q0 -31 22.5 -50t59.5 -19zM203 211q38 0 55 18.5t17 44.5q0 17 -7 31t-23 22.5t-42 8.5q-38 0 -55 -18.5t-17 -43.5q0 -17 8 -31.5t23.5 -23t40.5 -8.5z" />
    <glyph glyph-name="uni2089" unicode="&#x2089;" horiz-adv-x="418" 
d="M207 398q38 0 68 -12.5t51 -38t31.5 -64t10.5 -89.5q0 -81 -19 -134t-57 -79t-94 -26q-63 0 -103 32t-47 85h75q5 -28 27 -41t49 -13q37 0 57.5 19.5t29.5 55t10 83.5h-3q-11 -26 -39.5 -43t-69.5 -17q-40 0 -71 17t-48 48t-17 71q0 44 20 77t56 51t83 18zM204 334
q-36 0 -58.5 -22.5t-22.5 -58.5t22.5 -58t57.5 -22q38 0 60 23.5t22 58.5q0 24 -10 41.5t-28 27.5t-43 10z" />
    <glyph glyph-name="uni20A9" unicode="&#x20a9;" horiz-adv-x="982" 
d="M219 0l-153 729h112l84 -458l32 -192h9l32 191l87 459h140l87 -458l34 -193h9l31 193l82 458h112l-153 -729h-154l-79 409l-35 235h-8l-36 -235l-79 -409h-154zM48 315v77h887v-77h-887z" />
    <glyph glyph-name="uni20AA" unicode="&#x20aa;" horiz-adv-x="813" 
d="M281 0v558h77v-472h272v643h93v-625q0 -53 -27.5 -78.5t-75.5 -25.5h-339zM93 0v729h341q53 0 77 -26.5t24 -76.5v-454h-78v472h-272v-644h-92z" />
    <glyph glyph-name="Euro" unicode="&#x20ac;" horiz-adv-x="856" 
d="M473 -9q-81 0 -146.5 26t-113 74.5t-73 117.5t-25.5 155q0 87 25.5 156t73 117.5t113 74t146.5 25.5q90 0 160.5 -31t115.5 -88t56 -134h-113q-10 47 -39 82t-75 55t-105 20q-75 0 -129.5 -32.5t-84 -94t-29.5 -150.5q0 -66 17 -117.5t48.5 -87t76.5 -54t101 -18.5
q59 0 105 20t75.5 56t38.5 84h113q-9 -77 -54 -135t-116.5 -89.5t-161.5 -31.5zM49 254v60h460l-9 -60h-451zM49 415v60h486l-9 -60h-477z" />
    <glyph glyph-name="uni20B8" unicode="&#x20b8;" horiz-adv-x="616" 
d="M256 464h104v-464h-104v464zM565 451h-515v87h515v-87zM565 641h-515v88h515v-88z" />
    <glyph glyph-name="uni20B9" unicode="&#x20b9;" horiz-adv-x="653" 
d="M411 0l-39 179q-9 47 -28 70.5t-47.5 31.5t-67.5 8h-169v81h197q77 0 114.5 28.5t43.5 78.5h-355v61h355q-6 38 -25.5 62.5t-52 36t-79.5 11.5h-198v81h546v-70h-156v-4q30 -13 52.5 -45t24.5 -70h79v-69h-79q-6 -37 -26 -66.5t-51.5 -49t-72.5 -27.5v-6q45 -10 71 -41.5
t38 -87.5l41 -193h-116z" />
    <glyph glyph-name="uni20BA" unicode="&#x20ba;" horiz-adv-x="670" 
d="M142 0v729h103v-630q91 1 148.5 30t88.5 81.5t40 123.5h106q-8 -82 -39.5 -144.5t-82.5 -105t-120.5 -63.5t-155.5 -21h-88zM52 251v81l387 155v-81zM52 427v81l387 155v-80z" />
    <glyph glyph-name="uni20BF" unicode="&#x20bf;" horiz-adv-x="709" 
d="M93 0v729h319q73 0 121.5 -23.5t73.5 -65.5t25 -98q0 -39 -13 -71.5t-39 -56.5t-64 -34v-5q45 -9 74.5 -33t45.5 -59.5t16 -77.5q0 -62 -29.5 -108t-85.5 -71.5t-138 -25.5h-306zM200 86h189q74 0 110.5 35t36.5 91t-35 88t-102 32h-199v-246zM200 415h194q42 0 69.5 14
t41.5 39t14 59q0 55 -36.5 85.5t-97.5 30.5h-185v-228zM216 -85v136h65v-136h-65zM378 -85v136h66v-136h-66zM216 703v111h65v-111h-65zM379 703v111h65v-111h-65z" />
    <glyph glyph-name="uni2113" unicode="&#x2113;" horiz-adv-x="504" 
d="M281 -8q-42 0 -73 18.5t-52.5 52.5t-35 82.5t-19 109.5t-5.5 132q0 64 8 118t24 97t40.5 74t57 47t73.5 16q66 0 100.5 -50t34.5 -133q0 -58 -16.5 -115t-49 -108.5t-80 -95t-108.5 -75t-136 -47.5v71q77 20 134.5 58t94.5 88.5t55 106t18 107.5q0 34 -7 56.5t-19.5 34
t-30.5 11.5q-19 0 -34.5 -10.5t-28 -31.5t-20.5 -52.5t-12.5 -74.5t-4.5 -97q0 -72 4.5 -124.5t13 -88t21 -56.5t28.5 -30t35 -9q31 0 53 18t36 55l73 -31q-15 -41 -41 -68.5t-59.5 -41.5t-71.5 -14z" />
    <glyph glyph-name="uni2116" unicode="&#x2116;" horiz-adv-x="1165" 
d="M93 0v729h137l375 -581h6l-6 241v340h106v-729h-131l-375 577h-6l5 -227v-350h-111zM820 192v68h256v-68h-256zM948 316q-48 0 -84.5 23.5t-57 71t-20.5 117.5t20.5 117t57 70.5t84.5 23.5q49 0 85 -23.5t56.5 -70.5t20.5 -117t-20.5 -117.5t-56.5 -71t-85 -23.5z
M948 385q27 0 43.5 16.5t25.5 48.5t9 78t-9 77.5t-25.5 48t-43.5 16.5q-26 0 -43.5 -16.5t-26 -48t-8.5 -77.5t8.5 -78t26 -48.5t43.5 -16.5z" />
    <glyph glyph-name="uni2117" unicode="&#x2117;" horiz-adv-x="864" 
d="M303 166v397h174q71 0 109.5 -33.5t38.5 -93.5q0 -57 -37.5 -92.5t-110.5 -35.5h-107v52h89q40 0 63.5 17.5t23.5 56.5q0 38 -24 55t-63 17h-78v-340h-78zM432 -10q-84 0 -154 26.5t-120.5 76.5t-78.5 118.5t-28 152.5t28 152.5t78.5 118t120.5 76t154 26.5t154 -26.5
t120.5 -76t78.5 -118t28 -152.5t-28 -152.5t-78.5 -118.5t-120.5 -76.5t-154 -26.5zM432 41q97 0 170.5 40.5t114 113t40.5 169.5t-40.5 170t-114 113.5t-170.5 40.5q-96 0 -169.5 -40.5t-114.5 -113.5t-41 -170t41 -169.5t114 -113t170 -40.5z" />
    <glyph glyph-name="trademark" unicode="&#x2122;" horiz-adv-x="836" 
d="M364 417v312h94l93 -226h4l92 226h95v-312h-68v125l3 103h-3l-94 -228h-54l-94 228h-3l1 -103v-125h-66zM145 417v251h-98v61h270v-61h-102v-251h-70z" />
    <glyph glyph-name="estimated" unicode="&#x212e;" horiz-adv-x="853" 
d="M457 -9q-110 0 -192.5 46.5t-128.5 130.5t-46 196t43 196t121 130.5t182 46.5q98 0 171.5 -40t114.5 -112t41 -169v-58h-531v-242q43 -40 98 -60.5t127 -20.5q74 0 142 25t114 66l24 -36q-53 -47 -127.5 -73t-152.5 -26zM232 399h406v218q-33 41 -89.5 59.5t-112.5 18.5
q-53 0 -109.5 -20t-94.5 -64v-212z" />
    <glyph glyph-name="oneeighth" unicode="&#x215b;" horiz-adv-x="765" 
d="M123 341v271h-97v50h15q39 0 60 18t24 49h64v-388h-66zM39 0l496 721h81l-497 -721h-80zM574 -6q-44 0 -76.5 14t-50 39t-17.5 57q0 36 22.5 61.5t58.5 33.5v3q-30 8 -48.5 32t-18.5 54q0 32 16 55t45.5 36t68.5 13q41 0 70 -13t44.5 -36t15.5 -55q0 -31 -19 -54.5
t-48 -31.5v-3q36 -8 58 -33.5t22 -61.5q0 -51 -39.5 -80.5t-103.5 -29.5zM574 51q34 0 54.5 17t20.5 45q0 26 -17.5 43.5t-57.5 17.5q-39 0 -57.5 -17.5t-18.5 -43.5q0 -28 21 -45t55 -17zM574 225q35 0 50.5 16.5t15.5 39.5t-15.5 39.5t-50.5 16.5q-36 0 -51.5 -16.5
t-15.5 -39.5q0 -15 7 -27.5t22 -20.5t38 -8z" />
    <glyph glyph-name="threeeighths" unicode="&#x215c;" horiz-adv-x="861" 
d="M176 336q-61 0 -98 32.5t-39 84.5h65q1 -28 21.5 -44.5t50.5 -16.5q34 0 54 17t20 46q0 30 -18 45t-50 15h-41v49h35q34 0 52.5 16.5t18.5 41.5q0 27 -18 41t-49 14q-29 0 -48.5 -15.5t-21.5 -43.5h-64q2 54 39.5 85t97.5 31q29 0 52.5 -7.5t41 -21t26.5 -33t9 -43.5
q0 -30 -17.5 -52.5t-45.5 -32.5v-3q32 -8 50 -32t18 -59q0 -53 -39 -83.5t-102 -30.5zM135 0l496 721h81l-497 -721h-80zM671 -6q-44 0 -76.5 14t-50 39t-17.5 57q0 36 22.5 61.5t58.5 33.5v3q-30 8 -48.5 32t-18.5 54q0 32 16 55t45.5 36t68.5 13q41 0 70 -13t44.5 -36
t15.5 -55q0 -31 -19 -54.5t-48 -31.5v-3q36 -8 58 -33.5t22 -61.5q0 -51 -39.5 -80.5t-103.5 -29.5zM671 51q34 0 54.5 17t20.5 45q0 26 -17.5 43.5t-57.5 17.5q-39 0 -57.5 -17.5t-18.5 -43.5q0 -28 21 -45t55 -17zM671 225q35 0 50.5 16.5t15.5 39.5t-15.5 39.5
t-50.5 16.5q-36 0 -51.5 -16.5t-15.5 -39.5q0 -15 7 -27.5t22 -20.5t38 -8z" />
    <glyph glyph-name="fiveeighths" unicode="&#x215d;" horiz-adv-x="872" 
d="M190 336q-59 0 -95.5 30.5t-40.5 80.5h67q3 -24 22 -39t48 -15q36 0 55.5 21t19.5 52q0 34 -20 53t-53 19q-25 0 -42.5 -10.5t-24.5 -27.5h-65l17 229h246v-59h-189l-9 -110l2 -1q10 13 32.5 23t49.5 10q55 0 89.5 -34t34.5 -90q0 -39 -18 -69t-50.5 -46.5t-75.5 -16.5z
M146 0l496 721h81l-497 -721h-80zM681 -6q-44 0 -76.5 14t-50 39t-17.5 57q0 36 22.5 61.5t58.5 33.5v3q-30 8 -48.5 32t-18.5 54q0 32 16 55t45.5 36t68.5 13q41 0 70 -13t44.5 -36t15.5 -55q0 -31 -19 -54.5t-48 -31.5v-3q36 -8 58 -33.5t22 -61.5q0 -51 -39.5 -80.5
t-103.5 -29.5zM681 51q34 0 54.5 17t20.5 45q0 26 -17.5 43.5t-57.5 17.5q-39 0 -57.5 -17.5t-18.5 -43.5q0 -28 21 -45t55 -17zM681 225q35 0 50.5 16.5t15.5 39.5t-15.5 39.5t-50.5 16.5q-36 0 -51.5 -16.5t-15.5 -39.5q0 -15 7 -27.5t22 -20.5t38 -8z" />
    <glyph glyph-name="seveneighths" unicode="&#x215e;" horiz-adv-x="802" 
d="M121 341q0 74 16 132.5t42 107t55 90.5h-147v-72h-53v130h279v-48q-25 -35 -47 -70.5t-38.5 -75.5t-26 -87.5t-9.5 -106.5h-71zM76 0l496 721h81l-497 -721h-80zM612 -6q-44 0 -76.5 14t-50 39t-17.5 57q0 36 22.5 61.5t58.5 33.5v3q-30 8 -48.5 32t-18.5 54q0 32 16 55
t45.5 36t68.5 13q41 0 70 -13t44.5 -36t15.5 -55q0 -31 -19 -54.5t-48 -31.5v-3q36 -8 58 -33.5t22 -61.5q0 -51 -39.5 -80.5t-103.5 -29.5zM612 51q34 0 54.5 17t20.5 45q0 26 -17.5 43.5t-57.5 17.5q-39 0 -57.5 -17.5t-18.5 -43.5q0 -28 21 -45t55 -17zM612 225
q35 0 50.5 16.5t15.5 39.5t-15.5 39.5t-50.5 16.5q-36 0 -51.5 -16.5t-15.5 -39.5q0 -15 7 -27.5t22 -20.5t38 -8z" />
    <glyph glyph-name="arrowleft" unicode="&#x2190;" horiz-adv-x="746" 
d="M649 410v-90h-432l111 -158h-95l-141 203l141 203h95l-111 -158h432z" />
    <glyph glyph-name="arrowup" unicode="&#x2191;" horiz-adv-x="532" 
d="M221 86v431l-158 -111v95l203 142l204 -142v-95l-158 111v-431h-91z" />
    <glyph glyph-name="arrowright" unicode="&#x2192;" horiz-adv-x="746" 
d="M97 410h432l-111 158h95l141 -203l-141 -203h-95l111 158h-432v90z" />
    <glyph glyph-name="arrowdown" unicode="&#x2193;" horiz-adv-x="524" 
d="M222 643h91v-431l158 111v-95l-203 -142l-204 142v95l158 -111v431z" />
    <glyph glyph-name="arrowboth" unicode="&#x2194;" horiz-adv-x="830" 
d="M196 162l-142 203l142 203h95l-111 -158h470l-111 158h95l142 -203l-142 -203h-95l111 158h-470l111 -158h-95z" />
    <glyph glyph-name="emptyset" unicode="&#x2205;" horiz-adv-x="794" 
d="M397 -6q-76 0 -142 27t-116 76.5t-78 118t-28 150.5q0 81 28 148.5t78 117t116 76.5t142 27t142.5 -27t116 -76.5t77.5 -117t28 -148.5q0 -82 -28 -150.5t-77.5 -118t-116 -76.5t-142.5 -27zM397 41q65 0 121.5 24t99.5 67.5t67.5 103t24.5 130.5q0 40 -8 76.5t-23 68.5
l-542 -329q43 -65 111.5 -103t148.5 -38zM115 222l540 331q-43 62 -110 98.5t-148 36.5q-64 0 -121 -24t-100 -67t-67.5 -101.5t-24.5 -129.5q0 -39 8 -75.5t23 -68.5z" />
    <glyph glyph-name="product" unicode="&#x220f;" horiz-adv-x="749" 
d="M72 -151v880h605v-880h-108v781h-389v-781h-108z" />
    <glyph glyph-name="summation" unicode="&#x2211;" horiz-adv-x="547" 
d="M28 -151v113l250 321v13l-250 320v113h494v-105h-207l-152 1v-6l260 -330l-260 -330v-6l152 1h207v-105h-494z" />
    <glyph glyph-name="minus" unicode="&#x2212;" horiz-adv-x="600" 
d="M62 320v82h476v-82h-476z" />
    <glyph glyph-name="radical" unicode="&#x221a;" horiz-adv-x="688" 
d="M252 -151l-150 476h-84v97h169l133 -453h5l232 760h116l-281 -880h-140z" />
    <glyph glyph-name="infinity" unicode="&#x221e;" horiz-adv-x="904" 
d="M244 147q-59 0 -105 28t-71.5 76.5t-25.5 111.5q0 61 25.5 110.5t71 79t105.5 29.5q49 0 87.5 -20.5t68 -54t52.5 -72.5q24 39 53.5 72.5t68 54t87.5 20.5q60 0 105.5 -29.5t70.5 -79t25 -110.5q0 -60 -25 -109t-70.5 -78t-105.5 -29q-48 0 -86 19t-68 52t-55 75
q-23 -40 -53 -73t-68.5 -53t-86.5 -20zM249 243q46 0 82 32t72 90q-36 57 -71 89.5t-83 32.5q-33 0 -58 -16t-38.5 -44t-13.5 -62q0 -54 30 -88t80 -34zM655 243q33 0 58 16t38.5 44t13.5 62t-13.5 61.5t-38.5 44t-58 16.5q-32 0 -58 -15t-49 -42t-47 -65q25 -38 48 -65.5
t48.5 -42t57.5 -14.5z" />
    <glyph glyph-name="integral" unicode="&#x222b;" horiz-adv-x="417" 
d="M15 -151v85h142v695q0 48 25.5 74t69.5 26h151v-86h-143v-697q0 -44 -24 -70.5t-71 -26.5h-150z" />
    <glyph glyph-name="approxequal" unicode="&#x2248;" horiz-adv-x="600" 
d="M386 184q-27 0 -52 8.5t-46.5 20t-40.5 19.5t-37 8q-25 0 -36.5 -18.5t-9.5 -41.5h-56q-3 56 12 87.5t39.5 44t48.5 12.5q25 0 47 -8t43 -19t41.5 -19.5t41.5 -8.5q29 0 43 17t14 46h56q2 -40 -5.5 -68t-22.5 -45.5t-35.5 -26t-44.5 -8.5zM386 402q-28 0 -52.5 8t-46 19
t-40.5 19t-37 8q-17 0 -28 -8.5t-15 -21.5t-3 -30h-56q-3 54 10.5 85t37.5 45t51 14q25 0 47.5 -8t43.5 -19t41.5 -19.5t41.5 -8.5q29 0 43 17t14 45h56q2 -37 -5 -64.5t-21.5 -45t-35 -26.5t-46.5 -9z" />
    <glyph glyph-name="notequal" unicode="&#x2260;" horiz-adv-x="600" 
d="M142 101l245 529h71l-243 -529h-73zM62 205v83h476v-83h-476zM62 434v82h476v-82h-476z" />
    <glyph glyph-name="lessequal" unicode="&#x2264;" horiz-adv-x="600" 
d="M542 144l-492 181v115l492 179v-93l-392 -140v-6l392 -143v-93zM50 0v75h492v-75h-492z" />
    <glyph glyph-name="greaterequal" unicode="&#x2265;" horiz-adv-x="600" 
d="M58 144v93l392 143v6l-392 140v93l492 -179v-115zM58 0v75h492v-75h-492z" />
    <glyph glyph-name="uni2460" unicode="&#x2460;" horiz-adv-x="864" 
d="M432 -10q-84 0 -154 26.5t-120.5 76.5t-78.5 118.5t-28 152.5t28 152.5t78.5 118t120.5 76t154 26.5t154 -26.5t120.5 -76t78.5 -118t28 -152.5t-28 -152.5t-78.5 -118.5t-120.5 -76.5t-154 -26.5zM432 41q97 0 170.5 40.5t114 113t40.5 169.5t-41 170t-114 113.5
t-170 40.5q-96 0 -169.5 -40.5t-114.5 -113.5t-41 -170t41 -169.5t114 -113t170 -40.5zM423 150v302h-107v57h17q43 0 66.5 20.5t26.5 53.5h70v-433h-73z" />
    <glyph glyph-name="uni2461" unicode="&#x2461;" horiz-adv-x="864" 
d="M432 -10q-84 0 -154 26.5t-120.5 76.5t-78.5 118.5t-28 152.5t28 152.5t78.5 118t120.5 76t154 26.5t154 -26.5t120.5 -76t78.5 -118t28 -152.5t-28 -152.5t-78.5 -118.5t-120.5 -76.5t-154 -26.5zM432 41q97 0 170.5 40.5t114 113t40.5 169.5t-41 170t-114 113.5
t-170 40.5q-96 0 -169.5 -40.5t-114.5 -113.5t-41 -170t41 -169.5t114 -113t170 -40.5zM286 150v17q0 40 15.5 70.5t40 54.5t52.5 43.5t52.5 38.5t40 39.5t15.5 45.5q0 31 -19 48t-50 17q-34 0 -54.5 -21t-20.5 -54h-74q2 63 43 100.5t110 37.5q64 0 102 -34.5t38 -90.5
q0 -31 -13 -56.5t-35.5 -46t-47.5 -38.5t-48.5 -34.5t-41 -34t-23.5 -37.5h210v-65h-292z" />
    <glyph glyph-name="uni2462" unicode="&#x2462;" horiz-adv-x="864" 
d="M432 -10q-84 0 -154 26.5t-120.5 76.5t-78.5 118.5t-28 152.5t28 152.5t78.5 118t120.5 76t154 26.5t154 -26.5t120.5 -76t78.5 -118t28 -152.5t-28 -152.5t-78.5 -118.5t-120.5 -76.5t-154 -26.5zM432 41q97 0 170.5 40.5t114 113t40.5 169.5t-41 170t-114 113.5
t-170 40.5q-96 0 -169.5 -40.5t-114.5 -113.5t-41 -170t41 -169.5t114 -113t170 -40.5zM429 145q-45 0 -78.5 16t-52 45.5t-20.5 68.5h73q1 -33 23.5 -50.5t54.5 -17.5q37 0 59 19.5t22 51.5q0 33 -20 49.5t-54 16.5h-46v56h39q37 0 56.5 18t19.5 46q0 30 -19.5 45.5
t-51.5 15.5q-33 0 -54 -18t-22 -48h-73q2 40 21.5 68.5t53 44.5t76.5 16q33 0 59 -8t45 -23t29 -36.5t10 -48.5q0 -35 -20 -60t-49 -35v-4q36 -9 55.5 -36.5t19.5 -64.5q0 -40 -19.5 -68t-55 -43.5t-81.5 -15.5z" />
    <glyph glyph-name="uni2463" unicode="&#x2463;" horiz-adv-x="864" 
d="M432 -10q-84 0 -154 26.5t-120.5 76.5t-78.5 118.5t-28 152.5t28 152.5t78.5 118t120.5 76t154 26.5t154 -26.5t120.5 -76t78.5 -118t28 -152.5t-28 -152.5t-78.5 -118.5t-120.5 -76.5t-154 -26.5zM432 41q97 0 170.5 40.5t114 113t40.5 169.5t-41 170t-114 113.5
t-170 40.5q-96 0 -169.5 -40.5t-114.5 -113.5t-41 -170t41 -169.5t114 -113t170 -40.5zM459 150v398l28 -8l-156 -226h276v-62h-351v57l188 274h89v-433h-74z" />
    <glyph glyph-name="uni2464" unicode="&#x2464;" horiz-adv-x="864" 
d="M432 -10q-84 0 -154 26.5t-120.5 76.5t-78.5 118.5t-28 152.5t28 152.5t78.5 118t120.5 76t154 26.5t154 -26.5t120.5 -76t78.5 -118t28 -152.5t-28 -152.5t-78.5 -118.5t-120.5 -76.5t-154 -26.5zM432 41q97 0 170.5 40.5t114 113t40.5 169.5t-41 170t-114 113.5
t-170 40.5q-96 0 -169.5 -40.5t-114.5 -113.5t-41 -170t41 -169.5t114 -113t170 -40.5zM427 145q-45 0 -77.5 16t-50.5 44.5t-21 63.5h75q2 -18 12 -31.5t26.5 -21t37.5 -7.5q39 0 60.5 23t21.5 58q0 38 -22.5 59.5t-57.5 21.5q-26 0 -45.5 -12.5t-27.5 -31.5h-73l18 256
h272v-65h-206l-12 -124l4 -1q12 17 37 27t52 10q41 0 71.5 -17.5t47.5 -48t17 -71.5q0 -44 -19.5 -77.5t-55 -52t-84.5 -18.5z" />
    <glyph glyph-name="uni2465" unicode="&#x2465;" horiz-adv-x="864" 
d="M432 -10q-84 0 -154 26.5t-120.5 76.5t-78.5 118.5t-28 152.5t28 152.5t78.5 118t120.5 76t154 26.5t154 -26.5t120.5 -76t78.5 -118t28 -152.5t-28 -152.5t-78.5 -118.5t-120.5 -76.5t-154 -26.5zM432 41q97 0 170.5 40.5t114 113t40.5 169.5t-41 170t-114 113.5
t-170 40.5q-96 0 -169.5 -40.5t-114.5 -113.5t-41 -170t41 -169.5t114 -113t170 -40.5zM433 145q-39 0 -69 12.5t-51 38t-31.5 64t-10.5 89.5q0 81 19.5 134t57.5 79t94 26q63 0 103 -32t46 -84h-74q-6 28 -28 40.5t-49 12.5q-36 0 -57 -19.5t-30 -54.5t-10 -84h4
q11 27 39 43.5t69 16.5t71.5 -17t47.5 -47.5t17 -70.5q0 -45 -20 -77.5t-55.5 -51t-82.5 -18.5zM436 210q36 0 58 22.5t22 58.5t-22 57.5t-58 21.5q-38 0 -60 -23t-22 -58q0 -24 10.5 -42t29 -27.5t42.5 -9.5z" />
    <glyph glyph-name="uni2466" unicode="&#x2466;" horiz-adv-x="864" 
d="M432 -10q-84 0 -154 26.5t-120.5 76.5t-78.5 118.5t-28 152.5t28 152.5t78.5 118t120.5 76t154 26.5t154 -26.5t120.5 -76t78.5 -118t28 -152.5t-28 -152.5t-78.5 -118.5t-120.5 -76.5t-154 -26.5zM432 41q97 0 170.5 40.5t114 113t40.5 169.5t-41 170t-114 113.5
t-170 40.5q-96 0 -169.5 -40.5t-114.5 -113.5t-41 -170t41 -169.5t114 -113t170 -40.5zM373 150q0 84 18 150t46.5 119.5t59.5 98.5h-160v-81h-59v146h307v-54q-27 -39 -50.5 -78.5t-42 -83.5t-29 -97.5t-10.5 -119.5h-80z" />
    <glyph glyph-name="uni2467" unicode="&#x2467;" horiz-adv-x="864" 
d="M432 -10q-84 0 -154 26.5t-120.5 76.5t-78.5 118.5t-28 152.5t28 152.5t78.5 118t120.5 76t154 26.5t154 -26.5t120.5 -76t78.5 -118t28 -152.5t-28 -152.5t-78.5 -118.5t-120.5 -76.5t-154 -26.5zM432 41q97 0 170.5 40.5t114 113t40.5 169.5t-41 170t-114 113.5
t-170 40.5q-96 0 -169.5 -40.5t-114.5 -113.5t-41 -170t41 -169.5t114 -113t170 -40.5zM432 144q-49 0 -84.5 15t-54.5 43t-19 64q0 40 24.5 68.5t63.5 37.5v3q-32 10 -52.5 36.5t-20.5 60.5q0 36 18 61.5t50 39.5t75 14q46 0 77.5 -14t48.5 -40t17 -61q0 -34 -20.5 -60.5
t-53.5 -36.5v-3q42 -9 65.5 -38t23.5 -68q0 -56 -43.5 -89t-114.5 -33zM432 207q37 0 59.5 19t22.5 50q0 29 -19.5 48.5t-62.5 19.5t-62.5 -19.5t-19.5 -48.5q0 -31 22.5 -50t59.5 -19zM432 401q38 0 55 18.5t17 44.5q0 17 -7 31t-23 22.5t-42 8.5q-38 0 -55 -18.5
t-17 -43.5q0 -17 8 -31.5t23.5 -23t40.5 -8.5z" />
    <glyph glyph-name="uni2468" unicode="&#x2468;" horiz-adv-x="864" 
d="M432 -10q-84 0 -154 26.5t-120.5 76.5t-78.5 118.5t-28 152.5t28 152.5t78.5 118t120.5 76t154 26.5t154 -26.5t120.5 -76t78.5 -118t28 -152.5t-28 -152.5t-78.5 -118.5t-120.5 -76.5t-154 -26.5zM432 41q97 0 170.5 40.5t114 113t40.5 169.5t-40.5 170t-114 113.5
t-170.5 40.5q-96 0 -169.5 -40.5t-114.5 -113.5t-41 -170t41 -169.5t114 -113t170 -40.5zM431 583q39 0 69 -12.5t51 -38.5t31.5 -64t10.5 -89q0 -81 -19 -134.5t-57.5 -79.5t-94.5 -26q-62 0 -102.5 32.5t-46.5 84.5h74q6 -27 28 -40t49 -13q36 0 57 19.5t30 55t10 83.5h-4
q-10 -27 -38.5 -43.5t-69.5 -16.5q-40 0 -71 17t-48 47.5t-17 70.5q0 45 20 77.5t56 51t82 18.5zM428 518q-36 0 -58 -22t-22 -59q0 -36 22.5 -57.5t57.5 -21.5q38 0 60 23.5t22 57.5q0 24 -10.5 42t-28.5 27.5t-43 9.5z" />
    <glyph glyph-name="uni24EA" unicode="&#x24ea;" horiz-adv-x="864" 
d="M432 -10q-84 0 -154 26.5t-120.5 76.5t-78.5 118.5t-28 152.5t28 152.5t78.5 118t120.5 76t154 26.5t154 -26.5t120.5 -76t78.5 -118t28 -152.5t-28 -152.5t-78.5 -118.5t-120.5 -76.5t-154 -26.5zM432 41q97 0 170.5 40.5t114 113t40.5 169.5t-41 170t-114 113.5
t-170 40.5q-96 0 -169.5 -40.5t-114.5 -113.5t-41 -170t41 -169.5t114 -113t170 -40.5zM432 145q-31 0 -56 9.5t-44 28t-32 45t-19.5 61.5t-6.5 77q0 75 19.5 124t55.5 73t83 24q30 0 55.5 -9.5t44.5 -28t32 -45.5t19.5 -62t6.5 -76q0 -75 -19.5 -124t-55.5 -73t-83 -24z
M432 207q27 0 45.5 16t28 51t9.5 92q0 34 -3.5 60t-10.5 45t-17 30.5t-23 17t-29 5.5q-27 0 -45.5 -15.5t-28 -50.5t-9.5 -92q0 -35 3.5 -60.5t10 -44.5t17 -30.5t23.5 -17.5t29 -6z" />
    <glyph glyph-name="uni24FF" unicode="&#x24ff;" horiz-adv-x="864" 
d="M432 -10q-84 0 -154 26.5t-120.5 76.5t-78.5 118.5t-28 152.5t28 152.5t78.5 118t120.5 76t154 26.5t154 -26.5t120.5 -76t78.5 -118t28 -152.5t-28 -152.5t-78.5 -118.5t-120.5 -76.5t-154 -26.5zM432 144q48 0 83.5 24t55.5 73t20 124q0 71 -18.5 120.5t-53.5 75.5
t-87 26q-47 0 -82.5 -24t-55.5 -73t-20 -125q0 -70 18.5 -119.5t54 -75.5t85.5 -26zM432 207q-27 0 -45.5 16t-27.5 51t-9 91q0 58 9 92.5t27.5 50.5t45.5 16t45.5 -16t28 -50.5t9.5 -92.5q0 -56 -9.5 -91t-28 -51t-45.5 -16z" />
    <glyph glyph-name="circle" unicode="&#x25cb;" horiz-adv-x="864" 
d="M432 -10q-84 0 -154 26.5t-120.5 76.5t-78.5 118.5t-28 152.5t28 152.5t78.5 118t120.5 76t154 26.5t154 -26.5t120.5 -76t78.5 -118t28 -152.5t-28 -152.5t-78.5 -118.5t-120.5 -76.5t-154 -26.5zM432 41q97 0 170.5 40.5t114 113t40.5 169.5t-41 170t-114 113.5
t-170 40.5q-96 0 -169.5 -40.5t-114.5 -113.5t-41 -170t41 -169.5t114 -113t170 -40.5z" />
    <glyph glyph-name="uni25CC" unicode="&#x25cc;" horiz-adv-x="730" 
d="M365 589q-19 0 -32 13t-13 32q0 20 13 32.5t32 12.5q20 0 32.5 -12.5t12.5 -32.5q0 -19 -12.5 -32t-32.5 -13zM500 553q-19 0 -32 13t-13 32q0 20 13 32.5t32 12.5q20 0 32.5 -12.5t12.5 -32.5q0 -19 -12.5 -32t-32.5 -13zM599 454q-19 0 -32 13t-13 32q0 20 13 32.5
t32 12.5q20 0 32.5 -12.5t12.5 -32.5q0 -19 -12.5 -32t-32.5 -13zM635 320q-19 0 -32 12.5t-13 32.5t13 32t32 12q20 0 32.5 -12t12.5 -32t-12.5 -32.5t-32.5 -12.5zM599 185q-19 0 -32 13t-13 32q0 20 13 32.5t32 12.5q20 0 32.5 -12.5t12.5 -32.5q0 -19 -12.5 -32
t-32.5 -13zM500 86q-19 0 -32 13t-13 32q0 20 13 32.5t32 12.5q20 0 32.5 -12.5t12.5 -32.5q0 -19 -12.5 -32t-32.5 -13zM365 50q-19 0 -32 13t-13 32q0 20 13 32.5t32 12.5q20 0 32.5 -12.5t12.5 -32.5q0 -19 -12.5 -32t-32.5 -13zM230 86q-19 0 -32 13t-13 32
q0 20 13 32.5t32 12.5q20 0 32.5 -12.5t12.5 -32.5q0 -19 -12.5 -32t-32.5 -13zM131 185q-19 0 -32 13t-13 32q0 20 13 32.5t32 12.5q20 0 32.5 -12.5t12.5 -32.5q0 -19 -12.5 -32t-32.5 -13zM95 320q-19 0 -32 12.5t-13 32.5t13 32t32 12q20 0 32.5 -12t12.5 -32
t-12.5 -32.5t-32.5 -12.5zM131 454q-19 0 -32 13t-13 32q0 20 13 32.5t32 12.5q20 0 32.5 -12.5t12.5 -32.5q0 -19 -12.5 -32t-32.5 -13zM230 553q-19 0 -32 13t-13 32q0 20 13 32.5t32 12.5q20 0 32.5 -12.5t12.5 -32.5q0 -19 -12.5 -32t-32.5 -13z" />
    <glyph glyph-name="uni25CF" unicode="&#x25cf;" horiz-adv-x="864" 
d="M432 -10q-84 0 -154 26.5t-120.5 76.5t-78.5 118.5t-28 152.5t28 152.5t78.5 118t120.5 76t154 26.5t154 -26.5t120.5 -76t78.5 -118t28 -152.5t-28 -152.5t-78.5 -118.5t-120.5 -76.5t-154 -26.5z" />
    <glyph glyph-name="uni2639" unicode="&#x2639;" horiz-adv-x="856" 
d="M428 -10q-81 0 -150 27t-119.5 77t-79 119t-28.5 153t28.5 152t79 118t119.5 76.5t150 26.5q82 0 150.5 -26.5t119 -76.5t78.5 -118t28 -152t-28 -153t-78.5 -119t-119.5 -77t-150 -27zM196 171q23 69 85.5 108.5t145.5 39.5q85 0 146.5 -39.5t85.5 -108.5h-46
q-22 49 -72 77t-114 28q-63 0 -113 -28.5t-72 -76.5h-46zM428 38q96 0 169 41t114 115t41 172t-41 171t-114 113.5t-169 40.5q-95 0 -168.5 -40.5t-115 -113.5t-41.5 -171t41.5 -172t115 -115t168.5 -41zM349 408q-21 0 -36 13.5t-15 34.5q0 22 15 35t36 13t35.5 -13.5
t14.5 -33.5q0 -21 -14.5 -35t-35.5 -14zM508 408q-21 0 -35.5 13.5t-14.5 34.5q0 22 14.5 35t35.5 13t35.5 -13.5t14.5 -33.5q0 -21 -14.5 -35t-35.5 -14z" />
    <glyph glyph-name="smileface" unicode="&#x263a;" horiz-adv-x="856" 
d="M428 -10q-81 0 -150 27t-119.5 77t-79 119t-28.5 153t28.5 152t79 118t119.5 76.5t150 26.5q82 0 150.5 -26.5t119 -76.5t78.5 -118t28 -152t-28 -153t-78.5 -119t-119.5 -77t-150 -27zM427 113q-64 0 -115 24t-84 67.5t-42 100.5h-31v24h117v-24h-38q8 -43 34.5 -76
t67.5 -51t91 -18q51 0 92 18t67.5 51t33.5 76h-36v24h116v-24h-31q-9 -57 -42 -100.5t-84 -67.5t-116 -24zM428 38q96 0 169 41t114 115t41 172t-41 171t-114 113.5t-169 40.5q-95 0 -168.5 -40.5t-115 -113.5t-41.5 -171t41.5 -172t115 -115t168.5 -41zM349 408
q-21 0 -36 13.5t-15 34.5q0 22 15 35t36 13t35.5 -13.5t14.5 -33.5q0 -21 -14.5 -35t-35.5 -14zM508 408q-21 0 -35.5 13.5t-14.5 34.5q0 22 14.5 35t35.5 13t35.5 -13.5t14.5 -33.5q0 -21 -14.5 -35t-35.5 -14z" />
    <glyph glyph-name="uni2713" unicode="&#x2713;" horiz-adv-x="932" 
d="M321 107l-211 268l65 59l154 -199l435 382l59 -69z" />
    <glyph glyph-name="uni2776" unicode="&#x2776;" horiz-adv-x="864" 
d="M432 -10q-84 0 -154 26.5t-120.5 76.5t-78.5 118.5t-28 152.5t28 152.5t78.5 118t120.5 76t154 26.5t154 -26.5t120.5 -76t78.5 -118t28 -152.5t-28 -152.5t-78.5 -118.5t-120.5 -76.5t-154 -26.5zM423 150h74v433h-70q-4 -33 -27 -53.5t-66 -20.5h-17v-57h106v-302z" />
    <glyph glyph-name="uni2777" unicode="&#x2777;" horiz-adv-x="864" 
d="M432 -10q-84 0 -154 26.5t-120.5 76.5t-78.5 118.5t-28 152.5t28 152.5t78.5 118t120.5 76t154 26.5t154 -26.5t120.5 -76t78.5 -118t28 -152.5t-28 -152.5t-78.5 -118.5t-120.5 -76.5t-154 -26.5zM287 150h292v65h-210q6 20 23.5 37.5t41 34t48.5 34.5t47.5 38
t35.5 45.5t13 57.5q0 56 -38 90.5t-102 34.5q-69 0 -110 -38t-43 -100h74q0 33 20.5 54t54.5 21q31 0 50 -17t19 -48q0 -25 -15.5 -45.5t-40 -39.5t-52.5 -38.5t-52.5 -43.5t-40 -54.5t-15.5 -70.5v-17z" />
    <glyph glyph-name="uni2778" unicode="&#x2778;" horiz-adv-x="864" 
d="M432 -10q-84 0 -154 26.5t-120.5 76.5t-78.5 118.5t-28 152.5t28 152.5t78.5 118t120.5 76t154 26.5t154 -26.5t120.5 -76t78.5 -118t28 -152.5t-28 -152.5t-78.5 -118.5t-120.5 -76.5t-154 -26.5zM430 144q69 0 112.5 34.5t43.5 93.5q0 37 -19.5 64.5t-56.5 36.5v4
q30 10 50 35t20 60q0 54 -39 85t-104 31q-44 0 -77.5 -16t-53 -44.5t-21.5 -69.5h73q2 31 22.5 49t54.5 18q32 0 51.5 -15.5t19.5 -45.5q0 -29 -19.5 -47t-56.5 -18h-39v-55h46q34 0 53.5 -16.5t19.5 -49.5q0 -32 -21.5 -51.5t-58.5 -19.5q-32 0 -54.5 17.5t-24.5 50.5h-72
q2 -39 20.5 -68.5t51.5 -46t79 -16.5z" />
    <glyph glyph-name="uni2779" unicode="&#x2779;" horiz-adv-x="864" 
d="M432 -10q-84 0 -154 26.5t-120.5 76.5t-78.5 118.5t-28 152.5t28 152.5t78.5 118t120.5 76t154 26.5t154 -26.5t120.5 -76t78.5 -118t28 -152.5t-28 -152.5t-78.5 -118.5t-120.5 -76.5t-154 -26.5zM460 150h74v102h74v62h-74v269h-89l-188 -274v-57h203v-102zM332 314
l128 185v-185h-128z" />
    <glyph glyph-name="uni277A" unicode="&#x277a;" horiz-adv-x="864" 
d="M432 -10q-84 0 -154 26.5t-120.5 76.5t-78.5 118.5t-28 152.5t28 152.5t78.5 118t120.5 76t154 26.5t154 -26.5t120.5 -76t78.5 -118t28 -152.5t-28 -152.5t-78.5 -118.5t-120.5 -76.5t-154 -26.5zM427 144q49 0 84.5 19t55 52t19.5 78q0 41 -17 71.5t-47.5 48
t-71.5 17.5q-27 0 -52 -10t-37 -27l-4 1l12 124h207v65h-272l-19 -256h73q8 19 27.5 31t45.5 12q36 0 58 -21.5t22 -59.5q0 -34 -21.5 -57.5t-60.5 -23.5q-32 0 -52.5 16.5t-23.5 44.5h-75q4 -54 43 -89.5t106 -35.5z" />
    <glyph glyph-name="uni277B" unicode="&#x277b;" horiz-adv-x="864" 
d="M432 -10q-84 0 -154 26.5t-120.5 76.5t-78.5 118.5t-28 152.5t28 152.5t78.5 118t120.5 76t154 26.5t154 -26.5t120.5 -76t78.5 -118t28 -152.5t-28 -152.5t-78.5 -118.5t-120.5 -76.5t-154 -26.5zM433 145q71 0 115 40t44 106q0 61 -37.5 98.5t-98.5 37.5
q-41 0 -69 -16.5t-40 -43.5h-3q0 49 9.5 84t30 54.5t57.5 19.5q27 0 48.5 -12.5t27.5 -41.5h74q-5 53 -45 85t-104 32q-56 0 -94 -26t-57.5 -79t-19.5 -134q0 -51 11 -89.5t32 -64t50.5 -38t68.5 -12.5zM436 210q-36 0 -59 21.5t-23 57.5q0 35 22.5 58t60.5 23
q35 0 57.5 -21.5t22.5 -57.5q0 -37 -22.5 -59t-58.5 -22z" />
    <glyph glyph-name="uni277C" unicode="&#x277c;" horiz-adv-x="864" 
d="M432 -10q-84 0 -154 26.5t-120.5 76.5t-78.5 118.5t-28 152.5t28 152.5t78.5 118t120.5 76t154 26.5t154 -26.5t120.5 -76t78.5 -118t28 -152.5t-28 -152.5t-78.5 -118.5t-120.5 -76.5t-154 -26.5zM374 150h80q0 66 10 119.5t28.5 97.5t42.5 83.5t51 78.5v54h-308v-146
h60v81h160q-31 -46 -59.5 -99t-46.5 -119t-18 -150z" />
    <glyph glyph-name="uni277D" unicode="&#x277d;" horiz-adv-x="864" 
d="M432 -10q-84 0 -154 26.5t-120.5 76.5t-78.5 118.5t-28 152.5t28 152.5t78.5 118t120.5 76t154 26.5t154 -26.5t120.5 -76t78.5 -118t28 -152.5t-28 -152.5t-78.5 -118.5t-120.5 -76.5t-154 -26.5zM433 144q70 0 114 32.5t44 89.5q0 39 -24 68t-65 38v3q32 10 52.5 36
t20.5 61t-16.5 60.5t-48.5 40t-77 14.5q-43 0 -75.5 -14t-50.5 -39.5t-18 -61.5q0 -35 21 -61t52 -36v-3q-39 -9 -63.5 -37.5t-24.5 -68.5q0 -55 42.5 -88.5t116.5 -33.5zM433 207q-37 0 -60 19t-23 50q0 29 19.5 48.5t63.5 19.5q43 0 62 -19.5t19 -48.5q0 -31 -22 -50
t-59 -19zM433 401q-38 0 -55.5 18.5t-17.5 44.5q0 25 17 43.5t56 18.5q38 0 54.5 -19t16.5 -43q0 -26 -17 -44.5t-54 -18.5z" />
    <glyph glyph-name="uni277E" unicode="&#x277e;" horiz-adv-x="864" 
d="M432 -10q-84 0 -154 26.5t-120.5 76.5t-78.5 118.5t-28 152.5t28 152.5t78.5 118t120.5 76t154 26.5t154 -26.5t120.5 -76t78.5 -118t28 -152.5t-28 -152.5t-78.5 -118.5t-120.5 -76.5t-154 -26.5zM423 139q56 0 94 26t57.5 79.5t19.5 134.5q0 51 -11 89t-31.5 64
t-50.5 38.5t-69 12.5q-71 0 -114.5 -40t-43.5 -107q0 -60 37.5 -97.5t98.5 -37.5q41 0 69 16.5t39 43.5h3q0 -48 -9 -83.5t-30 -55t-58 -19.5q-27 0 -48.5 13t-27.5 40h-74q6 -52 46 -84.5t103 -32.5zM428 358q-34 0 -56.5 21.5t-22.5 57.5q0 37 22 59t58 22q37 0 59.5 -21
t22.5 -58q0 -34 -22 -57.5t-61 -23.5z" />
    <glyph glyph-name="uniF8FF" unicode="&#xf8ff;" horiz-adv-x="866" 
d="M310 -8q-78 25 -136.5 76.5t-91 125t-32.5 162.5q0 115 48 200.5t134 133.5t201 48t201 -48t134 -133.5t48 -200.5q0 -89 -32.5 -162.5t-91 -125t-136.5 -76.5q-10 -3 -18.5 1.5t-8.5 16.5v105q0 54 -36 71q86 9 135.5 56.5t49.5 123.5q0 38 -10.5 65t-29.5 46q8 24 7 52
t-11 50q-28 2 -57 -9t-47 -31q-24 8 -48 11t-49 3t-49 -3t-48 -11q-18 20 -46.5 31t-57.5 9q-10 -22 -10.5 -50t6.5 -52q-19 -19 -29.5 -46t-10.5 -65q0 -76 49.5 -123.5t135.5 -56.5q-29 -13 -35 -52q-18 -10 -44 -10q-24 0 -39 13t-26.5 29.5t-25.5 29.5t-36 13
q-14 0 -14 -10t15 -17.5t26 -25.5q11 -17 21 -35.5t28.5 -31.5t54.5 -13q19 0 39 4v-70q0 -12 -8.5 -16.5t-18.5 -1.5zM222 150q-7 0 -7 5t6 5q7 0 7 -5t-6 -5zM191 185q-6 0 -6 4t5 4q6 0 6 -4t-5 -4zM206 171q-6 0 -6 4t5 4q6 0 6 -4t-5 -4zM266 109q-8 0 -8 6t7 6
q8 0 8 -6t-7 -6zM297 104q-8 0 -8 6t7 6q8 0 8 -6t-7 -6zM328 110q-8 0 -8 6t7 6q8 0 8 -6t-7 -6zM240 127q-8 0 -8 6t7 6q8 0 8 -6t-7 -6z" />
    <glyph glyph-name="uni004A0301" horiz-adv-x="404" 
d="M25 0v87h91q58 0 81 27.5t23 85.5v529h109v-537q0 -63 -20 -106t-61.5 -64.5t-105.5 -21.5h-117zM235 795l62 142h104l-87 -142h-79z" />
    <glyph glyph-name="uni1EB6.ss01" horiz-adv-x="716" 
d="M22 0l259 729h154l258 -729h-113l-188 552l-31 93h-6l-30 -93l-189 -552h-114zM184 169l19 87h309l19 -87h-347zM306 -156v87h103v-87h-103zM358 787q-46 0 -80 17.5t-51.5 50.5t-18.5 79h72q0 -43 20.5 -64.5t57.5 -21.5t57.5 21.5t20.5 64.5h72q-1 -70 -40.5 -108.5
t-109.5 -38.5z" />
    <glyph glyph-name="uni1EAC.ss01" horiz-adv-x="716" 
d="M22 0l259 729h154l258 -729h-113l-188 552l-31 93h-6l-30 -93l-189 -552h-114zM184 169l19 87h309l19 -87h-347zM306 -156v87h103v-87h-103zM198 795l108 142h103l109 -142h-90l-70 93l-70 -93h-90z" />
    <glyph glyph-name="Adieresis.ss01" horiz-adv-x="716" 
d="M22 0l259 729h154l258 -729h-113l-188 552l-31 93h-6l-30 -93l-189 -552h-114zM184 169l19 87h309l19 -87h-347zM404 809v119h90v-119h-90zM222 809v119h90v-119h-90z" />
    <glyph glyph-name="uni1EA0.ss01" horiz-adv-x="716" 
d="M22 0l259 729h154l258 -729h-113l-188 552l-31 93h-6l-30 -93l-189 -552h-114zM184 169l19 87h309l19 -87h-347zM306 -156v87h103v-87h-103z" />
    <glyph glyph-name="Cdotaccent.ss01" horiz-adv-x="771" 
d="M403 -9q-81 0 -147 25.5t-114 74.5t-73.5 118t-25.5 155q0 87 26 156t73.5 117.5t113.5 74t147 25.5q90 0 160.5 -31t115 -87.5t55.5 -133.5h-110q-10 46 -40 81.5t-75.5 56t-105.5 20.5q-76 0 -131.5 -33t-85.5 -95t-30 -151q0 -66 17.5 -118t49.5 -87.5t77.5 -54.5
t102.5 -19q59 0 105.5 20t76.5 56.5t39 85.5h110q-9 -78 -53.5 -135.5t-116 -89t-161.5 -31.5zM349 808v121h103v-121h-103z" />
    <glyph glyph-name="uni1EC6.ss01" horiz-adv-x="627" 
d="M79 0v729h511v-94h-427l25 24v-588l-25 24h428v-95h-512zM163 328v88h378v-88h-378zM264 -156v87h103v-87h-103zM156 795l108 142h103l109 -142h-90l-70 93l-70 -93h-90z" />
    <glyph glyph-name="Edieresis.ss01" horiz-adv-x="627" 
d="M79 0v729h511v-94h-427l25 24v-588l-25 24h428v-95h-512zM163 328v88h378v-88h-378zM362 809v119h90v-119h-90zM180 809v119h90v-119h-90z" />
    <glyph glyph-name="Edotaccent.ss01" horiz-adv-x="627" 
d="M79 0v729h511v-94h-427l25 24v-588l-25 24h428v-95h-512zM163 328v88h378v-88h-378zM264 808v121h103v-121h-103z" />
    <glyph glyph-name="uni1EB8.ss01" horiz-adv-x="627" 
d="M79 0v729h511v-94h-427l25 24v-588l-25 24h428v-95h-512zM163 328v88h378v-88h-378zM264 -156v87h103v-87h-103z" />
    <glyph glyph-name="Gdotaccent.ss01" horiz-adv-x="812" 
d="M389 -9q-78 0 -141.5 25.5t-109.5 74t-70.5 116.5t-24.5 152q0 88 26 158t74 119t115.5 75t149.5 26q91 0 162 -28.5t116.5 -81.5t57.5 -128h-111q-12 44 -42.5 76t-77 50t-105.5 18q-81 0 -137 -35t-85.5 -98.5t-29.5 -148.5q0 -64 17 -116t49.5 -88t79 -55t103.5 -19
q68 0 120.5 25.5t82 72t29.5 109.5v42l27 -25h-280v83h368v-390h-87l-6 139h-7q-16 -44 -55 -77.5t-92.5 -52t-115.5 -18.5zM356 808v121h103v-121h-103z" />
    <glyph glyph-name="Idieresis.ss01" horiz-adv-x="267" 
d="M79 0v729h109v-729h-109zM179 809v119h90v-119h-90zM-3 809v119h90v-119h-90z" />
    <glyph glyph-name="Idotaccent.ss01" horiz-adv-x="267" 
d="M79 0v729h109v-729h-109zM82 808v121h103v-121h-103z" />
    <glyph glyph-name="uni1ECA.ss01" horiz-adv-x="267" 
d="M79 0v729h109v-729h-109zM82 -156v87h103v-87h-103z" />
    <glyph glyph-name="Ldot.ss01" horiz-adv-x="561" 
d="M79 0v729h109v-656l-21 25h368v-98h-456zM355 323v118h120v-118h-120z" />
    <glyph glyph-name="uni1ED8.ss01" horiz-adv-x="806" 
d="M403 -9q-81 0 -147 25.5t-114 74.5t-73.5 118t-25.5 155q0 87 26 156t73.5 117.5t113.5 74t147 25.5q82 0 147.5 -25.5t113.5 -74t73.5 -117.5t25.5 -156t-26 -156t-73.5 -117.5t-113.5 -74t-147 -25.5zM403 85q76 0 131.5 33.5t86 95.5t30.5 150q0 67 -17.5 118.5
t-50 87.5t-78 54.5t-102.5 18.5q-76 0 -131.5 -33t-85.5 -95t-30 -151q0 -66 17.5 -118t49.5 -87.5t77.5 -54.5t102.5 -19zM351 -156v87h103v-87h-103zM244 795l108 142h103l109 -142h-90l-70 93l-70 -93h-90z" />
    <glyph glyph-name="Odieresis.ss01" horiz-adv-x="806" 
d="M403 -9q-81 0 -147 25.5t-114 74.5t-73.5 118t-25.5 155q0 87 26 156t73.5 117.5t113.5 74t147 25.5q82 0 147.5 -25.5t113.5 -74t73.5 -117.5t25.5 -156t-26 -156t-73.5 -117.5t-113.5 -74t-147 -25.5zM403 85q76 0 131.5 33.5t86 95.5t30.5 150q0 67 -17.5 118.5
t-50 87.5t-78 54.5t-102.5 18.5q-76 0 -131.5 -33t-85.5 -95t-30 -151q0 -66 17.5 -118t49.5 -87.5t77.5 -54.5t102.5 -19zM449 809v119h90v-119h-90zM267 809v119h90v-119h-90z" />
    </font>
</defs>
</svg>
