<?xml version="1.0" standalone="no"?>
<!DOCTYPE svg PUBLIC "-//W3C//DTD SVG 1.1//EN" "http://www.w3.org/Graphics/SVG/1.1/DTD/svg11.dtd" >
<svg xmlns="http://www.w3.org/2000/svg" xmlns:xlink="http://www.w3.org/1999/xlink" version="1.1">
<metadata>
Created by FontForge 20201107 at Wed Sep 11 12:37:47 2024
 By 
Copyright 2022 The Mona Sans Project Authors (https://github.com/github/mona-sans), with Reserved Font Name "Mona"
</metadata>
<defs>
<font id="MonaSans-SemiBold" horiz-adv-x="600" >
  <font-face 
    font-family="Mona Sans SemiBold"
    font-weight="600"
    font-stretch="normal"
    units-per-em="1000"
    panose-1="0 0 0 0 0 0 0 0 0 0"
    ascent="800"
    descent="-200"
    x-height="532"
    cap-height="729"
    bbox="-226 -249 1143 1057"
    underline-thickness="320"
    underline-position="-300"
    unicode-range="U+0020-FB02"
  />
<missing-glyph horiz-adv-x="866" 
d="M310 -8q-78 25 -136.5 76.5t-91 125t-32.5 162.5q0 115 48 200.5t134 133.5t201 48t201 -48t134 -133.5t48 -200.5q0 -89 -32.5 -162.5t-91 -125t-136.5 -76.5q-10 -3 -18.5 1.5t-8.5 16.5v105q0 54 -36 71q86 9 135.5 56.5t49.5 123.5q0 38 -10.5 65t-29.5 46q8 24 7 52
t-11 50q-28 2 -57 -9t-47 -31q-24 8 -48 11t-49 3t-49 -3t-48 -11q-18 20 -46.5 31t-57.5 9q-10 -22 -10.5 -50t6.5 -52q-19 -19 -29.5 -46t-10.5 -65q0 -76 49.5 -123.5t135.5 -56.5q-29 -13 -35 -52q-18 -10 -44 -10q-24 0 -39 13t-26.5 29.5t-25.5 29.5t-36 13
q-14 0 -14 -10t15 -17.5t26 -25.5q11 -17 21 -35.5t28.5 -31.5t54.5 -13q19 0 39 4v-70q0 -12 -8.5 -16.5t-18.5 -1.5zM222 150q-7 0 -7 5t6 5q7 0 7 -5t-6 -5zM191 185q-6 0 -6 4t5 4q6 0 6 -4t-5 -4zM206 171q-6 0 -6 4t5 4q6 0 6 -4t-5 -4zM266 109q-8 0 -8 6t7 6
q8 0 8 -6t-7 -6zM297 104q-8 0 -8 6t7 6q8 0 8 -6t-7 -6zM328 110q-8 0 -8 6t7 6q8 0 8 -6t-7 -6zM240 127q-8 0 -8 6t7 6q8 0 8 -6t-7 -6z" />
    <glyph glyph-name="fi" unicode="fi" horiz-adv-x="601" 
d="M99 0v432h-84v101h84v66q0 64 38.5 97t108.5 33h92v-88h-61q-29 0 -41 -13t-12 -38v-57h310v-533h-125v432h-185v-432h-125zM472 605q-31 0 -50 16t-19 43q0 29 19.5 45.5t49.5 16.5t49 -16.5t19 -45.5q0 -27 -19 -43t-49 -16z" />
    <glyph glyph-name="fl" unicode="fl" horiz-adv-x="606" 
d="M99 0v432h-84v101h84v66q0 64 38.5 97t108.5 33h92v-88h-61q-29 0 -41 -13t-12 -38v-57h191v196h124v-729h-124v432h-191v-432h-125z" />
    <glyph glyph-name="f_f.liga" unicode="ff" horiz-adv-x="646" 
d="M99 0v432h-84v101h84v66q0 64 38.5 97t108.5 33h92v-88h-61q-29 0 -41 -13t-12 -38v-57h177v66q0 64 38 97t108 33h92v-88h-61q-29 0 -41 -13t-12 -38v-57h106v-101h-106v-432h-124v432h-177v-432h-125z" />
    <glyph glyph-name="f_f_i.liga" unicode="ffi" horiz-adv-x="902" 
d="M99 0v432h-84v101h84v66q0 64 38.5 97t108.5 33h92v-88h-61q-29 0 -41 -13t-12 -38v-57h177v66q0 64 38 97t108 33h92v-88h-61q-29 0 -41 -13t-12 -38v-57h309v-533h-124v432h-185v-432h-124v432h-177v-432h-125zM773 605q-31 0 -50.5 16t-19.5 43q0 29 19.5 45.5
t49.5 16.5q31 0 50.5 -16.5t19.5 -45.5q0 -27 -19.5 -43t-49.5 -16z" />
    <glyph glyph-name="f_y.liga" unicode="fy" horiz-adv-x="829" 
d="M334 -167v103h59q24 0 40 6t27 19t18 33l25 61v-30l-171 407h-108v-432h-125v432h-84v101h84v66q0 64 38.5 97t108.5 33h92v-88h-61q-29 0 -41 -13t-12 -38v-57h203l95 -278l33 -99h6l31 99l89 278h133l-214 -569q-19 -51 -45.5 -80t-61 -40t-77.5 -11h-82z" />
    <glyph glyph-name="t_i.liga" unicode="ti" horiz-adv-x="643" 
d="M243 0q-49 0 -76.5 14.5t-38.5 41.5t-11 65v310h-98v101h98v150l125 13v-163h333v-532h-125v431h-208v-287q0 -26 10.5 -34t33.5 -8h68v-102h-111zM513 604q-30 0 -49.5 16.5t-19.5 44.5q0 29 19.5 45t49.5 16q31 0 50.5 -16t19.5 -45q0 -28 -19.5 -44.5t-50.5 -16.5z
" />
    <glyph glyph-name="t_t.liga" unicode="tt" horiz-adv-x="711" 
d="M244 0q-64 0 -95.5 30.5t-31.5 97.5v303h-98v101h98v150l125 13v-163h197v150l125 13v-163h112v-101h-112v-280q0 -27 12.5 -37.5t36.5 -10.5h64v-103h-111q-64 0 -95.5 30.5t-31.5 97.5v303h-197v-280q0 -27 12.5 -37.5t36.5 -10.5h64v-103h-111z" />
    <glyph glyph-name=".notdef" horiz-adv-x="866" 
d="M310 -8q-78 25 -136.5 76.5t-91 125t-32.5 162.5q0 115 48 200.5t134 133.5t201 48t201 -48t134 -133.5t48 -200.5q0 -89 -32.5 -162.5t-91 -125t-136.5 -76.5q-10 -3 -18.5 1.5t-8.5 16.5v105q0 54 -36 71q86 9 135.5 56.5t49.5 123.5q0 38 -10.5 65t-29.5 46q8 24 7 52
t-11 50q-28 2 -57 -9t-47 -31q-24 8 -48 11t-49 3t-49 -3t-48 -11q-18 20 -46.5 31t-57.5 9q-10 -22 -10.5 -50t6.5 -52q-19 -19 -29.5 -46t-10.5 -65q0 -76 49.5 -123.5t135.5 -56.5q-29 -13 -35 -52q-18 -10 -44 -10q-24 0 -39 13t-26.5 29.5t-25.5 29.5t-36 13
q-14 0 -14 -10t15 -17.5t26 -25.5q11 -17 21 -35.5t28.5 -31.5t54.5 -13q19 0 39 4v-70q0 -12 -8.5 -16.5t-18.5 -1.5zM222 150q-7 0 -7 5t6 5q7 0 7 -5t-6 -5zM191 185q-6 0 -6 4t5 4q6 0 6 -4t-5 -4zM206 171q-6 0 -6 4t5 4q6 0 6 -4t-5 -4zM266 109q-8 0 -8 6t7 6
q8 0 8 -6t-7 -6zM297 104q-8 0 -8 6t7 6q8 0 8 -6t-7 -6zM328 110q-8 0 -8 6t7 6q8 0 8 -6t-7 -6zM240 127q-8 0 -8 6t7 6q8 0 8 -6t-7 -6z" />
    <glyph glyph-name=".null" horiz-adv-x="0" 
 />
    <glyph glyph-name="nonmarkingreturn" horiz-adv-x="333" 
 />
    <glyph glyph-name="space" unicode=" " horiz-adv-x="218" 
 />
    <glyph glyph-name="exclam" unicode="!" horiz-adv-x="261" 
d="M98 212l-31 278v239h128v-239l-31 -278h-66zM131 -8q-30 0 -48.5 17.5t-18.5 45.5q0 29 18.5 46t48.5 17q29 0 47.5 -17t18.5 -46q0 -28 -18.5 -45.5t-47.5 -17.5z" />
    <glyph glyph-name="quotedbl" unicode="&#x22;" horiz-adv-x="412" 
d="M73 445l-28 169v115h112v-115l-28 -169h-56zM283 445l-28 169v115h112v-115l-28 -169h-56z" />
    <glyph glyph-name="numbersign" unicode="#" horiz-adv-x="668" 
d="M169 0v209h-140v85h140v153h-140v85h140v197h95v-197h145v197h93v-197h138v-85h-138v-153h138v-85h-138v-209h-93v209h-145v-209h-95zM264 294h145v153h-145v-153z" />
    <glyph glyph-name="dollar" unicode="$" horiz-adv-x="665" 
d="M333 9q-93 0 -156 28.5t-95 79.5t-33 119h134q1 -38 17 -66.5t50 -44t88 -15.5q42 0 74 10t49.5 31t17.5 52q0 34 -13 54.5t-49.5 33.5t-106.5 24q-58 9 -103.5 24t-77 37.5t-48.5 56t-17 81.5q0 64 32.5 110.5t92 71.5t142.5 25q81 0 140 -26t91 -71.5t32 -108.5h-132
q-2 37 -19.5 60.5t-47.5 34.5t-68 11q-39 0 -67.5 -11t-44 -31.5t-15.5 -47.5q0 -32 15.5 -49.5t53.5 -28.5t108 -23q46 -7 88.5 -18.5t76.5 -34.5t54 -61.5t20 -99.5t-32 -108t-94.5 -73t-156.5 -26zM288 -85v142h90v-142h-90zM288 661v153h90v-153h-90z" />
    <glyph glyph-name="percent" unicode="%" horiz-adv-x="855" 
d="M152 0l463 729h89l-464 -729h-88zM205 331q-45 0 -79.5 22t-53 66.5t-18.5 110.5q0 67 18.5 111t53 66t79.5 22t78.5 -22t52.5 -66t19 -111q0 -66 -19 -110.5t-52.5 -66.5t-78.5 -22zM205 404q22 0 36 15t21.5 43t7.5 68t-7.5 68t-21.5 43t-36 15q-23 0 -37.5 -15
t-21.5 -43t-7 -68q0 -30 4 -53.5t12 -39.5t20.5 -24.5t29.5 -8.5zM652 -8q-45 0 -79.5 22t-53 66.5t-18.5 111.5q0 66 18.5 110.5t53 66t79.5 21.5t78.5 -21.5t52.5 -66t19 -111.5q0 -66 -19 -110.5t-52.5 -66.5t-78.5 -22zM652 65q21 0 35.5 15t21.5 43t7 68q0 41 -7 69
t-21.5 42.5t-35.5 14.5q-23 0 -37.5 -14.5t-21.5 -42.5t-7 -69q0 -40 7 -68t21.5 -43t37.5 -15z" />
    <glyph glyph-name="ampersand" unicode="&#x26;" horiz-adv-x="774" 
d="M674 -7q-41 0 -78 14t-70.5 39.5t-64.5 59.5l-220 236q-34 37 -55 67.5t-32.5 56t-16 47.5t-4.5 43q0 56 27 97t73 63.5t106 22.5q53 0 94.5 -21t65 -58t23.5 -87q0 -44 -19.5 -81t-58 -67.5t-92.5 -54.5l-51 58q38 19 62.5 39.5t36.5 44t12 48.5q0 37 -20.5 57.5
t-55.5 20.5q-36 0 -59.5 -22t-23.5 -57q0 -17 3.5 -33t13.5 -35t29.5 -43.5t51.5 -58.5l184 -199q33 -36 60.5 -56t52 -28t49.5 -8q10 0 19 1.5t18 4.5l-4 -105q-14 -3 -28 -4.5t-28 -1.5zM244 -10q-58 0 -104 23.5t-72 66.5t-26 101q0 48 22.5 89.5t62.5 73.5t92 51l58 -70
q-35 -14 -59.5 -34t-37.5 -44t-13 -52q0 -47 29.5 -75t76.5 -28q54 0 92.5 23t61.5 63l71 -63q-25 -40 -64 -68t-87 -42.5t-103 -14.5zM545 158l-77 65q22 36 34 67t16 59l1 31h169l11 -99l-94 2q-6 -19 -15 -40.5t-20.5 -43.5t-24.5 -41z" />
    <glyph glyph-name="quotesingle" unicode="'" horiz-adv-x="202" 
d="M73 445l-28 169v115h112v-115l-28 -169h-56z" />
    <glyph glyph-name="parenleft" unicode="(" horiz-adv-x="356" 
d="M225 -167q-55 55 -95.5 132.5t-62.5 167.5t-22 180q0 68 12.5 136t36 131t56.5 117.5t75 95.5h108q-38 -43 -69 -98t-52.5 -118.5t-33 -130.5t-11.5 -133q0 -90 21 -180t58.5 -167t86.5 -133h-108z" />
    <glyph glyph-name="parenright" unicode=")" horiz-adv-x="356" 
d="M132 793q55 -55 95.5 -132.5t62 -167t21.5 -180.5q0 -68 -12.5 -135.5t-35.5 -130.5t-56.5 -117.5t-74.5 -96.5h-109q39 43 69.5 98t52 118.5t33.5 130.5t12 133q0 91 -21 180.5t-58.5 167t-87.5 132.5h109z" />
    <glyph glyph-name="asterisk" unicode="*" horiz-adv-x="309" 
d="M127 448v50l13 64l-51 -43l-43 -24l-27 46l43 25l61 23l-61 22l-43 24l27 47l43 -24l51 -42l-13 64v49h54v-49l-12 -64l51 42l43 24l26 -47l-42 -24l-61 -22l61 -23l43 -25l-27 -46l-43 24l-51 43l12 -64v-50h-54z" />
    <glyph glyph-name="plus" unicode="+" 
d="M249 123v188h-186v99h186v188h102v-188h187v-99h-187v-188h-102z" />
    <glyph glyph-name="comma" unicode="," horiz-adv-x="214" 
d="M19 -149q37 41 62.5 83.5t31.5 75.5l10 -7q-4 -2 -10 -4t-13 -2q-29 0 -45 16.5t-16 41.5q0 28 18.5 45.5t48.5 17.5t50 -20t20 -58q0 -25 -8 -52t-21 -53t-28.5 -47.5t-30.5 -36.5h-69z" />
    <glyph glyph-name="hyphen" unicode="-" horiz-adv-x="409" 
d="M47 213v106h314v-106h-314z" />
    <glyph glyph-name="period" unicode="." horiz-adv-x="205" 
d="M103 -8q-30 0 -48.5 17.5t-18.5 45.5q0 29 18.5 46t48.5 17q29 0 47.5 -17t18.5 -46q0 -28 -18.5 -45.5t-47.5 -17.5z" />
    <glyph glyph-name="slash" unicode="/" horiz-adv-x="427" 
d="M-11 -82l304 811h120l-304 -811h-120z" />
    <glyph glyph-name="zero" unicode="0" horiz-adv-x="617" 
d="M308 -10q-64 0 -113 25t-82.5 72t-51 116t-17.5 156q0 126 33 208t93 122t138 40q64 0 113.5 -25t83 -72.5t50.5 -116t17 -156.5q0 -126 -33 -207.5t-92 -121.5t-139 -40zM308 96q34 0 59.5 14.5t43 45.5t26 81.5t8.5 121.5q0 72 -8.5 122.5t-26 81.5t-43 46t-59.5 15
q-33 0 -58.5 -15t-43 -46t-26.5 -81.5t-9 -122.5q0 -71 9 -121.5t26.5 -81.5t43 -45.5t58.5 -14.5z" />
    <glyph glyph-name="one" unicode="1" horiz-adv-x="401" 
d="M202 0v503h-178v95h29q72 0 111 34t44 89h119v-721h-125z" />
    <glyph glyph-name="two" unicode="2" horiz-adv-x="567" 
d="M39 0v29q0 57 19.5 102.5t51.5 81.5t70.5 66.5t77 58t70.5 54.5t51.5 57t19.5 66q0 34 -14 58t-39.5 36.5t-60.5 12.5q-39 0 -67.5 -16t-43 -44t-14.5 -64h-124q2 71 34 122.5t88.5 80t132.5 28.5q72 0 124.5 -26.5t81 -73.5t28.5 -109q0 -46 -17 -83t-45 -68
t-62.5 -57.5t-70 -51t-67.5 -48t-54.5 -49t-31.5 -54.5h349v-109h-487z" />
    <glyph glyph-name="three" unicode="3" horiz-adv-x="586" 
d="M284 -9q-76 0 -131.5 27.5t-87 76.5t-34.5 114h123q1 -35 18 -60t46 -39t66 -14q61 0 96.5 32t35.5 85q0 37 -14.5 61t-41.5 36.5t-65 12.5h-77v93h66q41 0 68.5 13.5t42.5 37.5t15 56q0 33 -14.5 56t-41 35t-63.5 12q-36 0 -64 -14t-44 -38.5t-18 -59.5h-122
q3 66 34 114t87.5 75t130.5 27q72 0 126 -23.5t83 -67t29 -102.5q0 -39 -14.5 -70.5t-40.5 -54t-60 -34.5v-6q40 -9 68 -33t43 -58.5t15 -76.5q0 -67 -33 -114.5t-91.5 -73t-135.5 -25.5z" />
    <glyph glyph-name="four" unicode="4" horiz-adv-x="637" 
d="M364 0v630h34l-247 -356h461v-103h-586v95l313 455h150v-721h-125z" />
    <glyph glyph-name="five" unicode="5" horiz-adv-x="598" 
d="M294 -9q-73 0 -127.5 26t-86 72.5t-36.5 108.5h126q3 -29 20 -51.5t44 -35.5t62 -13q44 0 74 18t46 48.5t16 68.5q0 42 -17 72t-46.5 46t-69.5 16q-43 0 -75 -20t-46 -52h-122l31 426h453v-109h-343l-19 -204l6 -2q19 26 59.5 43.5t87.5 17.5q52 0 94 -16t71.5 -46.5
t46 -72.5t16.5 -94q0 -74 -33.5 -129.5t-92.5 -86.5t-139 -31z" />
    <glyph glyph-name="six" unicode="6" horiz-adv-x="622" 
d="M316 -9q-65 0 -115.5 21t-85 63.5t-52.5 106.5t-18 150q0 101 18.5 176.5t54 124.5t89 73.5t122.5 24.5q54 0 97.5 -14t76 -40t52.5 -61.5t24 -79.5h-125q-4 22 -15.5 38.5t-28 27.5t-37.5 16t-45 5q-45 0 -76 -18t-49.5 -51.5t-26.5 -82t-9 -109.5h6q12 30 37 52
t61.5 35t81.5 13q68 0 119 -28.5t79.5 -79t28.5 -118.5q0 -74 -33 -129t-93 -85.5t-138 -30.5zM320 100q40 0 70 17t47 47.5t17 70.5t-17 70t-46.5 46t-69.5 16q-42 0 -73 -17.5t-47 -48t-16 -69.5q0 -40 16.5 -69.5t47.5 -46t71 -16.5z" />
    <glyph glyph-name="seven" unicode="7" horiz-adv-x="573" 
d="M195 0q0 105 17.5 193.5t46.5 162t66 137t76 119.5h-265v-133h-101v242h515v-90q-37 -52 -70 -104.5t-60.5 -108t-48 -118.5t-31.5 -137t-11 -163h-134z" />
    <glyph glyph-name="eight" unicode="8" horiz-adv-x="602" 
d="M301 -10q-62 0 -110.5 14.5t-83 41.5t-52.5 64.5t-18 82.5q0 44 18 80.5t51 61.5t78 35v6q-35 10 -63 33.5t-43.5 56.5t-15.5 71q0 60 29.5 103t83.5 66t126 23q75 0 128.5 -24t82 -67t28.5 -101q0 -38 -15.5 -71t-43 -56.5t-63.5 -33.5v-6q45 -10 78 -35t51 -61.5
t18 -80.5q0 -62 -33 -108t-92.5 -70.5t-138.5 -24.5zM301 97q42 0 72 14t47 39.5t17 60.5q0 32 -14 57.5t-44 40.5t-78 15q-47 0 -77.5 -15t-44.5 -40.5t-14 -57.5q0 -35 17 -60.5t47.5 -39.5t71.5 -14zM301 419q42 0 68.5 14t38.5 38t12 52t-12 51.5t-38 37.5t-69 14
q-42 0 -68.5 -14t-38.5 -37.5t-12 -51.5q0 -21 7 -40t21 -33.5t37 -22.5t54 -8z" />
    <glyph glyph-name="nine" unicode="9" horiz-adv-x="622" 
d="M307 731q64 0 114.5 -21t85.5 -63.5t52.5 -106.5t17.5 -150q0 -101 -18.5 -176.5t-54 -124.5t-88.5 -73.5t-123 -24.5q-53 0 -96.5 14t-76 40t-52.5 61.5t-25 79.5h125q4 -22 15.5 -38.5t28 -27.5t37.5 -16t45 -5q45 0 76 18t49.5 51.5t27 82t8.5 109.5h-6
q-12 -30 -37 -52.5t-61 -35t-82 -12.5q-67 0 -118.5 28.5t-80 79.5t-28.5 118q0 74 33.5 129t93 85.5t138.5 30.5zM302 622q-39 0 -69.5 -17t-47 -47t-16.5 -71q0 -40 16.5 -70t47 -46t68.5 -16q42 0 72.5 17.5t47.5 48.5t17 69q0 41 -17 70t-47.5 45.5t-71.5 16.5z" />
    <glyph glyph-name="colon" unicode=":" horiz-adv-x="205" 
d="M103 -8q-30 0 -48.5 17.5t-18.5 45.5q0 29 18.5 46t48.5 17q29 0 47.5 -17t18.5 -46q0 -28 -18.5 -45.5t-47.5 -17.5zM103 414q-30 0 -48.5 17.5t-18.5 45.5q0 29 18.5 46t48.5 17q29 0 47.5 -17t18.5 -46q0 -28 -18.5 -45.5t-47.5 -17.5z" />
    <glyph glyph-name="semicolon" unicode=";" horiz-adv-x="214" 
d="M19 -149q37 41 62.5 83.5t31.5 75.5l10 -7q-4 -2 -10 -4t-13 -2q-29 0 -45 16.5t-16 41.5q0 28 18.5 45.5t48.5 17.5t50 -20t20 -58q0 -25 -8 -52t-21 -53t-28.5 -47.5t-30.5 -36.5h-69zM106 414q-30 0 -48.5 17.5t-18.5 45.5q0 29 18.5 46t48.5 17q29 0 47.5 -17
t18.5 -46q0 -28 -18.5 -45.5t-47.5 -17.5z" />
    <glyph glyph-name="less" unicode="&#x3c;" 
d="M542 620v-124l-371 -130v-9l371 -131v-125l-495 190v141z" />
    <glyph glyph-name="equal" unicode="=" 
d="M63 427v99h475v-99h-475zM63 196v98h475v-98h-475z" />
    <glyph glyph-name="greater" unicode="&#x3e;" 
d="M58 101v125l371 129v10l-371 131v124l495 -190v-141z" />
    <glyph glyph-name="question" unicode="?" horiz-adv-x="548" 
d="M224 203v18q0 35 11.5 63t29.5 52.5t38.5 46.5t38.5 45t29.5 47.5t11.5 54.5q0 34 -14 57t-38.5 34t-57.5 11q-56 0 -88.5 -32t-31.5 -83h-122q0 66 30.5 116t86.5 77.5t131 27.5q58 0 101.5 -14t73 -40t44 -62t14.5 -80q0 -41 -13 -73t-32.5 -59t-42 -50.5t-42 -46.5
t-32.5 -46.5t-13 -51.5v-12h-113zM278 -8q-30 0 -48.5 17.5t-18.5 45.5q0 29 18.5 46t48.5 17q29 0 47.5 -17t18.5 -46q0 -28 -18.5 -45.5t-47.5 -17.5z" />
    <glyph glyph-name="at" unicode="@" horiz-adv-x="908" 
d="M467 -101q-97 0 -174 30t-131 85t-83 131.5t-29 170.5t30 171.5t86 133.5t132 86.5t169 30.5q86 0 158 -26.5t125 -76t82 -117.5t29 -152q0 -79 -24.5 -138t-67 -92t-96.5 -33q-31 0 -55 11t-39 31t-21 47h-7q-14 -40 -46 -62t-74 -22q-44 0 -78.5 22t-53.5 64t-19 102
q0 52 12 92t34.5 68.5t53.5 43t68 14.5t66 -19.5t41 -53.5h5l12 63h58l-16 -216q-2 -38 4 -61.5t20 -34t34 -10.5q24 0 43 12.5t32.5 36t20.5 56.5t7 73q0 96 -40 162.5t-109 101.5t-158 35q-78 0 -139 -25.5t-103 -71.5t-63.5 -107.5t-21.5 -134.5q0 -80 23 -143t66 -107.5
t104.5 -68t137.5 -23.5q67 0 120.5 17.5t90.5 46.5l33 -66q-26 -22 -66.5 -39.5t-87.5 -27.5t-95 -10zM445 183q30 0 50.5 17t32.5 47t14 70q-2 42 -12.5 69t-29 40.5t-43.5 13.5q-31 0 -51.5 -18t-31 -49t-10.5 -72q0 -39 10 -65t28.5 -39.5t42.5 -13.5z" />
    <glyph glyph-name="A" unicode="A" horiz-adv-x="728" 
d="M20 0l250 729h188l250 -729h-138l-174 535l-28 93h-7l-29 -93l-174 -535h-138zM199 160l26 103h278l26 -103h-330z" />
    <glyph glyph-name="B" unicode="B" horiz-adv-x="701" 
d="M74 0v729h348q109 0 165 -51.5t56 -135.5q0 -41 -15 -73.5t-43 -55.5t-68 -32l-1 -6q50 -8 82 -32t48 -59t16 -77q0 -67 -30.5 -113.5t-87.5 -70t-138 -23.5h-332zM203 103h189q70 0 102.5 31t32.5 81q0 54 -33.5 81t-92.5 27h-211v99h205q39 0 64.5 13t38 35.5
t12.5 53.5q0 50 -33.5 76.5t-88.5 26.5h-185v-524z" />
    <glyph glyph-name="C" unicode="C" horiz-adv-x="770" 
d="M402 -9q-82 0 -148.5 25.5t-114.5 73.5t-73.5 117.5t-25.5 157.5t25.5 157t73.5 117t114.5 73.5t148.5 25.5q92 0 164 -32t117 -89.5t55 -135.5h-135q-9 43 -36 75t-69 50t-96 18q-69 0 -119.5 -29.5t-78.5 -87.5t-28 -142q0 -63 16 -112t45.5 -82t71 -49.5t93.5 -16.5
q53 0 95 18t70 50.5t36 75.5h135q-9 -77 -54.5 -135.5t-117.5 -90.5t-164 -32z" />
    <glyph glyph-name="D" unicode="D" horiz-adv-x="750" 
d="M74 0v729h303q106 0 180.5 -45.5t113.5 -127.5t39 -192q0 -81 -22 -148.5t-65 -115.5t-104.5 -74t-141.5 -26h-303zM206 114h150q48 0 88 14t69 44.5t45 78.5t16 116q0 89 -27.5 143.5t-76.5 80t-114 25.5h-150v-502z" />
    <glyph glyph-name="E" unicode="E" horiz-adv-x="631" 
d="M74 0v729h520v-114h-416l28 29v-559l-28 29h418v-114h-522zM178 318v107h367v-107h-367z" />
    <glyph glyph-name="F" unicode="F" horiz-adv-x="619" 
d="M74 0v729h519v-114h-410l23 23v-638h-132zM170 299v108h383v-108h-383z" />
    <glyph glyph-name="G" unicode="G" horiz-adv-x="814" 
d="M384 -9q-78 0 -141.5 25.5t-109 73.5t-70 115.5t-24.5 151.5q0 89 26.5 159.5t75.5 120t116.5 75.5t151.5 26q93 0 165.5 -29.5t118.5 -84t57 -131.5h-135q-11 40 -39.5 69.5t-70.5 45.5t-97 16q-75 0 -127 -33t-79 -92t-27 -138q0 -62 16.5 -110t46.5 -81.5t72 -51
t95 -17.5q63 0 111 23t75 64.5t27 98.5v37l29 -27h-259v97h371v-394h-106l-7 127h-6q-17 -41 -55 -71.5t-90 -47.5t-111 -17z" />
    <glyph glyph-name="H" unicode="H" horiz-adv-x="788" 
d="M74 0v729h132v-729h-132zM582 0v729h132v-729h-132zM176 317v114h436v-114h-436z" />
    <glyph glyph-name="I" unicode="I" horiz-adv-x="280" 
d="M74 0v729h132v-729h-132z" />
    <glyph glyph-name="J" unicode="J" horiz-adv-x="413" 
d="M23 0v104h88q55 0 77 25.5t22 79.5v520h131v-530q0 -66 -21 -110.5t-64 -66.5t-110 -22h-123z" />
    <glyph glyph-name="K" unicode="K" horiz-adv-x="708" 
d="M532 0l-213 331l-122 -133v156l328 375h159l-275 -303l279 -426h-156zM74 0v729h132v-729h-132z" />
    <glyph glyph-name="L" unicode="L" horiz-adv-x="566" 
d="M74 0v729h132v-636l-22 25h359v-118h-469z" />
    <glyph glyph-name="M" unicode="M" horiz-adv-x="908" 
d="M74 0v729h209l119 -361l49 -186h7l49 186l118 361h209v-729h-128v353l4 253h-8l-71 -235l-120 -371h-113l-119 371l-72 235h-8l4 -253v-353h-129z" />
    <glyph glyph-name="N" unicode="N" horiz-adv-x="779" 
d="M74 0v729h164l339 -545h6l-6 234v311h128v-729h-156l-340 540h-6l6 -218v-322h-135z" />
    <glyph glyph-name="O" unicode="O" horiz-adv-x="805" 
d="M402 -9q-82 0 -148.5 25.5t-114.5 73.5t-73.5 117.5t-25.5 157.5t25.5 157t73.5 117t114.5 73.5t148.5 25.5t149 -25.5t115 -74t73.5 -117t25.5 -156.5t-25.5 -157.5t-74 -117.5t-115 -73.5t-148.5 -25.5zM402 105q70 0 121 30t78.5 88t27.5 142q0 63 -16 111t-45.5 81
t-71.5 50t-94 17q-69 0 -119.5 -29.5t-78.5 -87.5t-28 -142q0 -63 16 -112t45.5 -82t71 -49.5t93.5 -16.5z" />
    <glyph glyph-name="P" unicode="P" horiz-adv-x="667" 
d="M74 0v729h292q88 0 148 -29t90.5 -81.5t30.5 -124.5q0 -75 -33.5 -128t-94 -81.5t-141.5 -28.5h-173v104h162q74 0 109.5 36.5t35.5 93.5q0 63 -39 94.5t-106 31.5h-167l18 18v-634h-132z" />
    <glyph glyph-name="Q" unicode="Q" horiz-adv-x="837" 
d="M402 54l321 49h83v-103h-403zM402 -9q-82 0 -148.5 25.5t-114.5 73.5t-73.5 117.5t-25.5 157.5t25.5 157t73.5 117t114.5 73.5t148.5 25.5t149 -25.5t115 -74t73.5 -117t25.5 -156.5t-25.5 -157.5t-74 -117.5t-115 -73.5t-148.5 -25.5zM402 105q70 0 121 30t78.5 88
t27.5 142q0 63 -16 111t-45.5 81t-71.5 50t-94 17q-69 0 -119.5 -29.5t-78.5 -87.5t-28 -142q0 -63 16 -112t45.5 -82t71 -49.5t93.5 -16.5z" />
    <glyph glyph-name="R" unicode="R" horiz-adv-x="719" 
d="M74 0v729h359q44 0 80.5 -8t65.5 -24t49 -40t31 -55.5t11 -70.5q0 -68 -35.5 -114.5t-98.5 -63.5v-6q43 -7 69 -25.5t38 -47.5t12 -70v-123q0 -19 1.5 -39.5t10.5 -41.5h-134q-6 14 -8.5 35t-2.5 47v99q0 34 -10 56.5t-36 35t-75 12.5h-208v105h210q71 0 101 33.5
t30 83.5q0 31 -9.5 51.5t-27 34t-41.5 20t-53 6.5h-197v-619h-132z" />
    <glyph glyph-name="S" unicode="S" horiz-adv-x="659" 
d="M331 -9q-98 0 -163.5 30t-98.5 84t-34 123h135q1 -41 18.5 -71t53.5 -47t93 -17q46 0 80 11t52.5 34.5t18.5 59.5q0 28 -9 46.5t-30 31t-56 21.5t-86 18q-63 10 -110.5 26.5t-79.5 40.5t-48 58.5t-16 82.5q0 66 33.5 114t95.5 74.5t148 26.5q85 0 145.5 -27t93.5 -75.5
t34 -112.5h-134q-1 39 -20 64.5t-51 37.5t-73 12q-42 0 -72 -11.5t-46 -33t-16 -52.5q0 -34 16.5 -53.5t57 -31.5t111.5 -24q48 -8 92 -20t80 -35.5t56.5 -64t20.5 -104.5t-33 -113t-98 -76t-161 -27z" />
    <glyph glyph-name="T" unicode="T" horiz-adv-x="627" 
d="M245 0v628h133v-628h-133zM23 614v115h580v-115h-580z" />
    <glyph glyph-name="U" unicode="U" horiz-adv-x="733" 
d="M366 -9q-96 0 -164 34.5t-104 98t-36 150.5v455h132v-454q0 -55 21 -92t59.5 -55.5t92.5 -18.5q58 0 96.5 20t57.5 57t19 89v454h131v-455q0 -88 -36.5 -151.5t-105 -97.5t-163.5 -34z" />
    <glyph glyph-name="V" unicode="V" horiz-adv-x="738" 
d="M281 0l-261 729h147l136 -434l62 -189h8l62 189l137 434h146l-260 -729h-177z" />
    <glyph glyph-name="W" unicode="W" horiz-adv-x="1004" 
d="M196 0l-173 729h146l83 -403l36 -203h7l38 203l87 403h165l87 -392l40 -215h7l36 215l80 392h146l-173 -729h-183l-78 360l-41 222h-7l-42 -222l-79 -360h-182z" />
    <glyph glyph-name="X" unicode="X" horiz-adv-x="745" 
d="M17 0l268 391l-236 338h155l111 -176l52 -85h7l52 85l112 176h155l-233 -337l268 -392h-157l-139 214l-58 91h-7l-57 -91l-140 -214h-153z" />
    <glyph glyph-name="Y" unicode="Y" horiz-adv-x="706" 
d="M286 0v282l-270 447h152l107 -194l74 -137h6l75 137l109 194h151l-272 -447v-282h-132z" />
    <glyph glyph-name="Z" unicode="Z" horiz-adv-x="632" 
d="M32 0v111l392 504h-376v114h541v-112l-394 -503h404v-114h-567z" />
    <glyph glyph-name="bracketleft" unicode="[" horiz-adv-x="371" 
d="M80 -167v960h258v-96h-141v-769h141v-95h-258z" />
    <glyph glyph-name="backslash" unicode="\" horiz-adv-x="408" 
d="M296 -82l-304 811h120l304 -811h-120z" />
    <glyph glyph-name="bracketright" unicode="]" horiz-adv-x="371" 
d="M291 793v-960h-257v96h140v769h-140v95h257z" />
    <glyph glyph-name="asciicircum" unicode="^" 
d="M96 471l140 258h130l140 -258h-117l-88 160l-89 -160h-116z" />
    <glyph glyph-name="underscore" unicode="_" horiz-adv-x="467" 
d="M47 -106v106h373v-106h-373z" />
    <glyph glyph-name="grave" unicode="`" horiz-adv-x="264" 
d="M129 740l-89 143h125l59 -143h-95z" />
    <glyph glyph-name="a" unicode="a" horiz-adv-x="627" 
d="M258 -9q-49 0 -89 18.5t-69 54t-44.5 87t-15.5 115.5q0 87 27.5 149t76.5 94.5t114 32.5q42 0 76.5 -13t59 -37t36.5 -56h7l5 96h118v-532h-118l-5 97h-7q-17 -48 -63 -77t-109 -29zM302 93q44 0 73.5 19.5t44.5 52.5t15 73v57q0 41 -15.5 74t-45 52t-69.5 19
q-45 0 -75.5 -20.5t-46.5 -59.5t-16 -94q0 -53 15.5 -92t45.5 -60t74 -21z" />
    <glyph glyph-name="b" unicode="b" horiz-adv-x="627" 
d="M370 -10q-42 0 -77 13.5t-59.5 37.5t-35.5 55h-7l-5 -96h-119v729h125v-294h6q17 48 63 77.5t109 29.5q49 0 89 -19t69 -54.5t44.5 -86.5t15.5 -116q0 -86 -27.5 -148t-76.5 -95t-114 -33zM323 92q44 0 75 21t46.5 60.5t15.5 92.5q0 40 -8.5 72t-25.5 54.5t-42 35
t-58 12.5q-44 0 -74 -19.5t-45 -53t-15 -73.5v-57q0 -41 16 -73.5t45 -52t70 -19.5z" />
    <glyph glyph-name="c" unicode="c" horiz-adv-x="572" 
d="M298 -9q-59 0 -107 19.5t-83 56t-53 87t-18 112.5t18.5 113t53.5 87.5t84 56t109 19.5q66 0 117.5 -24.5t83 -68t35.5 -101.5h-122q-6 30 -22.5 50t-41 30.5t-53.5 10.5q-33 0 -58 -12.5t-42.5 -35.5t-26.5 -54.5t-9 -70.5q0 -57 17 -95t47.5 -57.5t70.5 -19.5
q34 0 59.5 12t41.5 33.5t20 49.5h121q-4 -60 -36.5 -104.5t-85 -69t-120.5 -24.5z" />
    <glyph glyph-name="d" unicode="d" horiz-adv-x="627" 
d="M258 -9q-49 0 -89 18.5t-69 54t-44.5 87t-15.5 115.5q0 87 27.5 149t76.5 94.5t114 32.5q42 0 76.5 -13t59 -37t36.5 -56h5v293h125v-729h-118l-5 97h-7q-17 -48 -63 -77t-109 -29zM302 93q44 0 73.5 19.5t44.5 52.5t15 73v57q0 41 -15.5 74t-45 52t-69.5 19
q-45 0 -75.5 -20.5t-46.5 -59.5t-16 -94q0 -53 15.5 -92t45.5 -60t74 -21z" />
    <glyph glyph-name="e" unicode="e" horiz-adv-x="561" 
d="M288 -9q-81 0 -137.5 33.5t-86.5 95t-30 143.5q0 85 30 147.5t86 96.5t133 34q88 0 144.5 -38.5t81.5 -106.5t17 -156h-370q0 -51 16.5 -85.5t46 -52t69.5 -17.5q47 0 76.5 20t39.5 53h118q-8 -52 -40 -89.5t-82 -57.5t-112 -20zM156 307l-11 13h271l-12 -14q2 49 -13 80
t-43 46t-65 15q-38 0 -66 -16t-44 -47.5t-17 -76.5z" />
    <glyph glyph-name="f" unicode="f" horiz-adv-x="345" 
d="M99 0v432h-84v101h84v66q0 64 38.5 97t108.5 33h92v-88h-61q-29 0 -41 -13t-12 -38v-57h105v-101h-105v-432h-125z" />
    <glyph glyph-name="g" unicode="g" horiz-adv-x="609" 
d="M281 -177q-67 0 -116 19.5t-77.5 55t-32.5 82.5h120q4 -20 18.5 -35t37.5 -23.5t53 -8.5q48 0 77 13.5t42.5 40.5t13.5 67v86h-6q-16 -43 -60 -70.5t-104 -27.5q-47 0 -85 18t-65.5 51.5t-42.5 81.5t-15 109q0 82 26 140t73 89t109 31q58 0 102.5 -26t61.5 -71h7l4 87
h120v-476q0 -84 -32 -135.5t-90.5 -74.5t-138.5 -23zM293 124q40 0 67.5 18t41.5 48t14 66v52q0 39 -14.5 68.5t-41.5 47t-65 17.5q-42 0 -70.5 -19.5t-43.5 -55t-15 -84.5q0 -48 14.5 -83.5t42.5 -55t70 -19.5z" />
    <glyph glyph-name="h" unicode="h" horiz-adv-x="620" 
d="M67 0v729h125v-298h6q23 56 70 83.5t105 27.5q40 0 74.5 -12.5t60 -39t40 -69t14.5 -102.5v-319h-125v292q0 50 -12 82.5t-36.5 48.5t-63.5 16q-42 0 -71.5 -20t-45.5 -53t-16 -73v-293h-125z" />
    <glyph glyph-name="i" unicode="i" horiz-adv-x="260" 
d="M67 0v532h125v-532h-125zM130 604q-30 0 -49.5 16.5t-19.5 44.5q0 29 19.5 45t49.5 16t49.5 -16t19.5 -45q0 -28 -19.5 -44.5t-49.5 -16.5z" />
    <glyph glyph-name="j" unicode="j" horiz-adv-x="260" 
d="M-31 -167v91h42q30 0 43 14t13 48v546h125v-548q0 -47 -14.5 -81t-46 -52t-83.5 -18h-79zM130 604q-30 0 -49.5 16.5t-19.5 44.5q0 29 19.5 45t49.5 16t49.5 -16t19.5 -45q0 -28 -19.5 -44.5t-49.5 -16.5z" />
    <glyph glyph-name="k" unicode="k" horiz-adv-x="592" 
d="M67 0v729h127v-434l45 51l178 186h155l-206 -209l211 -323h-147l-120 185l-32 55l-84 -83v-157h-127z" />
    <glyph glyph-name="l" unicode="l" horiz-adv-x="260" 
d="M67 0v729h125v-729h-125z" />
    <glyph glyph-name="m" unicode="m" horiz-adv-x="969" 
d="M67 0v532h121l4 -101h6q22 56 68 83.5t101 27.5q58 0 104 -28t67 -94h8q21 61 70 91.5t111 30.5q53 0 94.5 -22t65.5 -71t24 -130v-319h-125v292q0 50 -11 82.5t-35 48.5t-61 16q-40 0 -68.5 -20t-43.5 -53t-15 -73v-293h-126v292q0 50 -11 82.5t-34.5 48.5t-60.5 16
q-40 0 -68.5 -20t-44 -53t-15.5 -73v-293h-125z" />
    <glyph glyph-name="n" unicode="n" horiz-adv-x="620" 
d="M67 0v532h120l5 -101h6q23 56 70 83.5t105 27.5q40 0 74.5 -12.5t60 -39t40 -69t14.5 -102.5v-319h-125v292q0 50 -12 82.5t-36.5 48.5t-63.5 16q-42 0 -71.5 -20t-45.5 -53t-16 -73v-293h-125z" />
    <glyph glyph-name="o" unicode="o" 
d="M301 -9q-60 0 -108 18.5t-83.5 54.5t-54 87t-18.5 115q0 82 31.5 144t90.5 97t142 35q59 0 107 -19t82.5 -55t53.5 -86.5t19 -115.5q0 -81 -31.5 -143t-90 -97t-140.5 -35zM300 94q41 0 72 19.5t48 58t17 94.5q0 42 -9.5 74.5t-27.5 54.5t-43 33t-56 11
q-41 0 -72.5 -19.5t-48.5 -58t-17 -95.5q0 -42 9.5 -74.5t27.5 -54t43.5 -32.5t56.5 -11z" />
    <glyph glyph-name="p" unicode="p" horiz-adv-x="627" 
d="M67 -167v699h119l5 -97h7q17 48 63 77.5t109 29.5q49 0 89 -19t69 -54.5t44.5 -86.5t15.5 -116q0 -86 -27.5 -148t-76.5 -95t-114 -33q-42 0 -77 13.5t-59.5 37.5t-35.5 55h-6v-263h-125zM323 92q44 0 75 21t46.5 60.5t15.5 92.5q0 54 -15 93t-45 60t-74 21t-74 -19.5
t-45 -53t-15 -73.5v-57q0 -41 16 -73.5t45 -52t70 -19.5z" />
    <glyph glyph-name="q" unicode="q" horiz-adv-x="627" 
d="M435 -167v264h-5q-17 -48 -63 -77t-109 -29q-49 0 -89 18.5t-69 54t-44.5 87t-15.5 115.5q0 87 27.5 149t76.5 94.5t114 32.5q42 0 76.5 -13t59 -37t36.5 -56h6l4 96h120v-699h-125zM302 93q44 0 73.5 19.5t44.5 52.5t15 73v57q0 41 -15.5 74t-45 52t-69.5 19
q-45 0 -75.5 -20.5t-46.5 -59.5t-16 -94q0 -53 15.5 -92t45.5 -60t74 -21z" />
    <glyph glyph-name="r" unicode="r" horiz-adv-x="392" 
d="M67 0v532h113l6 -89h4q18 51 58.5 73.5t92.5 22.5h16.5h14.5v-118q-6 0 -14.5 0.5t-18.5 0.5q-48 0 -80 -15.5t-48.5 -44.5t-18.5 -71v-291h-125z" />
    <glyph glyph-name="s" unicode="s" horiz-adv-x="525" 
d="M262 -10q-53 0 -94.5 12.5t-71 35t-46 54t-17.5 70.5h123q3 -29 17 -47t37.5 -26.5t54.5 -8.5q48 0 72.5 17.5t24.5 48.5q0 25 -11.5 38.5t-36 21t-65.5 13.5q-68 10 -113 27.5t-67 48.5t-22 82q0 50 27.5 87t76.5 57.5t114 20.5q64 0 111 -20t73.5 -57t28.5 -86h-123
q0 26 -12.5 42t-33 24t-47.5 8q-42 0 -66 -17.5t-24 -47.5q0 -22 12.5 -35.5t40.5 -21.5t72 -14q64 -9 106.5 -26t64 -49t21.5 -85t-28.5 -90.5t-79.5 -57t-119 -19.5z" />
    <glyph glyph-name="t" unicode="t" horiz-adv-x="389" 
d="M244 0q-64 0 -95.5 30.5t-31.5 97.5v303h-98v101h98v150l125 13v-163h112v-101h-112v-280q0 -27 12.5 -37.5t36.5 -10.5h64v-103h-111z" />
    <glyph glyph-name="u" unicode="u" horiz-adv-x="620" 
d="M249 -9q-60 0 -103 24t-65.5 71.5t-22.5 115.5v330h125v-297q0 -45 12 -76.5t37 -48.5t65 -17t69.5 20t45.5 53.5t16 75.5v290h125v-532h-120l-5 103h-6q-20 -54 -66.5 -83t-106.5 -29z" />
    <glyph glyph-name="v" unicode="v" horiz-adv-x="558" 
d="M201 0l-185 532h134l89 -307l37 -129h5l37 129l89 307h135l-185 -532h-156z" />
    <glyph glyph-name="w" unicode="w" horiz-adv-x="771" 
d="M140 0l-130 532h128l64 -283l27 -138h6l24 138l58 283h141l59 -283l24 -139h6l26 139l65 283h122l-130 -532h-164l-56 249l-25 140h-5l-24 -140l-52 -249h-164z" />
    <glyph glyph-name="x" unicode="x" horiz-adv-x="597" 
d="M12 0l204 274l-184 258h148l107 -161l12 -19h5l12 19l106 161h142l-179 -255l199 -277h-148l-123 181l-13 22h-5l-14 -22l-128 -181h-141z" />
    <glyph glyph-name="y" unicode="y" horiz-adv-x="554" 
d="M58 -167v103h60q23 0 39 6t27 19t19 33l28 73v-53l-217 518h138l95 -276l33 -100h5l31 100l89 276h134l-214 -567q-19 -51 -45.5 -80t-61 -40.5t-78.5 -11.5h-82z" />
    <glyph glyph-name="z" unicode="z" horiz-adv-x="520" 
d="M28 0v90l292 341h-277v101h436v-88l-291 -343h302v-101h-462z" />
    <glyph glyph-name="braceleft" unicode="{" horiz-adv-x="409" 
d="M208 -167q-46 0 -68 26t-22 64v257q0 39 -18.5 59.5t-44.5 20.5h-27v96h27q27 0 45 21.5t18 59.5v266q0 38 22 64t68 26h167v-96h-140v-264q0 -56 -23.5 -85t-57.5 -35v-3q41 -11 61 -44t20 -79v-259h140v-95h-167z" />
    <glyph glyph-name="bar" unicode="|" horiz-adv-x="288" 
d="M88 -67v796h113v-796h-113z" />
    <glyph glyph-name="braceright" unicode="}" horiz-adv-x="409" 
d="M200 793q46 0 68.5 -26t22.5 -64v-257q0 -39 18.5 -59.5t44.5 -20.5h26v-96h-26q-27 0 -45 -21.5t-18 -59.5v-266q0 -38 -22.5 -64t-68.5 -26h-166v96h140v264q0 57 23.5 85.5t57.5 34.5v3q-41 12 -61 44.5t-20 78.5v259h-140v95h166z" />
    <glyph glyph-name="asciitilde" unicode="~" 
d="M96 283q-4 58 11 93t41.5 50.5t55.5 15.5q27 0 49.5 -8.5t43.5 -20t42 -20t43 -8.5q28 0 42.5 17t14.5 44h65q3 -46 -6.5 -77.5t-26.5 -50t-39 -26.5t-44 -8q-30 0 -55 9t-47 21t-41 20.5t-38 8.5q-25 0 -37 -19t-9 -41h-65z" />
    <glyph glyph-name="uni00A0" unicode="&#xa0;" horiz-adv-x="218" 
 />
    <glyph glyph-name="exclamdown" unicode="&#xa1;" horiz-adv-x="261" 
d="M163 321l31 -278v-240h-127v240l31 278h65zM131 540q29 0 47.5 -17t18.5 -46q0 -28 -18.5 -45t-47.5 -17q-30 0 -48.5 17t-18.5 45q0 29 18.5 46t48.5 17z" />
    <glyph glyph-name="cent" unicode="&#xa2;" horiz-adv-x="597" 
d="M309 89q-59 0 -107 20t-82.5 56t-53 86.5t-18.5 113.5q0 83 32.5 145t92.5 96t140 34q67 0 119 -25t83.5 -69.5t34.5 -103.5h-122q-5 32 -21.5 52.5t-41.5 31.5t-55 11q-33 0 -58 -12.5t-42.5 -35t-26.5 -54t-9 -71.5q0 -56 17 -94t47.5 -58t70.5 -20q35 0 61 13
t41.5 35.5t18.5 51.5h122q-4 -61 -36 -106.5t-85 -71t-122 -25.5zM259 0v144h84v-144h-84zM259 581v148h84v-148h-84z" />
    <glyph glyph-name="sterling" unicode="&#xa3;" horiz-adv-x="644" 
d="M100 97q23 32 35.5 59.5t18 55.5t5.5 61q0 35 -7 65t-16 59t-16 59t-7 63q0 67 29.5 116t83.5 76t127 27q75 0 128.5 -28t81 -78.5t26.5 -119.5l-119 -1q-1 59 -32 87.5t-82 28.5q-38 0 -64 -13.5t-40 -39t-14 -61.5q0 -25 7.5 -52t17 -56t16.5 -60t7 -66
q0 -37 -7.5 -69.5t-26 -61.5t-52.5 -59zM45 0v101h432v106h105v-207h-537zM59 312v94h394v-94h-394z" />
    <glyph glyph-name="currency" unicode="&#xa4;" horiz-adv-x="622" 
d="M108 76l-71 70l98 100q-14 22 -21.5 49t-7.5 53q0 30 8 57t22 48l-99 98l71 72l104 -105q21 11 47 17.5t52 6.5q25 0 51 -5.5t49 -18.5l103 105l71 -72l-99 -98q15 -22 22.5 -48.5t7.5 -56.5q0 -26 -7.5 -53t-22.5 -49l100 -100l-71 -70l-103 103q-22 -11 -48.5 -17.5
t-52.5 -6.5q-29 0 -54 6.5t-47 17.5zM311 253q28 0 51 12t36 34t13 49q0 29 -13.5 51t-35.5 34.5t-51 12.5q-28 0 -50.5 -12.5t-35.5 -34.5t-13 -51q0 -28 13 -49.5t35.5 -33.5t50.5 -12z" />
    <glyph glyph-name="yen" unicode="&#xa5;" horiz-adv-x="686" 
d="M280 0v116h-180v89h180v86h-180v90h127l-196 348h137l171 -332h7l174 332h135l-193 -348h125v-90h-180v-86h180v-89h-180v-116h-127z" />
    <glyph glyph-name="brokenbar" unicode="&#xa6;" horiz-adv-x="288" 
d="M88 396v333h113v-333h-113zM88 -67v333h113v-333h-113z" />
    <glyph glyph-name="section" unicode="&#xa7;" horiz-adv-x="570" 
d="M274 -10q-52 0 -93.5 12.5t-71.5 35t-46 54t-17 70.5h123q3 -29 16.5 -47t37.5 -26.5t55 -8.5q47 0 72 16t25 47q0 24 -12 38t-39 22.5t-74 17.5q-55 11 -95.5 26t-62.5 42.5t-22 74.5q0 33 16.5 61.5t45.5 48.5q-27 19 -40 44.5t-13 60.5q0 48 27.5 84t76.5 56t114 20
q48 0 86 -11.5t65.5 -33t43.5 -52t19 -67.5h-123q-1 27 -13 43t-32.5 23.5t-48.5 7.5q-42 0 -66 -16t-24 -46q0 -33 31 -48t94 -25q60 -11 100.5 -27.5t61 -46.5t20.5 -78q0 -33 -15 -59t-41 -44q23 -20 35 -46.5t12 -60.5q0 -51 -28.5 -87t-79.5 -55.5t-120 -19.5zM363 297
q11 11 16.5 23t5.5 27q0 34 -22.5 49t-70.5 24q-21 4 -40.5 8.5t-35.5 10.5q-14 -11 -21.5 -24t-7.5 -28q0 -30 21.5 -44.5t68.5 -23.5q24 -4 46 -9t40 -13z" />
    <glyph glyph-name="dieresis" unicode="&#xa8;" horiz-adv-x="417" 
d="M313 752q-28 0 -46 15t-18 41q0 27 18 41.5t46 14.5t46 -14.5t18 -41.5q0 -26 -18 -41t-46 -15zM104 752q-28 0 -46 15t-18 41q0 27 18 41.5t46 14.5t46 -14.5t18 -41.5q0 -26 -18 -41t-46 -15z" />
    <glyph glyph-name="copyright" unicode="&#xa9;" horiz-adv-x="862" 
d="M438 162q-60 0 -104.5 25t-69.5 70.5t-25 106.5t25 106.5t71 71t107 25.5q52 0 91.5 -19t62.5 -52t26 -75h-91q-7 35 -32.5 51.5t-59.5 16.5t-57 -15.5t-35.5 -43.5t-12.5 -66q0 -41 13 -69t37 -42t54 -14q39 0 64 19.5t30 52.5h91q-3 -45 -27 -78.5t-64.5 -52
t-93.5 -18.5zM431 -9q-84 0 -154 26.5t-121 76t-79 118t-28 152.5t28 152.5t79 118.5t121 76.5t154 26.5t154 -26.5t121 -76.5t79 -118.5t28 -152.5t-28 -152.5t-79 -118t-121 -76t-154 -26.5zM431 48q96 0 167.5 39.5t112 111t40.5 165.5q0 95 -40.5 166.5t-112.5 111
t-167 39.5t-167 -39.5t-112.5 -111t-40.5 -166.5q0 -94 40 -165.5t112.5 -111t167.5 -39.5z" />
    <glyph glyph-name="ordfeminine" unicode="&#xaa;" horiz-adv-x="457" 
d="M184 377q-41 0 -72.5 20.5t-49 60.5t-17.5 99t17.5 99t49 60.5t72.5 20.5q42 0 71.5 -19t41.5 -50h5l3 62h85v-347h-88v63h-5q-12 -31 -42 -50t-71 -19zM218 448q28 0 46.5 13t27.5 34t9 44v35q0 23 -9 44t-27.5 34.5t-46.5 13.5q-25 0 -43.5 -12t-29 -36t-10.5 -61
q0 -54 22.5 -81.5t60.5 -27.5z" />
    <glyph glyph-name="guillemotleft" unicode="&#xab;" horiz-adv-x="513" 
d="M160 71l-125 231l125 230h108l-110 -230l110 -231h-108zM370 71l-125 231l125 230h108l-110 -230l110 -231h-108z" />
    <glyph glyph-name="logicalnot" unicode="&#xac;" 
d="M425 145v172h-379v98h475v-270h-96z" />
    <glyph glyph-name="registered" unicode="&#xae;" horiz-adv-x="634" 
d="M316 217q-74 0 -133 33t-94 92t-35 136q0 58 20 105.5t55.5 82t83.5 53.5t103 19q74 0 134 -33t95 -91t35 -136q0 -57 -20 -105t-56.5 -83t-84 -54t-103.5 -19zM317 258q62 0 111.5 28t79 77.5t29.5 113.5q0 65 -29.5 115t-79 77.5t-111.5 27.5q-60 0 -110 -28t-79 -77.5
t-29 -114.5t29 -114t79 -77t110 -28zM210 346v267h135q49 0 72.5 -20.5t23.5 -53.5q0 -23 -12.5 -40t-33.5 -24v-1q23 -5 32 -18t9 -35v-47q0 -5 0.5 -13t2.5 -15h-61q-3 5 -4 10.5t-1 19.5v40q0 16 -7 24.5t-28 8.5h-77v43h71q23 0 34 10.5t11 26.5q0 19 -12.5 27t-32.5 8
h-60v-218h-62z" />
    <glyph glyph-name="macron" unicode="&#xaf;" horiz-adv-x="447" 
d="M40 754v94h367v-94h-367z" />
    <glyph glyph-name="degree" unicode="&#xb0;" horiz-adv-x="471" 
d="M235 410q-49 0 -88.5 20.5t-62.5 58t-23 86.5t23 85.5t62.5 57t88.5 20.5q51 0 90.5 -20.5t62.5 -57t23 -85.5t-23 -86.5t-62.5 -58t-90.5 -20.5zM235 494q36 0 59.5 22t23.5 59q0 36 -23.5 58t-59.5 22q-34 0 -58 -22t-24 -58q0 -37 24 -59t58 -22z" />
    <glyph glyph-name="plusminus" unicode="&#xb1;" 
d="M249 180v163h-198v99h198v162h102v-162h198v-99h-198v-163h-102zM51 0v89h498v-89h-498z" />
    <glyph glyph-name="uni00B2" unicode="&#xb2;" horiz-adv-x="381" 
d="M38 336v18q0 42 15.5 72.5t39.5 54.5t51.5 43.5t51.5 37.5t39.5 37.5t15.5 43.5q0 26 -17 41t-43 15q-32 0 -49.5 -19t-17.5 -47h-87q2 63 44 101.5t114 38.5q66 0 105 -35t39 -91q0 -32 -13 -57t-33.5 -44.5t-44.5 -36.5t-47.5 -32.5t-40.5 -31t-24 -33.5h202v-76h-300z
" />
    <glyph glyph-name="uni00B3" unicode="&#xb3;" horiz-adv-x="394" 
d="M190 330q-48 0 -82 17t-53 47.5t-21 69.5h85q2 -29 22 -45t49 -16q33 0 51.5 18t18.5 45q0 30 -17 44.5t-48 14.5h-47v64h41q32 0 49.5 16t17.5 41q0 27 -17 41t-46 14q-30 0 -48 -16t-20 -44h-86q2 42 22 71.5t54.5 45.5t80.5 16q33 0 60 -8t46 -23.5t29.5 -37
t10.5 -48.5q0 -34 -19 -59t-48 -35v-4q36 -9 55.5 -36t19.5 -64q0 -40 -21 -69t-56.5 -44.5t-82.5 -15.5z" />
    <glyph glyph-name="acute" unicode="&#xb4;" horiz-adv-x="264" 
d="M40 740l59 143h125l-88 -143h-96z" />
    <glyph glyph-name="paragraph" unicode="&#xb6;" horiz-adv-x="681" 
d="M248 0v367q-98 -3 -152 46.5t-54 132.5q0 59 24.5 99.5t70.5 62t111 21.5h397v-107h-88v-622h-119v622h-101v-622h-89z" />
    <glyph glyph-name="periodcentered" unicode="&#xb7;" horiz-adv-x="217" 
d="M109 203q-33 0 -54 21.5t-21 52.5q0 22 9.5 38.5t26.5 26t39 9.5q34 0 54.5 -21t20.5 -53q0 -21 -9.5 -38t-26.5 -26.5t-39 -9.5z" />
    <glyph glyph-name="cedilla" unicode="&#xb8;" horiz-adv-x="342" 
d="M176 -249q-49 0 -87 22t-49 67l78 21q4 -18 17.5 -28t33.5 -11q23 0 35.5 12t12.5 30q0 24 -21 35t-64 18l-12 25l46 75h58l-22 -59q46 -12 73 -38.5t27 -68.5q0 -47 -34.5 -73.5t-91.5 -26.5z" />
    <glyph glyph-name="uni00B9" unicode="&#xb9;" horiz-adv-x="286" 
d="M131 336v291h-109v66h19q42 0 66.5 21t28.5 55h83v-433h-88z" />
    <glyph glyph-name="ordmasculine" unicode="&#xba;" horiz-adv-x="428" 
d="M214 377q-51 0 -90 21.5t-61 62t-22 95.5q0 54 21 94.5t60 63t92 22.5q78 0 125.5 -47.5t47.5 -131.5q0 -54 -21 -94.5t-59 -63t-93 -22.5zM214 448q25 0 44 12.5t29.5 36.5t10.5 60t-10 60t-29 36t-45 12q-25 0 -44 -12t-29 -36t-10 -61q0 -35 10 -59t29 -36.5t44 -12.5
z" />
    <glyph glyph-name="guillemotright" unicode="&#xbb;" horiz-adv-x="513" 
d="M353 532l126 -231l-126 -230h-107l109 230l-109 231h107zM143 532l125 -231l-125 -230h-108l110 230l-110 231h108z" />
    <glyph glyph-name="onequarter" unicode="&#xbc;" horiz-adv-x="740" 
d="M123 345v258h-99v60h17q38 0 60.5 18t25.5 48h74v-384h-78zM42 0l496 721h95l-497 -721h-94zM573 0v353l33 -11l-137 -190h246v-64h-324v58l166 238h94v-384h-78z" />
    <glyph glyph-name="onehalf" unicode="&#xbd;" horiz-adv-x="758" 
d="M123 345v258h-99v60h17q38 0 60.5 18t25.5 48h74v-384h-78zM42 0l496 721h95l-497 -721h-94zM443 0v17q0 36 13.5 63.5t35.5 49t47 38.5t47 33t36 33.5t14 38.5q0 23 -15 36t-40 13q-29 0 -45.5 -16.5t-15.5 -42.5h-78q2 57 40.5 91t102.5 34q59 0 94.5 -31t35.5 -81
q0 -28 -11.5 -50t-30.5 -40t-41 -33t-43.5 -28.5t-37 -27.5t-21.5 -30h184v-67h-271z" />
    <glyph glyph-name="threequarters" unicode="&#xbe;" horiz-adv-x="829" 
d="M177 340q-64 0 -101.5 33t-39.5 86h76q0 -25 19 -39.5t46 -14.5q30 0 47 15.5t17 40.5t-15.5 38.5t-43.5 13.5h-43v57h37q29 0 45.5 14t16.5 37t-15.5 35.5t-42.5 12.5q-26 0 -43.5 -13.5t-19.5 -39.5h-76q2 55 40.5 86.5t100.5 31.5q30 0 54.5 -7.5t42 -21t27 -32.5
t9.5 -43q0 -29 -17 -51.5t-44 -31.5v-4q31 -8 49 -31.5t18 -56.5q0 -54 -40.5 -84.5t-103.5 -30.5zM131 0l496 721h95l-497 -721h-94zM661 0v353l33 -11l-137 -190h246v-64h-324v58l166 238h94v-384h-78z" />
    <glyph glyph-name="questiondown" unicode="&#xbf;" horiz-adv-x="548" 
d="M324 330v-18q0 -35 -11 -63.5t-29.5 -52.5t-38.5 -46.5t-38.5 -45t-30 -47t-11.5 -54.5q0 -34 14 -57t39 -34.5t58 -11.5q56 0 88 32.5t32 82.5h122q1 -66 -30 -115.5t-87 -77.5t-131 -28q-59 0 -102.5 14t-72.5 40t-43.5 62.5t-14.5 80.5q0 40 12.5 72.5t32 59t42 50.5
t42.5 46.5t32.5 46.5t12.5 51v13h113zM271 540q29 0 47.5 -17t18.5 -46q0 -28 -18.5 -45t-47.5 -17q-30 0 -48.5 17t-18.5 45q0 29 18.5 46t48.5 17z" />
    <glyph glyph-name="Agrave" unicode="&#xc0;" horiz-adv-x="728" 
d="M20 0l250 729h188l250 -729h-138l-174 535l-28 93h-7l-29 -93l-174 -535h-138zM199 160l26 103h278l26 -103h-330zM316 794l-89 143h125l59 -143h-95z" />
    <glyph glyph-name="Aacute" unicode="&#xc1;" horiz-adv-x="728" 
d="M20 0l250 729h188l250 -729h-138l-174 535l-28 93h-7l-29 -93l-174 -535h-138zM199 160l26 103h278l26 -103h-330zM317 794l59 143h125l-88 -143h-96z" />
    <glyph glyph-name="Acircumflex" unicode="&#xc2;" horiz-adv-x="728" 
d="M20 0l250 729h188l250 -729h-138l-174 535l-28 93h-7l-29 -93l-174 -535h-138zM199 160l26 103h278l26 -103h-330zM193 794l110 143h123l110 -143h-107l-65 85l-64 -85h-107z" />
    <glyph glyph-name="Atilde" unicode="&#xc3;" horiz-adv-x="728" 
d="M20 0l250 729h188l250 -729h-138l-174 535l-28 93h-7l-29 -93l-174 -535h-138zM199 160l26 103h278l26 -103h-330zM436 807q-31 0 -55 8t-44 16t-43 8q-20 0 -35 -8.5t-27 -25.5l-56 33q18 33 35.5 51t37.5 25.5t42 7.5q26 0 50 -8t47 -16t45 -8q19 0 35 8t29 26l57 -33
q-15 -32 -33.5 -50.5t-39.5 -26t-45 -7.5z" />
    <glyph glyph-name="Adieresis" unicode="&#xc4;" horiz-adv-x="728" 
d="M20 0l250 729h188l250 -729h-138l-174 535l-28 93h-7l-29 -93l-174 -535h-138zM199 160l26 103h278l26 -103h-330zM469 806q-28 0 -46 15t-18 41q0 27 18 41.5t46 14.5t46 -14.5t18 -41.5q0 -26 -18 -41t-46 -15zM260 806q-28 0 -46 15t-18 41q0 27 18 41.5t46 14.5
t46 -14.5t18 -41.5q0 -26 -18 -41t-46 -15z" />
    <glyph glyph-name="Aring" unicode="&#xc5;" horiz-adv-x="728" 
d="M20 0l250 729h188l250 -729h-138l-174 535l-28 93h-7l-29 -93l-174 -535h-138zM199 160l26 103h278l26 -103h-330zM365 776q-51 0 -82.5 29.5t-31.5 76.5q0 48 31.5 76.5t82.5 28.5t82 -28.5t31 -76.5q0 -47 -31 -76.5t-82 -29.5zM365 834q21 0 34 13t13 35q0 21 -13 34
t-34 13q-22 0 -35 -13t-13 -34q0 -22 13 -35t35 -13z" />
    <glyph glyph-name="AE" unicode="&#xc6;" horiz-adv-x="952" 
d="M20 0l250 729h645v-114h-420l68 -190h303v-107h-268l73 -204h246v-114h-347l-53 160h-306l-53 -160h-138zM241 263h247l-92 272l-28 93h-7l-29 -93z" />
    <glyph glyph-name="Ccedilla" unicode="&#xc7;" horiz-adv-x="770" 
d="M402 -9q-82 0 -148.5 25.5t-114.5 73.5t-73.5 117.5t-25.5 157.5t25.5 157t73.5 117t114.5 73.5t148.5 25.5q92 0 164 -32t117 -89.5t55 -135.5h-135q-9 43 -36 75t-69 50t-96 18q-69 0 -119.5 -29.5t-78.5 -87.5t-28 -142q0 -63 16 -112t45.5 -82t71 -49.5t93.5 -16.5
q53 0 95 18t70 50.5t36 75.5h135q-9 -77 -54.5 -135.5t-117.5 -90.5t-164 -32zM387 -249q-49 0 -87 22t-49 67l78 21q4 -18 17.5 -28t33.5 -11q23 0 35.5 12t12.5 30q0 24 -21 35t-64 18l-12 25l46 75h58l-22 -59q46 -12 73 -38.5t27 -68.5q0 -47 -34.5 -73.5t-91.5 -26.5z
" />
    <glyph glyph-name="Egrave" unicode="&#xc8;" horiz-adv-x="631" 
d="M74 0v729h520v-114h-416l28 29v-559l-28 29h418v-114h-522zM178 318v107h367v-107h-367zM270 794l-89 143h125l59 -143h-95z" />
    <glyph glyph-name="Eacute" unicode="&#xc9;" horiz-adv-x="631" 
d="M74 0v729h520v-114h-416l28 29v-559l-28 29h418v-114h-522zM178 318v107h367v-107h-367zM270 794l59 143h125l-88 -143h-96z" />
    <glyph glyph-name="Ecircumflex" unicode="&#xca;" horiz-adv-x="631" 
d="M74 0v729h520v-114h-416l28 29v-559l-28 29h418v-114h-522zM178 318v107h367v-107h-367zM147 794l110 143h123l110 -143h-107l-65 85l-64 -85h-107z" />
    <glyph glyph-name="Edieresis" unicode="&#xcb;" horiz-adv-x="631" 
d="M74 0v729h520v-114h-416l28 29v-559l-28 29h418v-114h-522zM178 318v107h367v-107h-367zM423 806q-28 0 -46 15t-18 41q0 27 18 41.5t46 14.5t46 -14.5t18 -41.5q0 -26 -18 -41t-46 -15zM214 806q-28 0 -46 15t-18 41q0 27 18 41.5t46 14.5t46 -14.5t18 -41.5
q0 -26 -18 -41t-46 -15z" />
    <glyph glyph-name="Igrave" unicode="&#xcc;" horiz-adv-x="280" 
d="M74 0v729h132v-729h-132zM93 794l-89 143h125l59 -143h-95z" />
    <glyph glyph-name="Iacute" unicode="&#xcd;" horiz-adv-x="280" 
d="M74 0v729h132v-729h-132zM93 794l59 143h125l-88 -143h-96z" />
    <glyph glyph-name="Icircumflex" unicode="&#xce;" horiz-adv-x="280" 
d="M74 0v729h132v-729h-132zM-31 794l110 143h123l110 -143h-107l-65 85l-64 -85h-107z" />
    <glyph glyph-name="Idieresis" unicode="&#xcf;" horiz-adv-x="280" 
d="M74 0v729h132v-729h-132zM245 806q-28 0 -46 15t-18 41q0 27 18 41.5t46 14.5t46 -14.5t18 -41.5q0 -26 -18 -41t-46 -15zM36 806q-28 0 -46 15t-18 41q0 27 18 41.5t46 14.5t46 -14.5t18 -41.5q0 -26 -18 -41t-46 -15z" />
    <glyph glyph-name="Eth" unicode="&#xd0;" horiz-adv-x="791" 
d="M116 0v729h303q106 0 180.5 -45.5t113.5 -127.5t39 -192q0 -81 -22 -148.5t-65 -115.5t-104.5 -74t-141.5 -26h-303zM248 114h150q48 0 88 14t69 44.5t45 78.5t16 116q0 89 -27.5 143.5t-76.5 80t-114 25.5h-150v-502zM24 320v96h387v-96h-387z" />
    <glyph glyph-name="Ntilde" unicode="&#xd1;" horiz-adv-x="779" 
d="M74 0v729h164l339 -545h6l-6 234v311h128v-729h-156l-340 540h-6l6 -218v-322h-135zM461 807q-31 0 -55 8t-44 16t-43 8q-20 0 -35 -8.5t-27 -25.5l-56 33q18 33 35.5 51t37.5 25.5t42 7.5q26 0 50 -8t47 -16t45 -8q19 0 35 8t29 26l57 -33q-15 -32 -33.5 -50.5
t-39.5 -26t-45 -7.5z" />
    <glyph glyph-name="Ograve" unicode="&#xd2;" horiz-adv-x="805" 
d="M402 -9q-82 0 -148.5 25.5t-114.5 73.5t-73.5 117.5t-25.5 157.5t25.5 157t73.5 117t114.5 73.5t148.5 25.5t149 -25.5t115 -74t73.5 -117t25.5 -156.5t-25.5 -157.5t-74 -117.5t-115 -73.5t-148.5 -25.5zM402 105q70 0 121 30t78.5 88t27.5 142q0 63 -16 111t-45.5 81
t-71.5 50t-94 17q-69 0 -119.5 -29.5t-78.5 -87.5t-28 -142q0 -63 16 -112t45.5 -82t71 -49.5t93.5 -16.5zM355 794l-89 143h125l59 -143h-95z" />
    <glyph glyph-name="Oacute" unicode="&#xd3;" horiz-adv-x="805" 
d="M402 -9q-82 0 -148.5 25.5t-114.5 73.5t-73.5 117.5t-25.5 157.5t25.5 157t73.5 117t114.5 73.5t148.5 25.5t149 -25.5t115 -74t73.5 -117t25.5 -156.5t-25.5 -157.5t-74 -117.5t-115 -73.5t-148.5 -25.5zM402 105q70 0 121 30t78.5 88t27.5 142q0 63 -16 111t-45.5 81
t-71.5 50t-94 17q-69 0 -119.5 -29.5t-78.5 -87.5t-28 -142q0 -63 16 -112t45.5 -82t71 -49.5t93.5 -16.5zM355 794l59 143h125l-88 -143h-96z" />
    <glyph glyph-name="Ocircumflex" unicode="&#xd4;" horiz-adv-x="805" 
d="M402 -9q-82 0 -148.5 25.5t-114.5 73.5t-73.5 117.5t-25.5 157.5t25.5 157t73.5 117t114.5 73.5t148.5 25.5t149 -25.5t115 -74t73.5 -117t25.5 -156.5t-25.5 -157.5t-74 -117.5t-115 -73.5t-148.5 -25.5zM402 105q70 0 121 30t78.5 88t27.5 142q0 63 -16 111t-45.5 81
t-71.5 50t-94 17q-69 0 -119.5 -29.5t-78.5 -87.5t-28 -142q0 -63 16 -112t45.5 -82t71 -49.5t93.5 -16.5zM231 794l110 143h123l110 -143h-107l-65 85l-64 -85h-107z" />
    <glyph glyph-name="Otilde" unicode="&#xd5;" horiz-adv-x="805" 
d="M402 -9q-82 0 -148.5 25.5t-114.5 73.5t-73.5 117.5t-25.5 157.5t25.5 157t73.5 117t114.5 73.5t148.5 25.5t149 -25.5t115 -74t73.5 -117t25.5 -156.5t-25.5 -157.5t-74 -117.5t-115 -73.5t-148.5 -25.5zM402 105q70 0 121 30t78.5 88t27.5 142q0 63 -16 111t-45.5 81
t-71.5 50t-94 17q-69 0 -119.5 -29.5t-78.5 -87.5t-28 -142q0 -63 16 -112t45.5 -82t71 -49.5t93.5 -16.5zM474 807q-31 0 -55 8t-44 16t-43 8q-20 0 -35 -8.5t-27 -25.5l-56 33q18 33 35.5 51t37.5 25.5t42 7.5q26 0 50 -8t47 -16t45 -8q19 0 35 8t29 26l57 -33
q-15 -32 -33.5 -50.5t-39.5 -26t-45 -7.5z" />
    <glyph glyph-name="Odieresis" unicode="&#xd6;" horiz-adv-x="805" 
d="M402 -9q-82 0 -148.5 25.5t-114.5 73.5t-73.5 117.5t-25.5 157.5t25.5 157t73.5 117t114.5 73.5t148.5 25.5t149 -25.5t115 -74t73.5 -117t25.5 -156.5t-25.5 -157.5t-74 -117.5t-115 -73.5t-148.5 -25.5zM402 105q70 0 121 30t78.5 88t27.5 142q0 63 -16 111t-45.5 81
t-71.5 50t-94 17q-69 0 -119.5 -29.5t-78.5 -87.5t-28 -142q0 -63 16 -112t45.5 -82t71 -49.5t93.5 -16.5zM507 806q-28 0 -46 15t-18 41q0 27 18 41.5t46 14.5t46 -14.5t18 -41.5q0 -26 -18 -41t-46 -15zM298 806q-28 0 -46 15t-18 41q0 27 18 41.5t46 14.5t46 -14.5
t18 -41.5q0 -26 -18 -41t-46 -15z" />
    <glyph glyph-name="multiply" unicode="&#xd7;" 
d="M153 145l-68 68l148 148l-148 148l68 68l148 -148l148 148l68 -68l-148 -148l148 -148l-68 -68l-148 148z" />
    <glyph glyph-name="Oslash" unicode="&#xd8;" horiz-adv-x="805" 
d="M402 -9q-82 0 -148.5 25.5t-114.5 73.5t-73.5 117.5t-25.5 157.5t25.5 157t73.5 117t114.5 73.5t148.5 25.5t149 -25.5t115 -74t73.5 -117t25.5 -156.5t-25.5 -157.5t-74 -117.5t-115 -73.5t-148.5 -25.5zM402 105q70 0 121 30t78.5 88t27.5 142q0 63 -16 111t-45.5 81
t-71.5 50t-94 17q-69 0 -119.5 -29.5t-78.5 -87.5t-28 -142q0 -63 16 -112t45.5 -82t71 -49.5t93.5 -16.5zM52 -40l597 810h103l-594 -810h-106z" />
    <glyph glyph-name="Ugrave" unicode="&#xd9;" horiz-adv-x="733" 
d="M366 -9q-96 0 -164 34.5t-104 98t-36 150.5v455h132v-454q0 -55 21 -92t59.5 -55.5t92.5 -18.5q58 0 96.5 20t57.5 57t19 89v454h131v-455q0 -88 -36.5 -151.5t-105 -97.5t-163.5 -34zM319 794l-89 143h125l59 -143h-95z" />
    <glyph glyph-name="Uacute" unicode="&#xda;" horiz-adv-x="733" 
d="M366 -9q-96 0 -164 34.5t-104 98t-36 150.5v455h132v-454q0 -55 21 -92t59.5 -55.5t92.5 -18.5q58 0 96.5 20t57.5 57t19 89v454h131v-455q0 -88 -36.5 -151.5t-105 -97.5t-163.5 -34zM320 794l59 143h125l-88 -143h-96z" />
    <glyph glyph-name="Ucircumflex" unicode="&#xdb;" horiz-adv-x="733" 
d="M366 -9q-96 0 -164 34.5t-104 98t-36 150.5v455h132v-454q0 -55 21 -92t59.5 -55.5t92.5 -18.5q58 0 96.5 20t57.5 57t19 89v454h131v-455q0 -88 -36.5 -151.5t-105 -97.5t-163.5 -34zM196 794l110 143h123l110 -143h-107l-65 85l-64 -85h-107z" />
    <glyph glyph-name="Udieresis" unicode="&#xdc;" horiz-adv-x="733" 
d="M366 -9q-96 0 -164 34.5t-104 98t-36 150.5v455h132v-454q0 -55 21 -92t59.5 -55.5t92.5 -18.5q58 0 96.5 20t57.5 57t19 89v454h131v-455q0 -88 -36.5 -151.5t-105 -97.5t-163.5 -34zM472 806q-28 0 -46 15t-18 41q0 27 18 41.5t46 14.5t46 -14.5t18 -41.5
q0 -26 -18 -41t-46 -15zM263 806q-28 0 -46 15t-18 41q0 27 18 41.5t46 14.5t46 -14.5t18 -41.5q0 -26 -18 -41t-46 -15z" />
    <glyph glyph-name="Yacute" unicode="&#xdd;" horiz-adv-x="706" 
d="M286 0v282l-270 447h152l107 -194l74 -137h6l75 137l109 194h151l-272 -447v-282h-132zM306 794l59 143h125l-88 -143h-96z" />
    <glyph glyph-name="Thorn" unicode="&#xde;" horiz-adv-x="652" 
d="M172 126v112h169q69 0 107 32.5t38 92.5q0 31 -10 54.5t-29 39t-45.5 23.5t-60.5 8h-169v113h185q61 0 110 -15.5t83 -46t52.5 -75t18.5 -101.5q0 -74 -32 -127.5t-91.5 -81.5t-140.5 -28h-185zM74 0v729h132v-729h-132z" />
    <glyph glyph-name="germandbls" unicode="&#xdf;" horiz-adv-x="672" 
d="M121 0v490q0 66 19 113.5t52.5 77.5t78 44t95.5 14q70 0 120.5 -24t78 -66.5t27.5 -99.5q0 -34 -11.5 -64t-33 -51.5t-52.5 -32.5v-7q41 -5 74 -28.5t52.5 -62t19.5 -88.5q0 -64 -28 -112.5t-84 -75.5t-141 -27h-72v101h59q45 0 75.5 14t47 42t16.5 71q0 55 -32.5 85
t-92.5 30h-55v82h29q55 0 84.5 28t29.5 73q0 46 -29.5 74.5t-82.5 28.5q-56 0 -87.5 -33t-31.5 -94v-502h-125zM20 432v100h178v-100h-178z" />
    <glyph glyph-name="agrave" unicode="&#xe0;" horiz-adv-x="627" 
d="M258 -9q-49 0 -89 18.5t-69 54t-44.5 87t-15.5 115.5q0 87 27.5 149t76.5 94.5t114 32.5q42 0 76.5 -13t59 -37t36.5 -56h7l5 96h118v-532h-118l-5 97h-7q-17 -48 -63 -77t-109 -29zM302 93q44 0 73.5 19.5t44.5 52.5t15 73v57q0 41 -15.5 74t-45 52t-69.5 19
q-45 0 -75.5 -20.5t-46.5 -59.5t-16 -94q0 -53 15.5 -92t45.5 -60t74 -21zM269 597l-89 143h125l59 -143h-95z" />
    <glyph glyph-name="aacute" unicode="&#xe1;" horiz-adv-x="627" 
d="M258 -9q-49 0 -89 18.5t-69 54t-44.5 87t-15.5 115.5q0 87 27.5 149t76.5 94.5t114 32.5q42 0 76.5 -13t59 -37t36.5 -56h7l5 96h118v-532h-118l-5 97h-7q-17 -48 -63 -77t-109 -29zM302 93q44 0 73.5 19.5t44.5 52.5t15 73v57q0 41 -15.5 74t-45 52t-69.5 19
q-45 0 -75.5 -20.5t-46.5 -59.5t-16 -94q0 -53 15.5 -92t45.5 -60t74 -21zM269 597l59 143h125l-88 -143h-96z" />
    <glyph glyph-name="acircumflex" unicode="&#xe2;" horiz-adv-x="627" 
d="M258 -9q-49 0 -89 18.5t-69 54t-44.5 87t-15.5 115.5q0 87 27.5 149t76.5 94.5t114 32.5q42 0 76.5 -13t59 -37t36.5 -56h7l5 96h118v-532h-118l-5 97h-7q-17 -48 -63 -77t-109 -29zM302 93q44 0 73.5 19.5t44.5 52.5t15 73v57q0 41 -15.5 74t-45 52t-69.5 19
q-45 0 -75.5 -20.5t-46.5 -59.5t-16 -94q0 -53 15.5 -92t45.5 -60t74 -21zM146 597l110 143h123l110 -143h-107l-65 85l-64 -85h-107z" />
    <glyph glyph-name="atilde" unicode="&#xe3;" horiz-adv-x="627" 
d="M258 -9q-49 0 -89 18.5t-69 54t-44.5 87t-15.5 115.5q0 87 27.5 149t76.5 94.5t114 32.5q42 0 76.5 -13t59 -37t36.5 -56h7l5 96h118v-532h-118l-5 97h-7q-17 -48 -63 -77t-109 -29zM302 93q44 0 73.5 19.5t44.5 52.5t15 73v57q0 41 -15.5 74t-45 52t-69.5 19
q-45 0 -75.5 -20.5t-46.5 -59.5t-16 -94q0 -53 15.5 -92t45.5 -60t74 -21zM389 610q-31 0 -55 8t-44 16t-43 8q-20 0 -35 -8.5t-27 -25.5l-56 33q18 33 35.5 51t37.5 25.5t42 7.5q26 0 50 -8t47 -16t45 -8q19 0 35 8t29 26l57 -33q-15 -32 -33.5 -50.5t-39.5 -26t-45 -7.5z
" />
    <glyph glyph-name="adieresis" unicode="&#xe4;" horiz-adv-x="627" 
d="M258 -9q-49 0 -89 18.5t-69 54t-44.5 87t-15.5 115.5q0 87 27.5 149t76.5 94.5t114 32.5q42 0 76.5 -13t59 -37t36.5 -56h7l5 96h118v-532h-118l-5 97h-7q-17 -48 -63 -77t-109 -29zM302 93q44 0 73.5 19.5t44.5 52.5t15 73v57q0 41 -15.5 74t-45 52t-69.5 19
q-45 0 -75.5 -20.5t-46.5 -59.5t-16 -94q0 -53 15.5 -92t45.5 -60t74 -21zM422 609q-28 0 -46 15t-18 41q0 27 18 41.5t46 14.5t46 -14.5t18 -41.5q0 -26 -18 -41t-46 -15zM213 609q-28 0 -46 15t-18 41q0 27 18 41.5t46 14.5t46 -14.5t18 -41.5q0 -26 -18 -41t-46 -15z" />
    <glyph glyph-name="aring" unicode="&#xe5;" horiz-adv-x="627" 
d="M258 -9q-49 0 -89 18.5t-69 54t-44.5 87t-15.5 115.5q0 87 27.5 149t76.5 94.5t114 32.5q42 0 76.5 -13t59 -37t36.5 -56h7l5 96h118v-532h-118l-5 97h-7q-17 -48 -63 -77t-109 -29zM302 93q44 0 73.5 19.5t44.5 52.5t15 73v57q0 41 -15.5 74t-45 52t-69.5 19
q-45 0 -75.5 -20.5t-46.5 -59.5t-16 -94q0 -53 15.5 -92t45.5 -60t74 -21zM317 579q-51 0 -82.5 29.5t-31.5 76.5q0 48 31.5 76.5t82.5 28.5t82 -28.5t31 -76.5q0 -47 -31 -76.5t-82 -29.5zM317 637q21 0 34 13t13 35q0 21 -13 34t-34 13q-22 0 -35 -13t-13 -34
q0 -22 13 -35t35 -13z" />
    <glyph glyph-name="ae" unicode="&#xe6;" horiz-adv-x="915" 
d="M209 -10q-80 0 -127 42.5t-47 110.5q0 44 17 76t47.5 53.5t72.5 32t92 10.5h167v-77h-143q-40 0 -68 -9t-43 -27.5t-15 -48.5q0 -34 22.5 -54.5t62.5 -20.5q31 0 59 12t46 36t18 62v155q0 39 -12.5 61t-34 31t-48.5 9q-31 0 -53.5 -9.5t-35.5 -26.5t-13 -40h-123
q1 52 30 91.5t80.5 61t120.5 21.5q60 0 103.5 -21t63.5 -55h7q28 36 75 56t101 20q65 0 113.5 -22t79.5 -63t43.5 -96.5t6.5 -122.5h-395v77h275q-1 44 -17.5 73t-45 43t-65.5 14q-38 0 -68 -16.5t-47.5 -46.5t-19.5 -72v-69q0 -37 9.5 -65.5t28 -48.5t44 -30t56.5 -10
q49 0 80 20t41 54h120q-8 -52 -41.5 -90.5t-86 -59t-117.5 -20.5q-74 0 -127.5 28.5t-82.5 78.5h-5q-13 -31 -43 -55t-71 -38.5t-87 -14.5z" />
    <glyph glyph-name="ccedilla" unicode="&#xe7;" horiz-adv-x="572" 
d="M298 -9q-59 0 -107 19.5t-83 56t-53 87t-18 112.5t18.5 113t53.5 87.5t84 56t109 19.5q66 0 117.5 -24.5t83 -68t35.5 -101.5h-122q-6 30 -22.5 50t-41 30.5t-53.5 10.5q-33 0 -58 -12.5t-42.5 -35.5t-26.5 -54.5t-9 -70.5q0 -57 17 -95t47.5 -57.5t70.5 -19.5
q34 0 59.5 12t41.5 33.5t20 49.5h121q-4 -60 -36.5 -104.5t-85 -69t-120.5 -24.5zM288 -249q-49 0 -87 22t-49 67l78 21q4 -18 17.5 -28t33.5 -11q23 0 35.5 12t12.5 30q0 24 -21 35t-64 18l-12 25l46 75h58l-22 -59q46 -12 73 -38.5t27 -68.5q0 -47 -34.5 -73.5
t-91.5 -26.5z" />
    <glyph glyph-name="egrave" unicode="&#xe8;" horiz-adv-x="583" 
d="M288 -9q-81 0 -137.5 33.5t-86.5 95t-30 143.5q0 85 30 147.5t86 96.5t133 34q88 0 144.5 -38.5t81.5 -106.5t17 -156h-370q0 -51 16.5 -85.5t46 -52t69.5 -17.5q47 0 76.5 20t39.5 53h118q-8 -52 -40 -89.5t-82 -57.5t-112 -20zM156 307l-11 13h271l-12 -14q2 49 -13 80
t-43 46t-65 15q-38 0 -66 -16t-44 -47.5t-17 -76.5zM245 597l-89 143h125l59 -143h-95z" />
    <glyph glyph-name="eacute" unicode="&#xe9;" horiz-adv-x="583" 
d="M288 -9q-81 0 -137.5 33.5t-86.5 95t-30 143.5q0 85 30 147.5t86 96.5t133 34q88 0 144.5 -38.5t81.5 -106.5t17 -156h-370q0 -51 16.5 -85.5t46 -52t69.5 -17.5q47 0 76.5 20t39.5 53h118q-8 -52 -40 -89.5t-82 -57.5t-112 -20zM156 307l-11 13h271l-12 -14q2 49 -13 80
t-43 46t-65 15q-38 0 -66 -16t-44 -47.5t-17 -76.5zM246 597l59 143h125l-88 -143h-96z" />
    <glyph glyph-name="ecircumflex" unicode="&#xea;" horiz-adv-x="583" 
d="M288 -9q-81 0 -137.5 33.5t-86.5 95t-30 143.5q0 85 30 147.5t86 96.5t133 34q88 0 144.5 -38.5t81.5 -106.5t17 -156h-370q0 -51 16.5 -85.5t46 -52t69.5 -17.5q47 0 76.5 20t39.5 53h118q-8 -52 -40 -89.5t-82 -57.5t-112 -20zM156 307l-11 13h271l-12 -14q2 49 -13 80
t-43 46t-65 15q-38 0 -66 -16t-44 -47.5t-17 -76.5zM122 597l110 143h123l110 -143h-107l-65 85l-64 -85h-107z" />
    <glyph glyph-name="edieresis" unicode="&#xeb;" horiz-adv-x="583" 
d="M288 -9q-81 0 -137.5 33.5t-86.5 95t-30 143.5q0 85 30 147.5t86 96.5t133 34q88 0 144.5 -38.5t81.5 -106.5t17 -156h-370q0 -51 16.5 -85.5t46 -52t69.5 -17.5q47 0 76.5 20t39.5 53h118q-8 -52 -40 -89.5t-82 -57.5t-112 -20zM156 307l-11 13h271l-12 -14q2 49 -13 80
t-43 46t-65 15q-38 0 -66 -16t-44 -47.5t-17 -76.5zM398 609q-28 0 -46 15t-18 41q0 27 18 41.5t46 14.5t46 -14.5t18 -41.5q0 -26 -18 -41t-46 -15zM189 609q-28 0 -46 15t-18 41q0 27 18 41.5t46 14.5t46 -14.5t18 -41.5q0 -26 -18 -41t-46 -15z" />
    <glyph glyph-name="igrave" unicode="&#xec;" horiz-adv-x="260" 
d="M67 0v532h125v-532h-125zM82 597l-89 143h125l59 -143h-95z" />
    <glyph glyph-name="iacute" unicode="&#xed;" horiz-adv-x="260" 
d="M67 0v532h125v-532h-125zM83 597l59 143h125l-88 -143h-96z" />
    <glyph glyph-name="icircumflex" unicode="&#xee;" horiz-adv-x="260" 
d="M67 0v532h125v-532h-125zM-41 597l110 143h123l110 -143h-107l-65 85l-64 -85h-107z" />
    <glyph glyph-name="idieresis" unicode="&#xef;" horiz-adv-x="260" 
d="M67 0v532h125v-532h-125zM235 609q-28 0 -46 15t-18 41q0 27 18 41.5t46 14.5t46 -14.5t18 -41.5q0 -26 -18 -41t-46 -15zM26 609q-28 0 -46 15t-18 41q0 27 18 41.5t46 14.5t46 -14.5t18 -41.5q0 -26 -18 -41t-46 -15z" />
    <glyph glyph-name="eth" unicode="&#xf0;" horiz-adv-x="564" 
d="M273 -9q-54 0 -97.5 17t-74.5 49.5t-47.5 78.5t-16.5 105q0 74 26.5 129t75 85t114.5 30q43 0 78.5 -17t56.5 -51l6 2q-21 55 -54 109.5t-73 105t-83 95.5h146q41 -47 76.5 -102.5t63 -115.5t42.5 -122t15 -124q0 -84 -30 -146t-87 -95t-137 -33zM282 95q40 0 67 18
t41 51.5t14 78.5q0 37 -8.5 65.5t-24.5 48t-39 29t-51 9.5q-39 0 -66 -18t-40.5 -51.5t-13.5 -79.5q0 -37 8.5 -65t24 -47t38 -29t50.5 -10zM147 525v80l356 83v-80z" />
    <glyph glyph-name="ntilde" unicode="&#xf1;" horiz-adv-x="620" 
d="M67 0v532h120l5 -101h6q23 56 70 83.5t105 27.5q40 0 74.5 -12.5t60 -39t40 -69t14.5 -102.5v-319h-125v292q0 50 -12 82.5t-36.5 48.5t-63.5 16q-42 0 -71.5 -20t-45.5 -53t-16 -73v-293h-125zM384 610q-31 0 -55 8t-44 16t-43 8q-20 0 -35 -8.5t-27 -25.5l-56 33
q18 33 35.5 51t37.5 25.5t42 7.5q26 0 50 -8t47 -16t45 -8q19 0 35 8t29 26l57 -33q-15 -32 -33.5 -50.5t-39.5 -26t-45 -7.5z" />
    <glyph glyph-name="ograve" unicode="&#xf2;" 
d="M301 -9q-60 0 -108 18.5t-83.5 54.5t-54 87t-18.5 115q0 82 31.5 144t90.5 97t142 35q59 0 107 -19t82.5 -55t53.5 -86.5t19 -115.5q0 -81 -31.5 -143t-90 -97t-140.5 -35zM300 94q41 0 72 19.5t48 58t17 94.5q0 42 -9.5 74.5t-27.5 54.5t-43 33t-56 11
q-41 0 -72.5 -19.5t-48.5 -58t-17 -95.5q0 -42 9.5 -74.5t27.5 -54t43.5 -32.5t56.5 -11zM252 597l-89 143h125l59 -143h-95z" />
    <glyph glyph-name="oacute" unicode="&#xf3;" 
d="M301 -9q-60 0 -108 18.5t-83.5 54.5t-54 87t-18.5 115q0 82 31.5 144t90.5 97t142 35q59 0 107 -19t82.5 -55t53.5 -86.5t19 -115.5q0 -81 -31.5 -143t-90 -97t-140.5 -35zM300 94q41 0 72 19.5t48 58t17 94.5q0 42 -9.5 74.5t-27.5 54.5t-43 33t-56 11
q-41 0 -72.5 -19.5t-48.5 -58t-17 -95.5q0 -42 9.5 -74.5t27.5 -54t43.5 -32.5t56.5 -11zM253 597l59 143h125l-88 -143h-96z" />
    <glyph glyph-name="ocircumflex" unicode="&#xf4;" 
d="M301 -9q-60 0 -108 18.5t-83.5 54.5t-54 87t-18.5 115q0 82 31.5 144t90.5 97t142 35q59 0 107 -19t82.5 -55t53.5 -86.5t19 -115.5q0 -81 -31.5 -143t-90 -97t-140.5 -35zM300 94q41 0 72 19.5t48 58t17 94.5q0 42 -9.5 74.5t-27.5 54.5t-43 33t-56 11
q-41 0 -72.5 -19.5t-48.5 -58t-17 -95.5q0 -42 9.5 -74.5t27.5 -54t43.5 -32.5t56.5 -11zM129 597l110 143h123l110 -143h-107l-65 85l-64 -85h-107z" />
    <glyph glyph-name="otilde" unicode="&#xf5;" 
d="M301 -9q-60 0 -108 18.5t-83.5 54.5t-54 87t-18.5 115q0 82 31.5 144t90.5 97t142 35q59 0 107 -19t82.5 -55t53.5 -86.5t19 -115.5q0 -81 -31.5 -143t-90 -97t-140.5 -35zM300 94q41 0 72 19.5t48 58t17 94.5q0 42 -9.5 74.5t-27.5 54.5t-43 33t-56 11
q-41 0 -72.5 -19.5t-48.5 -58t-17 -95.5q0 -42 9.5 -74.5t27.5 -54t43.5 -32.5t56.5 -11zM372 610q-31 0 -55 8t-44 16t-43 8q-20 0 -35 -8.5t-27 -25.5l-56 33q18 33 35.5 51t37.5 25.5t42 7.5q26 0 50 -8t47 -16t45 -8q19 0 35 8t29 26l57 -33q-15 -32 -33.5 -50.5
t-39.5 -26t-45 -7.5z" />
    <glyph glyph-name="odieresis" unicode="&#xf6;" 
d="M301 -9q-60 0 -108 18.5t-83.5 54.5t-54 87t-18.5 115q0 82 31.5 144t90.5 97t142 35q59 0 107 -19t82.5 -55t53.5 -86.5t19 -115.5q0 -81 -31.5 -143t-90 -97t-140.5 -35zM300 94q41 0 72 19.5t48 58t17 94.5q0 42 -9.5 74.5t-27.5 54.5t-43 33t-56 11
q-41 0 -72.5 -19.5t-48.5 -58t-17 -95.5q0 -42 9.5 -74.5t27.5 -54t43.5 -32.5t56.5 -11zM405 609q-28 0 -46 15t-18 41q0 27 18 41.5t46 14.5t46 -14.5t18 -41.5q0 -26 -18 -41t-46 -15zM196 609q-28 0 -46 15t-18 41q0 27 18 41.5t46 14.5t46 -14.5t18 -41.5
q0 -26 -18 -41t-46 -15z" />
    <glyph glyph-name="divide" unicode="&#xf7;" 
d="M51 311v99h498v-99h-498zM244 135v102h113v-102h-113zM244 484v103h113v-103h-113z" />
    <glyph glyph-name="oslash" unicode="&#xf8;" 
d="M301 -9q-60 0 -108 18.5t-83.5 54.5t-54 87t-18.5 115q0 82 31.5 144t90.5 97t142 35q59 0 107 -19t82.5 -55t53.5 -86.5t19 -115.5q0 -81 -31.5 -143t-90 -97t-140.5 -35zM300 94q41 0 72 19.5t48 58t17 94.5q0 42 -9.5 74.5t-27.5 54.5t-43 33t-56 11
q-41 0 -72.5 -19.5t-48.5 -58t-17 -95.5q0 -42 9.5 -74.5t27.5 -54t43.5 -32.5t56.5 -11zM19 -60l481 652h80l-479 -652h-82z" />
    <glyph glyph-name="ugrave" unicode="&#xf9;" horiz-adv-x="620" 
d="M249 -9q-60 0 -103 24t-65.5 71.5t-22.5 115.5v330h125v-297q0 -45 12 -76.5t37 -48.5t65 -17t69.5 20t45.5 53.5t16 75.5v290h125v-532h-120l-5 103h-6q-20 -54 -66.5 -83t-106.5 -29zM258 597l-89 143h125l59 -143h-95z" />
    <glyph glyph-name="uacute" unicode="&#xfa;" horiz-adv-x="620" 
d="M249 -9q-60 0 -103 24t-65.5 71.5t-22.5 115.5v330h125v-297q0 -45 12 -76.5t37 -48.5t65 -17t69.5 20t45.5 53.5t16 75.5v290h125v-532h-120l-5 103h-6q-20 -54 -66.5 -83t-106.5 -29zM258 597l59 143h125l-88 -143h-96z" />
    <glyph glyph-name="ucircumflex" unicode="&#xfb;" horiz-adv-x="620" 
d="M249 -9q-60 0 -103 24t-65.5 71.5t-22.5 115.5v330h125v-297q0 -45 12 -76.5t37 -48.5t65 -17t69.5 20t45.5 53.5t16 75.5v290h125v-532h-120l-5 103h-6q-20 -54 -66.5 -83t-106.5 -29zM135 597l110 143h123l110 -143h-107l-65 85l-64 -85h-107z" />
    <glyph glyph-name="udieresis" unicode="&#xfc;" horiz-adv-x="620" 
d="M249 -9q-60 0 -103 24t-65.5 71.5t-22.5 115.5v330h125v-297q0 -45 12 -76.5t37 -48.5t65 -17t69.5 20t45.5 53.5t16 75.5v290h125v-532h-120l-5 103h-6q-20 -54 -66.5 -83t-106.5 -29zM411 609q-28 0 -46 15t-18 41q0 27 18 41.5t46 14.5t46 -14.5t18 -41.5
q0 -26 -18 -41t-46 -15zM202 609q-28 0 -46 15t-18 41q0 27 18 41.5t46 14.5t46 -14.5t18 -41.5q0 -26 -18 -41t-46 -15z" />
    <glyph glyph-name="yacute" unicode="&#xfd;" horiz-adv-x="554" 
d="M58 -167v103h60q23 0 39 6t27 19t19 33l28 73v-53l-217 518h138l95 -276l33 -100h5l31 100l89 276h134l-214 -567q-19 -51 -45.5 -80t-61 -40.5t-78.5 -11.5h-82zM229 597l59 143h125l-88 -143h-96z" />
    <glyph glyph-name="thorn" unicode="&#xfe;" horiz-adv-x="627" 
d="M67 -167v896h125v-294h6q17 48 63 77.5t109 29.5q49 0 89 -19t69 -54.5t44.5 -86.5t15.5 -116q0 -86 -27.5 -148t-76.5 -95t-114 -33q-42 0 -77 13.5t-59.5 37.5t-35.5 55h-6v-263h-125zM323 92q44 0 75 21t46.5 60.5t15.5 92.5q0 54 -15 93t-45 60t-74 21t-74 -19.5
t-45 -53t-15 -73.5v-57q0 -41 16 -73.5t45 -52t70 -19.5z" />
    <glyph glyph-name="ydieresis" unicode="&#xff;" horiz-adv-x="554" 
d="M58 -167v103h60q23 0 39 6t27 19t19 33l28 73v-53l-217 518h138l95 -276l33 -100h5l31 100l89 276h134l-214 -567q-19 -51 -45.5 -80t-61 -40.5t-78.5 -11.5h-82zM382 609q-28 0 -46 15t-18 41q0 27 18 41.5t46 14.5t46 -14.5t18 -41.5q0 -26 -18 -41t-46 -15zM173 609
q-28 0 -46 15t-18 41q0 27 18 41.5t46 14.5t46 -14.5t18 -41.5q0 -26 -18 -41t-46 -15z" />
    <glyph glyph-name="Amacron" unicode="&#x100;" horiz-adv-x="728" 
d="M20 0l250 729h188l250 -729h-138l-174 535l-28 93h-7l-29 -93l-174 -535h-138zM199 160l26 103h278l26 -103h-330zM180 808v94h367v-94h-367z" />
    <glyph glyph-name="amacron" unicode="&#x101;" horiz-adv-x="627" 
d="M258 -9q-49 0 -89 18.5t-69 54t-44.5 87t-15.5 115.5q0 87 27.5 149t76.5 94.5t114 32.5q42 0 76.5 -13t59 -37t36.5 -56h7l5 96h118v-532h-118l-5 97h-7q-17 -48 -63 -77t-109 -29zM302 93q44 0 73.5 19.5t44.5 52.5t15 73v57q0 41 -15.5 74t-45 52t-69.5 19
q-45 0 -75.5 -20.5t-46.5 -59.5t-16 -94q0 -53 15.5 -92t45.5 -60t74 -21zM133 611v94h367v-94h-367z" />
    <glyph glyph-name="Abreve" unicode="&#x102;" horiz-adv-x="728" 
d="M20 0l250 729h188l250 -729h-138l-174 535l-28 93h-7l-29 -93l-174 -535h-138zM199 160l26 103h278l26 -103h-330zM364 786q-48 0 -83 18t-54.5 51t-19.5 79h84q0 -39 20 -59t53 -20q34 0 53.5 20t19.5 59h84q0 -69 -42.5 -108.5t-114.5 -39.5z" />
    <glyph glyph-name="abreve" unicode="&#x103;" horiz-adv-x="627" 
d="M258 -9q-49 0 -89 18.5t-69 54t-44.5 87t-15.5 115.5q0 87 27.5 149t76.5 94.5t114 32.5q42 0 76.5 -13t59 -37t36.5 -56h7l5 96h118v-532h-118l-5 97h-7q-17 -48 -63 -77t-109 -29zM302 93q44 0 73.5 19.5t44.5 52.5t15 73v57q0 41 -15.5 74t-45 52t-69.5 19
q-45 0 -75.5 -20.5t-46.5 -59.5t-16 -94q0 -53 15.5 -92t45.5 -60t74 -21zM317 589q-48 0 -83 18t-54.5 51t-19.5 79h84q0 -39 20 -59t53 -20q34 0 53.5 20t19.5 59h84q0 -69 -42.5 -108.5t-114.5 -39.5z" />
    <glyph glyph-name="Aogonek" unicode="&#x104;" horiz-adv-x="728" 
d="M20 0l250 729h188l250 -729h-138l-174 535l-28 93h-7l-29 -93l-174 -535h-138zM199 160l26 103h278l26 -103h-330zM634 -216q-53 0 -84 24t-31 65q0 26 13.5 51.5t39.5 48t63 41.5h65l9 -14q-37 -25 -59 -51t-22 -56q0 -22 13 -34t37 -12q12 0 22.5 3t20.5 7v-57
q-16 -7 -40 -11.5t-47 -4.5z" />
    <glyph glyph-name="aogonek" unicode="&#x105;" horiz-adv-x="627" 
d="M258 -9q-49 0 -89 18.5t-69 54t-44.5 87t-15.5 115.5q0 87 27.5 149t76.5 94.5t114 32.5q42 0 76.5 -13t59 -37t36.5 -56h7l5 96h118v-532h-118l-5 97h-7q-17 -48 -63 -77t-109 -29zM302 93q44 0 73.5 19.5t44.5 52.5t15 73v57q0 41 -15.5 74t-45 52t-69.5 19
q-45 0 -75.5 -20.5t-46.5 -59.5t-16 -94q0 -53 15.5 -92t45.5 -60t74 -21zM486 -216q-53 0 -84 24t-31 65q0 26 13.5 51.5t39.5 48t63 41.5h65l9 -14q-37 -25 -59 -51t-22 -56q0 -22 13 -34t37 -12q12 0 22.5 3t20.5 7v-57q-16 -7 -40 -11.5t-47 -4.5z" />
    <glyph glyph-name="Cacute" unicode="&#x106;" horiz-adv-x="770" 
d="M402 -9q-82 0 -148.5 25.5t-114.5 73.5t-73.5 117.5t-25.5 157.5t25.5 157t73.5 117t114.5 73.5t148.5 25.5q92 0 164 -32t117 -89.5t55 -135.5h-135q-9 43 -36 75t-69 50t-96 18q-69 0 -119.5 -29.5t-78.5 -87.5t-28 -142q0 -63 16 -112t45.5 -82t71 -49.5t93.5 -16.5
q53 0 95 18t70 50.5t36 75.5h135q-9 -77 -54.5 -135.5t-117.5 -90.5t-164 -32zM350 794l59 143h125l-88 -143h-96z" />
    <glyph glyph-name="cacute" unicode="&#x107;" horiz-adv-x="572" 
d="M298 -9q-59 0 -107 19.5t-83 56t-53 87t-18 112.5t18.5 113t53.5 87.5t84 56t109 19.5q66 0 117.5 -24.5t83 -68t35.5 -101.5h-122q-6 30 -22.5 50t-41 30.5t-53.5 10.5q-33 0 -58 -12.5t-42.5 -35.5t-26.5 -54.5t-9 -70.5q0 -57 17 -95t47.5 -57.5t70.5 -19.5
q34 0 59.5 12t41.5 33.5t20 49.5h121q-4 -60 -36.5 -104.5t-85 -69t-120.5 -24.5zM252 597l59 143h125l-88 -143h-96z" />
    <glyph glyph-name="Ccircumflex" unicode="&#x108;" horiz-adv-x="770" 
d="M402 -9q-82 0 -148.5 25.5t-114.5 73.5t-73.5 117.5t-25.5 157.5t25.5 157t73.5 117t114.5 73.5t148.5 25.5q92 0 164 -32t117 -89.5t55 -135.5h-135q-9 43 -36 75t-69 50t-96 18q-69 0 -119.5 -29.5t-78.5 -87.5t-28 -142q0 -63 16 -112t45.5 -82t71 -49.5t93.5 -16.5
q53 0 95 18t70 50.5t36 75.5h135q-9 -77 -54.5 -135.5t-117.5 -90.5t-164 -32zM226 794l110 143h123l110 -143h-107l-65 85l-64 -85h-107z" />
    <glyph glyph-name="ccircumflex" unicode="&#x109;" horiz-adv-x="572" 
d="M298 -9q-59 0 -107 19.5t-83 56t-53 87t-18 112.5t18.5 113t53.5 87.5t84 56t109 19.5q66 0 117.5 -24.5t83 -68t35.5 -101.5h-122q-6 30 -22.5 50t-41 30.5t-53.5 10.5q-33 0 -58 -12.5t-42.5 -35.5t-26.5 -54.5t-9 -70.5q0 -57 17 -95t47.5 -57.5t70.5 -19.5
q34 0 59.5 12t41.5 33.5t20 49.5h121q-4 -60 -36.5 -104.5t-85 -69t-120.5 -24.5zM128 597l110 143h123l110 -143h-107l-65 85l-64 -85h-107z" />
    <glyph glyph-name="Cdotaccent" unicode="&#x10a;" horiz-adv-x="770" 
d="M402 -9q-82 0 -148.5 25.5t-114.5 73.5t-73.5 117.5t-25.5 157.5t25.5 157t73.5 117t114.5 73.5t148.5 25.5q92 0 164 -32t117 -89.5t55 -135.5h-135q-9 43 -36 75t-69 50t-96 18q-69 0 -119.5 -29.5t-78.5 -87.5t-28 -142q0 -63 16 -112t45.5 -82t71 -49.5t93.5 -16.5
q53 0 95 18t70 50.5t36 75.5h135q-9 -77 -54.5 -135.5t-117.5 -90.5t-164 -32zM398 801q-30 0 -49.5 16.5t-19.5 44.5q0 29 19.5 45t49.5 16t49.5 -16t19.5 -45q0 -28 -19.5 -44.5t-49.5 -16.5z" />
    <glyph glyph-name="cdotaccent" unicode="&#x10b;" horiz-adv-x="572" 
d="M298 -9q-59 0 -107 19.5t-83 56t-53 87t-18 112.5t18.5 113t53.5 87.5t84 56t109 19.5q66 0 117.5 -24.5t83 -68t35.5 -101.5h-122q-6 30 -22.5 50t-41 30.5t-53.5 10.5q-33 0 -58 -12.5t-42.5 -35.5t-26.5 -54.5t-9 -70.5q0 -57 17 -95t47.5 -57.5t70.5 -19.5
q34 0 59.5 12t41.5 33.5t20 49.5h121q-4 -60 -36.5 -104.5t-85 -69t-120.5 -24.5zM299 604q-30 0 -49.5 16.5t-19.5 44.5q0 29 19.5 45t49.5 16t49.5 -16t19.5 -45q0 -28 -19.5 -44.5t-49.5 -16.5z" />
    <glyph glyph-name="Ccaron" unicode="&#x10c;" horiz-adv-x="770" 
d="M402 -9q-82 0 -148.5 25.5t-114.5 73.5t-73.5 117.5t-25.5 157.5t25.5 157t73.5 117t114.5 73.5t148.5 25.5q92 0 164 -32t117 -89.5t55 -135.5h-135q-9 43 -36 75t-69 50t-96 18q-69 0 -119.5 -29.5t-78.5 -87.5t-28 -142q0 -63 16 -112t45.5 -82t71 -49.5t93.5 -16.5
q53 0 95 18t70 50.5t36 75.5h135q-9 -77 -54.5 -135.5t-117.5 -90.5t-164 -32zM336 794l-110 143h107l64 -86l65 86h107l-110 -143h-123z" />
    <glyph glyph-name="ccaron" unicode="&#x10d;" horiz-adv-x="572" 
d="M298 -9q-59 0 -107 19.5t-83 56t-53 87t-18 112.5t18.5 113t53.5 87.5t84 56t109 19.5q66 0 117.5 -24.5t83 -68t35.5 -101.5h-122q-6 30 -22.5 50t-41 30.5t-53.5 10.5q-33 0 -58 -12.5t-42.5 -35.5t-26.5 -54.5t-9 -70.5q0 -57 17 -95t47.5 -57.5t70.5 -19.5
q34 0 59.5 12t41.5 33.5t20 49.5h121q-4 -60 -36.5 -104.5t-85 -69t-120.5 -24.5zM238 597l-110 143h107l64 -86l65 86h107l-110 -143h-123z" />
    <glyph glyph-name="Dcaron" unicode="&#x10e;" horiz-adv-x="750" 
d="M74 0v729h303q106 0 180.5 -45.5t113.5 -127.5t39 -192q0 -81 -22 -148.5t-65 -115.5t-104.5 -74t-141.5 -26h-303zM206 114h150q48 0 88 14t69 44.5t45 78.5t16 116q0 89 -27.5 143.5t-76.5 80t-114 25.5h-150v-502zM308 794l-110 143h107l64 -86l65 86h107l-110 -143
h-123z" />
    <glyph glyph-name="dcaron" unicode="&#x10f;" horiz-adv-x="627" 
d="M596 555l51 174h109l-75 -174h-85zM258 -9q-49 0 -89 18.5t-69 54t-44.5 87t-15.5 115.5q0 87 27.5 149t76.5 94.5t114 32.5q42 0 76.5 -13t59 -37t36.5 -56h5v293h125v-729h-118l-5 97h-7q-17 -48 -63 -77t-109 -29zM302 93q44 0 73.5 19.5t44.5 52.5t15 73v57
q0 41 -15.5 74t-45 52t-69.5 19q-45 0 -75.5 -20.5t-46.5 -59.5t-16 -94q0 -53 15.5 -92t45.5 -60t74 -21z" />
    <glyph glyph-name="Dcroat" unicode="&#x110;" horiz-adv-x="791" 
d="M116 0v729h303q106 0 180.5 -45.5t113.5 -127.5t39 -192q0 -81 -22 -148.5t-65 -115.5t-104.5 -74t-141.5 -26h-303zM248 114h150q48 0 88 14t69 44.5t45 78.5t16 116q0 89 -27.5 143.5t-76.5 80t-114 25.5h-150v-502zM24 320v96h387v-96h-387z" />
    <glyph glyph-name="dcroat" unicode="&#x111;" horiz-adv-x="627" 
d="M258 -9q-49 0 -89 18.5t-69 54t-44.5 87t-15.5 115.5q0 87 27.5 149t76.5 94.5t114 32.5q42 0 76.5 -13t59 -37t36.5 -56h5v293h125v-729h-118l-5 97h-7q-17 -48 -63 -77t-109 -29zM302 93q44 0 73.5 19.5t44.5 52.5t15 73v57q0 41 -15.5 74t-45 52t-69.5 19
q-45 0 -75.5 -20.5t-46.5 -59.5t-16 -94q0 -53 15.5 -92t45.5 -60t74 -21zM299 591v80h330v-80h-330z" />
    <glyph glyph-name="Emacron" unicode="&#x112;" horiz-adv-x="631" 
d="M74 0v729h520v-114h-416l28 29v-559l-28 29h418v-114h-522zM178 318v107h367v-107h-367zM134 808v94h367v-94h-367z" />
    <glyph glyph-name="emacron" unicode="&#x113;" horiz-adv-x="583" 
d="M288 -9q-81 0 -137.5 33.5t-86.5 95t-30 143.5q0 85 30 147.5t86 96.5t133 34q88 0 144.5 -38.5t81.5 -106.5t17 -156h-370q0 -51 16.5 -85.5t46 -52t69.5 -17.5q47 0 76.5 20t39.5 53h118q-8 -52 -40 -89.5t-82 -57.5t-112 -20zM156 307l-11 13h271l-12 -14q2 49 -13 80
t-43 46t-65 15q-38 0 -66 -16t-44 -47.5t-17 -76.5zM109 611v94h367v-94h-367z" />
    <glyph glyph-name="Ebreve" unicode="&#x114;" horiz-adv-x="631" 
d="M74 0v729h520v-114h-416l28 29v-559l-28 29h418v-114h-522zM178 318v107h367v-107h-367zM318 786q-48 0 -83 18t-54.5 51t-19.5 79h84q0 -39 20 -59t53 -20q34 0 53.5 20t19.5 59h84q0 -69 -42.5 -108.5t-114.5 -39.5z" />
    <glyph glyph-name="ebreve" unicode="&#x115;" horiz-adv-x="583" 
d="M288 -9q-81 0 -137.5 33.5t-86.5 95t-30 143.5q0 85 30 147.5t86 96.5t133 34q88 0 144.5 -38.5t81.5 -106.5t17 -156h-370q0 -51 16.5 -85.5t46 -52t69.5 -17.5q47 0 76.5 20t39.5 53h118q-8 -52 -40 -89.5t-82 -57.5t-112 -20zM156 307l-11 13h271l-12 -14q2 49 -13 80
t-43 46t-65 15q-38 0 -66 -16t-44 -47.5t-17 -76.5zM293 589q-48 0 -83 18t-54.5 51t-19.5 79h84q0 -39 20 -59t53 -20q34 0 53.5 20t19.5 59h84q0 -69 -42.5 -108.5t-114.5 -39.5z" />
    <glyph glyph-name="Edotaccent" unicode="&#x116;" horiz-adv-x="631" 
d="M74 0v729h520v-114h-416l28 29v-559l-28 29h418v-114h-522zM178 318v107h367v-107h-367zM318 801q-30 0 -49.5 16.5t-19.5 44.5q0 29 19.5 45t49.5 16t49.5 -16t19.5 -45q0 -28 -19.5 -44.5t-49.5 -16.5z" />
    <glyph glyph-name="edotaccent" unicode="&#x117;" horiz-adv-x="583" 
d="M288 -9q-81 0 -137.5 33.5t-86.5 95t-30 143.5q0 85 30 147.5t86 96.5t133 34q88 0 144.5 -38.5t81.5 -106.5t17 -156h-370q0 -51 16.5 -85.5t46 -52t69.5 -17.5q47 0 76.5 20t39.5 53h118q-8 -52 -40 -89.5t-82 -57.5t-112 -20zM156 307l-11 13h271l-12 -14q2 49 -13 80
t-43 46t-65 15q-38 0 -66 -16t-44 -47.5t-17 -76.5zM293 604q-30 0 -49.5 16.5t-19.5 44.5q0 29 19.5 45t49.5 16t49.5 -16t19.5 -45q0 -28 -19.5 -44.5t-49.5 -16.5z" />
    <glyph glyph-name="Eogonek" unicode="&#x118;" horiz-adv-x="631" 
d="M74 0v729h520v-114h-416l28 29v-559l-28 29h418v-114h-522zM178 318v107h367v-107h-367zM522 -216q-53 0 -84 24t-31 65q0 26 13.5 51.5t39.5 48t63 41.5h65l9 -14q-37 -25 -59 -51t-22 -56q0 -22 13 -34t37 -12q12 0 22.5 3t20.5 7v-57q-16 -7 -40 -11.5t-47 -4.5z" />
    <glyph glyph-name="eogonek" unicode="&#x119;" horiz-adv-x="583" 
d="M361 -203q-52 0 -81.5 23t-29.5 65q0 33 18.5 59.5t48.5 48.5q-10 -1 -20.5 -1.5t-21.5 0.5q-74 5 -127.5 39.5t-82 94t-28.5 137.5q0 85 31.5 147.5t89.5 97t136 34.5q90 0 148 -39.5t83.5 -108t17.5 -155.5h-383q1 -48 18 -82.5t48 -52t73 -17.5q49 0 80 20t41 54h119
q-6 -41 -29.5 -74.5t-59.5 -55.5q-31 -25 -55.5 -45t-38.5 -39t-14 -42q0 -46 54 -46q11 0 22.5 1.5t22.5 5.5v-56q-12 -5 -34 -9t-46 -4zM161 319h259q0 42 -16.5 70.5t-45 42.5t-65.5 14t-65.5 -15t-45.5 -43.5t-21 -68.5z" />
    <glyph glyph-name="Ecaron" unicode="&#x11a;" horiz-adv-x="631" 
d="M74 0v729h520v-114h-416l28 29v-559l-28 29h418v-114h-522zM178 318v107h367v-107h-367zM257 794l-110 143h107l64 -86l65 86h107l-110 -143h-123z" />
    <glyph glyph-name="ecaron" unicode="&#x11b;" horiz-adv-x="583" 
d="M288 -9q-81 0 -137.5 33.5t-86.5 95t-30 143.5q0 85 30 147.5t86 96.5t133 34q88 0 144.5 -38.5t81.5 -106.5t17 -156h-370q0 -51 16.5 -85.5t46 -52t69.5 -17.5q47 0 76.5 20t39.5 53h118q-8 -52 -40 -89.5t-82 -57.5t-112 -20zM156 307l-11 13h271l-12 -14q2 49 -13 80
t-43 46t-65 15q-38 0 -66 -16t-44 -47.5t-17 -76.5zM232 597l-110 143h107l64 -86l65 86h107l-110 -143h-123z" />
    <glyph glyph-name="Gcircumflex" unicode="&#x11c;" horiz-adv-x="814" 
d="M384 -9q-78 0 -141.5 25.5t-109 73.5t-70 115.5t-24.5 151.5q0 89 26.5 159.5t75.5 120t116.5 75.5t151.5 26q93 0 165.5 -29.5t118.5 -84t57 -131.5h-135q-11 40 -39.5 69.5t-70.5 45.5t-97 16q-75 0 -127 -33t-79 -92t-27 -138q0 -62 16.5 -110t46.5 -81.5t72 -51
t95 -17.5q63 0 111 23t75 64.5t27 98.5v37l29 -27h-259v97h371v-394h-106l-7 127h-6q-17 -41 -55 -71.5t-90 -47.5t-111 -17zM238 794l110 143h123l110 -143h-107l-65 85l-64 -85h-107z" />
    <glyph glyph-name="gcircumflex" unicode="&#x11d;" horiz-adv-x="609" 
d="M281 -177q-67 0 -116 19.5t-77.5 55t-32.5 82.5h120q4 -20 18.5 -35t37.5 -23.5t53 -8.5q48 0 77 13.5t42.5 40.5t13.5 67v86h-6q-16 -43 -60 -70.5t-104 -27.5q-47 0 -85 18t-65.5 51.5t-42.5 81.5t-15 109q0 82 26 140t73 89t109 31q58 0 102.5 -26t61.5 -71h7l4 87
h120v-476q0 -84 -32 -135.5t-90.5 -74.5t-138.5 -23zM293 124q40 0 67.5 18t41.5 48t14 66v52q0 39 -14.5 68.5t-41.5 47t-65 17.5q-42 0 -70.5 -19.5t-43.5 -55t-15 -84.5q0 -48 14.5 -83.5t42.5 -55t70 -19.5zM135 597l110 143h123l110 -143h-107l-65 85l-64 -85h-107z
" />
    <glyph glyph-name="Gbreve" unicode="&#x11e;" horiz-adv-x="814" 
d="M384 -9q-78 0 -141.5 25.5t-109 73.5t-70 115.5t-24.5 151.5q0 89 26.5 159.5t75.5 120t116.5 75.5t151.5 26q93 0 165.5 -29.5t118.5 -84t57 -131.5h-135q-11 40 -39.5 69.5t-70.5 45.5t-97 16q-75 0 -127 -33t-79 -92t-27 -138q0 -62 16.5 -110t46.5 -81.5t72 -51
t95 -17.5q63 0 111 23t75 64.5t27 98.5v37l29 -27h-259v97h371v-394h-106l-7 127h-6q-17 -41 -55 -71.5t-90 -47.5t-111 -17zM409 786q-48 0 -83 18t-54.5 51t-19.5 79h84q0 -39 20 -59t53 -20q34 0 53.5 20t19.5 59h84q0 -69 -42.5 -108.5t-114.5 -39.5z" />
    <glyph glyph-name="gbreve" unicode="&#x11f;" horiz-adv-x="609" 
d="M281 -177q-67 0 -116 19.5t-77.5 55t-32.5 82.5h120q4 -20 18.5 -35t37.5 -23.5t53 -8.5q48 0 77 13.5t42.5 40.5t13.5 67v86h-6q-16 -43 -60 -70.5t-104 -27.5q-47 0 -85 18t-65.5 51.5t-42.5 81.5t-15 109q0 82 26 140t73 89t109 31q58 0 102.5 -26t61.5 -71h7l4 87
h120v-476q0 -84 -32 -135.5t-90.5 -74.5t-138.5 -23zM293 124q40 0 67.5 18t41.5 48t14 66v52q0 39 -14.5 68.5t-41.5 47t-65 17.5q-42 0 -70.5 -19.5t-43.5 -55t-15 -84.5q0 -48 14.5 -83.5t42.5 -55t70 -19.5zM306 589q-48 0 -83 18t-54.5 51t-19.5 79h84q0 -39 20 -59
t53 -20q34 0 53.5 20t19.5 59h84q0 -69 -42.5 -108.5t-114.5 -39.5z" />
    <glyph glyph-name="Gdotaccent" unicode="&#x120;" horiz-adv-x="814" 
d="M384 -9q-78 0 -141.5 25.5t-109 73.5t-70 115.5t-24.5 151.5q0 89 26.5 159.5t75.5 120t116.5 75.5t151.5 26q93 0 165.5 -29.5t118.5 -84t57 -131.5h-135q-11 40 -39.5 69.5t-70.5 45.5t-97 16q-75 0 -127 -33t-79 -92t-27 -138q0 -62 16.5 -110t46.5 -81.5t72 -51
t95 -17.5q63 0 111 23t75 64.5t27 98.5v37l29 -27h-259v97h371v-394h-106l-7 127h-6q-17 -41 -55 -71.5t-90 -47.5t-111 -17zM409 801q-30 0 -49.5 16.5t-19.5 44.5q0 29 19.5 45t49.5 16t49.5 -16t19.5 -45q0 -28 -19.5 -44.5t-49.5 -16.5z" />
    <glyph glyph-name="gdotaccent" unicode="&#x121;" horiz-adv-x="609" 
d="M281 -177q-67 0 -116 19.5t-77.5 55t-32.5 82.5h120q4 -20 18.5 -35t37.5 -23.5t53 -8.5q48 0 77 13.5t42.5 40.5t13.5 67v86h-6q-16 -43 -60 -70.5t-104 -27.5q-47 0 -85 18t-65.5 51.5t-42.5 81.5t-15 109q0 82 26 140t73 89t109 31q58 0 102.5 -26t61.5 -71h7l4 87
h120v-476q0 -84 -32 -135.5t-90.5 -74.5t-138.5 -23zM293 124q40 0 67.5 18t41.5 48t14 66v52q0 39 -14.5 68.5t-41.5 47t-65 17.5q-42 0 -70.5 -19.5t-43.5 -55t-15 -84.5q0 -48 14.5 -83.5t42.5 -55t70 -19.5zM306 604q-30 0 -49.5 16.5t-19.5 44.5q0 29 19.5 45t49.5 16
t49.5 -16t19.5 -45q0 -28 -19.5 -44.5t-49.5 -16.5z" />
    <glyph glyph-name="uni0122" unicode="&#x122;" horiz-adv-x="814" 
d="M384 -9q-78 0 -141.5 25.5t-109 73.5t-70 115.5t-24.5 151.5q0 89 26.5 159.5t75.5 120t116.5 75.5t151.5 26q93 0 165.5 -29.5t118.5 -84t57 -131.5h-135q-11 40 -39.5 69.5t-70.5 45.5t-97 16q-75 0 -127 -33t-79 -92t-27 -138q0 -62 16.5 -110t46.5 -81.5t72 -51
t95 -17.5q63 0 111 23t75 64.5t27 98.5v37l29 -27h-259v97h371v-394h-106l-7 127h-6q-17 -41 -55 -71.5t-90 -47.5t-111 -17zM304 -207l42 150h120l-67 -150h-95z" />
    <glyph glyph-name="uni0123" unicode="&#x123;" horiz-adv-x="609" 
d="M281 -177q-67 0 -116 19.5t-77.5 55t-32.5 82.5h120q4 -20 18.5 -35t37.5 -23.5t53 -8.5q48 0 77 13.5t42.5 40.5t13.5 67v86h-6q-16 -43 -60 -70.5t-104 -27.5q-47 0 -85 18t-65.5 51.5t-42.5 81.5t-15 109q0 82 26 140t73 89t109 31q58 0 102.5 -26t61.5 -71h7l4 87
h120v-476q0 -84 -32 -135.5t-90.5 -74.5t-138.5 -23zM293 124q40 0 67.5 18t41.5 48t14 66v52q0 39 -14.5 68.5t-41.5 47t-65 17.5q-42 0 -70.5 -19.5t-43.5 -55t-15 -84.5q0 -48 14.5 -83.5t42.5 -55t70 -19.5zM257 597v38q0 56 25.5 94.5t73.5 69.5l48 -53
q-25 -25 -37 -52.5t-12 -69.5v-27h-98z" />
    <glyph glyph-name="Hcircumflex" unicode="&#x124;" horiz-adv-x="788" 
d="M74 0v729h132v-729h-132zM582 0v729h132v-729h-132zM176 317v114h436v-114h-436zM223 794l110 143h123l110 -143h-107l-65 85l-64 -85h-107z" />
    <glyph glyph-name="hcircumflex" unicode="&#x125;" horiz-adv-x="620" 
d="M67 0v729h125v-298h6q23 56 70 83.5t105 27.5q40 0 74.5 -12.5t60 -39t40 -69t14.5 -102.5v-319h-125v292q0 50 -12 82.5t-36.5 48.5t-63.5 16q-42 0 -71.5 -20t-45.5 -53t-16 -73v-293h-125zM-42 794l110 143h123l110 -143h-107l-65 85l-64 -85h-107z" />
    <glyph glyph-name="Hbar" unicode="&#x126;" horiz-adv-x="788" 
d="M74 0v729h132v-729h-132zM582 0v729h132v-729h-132zM176 317v114h436v-114h-436zM-9 547v94h806v-94h-806z" />
    <glyph glyph-name="hbar" unicode="&#x127;" horiz-adv-x="620" 
d="M67 0v729h125v-298h6q23 56 70 83.5t105 27.5q40 0 74.5 -12.5t60 -39t40 -69t14.5 -102.5v-319h-125v292q0 50 -12 82.5t-36.5 48.5t-63.5 16q-42 0 -71.5 -20t-45.5 -53t-16 -73v-293h-125zM-1 591v80h330v-80h-330z" />
    <glyph glyph-name="Itilde" unicode="&#x128;" horiz-adv-x="280" 
d="M74 0v729h132v-729h-132zM212 807q-31 0 -55 8t-44 16t-43 8q-20 0 -35 -8.5t-27 -25.5l-56 33q18 33 35.5 51t37.5 25.5t42 7.5q26 0 50 -8t47 -16t45 -8q19 0 35 8t29 26l57 -33q-15 -32 -33.5 -50.5t-39.5 -26t-45 -7.5z" />
    <glyph glyph-name="itilde" unicode="&#x129;" horiz-adv-x="260" 
d="M67 0v532h125v-532h-125zM202 610q-31 0 -55 8t-44 16t-43 8q-20 0 -35 -8.5t-27 -25.5l-56 33q18 33 35.5 51t37.5 25.5t42 7.5q26 0 50 -8t47 -16t45 -8q19 0 35 8t29 26l57 -33q-15 -32 -33.5 -50.5t-39.5 -26t-45 -7.5z" />
    <glyph glyph-name="Imacron" unicode="&#x12a;" horiz-adv-x="280" 
d="M74 0v729h132v-729h-132zM-44 808v94h367v-94h-367z" />
    <glyph glyph-name="imacron" unicode="&#x12b;" horiz-adv-x="260" 
d="M67 0v532h125v-532h-125zM-54 611v94h367v-94h-367z" />
    <glyph glyph-name="Ibreve" unicode="&#x12c;" horiz-adv-x="280" 
d="M74 0v729h132v-729h-132zM140 786q-48 0 -83 18t-54.5 51t-19.5 79h84q0 -39 20 -59t53 -20q34 0 53.5 20t19.5 59h84q0 -69 -42.5 -108.5t-114.5 -39.5z" />
    <glyph glyph-name="ibreve" unicode="&#x12d;" horiz-adv-x="260" 
d="M67 0v532h125v-532h-125zM130 589q-48 0 -83 18t-54.5 51t-19.5 79h84q0 -39 20 -59t53 -20q34 0 53.5 20t19.5 59h84q0 -69 -42.5 -108.5t-114.5 -39.5z" />
    <glyph glyph-name="Iogonek" unicode="&#x12e;" horiz-adv-x="280" 
d="M74 0v729h132v-729h-132zM132 -216q-53 0 -84 24t-31 65q0 26 13.5 51.5t39.5 48t63 41.5h65l9 -14q-37 -25 -59 -51t-22 -56q0 -22 13 -34t37 -12q12 0 22.5 3t20.5 7v-57q-16 -7 -40 -11.5t-47 -4.5z" />
    <glyph glyph-name="iogonek" unicode="&#x12f;" horiz-adv-x="260" 
d="M67 0v532h125v-532h-125zM130 604q-30 0 -49.5 16.5t-19.5 44.5q0 29 19.5 45t49.5 16t49.5 -16t19.5 -45q0 -28 -19.5 -44.5t-49.5 -16.5zM118 -216q-53 0 -84 24t-31 65q0 26 13.5 51.5t39.5 48t63 41.5h65l9 -14q-37 -25 -59 -51t-22 -56q0 -22 13 -34t37 -12
q12 0 22.5 3t20.5 7v-57q-16 -7 -40 -11.5t-47 -4.5z" />
    <glyph glyph-name="Idotaccent" unicode="&#x130;" horiz-adv-x="280" 
d="M74 0v729h132v-729h-132zM140 801q-30 0 -49.5 16.5t-19.5 44.5q0 29 19.5 45t49.5 16t49.5 -16t19.5 -45q0 -28 -19.5 -44.5t-49.5 -16.5z" />
    <glyph glyph-name="dotlessi" unicode="&#x131;" horiz-adv-x="260" 
d="M67 0v532h125v-532h-125z" />
    <glyph glyph-name="IJ" unicode="&#x132;" horiz-adv-x="693" 
d="M74 0v729h132v-729h-132zM303 0v104h88q55 0 77 25.5t22 79.5v520h131v-530q0 -66 -21 -110.5t-64 -66.5t-110 -22h-123z" />
    <glyph glyph-name="ij" unicode="&#x133;" horiz-adv-x="525" 
d="M67 0v532h125v-532h-125zM130 604q-30 0 -49.5 16.5t-19.5 44.5q0 29 19.5 45t49.5 16t49.5 -16t19.5 -45q0 -28 -19.5 -44.5t-49.5 -16.5zM234 -167v91h42q30 0 43 14t13 48v546h125v-548q0 -47 -14.5 -81t-46 -52t-83.5 -18h-79zM395 604q-30 0 -49.5 16.5t-19.5 44.5
q0 29 19.5 45t49.5 16t49.5 -16t19.5 -45q0 -28 -19.5 -44.5t-49.5 -16.5z" />
    <glyph glyph-name="Jcircumflex" unicode="&#x134;" horiz-adv-x="413" 
d="M23 0v104h88q55 0 77 25.5t22 79.5v520h131v-530q0 -66 -21 -110.5t-64 -66.5t-110 -22h-123zM104 794l110 143h123l110 -143h-107l-65 85l-64 -85h-107z" />
    <glyph glyph-name="jcircumflex" unicode="&#x135;" horiz-adv-x="260" 
d="M-31 -167v91h42q30 0 43 14t13 48v546h125v-548q0 -47 -14.5 -81t-46 -52t-83.5 -18h-79zM-42 597l110 143h123l110 -143h-107l-65 85l-64 -85h-107z" />
    <glyph glyph-name="uni0136" unicode="&#x136;" horiz-adv-x="708" 
d="M532 0l-213 331l-122 -133v156l328 375h159l-275 -303l279 -426h-156zM74 0v729h132v-729h-132zM246 -207l42 150h120l-67 -150h-95z" />
    <glyph glyph-name="uni0137" unicode="&#x137;" horiz-adv-x="592" 
d="M67 0v729h127v-434l45 51l178 186h155l-206 -209l211 -323h-147l-120 185l-32 55l-84 -83v-157h-127zM200 -207l42 150h120l-67 -150h-95z" />
    <glyph glyph-name="Lacute" unicode="&#x139;" horiz-adv-x="566" 
d="M74 0v729h132v-636l-22 25h359v-118h-469zM93 794l59 143h125l-88 -143h-96z" />
    <glyph glyph-name="lacute" unicode="&#x13a;" horiz-adv-x="260" 
d="M67 0v729h125v-729h-125zM83 794l59 143h125l-88 -143h-96z" />
    <glyph glyph-name="uni013B" unicode="&#x13b;" horiz-adv-x="566" 
d="M74 0v729h132v-636l-22 25h359v-118h-469zM169 -207l42 150h120l-67 -150h-95z" />
    <glyph glyph-name="uni013C" unicode="&#x13c;" horiz-adv-x="260" 
d="M67 0v729h125v-729h-125zM28 -207l42 150h120l-67 -150h-95z" />
    <glyph glyph-name="Lcaron" unicode="&#x13d;" horiz-adv-x="566" 
d="M306 555l51 174h109l-74 -174h-86zM74 0v729h132v-636l-22 25h359v-118h-469z" />
    <glyph glyph-name="lcaron" unicode="&#x13e;" horiz-adv-x="260" 
d="M228 555l51 174h109l-75 -174h-85zM67 0v729h125v-729h-125z" />
    <glyph glyph-name="Ldot" unicode="&#x13f;" horiz-adv-x="566" 
d="M74 0v729h132v-636l-22 25h359v-118h-469zM431 311q-32 0 -52.5 20.5t-20.5 51.5t20.5 52t52.5 21q34 0 53.5 -21t19.5 -52t-19.5 -51.5t-53.5 -20.5z" />
    <glyph glyph-name="ldot" unicode="&#x140;" horiz-adv-x="398" 
d="M67 0v729h125v-729h-125zM329 275q-32 0 -52.5 20.5t-20.5 52.5q0 31 20.5 51.5t52.5 20.5q34 0 53.5 -20.5t19.5 -51.5q0 -32 -19.5 -52.5t-53.5 -20.5z" />
    <glyph glyph-name="Lslash" unicode="&#x141;" horiz-adv-x="597" 
d="M104 0v729h132v-636l-22 25h359v-118h-469zM26 208v115l356 157v-115z" />
    <glyph glyph-name="lslash" unicode="&#x142;" horiz-adv-x="294" 
d="M84 0v729h125v-729h-125zM27 244v104l240 137v-103z" />
    <glyph glyph-name="Nacute" unicode="&#x143;" horiz-adv-x="779" 
d="M74 0v729h164l339 -545h6l-6 234v311h128v-729h-156l-340 540h-6l6 -218v-322h-135zM342 794l59 143h125l-88 -143h-96z" />
    <glyph glyph-name="nacute" unicode="&#x144;" horiz-adv-x="620" 
d="M67 0v532h120l5 -101h6q23 56 70 83.5t105 27.5q40 0 74.5 -12.5t60 -39t40 -69t14.5 -102.5v-319h-125v292q0 50 -12 82.5t-36.5 48.5t-63.5 16q-42 0 -71.5 -20t-45.5 -53t-16 -73v-293h-125zM265 597l59 143h125l-88 -143h-96z" />
    <glyph glyph-name="uni0145" unicode="&#x145;" horiz-adv-x="779" 
d="M74 0v729h164l339 -545h6l-6 234v311h128v-729h-156l-340 540h-6l6 -218v-322h-135zM287 -207l42 150h120l-67 -150h-95z" />
    <glyph glyph-name="uni0146" unicode="&#x146;" horiz-adv-x="620" 
d="M67 0v532h120l5 -101h6q23 56 70 83.5t105 27.5q40 0 74.5 -12.5t60 -39t40 -69t14.5 -102.5v-319h-125v292q0 50 -12 82.5t-36.5 48.5t-63.5 16q-42 0 -71.5 -20t-45.5 -53t-16 -73v-293h-125zM210 -207l42 150h120l-67 -150h-95z" />
    <glyph glyph-name="Ncaron" unicode="&#x147;" horiz-adv-x="779" 
d="M74 0v729h164l339 -545h6l-6 234v311h128v-729h-156l-340 540h-6l6 -218v-322h-135zM328 794l-110 143h107l64 -86l65 86h107l-110 -143h-123z" />
    <glyph glyph-name="ncaron" unicode="&#x148;" horiz-adv-x="620" 
d="M67 0v532h120l5 -101h6q23 56 70 83.5t105 27.5q40 0 74.5 -12.5t60 -39t40 -69t14.5 -102.5v-319h-125v292q0 50 -12 82.5t-36.5 48.5t-63.5 16q-42 0 -71.5 -20t-45.5 -53t-16 -73v-293h-125zM251 597l-110 143h107l64 -86l65 86h107l-110 -143h-123z" />
    <glyph glyph-name="Eng" unicode="&#x14a;" horiz-adv-x="779" 
d="M74 0v729h164l339 -545h6l-6 234v311h128v-729h-156l-340 540h-6l6 -218v-322h-135zM481 -167v79h42q31 0 44 13.5t13 44.5v41h125v-43q0 -42 -14.5 -72t-46 -46.5t-83.5 -16.5h-80z" />
    <glyph glyph-name="eng" unicode="&#x14b;" horiz-adv-x="620" 
d="M338 -167v91h42q31 0 44 14t13 48v306q0 50 -12 82.5t-36.5 48.5t-63.5 16q-42 0 -71.5 -20t-45.5 -53t-16 -73v-293h-125v532h120l5 -101h6q23 56 70 83.5t105 27.5q40 0 74.5 -12.5t60 -39t40 -69t14.5 -102.5v-335q0 -47 -14.5 -81t-46 -52t-83.5 -18h-80z" />
    <glyph glyph-name="Omacron" unicode="&#x14c;" horiz-adv-x="805" 
d="M402 -9q-82 0 -148.5 25.5t-114.5 73.5t-73.5 117.5t-25.5 157.5t25.5 157t73.5 117t114.5 73.5t148.5 25.5t149 -25.5t115 -74t73.5 -117t25.5 -156.5t-25.5 -157.5t-74 -117.5t-115 -73.5t-148.5 -25.5zM402 105q70 0 121 30t78.5 88t27.5 142q0 63 -16 111t-45.5 81
t-71.5 50t-94 17q-69 0 -119.5 -29.5t-78.5 -87.5t-28 -142q0 -63 16 -112t45.5 -82t71 -49.5t93.5 -16.5zM219 808v94h367v-94h-367z" />
    <glyph glyph-name="omacron" unicode="&#x14d;" 
d="M301 -9q-60 0 -108 18.5t-83.5 54.5t-54 87t-18.5 115q0 82 31.5 144t90.5 97t142 35q59 0 107 -19t82.5 -55t53.5 -86.5t19 -115.5q0 -81 -31.5 -143t-90 -97t-140.5 -35zM300 94q41 0 72 19.5t48 58t17 94.5q0 42 -9.5 74.5t-27.5 54.5t-43 33t-56 11
q-41 0 -72.5 -19.5t-48.5 -58t-17 -95.5q0 -42 9.5 -74.5t27.5 -54t43.5 -32.5t56.5 -11zM116 611v94h367v-94h-367z" />
    <glyph glyph-name="Ohungarumlaut" unicode="&#x150;" horiz-adv-x="805" 
d="M402 -9q-82 0 -148.5 25.5t-114.5 73.5t-73.5 117.5t-25.5 157.5t25.5 157t73.5 117t114.5 73.5t148.5 25.5t149 -25.5t115 -74t73.5 -117t25.5 -156.5t-25.5 -157.5t-74 -117.5t-115 -73.5t-148.5 -25.5zM402 105q70 0 121 30t78.5 88t27.5 142q0 63 -16 111t-45.5 81
t-71.5 50t-94 17q-69 0 -119.5 -29.5t-78.5 -87.5t-28 -142q0 -63 16 -112t45.5 -82t71 -49.5t93.5 -16.5zM269 794l60 143h119l-88 -143h-91zM445 794l83 143h126l-108 -143h-101z" />
    <glyph glyph-name="ohungarumlaut" unicode="&#x151;" 
d="M301 -9q-60 0 -108 18.5t-83.5 54.5t-54 87t-18.5 115q0 82 31.5 144t90.5 97t142 35q59 0 107 -19t82.5 -55t53.5 -86.5t19 -115.5q0 -81 -31.5 -143t-90 -97t-140.5 -35zM300 94q41 0 72 19.5t48 58t17 94.5q0 42 -9.5 74.5t-27.5 54.5t-43 33t-56 11
q-41 0 -72.5 -19.5t-48.5 -58t-17 -95.5q0 -42 9.5 -74.5t27.5 -54t43.5 -32.5t56.5 -11zM167 597l60 143h119l-88 -143h-91zM343 597l83 143h126l-108 -143h-101z" />
    <glyph glyph-name="OE" unicode="&#x152;" horiz-adv-x="1079" 
d="M411 -10q-88 0 -157 26t-117 75t-72.5 118.5t-24.5 155.5q0 85 25 154t73 118t117 75.5t156 26.5q26 0 56.5 -2.5t55.5 -7.5h520v-114h-390v-190h339v-107h-339v-204h390v-114h-520q-25 -4 -55.5 -7t-56.5 -3zM424 104q26 0 51 3t46 9v497q-21 6 -46 9t-51 3
q-79 0 -134.5 -31.5t-84.5 -90t-29 -138.5t29 -139t84.5 -90.5t134.5 -31.5z" />
    <glyph glyph-name="oe" unicode="&#x153;" horiz-adv-x="986" 
d="M301 -9q-60 0 -108 18.5t-83.5 54.5t-54 87t-18.5 115q0 82 31.5 144t90.5 97t142 35q78 0 137 -35t90 -97l-51 -1q29 62 85.5 97.5t134.5 35.5q67 0 117 -23t81.5 -63.5t44 -95.5t6.5 -121h-395l1 80h299l-28 -16q2 47 -13.5 79t-45 48t-68.5 16t-69 -16.5t-46.5 -48
t-16.5 -76.5v-64q0 -49 17 -83.5t48 -52.5t73 -18q48 0 80.5 21.5t41.5 57.5h119q-7 -52 -39.5 -91.5t-84.5 -61.5t-117 -22q-81 0 -138.5 34.5t-86.5 95.5l49 -1q-30 -60 -87.5 -94.5t-137.5 -34.5zM300 94q41 0 72 19.5t48 58t17 94.5q0 42 -9.5 74.5t-27.5 54.5t-43 33
t-56 11q-41 0 -72.5 -19.5t-48.5 -58t-17 -95.5q0 -42 9.5 -74.5t27.5 -54t43.5 -32.5t56.5 -11z" />
    <glyph glyph-name="Racute" unicode="&#x154;" horiz-adv-x="719" 
d="M74 0v729h359q44 0 80.5 -8t65.5 -24t49 -40t31 -55.5t11 -70.5q0 -68 -35.5 -114.5t-98.5 -63.5v-6q43 -7 69 -25.5t38 -47.5t12 -70v-123q0 -19 1.5 -39.5t10.5 -41.5h-134q-6 14 -8.5 35t-2.5 47v99q0 34 -10 56.5t-36 35t-75 12.5h-208v105h210q71 0 101 33.5
t30 83.5q0 31 -9.5 51.5t-27 34t-41.5 20t-53 6.5h-197v-619h-132zM294 794l59 143h125l-88 -143h-96z" />
    <glyph glyph-name="racute" unicode="&#x155;" horiz-adv-x="392" 
d="M67 0v532h113l6 -89h4q18 51 58.5 73.5t92.5 22.5h16.5h14.5v-118q-6 0 -14.5 0.5t-18.5 0.5q-48 0 -80 -15.5t-48.5 -44.5t-18.5 -71v-291h-125zM146 597l59 143h125l-88 -143h-96z" />
    <glyph glyph-name="uni0156" unicode="&#x156;" horiz-adv-x="719" 
d="M74 0v729h359q44 0 80.5 -8t65.5 -24t49 -40t31 -55.5t11 -70.5q0 -68 -35.5 -114.5t-98.5 -63.5v-6q43 -7 69 -25.5t38 -47.5t12 -70v-123q0 -19 1.5 -39.5t10.5 -41.5h-134q-6 14 -8.5 35t-2.5 47v99q0 34 -10 56.5t-36 35t-75 12.5h-208v105h210q71 0 101 33.5
t30 83.5q0 31 -9.5 51.5t-27 34t-41.5 20t-53 6.5h-197v-619h-132zM252 -207l42 150h120l-67 -150h-95z" />
    <glyph glyph-name="uni0157" unicode="&#x157;" horiz-adv-x="392" 
d="M67 0v532h113l6 -89h4q18 51 58.5 73.5t92.5 22.5h16.5h14.5v-118q-6 0 -14.5 0.5t-18.5 0.5q-48 0 -80 -15.5t-48.5 -44.5t-18.5 -71v-291h-125zM62 -207l42 150h120l-67 -150h-95z" />
    <glyph glyph-name="Rcaron" unicode="&#x158;" horiz-adv-x="719" 
d="M74 0v729h359q44 0 80.5 -8t65.5 -24t49 -40t31 -55.5t11 -70.5q0 -68 -35.5 -114.5t-98.5 -63.5v-6q43 -7 69 -25.5t38 -47.5t12 -70v-123q0 -19 1.5 -39.5t10.5 -41.5h-134q-6 14 -8.5 35t-2.5 47v99q0 34 -10 56.5t-36 35t-75 12.5h-208v105h210q71 0 101 33.5
t30 83.5q0 31 -9.5 51.5t-27 34t-41.5 20t-53 6.5h-197v-619h-132zM280 794l-110 143h107l64 -86l65 86h107l-110 -143h-123z" />
    <glyph glyph-name="rcaron" unicode="&#x159;" horiz-adv-x="392" 
d="M67 0v532h113l6 -89h4q18 51 58.5 73.5t92.5 22.5h16.5h14.5v-118q-6 0 -14.5 0.5t-18.5 0.5q-48 0 -80 -15.5t-48.5 -44.5t-18.5 -71v-291h-125zM132 597l-110 143h107l64 -86l65 86h107l-110 -143h-123z" />
    <glyph glyph-name="Sacute" unicode="&#x15a;" horiz-adv-x="659" 
d="M331 -9q-98 0 -163.5 30t-98.5 84t-34 123h135q1 -41 18.5 -71t53.5 -47t93 -17q46 0 80 11t52.5 34.5t18.5 59.5q0 28 -9 46.5t-30 31t-56 21.5t-86 18q-63 10 -110.5 26.5t-79.5 40.5t-48 58.5t-16 82.5q0 66 33.5 114t95.5 74.5t148 26.5q85 0 145.5 -27t93.5 -75.5
t34 -112.5h-134q-1 39 -20 64.5t-51 37.5t-73 12q-42 0 -72 -11.5t-46 -33t-16 -52.5q0 -34 16.5 -53.5t57 -31.5t111.5 -24q48 -8 92 -20t80 -35.5t56.5 -64t20.5 -104.5t-33 -113t-98 -76t-161 -27zM279 794l59 143h125l-88 -143h-96z" />
    <glyph glyph-name="sacute" unicode="&#x15b;" horiz-adv-x="525" 
d="M262 -10q-53 0 -94.5 12.5t-71 35t-46 54t-17.5 70.5h123q3 -29 17 -47t37.5 -26.5t54.5 -8.5q48 0 72.5 17.5t24.5 48.5q0 25 -11.5 38.5t-36 21t-65.5 13.5q-68 10 -113 27.5t-67 48.5t-22 82q0 50 27.5 87t76.5 57.5t114 20.5q64 0 111 -20t73.5 -57t28.5 -86h-123
q0 26 -12.5 42t-33 24t-47.5 8q-42 0 -66 -17.5t-24 -47.5q0 -22 12.5 -35.5t40.5 -21.5t72 -14q64 -9 106.5 -26t64 -49t21.5 -85t-28.5 -90.5t-79.5 -57t-119 -19.5zM214 597l59 143h125l-88 -143h-96z" />
    <glyph glyph-name="Scircumflex" unicode="&#x15c;" horiz-adv-x="659" 
d="M331 -9q-98 0 -163.5 30t-98.5 84t-34 123h135q1 -41 18.5 -71t53.5 -47t93 -17q46 0 80 11t52.5 34.5t18.5 59.5q0 28 -9 46.5t-30 31t-56 21.5t-86 18q-63 10 -110.5 26.5t-79.5 40.5t-48 58.5t-16 82.5q0 66 33.5 114t95.5 74.5t148 26.5q85 0 145.5 -27t93.5 -75.5
t34 -112.5h-134q-1 39 -20 64.5t-51 37.5t-73 12q-42 0 -72 -11.5t-46 -33t-16 -52.5q0 -34 16.5 -53.5t57 -31.5t111.5 -24q48 -8 92 -20t80 -35.5t56.5 -64t20.5 -104.5t-33 -113t-98 -76t-161 -27zM155 794l110 143h123l110 -143h-107l-65 85l-64 -85h-107z" />
    <glyph glyph-name="scircumflex" unicode="&#x15d;" horiz-adv-x="525" 
d="M262 -10q-53 0 -94.5 12.5t-71 35t-46 54t-17.5 70.5h123q3 -29 17 -47t37.5 -26.5t54.5 -8.5q48 0 72.5 17.5t24.5 48.5q0 25 -11.5 38.5t-36 21t-65.5 13.5q-68 10 -113 27.5t-67 48.5t-22 82q0 50 27.5 87t76.5 57.5t114 20.5q64 0 111 -20t73.5 -57t28.5 -86h-123
q0 26 -12.5 42t-33 24t-47.5 8q-42 0 -66 -17.5t-24 -47.5q0 -22 12.5 -35.5t40.5 -21.5t72 -14q64 -9 106.5 -26t64 -49t21.5 -85t-28.5 -90.5t-79.5 -57t-119 -19.5zM91 597l110 143h123l110 -143h-107l-65 85l-64 -85h-107z" />
    <glyph glyph-name="Scedilla" unicode="&#x15e;" horiz-adv-x="659" 
d="M331 -9q-98 0 -163.5 30t-98.5 84t-34 123h135q1 -41 18.5 -71t53.5 -47t93 -17q46 0 80 11t52.5 34.5t18.5 59.5q0 28 -9 46.5t-30 31t-56 21.5t-86 18q-63 10 -110.5 26.5t-79.5 40.5t-48 58.5t-16 82.5q0 66 33.5 114t95.5 74.5t148 26.5q85 0 145.5 -27t93.5 -75.5
t34 -112.5h-134q-1 39 -20 64.5t-51 37.5t-73 12q-42 0 -72 -11.5t-46 -33t-16 -52.5q0 -34 16.5 -53.5t57 -31.5t111.5 -24q48 -8 92 -20t80 -35.5t56.5 -64t20.5 -104.5t-33 -113t-98 -76t-161 -27zM322 -249q-49 0 -87 22t-49 67l78 21q4 -18 17.5 -28t33.5 -11
q23 0 35.5 12t12.5 30q0 24 -21 35t-64 18l-12 25l46 75h58l-22 -59q46 -12 73 -38.5t27 -68.5q0 -47 -34.5 -73.5t-91.5 -26.5z" />
    <glyph glyph-name="scedilla" unicode="&#x15f;" horiz-adv-x="525" 
d="M262 -10q-53 0 -94.5 12.5t-71 35t-46 54t-17.5 70.5h123q3 -29 17 -47t37.5 -26.5t54.5 -8.5q48 0 72.5 17.5t24.5 48.5q0 25 -11.5 38.5t-36 21t-65.5 13.5q-68 10 -113 27.5t-67 48.5t-22 82q0 50 27.5 87t76.5 57.5t114 20.5q64 0 111 -20t73.5 -57t28.5 -86h-123
q0 26 -12.5 42t-33 24t-47.5 8q-42 0 -66 -17.5t-24 -47.5q0 -22 12.5 -35.5t40.5 -21.5t72 -14q64 -9 106.5 -26t64 -49t21.5 -85t-28.5 -90.5t-79.5 -57t-119 -19.5zM252 -249q-49 0 -87 22t-49 67l78 21q4 -18 17.5 -28t33.5 -11q23 0 35.5 12t12.5 30q0 24 -21 35
t-64 18l-12 25l46 75h58l-22 -59q46 -12 73 -38.5t27 -68.5q0 -47 -34.5 -73.5t-91.5 -26.5z" />
    <glyph glyph-name="Scaron" unicode="&#x160;" horiz-adv-x="659" 
d="M331 -9q-98 0 -163.5 30t-98.5 84t-34 123h135q1 -41 18.5 -71t53.5 -47t93 -17q46 0 80 11t52.5 34.5t18.5 59.5q0 28 -9 46.5t-30 31t-56 21.5t-86 18q-63 10 -110.5 26.5t-79.5 40.5t-48 58.5t-16 82.5q0 66 33.5 114t95.5 74.5t148 26.5q85 0 145.5 -27t93.5 -75.5
t34 -112.5h-134q-1 39 -20 64.5t-51 37.5t-73 12q-42 0 -72 -11.5t-46 -33t-16 -52.5q0 -34 16.5 -53.5t57 -31.5t111.5 -24q48 -8 92 -20t80 -35.5t56.5 -64t20.5 -104.5t-33 -113t-98 -76t-161 -27zM265 794l-110 143h107l64 -86l65 86h107l-110 -143h-123z" />
    <glyph glyph-name="scaron" unicode="&#x161;" horiz-adv-x="525" 
d="M262 -10q-53 0 -94.5 12.5t-71 35t-46 54t-17.5 70.5h123q3 -29 17 -47t37.5 -26.5t54.5 -8.5q48 0 72.5 17.5t24.5 48.5q0 25 -11.5 38.5t-36 21t-65.5 13.5q-68 10 -113 27.5t-67 48.5t-22 82q0 50 27.5 87t76.5 57.5t114 20.5q64 0 111 -20t73.5 -57t28.5 -86h-123
q0 26 -12.5 42t-33 24t-47.5 8q-42 0 -66 -17.5t-24 -47.5q0 -22 12.5 -35.5t40.5 -21.5t72 -14q64 -9 106.5 -26t64 -49t21.5 -85t-28.5 -90.5t-79.5 -57t-119 -19.5zM201 597l-110 143h107l64 -86l65 86h107l-110 -143h-123z" />
    <glyph glyph-name="uni0162" unicode="&#x162;" horiz-adv-x="627" 
d="M304 -249q-49 0 -87.5 21.5t-49.5 67.5l78 21q4 -18 18 -28.5t34 -10.5q22 0 34.5 12t12.5 30q0 24 -21 35t-64 18l-14 26l48 76l58 -6l-23 -54q47 -13 74.5 -39.5t27.5 -68.5q0 -47 -35 -73.5t-91 -26.5zM245 0v628h133v-628h-133zM23 614v115h580v-115h-580z" />
    <glyph glyph-name="uni0163" unicode="&#x163;" horiz-adv-x="389" 
d="M244 0q-64 0 -95.5 30.5t-31.5 97.5v303h-98v101h98v150l125 13v-163h112v-101h-112v-280q0 -27 12.5 -37.5t36.5 -10.5h64v-103h-111zM241 -249q-49 0 -87 22t-49 67l78 21q4 -18 17.5 -28t33.5 -11q23 0 35.5 12t12.5 30q0 24 -21 35t-64 18l-12 25l46 75h58l-22 -59
q46 -12 73 -38.5t27 -68.5q0 -47 -34.5 -73.5t-91.5 -26.5z" />
    <glyph glyph-name="Tcaron" unicode="&#x164;" horiz-adv-x="627" 
d="M245 0v628h133v-628h-133zM23 614v115h580v-115h-580zM252 794l-110 143h107l64 -86l65 86h107l-110 -143h-123z" />
    <glyph glyph-name="tcaron" unicode="&#x165;" horiz-adv-x="389" 
d="M290 585l51 174h109l-75 -174h-85zM244 0q-64 0 -95.5 30.5t-31.5 97.5v303h-98v101h98v150l125 13v-163h112v-101h-112v-280q0 -27 12.5 -37.5t36.5 -10.5h64v-103h-111z" />
    <glyph glyph-name="Tbar" unicode="&#x166;" horiz-adv-x="627" 
d="M104 287v109h415v-109h-415zM245 0v628h133v-628h-133zM23 614v115h580v-115h-580z" />
    <glyph glyph-name="tbar" unicode="&#x167;" horiz-adv-x="420" 
d="M35 218v96h336v-96h-336zM261 0q-65 0 -96.5 30.5t-31.5 97.5v303h-98v101h98v150l125 13v-163h113v-101h-113v-280q0 -27 13 -37.5t36 -10.5h64v-103h-110z" />
    <glyph glyph-name="Utilde" unicode="&#x168;" horiz-adv-x="733" 
d="M366 -9q-96 0 -164 34.5t-104 98t-36 150.5v455h132v-454q0 -55 21 -92t59.5 -55.5t92.5 -18.5q58 0 96.5 20t57.5 57t19 89v454h131v-455q0 -88 -36.5 -151.5t-105 -97.5t-163.5 -34zM439 807q-31 0 -55 8t-44 16t-43 8q-20 0 -35 -8.5t-27 -25.5l-56 33q18 33 35.5 51
t37.5 25.5t42 7.5q26 0 50 -8t47 -16t45 -8q19 0 35 8t29 26l57 -33q-15 -32 -33.5 -50.5t-39.5 -26t-45 -7.5z" />
    <glyph glyph-name="utilde" unicode="&#x169;" horiz-adv-x="620" 
d="M249 -9q-60 0 -103 24t-65.5 71.5t-22.5 115.5v330h125v-297q0 -45 12 -76.5t37 -48.5t65 -17t69.5 20t45.5 53.5t16 75.5v290h125v-532h-120l-5 103h-6q-20 -54 -66.5 -83t-106.5 -29zM378 610q-31 0 -55 8t-44 16t-43 8q-20 0 -35 -8.5t-27 -25.5l-56 33q18 33 35.5 51
t37.5 25.5t42 7.5q26 0 50 -8t47 -16t45 -8q19 0 35 8t29 26l57 -33q-15 -32 -33.5 -50.5t-39.5 -26t-45 -7.5z" />
    <glyph glyph-name="Umacron" unicode="&#x16a;" horiz-adv-x="733" 
d="M366 -9q-96 0 -164 34.5t-104 98t-36 150.5v455h132v-454q0 -55 21 -92t59.5 -55.5t92.5 -18.5q58 0 96.5 20t57.5 57t19 89v454h131v-455q0 -88 -36.5 -151.5t-105 -97.5t-163.5 -34zM183 808v94h367v-94h-367z" />
    <glyph glyph-name="umacron" unicode="&#x16b;" horiz-adv-x="620" 
d="M249 -9q-60 0 -103 24t-65.5 71.5t-22.5 115.5v330h125v-297q0 -45 12 -76.5t37 -48.5t65 -17t69.5 20t45.5 53.5t16 75.5v290h125v-532h-120l-5 103h-6q-20 -54 -66.5 -83t-106.5 -29zM122 611v94h367v-94h-367z" />
    <glyph glyph-name="Ubreve" unicode="&#x16c;" horiz-adv-x="733" 
d="M366 -9q-96 0 -164 34.5t-104 98t-36 150.5v455h132v-454q0 -55 21 -92t59.5 -55.5t92.5 -18.5q58 0 96.5 20t57.5 57t19 89v454h131v-455q0 -88 -36.5 -151.5t-105 -97.5t-163.5 -34zM367 786q-48 0 -83 18t-54.5 51t-19.5 79h84q0 -39 20 -59t53 -20q34 0 53.5 20
t19.5 59h84q0 -69 -42.5 -108.5t-114.5 -39.5z" />
    <glyph glyph-name="ubreve" unicode="&#x16d;" horiz-adv-x="620" 
d="M249 -9q-60 0 -103 24t-65.5 71.5t-22.5 115.5v330h125v-297q0 -45 12 -76.5t37 -48.5t65 -17t69.5 20t45.5 53.5t16 75.5v290h125v-532h-120l-5 103h-6q-20 -54 -66.5 -83t-106.5 -29zM306 589q-48 0 -83 18t-54.5 51t-19.5 79h84q0 -39 20 -59t53 -20q34 0 53.5 20
t19.5 59h84q0 -69 -42.5 -108.5t-114.5 -39.5z" />
    <glyph glyph-name="Uring" unicode="&#x16e;" horiz-adv-x="733" 
d="M366 -9q-96 0 -164 34.5t-104 98t-36 150.5v455h132v-454q0 -55 21 -92t59.5 -55.5t92.5 -18.5q58 0 96.5 20t57.5 57t19 89v454h131v-455q0 -88 -36.5 -151.5t-105 -97.5t-163.5 -34zM368 776q-51 0 -82.5 29.5t-31.5 76.5q0 48 31.5 76.5t82.5 28.5t82 -28.5t31 -76.5
q0 -47 -31 -76.5t-82 -29.5zM368 834q21 0 34 13t13 35q0 21 -13 34t-34 13q-22 0 -35 -13t-13 -34q0 -22 13 -35t35 -13z" />
    <glyph glyph-name="uring" unicode="&#x16f;" horiz-adv-x="620" 
d="M249 -9q-60 0 -103 24t-65.5 71.5t-22.5 115.5v330h125v-297q0 -45 12 -76.5t37 -48.5t65 -17t69.5 20t45.5 53.5t16 75.5v290h125v-532h-120l-5 103h-6q-20 -54 -66.5 -83t-106.5 -29zM306 579q-51 0 -82.5 29.5t-31.5 76.5q0 48 31.5 76.5t82.5 28.5t82 -28.5t31 -76.5
q0 -47 -31 -76.5t-82 -29.5zM306 637q21 0 34 13t13 35q0 21 -13 34t-34 13q-22 0 -35 -13t-13 -34q0 -22 13 -35t35 -13z" />
    <glyph glyph-name="Uhungarumlaut" unicode="&#x170;" horiz-adv-x="733" 
d="M366 -9q-96 0 -164 34.5t-104 98t-36 150.5v455h132v-454q0 -55 21 -92t59.5 -55.5t92.5 -18.5q58 0 96.5 20t57.5 57t19 89v454h131v-455q0 -88 -36.5 -151.5t-105 -97.5t-163.5 -34zM234 794l60 143h119l-88 -143h-91zM410 794l83 143h126l-108 -143h-101z" />
    <glyph glyph-name="uhungarumlaut" unicode="&#x171;" horiz-adv-x="620" 
d="M249 -9q-60 0 -103 24t-65.5 71.5t-22.5 115.5v330h125v-297q0 -45 12 -76.5t37 -48.5t65 -17t69.5 20t45.5 53.5t16 75.5v290h125v-532h-120l-5 103h-6q-20 -54 -66.5 -83t-106.5 -29zM172 597l60 143h119l-88 -143h-91zM348 597l83 143h126l-108 -143h-101z" />
    <glyph glyph-name="Uogonek" unicode="&#x172;" horiz-adv-x="733" 
d="M429 -203q-53 0 -82.5 23t-29.5 65q0 39 25.5 69t67 54.5t88.5 43.5l26 -16q-33 -26 -59 -46.5t-41 -40.5t-15 -44q0 -46 55 -46q11 0 22.5 1.5t21.5 5.5v-56q-12 -5 -34 -9t-45 -4zM366 -9q-96 0 -164 34.5t-104 98t-36 150.5v455h132v-454q0 -55 21 -92t59.5 -55.5
t92.5 -18.5q58 0 96.5 20t57.5 57t19 89v454h131v-455q0 -88 -36.5 -151.5t-105 -97.5t-163.5 -34z" />
    <glyph glyph-name="uogonek" unicode="&#x173;" horiz-adv-x="620" 
d="M249 -9q-60 0 -103 24t-65.5 71.5t-22.5 115.5v330h125v-297q0 -45 12 -76.5t37 -48.5t65 -17t69.5 20t45.5 53.5t16 75.5v290h125v-532h-120l-5 103h-6q-20 -54 -66.5 -83t-106.5 -29zM479 -216q-53 0 -84 24t-31 65q0 26 13.5 51.5t39.5 48t63 41.5h65l9 -14
q-37 -25 -59 -51t-22 -56q0 -22 13 -34t37 -12q12 0 22.5 3t20.5 7v-57q-16 -7 -40 -11.5t-47 -4.5z" />
    <glyph glyph-name="Wcircumflex" unicode="&#x174;" horiz-adv-x="1004" 
d="M196 0l-173 729h146l83 -403l36 -203h7l38 203l87 403h165l87 -392l40 -215h7l36 215l80 392h146l-173 -729h-183l-78 360l-41 222h-7l-42 -222l-79 -360h-182zM331 794l110 143h123l110 -143h-107l-65 85l-64 -85h-107z" />
    <glyph glyph-name="wcircumflex" unicode="&#x175;" horiz-adv-x="802" 
d="M140 0l-130 532h128l64 -283l27 -138h6l24 138l58 283h141l59 -283l24 -139h6l26 139l65 283h122l-130 -532h-164l-56 249l-25 140h-5l-24 -140l-52 -249h-164zM231 597l110 143h123l110 -143h-107l-65 85l-64 -85h-107z" />
    <glyph glyph-name="Ycircumflex" unicode="&#x176;" horiz-adv-x="706" 
d="M286 0v282l-270 447h152l107 -194l74 -137h6l75 137l109 194h151l-272 -447v-282h-132zM183 794l110 143h123l110 -143h-107l-65 85l-64 -85h-107z" />
    <glyph glyph-name="ycircumflex" unicode="&#x177;" horiz-adv-x="554" 
d="M58 -167v103h60q23 0 39 6t27 19t19 33l28 73v-53l-217 518h138l95 -276l33 -100h5l31 100l89 276h134l-214 -567q-19 -51 -45.5 -80t-61 -40.5t-78.5 -11.5h-82zM105 597l110 143h123l110 -143h-107l-65 85l-64 -85h-107z" />
    <glyph glyph-name="Ydieresis" unicode="&#x178;" horiz-adv-x="706" 
d="M286 0v282l-270 447h152l107 -194l74 -137h6l75 137l109 194h151l-272 -447v-282h-132zM459 806q-28 0 -46 15t-18 41q0 27 18 41.5t46 14.5t46 -14.5t18 -41.5q0 -26 -18 -41t-46 -15zM250 806q-28 0 -46 15t-18 41q0 27 18 41.5t46 14.5t46 -14.5t18 -41.5
q0 -26 -18 -41t-46 -15z" />
    <glyph glyph-name="Zacute" unicode="&#x179;" horiz-adv-x="632" 
d="M32 0v111l392 504h-376v114h541v-112l-394 -503h404v-114h-567zM268 794l59 143h125l-88 -143h-96z" />
    <glyph glyph-name="zacute" unicode="&#x17a;" horiz-adv-x="520" 
d="M28 0v90l292 341h-277v101h436v-88l-291 -343h302v-101h-462zM212 597l59 143h125l-88 -143h-96z" />
    <glyph glyph-name="Zdotaccent" unicode="&#x17b;" horiz-adv-x="632" 
d="M32 0v111l392 504h-376v114h541v-112l-394 -503h404v-114h-567zM315 801q-30 0 -49.5 16.5t-19.5 44.5q0 29 19.5 45t49.5 16t49.5 -16t19.5 -45q0 -28 -19.5 -44.5t-49.5 -16.5z" />
    <glyph glyph-name="zdotaccent" unicode="&#x17c;" horiz-adv-x="520" 
d="M28 0v90l292 341h-277v101h436v-88l-291 -343h302v-101h-462zM259 604q-30 0 -49.5 16.5t-19.5 44.5q0 29 19.5 45t49.5 16t49.5 -16t19.5 -45q0 -28 -19.5 -44.5t-49.5 -16.5z" />
    <glyph glyph-name="Zcaron" unicode="&#x17d;" horiz-adv-x="632" 
d="M32 0v111l392 504h-376v114h541v-112l-394 -503h404v-114h-567zM254 794l-110 143h107l64 -86l65 86h107l-110 -143h-123z" />
    <glyph glyph-name="zcaron" unicode="&#x17e;" horiz-adv-x="520" 
d="M28 0v90l292 341h-277v101h436v-88l-291 -343h302v-101h-462zM198 597l-110 143h107l64 -86l65 86h107l-110 -143h-123z" />
    <glyph glyph-name="florin" unicode="&#x192;" horiz-adv-x="444" 
d="M36 -167v96h39q42 0 63 18t21 64v542q0 89 48.5 132.5t134.5 43.5h65v-96h-39q-41 0 -62.5 -18t-21.5 -64v-542q0 -89 -47.5 -132.5t-135.5 -43.5h-65zM68 347v95h314v-95h-314z" />
    <glyph glyph-name="Ohorn" unicode="&#x1a0;" horiz-adv-x="805" 
d="M402 -9q-82 0 -148.5 25.5t-114.5 73.5t-73.5 117.5t-25.5 157.5t25.5 157t73.5 117t114.5 73.5t148.5 25.5t149 -25.5t115 -74t73.5 -117t25.5 -156.5t-25.5 -157.5t-74 -117.5t-115 -73.5t-148.5 -25.5zM402 105q70 0 121 30t78.5 88t27.5 142q0 63 -16 111t-45.5 81
t-71.5 50t-94 17q-69 0 -119.5 -29.5t-78.5 -87.5t-28 -142q0 -63 16 -112t45.5 -82t71 -49.5t93.5 -16.5zM565 632v72q39 -1 62 9t31.5 34t3.5 61h99q8 -61 -12 -101.5t-66 -59.5t-118 -15z" />
    <glyph glyph-name="ohorn" unicode="&#x1a1;" horiz-adv-x="602" 
d="M301 -9q-60 0 -108 18.5t-83.5 54.5t-54 87t-18.5 115q0 82 31.5 144t90.5 97t142 35q59 0 107 -19t82.5 -55t53.5 -86.5t19 -115.5q0 -81 -31.5 -143t-90 -97t-140.5 -35zM300 94q41 0 72 19.5t48 58t17 94.5q0 42 -9.5 74.5t-27.5 54.5t-43 33t-56 11
q-41 0 -72.5 -19.5t-48.5 -58t-17 -95.5q0 -42 9.5 -74.5t27.5 -54t43.5 -32.5t56.5 -11zM380 444v72q39 -1 62 9t31.5 34t3.5 61h99q8 -61 -12 -101.5t-66 -59.5t-118 -15z" />
    <glyph glyph-name="Uhorn" unicode="&#x1af;" horiz-adv-x="733" 
d="M366 -9q-96 0 -164 34.5t-104 98t-36 150.5v455h132v-454q0 -55 21 -92t59.5 -55.5t92.5 -18.5q58 0 96.5 20t57.5 57t19 89v454h131v-455q0 -88 -36.5 -151.5t-105 -97.5t-163.5 -34zM561 657v72q39 -1 62 9t31.5 34t3.5 61h99q8 -61 -12 -101.5t-66 -59.5t-118 -15z
" />
    <glyph glyph-name="uhorn" unicode="&#x1b0;" horiz-adv-x="650" 
d="M249 -9q-60 0 -103 24t-65.5 71.5t-22.5 115.5v330h125v-297q0 -45 12 -76.5t37 -48.5t65 -17t69.5 20t45.5 53.5t16 75.5v290h125v-532h-120l-5 103h-6q-20 -54 -66.5 -83t-106.5 -29zM445 460v72q39 -1 62 9t31.5 34t3.5 61h99q8 -61 -12 -101.5t-66 -59.5t-118 -15z
" />
    <glyph glyph-name="Gcaron" unicode="&#x1e6;" horiz-adv-x="814" 
d="M384 -9q-78 0 -141.5 25.5t-109 73.5t-70 115.5t-24.5 151.5q0 89 26.5 159.5t75.5 120t116.5 75.5t151.5 26q93 0 165.5 -29.5t118.5 -84t57 -131.5h-135q-11 40 -39.5 69.5t-70.5 45.5t-97 16q-75 0 -127 -33t-79 -92t-27 -138q0 -62 16.5 -110t46.5 -81.5t72 -51
t95 -17.5q63 0 111 23t75 64.5t27 98.5v37l29 -27h-259v97h371v-394h-106l-7 127h-6q-17 -41 -55 -71.5t-90 -47.5t-111 -17zM348 794l-110 143h107l64 -86l65 86h107l-110 -143h-123z" />
    <glyph glyph-name="gcaron" unicode="&#x1e7;" horiz-adv-x="609" 
d="M281 -177q-67 0 -116 19.5t-77.5 55t-32.5 82.5h120q4 -20 18.5 -35t37.5 -23.5t53 -8.5q48 0 77 13.5t42.5 40.5t13.5 67v86h-6q-16 -43 -60 -70.5t-104 -27.5q-47 0 -85 18t-65.5 51.5t-42.5 81.5t-15 109q0 82 26 140t73 89t109 31q58 0 102.5 -26t61.5 -71h7l4 87
h120v-476q0 -84 -32 -135.5t-90.5 -74.5t-138.5 -23zM293 124q40 0 67.5 18t41.5 48t14 66v52q0 39 -14.5 68.5t-41.5 47t-65 17.5q-42 0 -70.5 -19.5t-43.5 -55t-15 -84.5q0 -48 14.5 -83.5t42.5 -55t70 -19.5zM245 597l-110 143h107l64 -86l65 86h107l-110 -143h-123z" />
    <glyph glyph-name="uni0218" unicode="&#x218;" horiz-adv-x="659" 
d="M331 -9q-98 0 -163.5 30t-98.5 84t-34 123h135q1 -41 18.5 -71t53.5 -47t93 -17q46 0 80 11t52.5 34.5t18.5 59.5q0 28 -9 46.5t-30 31t-56 21.5t-86 18q-63 10 -110.5 26.5t-79.5 40.5t-48 58.5t-16 82.5q0 66 33.5 114t95.5 74.5t148 26.5q85 0 145.5 -27t93.5 -75.5
t34 -112.5h-134q-1 39 -20 64.5t-51 37.5t-73 12q-42 0 -72 -11.5t-46 -33t-16 -52.5q0 -34 16.5 -53.5t57 -31.5t111.5 -24q48 -8 92 -20t80 -35.5t56.5 -64t20.5 -104.5t-33 -113t-98 -76t-161 -27zM230 -207l42 150h120l-67 -150h-95z" />
    <glyph glyph-name="uni0219" unicode="&#x219;" horiz-adv-x="525" 
d="M262 -10q-53 0 -94.5 12.5t-71 35t-46 54t-17.5 70.5h123q3 -29 17 -47t37.5 -26.5t54.5 -8.5q48 0 72.5 17.5t24.5 48.5q0 25 -11.5 38.5t-36 21t-65.5 13.5q-68 10 -113 27.5t-67 48.5t-22 82q0 50 27.5 87t76.5 57.5t114 20.5q64 0 111 -20t73.5 -57t28.5 -86h-123
q0 26 -12.5 42t-33 24t-47.5 8q-42 0 -66 -17.5t-24 -47.5q0 -22 12.5 -35.5t40.5 -21.5t72 -14q64 -9 106.5 -26t64 -49t21.5 -85t-28.5 -90.5t-79.5 -57t-119 -19.5zM159 -207l42 150h120l-67 -150h-95z" />
    <glyph glyph-name="uni021A" unicode="&#x21a;" horiz-adv-x="627" 
d="M245 0v628h133v-628h-133zM23 614v115h580v-115h-580zM211 -207l42 150h120l-67 -150h-95z" />
    <glyph glyph-name="uni021B" unicode="&#x21b;" horiz-adv-x="389" 
d="M244 0q-64 0 -95.5 30.5t-31.5 97.5v303h-98v101h98v150l125 13v-163h112v-101h-112v-280q0 -27 12.5 -37.5t36.5 -10.5h64v-103h-111zM149 -207l42 150h120l-67 -150h-95z" />
    <glyph glyph-name="uni0237" unicode="&#x237;" horiz-adv-x="260" 
d="M-31 -167v91h42q30 0 43 14t13 48v546h125v-548q0 -47 -14.5 -81t-46 -52t-83.5 -18h-79z" />
    <glyph glyph-name="circumflex" unicode="&#x2c6;" horiz-adv-x="423" 
d="M40 740l110 143h123l110 -143h-107l-65 85l-64 -85h-107z" />
    <glyph glyph-name="caron" unicode="&#x2c7;" horiz-adv-x="423" 
d="M150 740l-110 143h107l64 -86l65 86h107l-110 -143h-123z" />
    <glyph glyph-name="breve" unicode="&#x2d8;" horiz-adv-x="394" 
d="M197 735q-48 0 -83 18t-54.5 51t-19.5 79h84q0 -39 20 -59t53 -20q34 0 53.5 20t19.5 59h84q0 -69 -42.5 -108.5t-114.5 -39.5z" />
    <glyph glyph-name="dotaccent" unicode="&#x2d9;" horiz-adv-x="218" 
d="M109 747q-30 0 -49.5 16.5t-19.5 44.5q0 29 19.5 45t49.5 16t49.5 -16t19.5 -45q0 -28 -19.5 -44.5t-49.5 -16.5z" />
    <glyph glyph-name="ring" unicode="&#x2da;" horiz-adv-x="307" 
d="M154 722q-51 0 -82.5 29.5t-31.5 76.5q0 48 31.5 76.5t82.5 28.5t82 -28.5t31 -76.5q0 -47 -31 -76.5t-82 -29.5zM154 780q21 0 34 13t13 35q0 21 -13 34t-34 13q-22 0 -35 -13t-13 -34q0 -22 13 -35t35 -13z" />
    <glyph glyph-name="ogonek" unicode="&#x2db;" horiz-adv-x="282" 
d="M155 -216q-53 0 -84 24t-31 65q0 26 13.5 51.5t39.5 48t63 41.5h65l9 -14q-37 -25 -59 -51t-22 -56q0 -22 13 -34t37 -12q12 0 22.5 3t20.5 7v-57q-16 -7 -40 -11.5t-47 -4.5z" />
    <glyph glyph-name="tilde" unicode="&#x2dc;" horiz-adv-x="458" 
d="M300 753q-31 0 -55 8t-44 16t-43 8q-20 0 -35 -8.5t-27 -25.5l-56 33q18 33 35.5 51t37.5 25.5t42 7.5q26 0 50 -8t47 -16t45 -8q19 0 35 8t29 26l57 -33q-15 -32 -33.5 -50.5t-39.5 -26t-45 -7.5z" />
    <glyph glyph-name="hungarumlaut" unicode="&#x2dd;" horiz-adv-x="465" 
d="M40 740l60 143h119l-88 -143h-91zM216 740l83 143h126l-108 -143h-101z" />
    <glyph glyph-name="gravecomb" unicode="&#x300;" horiz-adv-x="0" 
d="M129 740l-89 143h125l59 -143h-95z" />
    <glyph glyph-name="acutecomb" unicode="&#x301;" horiz-adv-x="0" 
d="M40 740l59 143h125l-88 -143h-96z" />
    <glyph glyph-name="uni0302" unicode="&#x302;" horiz-adv-x="0" 
d="M40 740l110 143h123l110 -143h-107l-65 85l-64 -85h-107z" />
    <glyph glyph-name="tildecomb" unicode="&#x303;" horiz-adv-x="0" 
d="M300 753q-31 0 -55 8t-44 16t-43 8q-20 0 -35 -8.5t-27 -25.5l-56 33q18 33 35.5 51t37.5 25.5t42 7.5q26 0 50 -8t47 -16t45 -8q19 0 35 8t29 26l57 -33q-15 -32 -33.5 -50.5t-39.5 -26t-45 -7.5z" />
    <glyph glyph-name="uni0304" unicode="&#x304;" horiz-adv-x="0" 
d="M40 754v94h367v-94h-367z" />
    <glyph glyph-name="uni0306" unicode="&#x306;" horiz-adv-x="0" 
d="M197 735q-48 0 -83 18t-54.5 51t-19.5 79h84q0 -39 20 -59t53 -20q34 0 53.5 20t19.5 59h84q0 -69 -42.5 -108.5t-114.5 -39.5z" />
    <glyph glyph-name="uni0307" unicode="&#x307;" horiz-adv-x="0" 
d="M109 747q-30 0 -49.5 16.5t-19.5 44.5q0 29 19.5 45t49.5 16t49.5 -16t19.5 -45q0 -28 -19.5 -44.5t-49.5 -16.5z" />
    <glyph glyph-name="uni0308" unicode="&#x308;" horiz-adv-x="0" 
d="M313 752q-28 0 -46 15t-18 41q0 27 18 41.5t46 14.5t46 -14.5t18 -41.5q0 -26 -18 -41t-46 -15zM104 752q-28 0 -46 15t-18 41q0 27 18 41.5t46 14.5t46 -14.5t18 -41.5q0 -26 -18 -41t-46 -15z" />
    <glyph glyph-name="hookabovecomb" unicode="&#x309;" horiz-adv-x="0" 
d="M97 724l-32 62q40 16 56 31t16 34q0 17 -13.5 26t-34.5 9q-13 0 -25 -2t-24 -6v65q19 5 39 7.5t40 2.5q42 0 70.5 -11.5t43 -32t14.5 -48.5q0 -46 -36.5 -78.5t-113.5 -58.5z" />
    <glyph glyph-name="uni030A" unicode="&#x30a;" horiz-adv-x="0" 
d="M154 722q-51 0 -82.5 29.5t-31.5 76.5q0 48 31.5 76.5t82.5 28.5t82 -28.5t31 -76.5q0 -47 -31 -76.5t-82 -29.5zM154 780q21 0 34 13t13 35q0 21 -13 34t-34 13q-22 0 -35 -13t-13 -34q0 -22 13 -35t35 -13z" />
    <glyph glyph-name="uni030B" unicode="&#x30b;" horiz-adv-x="0" 
d="M40 740l60 143h119l-88 -143h-91zM216 740l83 143h126l-108 -143h-101z" />
    <glyph glyph-name="uni030C" unicode="&#x30c;" horiz-adv-x="0" 
d="M150 740l-110 143h107l64 -86l65 86h107l-110 -143h-123z" />
    <glyph glyph-name="uni0312" unicode="&#x312;" horiz-adv-x="0" 
d="M40 740v38q0 56 25.5 94.5t73.5 69.5l48 -53q-25 -25 -37 -52.5t-12 -69.5v-27h-98z" />
    <glyph glyph-name="uni031B" unicode="&#x31b;" horiz-adv-x="0" 
d="M40 483v72q39 -1 62 9t31.5 34t3.5 61h99q8 -61 -12 -101.5t-66 -59.5t-118 -15z" />
    <glyph glyph-name="dotbelowcomb" unicode="&#x323;" horiz-adv-x="0" 
d="M102 -172q-25 0 -43.5 15.5t-18.5 41.5q0 28 18.5 43t43.5 15q26 0 44.5 -15t18.5 -43q0 -26 -18.5 -41.5t-44.5 -15.5z" />
    <glyph glyph-name="uni0326" unicode="&#x326;" horiz-adv-x="0" 
d="M40 -207l42 150h120l-67 -150h-95z" />
    <glyph glyph-name="uni0327" unicode="&#x327;" horiz-adv-x="0" 
d="M176 -249q-49 0 -87 22t-49 67l78 21q4 -18 17.5 -28t33.5 -11q23 0 35.5 12t12.5 30q0 24 -21 35t-64 18l-12 25l46 75h58l-22 -59q46 -12 73 -38.5t27 -68.5q0 -47 -34.5 -73.5t-91.5 -26.5z" />
    <glyph glyph-name="uni0328" unicode="&#x328;" horiz-adv-x="0" 
d="M155 -216q-53 0 -84 24t-31 65q0 26 13.5 51.5t39.5 48t63 41.5h65l9 -14q-37 -25 -59 -51t-22 -56q0 -22 13 -34t37 -12q12 0 22.5 3t20.5 7v-57q-16 -7 -40 -11.5t-47 -4.5z" />
    <glyph glyph-name="uni0335" unicode="&#x335;" horiz-adv-x="0" 
d="M40 266v80h330v-80h-330z" />
    <glyph glyph-name="uni0336" unicode="&#x336;" horiz-adv-x="0" 
d="M40 322v94h806v-94h-806z" />
    <glyph glyph-name="uni0337" unicode="&#x337;" horiz-adv-x="0" 
d="M40 198v104l240 137v-103z" />
    <glyph glyph-name="uni0338" unicode="&#x338;" horiz-adv-x="0" 
d="M40 -60l481 652h80l-479 -652h-82z" />
    <glyph glyph-name="uni03BC" unicode="&#x3bc;" horiz-adv-x="629" 
d="M67 -132v664h125v-323q0 -37 13.5 -63t40 -39.5t62.5 -13.5q67 0 98 41t31 108v290h125v-532h-120l-5 103h-7q-20 -57 -66 -84.5t-105 -27.5q-41 0 -74 14.5t-47 39.5l54 30v-207h-125z" />
    <glyph glyph-name="pi" unicode="&#x3c0;" horiz-adv-x="626" 
d="M523 -6q-54 0 -83 19t-40 51t-11 71v295h-164v-430h-122v430h-83v102h573v-102h-82v-279q0 -22 5.5 -36t16.5 -21.5t28 -7.5q8 0 16.5 1.5t14.5 4.5v-87q-13 -5 -32.5 -8t-36.5 -3z" />
    <glyph glyph-name="uni0E3F" unicode="&#xe3f;" horiz-adv-x="712" 
d="M88 0v729h330q73 0 122.5 -23.5t74.5 -65.5t25 -98q0 -38 -13.5 -71t-38.5 -56t-62 -33v-7q44 -8 73.5 -32.5t44.5 -59t15 -76.5q0 -62 -29 -109t-87 -72.5t-142 -25.5h-313zM216 103h171q66 0 99 30.5t33 82.5q0 51 -31.5 79t-92.5 28h-179v-220zM216 422h173
q37 0 62 12.5t37.5 35.5t12.5 53q0 50 -32.5 77t-86.5 27h-166v-205zM298 -85v146h77v-146h-77zM299 700v115h76v-115h-76z" />
    <glyph glyph-name="Wgrave" unicode="&#x1e80;" horiz-adv-x="1004" 
d="M196 0l-173 729h146l83 -403l36 -203h7l38 203l87 403h165l87 -392l40 -215h7l36 215l80 392h146l-173 -729h-183l-78 360l-41 222h-7l-42 -222l-79 -360h-182zM454 794l-89 143h125l59 -143h-95z" />
    <glyph glyph-name="wgrave" unicode="&#x1e81;" horiz-adv-x="802" 
d="M140 0l-130 532h128l64 -283l27 -138h6l24 138l58 283h141l59 -283l24 -139h6l26 139l65 283h122l-130 -532h-164l-56 249l-25 140h-5l-24 -140l-52 -249h-164zM354 597l-89 143h125l59 -143h-95z" />
    <glyph glyph-name="Wacute" unicode="&#x1e82;" horiz-adv-x="1004" 
d="M196 0l-173 729h146l83 -403l36 -203h7l38 203l87 403h165l87 -392l40 -215h7l36 215l80 392h146l-173 -729h-183l-78 360l-41 222h-7l-42 -222l-79 -360h-182zM455 794l59 143h125l-88 -143h-96z" />
    <glyph glyph-name="wacute" unicode="&#x1e83;" horiz-adv-x="802" 
d="M140 0l-130 532h128l64 -283l27 -138h6l24 138l58 283h141l59 -283l24 -139h6l26 139l65 283h122l-130 -532h-164l-56 249l-25 140h-5l-24 -140l-52 -249h-164zM354 597l59 143h125l-88 -143h-96z" />
    <glyph glyph-name="Wdieresis" unicode="&#x1e84;" horiz-adv-x="1004" 
d="M196 0l-173 729h146l83 -403l36 -203h7l38 203l87 403h165l87 -392l40 -215h7l36 215l80 392h146l-173 -729h-183l-78 360l-41 222h-7l-42 -222l-79 -360h-182zM607 806q-28 0 -46 15t-18 41q0 27 18 41.5t46 14.5t46 -14.5t18 -41.5q0 -26 -18 -41t-46 -15zM398 806
q-28 0 -46 15t-18 41q0 27 18 41.5t46 14.5t46 -14.5t18 -41.5q0 -26 -18 -41t-46 -15z" />
    <glyph glyph-name="wdieresis" unicode="&#x1e85;" horiz-adv-x="802" 
d="M140 0l-130 532h128l64 -283l27 -138h6l24 138l58 283h141l59 -283l24 -139h6l26 139l65 283h122l-130 -532h-164l-56 249l-25 140h-5l-24 -140l-52 -249h-164zM507 609q-28 0 -46 15t-18 41q0 27 18 41.5t46 14.5t46 -14.5t18 -41.5q0 -26 -18 -41t-46 -15zM298 609
q-28 0 -46 15t-18 41q0 27 18 41.5t46 14.5t46 -14.5t18 -41.5q0 -26 -18 -41t-46 -15z" />
    <glyph glyph-name="uni1E9E" unicode="&#x1e9e;" horiz-adv-x="689" 
d="M74 0v729h538v-126l-144 -186v-43l-35 37h21q63 0 108.5 -24.5t69 -69t23.5 -103.5q0 -67 -30.5 -115t-87 -73.5t-134.5 -25.5h-133v108h111q72 0 104 34t32 87q0 59 -34.5 89.5t-104.5 30.5h-43v65l155 204h-283v-618h-133z" />
    <glyph glyph-name="uni1EA0" unicode="&#x1ea0;" horiz-adv-x="728" 
d="M20 0l250 729h188l250 -729h-138l-174 535l-28 93h-7l-29 -93l-174 -535h-138zM199 160l26 103h278l26 -103h-330zM364 -172q-25 0 -43.5 15.5t-18.5 41.5q0 28 18.5 43t43.5 15q26 0 44.5 -15t18.5 -43q0 -26 -18.5 -41.5t-44.5 -15.5z" />
    <glyph glyph-name="uni1EA1" unicode="&#x1ea1;" horiz-adv-x="627" 
d="M258 -9q-49 0 -89 18.5t-69 54t-44.5 87t-15.5 115.5q0 87 27.5 149t76.5 94.5t114 32.5q42 0 76.5 -13t59 -37t36.5 -56h7l5 96h118v-532h-118l-5 97h-7q-17 -48 -63 -77t-109 -29zM302 93q44 0 73.5 19.5t44.5 52.5t15 73v57q0 41 -15.5 74t-45 52t-69.5 19
q-45 0 -75.5 -20.5t-46.5 -59.5t-16 -94q0 -53 15.5 -92t45.5 -60t74 -21zM317 -172q-25 0 -43.5 15.5t-18.5 41.5q0 28 18.5 43t43.5 15q26 0 44.5 -15t18.5 -43q0 -26 -18.5 -41.5t-44.5 -15.5z" />
    <glyph glyph-name="uni1EA2" unicode="&#x1ea2;" horiz-adv-x="728" 
d="M20 0l250 729h188l250 -729h-138l-174 535l-28 93h-7l-29 -93l-174 -535h-138zM199 160l26 103h278l26 -103h-330zM322 778l-32 62q40 16 56 31t16 34q0 17 -13.5 26t-34.5 9q-13 0 -25 -2t-24 -6v65q19 5 39 7.5t40 2.5q42 0 70.5 -11.5t43 -32t14.5 -48.5
q0 -46 -36.5 -78.5t-113.5 -58.5z" />
    <glyph glyph-name="uni1EA3" unicode="&#x1ea3;" horiz-adv-x="627" 
d="M258 -9q-49 0 -89 18.5t-69 54t-44.5 87t-15.5 115.5q0 87 27.5 149t76.5 94.5t114 32.5q42 0 76.5 -13t59 -37t36.5 -56h7l5 96h118v-532h-118l-5 97h-7q-17 -48 -63 -77t-109 -29zM302 93q44 0 73.5 19.5t44.5 52.5t15 73v57q0 41 -15.5 74t-45 52t-69.5 19
q-45 0 -75.5 -20.5t-46.5 -59.5t-16 -94q0 -53 15.5 -92t45.5 -60t74 -21zM275 581l-32 62q40 16 56 31t16 34q0 17 -13.5 26t-34.5 9q-13 0 -25 -2t-24 -6v65q19 5 39 7.5t40 2.5q42 0 70.5 -11.5t43 -32t14.5 -48.5q0 -46 -36.5 -78.5t-113.5 -58.5z" />
    <glyph glyph-name="uni1EA4" unicode="&#x1ea4;" horiz-adv-x="728" 
d="M20 0l250 729h188l250 -729h-138l-174 535l-28 93h-7l-29 -93l-174 -535h-138zM199 160l26 103h278l26 -103h-330zM193 794l110 143h123l110 -143h-107l-65 85l-64 -85h-107zM493 888l69 138h102l-97 -138h-74z" />
    <glyph glyph-name="uni1EA5" unicode="&#x1ea5;" horiz-adv-x="627" 
d="M258 -9q-49 0 -89 18.5t-69 54t-44.5 87t-15.5 115.5q0 87 27.5 149t76.5 94.5t114 32.5q42 0 76.5 -13t59 -37t36.5 -56h7l5 96h118v-532h-118l-5 97h-7q-17 -48 -63 -77t-109 -29zM302 93q44 0 73.5 19.5t44.5 52.5t15 73v57q0 41 -15.5 74t-45 52t-69.5 19
q-45 0 -75.5 -20.5t-46.5 -59.5t-16 -94q0 -53 15.5 -92t45.5 -60t74 -21zM146 597l110 143h123l110 -143h-107l-65 85l-64 -85h-107zM446 691l69 138h102l-97 -138h-74z" />
    <glyph glyph-name="uni1EA6" unicode="&#x1ea6;" horiz-adv-x="728" 
d="M20 0l250 729h188l250 -729h-138l-174 535l-28 93h-7l-29 -93l-174 -535h-138zM199 160l26 103h278l26 -103h-330zM193 794l110 143h123l110 -143h-107l-65 85l-64 -85h-107zM525 888l-92 138h102l65 -138h-75z" />
    <glyph glyph-name="uni1EA7" unicode="&#x1ea7;" horiz-adv-x="627" 
d="M258 -9q-49 0 -89 18.5t-69 54t-44.5 87t-15.5 115.5q0 87 27.5 149t76.5 94.5t114 32.5q42 0 76.5 -13t59 -37t36.5 -56h7l5 96h118v-532h-118l-5 97h-7q-17 -48 -63 -77t-109 -29zM302 93q44 0 73.5 19.5t44.5 52.5t15 73v57q0 41 -15.5 74t-45 52t-69.5 19
q-45 0 -75.5 -20.5t-46.5 -59.5t-16 -94q0 -53 15.5 -92t45.5 -60t74 -21zM146 597l110 143h123l110 -143h-107l-65 85l-64 -85h-107zM478 691l-92 138h102l65 -138h-75z" />
    <glyph glyph-name="uni1EA8" unicode="&#x1ea8;" horiz-adv-x="728" 
d="M20 0l250 729h188l250 -729h-138l-174 535l-28 93h-7l-29 -93l-174 -535h-138zM199 160l26 103h278l26 -103h-330zM193 794l110 143h123l110 -143h-107l-65 85l-64 -85h-107zM540 842l-36 46q16 12 26 26t10 30t-10 26t-30 10q-7 0 -15.5 -1.5t-14.5 -4.5v54q14 5 31 7
t30 2q46 0 71 -22.5t25 -58.5q0 -32 -20 -61t-67 -53z" />
    <glyph glyph-name="uni1EA9" unicode="&#x1ea9;" horiz-adv-x="627" 
d="M258 -9q-49 0 -89 18.5t-69 54t-44.5 87t-15.5 115.5q0 87 27.5 149t76.5 94.5t114 32.5q42 0 76.5 -13t59 -37t36.5 -56h7l5 96h118v-532h-118l-5 97h-7q-17 -48 -63 -77t-109 -29zM302 93q44 0 73.5 19.5t44.5 52.5t15 73v57q0 41 -15.5 74t-45 52t-69.5 19
q-45 0 -75.5 -20.5t-46.5 -59.5t-16 -94q0 -53 15.5 -92t45.5 -60t74 -21zM146 597l110 143h123l110 -143h-107l-65 85l-64 -85h-107zM493 645l-36 46q16 12 26 26t10 30t-10 26t-30 10q-7 0 -15.5 -1.5t-14.5 -4.5v54q14 5 31 7t30 2q46 0 71 -22.5t25 -58.5q0 -32 -20 -61
t-67 -53z" />
    <glyph glyph-name="uni1EAA" unicode="&#x1eaa;" horiz-adv-x="728" 
d="M20 0l250 729h188l250 -729h-138l-174 535l-28 93h-7l-29 -93l-174 -535h-138zM199 160l26 103h278l26 -103h-330zM193 794l107 127h129l107 -127h-107l-65 82l-64 -82h-107zM244 947l-41 26q18 35 41 52.5t58 17.5q25 0 48 -7t45 -14t44 -7q16 0 29.5 6t23.5 22l41 -26
q-17 -34 -41 -51.5t-59 -17.5q-28 0 -51.5 7t-44 14t-41.5 7q-16 0 -28.5 -6t-23.5 -23z" />
    <glyph glyph-name="uni1EAB" unicode="&#x1eab;" horiz-adv-x="627" 
d="M258 -9q-49 0 -89 18.5t-69 54t-44.5 87t-15.5 115.5q0 87 27.5 149t76.5 94.5t114 32.5q42 0 76.5 -13t59 -37t36.5 -56h7l5 96h118v-532h-118l-5 97h-7q-17 -48 -63 -77t-109 -29zM302 93q44 0 73.5 19.5t44.5 52.5t15 73v57q0 41 -15.5 74t-45 52t-69.5 19
q-45 0 -75.5 -20.5t-46.5 -59.5t-16 -94q0 -53 15.5 -92t45.5 -60t74 -21zM146 597l107 127h129l107 -127h-107l-65 82l-64 -82h-107zM197 750l-41 26q18 35 41 52.5t58 17.5q25 0 48 -7t45 -14t44 -7q16 0 29.5 6t23.5 22l41 -26q-17 -34 -41 -51.5t-59 -17.5
q-28 0 -51.5 7t-44 14t-41.5 7q-16 0 -28.5 -6t-23.5 -23z" />
    <glyph glyph-name="uni1EAC" unicode="&#x1eac;" horiz-adv-x="728" 
d="M20 0l250 729h188l250 -729h-138l-174 535l-28 93h-7l-29 -93l-174 -535h-138zM199 160l26 103h278l26 -103h-330zM364 -172q-25 0 -43.5 15.5t-18.5 41.5q0 28 18.5 43t43.5 15q26 0 44.5 -15t18.5 -43q0 -26 -18.5 -41.5t-44.5 -15.5zM193 794l110 143h123l110 -143
h-107l-65 85l-64 -85h-107z" />
    <glyph glyph-name="uni1EAD" unicode="&#x1ead;" horiz-adv-x="627" 
d="M258 -9q-49 0 -89 18.5t-69 54t-44.5 87t-15.5 115.5q0 87 27.5 149t76.5 94.5t114 32.5q42 0 76.5 -13t59 -37t36.5 -56h7l5 96h118v-532h-118l-5 97h-7q-17 -48 -63 -77t-109 -29zM302 93q44 0 73.5 19.5t44.5 52.5t15 73v57q0 41 -15.5 74t-45 52t-69.5 19
q-45 0 -75.5 -20.5t-46.5 -59.5t-16 -94q0 -53 15.5 -92t45.5 -60t74 -21zM317 -172q-25 0 -43.5 15.5t-18.5 41.5q0 28 18.5 43t43.5 15q26 0 44.5 -15t18.5 -43q0 -26 -18.5 -41.5t-44.5 -15.5zM146 597l110 143h123l110 -143h-107l-65 85l-64 -85h-107z" />
    <glyph glyph-name="uni1EAE" unicode="&#x1eae;" horiz-adv-x="728" 
d="M20 0l250 729h188l250 -729h-138l-174 535l-28 93h-7l-29 -93l-174 -535h-138zM199 160l26 103h278l26 -103h-330zM364 774q-70 0 -113.5 36t-43.5 95h90q0 -29 17.5 -47t49.5 -18q31 0 49.5 17.5t18.5 47.5h89q0 -59 -43.5 -95t-113.5 -36zM323 923l57 111h108l-84 -111
h-81z" />
    <glyph glyph-name="uni1EAF" unicode="&#x1eaf;" horiz-adv-x="627" 
d="M258 -9q-49 0 -89 18.5t-69 54t-44.5 87t-15.5 115.5q0 87 27.5 149t76.5 94.5t114 32.5q42 0 76.5 -13t59 -37t36.5 -56h7l5 96h118v-532h-118l-5 97h-7q-17 -48 -63 -77t-109 -29zM302 93q44 0 73.5 19.5t44.5 52.5t15 73v57q0 41 -15.5 74t-45 52t-69.5 19
q-45 0 -75.5 -20.5t-46.5 -59.5t-16 -94q0 -53 15.5 -92t45.5 -60t74 -21zM317 577q-70 0 -113.5 36t-43.5 95h90q0 -29 17.5 -47t49.5 -18q31 0 49.5 17.5t18.5 47.5h89q0 -59 -43.5 -95t-113.5 -36zM276 726l57 111h108l-84 -111h-81z" />
    <glyph glyph-name="uni1EB0" unicode="&#x1eb0;" horiz-adv-x="728" 
d="M20 0l250 729h188l250 -729h-138l-174 535l-28 93h-7l-29 -93l-174 -535h-138zM199 160l26 103h278l26 -103h-330zM364 774q-70 0 -113.5 36t-43.5 95h90q0 -30 18 -47.5t49 -17.5q32 0 50 18t18 47h89q0 -59 -43.5 -95t-113.5 -36zM325 923l-84 111h107l57 -111h-80z
" />
    <glyph glyph-name="uni1EB1" unicode="&#x1eb1;" horiz-adv-x="627" 
d="M258 -9q-49 0 -89 18.5t-69 54t-44.5 87t-15.5 115.5q0 87 27.5 149t76.5 94.5t114 32.5q42 0 76.5 -13t59 -37t36.5 -56h7l5 96h118v-532h-118l-5 97h-7q-17 -48 -63 -77t-109 -29zM302 93q44 0 73.5 19.5t44.5 52.5t15 73v57q0 41 -15.5 74t-45 52t-69.5 19
q-45 0 -75.5 -20.5t-46.5 -59.5t-16 -94q0 -53 15.5 -92t45.5 -60t74 -21zM317 577q-70 0 -113.5 36t-43.5 95h90q0 -30 18 -47.5t49 -17.5q32 0 50 18t18 47h89q0 -59 -43.5 -95t-113.5 -36zM278 726l-84 111h107l57 -111h-80z" />
    <glyph glyph-name="uni1EB2" unicode="&#x1eb2;" horiz-adv-x="728" 
d="M20 0l250 729h188l250 -729h-138l-174 535l-28 93h-7l-29 -93l-174 -535h-138zM199 160l26 103h278l26 -103h-330zM366 774q-70 0 -113.5 36t-43.5 95h90q0 -30 18 -47.5t49 -17.5q32 0 50 18t18 47h89q0 -59 -43.5 -95t-113.5 -36zM357 895l-27 39q21 11 30.5 20t9.5 21
q0 14 -10 20t-26 6q-8 0 -17.5 -1t-18.5 -4l-1 52q17 5 34.5 7t31.5 2q29 0 50 -8t33 -23t12 -37q0 -20 -11 -37t-33.5 -31t-56.5 -26z" />
    <glyph glyph-name="uni1EB3" unicode="&#x1eb3;" horiz-adv-x="627" 
d="M258 -9q-49 0 -89 18.5t-69 54t-44.5 87t-15.5 115.5q0 87 27.5 149t76.5 94.5t114 32.5q42 0 76.5 -13t59 -37t36.5 -56h7l5 96h118v-532h-118l-5 97h-7q-17 -48 -63 -77t-109 -29zM302 93q44 0 73.5 19.5t44.5 52.5t15 73v57q0 41 -15.5 74t-45 52t-69.5 19
q-45 0 -75.5 -20.5t-46.5 -59.5t-16 -94q0 -53 15.5 -92t45.5 -60t74 -21zM319 577q-70 0 -113.5 36t-43.5 95h90q0 -30 18 -47.5t49 -17.5q32 0 50 18t18 47h89q0 -59 -43.5 -95t-113.5 -36zM310 698l-27 39q21 11 30.5 20t9.5 21q0 14 -10 20t-26 6q-8 0 -17.5 -1
t-18.5 -4l-1 52q17 5 34.5 7t31.5 2q29 0 50 -8t33 -23t12 -37q0 -20 -11 -37t-33.5 -31t-56.5 -26z" />
    <glyph glyph-name="uni1EB4" unicode="&#x1eb4;" horiz-adv-x="728" 
d="M20 0l250 729h188l250 -729h-138l-174 535l-28 93h-7l-29 -93l-174 -535h-138zM199 160l26 103h278l26 -103h-330zM364 777q-70 0 -113 36t-44 95h90q0 -30 18.5 -47.5t48.5 -17.5q32 0 50 18t18 47h90q-1 -59 -44 -95t-114 -36zM421 945q-26 0 -44 7.5t-35 14t-38 6.5
q-19 0 -32 -7t-25 -21l-47 26q21 39 48.5 54t56.5 15q24 0 42.5 -6.5t36.5 -13.5t39 -7q19 0 33 7.5t24 21.5l48 -25q-18 -38 -46.5 -55t-60.5 -17z" />
    <glyph glyph-name="uni1EB5" unicode="&#x1eb5;" horiz-adv-x="627" 
d="M258 -9q-49 0 -89 18.5t-69 54t-44.5 87t-15.5 115.5q0 87 27.5 149t76.5 94.5t114 32.5q42 0 76.5 -13t59 -37t36.5 -56h7l5 96h118v-532h-118l-5 97h-7q-17 -48 -63 -77t-109 -29zM302 93q44 0 73.5 19.5t44.5 52.5t15 73v57q0 41 -15.5 74t-45 52t-69.5 19
q-45 0 -75.5 -20.5t-46.5 -59.5t-16 -94q0 -53 15.5 -92t45.5 -60t74 -21zM317 580q-70 0 -113 36t-44 95h90q0 -30 18.5 -47.5t48.5 -17.5q32 0 50 18t18 47h90q-1 -59 -44 -95t-114 -36zM374 748q-26 0 -44 7.5t-35 14t-38 6.5q-19 0 -32 -7t-25 -21l-47 26q21 39 48.5 54
t56.5 15q24 0 42.5 -6.5t36.5 -13.5t39 -7q19 0 33 7.5t24 21.5l48 -25q-18 -38 -46.5 -55t-60.5 -17z" />
    <glyph glyph-name="uni1EB6" unicode="&#x1eb6;" horiz-adv-x="728" 
d="M20 0l250 729h188l250 -729h-138l-174 535l-28 93h-7l-29 -93l-174 -535h-138zM199 160l26 103h278l26 -103h-330zM364 -172q-25 0 -43.5 15.5t-18.5 41.5q0 28 18.5 43t43.5 15q26 0 44.5 -15t18.5 -43q0 -26 -18.5 -41.5t-44.5 -15.5zM364 786q-48 0 -83 18t-54.5 51
t-19.5 79h84q0 -39 20 -59t53 -20q34 0 53.5 20t19.5 59h84q0 -69 -42.5 -108.5t-114.5 -39.5z" />
    <glyph glyph-name="uni1EB7" unicode="&#x1eb7;" horiz-adv-x="627" 
d="M258 -9q-49 0 -89 18.5t-69 54t-44.5 87t-15.5 115.5q0 87 27.5 149t76.5 94.5t114 32.5q42 0 76.5 -13t59 -37t36.5 -56h7l5 96h118v-532h-118l-5 97h-7q-17 -48 -63 -77t-109 -29zM302 93q44 0 73.5 19.5t44.5 52.5t15 73v57q0 41 -15.5 74t-45 52t-69.5 19
q-45 0 -75.5 -20.5t-46.5 -59.5t-16 -94q0 -53 15.5 -92t45.5 -60t74 -21zM317 -172q-25 0 -43.5 15.5t-18.5 41.5q0 28 18.5 43t43.5 15q26 0 44.5 -15t18.5 -43q0 -26 -18.5 -41.5t-44.5 -15.5zM317 589q-48 0 -83 18t-54.5 51t-19.5 79h84q0 -39 20 -59t53 -20
q34 0 53.5 20t19.5 59h84q0 -69 -42.5 -108.5t-114.5 -39.5z" />
    <glyph glyph-name="uni1EB8" unicode="&#x1eb8;" horiz-adv-x="631" 
d="M74 0v729h520v-114h-416l28 29v-559l-28 29h418v-114h-522zM178 318v107h367v-107h-367zM318 -172q-25 0 -43.5 15.5t-18.5 41.5q0 28 18.5 43t43.5 15q26 0 44.5 -15t18.5 -43q0 -26 -18.5 -41.5t-44.5 -15.5z" />
    <glyph glyph-name="uni1EB9" unicode="&#x1eb9;" horiz-adv-x="583" 
d="M288 -9q-81 0 -137.5 33.5t-86.5 95t-30 143.5q0 85 30 147.5t86 96.5t133 34q88 0 144.5 -38.5t81.5 -106.5t17 -156h-370q0 -51 16.5 -85.5t46 -52t69.5 -17.5q47 0 76.5 20t39.5 53h118q-8 -52 -40 -89.5t-82 -57.5t-112 -20zM156 307l-11 13h271l-12 -14q2 49 -13 80
t-43 46t-65 15q-38 0 -66 -16t-44 -47.5t-17 -76.5zM298 -172q-25 0 -43.5 15.5t-18.5 41.5q0 28 18.5 43t43.5 15q26 0 44.5 -15t18.5 -43q0 -26 -18.5 -41.5t-44.5 -15.5z" />
    <glyph glyph-name="uni1EBA" unicode="&#x1eba;" horiz-adv-x="631" 
d="M74 0v729h520v-114h-416l28 29v-559l-28 29h418v-114h-522zM178 318v107h367v-107h-367zM276 778l-32 62q40 16 56 31t16 34q0 17 -13.5 26t-34.5 9q-13 0 -25 -2t-24 -6v65q19 5 39 7.5t40 2.5q42 0 70.5 -11.5t43 -32t14.5 -48.5q0 -46 -36.5 -78.5t-113.5 -58.5z" />
    <glyph glyph-name="uni1EBB" unicode="&#x1ebb;" horiz-adv-x="583" 
d="M288 -9q-81 0 -137.5 33.5t-86.5 95t-30 143.5q0 85 30 147.5t86 96.5t133 34q88 0 144.5 -38.5t81.5 -106.5t17 -156h-370q0 -51 16.5 -85.5t46 -52t69.5 -17.5q47 0 76.5 20t39.5 53h118q-8 -52 -40 -89.5t-82 -57.5t-112 -20zM156 307l-11 13h271l-12 -14q2 49 -13 80
t-43 46t-65 15q-38 0 -66 -16t-44 -47.5t-17 -76.5zM251 581l-32 62q40 16 56 31t16 34q0 17 -13.5 26t-34.5 9q-13 0 -25 -2t-24 -6v65q19 5 39 7.5t40 2.5q42 0 70.5 -11.5t43 -32t14.5 -48.5q0 -46 -36.5 -78.5t-113.5 -58.5z" />
    <glyph glyph-name="uni1EBC" unicode="&#x1ebc;" horiz-adv-x="631" 
d="M74 0v729h520v-114h-416l28 29v-559l-28 29h418v-114h-522zM178 318v107h367v-107h-367zM390 807q-31 0 -55 8t-44 16t-43 8q-20 0 -35 -8.5t-27 -25.5l-56 33q18 33 35.5 51t37.5 25.5t42 7.5q26 0 50 -8t47 -16t45 -8q19 0 35 8t29 26l57 -33q-15 -32 -33.5 -50.5
t-39.5 -26t-45 -7.5z" />
    <glyph glyph-name="uni1EBD" unicode="&#x1ebd;" horiz-adv-x="583" 
d="M288 -9q-81 0 -137.5 33.5t-86.5 95t-30 143.5q0 85 30 147.5t86 96.5t133 34q88 0 144.5 -38.5t81.5 -106.5t17 -156h-370q0 -51 16.5 -85.5t46 -52t69.5 -17.5q47 0 76.5 20t39.5 53h118q-8 -52 -40 -89.5t-82 -57.5t-112 -20zM156 307l-11 13h271l-12 -14q2 49 -13 80
t-43 46t-65 15q-38 0 -66 -16t-44 -47.5t-17 -76.5zM365 610q-31 0 -55 8t-44 16t-43 8q-20 0 -35 -8.5t-27 -25.5l-56 33q18 33 35.5 51t37.5 25.5t42 7.5q26 0 50 -8t47 -16t45 -8q19 0 35 8t29 26l57 -33q-15 -32 -33.5 -50.5t-39.5 -26t-45 -7.5z" />
    <glyph glyph-name="uni1EBE" unicode="&#x1ebe;" horiz-adv-x="631" 
d="M74 0v729h520v-114h-416l28 29v-559l-28 29h418v-114h-522zM178 318v107h367v-107h-367zM147 794l110 143h123l110 -143h-107l-65 85l-64 -85h-107zM447 888l69 138h102l-97 -138h-74z" />
    <glyph glyph-name="uni1EBF" unicode="&#x1ebf;" horiz-adv-x="583" 
d="M288 -9q-81 0 -137.5 33.5t-86.5 95t-30 143.5q0 85 30 147.5t86 96.5t133 34q88 0 144.5 -38.5t81.5 -106.5t17 -156h-370q0 -51 16.5 -85.5t46 -52t69.5 -17.5q47 0 76.5 20t39.5 53h118q-8 -52 -40 -89.5t-82 -57.5t-112 -20zM156 307l-11 13h271l-12 -14q2 49 -13 80
t-43 46t-65 15q-38 0 -66 -16t-44 -47.5t-17 -76.5zM122 597l110 143h123l110 -143h-107l-65 85l-64 -85h-107zM422 691l69 138h102l-97 -138h-74z" />
    <glyph glyph-name="uni1EC0" unicode="&#x1ec0;" horiz-adv-x="631" 
d="M74 0v729h520v-114h-416l28 29v-559l-28 29h418v-114h-522zM178 318v107h367v-107h-367zM147 794l110 143h123l110 -143h-107l-65 85l-64 -85h-107zM479 888l-92 138h102l65 -138h-75z" />
    <glyph glyph-name="uni1EC1" unicode="&#x1ec1;" horiz-adv-x="583" 
d="M288 -9q-81 0 -137.5 33.5t-86.5 95t-30 143.5q0 85 30 147.5t86 96.5t133 34q88 0 144.5 -38.5t81.5 -106.5t17 -156h-370q0 -51 16.5 -85.5t46 -52t69.5 -17.5q47 0 76.5 20t39.5 53h118q-8 -52 -40 -89.5t-82 -57.5t-112 -20zM156 307l-11 13h271l-12 -14q2 49 -13 80
t-43 46t-65 15q-38 0 -66 -16t-44 -47.5t-17 -76.5zM122 597l110 143h123l110 -143h-107l-65 85l-64 -85h-107zM454 691l-92 138h102l65 -138h-75z" />
    <glyph glyph-name="uni1EC2" unicode="&#x1ec2;" horiz-adv-x="631" 
d="M74 0v729h520v-114h-416l28 29v-559l-28 29h418v-114h-522zM178 318v107h367v-107h-367zM147 794l110 143h123l110 -143h-107l-65 85l-64 -85h-107zM494 842l-36 46q16 12 26 26t10 30t-10 26t-30 10q-7 0 -15.5 -1.5t-14.5 -4.5v54q14 5 31 7t30 2q46 0 71 -22.5
t25 -58.5q0 -32 -20 -61t-67 -53z" />
    <glyph glyph-name="uni1EC3" unicode="&#x1ec3;" horiz-adv-x="583" 
d="M288 -9q-81 0 -137.5 33.5t-86.5 95t-30 143.5q0 85 30 147.5t86 96.5t133 34q88 0 144.5 -38.5t81.5 -106.5t17 -156h-370q0 -51 16.5 -85.5t46 -52t69.5 -17.5q47 0 76.5 20t39.5 53h118q-8 -52 -40 -89.5t-82 -57.5t-112 -20zM156 307l-11 13h271l-12 -14q2 49 -13 80
t-43 46t-65 15q-38 0 -66 -16t-44 -47.5t-17 -76.5zM122 597l110 143h123l110 -143h-107l-65 85l-64 -85h-107zM469 645l-36 46q16 12 26 26t10 30t-10 26t-30 10q-7 0 -15.5 -1.5t-14.5 -4.5v54q14 5 31 7t30 2q46 0 71 -22.5t25 -58.5q0 -32 -20 -61t-67 -53z" />
    <glyph glyph-name="uni1EC4" unicode="&#x1ec4;" horiz-adv-x="631" 
d="M74 0v729h520v-114h-416l28 29v-559l-28 29h418v-114h-522zM178 318v107h367v-107h-367zM147 794l107 127h129l107 -127h-107l-65 82l-64 -82h-107zM198 947l-41 26q18 35 41 52.5t58 17.5q25 0 48 -7t45 -14t44 -7q16 0 29.5 6t23.5 22l41 -26q-17 -34 -41 -51.5
t-59 -17.5q-28 0 -51.5 7t-44 14t-41.5 7q-16 0 -28.5 -6t-23.5 -23z" />
    <glyph glyph-name="uni1EC5" unicode="&#x1ec5;" horiz-adv-x="583" 
d="M288 -9q-81 0 -137.5 33.5t-86.5 95t-30 143.5q0 85 30 147.5t86 96.5t133 34q88 0 144.5 -38.5t81.5 -106.5t17 -156h-370q0 -51 16.5 -85.5t46 -52t69.5 -17.5q47 0 76.5 20t39.5 53h118q-8 -52 -40 -89.5t-82 -57.5t-112 -20zM156 307l-11 13h271l-12 -14q2 49 -13 80
t-43 46t-65 15q-38 0 -66 -16t-44 -47.5t-17 -76.5zM122 597l107 127h129l107 -127h-107l-65 82l-64 -82h-107zM173 750l-41 26q18 35 41 52.5t58 17.5q25 0 48 -7t45 -14t44 -7q16 0 29.5 6t23.5 22l41 -26q-17 -34 -41 -51.5t-59 -17.5q-28 0 -51.5 7t-44 14t-41.5 7
q-16 0 -28.5 -6t-23.5 -23z" />
    <glyph glyph-name="uni1EC6" unicode="&#x1ec6;" horiz-adv-x="631" 
d="M74 0v729h520v-114h-416l28 29v-559l-28 29h418v-114h-522zM178 318v107h367v-107h-367zM318 -172q-25 0 -43.5 15.5t-18.5 41.5q0 28 18.5 43t43.5 15q26 0 44.5 -15t18.5 -43q0 -26 -18.5 -41.5t-44.5 -15.5zM147 794l110 143h123l110 -143h-107l-65 85l-64 -85h-107z
" />
    <glyph glyph-name="uni1EC7" unicode="&#x1ec7;" horiz-adv-x="583" 
d="M288 -9q-81 0 -137.5 33.5t-86.5 95t-30 143.5q0 85 30 147.5t86 96.5t133 34q88 0 144.5 -38.5t81.5 -106.5t17 -156h-370q0 -51 16.5 -85.5t46 -52t69.5 -17.5q47 0 76.5 20t39.5 53h118q-8 -52 -40 -89.5t-82 -57.5t-112 -20zM156 307l-11 13h271l-12 -14q2 49 -13 80
t-43 46t-65 15q-38 0 -66 -16t-44 -47.5t-17 -76.5zM298 -172q-25 0 -43.5 15.5t-18.5 41.5q0 28 18.5 43t43.5 15q26 0 44.5 -15t18.5 -43q0 -26 -18.5 -41.5t-44.5 -15.5zM122 597l110 143h123l110 -143h-107l-65 85l-64 -85h-107z" />
    <glyph glyph-name="uni1EC8" unicode="&#x1ec8;" horiz-adv-x="280" 
d="M74 0v729h132v-729h-132zM98 778l-32 62q40 16 56 31t16 34q0 17 -13.5 26t-34.5 9q-13 0 -25 -2t-24 -6v65q19 5 39 7.5t40 2.5q42 0 70.5 -11.5t43 -32t14.5 -48.5q0 -46 -36.5 -78.5t-113.5 -58.5z" />
    <glyph glyph-name="uni1EC9" unicode="&#x1ec9;" horiz-adv-x="260" 
d="M67 0v532h125v-532h-125zM88 581l-32 62q40 16 56 31t16 34q0 17 -13.5 26t-34.5 9q-13 0 -25 -2t-24 -6v65q19 5 39 7.5t40 2.5q42 0 70.5 -11.5t43 -32t14.5 -48.5q0 -46 -36.5 -78.5t-113.5 -58.5z" />
    <glyph glyph-name="uni1ECA" unicode="&#x1eca;" horiz-adv-x="280" 
d="M74 0v729h132v-729h-132zM140 -172q-25 0 -43.5 15.5t-18.5 41.5q0 28 18.5 43t43.5 15q26 0 44.5 -15t18.5 -43q0 -26 -18.5 -41.5t-44.5 -15.5z" />
    <glyph glyph-name="uni1ECB" unicode="&#x1ecb;" horiz-adv-x="260" 
d="M67 0v532h125v-532h-125zM130 604q-30 0 -49.5 16.5t-19.5 44.5q0 29 19.5 45t49.5 16t49.5 -16t19.5 -45q0 -28 -19.5 -44.5t-49.5 -16.5zM130 -172q-25 0 -43.5 15.5t-18.5 41.5q0 28 18.5 43t43.5 15q26 0 44.5 -15t18.5 -43q0 -26 -18.5 -41.5t-44.5 -15.5z" />
    <glyph glyph-name="uni1ECC" unicode="&#x1ecc;" horiz-adv-x="805" 
d="M402 -9q-82 0 -148.5 25.5t-114.5 73.5t-73.5 117.5t-25.5 157.5t25.5 157t73.5 117t114.5 73.5t148.5 25.5t149 -25.5t115 -74t73.5 -117t25.5 -156.5t-25.5 -157.5t-74 -117.5t-115 -73.5t-148.5 -25.5zM402 105q70 0 121 30t78.5 88t27.5 142q0 63 -16 111t-45.5 81
t-71.5 50t-94 17q-69 0 -119.5 -29.5t-78.5 -87.5t-28 -142q0 -63 16 -112t45.5 -82t71 -49.5t93.5 -16.5zM402 -172q-25 0 -43.5 15.5t-18.5 41.5q0 28 18.5 43t43.5 15q26 0 44.5 -15t18.5 -43q0 -26 -18.5 -41.5t-44.5 -15.5z" />
    <glyph glyph-name="uni1ECD" unicode="&#x1ecd;" 
d="M301 -9q-60 0 -108 18.5t-83.5 54.5t-54 87t-18.5 115q0 82 31.5 144t90.5 97t142 35q59 0 107 -19t82.5 -55t53.5 -86.5t19 -115.5q0 -81 -31.5 -143t-90 -97t-140.5 -35zM300 94q41 0 72 19.5t48 58t17 94.5q0 42 -9.5 74.5t-27.5 54.5t-43 33t-56 11
q-41 0 -72.5 -19.5t-48.5 -58t-17 -95.5q0 -42 9.5 -74.5t27.5 -54t43.5 -32.5t56.5 -11zM300 -172q-25 0 -43.5 15.5t-18.5 41.5q0 28 18.5 43t43.5 15q26 0 44.5 -15t18.5 -43q0 -26 -18.5 -41.5t-44.5 -15.5z" />
    <glyph glyph-name="uni1ECE" unicode="&#x1ece;" horiz-adv-x="805" 
d="M402 -9q-82 0 -148.5 25.5t-114.5 73.5t-73.5 117.5t-25.5 157.5t25.5 157t73.5 117t114.5 73.5t148.5 25.5t149 -25.5t115 -74t73.5 -117t25.5 -156.5t-25.5 -157.5t-74 -117.5t-115 -73.5t-148.5 -25.5zM402 105q70 0 121 30t78.5 88t27.5 142q0 63 -16 111t-45.5 81
t-71.5 50t-94 17q-69 0 -119.5 -29.5t-78.5 -87.5t-28 -142q0 -63 16 -112t45.5 -82t71 -49.5t93.5 -16.5zM360 778l-32 62q40 16 56 31t16 34q0 17 -13.5 26t-34.5 9q-13 0 -25 -2t-24 -6v65q19 5 39 7.5t40 2.5q42 0 70.5 -11.5t43 -32t14.5 -48.5q0 -46 -36.5 -78.5
t-113.5 -58.5z" />
    <glyph glyph-name="uni1ECF" unicode="&#x1ecf;" 
d="M301 -9q-60 0 -108 18.5t-83.5 54.5t-54 87t-18.5 115q0 82 31.5 144t90.5 97t142 35q59 0 107 -19t82.5 -55t53.5 -86.5t19 -115.5q0 -81 -31.5 -143t-90 -97t-140.5 -35zM300 94q41 0 72 19.5t48 58t17 94.5q0 42 -9.5 74.5t-27.5 54.5t-43 33t-56 11
q-41 0 -72.5 -19.5t-48.5 -58t-17 -95.5q0 -42 9.5 -74.5t27.5 -54t43.5 -32.5t56.5 -11zM258 581l-32 62q40 16 56 31t16 34q0 17 -13.5 26t-34.5 9q-13 0 -25 -2t-24 -6v65q19 5 39 7.5t40 2.5q42 0 70.5 -11.5t43 -32t14.5 -48.5q0 -46 -36.5 -78.5t-113.5 -58.5z" />
    <glyph glyph-name="uni1ED0" unicode="&#x1ed0;" horiz-adv-x="805" 
d="M402 -9q-82 0 -148.5 25.5t-114.5 73.5t-73.5 117.5t-25.5 157.5t25.5 157t73.5 117t114.5 73.5t148.5 25.5t149 -25.5t115 -74t73.5 -117t25.5 -156.5t-25.5 -157.5t-74 -117.5t-115 -73.5t-148.5 -25.5zM402 105q70 0 121 30t78.5 88t27.5 142q0 63 -16 111t-45.5 81
t-71.5 50t-94 17q-69 0 -119.5 -29.5t-78.5 -87.5t-28 -142q0 -63 16 -112t45.5 -82t71 -49.5t93.5 -16.5zM231 794l110 143h123l110 -143h-107l-65 85l-64 -85h-107zM531 888l69 138h102l-97 -138h-74z" />
    <glyph glyph-name="uni1ED1" unicode="&#x1ed1;" 
d="M301 -9q-60 0 -108 18.5t-83.5 54.5t-54 87t-18.5 115q0 82 31.5 144t90.5 97t142 35q59 0 107 -19t82.5 -55t53.5 -86.5t19 -115.5q0 -81 -31.5 -143t-90 -97t-140.5 -35zM300 94q41 0 72 19.5t48 58t17 94.5q0 42 -9.5 74.5t-27.5 54.5t-43 33t-56 11
q-41 0 -72.5 -19.5t-48.5 -58t-17 -95.5q0 -42 9.5 -74.5t27.5 -54t43.5 -32.5t56.5 -11zM129 597l110 143h123l110 -143h-107l-65 85l-64 -85h-107zM429 691l69 138h102l-97 -138h-74z" />
    <glyph glyph-name="uni1ED2" unicode="&#x1ed2;" horiz-adv-x="805" 
d="M402 -9q-82 0 -148.5 25.5t-114.5 73.5t-73.5 117.5t-25.5 157.5t25.5 157t73.5 117t114.5 73.5t148.5 25.5t149 -25.5t115 -74t73.5 -117t25.5 -156.5t-25.5 -157.5t-74 -117.5t-115 -73.5t-148.5 -25.5zM402 105q70 0 121 30t78.5 88t27.5 142q0 63 -16 111t-45.5 81
t-71.5 50t-94 17q-69 0 -119.5 -29.5t-78.5 -87.5t-28 -142q0 -63 16 -112t45.5 -82t71 -49.5t93.5 -16.5zM231 794l110 143h123l110 -143h-107l-65 85l-64 -85h-107zM563 888l-92 138h102l65 -138h-75z" />
    <glyph glyph-name="uni1ED3" unicode="&#x1ed3;" 
d="M301 -9q-60 0 -108 18.5t-83.5 54.5t-54 87t-18.5 115q0 82 31.5 144t90.5 97t142 35q59 0 107 -19t82.5 -55t53.5 -86.5t19 -115.5q0 -81 -31.5 -143t-90 -97t-140.5 -35zM300 94q41 0 72 19.5t48 58t17 94.5q0 42 -9.5 74.5t-27.5 54.5t-43 33t-56 11
q-41 0 -72.5 -19.5t-48.5 -58t-17 -95.5q0 -42 9.5 -74.5t27.5 -54t43.5 -32.5t56.5 -11zM129 597l110 143h123l110 -143h-107l-65 85l-64 -85h-107zM461 691l-92 138h102l65 -138h-75z" />
    <glyph glyph-name="uni1ED4" unicode="&#x1ed4;" horiz-adv-x="805" 
d="M402 -9q-82 0 -148.5 25.5t-114.5 73.5t-73.5 117.5t-25.5 157.5t25.5 157t73.5 117t114.5 73.5t148.5 25.5t149 -25.5t115 -74t73.5 -117t25.5 -156.5t-25.5 -157.5t-74 -117.5t-115 -73.5t-148.5 -25.5zM402 105q70 0 121 30t78.5 88t27.5 142q0 63 -16 111t-45.5 81
t-71.5 50t-94 17q-69 0 -119.5 -29.5t-78.5 -87.5t-28 -142q0 -63 16 -112t45.5 -82t71 -49.5t93.5 -16.5zM231 794l110 143h123l110 -143h-107l-65 85l-64 -85h-107zM578 842l-36 46q16 12 26 26t10 30t-10 26t-30 10q-7 0 -15.5 -1.5t-14.5 -4.5v54q14 5 31 7t30 2
q46 0 71 -22.5t25 -58.5q0 -32 -20 -61t-67 -53z" />
    <glyph glyph-name="uni1ED5" unicode="&#x1ed5;" 
d="M301 -9q-60 0 -108 18.5t-83.5 54.5t-54 87t-18.5 115q0 82 31.5 144t90.5 97t142 35q59 0 107 -19t82.5 -55t53.5 -86.5t19 -115.5q0 -81 -31.5 -143t-90 -97t-140.5 -35zM300 94q41 0 72 19.5t48 58t17 94.5q0 42 -9.5 74.5t-27.5 54.5t-43 33t-56 11
q-41 0 -72.5 -19.5t-48.5 -58t-17 -95.5q0 -42 9.5 -74.5t27.5 -54t43.5 -32.5t56.5 -11zM129 597l110 143h123l110 -143h-107l-65 85l-64 -85h-107zM476 645l-36 46q16 12 26 26t10 30t-10 26t-30 10q-7 0 -15.5 -1.5t-14.5 -4.5v54q14 5 31 7t30 2q46 0 71 -22.5t25 -58.5
q0 -32 -20 -61t-67 -53z" />
    <glyph glyph-name="uni1ED6" unicode="&#x1ed6;" horiz-adv-x="805" 
d="M402 -9q-82 0 -148.5 25.5t-114.5 73.5t-73.5 117.5t-25.5 157.5t25.5 157t73.5 117t114.5 73.5t148.5 25.5t149 -25.5t115 -74t73.5 -117t25.5 -156.5t-25.5 -157.5t-74 -117.5t-115 -73.5t-148.5 -25.5zM402 105q70 0 121 30t78.5 88t27.5 142q0 63 -16 111t-45.5 81
t-71.5 50t-94 17q-69 0 -119.5 -29.5t-78.5 -87.5t-28 -142q0 -63 16 -112t45.5 -82t71 -49.5t93.5 -16.5zM231 794l107 127h129l107 -127h-107l-65 82l-64 -82h-107zM282 947l-41 26q18 35 41 52.5t58 17.5q25 0 48 -7t45 -14t44 -7q16 0 29.5 6t23.5 22l41 -26
q-17 -34 -41 -51.5t-59 -17.5q-28 0 -51.5 7t-44 14t-41.5 7q-16 0 -28.5 -6t-23.5 -23z" />
    <glyph glyph-name="uni1ED7" unicode="&#x1ed7;" 
d="M301 -9q-60 0 -108 18.5t-83.5 54.5t-54 87t-18.5 115q0 82 31.5 144t90.5 97t142 35q59 0 107 -19t82.5 -55t53.5 -86.5t19 -115.5q0 -81 -31.5 -143t-90 -97t-140.5 -35zM300 94q41 0 72 19.5t48 58t17 94.5q0 42 -9.5 74.5t-27.5 54.5t-43 33t-56 11
q-41 0 -72.5 -19.5t-48.5 -58t-17 -95.5q0 -42 9.5 -74.5t27.5 -54t43.5 -32.5t56.5 -11zM129 597l107 127h129l107 -127h-107l-65 82l-64 -82h-107zM180 750l-41 26q18 35 41 52.5t58 17.5q25 0 48 -7t45 -14t44 -7q16 0 29.5 6t23.5 22l41 -26q-17 -34 -41 -51.5
t-59 -17.5q-28 0 -51.5 7t-44 14t-41.5 7q-16 0 -28.5 -6t-23.5 -23z" />
    <glyph glyph-name="uni1ED8" unicode="&#x1ed8;" horiz-adv-x="805" 
d="M402 -9q-82 0 -148.5 25.5t-114.5 73.5t-73.5 117.5t-25.5 157.5t25.5 157t73.5 117t114.5 73.5t148.5 25.5t149 -25.5t115 -74t73.5 -117t25.5 -156.5t-25.5 -157.5t-74 -117.5t-115 -73.5t-148.5 -25.5zM402 105q70 0 121 30t78.5 88t27.5 142q0 63 -16 111t-45.5 81
t-71.5 50t-94 17q-69 0 -119.5 -29.5t-78.5 -87.5t-28 -142q0 -63 16 -112t45.5 -82t71 -49.5t93.5 -16.5zM402 -172q-25 0 -43.5 15.5t-18.5 41.5q0 28 18.5 43t43.5 15q26 0 44.5 -15t18.5 -43q0 -26 -18.5 -41.5t-44.5 -15.5zM231 794l110 143h123l110 -143h-107l-65 85
l-64 -85h-107z" />
    <glyph glyph-name="uni1ED9" unicode="&#x1ed9;" 
d="M301 -9q-60 0 -108 18.5t-83.5 54.5t-54 87t-18.5 115q0 82 31.5 144t90.5 97t142 35q59 0 107 -19t82.5 -55t53.5 -86.5t19 -115.5q0 -81 -31.5 -143t-90 -97t-140.5 -35zM300 94q41 0 72 19.5t48 58t17 94.5q0 42 -9.5 74.5t-27.5 54.5t-43 33t-56 11
q-41 0 -72.5 -19.5t-48.5 -58t-17 -95.5q0 -42 9.5 -74.5t27.5 -54t43.5 -32.5t56.5 -11zM300 -172q-25 0 -43.5 15.5t-18.5 41.5q0 28 18.5 43t43.5 15q26 0 44.5 -15t18.5 -43q0 -26 -18.5 -41.5t-44.5 -15.5zM129 597l110 143h123l110 -143h-107l-65 85l-64 -85h-107z
" />
    <glyph glyph-name="uni1EDA" unicode="&#x1eda;" horiz-adv-x="805" 
d="M402 -9q-82 0 -148.5 25.5t-114.5 73.5t-73.5 117.5t-25.5 157.5t25.5 157t73.5 117t114.5 73.5t148.5 25.5t149 -25.5t115 -74t73.5 -117t25.5 -156.5t-25.5 -157.5t-74 -117.5t-115 -73.5t-148.5 -25.5zM402 105q70 0 121 30t78.5 88t27.5 142q0 63 -16 111t-45.5 81
t-71.5 50t-94 17q-69 0 -119.5 -29.5t-78.5 -87.5t-28 -142q0 -63 16 -112t45.5 -82t71 -49.5t93.5 -16.5zM565 632v72q39 -1 62 9t31.5 34t3.5 61h99q8 -61 -12 -101.5t-66 -59.5t-118 -15zM355 794l59 143h125l-88 -143h-96z" />
    <glyph glyph-name="uni1EDB" unicode="&#x1edb;" horiz-adv-x="602" 
d="M301 -9q-60 0 -108 18.5t-83.5 54.5t-54 87t-18.5 115q0 82 31.5 144t90.5 97t142 35q59 0 107 -19t82.5 -55t53.5 -86.5t19 -115.5q0 -81 -31.5 -143t-90 -97t-140.5 -35zM300 94q41 0 72 19.5t48 58t17 94.5q0 42 -9.5 74.5t-27.5 54.5t-43 33t-56 11
q-41 0 -72.5 -19.5t-48.5 -58t-17 -95.5q0 -42 9.5 -74.5t27.5 -54t43.5 -32.5t56.5 -11zM380 444v72q39 -1 62 9t31.5 34t3.5 61h99q8 -61 -12 -101.5t-66 -59.5t-118 -15zM253 597l59 143h125l-88 -143h-96z" />
    <glyph glyph-name="uni1EDC" unicode="&#x1edc;" horiz-adv-x="805" 
d="M402 -9q-82 0 -148.5 25.5t-114.5 73.5t-73.5 117.5t-25.5 157.5t25.5 157t73.5 117t114.5 73.5t148.5 25.5t149 -25.5t115 -74t73.5 -117t25.5 -156.5t-25.5 -157.5t-74 -117.5t-115 -73.5t-148.5 -25.5zM402 105q70 0 121 30t78.5 88t27.5 142q0 63 -16 111t-45.5 81
t-71.5 50t-94 17q-69 0 -119.5 -29.5t-78.5 -87.5t-28 -142q0 -63 16 -112t45.5 -82t71 -49.5t93.5 -16.5zM565 632v72q39 -1 62 9t31.5 34t3.5 61h99q8 -61 -12 -101.5t-66 -59.5t-118 -15zM355 794l-89 143h125l59 -143h-95z" />
    <glyph glyph-name="uni1EDD" unicode="&#x1edd;" horiz-adv-x="602" 
d="M301 -9q-60 0 -108 18.5t-83.5 54.5t-54 87t-18.5 115q0 82 31.5 144t90.5 97t142 35q59 0 107 -19t82.5 -55t53.5 -86.5t19 -115.5q0 -81 -31.5 -143t-90 -97t-140.5 -35zM300 94q41 0 72 19.5t48 58t17 94.5q0 42 -9.5 74.5t-27.5 54.5t-43 33t-56 11
q-41 0 -72.5 -19.5t-48.5 -58t-17 -95.5q0 -42 9.5 -74.5t27.5 -54t43.5 -32.5t56.5 -11zM380 444v72q39 -1 62 9t31.5 34t3.5 61h99q8 -61 -12 -101.5t-66 -59.5t-118 -15zM252 597l-89 143h125l59 -143h-95z" />
    <glyph glyph-name="uni1EDE" unicode="&#x1ede;" horiz-adv-x="805" 
d="M402 -9q-82 0 -148.5 25.5t-114.5 73.5t-73.5 117.5t-25.5 157.5t25.5 157t73.5 117t114.5 73.5t148.5 25.5t149 -25.5t115 -74t73.5 -117t25.5 -156.5t-25.5 -157.5t-74 -117.5t-115 -73.5t-148.5 -25.5zM402 105q70 0 121 30t78.5 88t27.5 142q0 63 -16 111t-45.5 81
t-71.5 50t-94 17q-69 0 -119.5 -29.5t-78.5 -87.5t-28 -142q0 -63 16 -112t45.5 -82t71 -49.5t93.5 -16.5zM565 632v72q39 -1 62 9t31.5 34t3.5 61h99q8 -61 -12 -101.5t-66 -59.5t-118 -15zM360 778l-32 62q40 16 56 31t16 34q0 17 -13.5 26t-34.5 9q-13 0 -25 -2t-24 -6
v65q19 5 39 7.5t40 2.5q42 0 70.5 -11.5t43 -32t14.5 -48.5q0 -46 -36.5 -78.5t-113.5 -58.5z" />
    <glyph glyph-name="uni1EDF" unicode="&#x1edf;" horiz-adv-x="602" 
d="M301 -9q-60 0 -108 18.5t-83.5 54.5t-54 87t-18.5 115q0 82 31.5 144t90.5 97t142 35q59 0 107 -19t82.5 -55t53.5 -86.5t19 -115.5q0 -81 -31.5 -143t-90 -97t-140.5 -35zM300 94q41 0 72 19.5t48 58t17 94.5q0 42 -9.5 74.5t-27.5 54.5t-43 33t-56 11
q-41 0 -72.5 -19.5t-48.5 -58t-17 -95.5q0 -42 9.5 -74.5t27.5 -54t43.5 -32.5t56.5 -11zM380 444v72q39 -1 62 9t31.5 34t3.5 61h99q8 -61 -12 -101.5t-66 -59.5t-118 -15zM258 581l-32 62q40 16 56 31t16 34q0 17 -13.5 26t-34.5 9q-13 0 -25 -2t-24 -6v65q19 5 39 7.5
t40 2.5q42 0 70.5 -11.5t43 -32t14.5 -48.5q0 -46 -36.5 -78.5t-113.5 -58.5z" />
    <glyph glyph-name="uni1EE0" unicode="&#x1ee0;" horiz-adv-x="805" 
d="M402 -9q-82 0 -148.5 25.5t-114.5 73.5t-73.5 117.5t-25.5 157.5t25.5 157t73.5 117t114.5 73.5t148.5 25.5t149 -25.5t115 -74t73.5 -117t25.5 -156.5t-25.5 -157.5t-74 -117.5t-115 -73.5t-148.5 -25.5zM402 105q70 0 121 30t78.5 88t27.5 142q0 63 -16 111t-45.5 81
t-71.5 50t-94 17q-69 0 -119.5 -29.5t-78.5 -87.5t-28 -142q0 -63 16 -112t45.5 -82t71 -49.5t93.5 -16.5zM565 632v72q39 -1 62 9t31.5 34t3.5 61h99q8 -61 -12 -101.5t-66 -59.5t-118 -15zM474 807q-31 0 -55 8t-44 16t-43 8q-20 0 -35 -8.5t-27 -25.5l-56 33
q18 33 35.5 51t37.5 25.5t42 7.5q26 0 50 -8t47 -16t45 -8q19 0 35 8t29 26l57 -33q-15 -32 -33.5 -50.5t-39.5 -26t-45 -7.5z" />
    <glyph glyph-name="uni1EE1" unicode="&#x1ee1;" horiz-adv-x="602" 
d="M301 -9q-60 0 -108 18.5t-83.5 54.5t-54 87t-18.5 115q0 82 31.5 144t90.5 97t142 35q59 0 107 -19t82.5 -55t53.5 -86.5t19 -115.5q0 -81 -31.5 -143t-90 -97t-140.5 -35zM300 94q41 0 72 19.5t48 58t17 94.5q0 42 -9.5 74.5t-27.5 54.5t-43 33t-56 11
q-41 0 -72.5 -19.5t-48.5 -58t-17 -95.5q0 -42 9.5 -74.5t27.5 -54t43.5 -32.5t56.5 -11zM380 444v72q39 -1 62 9t31.5 34t3.5 61h99q8 -61 -12 -101.5t-66 -59.5t-118 -15zM372 610q-31 0 -55 8t-44 16t-43 8q-20 0 -35 -8.5t-27 -25.5l-56 33q18 33 35.5 51t37.5 25.5
t42 7.5q26 0 50 -8t47 -16t45 -8q19 0 35 8t29 26l57 -33q-15 -32 -33.5 -50.5t-39.5 -26t-45 -7.5z" />
    <glyph glyph-name="uni1EE2" unicode="&#x1ee2;" horiz-adv-x="805" 
d="M402 -9q-82 0 -148.5 25.5t-114.5 73.5t-73.5 117.5t-25.5 157.5t25.5 157t73.5 117t114.5 73.5t148.5 25.5t149 -25.5t115 -74t73.5 -117t25.5 -156.5t-25.5 -157.5t-74 -117.5t-115 -73.5t-148.5 -25.5zM402 105q70 0 121 30t78.5 88t27.5 142q0 63 -16 111t-45.5 81
t-71.5 50t-94 17q-69 0 -119.5 -29.5t-78.5 -87.5t-28 -142q0 -63 16 -112t45.5 -82t71 -49.5t93.5 -16.5zM565 632v72q39 -1 62 9t31.5 34t3.5 61h99q8 -61 -12 -101.5t-66 -59.5t-118 -15zM402 -172q-25 0 -43.5 15.5t-18.5 41.5q0 28 18.5 43t43.5 15q26 0 44.5 -15
t18.5 -43q0 -26 -18.5 -41.5t-44.5 -15.5z" />
    <glyph glyph-name="uni1EE3" unicode="&#x1ee3;" horiz-adv-x="602" 
d="M301 -9q-60 0 -108 18.5t-83.5 54.5t-54 87t-18.5 115q0 82 31.5 144t90.5 97t142 35q59 0 107 -19t82.5 -55t53.5 -86.5t19 -115.5q0 -81 -31.5 -143t-90 -97t-140.5 -35zM300 94q41 0 72 19.5t48 58t17 94.5q0 42 -9.5 74.5t-27.5 54.5t-43 33t-56 11
q-41 0 -72.5 -19.5t-48.5 -58t-17 -95.5q0 -42 9.5 -74.5t27.5 -54t43.5 -32.5t56.5 -11zM380 444v72q39 -1 62 9t31.5 34t3.5 61h99q8 -61 -12 -101.5t-66 -59.5t-118 -15zM300 -172q-25 0 -43.5 15.5t-18.5 41.5q0 28 18.5 43t43.5 15q26 0 44.5 -15t18.5 -43
q0 -26 -18.5 -41.5t-44.5 -15.5z" />
    <glyph glyph-name="uni1EE4" unicode="&#x1ee4;" horiz-adv-x="733" 
d="M366 -9q-96 0 -164 34.5t-104 98t-36 150.5v455h132v-454q0 -55 21 -92t59.5 -55.5t92.5 -18.5q58 0 96.5 20t57.5 57t19 89v454h131v-455q0 -88 -36.5 -151.5t-105 -97.5t-163.5 -34zM367 -172q-25 0 -43.5 15.5t-18.5 41.5q0 28 18.5 43t43.5 15q26 0 44.5 -15
t18.5 -43q0 -26 -18.5 -41.5t-44.5 -15.5z" />
    <glyph glyph-name="uni1EE5" unicode="&#x1ee5;" horiz-adv-x="620" 
d="M249 -9q-60 0 -103 24t-65.5 71.5t-22.5 115.5v330h125v-297q0 -45 12 -76.5t37 -48.5t65 -17t69.5 20t45.5 53.5t16 75.5v290h125v-532h-120l-5 103h-6q-20 -54 -66.5 -83t-106.5 -29zM306 -172q-25 0 -43.5 15.5t-18.5 41.5q0 28 18.5 43t43.5 15q26 0 44.5 -15
t18.5 -43q0 -26 -18.5 -41.5t-44.5 -15.5z" />
    <glyph glyph-name="uni1EE6" unicode="&#x1ee6;" horiz-adv-x="733" 
d="M366 -9q-96 0 -164 34.5t-104 98t-36 150.5v455h132v-454q0 -55 21 -92t59.5 -55.5t92.5 -18.5q58 0 96.5 20t57.5 57t19 89v454h131v-455q0 -88 -36.5 -151.5t-105 -97.5t-163.5 -34zM325 778l-32 62q40 16 56 31t16 34q0 17 -13.5 26t-34.5 9q-13 0 -25 -2t-24 -6v65
q19 5 39 7.5t40 2.5q42 0 70.5 -11.5t43 -32t14.5 -48.5q0 -46 -36.5 -78.5t-113.5 -58.5z" />
    <glyph glyph-name="uni1EE7" unicode="&#x1ee7;" horiz-adv-x="620" 
d="M249 -9q-60 0 -103 24t-65.5 71.5t-22.5 115.5v330h125v-297q0 -45 12 -76.5t37 -48.5t65 -17t69.5 20t45.5 53.5t16 75.5v290h125v-532h-120l-5 103h-6q-20 -54 -66.5 -83t-106.5 -29zM264 581l-32 62q40 16 56 31t16 34q0 17 -13.5 26t-34.5 9q-13 0 -25 -2t-24 -6v65
q19 5 39 7.5t40 2.5q42 0 70.5 -11.5t43 -32t14.5 -48.5q0 -46 -36.5 -78.5t-113.5 -58.5z" />
    <glyph glyph-name="uni1EE8" unicode="&#x1ee8;" horiz-adv-x="733" 
d="M366 -9q-96 0 -164 34.5t-104 98t-36 150.5v455h132v-454q0 -55 21 -92t59.5 -55.5t92.5 -18.5q58 0 96.5 20t57.5 57t19 89v454h131v-455q0 -88 -36.5 -151.5t-105 -97.5t-163.5 -34zM561 657v72q39 -1 62 9t31.5 34t3.5 61h99q8 -61 -12 -101.5t-66 -59.5t-118 -15z
M320 794l59 143h125l-88 -143h-96z" />
    <glyph glyph-name="uni1EE9" unicode="&#x1ee9;" horiz-adv-x="650" 
d="M249 -9q-60 0 -103 24t-65.5 71.5t-22.5 115.5v330h125v-297q0 -45 12 -76.5t37 -48.5t65 -17t69.5 20t45.5 53.5t16 75.5v290h125v-532h-120l-5 103h-6q-20 -54 -66.5 -83t-106.5 -29zM445 460v72q39 -1 62 9t31.5 34t3.5 61h99q8 -61 -12 -101.5t-66 -59.5t-118 -15z
M258 597l59 143h125l-88 -143h-96z" />
    <glyph glyph-name="uni1EEA" unicode="&#x1eea;" horiz-adv-x="733" 
d="M366 -9q-96 0 -164 34.5t-104 98t-36 150.5v455h132v-454q0 -55 21 -92t59.5 -55.5t92.5 -18.5q58 0 96.5 20t57.5 57t19 89v454h131v-455q0 -88 -36.5 -151.5t-105 -97.5t-163.5 -34zM561 657v72q39 -1 62 9t31.5 34t3.5 61h99q8 -61 -12 -101.5t-66 -59.5t-118 -15z
M319 794l-89 143h125l59 -143h-95z" />
    <glyph glyph-name="uni1EEB" unicode="&#x1eeb;" horiz-adv-x="650" 
d="M249 -9q-60 0 -103 24t-65.5 71.5t-22.5 115.5v330h125v-297q0 -45 12 -76.5t37 -48.5t65 -17t69.5 20t45.5 53.5t16 75.5v290h125v-532h-120l-5 103h-6q-20 -54 -66.5 -83t-106.5 -29zM445 460v72q39 -1 62 9t31.5 34t3.5 61h99q8 -61 -12 -101.5t-66 -59.5t-118 -15z
M258 597l-89 143h125l59 -143h-95z" />
    <glyph glyph-name="uni1EEC" unicode="&#x1eec;" horiz-adv-x="733" 
d="M366 -9q-96 0 -164 34.5t-104 98t-36 150.5v455h132v-454q0 -55 21 -92t59.5 -55.5t92.5 -18.5q58 0 96.5 20t57.5 57t19 89v454h131v-455q0 -88 -36.5 -151.5t-105 -97.5t-163.5 -34zM561 657v72q39 -1 62 9t31.5 34t3.5 61h99q8 -61 -12 -101.5t-66 -59.5t-118 -15z
M325 778l-32 62q40 16 56 31t16 34q0 17 -13.5 26t-34.5 9q-13 0 -25 -2t-24 -6v65q19 5 39 7.5t40 2.5q42 0 70.5 -11.5t43 -32t14.5 -48.5q0 -46 -36.5 -78.5t-113.5 -58.5z" />
    <glyph glyph-name="uni1EED" unicode="&#x1eed;" horiz-adv-x="650" 
d="M249 -9q-60 0 -103 24t-65.5 71.5t-22.5 115.5v330h125v-297q0 -45 12 -76.5t37 -48.5t65 -17t69.5 20t45.5 53.5t16 75.5v290h125v-532h-120l-5 103h-6q-20 -54 -66.5 -83t-106.5 -29zM445 460v72q39 -1 62 9t31.5 34t3.5 61h99q8 -61 -12 -101.5t-66 -59.5t-118 -15z
M264 581l-32 62q40 16 56 31t16 34q0 17 -13.5 26t-34.5 9q-13 0 -25 -2t-24 -6v65q19 5 39 7.5t40 2.5q42 0 70.5 -11.5t43 -32t14.5 -48.5q0 -46 -36.5 -78.5t-113.5 -58.5z" />
    <glyph glyph-name="uni1EEE" unicode="&#x1eee;" horiz-adv-x="733" 
d="M366 -9q-96 0 -164 34.5t-104 98t-36 150.5v455h132v-454q0 -55 21 -92t59.5 -55.5t92.5 -18.5q58 0 96.5 20t57.5 57t19 89v454h131v-455q0 -88 -36.5 -151.5t-105 -97.5t-163.5 -34zM561 657v72q39 -1 62 9t31.5 34t3.5 61h99q8 -61 -12 -101.5t-66 -59.5t-118 -15z
M439 807q-31 0 -55 8t-44 16t-43 8q-20 0 -35 -8.5t-27 -25.5l-56 33q18 33 35.5 51t37.5 25.5t42 7.5q26 0 50 -8t47 -16t45 -8q19 0 35 8t29 26l57 -33q-15 -32 -33.5 -50.5t-39.5 -26t-45 -7.5z" />
    <glyph glyph-name="uni1EEF" unicode="&#x1eef;" horiz-adv-x="650" 
d="M249 -9q-60 0 -103 24t-65.5 71.5t-22.5 115.5v330h125v-297q0 -45 12 -76.5t37 -48.5t65 -17t69.5 20t45.5 53.5t16 75.5v290h125v-532h-120l-5 103h-6q-20 -54 -66.5 -83t-106.5 -29zM445 460v72q39 -1 62 9t31.5 34t3.5 61h99q8 -61 -12 -101.5t-66 -59.5t-118 -15z
M378 610q-31 0 -55 8t-44 16t-43 8q-20 0 -35 -8.5t-27 -25.5l-56 33q18 33 35.5 51t37.5 25.5t42 7.5q26 0 50 -8t47 -16t45 -8q19 0 35 8t29 26l57 -33q-15 -32 -33.5 -50.5t-39.5 -26t-45 -7.5z" />
    <glyph glyph-name="uni1EF0" unicode="&#x1ef0;" horiz-adv-x="733" 
d="M366 -9q-96 0 -164 34.5t-104 98t-36 150.5v455h132v-454q0 -55 21 -92t59.5 -55.5t92.5 -18.5q58 0 96.5 20t57.5 57t19 89v454h131v-455q0 -88 -36.5 -151.5t-105 -97.5t-163.5 -34zM561 657v72q39 -1 62 9t31.5 34t3.5 61h99q8 -61 -12 -101.5t-66 -59.5t-118 -15z
M367 -172q-25 0 -43.5 15.5t-18.5 41.5q0 28 18.5 43t43.5 15q26 0 44.5 -15t18.5 -43q0 -26 -18.5 -41.5t-44.5 -15.5z" />
    <glyph glyph-name="uni1EF1" unicode="&#x1ef1;" horiz-adv-x="650" 
d="M249 -9q-60 0 -103 24t-65.5 71.5t-22.5 115.5v330h125v-297q0 -45 12 -76.5t37 -48.5t65 -17t69.5 20t45.5 53.5t16 75.5v290h125v-532h-120l-5 103h-6q-20 -54 -66.5 -83t-106.5 -29zM445 460v72q39 -1 62 9t31.5 34t3.5 61h99q8 -61 -12 -101.5t-66 -59.5t-118 -15z
M306 -172q-25 0 -43.5 15.5t-18.5 41.5q0 28 18.5 43t43.5 15q26 0 44.5 -15t18.5 -43q0 -26 -18.5 -41.5t-44.5 -15.5z" />
    <glyph glyph-name="Ygrave" unicode="&#x1ef2;" horiz-adv-x="706" 
d="M286 0v282l-270 447h152l107 -194l74 -137h6l75 137l109 194h151l-272 -447v-282h-132zM306 794l-89 143h125l59 -143h-95z" />
    <glyph glyph-name="ygrave" unicode="&#x1ef3;" horiz-adv-x="554" 
d="M58 -167v103h60q23 0 39 6t27 19t19 33l28 73v-53l-217 518h138l95 -276l33 -100h5l31 100l89 276h134l-214 -567q-19 -51 -45.5 -80t-61 -40.5t-78.5 -11.5h-82zM229 597l-89 143h125l59 -143h-95z" />
    <glyph glyph-name="uni1EF4" unicode="&#x1ef4;" horiz-adv-x="706" 
d="M286 0v282l-270 447h152l107 -194l74 -137h6l75 137l109 194h151l-272 -447v-282h-132zM354 -172q-25 0 -43.5 15.5t-18.5 41.5q0 28 18.5 43t43.5 15q26 0 44.5 -15t18.5 -43q0 -26 -18.5 -41.5t-44.5 -15.5z" />
    <glyph glyph-name="uni1EF5" unicode="&#x1ef5;" horiz-adv-x="554" 
d="M58 -167v103h60q23 0 39 6t27 19t19 33l28 73v-53l-217 518h138l95 -276l33 -100h5l31 100l89 276h134l-214 -567q-19 -51 -45.5 -80t-61 -40.5t-78.5 -11.5h-82zM434 -172q-25 0 -43.5 15.5t-18.5 41.5q0 28 18.5 43t43.5 15q26 0 44.5 -15t18.5 -43q0 -26 -18.5 -41.5
t-44.5 -15.5z" />
    <glyph glyph-name="uni1EF6" unicode="&#x1ef6;" horiz-adv-x="706" 
d="M286 0v282l-270 447h152l107 -194l74 -137h6l75 137l109 194h151l-272 -447v-282h-132zM312 778l-32 62q40 16 56 31t16 34q0 17 -13.5 26t-34.5 9q-13 0 -25 -2t-24 -6v65q19 5 39 7.5t40 2.5q42 0 70.5 -11.5t43 -32t14.5 -48.5q0 -46 -36.5 -78.5t-113.5 -58.5z" />
    <glyph glyph-name="uni1EF7" unicode="&#x1ef7;" horiz-adv-x="554" 
d="M58 -167v103h60q23 0 39 6t27 19t19 33l28 73v-53l-217 518h138l95 -276l33 -100h5l31 100l89 276h134l-214 -567q-19 -51 -45.5 -80t-61 -40.5t-78.5 -11.5h-82zM234 581l-32 62q40 16 56 31t16 34q0 17 -13.5 26t-34.5 9q-13 0 -25 -2t-24 -6v65q19 5 39 7.5t40 2.5
q42 0 70.5 -11.5t43 -32t14.5 -48.5q0 -46 -36.5 -78.5t-113.5 -58.5z" />
    <glyph glyph-name="uni1EF8" unicode="&#x1ef8;" horiz-adv-x="706" 
d="M286 0v282l-270 447h152l107 -194l74 -137h6l75 137l109 194h151l-272 -447v-282h-132zM426 807q-31 0 -55 8t-44 16t-43 8q-20 0 -35 -8.5t-27 -25.5l-56 33q18 33 35.5 51t37.5 25.5t42 7.5q26 0 50 -8t47 -16t45 -8q19 0 35 8t29 26l57 -33q-15 -32 -33.5 -50.5
t-39.5 -26t-45 -7.5z" />
    <glyph glyph-name="uni1EF9" unicode="&#x1ef9;" horiz-adv-x="554" 
d="M58 -167v103h60q23 0 39 6t27 19t19 33l28 73v-53l-217 518h138l95 -276l33 -100h5l31 100l89 276h134l-214 -567q-19 -51 -45.5 -80t-61 -40.5t-78.5 -11.5h-82zM348 610q-31 0 -55 8t-44 16t-43 8q-20 0 -35 -8.5t-27 -25.5l-56 33q18 33 35.5 51t37.5 25.5t42 7.5
q26 0 50 -8t47 -16t45 -8q19 0 35 8t29 26l57 -33q-15 -32 -33.5 -50.5t-39.5 -26t-45 -7.5z" />
    <glyph glyph-name="endash" unicode="&#x2013;" horiz-adv-x="533" 
d="M47 213v106h438v-106h-438z" />
    <glyph glyph-name="emdash" unicode="&#x2014;" horiz-adv-x="702" 
d="M47 213v106h607v-106h-607z" />
    <glyph glyph-name="quoteleft" unicode="&#x2018;" horiz-adv-x="214" 
d="M195 729q-37 -40 -62.5 -83t-31.5 -76l-10 8q5 2 10.5 4t13.5 2q29 0 45 -16.5t16 -42.5q0 -28 -18.5 -45t-48.5 -17t-50 20t-20 57q0 25 7.5 52t20.5 53t28.5 48t31.5 36h68z" />
    <glyph glyph-name="quoteright" unicode="&#x2019;" horiz-adv-x="214" 
d="M19 471q37 41 62.5 83.5t31.5 75.5l10 -7q-4 -2 -10 -4t-13 -2q-29 0 -45 16.5t-16 41.5q0 28 18.5 45.5t48.5 17.5t50 -20t20 -58q0 -25 -8 -52t-21 -53t-28.5 -47.5t-30.5 -36.5h-69z" />
    <glyph glyph-name="quotesinglbase" unicode="&#x201a;" horiz-adv-x="214" 
d="M19 -149q37 41 62.5 83.5t31.5 75.5l10 -7q-4 -2 -10 -4t-13 -2q-29 0 -45 16.5t-16 41.5q0 28 18.5 45.5t48.5 17.5t50 -20t20 -58q0 -25 -8 -52t-21 -53t-28.5 -47.5t-30.5 -36.5h-69z" />
    <glyph glyph-name="quotedblleft" unicode="&#x201c;" horiz-adv-x="415" 
d="M396 720q-37 -40 -62.5 -83t-31.5 -76l-10 7q4 3 10 4.5t13 1.5q29 0 45 -16.5t16 -41.5q0 -28 -18 -45.5t-49 -17.5q-30 0 -50 20.5t-20 57.5q0 25 8 52t21 53t28.5 47.5t30.5 36.5h69zM195 720q-37 -40 -62.5 -83t-31.5 -76l-10 7q5 3 10.5 4.5t13.5 1.5q29 0 45 -16.5
t16 -41.5q0 -28 -18.5 -45.5t-48.5 -17.5t-50 20.5t-20 57.5q0 25 7.5 52t20.5 53t28.5 47.5t31.5 36.5h68z" />
    <glyph glyph-name="quotedblright" unicode="&#x201d;" horiz-adv-x="415" 
d="M19 464q37 41 62.5 83.5t31.5 75.5l10 -7q-4 -2 -10 -4t-13 -2q-29 0 -45 16.5t-16 41.5q0 28 18.5 45.5t48.5 17.5t50 -20t20 -58q0 -25 -8 -52t-21 -53t-28.5 -47.5t-30.5 -36.5h-69zM219 464q37 41 62.5 83.5t31.5 75.5l10 -7q-4 -2 -10 -4t-13 -2q-29 0 -45 16.5
t-16 41.5q0 28 18.5 45.5t48.5 17.5t50 -20t20 -58q0 -25 -8 -52t-21 -53t-28.5 -47.5t-30.5 -36.5h-69z" />
    <glyph glyph-name="quotedblbase" unicode="&#x201e;" horiz-adv-x="415" 
d="M19 -149q37 41 62.5 83.5t31.5 75.5l10 -7q-4 -2 -10 -4t-13 -2q-29 0 -45 16.5t-16 41.5q0 28 18.5 45.5t48.5 17.5t50 -20t20 -58q0 -25 -8 -52t-21 -53t-28.5 -47.5t-30.5 -36.5h-69zM219 -149q37 41 62.5 83.5t31.5 75.5l10 -7q-4 -2 -10 -4t-13 -2q-29 0 -45 16.5
t-16 41.5q0 28 18.5 45.5t48.5 17.5t50 -20t20 -58q0 -25 -8 -52t-21 -53t-28.5 -47.5t-30.5 -36.5h-69z" />
    <glyph glyph-name="bullet" unicode="&#x2022;" horiz-adv-x="301" 
d="M150 154q-35 0 -63.5 16t-44.5 44t-16 63q0 36 16 63.5t44.5 43.5t63.5 16q56 0 90 -35t34 -88q0 -35 -15.5 -63t-43 -44t-65.5 -16z" />
    <glyph glyph-name="ellipsis" unicode="&#x2026;" horiz-adv-x="683" 
d="M103 -8q-30 0 -48.5 17.5t-18.5 45.5q0 29 18.5 46t48.5 17q29 0 47.5 -17t18.5 -46q0 -28 -18.5 -45.5t-47.5 -17.5zM342 -8q-30 0 -48.5 17.5t-18.5 45.5q0 29 18.5 46t48.5 17q29 0 47.5 -17t18.5 -46q0 -28 -18.5 -45.5t-47.5 -17.5zM580 -8q-30 0 -48.5 17.5
t-18.5 45.5q0 29 18.5 46t48.5 17q29 0 47.5 -17t18.5 -46q0 -28 -18.5 -45.5t-47.5 -17.5z" />
    <glyph glyph-name="perthousand" unicode="&#x2030;" horiz-adv-x="1197" 
d="M152 0l463 729h89l-464 -729h-88zM205 331q-45 0 -79.5 22t-53 66.5t-18.5 110.5q0 67 18.5 111t53 66t79.5 22t78.5 -22t52.5 -66t19 -111q0 -66 -19 -110.5t-52.5 -66.5t-78.5 -22zM205 404q22 0 36 15t21.5 43t7.5 68t-7.5 68t-21.5 43t-36 15q-23 0 -37.5 -15
t-21.5 -43t-7 -68q0 -30 4 -53.5t12 -39.5t20.5 -24.5t29.5 -8.5zM652 -8q-45 0 -79.5 22t-53 66.5t-18.5 111.5q0 66 18.5 110.5t53 66t79.5 21.5t78.5 -21.5t52.5 -66t19 -111.5q0 -66 -19 -110.5t-52.5 -66.5t-78.5 -22zM652 65q21 0 35.5 15t21.5 43t7 68q0 41 -7 69
t-21.5 42.5t-35.5 14.5q-23 0 -37.5 -14.5t-21.5 -42.5t-7 -69q0 -40 7 -68t21.5 -43t37.5 -15zM993 -8q-45 0 -79.5 22t-53 66.5t-18.5 111.5q0 66 18.5 110.5t53 66t79.5 21.5t79 -21.5t52.5 -66t18.5 -111.5q0 -66 -19 -110.5t-52.5 -66.5t-78.5 -22zM993 65q22 0 36 15
t21.5 43t7.5 68q0 41 -7.5 69t-21.5 42.5t-36 14.5t-37 -14.5t-22 -42.5t-7 -69q0 -40 7 -68t22 -43t37 -15z" />
    <glyph glyph-name="guilsinglleft" unicode="&#x2039;" horiz-adv-x="303" 
d="M160 71l-125 231l125 230h108l-110 -230l110 -231h-108z" />
    <glyph glyph-name="guilsinglright" unicode="&#x203a;" horiz-adv-x="303" 
d="M143 532l125 -231l-125 -230h-108l110 230l-110 231h108z" />
    <glyph glyph-name="fraction" unicode="&#x2044;" horiz-adv-x="139" 
d="M-226 0l496 721h95l-497 -721h-94z" />
    <glyph glyph-name="uni2070" unicode="&#x2070;" horiz-adv-x="413" 
d="M206 330q-31 0 -57 10t-45.5 28.5t-32.5 45.5t-19.5 61.5t-6.5 75.5q0 76 20 125t56.5 73t84.5 24q32 0 58 -10t45.5 -28.5t32.5 -45.5t19.5 -61.5t6.5 -76.5q0 -75 -20.5 -124t-56.5 -73t-85 -24zM206 404q23 0 39 13.5t25 46t9 87.5q0 34 -3 59t-9 42t-15 27.5
t-20.5 15.5t-25.5 5q-22 0 -38 -14t-25 -46t-9 -89q0 -33 3 -58t9.5 -42t15 -27.5t20 -15t24.5 -4.5z" />
    <glyph glyph-name="uni2074" unicode="&#x2074;" horiz-adv-x="407" 
d="M226 336v395l32 -9l-146 -215h272v-72h-359v66l183 268h105v-433h-87z" />
    <glyph glyph-name="uni2075" unicode="&#x2075;" horiz-adv-x="406" 
d="M202 330q-46 0 -79.5 16.5t-52.5 45t-22 65.5h88q3 -15 11.5 -27t23.5 -18.5t33 -6.5q34 0 53 20.5t19 50.5q0 33 -19.5 52t-51.5 19q-23 0 -40.5 -10.5t-23.5 -27.5h-85l19 260h279v-77h-202l-11 -106l4 -2q11 16 34.5 24.5t48.5 8.5q42 0 72.5 -17t47 -48t16.5 -72
q0 -45 -20 -78.5t-56.5 -52.5t-85.5 -19z" />
    <glyph glyph-name="uni2076" unicode="&#x2076;" horiz-adv-x="419" 
d="M211 331q-39 0 -69.5 12.5t-52 38.5t-33 65t-11.5 92q0 79 20 131t59 78.5t96 26.5q67 0 108 -33t47 -88h-88q-5 24 -24.5 35t-43.5 11q-32 0 -51 -16.5t-28 -47.5t-9 -74h3q12 23 39 38t65 15q41 0 71.5 -17t47.5 -47.5t17 -71.5q0 -44 -20 -77.5t-56.5 -52t-86.5 -18.5
zM214 407q32 0 52 19.5t20 51.5q0 33 -20 52t-51 19q-33 0 -53 -20t-20 -52q0 -21 9 -36.5t25.5 -24.5t37.5 -9z" />
    <glyph glyph-name="uni2077" unicode="&#x2077;" horiz-adv-x="368" 
d="M127 336q0 83 17 147.5t44 115.5t56 93h-142v-75h-71v152h317v-64q-27 -38 -50 -76t-40.5 -80.5t-27 -94.5t-9.5 -118h-94z" />
    <glyph glyph-name="uni2078" unicode="&#x2078;" horiz-adv-x="405" 
d="M203 330q-51 0 -87.5 15.5t-56 43t-19.5 64.5q0 40 24.5 68.5t62.5 36.5v4q-31 9 -51 35t-20 60q0 37 18 63t51.5 39.5t77.5 13.5q46 0 79 -14.5t50 -40.5t17 -61q0 -34 -20 -60t-51 -35v-4q39 -9 63 -37.5t24 -67.5q0 -58 -45 -90.5t-117 -32.5zM203 405q33 0 52.5 16
t19.5 44q0 26 -17.5 43.5t-54.5 17.5q-38 0 -55.5 -17.5t-17.5 -43.5q0 -28 20 -44t53 -16zM203 591q31 0 47 16.5t16 39.5q0 15 -7 27.5t-20.5 20t-35.5 7.5q-33 0 -48.5 -16t-15.5 -39q0 -15 7 -28t21.5 -20.5t35.5 -7.5z" />
    <glyph glyph-name="uni2079" unicode="&#x2079;" horiz-adv-x="419" 
d="M207 775q40 0 70.5 -12.5t52 -38.5t33 -65t11.5 -92q0 -79 -20 -131t-59.5 -78.5t-96.5 -26.5q-65 0 -106.5 33t-47.5 87h87q6 -23 25.5 -34t43.5 -11q31 0 50.5 16.5t28.5 47.5t9 74h-4q-11 -24 -37.5 -38.5t-65.5 -14.5q-41 0 -71.5 17t-47.5 47.5t-17 70.5q0 45 20 78
t57 52t85 19zM204 698q-32 0 -51.5 -19t-19.5 -52q0 -32 20 -51t51 -19q34 0 53.5 20.5t19.5 50.5q0 22 -9.5 37.5t-25.5 24t-38 8.5z" />
    <glyph glyph-name="uni2080" unicode="&#x2080;" horiz-adv-x="413" 
d="M206 -46q-31 0 -57 10t-45.5 28.5t-32.5 45.5t-19.5 61.5t-6.5 75.5q0 76 20 125t56.5 73t84.5 24q32 0 58 -10t45.5 -28.5t32.5 -45.5t19.5 -61.5t6.5 -76.5q0 -75 -20.5 -124t-56.5 -73t-85 -24zM206 28q23 0 39 13.5t25 46t9 87.5q0 34 -3 59t-9 42t-15 27.5
t-20.5 15.5t-25.5 5q-22 0 -38 -14t-25 -46t-9 -89q0 -33 3 -58t9.5 -42t15 -27.5t20 -15t24.5 -4.5z" />
    <glyph glyph-name="uni2081" unicode="&#x2081;" horiz-adv-x="286" 
d="M131 -40v291h-109v66h19q42 0 66.5 21t28.5 55h83v-433h-88z" />
    <glyph glyph-name="uni2082" unicode="&#x2082;" horiz-adv-x="381" 
d="M38 -40v18q0 42 15.5 72.5t39.5 54.5t51.5 43.5t51.5 37.5t39.5 37.5t15.5 43.5q0 26 -17 41t-43 15q-32 0 -49.5 -19t-17.5 -47h-87q2 63 44 101.5t114 38.5q66 0 105 -35t39 -91q0 -32 -13 -57t-33.5 -44.5t-44.5 -36.5t-47.5 -32.5t-40.5 -31t-24 -33.5h202v-76h-300z
" />
    <glyph glyph-name="uni2083" unicode="&#x2083;" horiz-adv-x="394" 
d="M190 -46q-48 0 -82 17t-53 47.5t-21 69.5h85q2 -29 22 -45t49 -16q33 0 51.5 18t18.5 45q0 30 -17 44.5t-48 14.5h-47v64h41q32 0 49.5 16t17.5 41q0 27 -17 41t-46 14q-30 0 -48 -16t-20 -44h-86q2 42 22 71.5t54.5 45.5t80.5 16q33 0 60 -8t46 -23.5t29.5 -37
t10.5 -48.5q0 -34 -19 -59t-48 -35v-4q36 -9 55.5 -36t19.5 -64q0 -40 -21 -69t-56.5 -44.5t-82.5 -15.5z" />
    <glyph glyph-name="uni2084" unicode="&#x2084;" horiz-adv-x="407" 
d="M226 -40v395l32 -9l-146 -215h272v-72h-359v66l183 268h105v-433h-87z" />
    <glyph glyph-name="uni2085" unicode="&#x2085;" horiz-adv-x="406" 
d="M202 -46q-46 0 -79.5 16.5t-52.5 45t-22 65.5h88q3 -15 11.5 -27t23.5 -18.5t33 -6.5q34 0 53 20.5t19 50.5q0 33 -19.5 52t-51.5 19q-23 0 -40.5 -10.5t-23.5 -27.5h-85l19 260h279v-77h-202l-11 -106l4 -2q11 16 34.5 24.5t48.5 8.5q42 0 72.5 -17t47 -48t16.5 -72
q0 -45 -20 -78.5t-56.5 -52.5t-85.5 -19z" />
    <glyph glyph-name="uni2086" unicode="&#x2086;" horiz-adv-x="419" 
d="M211 -45q-39 0 -69.5 12.5t-52 38.5t-33 65t-11.5 92q0 79 20 131t59 78.5t96 26.5q67 0 108 -33t47 -88h-88q-5 24 -24.5 35t-43.5 11q-32 0 -51 -16.5t-28 -47.5t-9 -74h3q12 23 39 38t65 15q41 0 71.5 -17t47.5 -47.5t17 -71.5q0 -44 -20 -77.5t-56.5 -52t-86.5 -18.5
zM214 31q32 0 52 19.5t20 51.5q0 33 -20 52t-51 19q-33 0 -53 -20t-20 -52q0 -21 9 -36.5t25.5 -24.5t37.5 -9z" />
    <glyph glyph-name="uni2087" unicode="&#x2087;" horiz-adv-x="368" 
d="M127 -40q0 83 17 147.5t44 115.5t56 93h-142v-75h-71v152h317v-64q-27 -38 -50 -76t-40.5 -80.5t-27 -94.5t-9.5 -118h-94z" />
    <glyph glyph-name="uni2088" unicode="&#x2088;" horiz-adv-x="405" 
d="M203 -46q-51 0 -87.5 15.5t-56 43t-19.5 64.5q0 40 24.5 68.5t62.5 36.5v4q-31 9 -51 35t-20 60q0 37 18 63t51.5 39.5t77.5 13.5q46 0 79 -14.5t50 -40.5t17 -61q0 -34 -20 -60t-51 -35v-4q39 -9 63 -37.5t24 -67.5q0 -58 -45 -90.5t-117 -32.5zM203 29q33 0 52.5 16
t19.5 44q0 26 -17.5 43.5t-54.5 17.5q-38 0 -55.5 -17.5t-17.5 -43.5q0 -28 20 -44t53 -16zM203 215q31 0 47 16.5t16 39.5q0 15 -7 27.5t-20.5 20t-35.5 7.5q-33 0 -48.5 -16t-15.5 -39q0 -15 7 -28t21.5 -20.5t35.5 -7.5z" />
    <glyph glyph-name="uni2089" unicode="&#x2089;" horiz-adv-x="419" 
d="M207 399q40 0 70.5 -12.5t52 -38.5t33 -65t11.5 -92q0 -79 -20 -131t-59.5 -78.5t-96.5 -26.5q-65 0 -106.5 33t-47.5 87h87q6 -23 25.5 -34t43.5 -11q31 0 50.5 16.5t28.5 47.5t9 74h-4q-11 -24 -37.5 -38.5t-65.5 -14.5q-41 0 -71.5 17t-47.5 47.5t-17 70.5q0 45 20 78
t57 52t85 19zM204 322q-32 0 -51.5 -19t-19.5 -52q0 -32 20 -51t51 -19q34 0 53.5 20.5t19.5 50.5q0 22 -9.5 37.5t-25.5 24t-38 8.5z" />
    <glyph glyph-name="uni20A9" unicode="&#x20a9;" horiz-adv-x="989" 
d="M207 0l-145 729h135l74 -442l29 -192h9l29 190l75 444h166l76 -443l30 -192h9l28 193l71 442h135l-145 -729h-187l-65 384l-30 244h-10l-31 -244l-67 -384h-186zM44 303v93h901v-93h-901z" />
    <glyph glyph-name="uni20AA" unicode="&#x20aa;" horiz-adv-x="819" 
d="M278 0v553h91v-451h256v627h109v-613q0 -57 -30.5 -86.5t-82.5 -29.5h-343zM88 0v729h342q60 0 87 -30t27 -86v-436h-92v450h-256v-627h-108z" />
    <glyph glyph-name="Euro" unicode="&#x20ac;" horiz-adv-x="854" 
d="M472 -9q-81 0 -148 25t-114.5 74t-73.5 118t-26 157q0 87 26 156.5t74 118t114.5 73.5t147.5 25q92 0 164 -32t117 -89.5t55 -135.5h-137q-9 41 -36 73t-68 50t-95 18q-68 0 -118.5 -29.5t-77.5 -87t-27 -140.5q0 -64 15.5 -111.5t45 -80.5t70 -49.5t92.5 -16.5t94 17.5
t69.5 50t35.5 75.5h137q-9 -78 -54.5 -136.5t-118 -90.5t-163.5 -32zM46 251v70h463l-10 -70h-453zM46 408v68h487l-10 -68h-477z" />
    <glyph glyph-name="uni20B8" unicode="&#x20b8;" horiz-adv-x="621" 
d="M247 442h127v-442h-127v442zM573 429h-524v105h524v-105zM573 623h-524v106h524v-106z" />
    <glyph glyph-name="uni20B9" unicode="&#x20b9;" horiz-adv-x="649" 
d="M386 0l-41 174q-10 43 -27.5 65.5t-45 30.5t-69.5 8h-146v95h183q73 0 107 25t40 70h-330v69h329q-5 33 -23 54t-48.5 31.5t-74.5 10.5h-183v96h546v-81h-150v-6q28 -12 47.5 -40t23.5 -62h79v-81h-80q-7 -36 -27 -63.5t-51.5 -45.5t-70.5 -26v-7q44 -9 70 -40.5
t40 -88.5l44 -188h-142z" />
    <glyph glyph-name="uni20BA" unicode="&#x20ba;" horiz-adv-x="683" 
d="M136 0v729h125v-608q86 0 139 27t80.5 76.5t34.5 114.5h129q-7 -82 -38 -145.5t-83.5 -106.5t-124 -65t-157.5 -22h-105zM50 240v96l390 157v-96zM50 422v96l390 157v-97z" />
    <glyph glyph-name="uni20BF" unicode="&#x20bf;" horiz-adv-x="712" 
d="M88 0v729h330q73 0 122.5 -23.5t74.5 -65.5t25 -98q0 -38 -13.5 -71t-38.5 -56t-62 -33v-7q44 -8 73.5 -32.5t44.5 -59t15 -76.5q0 -62 -29 -109t-87 -72.5t-142 -25.5h-313zM216 103h171q66 0 99 30.5t33 82.5q0 51 -31.5 79t-92.5 28h-179v-220zM216 422h173
q37 0 62 12.5t37.5 35.5t12.5 53q0 50 -32.5 77t-86.5 27h-166v-205zM209 -85v146h77v-146h-77zM376 -85v146h76v-146h-76zM210 700v115h76v-115h-76zM376 700v115h76v-115h-76z" />
    <glyph glyph-name="uni2113" unicode="&#x2113;" horiz-adv-x="513" 
d="M285 -8q-44 0 -77 18t-55.5 52.5t-36 83t-20 109.5t-6.5 131q0 63 9 117t26 98t43 74.5t60.5 47t77.5 16.5q68 0 105.5 -50.5t37.5 -133.5q0 -57 -17 -113t-50.5 -107.5t-82.5 -95t-114 -75t-145 -47.5v85q82 18 139 56t93.5 86.5t53.5 100t17 97.5q0 29 -6 48t-17 28.5
t-27 9.5t-30 -9t-25 -27.5t-19 -48.5t-12 -70t-4 -94q0 -68 4 -117t12 -82.5t19.5 -53t26.5 -28.5t32 -9q27 0 47.5 16.5t33.5 53.5l89 -38q-15 -41 -42.5 -70t-63.5 -44t-76 -15z" />
    <glyph glyph-name="uni2116" unicode="&#x2116;" horiz-adv-x="1179" 
d="M88 0v729h163l340 -545h5l-5 234v311h127v-729h-155l-341 540h-5l5 -218v-322h-134zM821 178v80h275v-80h-275zM959 310q-51 0 -89.5 24t-59.5 72t-21 119q0 72 21.5 119.5t60 71t88.5 23.5t88.5 -23.5t59.5 -71t21 -119.5t-21.5 -119.5t-59.5 -71.5t-88 -24zM959 392
q24 0 39.5 15.5t23 45.5t7.5 72t-7.5 72t-23 45t-39.5 15t-39.5 -15.5t-23.5 -45t-8 -71.5t8 -72t23.5 -45.5t39.5 -15.5z" />
    <glyph glyph-name="uni2117" unicode="&#x2117;" horiz-adv-x="862" 
d="M294 166v397h181q74 0 113 -33.5t39 -95.5q0 -58 -38 -94t-115 -36h-99v61h78q35 0 57.5 15t22.5 52q0 36 -22.5 50.5t-57.5 14.5h-66v-331h-93zM431 -9q-84 0 -154 26.5t-121 76t-79 118t-28 152.5t28 152.5t79 118.5t121 76.5t154 26.5t154 -26.5t121 -76.5t79 -118.5
t28 -152.5t-28 -152.5t-79 -118t-121 -76t-154 -26.5zM431 48q96 0 167.5 39.5t112 111t40.5 165.5q0 95 -40.5 166.5t-112.5 111t-167 39.5t-167 -39.5t-112.5 -111t-40.5 -166.5q0 -94 40 -165.5t112.5 -111t167.5 -39.5z" />
    <glyph glyph-name="trademark" unicode="&#x2122;" horiz-adv-x="843" 
d="M366 417v312h110l83 -211h3l82 211h112v-312h-79v117l1 97h-3l-84 -214h-63l-84 214h-2l1 -97v-117h-77zM139 417v241h-94v71h273v-71h-96v-241h-83z" />
    <glyph glyph-name="estimated" unicode="&#x212e;" horiz-adv-x="853" 
d="M457 -9q-110 0 -192.5 46.5t-128.5 130.5t-46 196t43 196t121 130.5t182 46.5q98 0 171.5 -40t114.5 -112t41 -169v-60h-531v-238q43 -40 98 -60.5t127 -20.5q74 0 142 25.5t114 65.5l24 -37q-52 -47 -127 -73.5t-153 -26.5zM232 401h406v214q-34 41 -90 59.5t-112 18.5
q-53 0 -109.5 -20t-94.5 -64v-208z" />
    <glyph glyph-name="oneeighth" unicode="&#x215b;" horiz-adv-x="775" 
d="M123 345v258h-99v60h17q38 0 60.5 18t25.5 48h74v-384h-78zM42 0l496 721h95l-497 -721h-94zM587 -5q-46 0 -79 13.5t-50.5 38t-17.5 57.5q0 36 22 61t56 32v4q-28 8 -46.5 31t-18.5 53q0 33 17 56t47 35t70 12q41 0 70.5 -13t45.5 -36t16 -54q0 -30 -18.5 -53t-46.5 -31
v-4q35 -7 57 -32.5t22 -60.5q0 -51 -41 -80t-105 -29zM587 61q30 0 48 14.5t18 39.5q0 23 -16 38.5t-50 15.5q-35 0 -51 -15.5t-16 -38.5q0 -25 18 -39.5t49 -14.5zM587 227q29 0 43.5 14.5t14.5 34.5t-14 34.5t-44 14.5q-31 0 -45 -14.5t-14 -34.5q0 -13 6.5 -24.5t19 -18
t33.5 -6.5z" />
    <glyph glyph-name="threeeighths" unicode="&#x215c;" horiz-adv-x="864" 
d="M177 340q-64 0 -101.5 33t-39.5 86h76q0 -25 19 -39.5t46 -14.5q30 0 47 15.5t17 40.5t-15.5 38.5t-43.5 13.5h-43v57h37q29 0 45.5 14t16.5 37t-15.5 35.5t-42.5 12.5q-26 0 -43.5 -13.5t-19.5 -39.5h-76q2 55 40.5 86.5t100.5 31.5q30 0 54.5 -7.5t42 -21t27 -32.5
t9.5 -43q0 -29 -17 -51.5t-44 -31.5v-4q31 -8 49 -31.5t18 -56.5q0 -54 -40.5 -84.5t-103.5 -30.5zM131 0l496 721h95l-497 -721h-94zM675 -5q-46 0 -79 13.5t-50.5 38t-17.5 57.5q0 36 22 61t56 32v4q-28 8 -46.5 31t-18.5 53q0 33 17 56t47 35t70 12q41 0 70.5 -13
t45.5 -36t16 -54q0 -30 -18.5 -53t-46.5 -31v-4q35 -7 57 -32.5t22 -60.5q0 -51 -41 -80t-105 -29zM675 61q30 0 48 14.5t18 39.5q0 23 -16 38.5t-50 15.5q-35 0 -51 -15.5t-16 -38.5q0 -25 18 -39.5t49 -14.5zM675 227q29 0 43.5 14.5t14.5 34.5t-14 34.5t-44 14.5
q-31 0 -45 -14.5t-14 -34.5q0 -13 6.5 -24.5t19 -18t33.5 -6.5z" />
    <glyph glyph-name="fiveeighths" unicode="&#x215d;" horiz-adv-x="872" 
d="M189 340q-61 0 -98.5 31t-40.5 81h78q2 -20 19 -33t43 -13q32 0 49.5 19t17.5 45q0 29 -18.5 46t-47.5 17q-21 0 -37 -9.5t-22 -25.5h-75l16 231h252v-68h-183l-10 -94l4 -1q9 12 30 20t46 8q56 0 90 -33t34 -88q0 -40 -18.5 -70t-51.5 -46.5t-77 -16.5zM139 0l496 721
h95l-497 -721h-94zM684 -5q-46 0 -79 13.5t-50.5 38t-17.5 57.5q0 36 22 61t56 32v4q-28 8 -46.5 31t-18.5 53q0 33 17 56t47 35t70 12q41 0 70.5 -13t45.5 -36t16 -54q0 -30 -18.5 -53t-46.5 -31v-4q35 -7 57 -32.5t22 -60.5q0 -51 -41 -80t-105 -29zM684 61q30 0 48 14.5
t18 39.5q0 23 -16 38.5t-50 15.5q-35 0 -51 -15.5t-16 -38.5q0 -25 18 -39.5t49 -14.5zM684 227q29 0 43.5 14.5t14.5 34.5t-14 34.5t-44 14.5q-31 0 -45 -14.5t-14 -34.5q0 -13 6.5 -24.5t19 -18t33.5 -6.5z" />
    <glyph glyph-name="seveneighths" unicode="&#x215e;" horiz-adv-x="810" 
d="M118 345q0 73 15.5 130t39.5 102.5t52 83.5h-131v-67h-63v135h287v-56q-25 -34 -46 -68t-37 -72t-24.5 -84t-8.5 -104h-84zM77 0l496 721h95l-497 -721h-94zM621 -5q-46 0 -79 13.5t-50.5 38t-17.5 57.5q0 36 22 61t56 32v4q-28 8 -46.5 31t-18.5 53q0 33 17 56t47 35
t70 12q41 0 70.5 -13t45.5 -36t16 -54q0 -30 -18.5 -53t-46.5 -31v-4q35 -7 57 -32.5t22 -60.5q0 -51 -41 -80t-105 -29zM621 61q30 0 48 14.5t18 39.5q0 23 -16 38.5t-50 15.5q-35 0 -51 -15.5t-16 -38.5q0 -25 18 -39.5t49 -14.5zM621 227q29 0 43.5 14.5t14.5 34.5
t-14 34.5t-44 14.5q-31 0 -45 -14.5t-14 -34.5q0 -13 6.5 -24.5t19 -18t33.5 -6.5z" />
    <glyph glyph-name="arrowleft" unicode="&#x2190;" horiz-adv-x="746" 
d="M651 420v-110h-413l107 -155h-113l-144 210l144 210h113l-107 -155h413z" />
    <glyph glyph-name="arrowup" unicode="&#x2191;" horiz-adv-x="539" 
d="M215 83v414l-155 -107v113l210 143l209 -143v-113l-155 107v-414h-109z" />
    <glyph glyph-name="arrowright" unicode="&#x2192;" horiz-adv-x="746" 
d="M95 420h413l-107 155h113l144 -210l-144 -210h-113l107 155h-413v110z" />
    <glyph glyph-name="arrowdown" unicode="&#x2193;" horiz-adv-x="536" 
d="M217 646h109v-414l155 107v-113l-210 -143l-209 143v113l155 -107v414z" />
    <glyph glyph-name="arrowboth" unicode="&#x2194;" horiz-adv-x="830" 
d="M189 155l-143 210l143 210h113l-107 -155h440l-107 155h113l143 -210l-143 -210h-113l107 155h-440l107 -155h-113z" />
    <glyph glyph-name="emptyset" unicode="&#x2205;" horiz-adv-x="785" 
d="M393 -4q-76 0 -142.5 27t-115.5 76t-77 117t-28 150q0 81 28 148t77 116t115.5 76t142.5 27t141.5 -27t115 -76t77.5 -116t28 -148q0 -82 -28 -150t-77.5 -117t-115 -76t-141.5 -27zM393 49q63 0 118.5 23.5t97.5 66t65.5 100.5t23.5 127q0 38 -8 73t-22 67l-528 -323
q41 -62 107.5 -98t145.5 -36zM115 229l527 322q-41 61 -106.5 95t-142.5 34q-63 0 -118.5 -23t-97.5 -65t-66 -99.5t-24 -126.5q0 -37 7.5 -72t20.5 -65z" />
    <glyph glyph-name="product" unicode="&#x220f;" horiz-adv-x="755" 
d="M67 -151v880h621v-880h-133v761h-355v-761h-133z" />
    <glyph glyph-name="summation" unicode="&#x2211;" horiz-adv-x="553" 
d="M29 -151v138l238 294v16l-238 294v138h498v-128h-193l-141 1v-7l250 -306l-250 -306v-7l141 1h193v-128h-498z" />
    <glyph glyph-name="minus" unicode="&#x2212;" 
d="M63 311v99h475v-99h-475z" />
    <glyph glyph-name="radical" unicode="&#x221a;" horiz-adv-x="716" 
d="M252 -151l-147 473h-88v118h191l127 -452h6l222 741h141l-280 -880h-172z" />
    <glyph glyph-name="infinity" unicode="&#x221e;" horiz-adv-x="906" 
d="M248 141q-61 0 -108.5 28t-75 78.5t-27.5 115.5q0 64 27 115t74.5 81t109.5 30q48 0 85.5 -19.5t67 -51t52.5 -69.5q23 38 52.5 69.5t67.5 51t86 19.5q62 0 109.5 -30.5t74 -81.5t26.5 -114q0 -64 -27 -114t-74 -79t-108 -29q-47 0 -85 17.5t-67.5 49t-54.5 70.5
q-23 -38 -53 -69.5t-67.5 -49.5t-84.5 -18zM255 256q43 0 76 30t64 80q-30 47 -63 77t-78 30q-30 0 -52 -14t-34.5 -38.5t-12.5 -55.5q0 -47 27 -78t73 -31zM651 256q31 0 53 15t34.5 40t12.5 54q0 31 -12.5 55.5t-34.5 38.5t-53 14q-29 0 -53.5 -13.5t-45 -37.5t-40.5 -56
q21 -33 41.5 -58t45 -38.5t52.5 -13.5z" />
    <glyph glyph-name="integral" unicode="&#x222b;" horiz-adv-x="433" 
d="M13 -151v101h140v665q0 54 30.5 84t80.5 30h155v-102h-140v-665q0 -52 -29 -82.5t-83 -30.5h-154z" />
    <glyph glyph-name="approxequal" unicode="&#x2248;" 
d="M390 174q-31 0 -56 9t-47 20.5t-41 20.5t-38 9q-25 0 -36.5 -19t-9.5 -42h-64q-5 62 11.5 96.5t43 48.5t52.5 14q27 0 49.5 -8.5t43.5 -20t41.5 -20t43.5 -8.5q28 0 42.5 17t14.5 44h64q3 -42 -5 -73t-24.5 -50.5t-38.5 -28.5t-46 -9zM390 397q-31 0 -56 8.5t-47 20
t-41 20t-38 8.5q-18 0 -28.5 -9t-15 -22.5t-2.5 -27.5h-64q-4 58 11 92.5t41 49.5t55 15q27 0 49.5 -8.5t43.5 -20t41.5 -20t43.5 -8.5q28 0 42.5 17.5t14.5 44.5h64q3 -41 -4.5 -71.5t-23 -50t-38 -29t-48.5 -9.5z" />
    <glyph glyph-name="notequal" unicode="&#x2260;" 
d="M136 101l245 529h83l-243 -529h-85zM63 196v98h475v-98h-475zM63 427v99h475v-99h-475z" />
    <glyph glyph-name="lessequal" unicode="&#x2264;" 
d="M544 147l-497 174v138l497 170v-113l-373 -123v-7l373 -126v-113zM47 0v89h497v-89h-497z" />
    <glyph glyph-name="greaterequal" unicode="&#x2265;" 
d="M56 147v113l373 126v7l-373 123v113l497 -170v-138zM56 0v89h497v-89h-497z" />
    <glyph glyph-name="uni2460" unicode="&#x2460;" horiz-adv-x="862" 
d="M431 -9q-84 0 -154 26.5t-121 76t-79 118t-28 152.5t28 152.5t79 118.5t121 76.5t154 26.5t154 -26.5t121 -76.5t79 -118.5t28 -152.5t-28 -152.5t-79 -118t-121 -76t-154 -26.5zM431 48q96 0 167.5 39.5t112 111t40.5 165.5q0 95 -40.5 166.5t-112.5 111t-167 39.5
t-167 -39.5t-112.5 -111t-40.5 -166.5q0 -94 40 -165.5t112.5 -111t167.5 -39.5zM419 150v291h-109v66h19q42 0 66.5 21t28.5 55h83v-433h-88z" />
    <glyph glyph-name="uni2461" unicode="&#x2461;" horiz-adv-x="862" 
d="M431 -9q-84 0 -154 26.5t-121 76t-79 118t-28 152.5t28 152.5t79 118.5t121 76.5t154 26.5t154 -26.5t121 -76.5t79 -118.5t28 -152.5t-28 -152.5t-79 -118t-121 -76t-154 -26.5zM431 48q96 0 167.5 39.5t112 111t40.5 165.5q0 95 -40.5 166.5t-112.5 111t-167 39.5
t-167 -39.5t-112.5 -111t-40.5 -166.5q0 -94 40 -165.5t112.5 -111t167.5 -39.5zM281 150v18q0 42 15.5 72.5t39.5 54.5t51.5 43.5t51.5 37.5t39.5 37.5t15.5 43.5q0 26 -17 41t-43 15q-32 0 -49.5 -19t-17.5 -47h-87q2 63 44 101.5t114 38.5q66 0 105 -35t39 -91
q0 -32 -13 -57t-33.5 -44.5t-44.5 -36.5t-47.5 -32.5t-40.5 -31t-24 -33.5h202v-76h-300z" />
    <glyph glyph-name="uni2462" unicode="&#x2462;" horiz-adv-x="862" 
d="M431 -9q-84 0 -154 26.5t-121 76t-79 118t-28 152.5t28 152.5t79 118.5t121 76.5t154 26.5t154 -26.5t121 -76.5t79 -118.5t28 -152.5t-28 -152.5t-79 -118t-121 -76t-154 -26.5zM431 48q96 0 167.5 39.5t112 111t40.5 165.5q0 95 -40.5 166.5t-112.5 111t-167 39.5
t-167 -39.5t-112.5 -111t-40.5 -166.5q0 -94 40 -165.5t112.5 -111t167.5 -39.5zM429 144q-48 0 -82 17t-53 47.5t-21 69.5h85q2 -29 22 -45t49 -16q33 0 51.5 18t18.5 45q0 30 -17 44.5t-48 14.5h-47v64h41q32 0 49.5 16t17.5 41q0 27 -17 41t-46 14q-30 0 -48 -16t-20 -44
h-86q2 42 22 71.5t54.5 45.5t80.5 16q33 0 60 -8t46 -23.5t29.5 -37t10.5 -48.5q0 -34 -19 -59t-48 -35v-4q36 -9 55.5 -36t19.5 -64q0 -40 -21 -69t-56.5 -44.5t-82.5 -15.5z" />
    <glyph glyph-name="uni2463" unicode="&#x2463;" horiz-adv-x="862" 
d="M431 -9q-84 0 -154 26.5t-121 76t-79 118t-28 152.5t28 152.5t79 118.5t121 76.5t154 26.5t154 -26.5t121 -76.5t79 -118.5t28 -152.5t-28 -152.5t-79 -118t-121 -76t-154 -26.5zM431 48q96 0 167.5 39.5t112 111t40.5 165.5q0 95 -40.5 166.5t-112.5 111t-167 39.5
t-167 -39.5t-112.5 -111t-40.5 -166.5q0 -94 40 -165.5t112.5 -111t167.5 -39.5zM453 150v395l32 -9l-146 -215h272v-72h-359v66l183 268h105v-433h-87z" />
    <glyph glyph-name="uni2464" unicode="&#x2464;" horiz-adv-x="862" 
d="M431 -9q-84 0 -154 26.5t-121 76t-79 118t-28 152.5t28 152.5t79 118.5t121 76.5t154 26.5t154 -26.5t121 -76.5t79 -118.5t28 -152.5t-28 -152.5t-79 -118t-121 -76t-154 -26.5zM431 48q96 0 167.5 39.5t112 111t40.5 165.5q0 95 -40.5 166.5t-112.5 111t-167 39.5
t-167 -39.5t-112.5 -111t-40.5 -166.5q0 -94 40 -165.5t112.5 -111t167.5 -39.5zM426 144q-46 0 -79.5 16.5t-52.5 45t-22 65.5h88q3 -15 11.5 -27t23.5 -18.5t33 -6.5q34 0 53 20.5t19 50.5q0 33 -19.5 52t-51.5 19q-23 0 -40.5 -10.5t-23.5 -27.5h-85l19 260h279v-77h-202
l-11 -106l4 -2q11 16 34.5 24.5t48.5 8.5q42 0 72.5 -17t47 -48t16.5 -72q0 -45 -20 -78.5t-56.5 -52.5t-85.5 -19z" />
    <glyph glyph-name="uni2465" unicode="&#x2465;" horiz-adv-x="862" 
d="M431 -9q-84 0 -154 26.5t-121 76t-79 118t-28 152.5t28 152.5t79 118.5t121 76.5t154 26.5t154 -26.5t121 -76.5t79 -118.5t28 -152.5t-28 -152.5t-79 -118t-121 -76t-154 -26.5zM431 48q96 0 167.5 39.5t112 111t40.5 165.5q0 95 -40.5 166.5t-112.5 111t-167 39.5
t-167 -39.5t-112.5 -111t-40.5 -166.5q0 -94 40 -165.5t112.5 -111t167.5 -39.5zM431 145q-39 0 -69.5 12.5t-52 38.5t-33 65t-11.5 92q0 79 20 131t59 78.5t96 26.5q67 0 108 -33t47 -88h-88q-5 24 -24.5 35t-43.5 11q-32 0 -51 -16.5t-28 -47.5t-9 -74h3q12 23 39 38
t65 15q41 0 71.5 -17t47.5 -47.5t17 -71.5q0 -44 -20 -77.5t-56.5 -52t-86.5 -18.5zM434 221q32 0 52 19.5t20 51.5q0 33 -20 52t-51 19q-33 0 -53 -20t-20 -52q0 -21 9 -36.5t25.5 -24.5t37.5 -9z" />
    <glyph glyph-name="uni2466" unicode="&#x2466;" horiz-adv-x="862" 
d="M431 -9q-84 0 -154 26.5t-121 76t-79 118t-28 152.5t28 152.5t79 118.5t121 76.5t154 26.5t154 -26.5t121 -76.5t79 -118.5t28 -152.5t-28 -152.5t-79 -118t-121 -76t-154 -26.5zM431 48q96 0 167.5 39.5t112 111t40.5 165.5q0 95 -40.5 166.5t-112.5 111t-167 39.5
t-167 -39.5t-112.5 -111t-40.5 -166.5q0 -94 40 -165.5t112.5 -111t167.5 -39.5zM368 150q0 83 17 147.5t44 115.5t56 93h-142v-75h-71v152h317v-64q-27 -38 -50 -76t-40.5 -80.5t-27 -94.5t-9.5 -118h-94z" />
    <glyph glyph-name="uni2467" unicode="&#x2467;" horiz-adv-x="862" 
d="M431 -9q-84 0 -154 26.5t-121 76t-79 118t-28 152.5t28 152.5t79 118.5t121 76.5t154 26.5t154 -26.5t121 -76.5t79 -118.5t28 -152.5t-28 -152.5t-79 -118t-121 -76t-154 -26.5zM431 48q96 0 167.5 39.5t112 111t40.5 165.5q0 95 -40.5 166.5t-112.5 111t-167 39.5
t-167 -39.5t-112.5 -111t-40.5 -166.5q0 -94 40 -165.5t112.5 -111t167.5 -39.5zM431 144q-51 0 -87.5 15.5t-56 43t-19.5 64.5q0 40 24.5 68.5t62.5 36.5v4q-31 9 -51 35t-20 60q0 37 18 63t51.5 39.5t77.5 13.5q46 0 79 -14.5t50 -40.5t17 -61q0 -34 -20 -60t-51 -35v-4
q39 -9 63 -37.5t24 -67.5q0 -58 -45 -90.5t-117 -32.5zM431 219q33 0 52.5 16t19.5 44q0 26 -17.5 43.5t-54.5 17.5q-38 0 -55.5 -17.5t-17.5 -43.5q0 -28 20 -44t53 -16zM431 405q31 0 47 16.5t16 39.5q0 15 -7 27.5t-20.5 20t-35.5 7.5q-33 0 -48.5 -16t-15.5 -39
q0 -15 7 -28t21.5 -20.5t35.5 -7.5z" />
    <glyph glyph-name="uni2468" unicode="&#x2468;" horiz-adv-x="862" 
d="M431 -9q-84 0 -154 26.5t-121 76t-79 118t-28 152.5t28 152.5t79 118.5t121 76.5t154 26.5t154 -26.5t121 -76.5t79 -118.5t28 -152.5t-28 -152.5t-79 -118t-121 -76t-154 -26.5zM431 48q96 0 167.5 39.5t112 111t40.5 165.5q0 95 -40.5 166.5t-112.5 111t-167 39.5
t-167 -39.5t-112.5 -111t-40.5 -166.5q0 -94 40 -165.5t112.5 -111t167.5 -39.5zM431 583q39 0 69.5 -12.5t52 -38t33 -65t11.5 -92.5q0 -79 -20 -131t-59 -78t-96 -26q-66 0 -107 32.5t-48 87.5h88q5 -24 24.5 -35t43.5 -11q32 0 51 16.5t28 47.5t9 74h-3
q-12 -23 -38.5 -38t-65.5 -15q-41 0 -71.5 17t-47.5 48t-17 71q0 44 20 77.5t57 52t86 18.5zM428 507q-32 0 -52 -19.5t-20 -51.5t20 -51.5t51 -19.5q34 0 53.5 20.5t19.5 51.5q0 22 -9 37.5t-25 24t-38 8.5z" />
    <glyph glyph-name="uni24EA" unicode="&#x24ea;" horiz-adv-x="862" 
d="M431 -9q-84 0 -154 26.5t-121 76t-79 118t-28 152.5t28 152.5t79 118.5t121 76.5t154 26.5t154 -26.5t121 -76.5t79 -118.5t28 -152.5t-28 -152.5t-79 -118t-121 -76t-154 -26.5zM431 48q96 0 167.5 39.5t112 111t40.5 165.5q0 95 -40.5 166.5t-112.5 111t-167 39.5
t-167 -39.5t-112.5 -111t-40.5 -166.5q0 -94 40 -165.5t112.5 -111t167.5 -39.5zM430 144q-31 0 -57 10t-45.5 28.5t-32.5 45.5t-19.5 61.5t-6.5 75.5q0 76 20 125t56.5 73t84.5 24q32 0 58 -10t45.5 -28.5t32.5 -45.5t19.5 -61.5t6.5 -76.5q0 -75 -20.5 -124t-56.5 -73
t-85 -24zM430 218q23 0 39 13.5t25 46t9 87.5q0 34 -3 59t-9 42t-15 27.5t-20.5 15.5t-25.5 5q-22 0 -38 -14t-25 -46t-9 -89q0 -33 3 -58t9.5 -42t15 -27.5t20 -15t24.5 -4.5z" />
    <glyph glyph-name="uni24FF" unicode="&#x24ff;" horiz-adv-x="862" 
d="M431 -9q-84 0 -154 26.5t-121 76t-79 118t-28 152.5t28 152.5t79 118.5t121 76.5t154 26.5t154 -26.5t121 -76.5t79 -118.5t28 -152.5t-28 -152.5t-79 -118t-121 -76t-154 -26.5zM431 145q48 0 84.5 24t56.5 73t20 124q0 69 -18 118.5t-54 76t-89 26.5q-48 0 -84.5 -24
t-56.5 -73t-20 -124q0 -69 18 -118.5t54 -76t89 -26.5zM431 218q-22 0 -38.5 13.5t-25.5 46t-9 88.5t9 88.5t25.5 46t38.5 13.5q23 0 39 -13.5t25 -46t9 -88.5t-9 -88.5t-25 -46t-39 -13.5z" />
    <glyph glyph-name="circle" unicode="&#x25cb;" horiz-adv-x="862" 
d="M431 -9q-84 0 -154 26.5t-121 76t-79 118t-28 152.5t28 152.5t79 118.5t121 76.5t154 26.5t154 -26.5t121 -76.5t79 -118.5t28 -152.5t-28 -152.5t-79 -118t-121 -76t-154 -26.5zM431 48q96 0 167.5 39.5t112 111t40.5 165.5q0 95 -40.5 166.5t-112.5 111t-167 39.5
t-167 -39.5t-112.5 -111t-40.5 -166.5q0 -94 40 -165.5t112.5 -111t167.5 -39.5z" />
    <glyph glyph-name="uni25CC" unicode="&#x25cc;" horiz-adv-x="730" 
d="M365 589q-19 0 -32 13t-13 32q0 20 13 32.5t32 12.5q20 0 32.5 -12.5t12.5 -32.5q0 -19 -12.5 -32t-32.5 -13zM500 553q-19 0 -32 13t-13 32q0 20 13 32.5t32 12.5q20 0 32.5 -12.5t12.5 -32.5q0 -19 -12.5 -32t-32.5 -13zM599 454q-19 0 -32 13t-13 32q0 20 13 32.5
t32 12.5q20 0 32.5 -12.5t12.5 -32.5q0 -19 -12.5 -32t-32.5 -13zM635 320q-19 0 -32 12.5t-13 32.5t13 32t32 12q20 0 32.5 -12t12.5 -32t-12.5 -32.5t-32.5 -12.5zM599 185q-19 0 -32 13t-13 32q0 20 13 32.5t32 12.5q20 0 32.5 -12.5t12.5 -32.5q0 -19 -12.5 -32
t-32.5 -13zM500 86q-19 0 -32 13t-13 32q0 20 13 32.5t32 12.5q20 0 32.5 -12.5t12.5 -32.5q0 -19 -12.5 -32t-32.5 -13zM365 50q-19 0 -32 13t-13 32q0 20 13 32.5t32 12.5q20 0 32.5 -12.5t12.5 -32.5q0 -19 -12.5 -32t-32.5 -13zM230 86q-19 0 -32 13t-13 32
q0 20 13 32.5t32 12.5q20 0 32.5 -12.5t12.5 -32.5q0 -19 -12.5 -32t-32.5 -13zM131 185q-19 0 -32 13t-13 32q0 20 13 32.5t32 12.5q20 0 32.5 -12.5t12.5 -32.5q0 -19 -12.5 -32t-32.5 -13zM95 320q-19 0 -32 12.5t-13 32.5t13 32t32 12q20 0 32.5 -12t12.5 -32
t-12.5 -32.5t-32.5 -12.5zM131 454q-19 0 -32 13t-13 32q0 20 13 32.5t32 12.5q20 0 32.5 -12.5t12.5 -32.5q0 -19 -12.5 -32t-32.5 -13zM230 553q-19 0 -32 13t-13 32q0 20 13 32.5t32 12.5q20 0 32.5 -12.5t12.5 -32.5q0 -19 -12.5 -32t-32.5 -13z" />
    <glyph glyph-name="uni25CF" unicode="&#x25cf;" horiz-adv-x="862" 
d="M431 -9q-84 0 -154 26.5t-121 76t-79 118t-28 152.5t28 152.5t79 118.5t121 76.5t154 26.5t154 -26.5t121 -76.5t79 -118.5t28 -152.5t-28 -152.5t-79 -118t-121 -76t-154 -26.5z" />
    <glyph glyph-name="uni2639" unicode="&#x2639;" horiz-adv-x="851" 
d="M426 -10q-82 0 -150.5 27t-119.5 77t-79 119t-28 154q0 82 28 150.5t79 118.5t120 76.5t150 26.5t150 -26.5t120 -76.5t79 -118.5t28 -150.5q0 -85 -28 -154t-79 -119t-120 -77t-150 -27zM197 176q23 68 84.5 105.5t143.5 37.5q83 0 144.5 -37.5t84.5 -105.5h-51
q-22 45 -70 71.5t-108 26.5q-61 0 -108.5 -27t-69.5 -71h-50zM426 44q94 0 165.5 40.5t112.5 113t41 168.5t-41 167.5t-112.5 111.5t-165.5 40t-166 -40t-112.5 -111.5t-40.5 -167.5t40.5 -168.5t112.5 -113t166 -40.5zM346 407q-21 0 -36 13.5t-15 35.5q0 21 15 35t36 14
q22 0 36.5 -14t14.5 -35t-14.5 -35t-36.5 -14zM507 407q-21 0 -36.5 13.5t-15.5 35.5q0 21 15.5 35t36.5 14q22 0 36.5 -14t14.5 -35t-14.5 -35t-36.5 -14z" />
    <glyph glyph-name="smileface" unicode="&#x263a;" horiz-adv-x="851" 
d="M426 -10q-82 0 -150.5 27t-119.5 77t-79 119t-28 154q0 82 28 150.5t79 118.5t120 76.5t150 26.5t150 -26.5t120 -76.5t79 -118.5t28 -150.5q0 -85 -28 -154t-79 -119t-120 -77t-150 -27zM425 116q-62 0 -113 23.5t-83 65.5t-42 98h-29v26h118v-26h-35q8 -41 33.5 -71.5
t64.5 -47.5t86 -17q49 0 87.5 17t64 47.5t33.5 71.5h-35v26h119v-26h-30q-9 -56 -42 -98t-83 -65.5t-114 -23.5zM426 44q94 0 165.5 40.5t112.5 113t41 168.5t-41 167.5t-112.5 111.5t-165.5 40t-166 -40t-112.5 -111.5t-40.5 -167.5t40.5 -168.5t112.5 -113t166 -40.5z
M346 407q-21 0 -36 13.5t-15 35.5q0 21 15 35t36 14q22 0 36.5 -14t14.5 -35t-14.5 -35t-36.5 -14zM507 407q-21 0 -36.5 13.5t-15.5 35.5q0 21 15.5 35t36.5 14q22 0 36.5 -14t14.5 -35t-14.5 -35t-36.5 -14z" />
    <glyph glyph-name="uni2713" unicode="&#x2713;" horiz-adv-x="935" 
d="M327 97l-220 273l78 71l151 -190l421 377l70 -83z" />
    <glyph glyph-name="uni2776" unicode="&#x2776;" horiz-adv-x="862" 
d="M431 -9q-84 0 -154 26.5t-121 76t-79 118t-28 152.5t28 152.5t79 118.5t121 76.5t154 26.5t154 -26.5t121 -76.5t79 -118.5t28 -152.5t-28 -152.5t-79 -118t-121 -76t-154 -26.5zM420 150h87v433h-83q-3 -34 -28 -55t-67 -21h-19v-66h110v-291z" />
    <glyph glyph-name="uni2777" unicode="&#x2777;" horiz-adv-x="862" 
d="M431 -9q-84 0 -154 26.5t-121 76t-79 118t-28 152.5t28 152.5t79 118.5t121 76.5t154 26.5t154 -26.5t121 -76.5t79 -118.5t28 -152.5t-28 -152.5t-79 -118t-121 -76t-154 -26.5zM281 150h300v76h-202q7 18 24 33.5t40.5 31t47.5 32.5t44.5 37t33.5 45t13 56q0 56 -39 91
t-105 35q-72 0 -114 -38t-44 -102h87q0 28 17.5 47t49.5 19q26 0 43 -15t17 -41q0 -24 -15.5 -43.5t-39.5 -37.5t-51.5 -37.5t-51.5 -43.5t-39.5 -54.5t-15.5 -72.5v-18z" />
    <glyph glyph-name="uni2778" unicode="&#x2778;" horiz-adv-x="862" 
d="M431 -9q-84 0 -154 26.5t-121 76t-79 118t-28 152.5t28 152.5t79 118.5t121 76.5t154 26.5t154 -26.5t121 -76.5t79 -118.5t28 -152.5t-28 -152.5t-79 -118t-121 -76t-154 -26.5zM429 145q70 0 115 34t45 94q0 37 -19.5 64t-54.5 36v4q28 10 47 35t19 59q0 54 -40 85.5
t-106 31.5q-45 0 -79.5 -16t-54.5 -45.5t-22 -70.5h86q1 27 19.5 43t47.5 16t46 -14t17 -41q0 -24 -17.5 -40t-49.5 -16h-41v-65h47q31 0 48.5 -14.5t17.5 -44.5q0 -27 -19 -45t-52 -18q-29 0 -49 16t-21 45h-86q2 -39 21 -69.5t53.5 -47t81.5 -16.5z" />
    <glyph glyph-name="uni2779" unicode="&#x2779;" horiz-adv-x="862" 
d="M431 -9q-84 0 -154 26.5t-121 76t-79 118t-28 152.5t28 152.5t79 118.5t121 76.5t154 26.5t154 -26.5t121 -76.5t79 -118.5t28 -152.5t-28 -152.5t-79 -118t-121 -76t-154 -26.5zM453 150h87v99h71v72h-71v262h-105l-183 -268v-66h201v-99zM339 321l114 164v-164h-114z
" />
    <glyph glyph-name="uni277A" unicode="&#x277a;" horiz-adv-x="862" 
d="M431 -9q-84 0 -154 26.5t-121 76t-79 118t-28 152.5t28 152.5t79 118.5t121 76.5t154 26.5t154 -26.5t121 -76.5t79 -118.5t28 -152.5t-28 -152.5t-79 -118t-121 -76t-154 -26.5zM427 145q49 0 85.5 18.5t56.5 52.5t20 78q0 41 -16.5 72t-47 48t-72.5 17
q-25 0 -48.5 -8.5t-34.5 -24.5l-4 2l11 106h201v77h-279l-18 -260h85q6 17 23.5 28t40.5 11q31 0 51 -19t20 -52q0 -31 -19 -51t-53 -20q-28 0 -46 14t-22 37h-88q4 -55 44.5 -90.5t109.5 -35.5z" />
    <glyph glyph-name="uni277B" unicode="&#x277b;" horiz-adv-x="862" 
d="M431 -9q-84 0 -154 26.5t-121 76t-79 118t-28 152.5t28 152.5t79 118.5t121 76.5t154 26.5t154 -26.5t121 -76.5t79 -118.5t28 -152.5t-28 -152.5t-79 -118t-121 -76t-154 -26.5zM432 145q73 0 117.5 41t44.5 108q0 60 -37 97.5t-99 37.5q-38 0 -65 -15t-38 -38h-4
q1 43 9.5 74t28 47.5t50.5 16.5q24 0 44 -11t25 -34h88q-7 54 -48 87t-107 33q-57 0 -96 -26.5t-59 -78.5t-20 -131q0 -53 11 -92t32.5 -65t52.5 -38.5t70 -12.5zM435 221q-33 0 -52.5 19t-19.5 51t19.5 52t52.5 20q32 0 51.5 -19t19.5 -52q0 -31 -19.5 -51t-51.5 -20z" />
    <glyph glyph-name="uni277C" unicode="&#x277c;" horiz-adv-x="862" 
d="M431 -9q-84 0 -154 26.5t-121 76t-79 118t-28 152.5t28 152.5t79 118.5t121 76.5t154 26.5t154 -26.5t121 -76.5t79 -118.5t28 -152.5t-28 -152.5t-79 -118t-121 -76t-154 -26.5zM368 150h94q0 66 10 118t27.5 94.5t40 80.5t49.5 76v64h-316v-152h70v75h142
q-29 -41 -56 -92.5t-44 -116t-17 -147.5z" />
    <glyph glyph-name="uni277D" unicode="&#x277d;" horiz-adv-x="862" 
d="M431 -9q-84 0 -154 26.5t-121 76t-79 118t-28 152.5t28 152.5t79 118.5t121 76.5t154 26.5t154 -26.5t121 -76.5t79 -118.5t28 -152.5t-28 -152.5t-79 -118t-121 -76t-154 -26.5zM431 144q73 0 117.5 33t44.5 90q0 39 -23.5 67.5t-63.5 37.5v4q32 9 52 35.5t20 59.5
q0 35 -17.5 61.5t-50 40.5t-79.5 14q-44 0 -77 -13.5t-51 -39.5t-18 -63q0 -33 19.5 -59.5t51.5 -35.5v-4q-38 -8 -62.5 -36.5t-24.5 -68.5q0 -55 43 -89t119 -34zM431 219q-33 0 -52.5 16t-19.5 44q0 26 17.5 43.5t54.5 17.5t55 -17.5t18 -43.5q0 -28 -20 -44t-53 -16z
M431 405q-32 0 -47.5 16.5t-15.5 39.5t15.5 39t47.5 16q34 0 49 -16t15 -39t-16 -39.5t-48 -16.5z" />
    <glyph glyph-name="uni277E" unicode="&#x277e;" horiz-adv-x="862" 
d="M431 -9q-84 0 -154 26.5t-121 76t-79 118t-28 152.5t28 152.5t79 118.5t121 76.5t154 26.5t154 -26.5t121 -76.5t79 -118.5t28 -152.5t-28 -152.5t-79 -118t-121 -76t-154 -26.5zM422 140q57 0 96.5 26t59 78t19.5 131q0 53 -11 92.5t-33 65t-52.5 38t-69.5 12.5
q-73 0 -118 -40.5t-45 -107.5q0 -61 37.5 -98.5t98.5 -37.5q39 0 66 15t38 38h4q-1 -43 -10 -74t-28 -47.5t-50 -16.5q-24 0 -44 11t-25 35h-88q7 -55 48.5 -87.5t106.5 -32.5zM428 365q-32 0 -52 19.5t-20 51.5t20 51.5t52 19.5t52 -19t20 -51q0 -31 -19.5 -51.5
t-52.5 -20.5z" />
    <glyph glyph-name="uniF8FF" unicode="&#xf8ff;" horiz-adv-x="866" 
d="M310 -8q-78 25 -136.5 76.5t-91 125t-32.5 162.5q0 115 48 200.5t134 133.5t201 48t201 -48t134 -133.5t48 -200.5q0 -89 -32.5 -162.5t-91 -125t-136.5 -76.5q-10 -3 -18.5 1.5t-8.5 16.5v105q0 54 -36 71q86 9 135.5 56.5t49.5 123.5q0 38 -10.5 65t-29.5 46q8 24 7 52
t-11 50q-28 2 -57 -9t-47 -31q-24 8 -48 11t-49 3t-49 -3t-48 -11q-18 20 -46.5 31t-57.5 9q-10 -22 -10.5 -50t6.5 -52q-19 -19 -29.5 -46t-10.5 -65q0 -76 49.5 -123.5t135.5 -56.5q-29 -13 -35 -52q-18 -10 -44 -10q-24 0 -39 13t-26.5 29.5t-25.5 29.5t-36 13
q-14 0 -14 -10t15 -17.5t26 -25.5q11 -17 21 -35.5t28.5 -31.5t54.5 -13q19 0 39 4v-70q0 -12 -8.5 -16.5t-18.5 -1.5zM222 150q-7 0 -7 5t6 5q7 0 7 -5t-6 -5zM191 185q-6 0 -6 4t5 4q6 0 6 -4t-5 -4zM206 171q-6 0 -6 4t5 4q6 0 6 -4t-5 -4zM266 109q-8 0 -8 6t7 6
q8 0 8 -6t-7 -6zM297 104q-8 0 -8 6t7 6q8 0 8 -6t-7 -6zM328 110q-8 0 -8 6t7 6q8 0 8 -6t-7 -6zM240 127q-8 0 -8 6t7 6q8 0 8 -6t-7 -6z" />
    <glyph glyph-name="uni004A0301" horiz-adv-x="413" 
d="M23 0v104h88q55 0 77 25.5t22 79.5v520h131v-530q0 -66 -21 -110.5t-64 -66.5t-110 -22h-123zM228 794l59 143h125l-88 -143h-96z" />
    <glyph glyph-name="uni1EB6.ss01" horiz-adv-x="728" 
d="M20 0l250 729h188l250 -729h-138l-174 535l-28 93h-7l-29 -93l-174 -535h-138zM199 160l26 103h278l26 -103h-330zM301 -162v97h125v-97h-125zM364 786q-48 0 -83 18t-54.5 51t-19.5 79h84q0 -39 20 -59t53 -20q34 0 53.5 20t19.5 59h84q0 -69 -42.5 -108.5t-114.5 -39.5
z" />
    <glyph glyph-name="uni1EAC.ss01" horiz-adv-x="728" 
d="M20 0l250 729h188l250 -729h-138l-174 535l-28 93h-7l-29 -93l-174 -535h-138zM199 160l26 103h278l26 -103h-330zM301 -162v97h125v-97h-125zM193 794l110 143h123l110 -143h-107l-65 85l-64 -85h-107z" />
    <glyph glyph-name="Adieresis.ss01" horiz-adv-x="728" 
d="M20 0l250 729h188l250 -729h-138l-174 535l-28 93h-7l-29 -93l-174 -535h-138zM199 160l26 103h278l26 -103h-330zM405 804v121h108v-121h-108zM214 804v121h108v-121h-108z" />
    <glyph glyph-name="uni1EA0.ss01" horiz-adv-x="728" 
d="M20 0l250 729h188l250 -729h-138l-174 535l-28 93h-7l-29 -93l-174 -535h-138zM199 160l26 103h278l26 -103h-330zM301 -162v97h125v-97h-125z" />
    <glyph glyph-name="Cdotaccent.ss01" horiz-adv-x="770" 
d="M402 -9q-82 0 -148.5 25.5t-114.5 73.5t-73.5 117.5t-25.5 157.5t25.5 157t73.5 117t114.5 73.5t148.5 25.5q92 0 164 -32t117 -89.5t55 -135.5h-135q-9 43 -36 75t-69 50t-96 18q-69 0 -119.5 -29.5t-78.5 -87.5t-28 -142q0 -63 16 -112t45.5 -82t71 -49.5t93.5 -16.5
q53 0 95 18t70 50.5t36 75.5h135q-9 -77 -54.5 -135.5t-117.5 -90.5t-164 -32zM335 803v123h125v-123h-125z" />
    <glyph glyph-name="uni1EC6.ss01" horiz-adv-x="631" 
d="M74 0v729h520v-114h-416l28 29v-559l-28 29h418v-114h-522zM178 318v107h367v-107h-367zM255 -162v97h125v-97h-125zM147 794l110 143h123l110 -143h-107l-65 85l-64 -85h-107z" />
    <glyph glyph-name="Edieresis.ss01" horiz-adv-x="631" 
d="M74 0v729h520v-114h-416l28 29v-559l-28 29h418v-114h-522zM178 318v107h367v-107h-367zM359 804v121h108v-121h-108zM168 804v121h108v-121h-108z" />
    <glyph glyph-name="Edotaccent.ss01" horiz-adv-x="631" 
d="M74 0v729h520v-114h-416l28 29v-559l-28 29h418v-114h-522zM178 318v107h367v-107h-367zM255 803v123h125v-123h-125z" />
    <glyph glyph-name="uni1EB8.ss01" horiz-adv-x="631" 
d="M74 0v729h520v-114h-416l28 29v-559l-28 29h418v-114h-522zM178 318v107h367v-107h-367zM255 -162v97h125v-97h-125z" />
    <glyph glyph-name="Gdotaccent.ss01" horiz-adv-x="814" 
d="M384 -9q-78 0 -141.5 25.5t-109 73.5t-70 115.5t-24.5 151.5q0 89 26.5 159.5t75.5 120t116.5 75.5t151.5 26q93 0 165.5 -29.5t118.5 -84t57 -131.5h-135q-11 40 -39.5 69.5t-70.5 45.5t-97 16q-75 0 -127 -33t-79 -92t-27 -138q0 -62 16.5 -110t46.5 -81.5t72 -51
t95 -17.5q63 0 111 23t75 64.5t27 98.5v37l29 -27h-259v97h371v-394h-106l-7 127h-6q-17 -41 -55 -71.5t-90 -47.5t-111 -17zM346 803v123h125v-123h-125z" />
    <glyph glyph-name="Idieresis.ss01" horiz-adv-x="280" 
d="M74 0v729h132v-729h-132zM182 804v121h108v-121h-108zM-9 804v121h108v-121h-108z" />
    <glyph glyph-name="Idotaccent.ss01" horiz-adv-x="280" 
d="M74 0v729h132v-729h-132zM77 803v123h125v-123h-125z" />
    <glyph glyph-name="uni1ECA.ss01" horiz-adv-x="280" 
d="M74 0v729h132v-729h-132zM77 -162v97h125v-97h-125z" />
    <glyph glyph-name="Ldot.ss01" horiz-adv-x="566" 
d="M74 0v729h132v-636l-22 25h359v-118h-469zM355 317v132h134v-132h-134z" />
    <glyph glyph-name="uni1ED8.ss01" horiz-adv-x="805" 
d="M402 -9q-82 0 -148.5 25.5t-114.5 73.5t-73.5 117.5t-25.5 157.5t25.5 157t73.5 117t114.5 73.5t148.5 25.5t149 -25.5t115 -74t73.5 -117t25.5 -156.5t-25.5 -157.5t-74 -117.5t-115 -73.5t-148.5 -25.5zM402 105q70 0 121 30t78.5 88t27.5 142q0 63 -16 111t-45.5 81
t-71.5 50t-94 17q-69 0 -119.5 -29.5t-78.5 -87.5t-28 -142q0 -63 16 -112t45.5 -82t71 -49.5t93.5 -16.5zM340 -162v97h125v-97h-125zM231 794l110 143h123l110 -143h-107l-65 85l-64 -85h-107z" />
    <glyph glyph-name="Odieresis.ss01" horiz-adv-x="805" 
d="M402 -9q-82 0 -148.5 25.5t-114.5 73.5t-73.5 117.5t-25.5 157.5t25.5 157t73.5 117t114.5 73.5t148.5 25.5t149 -25.5t115 -74t73.5 -117t25.5 -156.5t-25.5 -157.5t-74 -117.5t-115 -73.5t-148.5 -25.5zM402 105q70 0 121 30t78.5 88t27.5 142q0 63 -16 111t-45.5 81
t-71.5 50t-94 17q-69 0 -119.5 -29.5t-78.5 -87.5t-28 -142q0 -63 16 -112t45.5 -82t71 -49.5t93.5 -16.5zM444 804v121h108v-121h-108zM253 804v121h108v-121h-108z" />
    <glyph glyph-name="uni1ECC.ss01" horiz-adv-x="805" 
d="M402 -9q-82 0 -148.5 25.5t-114.5 73.5t-73.5 117.5t-25.5 157.5t25.5 157t73.5 117t114.5 73.5t148.5 25.5t149 -25.5t115 -74t73.5 -117t25.5 -156.5t-25.5 -157.5t-74 -117.5t-115 -73.5t-148.5 -25.5zM402 105q70 0 121 30t78.5 88t27.5 142q0 63 -16 111t-45.5 81
t-71.5 50t-94 17q-69 0 -119.5 -29.5t-78.5 -87.5t-28 -142q0 -63 16 -112t45.5 -82t71 -49.5t93.5 -16.5zM340 -162v97h125v-97h-125z" />
    </font>
</defs>
</svg>
