<svg width="88" height="16" viewBox="0 0 88 16" fill="none" xmlns="http://www.w3.org/2000/svg">
<g clip-path="url(#clip0_585_803)">
<path d="M5.49615 4.89328L1.24282 5.50995L1.16749 5.52528C1.05345 5.55556 0.949484 5.61555 0.866215 5.69915C0.782947 5.78274 0.723356 5.88694 0.693529 6.0011C0.663701 6.11526 0.664705 6.23529 0.696439 6.34893C0.728172 6.46257 0.789498 6.56576 0.874154 6.64795L3.95549 9.64728L3.22882 13.8839L3.22015 13.9573C3.21317 14.0752 3.23766 14.1929 3.29112 14.2983C3.34458 14.4037 3.42508 14.4929 3.52438 14.557C3.62368 14.621 3.73821 14.6575 3.85625 14.6627C3.97429 14.6679 4.0916 14.6416 4.19615 14.5866L8.00015 12.5866L11.7955 14.5866L11.8622 14.6173C11.9722 14.6606 12.0918 14.6739 12.2087 14.6558C12.3255 14.6377 12.4355 14.5888 12.5272 14.5141C12.619 14.4395 12.6892 14.3418 12.7307 14.231C12.7722 14.1203 12.7835 14.0005 12.7635 13.8839L12.0362 9.64728L15.1188 6.64728L15.1708 6.59062C15.2451 6.49913 15.2938 6.38958 15.312 6.27315C15.3301 6.15671 15.3171 6.03753 15.2742 5.92777C15.2313 5.818 15.1601 5.72157 15.0678 5.64829C14.9755 5.57501 14.8654 5.52751 14.7488 5.51062L10.4955 4.89328L8.59415 1.03995C8.53914 0.928305 8.45397 0.834292 8.34828 0.768551C8.2426 0.702811 8.12062 0.667969 7.99615 0.667969C7.87169 0.667969 7.74971 0.702811 7.64403 0.768551C7.53834 0.834292 7.45317 0.928305 7.39815 1.03995L5.49615 4.89328Z" fill="#155DFC"/>
</g>
<g clip-path="url(#clip1_585_803)">
<path d="M23.4962 4.89328L19.2428 5.50995L19.1675 5.52528C19.0534 5.55556 18.9495 5.61555 18.8662 5.69915C18.7829 5.78274 18.7234 5.88694 18.6935 6.0011C18.6637 6.11526 18.6647 6.23529 18.6964 6.34893C18.7282 6.46257 18.7895 6.56576 18.8742 6.64795L21.9555 9.64728L21.2288 13.8839L21.2202 13.9573C21.2132 14.0752 21.2377 14.1929 21.2911 14.2983C21.3446 14.4037 21.4251 14.4929 21.5244 14.557C21.6237 14.621 21.7382 14.6575 21.8563 14.6627C21.9743 14.6679 22.0916 14.6416 22.1962 14.5866L26.0002 12.5866L29.7955 14.5866L29.8622 14.6173C29.9722 14.6606 30.0918 14.6739 30.2087 14.6558C30.3255 14.6377 30.4355 14.5888 30.5272 14.5141C30.619 14.4395 30.6892 14.3418 30.7307 14.231C30.7722 14.1203 30.7835 14.0005 30.7635 13.8839L30.0362 9.64728L33.1188 6.64728L33.1708 6.59062C33.2451 6.49913 33.2938 6.38958 33.312 6.27315C33.3301 6.15671 33.3171 6.03753 33.2742 5.92777C33.2313 5.818 33.1601 5.72157 33.0678 5.64829C32.9755 5.57501 32.8654 5.52751 32.7488 5.51062L28.4955 4.89328L26.5942 1.03995C26.5391 0.928305 26.454 0.834292 26.3483 0.768551C26.2426 0.702811 26.1206 0.667969 25.9962 0.667969C25.8717 0.667969 25.7497 0.702811 25.644 0.768551C25.5383 0.834292 25.4532 0.928305 25.3982 1.03995L23.4962 4.89328Z" fill="#155DFC"/>
</g>
<g clip-path="url(#clip2_585_803)">
<path d="M41.4962 4.89328L37.2428 5.50995L37.1675 5.52528C37.0534 5.55556 36.9495 5.61555 36.8662 5.69915C36.7829 5.78274 36.7234 5.88694 36.6935 6.0011C36.6637 6.11526 36.6647 6.23529 36.6964 6.34893C36.7282 6.46257 36.7895 6.56576 36.8742 6.64795L39.9555 9.64728L39.2288 13.8839L39.2202 13.9573C39.2132 14.0752 39.2377 14.1929 39.2911 14.2983C39.3446 14.4037 39.4251 14.4929 39.5244 14.557C39.6237 14.621 39.7382 14.6575 39.8563 14.6627C39.9743 14.6679 40.0916 14.6416 40.1962 14.5866L44.0002 12.5866L47.7955 14.5866L47.8622 14.6173C47.9722 14.6606 48.0918 14.6739 48.2087 14.6558C48.3255 14.6377 48.4355 14.5888 48.5272 14.5141C48.619 14.4395 48.6892 14.3418 48.7307 14.231C48.7722 14.1203 48.7835 14.0005 48.7635 13.8839L48.0362 9.64728L51.1188 6.64728L51.1708 6.59062C51.2451 6.49913 51.2938 6.38958 51.312 6.27315C51.3301 6.15671 51.3171 6.03753 51.2742 5.92777C51.2313 5.818 51.1601 5.72157 51.0678 5.64829C50.9755 5.57501 50.8654 5.52751 50.7488 5.51062L46.4955 4.89328L44.5942 1.03995C44.5391 0.928305 44.454 0.834292 44.3483 0.768551C44.2426 0.702811 44.1206 0.667969 43.9962 0.667969C43.8717 0.667969 43.7497 0.702811 43.644 0.768551C43.5383 0.834292 43.4532 0.928305 43.3982 1.03995L41.4962 4.89328Z" fill="#155DFC"/>
</g>
<g clip-path="url(#clip3_585_803)">
<path d="M59.4962 4.89328L55.2428 5.50995L55.1675 5.52528C55.0534 5.55556 54.9495 5.61555 54.8662 5.69915C54.7829 5.78274 54.7234 5.88694 54.6935 6.0011C54.6637 6.11526 54.6647 6.23529 54.6964 6.34893C54.7282 6.46257 54.7895 6.56576 54.8742 6.64795L57.9555 9.64728L57.2288 13.8839L57.2202 13.9573C57.2132 14.0752 57.2377 14.1929 57.2911 14.2983C57.3446 14.4037 57.4251 14.4929 57.5244 14.557C57.6237 14.621 57.7382 14.6575 57.8563 14.6627C57.9743 14.6679 58.0916 14.6416 58.1962 14.5866L62.0002 12.5866L65.7955 14.5866L65.8622 14.6173C65.9722 14.6606 66.0918 14.6739 66.2087 14.6558C66.3255 14.6377 66.4355 14.5888 66.5272 14.5141C66.619 14.4395 66.6892 14.3418 66.7307 14.231C66.7722 14.1203 66.7835 14.0005 66.7635 13.8839L66.0362 9.64728L69.1188 6.64728L69.1708 6.59062C69.2451 6.49913 69.2938 6.38958 69.312 6.27315C69.3301 6.15671 69.3171 6.03753 69.2742 5.92777C69.2313 5.818 69.1601 5.72157 69.0678 5.64829C68.9755 5.57501 68.8654 5.52751 68.7488 5.51062L64.4955 4.89328L62.5942 1.03995C62.5391 0.928305 62.454 0.834292 62.3483 0.768551C62.2426 0.702811 62.1206 0.667969 61.9962 0.667969C61.8717 0.667969 61.7497 0.702811 61.644 0.768551C61.5383 0.834292 61.4532 0.928305 61.3982 1.03995L59.4962 4.89328Z" fill="#155DFC"/>
</g>
<g clip-path="url(#clip4_585_803)">
<path d="M77.4962 4.89328L73.2428 5.50995L73.1675 5.52528C73.0534 5.55556 72.9495 5.61555 72.8662 5.69915C72.7829 5.78274 72.7234 5.88694 72.6935 6.0011C72.6637 6.11526 72.6647 6.23529 72.6964 6.34893C72.7282 6.46257 72.7895 6.56576 72.8742 6.64795L75.9555 9.64728L75.2288 13.8839L75.2202 13.9573C75.2132 14.0752 75.2377 14.1929 75.2911 14.2983C75.3446 14.4037 75.4251 14.4929 75.5244 14.557C75.6237 14.621 75.7382 14.6575 75.8563 14.6627C75.9743 14.6679 76.0916 14.6416 76.1962 14.5866L80.0002 12.5866L83.7955 14.5866L83.8622 14.6173C83.9722 14.6606 84.0918 14.6739 84.2087 14.6558C84.3255 14.6377 84.4355 14.5888 84.5272 14.5141C84.619 14.4395 84.6892 14.3418 84.7307 14.231C84.7722 14.1203 84.7835 14.0005 84.7635 13.8839L84.0362 9.64728L87.1188 6.64728L87.1708 6.59062C87.2451 6.49913 87.2938 6.38958 87.312 6.27315C87.3301 6.15671 87.3171 6.03753 87.2742 5.92777C87.2313 5.818 87.1601 5.72157 87.0678 5.64829C86.9755 5.57501 86.8654 5.52751 86.7488 5.51062L82.4955 4.89328L80.5942 1.03995C80.5391 0.928305 80.454 0.834292 80.3483 0.768551C80.2426 0.702811 80.1206 0.667969 79.9962 0.667969C79.8717 0.667969 79.7497 0.702811 79.644 0.768551C79.5383 0.834292 79.4532 0.928305 79.3982 1.03995L77.4962 4.89328Z" fill="#155DFC"/>
</g>
<defs>
<clipPath id="clip0_585_803">
<rect width="16" height="16" fill="white"/>
</clipPath>
<clipPath id="clip1_585_803">
<rect width="16" height="16" fill="white" transform="translate(18)"/>
</clipPath>
<clipPath id="clip2_585_803">
<rect width="16" height="16" fill="white" transform="translate(36)"/>
</clipPath>
<clipPath id="clip3_585_803">
<rect width="16" height="16" fill="white" transform="translate(54)"/>
</clipPath>
<clipPath id="clip4_585_803">
<rect width="16" height="16" fill="white" transform="translate(72)"/>
</clipPath>
</defs>
</svg>
